<?xml version="1.0" encoding="UTF-8" standalone="no"?>
<svg
   xmlns:dc="http://purl.org/dc/elements/1.1/"
   xmlns:cc="http://creativecommons.org/ns#"
   xmlns:rdf="http://www.w3.org/1999/02/22-rdf-syntax-ns#"
   xmlns:svg="http://www.w3.org/2000/svg"
   xmlns="http://www.w3.org/2000/svg"
   id="svg76"
   version="1.1"
   width="259.9"
   viewBox="0 0 259.9 40"
   height="40"
   enable-background="new 0 0 259.9 40">
  <metadata
     id="metadata82">
    <rdf:RDF>
      <cc:Work
         rdf:about="">
        <dc:format>image/svg+xml</dc:format>
        <dc:type
           rdf:resource="http://purl.org/dc/dcmitype/StillImage" />
        <dc:title></dc:title>
      </cc:Work>
    </rdf:RDF>
  </metadata>
  <defs
     id="defs80">
    <clipPath
       id="clip3">
      <path
         d="m 309.60937,757.42187 h 25.7461 v 26.10547 h -25.7461 z m 0,0"
         id="path8" />
    </clipPath>
    <clipPath
       id="clip4">
      <path
         d="m 321.34375,757.42187 c -3.36719,0 -6.45703,1.1875 -8.875,3.16797 2.07422,-1.21484 4.48828,-1.91015 7.06641,-1.91015 7.73828,0 14.01171,6.26953 14.01171,14.00781 0,4.37109 -2,8.26953 -5.13281,10.83984 4.15235,-2.42968 6.94141,-6.9375 6.94141,-12.09765 0,-7.73828 -6.27344,-14.00782 -14.01172,-14.00782 z m -11.73438,15.26563 c 0,5.48437 4.44532,9.92969 9.92579,9.92969 2.5039,0 4.78906,-0.92578 6.53906,-2.45703 -1.40625,0.76171 -3.01953,1.19531 -4.73047,1.19531 -5.48438,0 -9.92578,-4.44141 -9.92578,-9.92578 0,-2.98047 1.3125,-5.65235 3.39062,-7.47266 -3.09765,1.67969 -5.19922,4.96094 -5.19922,8.73047"
         id="path11" />
    </clipPath>
    <linearGradient
       id="linear0"
       x1="-0.0599568"
       x2="0.95219201"
       y1="0"
       y2="0"
       gradientTransform="matrix(-25.435,0,0,-25.435,333.829,772.06)"
       gradientUnits="userSpaceOnUse">
      <stop
         offset="0"
         stop-color="#ee2722"
         id="stop32" />
      <stop
         offset="0.125"
         stop-color="#ee2722"
         id="stop34" />
      <stop
         offset="0.15625"
         stop-color="#ee2722"
         id="stop36" />
      <stop
         offset="0.160156"
         stop-color="#ee2822"
         id="stop38" />
      <stop
         offset="0.164063"
         stop-color="#ee2823"
         id="stop40" />
      <stop
         offset="0.167969"
         stop-color="#ee2923"
         id="stop42" />
      <stop
         offset="0.171875"
         stop-color="#ee2a23"
         id="stop44" />
      <stop
         offset="0.175781"
         stop-color="#ee2b24"
         id="stop46" />
      <stop
         offset="0.179688"
         stop-color="#ee2c24"
         id="stop48" />
      <stop
         offset="0.183594"
         stop-color="#ee2c25"
         id="stop50" />
      <stop
         offset="0.1875"
         stop-color="#ee2d25"
         id="stop52" />
      <stop
         offset="0.191406"
         stop-color="#ef2e25"
         id="stop54" />
      <stop
         offset="0.195313"
         stop-color="#ef2e26"
         id="stop56" />
      <stop
         offset="0.199219"
         stop-color="#ef2f26"
         id="stop58" />
      <stop
         offset="0.203125"
         stop-color="#ef3027"
         id="stop60" />
      <stop
         offset="0.207031"
         stop-color="#ef3127"
         id="stop62" />
      <stop
         offset="0.210938"
         stop-color="#ef3227"
         id="stop64" />
      <stop
         offset="0.214844"
         stop-color="#ef3228"
         id="stop66" />
      <stop
         offset="0.21875"
         stop-color="#ef3328"
         id="stop68" />
      <stop
         offset="0.222656"
         stop-color="#ef3429"
         id="stop70" />
      <stop
         offset="0.226563"
         stop-color="#ef3529"
         id="stop72" />
      <stop
         offset="0.230469"
         stop-color="#ef362a"
         id="stop74" />
      <stop
         offset="0.234375"
         stop-color="#ef372a"
         id="stop76" />
      <stop
         offset="0.238281"
         stop-color="#ef382a"
         id="stop78" />
      <stop
         offset="0.242188"
         stop-color="#ef382b"
         id="stop80" />
      <stop
         offset="0.246094"
         stop-color="#f0392b"
         id="stop82" />
      <stop
         offset="0.25"
         stop-color="#f03a2c"
         id="stop84" />
      <stop
         offset="0.253906"
         stop-color="#f03b2c"
         id="stop86" />
      <stop
         offset="0.257813"
         stop-color="#f03c2d"
         id="stop88" />
      <stop
         offset="0.261719"
         stop-color="#f03c2d"
         id="stop90" />
      <stop
         offset="0.265625"
         stop-color="#f03d2e"
         id="stop92" />
      <stop
         offset="0.269531"
         stop-color="#f03e2e"
         id="stop94" />
      <stop
         offset="0.273438"
         stop-color="#f03f2f"
         id="stop96" />
      <stop
         offset="0.277344"
         stop-color="#f03f2f"
         id="stop98" />
      <stop
         offset="0.28125"
         stop-color="#f04030"
         id="stop100" />
      <stop
         offset="0.285156"
         stop-color="#f04130"
         id="stop102" />
      <stop
         offset="0.289063"
         stop-color="#f04231"
         id="stop104" />
      <stop
         offset="0.292969"
         stop-color="#f04331"
         id="stop106" />
      <stop
         offset="0.296875"
         stop-color="#f04432"
         id="stop108" />
      <stop
         offset="0.300781"
         stop-color="#f14533"
         id="stop110" />
      <stop
         offset="0.304688"
         stop-color="#f14633"
         id="stop112" />
      <stop
         offset="0.308594"
         stop-color="#f14734"
         id="stop114" />
      <stop
         offset="0.3125"
         stop-color="#f14835"
         id="stop116" />
      <stop
         offset="0.316406"
         stop-color="#f14935"
         id="stop118" />
      <stop
         offset="0.320313"
         stop-color="#f14a36"
         id="stop120" />
      <stop
         offset="0.324219"
         stop-color="#f14b36"
         id="stop122" />
      <stop
         offset="0.328125"
         stop-color="#f14c37"
         id="stop124" />
      <stop
         offset="0.332031"
         stop-color="#f14c38"
         id="stop126" />
      <stop
         offset="0.335938"
         stop-color="#f14d38"
         id="stop128" />
      <stop
         offset="0.339844"
         stop-color="#f14e39"
         id="stop130" />
      <stop
         offset="0.34375"
         stop-color="#f14f39"
         id="stop132" />
      <stop
         offset="0.347656"
         stop-color="#f14f3a"
         id="stop134" />
      <stop
         offset="0.351563"
         stop-color="#f2503b"
         id="stop136" />
      <stop
         offset="0.355469"
         stop-color="#f2513b"
         id="stop138" />
      <stop
         offset="0.359375"
         stop-color="#f2523c"
         id="stop140" />
      <stop
         offset="0.363281"
         stop-color="#f2533d"
         id="stop142" />
      <stop
         offset="0.367188"
         stop-color="#f2543d"
         id="stop144" />
      <stop
         offset="0.371094"
         stop-color="#f2553e"
         id="stop146" />
      <stop
         offset="0.375"
         stop-color="#f2563f"
         id="stop148" />
      <stop
         offset="0.378906"
         stop-color="#f2573f"
         id="stop150" />
      <stop
         offset="0.382813"
         stop-color="#f25840"
         id="stop152" />
      <stop
         offset="0.386719"
         stop-color="#f25841"
         id="stop154" />
      <stop
         offset="0.390625"
         stop-color="#f25941"
         id="stop156" />
      <stop
         offset="0.394531"
         stop-color="#f25a42"
         id="stop158" />
      <stop
         offset="0.398438"
         stop-color="#f25b43"
         id="stop160" />
      <stop
         offset="0.402344"
         stop-color="#f35c43"
         id="stop162" />
      <stop
         offset="0.40625"
         stop-color="#f35c44"
         id="stop164" />
      <stop
         offset="0.410156"
         stop-color="#f35d45"
         id="stop166" />
      <stop
         offset="0.414063"
         stop-color="#f35e45"
         id="stop168" />
      <stop
         offset="0.417969"
         stop-color="#f35f46"
         id="stop170" />
      <stop
         offset="0.421875"
         stop-color="#f36047"
         id="stop172" />
      <stop
         offset="0.425781"
         stop-color="#f36148"
         id="stop174" />
      <stop
         offset="0.429688"
         stop-color="#f36248"
         id="stop176" />
      <stop
         offset="0.433594"
         stop-color="#f36349"
         id="stop178" />
      <stop
         offset="0.4375"
         stop-color="#f3644a"
         id="stop180" />
      <stop
         offset="0.441406"
         stop-color="#f3654b"
         id="stop182" />
      <stop
         offset="0.445313"
         stop-color="#f3664b"
         id="stop184" />
      <stop
         offset="0.449219"
         stop-color="#f3674c"
         id="stop186" />
      <stop
         offset="0.453125"
         stop-color="#f3674d"
         id="stop188" />
      <stop
         offset="0.457031"
         stop-color="#f4684e"
         id="stop190" />
      <stop
         offset="0.460938"
         stop-color="#f4694e"
         id="stop192" />
      <stop
         offset="0.464844"
         stop-color="#f46a4f"
         id="stop194" />
      <stop
         offset="0.46875"
         stop-color="#f46b50"
         id="stop196" />
      <stop
         offset="0.472656"
         stop-color="#f46c51"
         id="stop198" />
      <stop
         offset="0.476563"
         stop-color="#f46d52"
         id="stop200" />
      <stop
         offset="0.480469"
         stop-color="#f46e52"
         id="stop202" />
      <stop
         offset="0.484375"
         stop-color="#f46f53"
         id="stop204" />
      <stop
         offset="0.488281"
         stop-color="#f47054"
         id="stop206" />
      <stop
         offset="0.492188"
         stop-color="#f47155"
         id="stop208" />
      <stop
         offset="0.496094"
         stop-color="#f47156"
         id="stop210" />
      <stop
         offset="0.5"
         stop-color="#f47257"
         id="stop212" />
      <stop
         offset="0.503906"
         stop-color="#f47357"
         id="stop214" />
      <stop
         offset="0.507813"
         stop-color="#f57458"
         id="stop216" />
      <stop
         offset="0.511719"
         stop-color="#f57559"
         id="stop218" />
      <stop
         offset="0.515625"
         stop-color="#f5765a"
         id="stop220" />
      <stop
         offset="0.519531"
         stop-color="#f5775b"
         id="stop222" />
      <stop
         offset="0.523438"
         stop-color="#f5785c"
         id="stop224" />
      <stop
         offset="0.527344"
         stop-color="#f5795d"
         id="stop226" />
      <stop
         offset="0.53125"
         stop-color="#f5795d"
         id="stop228" />
      <stop
         offset="0.535156"
         stop-color="#f57a5e"
         id="stop230" />
      <stop
         offset="0.539063"
         stop-color="#f57b5f"
         id="stop232" />
      <stop
         offset="0.542969"
         stop-color="#f57c60"
         id="stop234" />
      <stop
         offset="0.546875"
         stop-color="#f57d61"
         id="stop236" />
      <stop
         offset="0.550781"
         stop-color="#f57e62"
         id="stop238" />
      <stop
         offset="0.554688"
         stop-color="#f57f63"
         id="stop240" />
      <stop
         offset="0.558594"
         stop-color="#f68064"
         id="stop242" />
      <stop
         offset="0.5625"
         stop-color="#f68165"
         id="stop244" />
      <stop
         offset="0.566406"
         stop-color="#f68266"
         id="stop246" />
      <stop
         offset="0.570313"
         stop-color="#f68367"
         id="stop248" />
      <stop
         offset="0.574219"
         stop-color="#f68468"
         id="stop250" />
      <stop
         offset="0.578125"
         stop-color="#f68569"
         id="stop252" />
      <stop
         offset="0.582031"
         stop-color="#f6866a"
         id="stop254" />
      <stop
         offset="0.585938"
         stop-color="#f6876b"
         id="stop256" />
      <stop
         offset="0.589844"
         stop-color="#f6886c"
         id="stop258" />
      <stop
         offset="0.59375"
         stop-color="#f6896d"
         id="stop260" />
      <stop
         offset="0.597656"
         stop-color="#f68a6e"
         id="stop262" />
      <stop
         offset="0.601563"
         stop-color="#f68b6f"
         id="stop264" />
      <stop
         offset="0.605469"
         stop-color="#f68c70"
         id="stop266" />
      <stop
         offset="0.609375"
         stop-color="#f78d71"
         id="stop268" />
      <stop
         offset="0.613281"
         stop-color="#f78e72"
         id="stop270" />
      <stop
         offset="0.617188"
         stop-color="#f78f73"
         id="stop272" />
      <stop
         offset="0.621094"
         stop-color="#f79074"
         id="stop274" />
      <stop
         offset="0.625"
         stop-color="#f79175"
         id="stop276" />
      <stop
         offset="0.628906"
         stop-color="#f79276"
         id="stop278" />
      <stop
         offset="0.632813"
         stop-color="#f79477"
         id="stop280" />
      <stop
         offset="0.636719"
         stop-color="#f79578"
         id="stop282" />
      <stop
         offset="0.640625"
         stop-color="#f7967a"
         id="stop284" />
      <stop
         offset="0.644531"
         stop-color="#f7977b"
         id="stop286" />
      <stop
         offset="0.648438"
         stop-color="#f7987c"
         id="stop288" />
      <stop
         offset="0.652344"
         stop-color="#f7997d"
         id="stop290" />
      <stop
         offset="0.65625"
         stop-color="#f89a7e"
         id="stop292" />
      <stop
         offset="0.660156"
         stop-color="#f89a7f"
         id="stop294" />
      <stop
         offset="0.664063"
         stop-color="#f89b80"
         id="stop296" />
      <stop
         offset="0.667969"
         stop-color="#f89c81"
         id="stop298" />
      <stop
         offset="0.671875"
         stop-color="#f89d82"
         id="stop300" />
      <stop
         offset="0.675781"
         stop-color="#f89e83"
         id="stop302" />
      <stop
         offset="0.679688"
         stop-color="#f89f84"
         id="stop304" />
      <stop
         offset="0.683594"
         stop-color="#f8a085"
         id="stop306" />
      <stop
         offset="0.6875"
         stop-color="#f8a186"
         id="stop308" />
      <stop
         offset="0.691406"
         stop-color="#f8a288"
         id="stop310" />
      <stop
         offset="0.695313"
         stop-color="#f8a389"
         id="stop312" />
      <stop
         offset="0.699219"
         stop-color="#f8a48a"
         id="stop314" />
      <stop
         offset="0.703125"
         stop-color="#f8a58b"
         id="stop316" />
      <stop
         offset="0.707031"
         stop-color="#f8a68c"
         id="stop318" />
      <stop
         offset="0.710938"
         stop-color="#f9a78d"
         id="stop320" />
      <stop
         offset="0.714844"
         stop-color="#f9a98f"
         id="stop322" />
      <stop
         offset="0.71875"
         stop-color="#f9aa90"
         id="stop324" />
      <stop
         offset="0.722656"
         stop-color="#f9ab91"
         id="stop326" />
      <stop
         offset="0.726563"
         stop-color="#f9ac92"
         id="stop328" />
      <stop
         offset="0.730469"
         stop-color="#f9ac93"
         id="stop330" />
      <stop
         offset="0.734375"
         stop-color="#f9ad94"
         id="stop332" />
      <stop
         offset="0.738281"
         stop-color="#f9ae95"
         id="stop334" />
      <stop
         offset="0.742188"
         stop-color="#f9af97"
         id="stop336" />
      <stop
         offset="0.746094"
         stop-color="#f9b098"
         id="stop338" />
      <stop
         offset="0.75"
         stop-color="#f9b199"
         id="stop340" />
      <stop
         offset="0.753906"
         stop-color="#f9b29a"
         id="stop342" />
      <stop
         offset="0.757813"
         stop-color="#f9b39b"
         id="stop344" />
      <stop
         offset="0.761719"
         stop-color="#fab49d"
         id="stop346" />
      <stop
         offset="0.765625"
         stop-color="#fab59e"
         id="stop348" />
      <stop
         offset="0.769531"
         stop-color="#fab79f"
         id="stop350" />
      <stop
         offset="0.773438"
         stop-color="#fab8a0"
         id="stop352" />
      <stop
         offset="0.777344"
         stop-color="#fab9a2"
         id="stop354" />
      <stop
         offset="0.78125"
         stop-color="#fabaa3"
         id="stop356" />
      <stop
         offset="0.785156"
         stop-color="#fabba4"
         id="stop358" />
      <stop
         offset="0.789063"
         stop-color="#fabca6"
         id="stop360" />
      <stop
         offset="0.792969"
         stop-color="#fabda7"
         id="stop362" />
      <stop
         offset="0.796875"
         stop-color="#fabea8"
         id="stop364" />
      <stop
         offset="0.800781"
         stop-color="#fabfa9"
         id="stop366" />
      <stop
         offset="0.804688"
         stop-color="#fac0ab"
         id="stop368" />
      <stop
         offset="0.808594"
         stop-color="#fac1ac"
         id="stop370" />
      <stop
         offset="0.8125"
         stop-color="#fbc2ad"
         id="stop372" />
      <stop
         offset="0.816406"
         stop-color="#fbc3ae"
         id="stop374" />
      <stop
         offset="0.820313"
         stop-color="#fbc4b0"
         id="stop376" />
      <stop
         offset="0.824219"
         stop-color="#fbc5b1"
         id="stop378" />
      <stop
         offset="0.828125"
         stop-color="#fbc6b2"
         id="stop380" />
      <stop
         offset="0.832031"
         stop-color="#fbc7b4"
         id="stop382" />
      <stop
         offset="0.835938"
         stop-color="#fbc8b5"
         id="stop384" />
      <stop
         offset="0.839844"
         stop-color="#fbc9b6"
         id="stop386" />
      <stop
         offset="0.84375"
         stop-color="#fbcab8"
         id="stop388" />
      <stop
         offset="0.847656"
         stop-color="#fbcbb9"
         id="stop390" />
      <stop
         offset="0.851563"
         stop-color="#fbcdba"
         id="stop392" />
      <stop
         offset="0.855469"
         stop-color="#fbcdbc"
         id="stop394" />
      <stop
         offset="0.859375"
         stop-color="#fbcebd"
         id="stop396" />
      <stop
         offset="0.863281"
         stop-color="#fccfbe"
         id="stop398" />
      <stop
         offset="0.867188"
         stop-color="#fcd0c0"
         id="stop400" />
      <stop
         offset="0.871094"
         stop-color="#fcd1c1"
         id="stop402" />
      <stop
         offset="0.875"
         stop-color="#fcd2c3"
         id="stop404" />
      <stop
         offset="0.878906"
         stop-color="#fcd4c4"
         id="stop406" />
      <stop
         offset="0.882813"
         stop-color="#fcd5c6"
         id="stop408" />
      <stop
         offset="0.886719"
         stop-color="#fcd7c8"
         id="stop410" />
      <stop
         offset="0.890625"
         stop-color="#fcd8c9"
         id="stop412" />
      <stop
         offset="0.894531"
         stop-color="#fcd9cb"
         id="stop414" />
      <stop
         offset="0.898438"
         stop-color="#fcdacc"
         id="stop416" />
      <stop
         offset="0.902344"
         stop-color="#fcdbce"
         id="stop418" />
      <stop
         offset="0.90625"
         stop-color="#fdddcf"
         id="stop420" />
      <stop
         offset="0.910156"
         stop-color="#fdded1"
         id="stop422" />
      <stop
         offset="0.914063"
         stop-color="#fddfd2"
         id="stop424" />
      <stop
         offset="0.917969"
         stop-color="#fde0d4"
         id="stop426" />
      <stop
         offset="0.921875"
         stop-color="#fde1d5"
         id="stop428" />
      <stop
         offset="0.925781"
         stop-color="#fde2d6"
         id="stop430" />
      <stop
         offset="0.929688"
         stop-color="#fde3d8"
         id="stop432" />
      <stop
         offset="0.933594"
         stop-color="#fde4d9"
         id="stop434" />
      <stop
         offset="0.9375"
         stop-color="#fde5db"
         id="stop436" />
      <stop
         offset="0.941406"
         stop-color="#fde6dc"
         id="stop438" />
      <stop
         offset="0.945313"
         stop-color="#fde7de"
         id="stop440" />
      <stop
         offset="0.949219"
         stop-color="#fde8df"
         id="stop442" />
      <stop
         offset="0.953125"
         stop-color="#fde9e1"
         id="stop444" />
      <stop
         offset="0.957031"
         stop-color="#feeae2"
         id="stop446" />
      <stop
         offset="0.960938"
         stop-color="#feece4"
         id="stop448" />
      <stop
         offset="0.964844"
         stop-color="#feede5"
         id="stop450" />
      <stop
         offset="0.96875"
         stop-color="#feeee7"
         id="stop452" />
      <stop
         offset="0.972656"
         stop-color="#feefe9"
         id="stop454" />
      <stop
         offset="0.976563"
         stop-color="#fef0ea"
         id="stop456" />
      <stop
         offset="0.980469"
         stop-color="#fef1ec"
         id="stop458" />
      <stop
         offset="0.984375"
         stop-color="#fef3ed"
         id="stop460" />
      <stop
         offset="0.988281"
         stop-color="#fef4ef"
         id="stop462" />
      <stop
         offset="0.992188"
         stop-color="#fef5f0"
         id="stop464" />
      <stop
         offset="0.996094"
         stop-color="#fef6f2"
         id="stop466" />
      <stop
         offset="1"
         stop-color="#fef6f3"
         id="stop468" />
    </linearGradient>
    <clipPath
       id="clip5">
      <path
         d="m 305.52734,760.58984 h 25.74219 v 26.10938 h -25.74219 z m 0,0"
         id="path14" />
    </clipPath>
    <clipPath
       id="clip6">
      <path
         d="m 305.52734,772.6875 c 0,7.71484 6.23047,13.97266 13.9336,14.01172 h 0.14843 c 3.34375,-0.0195 6.40625,-1.20703 8.80469,-3.17188 -2.07422,1.21485 -4.49219,1.91407 -7.07031,1.91407 -7.73828,0 -14.00781,-6.27344 -14.00781,-14.01172 0,-4.36719 2,-8.26953 5.13281,-10.83985 -4.15234,2.42969 -6.94141,6.9375 -6.94141,12.09766 m 9.28125,-8.73047 c 1.40625,-0.76172 3.01563,-1.19531 4.72657,-1.19531 5.48437,0 9.92968,4.44531 9.92968,9.92578 0,2.98047 -1.3125,5.65234 -3.39062,7.47266 3.09375,-1.67969 5.19531,-4.96094 5.19531,-8.73047 0,-5.48047 -4.44141,-9.92578 -9.92578,-9.92578 -2.50391,0 -4.78906,0.92578 -6.53516,2.45312"
         id="path17" />
    </clipPath>
    <linearGradient
       id="linear1"
       x1="-0.0600354"
       x2="0.95211297"
       y1="0"
       y2="0"
       gradientTransform="matrix(25.435,0,0,-25.435,307.054,772.06)"
       gradientUnits="userSpaceOnUse">
      <stop
         offset="0"
         stop-color="#252166"
         id="stop471" />
      <stop
         offset="0.125"
         stop-color="#252166"
         id="stop473" />
      <stop
         offset="0.15625"
         stop-color="#252166"
         id="stop475" />
      <stop
         offset="0.160156"
         stop-color="#252167"
         id="stop477" />
      <stop
         offset="0.164063"
         stop-color="#252267"
         id="stop479" />
      <stop
         offset="0.167969"
         stop-color="#262268"
         id="stop481" />
      <stop
         offset="0.171875"
         stop-color="#272268"
         id="stop483" />
      <stop
         offset="0.175781"
         stop-color="#272369"
         id="stop485" />
      <stop
         offset="0.179688"
         stop-color="#282369"
         id="stop487" />
      <stop
         offset="0.183594"
         stop-color="#28236a"
         id="stop489" />
      <stop
         offset="0.1875"
         stop-color="#29246a"
         id="stop491" />
      <stop
         offset="0.191406"
         stop-color="#2a246b"
         id="stop493" />
      <stop
         offset="0.195313"
         stop-color="#2a256b"
         id="stop495" />
      <stop
         offset="0.199219"
         stop-color="#2b256c"
         id="stop497" />
      <stop
         offset="0.203125"
         stop-color="#2b256c"
         id="stop499" />
      <stop
         offset="0.207031"
         stop-color="#2c266d"
         id="stop501" />
      <stop
         offset="0.210938"
         stop-color="#2c266d"
         id="stop503" />
      <stop
         offset="0.214844"
         stop-color="#2d276e"
         id="stop505" />
      <stop
         offset="0.21875"
         stop-color="#2d276e"
         id="stop507" />
      <stop
         offset="0.222656"
         stop-color="#2e276f"
         id="stop509" />
      <stop
         offset="0.226563"
         stop-color="#2e286f"
         id="stop511" />
      <stop
         offset="0.230469"
         stop-color="#2f2870"
         id="stop513" />
      <stop
         offset="0.234375"
         stop-color="#302970"
         id="stop515" />
      <stop
         offset="0.238281"
         stop-color="#302971"
         id="stop517" />
      <stop
         offset="0.242188"
         stop-color="#312971"
         id="stop519" />
      <stop
         offset="0.246094"
         stop-color="#322a72"
         id="stop521" />
      <stop
         offset="0.25"
         stop-color="#322a72"
         id="stop523" />
      <stop
         offset="0.253906"
         stop-color="#332b73"
         id="stop525" />
      <stop
         offset="0.257813"
         stop-color="#332b74"
         id="stop527" />
      <stop
         offset="0.261719"
         stop-color="#342c74"
         id="stop529" />
      <stop
         offset="0.265625"
         stop-color="#352c75"
         id="stop531" />
      <stop
         offset="0.269531"
         stop-color="#362d75"
         id="stop533" />
      <stop
         offset="0.273438"
         stop-color="#362d76"
         id="stop535" />
      <stop
         offset="0.277344"
         stop-color="#372e77"
         id="stop537" />
      <stop
         offset="0.28125"
         stop-color="#382e77"
         id="stop539" />
      <stop
         offset="0.285156"
         stop-color="#382e78"
         id="stop541" />
      <stop
         offset="0.289063"
         stop-color="#392f78"
         id="stop543" />
      <stop
         offset="0.292969"
         stop-color="#3a2f79"
         id="stop545" />
      <stop
         offset="0.296875"
         stop-color="#3a3079"
         id="stop547" />
      <stop
         offset="0.300781"
         stop-color="#3b317a"
         id="stop549" />
      <stop
         offset="0.304688"
         stop-color="#3c317b"
         id="stop551" />
      <stop
         offset="0.308594"
         stop-color="#3d327b"
         id="stop553" />
      <stop
         offset="0.3125"
         stop-color="#3e337c"
         id="stop555" />
      <stop
         offset="0.316406"
         stop-color="#3e337d"
         id="stop557" />
      <stop
         offset="0.320313"
         stop-color="#3f347d"
         id="stop559" />
      <stop
         offset="0.324219"
         stop-color="#3f347e"
         id="stop561" />
      <stop
         offset="0.328125"
         stop-color="#40357e"
         id="stop563" />
      <stop
         offset="0.332031"
         stop-color="#40357f"
         id="stop565" />
      <stop
         offset="0.335938"
         stop-color="#41367f"
         id="stop567" />
      <stop
         offset="0.339844"
         stop-color="#423680"
         id="stop569" />
      <stop
         offset="0.34375"
         stop-color="#433780"
         id="stop571" />
      <stop
         offset="0.347656"
         stop-color="#433781"
         id="stop573" />
      <stop
         offset="0.351562"
         stop-color="#443881"
         id="stop575" />
      <stop
         offset="0.355469"
         stop-color="#453982"
         id="stop577" />
      <stop
         offset="0.359375"
         stop-color="#453983"
         id="stop579" />
      <stop
         offset="0.363281"
         stop-color="#463a83"
         id="stop581" />
      <stop
         offset="0.367188"
         stop-color="#473a84"
         id="stop583" />
      <stop
         offset="0.371094"
         stop-color="#483b84"
         id="stop585" />
      <stop
         offset="0.375"
         stop-color="#493c85"
         id="stop587" />
      <stop
         offset="0.378906"
         stop-color="#493c86"
         id="stop589" />
      <stop
         offset="0.382813"
         stop-color="#4a3d86"
         id="stop591" />
      <stop
         offset="0.386719"
         stop-color="#4b3d87"
         id="stop593" />
      <stop
         offset="0.390625"
         stop-color="#4c3e88"
         id="stop595" />
      <stop
         offset="0.394531"
         stop-color="#4c3f88"
         id="stop597" />
      <stop
         offset="0.398438"
         stop-color="#4d3f89"
         id="stop599" />
      <stop
         offset="0.402344"
         stop-color="#4e4089"
         id="stop601" />
      <stop
         offset="0.40625"
         stop-color="#4f418a"
         id="stop603" />
      <stop
         offset="0.410156"
         stop-color="#4f418a"
         id="stop605" />
      <stop
         offset="0.414062"
         stop-color="#50428b"
         id="stop607" />
      <stop
         offset="0.417969"
         stop-color="#51438b"
         id="stop609" />
      <stop
         offset="0.421875"
         stop-color="#52438c"
         id="stop611" />
      <stop
         offset="0.425781"
         stop-color="#52448d"
         id="stop613" />
      <stop
         offset="0.429688"
         stop-color="#53458d"
         id="stop615" />
      <stop
         offset="0.433594"
         stop-color="#54458e"
         id="stop617" />
      <stop
         offset="0.4375"
         stop-color="#54468e"
         id="stop619" />
      <stop
         offset="0.441406"
         stop-color="#55478f"
         id="stop621" />
      <stop
         offset="0.445313"
         stop-color="#564890"
         id="stop623" />
      <stop
         offset="0.449219"
         stop-color="#574891"
         id="stop625" />
      <stop
         offset="0.453125"
         stop-color="#584991"
         id="stop627" />
      <stop
         offset="0.457031"
         stop-color="#594a92"
         id="stop629" />
      <stop
         offset="0.460938"
         stop-color="#594a92"
         id="stop631" />
      <stop
         offset="0.464844"
         stop-color="#5a4b93"
         id="stop633" />
      <stop
         offset="0.46875"
         stop-color="#5b4c93"
         id="stop635" />
      <stop
         offset="0.472656"
         stop-color="#5c4d94"
         id="stop637" />
      <stop
         offset="0.476562"
         stop-color="#5d4d95"
         id="stop639" />
      <stop
         offset="0.480469"
         stop-color="#5e4e95"
         id="stop641" />
      <stop
         offset="0.484375"
         stop-color="#5e4f96"
         id="stop643" />
      <stop
         offset="0.488281"
         stop-color="#5f5096"
         id="stop645" />
      <stop
         offset="0.492188"
         stop-color="#605097"
         id="stop647" />
      <stop
         offset="0.496094"
         stop-color="#615198"
         id="stop649" />
      <stop
         offset="0.5"
         stop-color="#625298"
         id="stop651" />
      <stop
         offset="0.503906"
         stop-color="#635399"
         id="stop653" />
      <stop
         offset="0.507813"
         stop-color="#64549a"
         id="stop655" />
      <stop
         offset="0.511719"
         stop-color="#65549a"
         id="stop657" />
      <stop
         offset="0.515625"
         stop-color="#66559b"
         id="stop659" />
      <stop
         offset="0.519531"
         stop-color="#66569c"
         id="stop661" />
      <stop
         offset="0.523438"
         stop-color="#67579c"
         id="stop663" />
      <stop
         offset="0.527344"
         stop-color="#68589d"
         id="stop665" />
      <stop
         offset="0.53125"
         stop-color="#69599e"
         id="stop667" />
      <stop
         offset="0.535156"
         stop-color="#6a599e"
         id="stop669" />
      <stop
         offset="0.539063"
         stop-color="#6a5a9f"
         id="stop671" />
      <stop
         offset="0.542969"
         stop-color="#6b5b9f"
         id="stop673" />
      <stop
         offset="0.546875"
         stop-color="#6c5ca0"
         id="stop675" />
      <stop
         offset="0.550781"
         stop-color="#6d5da1"
         id="stop677" />
      <stop
         offset="0.554688"
         stop-color="#6e5ea1"
         id="stop679" />
      <stop
         offset="0.558594"
         stop-color="#6f5fa2"
         id="stop681" />
      <stop
         offset="0.5625"
         stop-color="#705fa3"
         id="stop683" />
      <stop
         offset="0.566406"
         stop-color="#7160a3"
         id="stop685" />
      <stop
         offset="0.570312"
         stop-color="#7261a4"
         id="stop687" />
      <stop
         offset="0.574219"
         stop-color="#7362a5"
         id="stop689" />
      <stop
         offset="0.578125"
         stop-color="#7463a6"
         id="stop691" />
      <stop
         offset="0.582031"
         stop-color="#7564a6"
         id="stop693" />
      <stop
         offset="0.585937"
         stop-color="#7665a7"
         id="stop695" />
      <stop
         offset="0.589844"
         stop-color="#7766a8"
         id="stop697" />
      <stop
         offset="0.59375"
         stop-color="#7867a8"
         id="stop699" />
      <stop
         offset="0.597656"
         stop-color="#7968a9"
         id="stop701" />
      <stop
         offset="0.601563"
         stop-color="#7a6aaa"
         id="stop703" />
      <stop
         offset="0.605469"
         stop-color="#7b6aaa"
         id="stop705" />
      <stop
         offset="0.609375"
         stop-color="#7c6bab"
         id="stop707" />
      <stop
         offset="0.613281"
         stop-color="#7d6cac"
         id="stop709" />
      <stop
         offset="0.617188"
         stop-color="#7e6dac"
         id="stop711" />
      <stop
         offset="0.621094"
         stop-color="#7f6fad"
         id="stop713" />
      <stop
         offset="0.625"
         stop-color="#8070ae"
         id="stop715" />
      <stop
         offset="0.628906"
         stop-color="#8171af"
         id="stop717" />
      <stop
         offset="0.632813"
         stop-color="#8272b0"
         id="stop719" />
      <stop
         offset="0.636719"
         stop-color="#8373b0"
         id="stop721" />
      <stop
         offset="0.640625"
         stop-color="#8474b1"
         id="stop723" />
      <stop
         offset="0.644531"
         stop-color="#8575b2"
         id="stop725" />
      <stop
         offset="0.648438"
         stop-color="#8676b2"
         id="stop727" />
      <stop
         offset="0.652344"
         stop-color="#8777b3"
         id="stop729" />
      <stop
         offset="0.65625"
         stop-color="#8878b3"
         id="stop731" />
      <stop
         offset="0.660156"
         stop-color="#8979b4"
         id="stop733" />
      <stop
         offset="0.664063"
         stop-color="#8a7ab5"
         id="stop735" />
      <stop
         offset="0.667969"
         stop-color="#8b7bb6"
         id="stop737" />
      <stop
         offset="0.671875"
         stop-color="#8c7cb6"
         id="stop739" />
      <stop
         offset="0.675781"
         stop-color="#8d7db7"
         id="stop741" />
      <stop
         offset="0.679688"
         stop-color="#8e7eb8"
         id="stop743" />
      <stop
         offset="0.683594"
         stop-color="#8f7fb9"
         id="stop745" />
      <stop
         offset="0.6875"
         stop-color="#9081b9"
         id="stop747" />
      <stop
         offset="0.691406"
         stop-color="#9182ba"
         id="stop749" />
      <stop
         offset="0.695312"
         stop-color="#9283bb"
         id="stop751" />
      <stop
         offset="0.699219"
         stop-color="#9384bb"
         id="stop753" />
      <stop
         offset="0.703125"
         stop-color="#9585bc"
         id="stop755" />
      <stop
         offset="0.707031"
         stop-color="#9686bd"
         id="stop757" />
      <stop
         offset="0.710937"
         stop-color="#9787be"
         id="stop759" />
      <stop
         offset="0.714844"
         stop-color="#9888be"
         id="stop761" />
      <stop
         offset="0.71875"
         stop-color="#998abf"
         id="stop763" />
      <stop
         offset="0.722656"
         stop-color="#9a8bc0"
         id="stop765" />
      <stop
         offset="0.726563"
         stop-color="#9b8cc0"
         id="stop767" />
      <stop
         offset="0.730469"
         stop-color="#9c8dc1"
         id="stop769" />
      <stop
         offset="0.734375"
         stop-color="#9d8ec2"
         id="stop771" />
      <stop
         offset="0.738281"
         stop-color="#9e8fc2"
         id="stop773" />
      <stop
         offset="0.742188"
         stop-color="#a091c3"
         id="stop775" />
      <stop
         offset="0.746094"
         stop-color="#a192c4"
         id="stop777" />
      <stop
         offset="0.75"
         stop-color="#a293c5"
         id="stop779" />
      <stop
         offset="0.753906"
         stop-color="#a395c6"
         id="stop781" />
      <stop
         offset="0.757813"
         stop-color="#a496c7"
         id="stop783" />
      <stop
         offset="0.761719"
         stop-color="#a597c7"
         id="stop785" />
      <stop
         offset="0.765625"
         stop-color="#a698c8"
         id="stop787" />
      <stop
         offset="0.769531"
         stop-color="#a799c9"
         id="stop789" />
      <stop
         offset="0.773438"
         stop-color="#a89bc9"
         id="stop791" />
      <stop
         offset="0.777344"
         stop-color="#a99cca"
         id="stop793" />
      <stop
         offset="0.78125"
         stop-color="#aa9dcb"
         id="stop795" />
      <stop
         offset="0.785156"
         stop-color="#ac9ecb"
         id="stop797" />
      <stop
         offset="0.789063"
         stop-color="#ada0cc"
         id="stop799" />
      <stop
         offset="0.792969"
         stop-color="#aea1cd"
         id="stop801" />
      <stop
         offset="0.796875"
         stop-color="#afa2ce"
         id="stop803" />
      <stop
         offset="0.800781"
         stop-color="#b0a3ce"
         id="stop805" />
      <stop
         offset="0.804688"
         stop-color="#b1a5cf"
         id="stop807" />
      <stop
         offset="0.808594"
         stop-color="#b3a6d0"
         id="stop809" />
      <stop
         offset="0.8125"
         stop-color="#b4a7d1"
         id="stop811" />
      <stop
         offset="0.816406"
         stop-color="#b5a9d2"
         id="stop813" />
      <stop
         offset="0.820312"
         stop-color="#b7aad3"
         id="stop815" />
      <stop
         offset="0.824219"
         stop-color="#b8acd3"
         id="stop817" />
      <stop
         offset="0.828125"
         stop-color="#b9add4"
         id="stop819" />
      <stop
         offset="0.832031"
         stop-color="#baaed5"
         id="stop821" />
      <stop
         offset="0.835937"
         stop-color="#bcb0d6"
         id="stop823" />
      <stop
         offset="0.839844"
         stop-color="#bdb1d6"
         id="stop825" />
      <stop
         offset="0.84375"
         stop-color="#beb3d7"
         id="stop827" />
      <stop
         offset="0.847656"
         stop-color="#bfb4d8"
         id="stop829" />
      <stop
         offset="0.851563"
         stop-color="#c1b5d9"
         id="stop831" />
      <stop
         offset="0.855469"
         stop-color="#c2b7d9"
         id="stop833" />
      <stop
         offset="0.859375"
         stop-color="#c3b8da"
         id="stop835" />
      <stop
         offset="0.863281"
         stop-color="#c4b9db"
         id="stop837" />
      <stop
         offset="0.867188"
         stop-color="#c5bbdc"
         id="stop839" />
      <stop
         offset="0.871094"
         stop-color="#c6bcdc"
         id="stop841" />
      <stop
         offset="0.875"
         stop-color="#c7bedd"
         id="stop843" />
      <stop
         offset="0.878906"
         stop-color="#c9bfde"
         id="stop845" />
      <stop
         offset="0.882813"
         stop-color="#cac1df"
         id="stop847" />
      <stop
         offset="0.886719"
         stop-color="#ccc3e0"
         id="stop849" />
      <stop
         offset="0.890625"
         stop-color="#cec5e1"
         id="stop851" />
      <stop
         offset="0.894531"
         stop-color="#cfc7e2"
         id="stop853" />
      <stop
         offset="0.898438"
         stop-color="#d0c8e3"
         id="stop855" />
      <stop
         offset="0.902344"
         stop-color="#d2cae4"
         id="stop857" />
      <stop
         offset="0.90625"
         stop-color="#d3cbe4"
         id="stop859" />
      <stop
         offset="0.910156"
         stop-color="#d4cde5"
         id="stop861" />
      <stop
         offset="0.914063"
         stop-color="#d6cee6"
         id="stop863" />
      <stop
         offset="0.917969"
         stop-color="#d7d0e7"
         id="stop865" />
      <stop
         offset="0.921875"
         stop-color="#d9d1e8"
         id="stop867" />
      <stop
         offset="0.925781"
         stop-color="#dad3e9"
         id="stop869" />
      <stop
         offset="0.929688"
         stop-color="#dcd5ea"
         id="stop871" />
      <stop
         offset="0.933594"
         stop-color="#ddd6eb"
         id="stop873" />
      <stop
         offset="0.9375"
         stop-color="#ded8eb"
         id="stop875" />
      <stop
         offset="0.941406"
         stop-color="#e0daec"
         id="stop877" />
      <stop
         offset="0.945312"
         stop-color="#e1dbed"
         id="stop879" />
      <stop
         offset="0.949219"
         stop-color="#e2ddee"
         id="stop881" />
      <stop
         offset="0.953125"
         stop-color="#e4deef"
         id="stop883" />
      <stop
         offset="0.957031"
         stop-color="#e5e0ef"
         id="stop885" />
      <stop
         offset="0.960937"
         stop-color="#e7e1f0"
         id="stop887" />
      <stop
         offset="0.964844"
         stop-color="#e8e3f1"
         id="stop889" />
      <stop
         offset="0.96875"
         stop-color="#e9e5f2"
         id="stop891" />
      <stop
         offset="0.972656"
         stop-color="#ebe6f3"
         id="stop893" />
      <stop
         offset="0.976563"
         stop-color="#ece8f3"
         id="stop895" />
      <stop
         offset="0.980469"
         stop-color="#ede9f4"
         id="stop897" />
      <stop
         offset="0.984375"
         stop-color="#eeebf5"
         id="stop899" />
      <stop
         offset="0.988281"
         stop-color="#f0edf6"
         id="stop901" />
      <stop
         offset="0.992188"
         stop-color="#f1eff7"
         id="stop903" />
      <stop
         offset="0.996094"
         stop-color="#f3f0f8"
         id="stop905" />
      <stop
         offset="1"
         stop-color="#f4f2f9"
         id="stop907" />
    </linearGradient>
    <clipPath
       id="clip7">
      <path
         d="m 307,758.41406 h 26.80469 v 27.36328 H 307 Z m 0,0"
         id="path20" />
    </clipPath>
    <clipPath
       id="clip8">
      <path
         d="m 312.46875,760.58984 c -3.13281,2.57032 -5.13281,6.47266 -5.13281,10.83985 0,7.73828 6.26953,14.01172 14.00781,14.01172 2.57812,0 4.99609,-0.69922 7.07031,-1.91407 3.13281,-2.57031 5.13281,-6.46875 5.13281,-10.83984 0,-7.73828 -6.27343,-14.00781 -14.01171,-14.00781 -2.57813,0 -4.99219,0.69531 -7.06641,1.91015 m -2.85938,12.09766 c 0,-3.76953 2.10157,-7.05078 5.19922,-8.73047 1.7461,-1.52734 4.03125,-2.45312 6.53516,-2.45312 5.48437,0 9.92578,4.44531 9.92578,9.92578 0,3.76953 -2.10156,7.05078 -5.19531,8.73047 -1.75,1.53125 -4.03516,2.45703 -6.53906,2.45703 -5.48047,0 -9.92579,-4.44532 -9.92579,-9.92969"
         id="path23" />
    </clipPath>
    <linearGradient
       id="linear2"
       gradientTransform="scale(0.99118926,1.0088891)"
       x1="0"
       y1="0"
       x2="112.99558"
       y2="0"
       gradientUnits="userSpaceOnUse">
      <stop
         stop-color="#252166"
         id="stop910" />
      <stop
         offset="0.44"
         stop-color="#673c79"
         id="stop912" />
      <stop
         offset="0.64"
         stop-color="#9a4064"
         id="stop914" />
      <stop
         offset="0.84"
         stop-color="#d23239"
         id="stop916" />
      <stop
         offset="1"
         stop-color="#ee2722"
         id="stop918" />
    </linearGradient>
  </defs>
  <g
     id="g1855"
     style="fill:#ffffff;fill-opacity:1">
    <g
       class="logo"
       id="g1831"
       transform="matrix(0.16913821,0,0,0.16913821,2.444035,39.243406)"
       style="fill:#ffffff;fill-opacity:1;stroke:#ffffff;stroke-width:22.7445;stroke-linejoin:round;stroke-miterlimit:4;stroke-dasharray:none;stroke-opacity:1">
      <circle
         style="fill:#ffffff;fill-opacity:1;stroke:#ffffff;stroke-width:45.489;stroke-linejoin:round;stroke-miterlimit:4;stroke-dasharray:none;stroke-opacity:1;stop-color:#000000"
         id="path1859"
         cx="122.82861"
         cy="-116.33084"
         r="88.143944" />
      <circle
         style="fill:#ffffff;fill-opacity:1;stroke:#ffffff;stroke-width:45.489;stroke-linejoin:round;stroke-miterlimit:4;stroke-dasharray:none;stroke-opacity:1;stop-color:#000000"
         id="circle1861"
         cx="110.14297"
         cy="-108.40234"
         r="88.143944" />
    </g>
    <path
       class="text_AFD"
       fill="#232166"
       d="m 82.126513,6.654871 c 2.709469,0 4.876106,0.746412 6.490137,2.263541 1.618923,1.517095 2.43807,3.485002 2.43807,5.923048 0,2.408983 -0.819147,4.401097 -2.462305,5.942459 -1.614031,1.517093 -3.780668,2.287774 -6.465902,2.287774 H 76.978978 V 6.654871 Z m -2.51559,2.389562 v 11.666751 h 2.491356 c 1.914586,0 3.431679,-0.547684 4.551351,-1.643122 1.119635,-1.09544 1.691589,-2.515601 1.691589,-4.226602 0,-1.769152 -0.571954,-3.160252 -1.691589,-4.207224 C 85.264887,9.305648 84.212987,9.044433 80.555447,9.044433 M 74.366446,5.6464349 V 9.015344 h -7.910331 v 4.905173 h 7.910331 v 2.38475 h -7.910331 v 6.766426 H 63.81935 V 5.6464349 M 58.371315,23.071693 57.203177,20.337987 h -7.386835 l -1.172985,2.733706 h -2.81126 L 53.073534,6.378579 h 0.891846 l 7.241446,16.693114 z m -2.142376,-5.786054 -2.709491,-6.030985 -2.733706,6.030985"
       id="path1833"
       style="fill:#ffffff;fill-opacity:1;stroke:#ffffff;stroke-width:2;stroke-linecap:butt;stroke-linejoin:round;stroke-miterlimit:4;stroke-dasharray:none;stroke-opacity:1" />
    <path
       class="text_Agence_Francaise_de_Developpement"
       fill="#232166"
       d="m 88.553654,31.970826 v 0.431366 h 1.003319 v 2.559245 h 0.479871 v -2.559245 h 1.01302 v -0.431366 m -3.533469,2.016345 -1.812796,-2.064813 h -0.169535 v 3.039079 h 0.47987 v -2.01638 l 1.822468,2.069702 h 0.164611 v -3.043933 h -0.484688 m -4.173204,1.614032 h 1.119637 v -0.416839 h -1.119637 v -0.765827 h 1.488042 V 31.97568 h -1.96791 v 2.985757 h 2.02123 v -0.426548 h -1.541362 m -2.782205,-0.940322 -1.255374,-1.672209 h -0.164606 v 3.039079 h 0.479867 v -1.875792 l 0.862767,1.124489 h 0.160038 l 0.85791,-1.124489 v 1.875792 h 0.47987 v -3.039079 h -0.164963 m -4.866536,1.6625 h 1.119673 V 33.168019 H 76.949889 V 32.402192 H 78.43793 V 31.97568 h -1.967881 v 2.985757 h 2.021202 v -0.426548 h -1.541362 m -1.715821,-1.284458 c -0.09215,0.08723 -0.223006,0.130844 -0.387755,0.130844 h -0.605897 v -0.983972 h 0.605897 c 0.164615,0 0.295811,0.04854 0.387755,0.135768 0.09214,0.09215 0.140693,0.213151 0.140693,0.358697 0,0.150191 -0.04856,0.266614 -0.140693,0.358663 m 0.353837,-1.022735 c -0.188875,-0.169535 -0.4314,-0.256764 -0.736736,-0.256764 h -1.090584 v 2.99061 h 0.479831 v -1.153614 h 0.610753 c 0.3053,0 0.547683,-0.08723 0.736736,-0.256766 0.188884,-0.169535 0.281041,-0.392604 0.281041,-0.664036 0,-0.271538 -0.09215,-0.489578 -0.281041,-0.659219 m -3.05849,1.022524 c -0.09215,0.08723 -0.222998,0.130844 -0.397458,0.130844 h -0.601005 v -0.983972 h 0.601005 c 0.17446,0 0.305301,0.04854 0.397458,0.135768 0.09215,0.09215 0.135767,0.213151 0.135767,0.358697 0,0.150191 -0.04358,0.266614 -0.135767,0.358663 m 0.34892,-1.022735 C 72.68945,32.058161 72.446969,31.970932 72.146453,31.970932 H 71.05587 v 2.99061 h 0.475011 v -1.153614 h 0.615572 c 0.300374,0 0.542855,-0.08723 0.731882,-0.256766 0.184303,-0.169535 0.281032,-0.392604 0.281032,-0.664036 0,-0.271538 -0.09673,-0.489578 -0.281032,-0.659219 m -3.329821,2.030695 c -0.203655,0.208579 -0.460454,0.315154 -0.765826,0.315154 -0.310226,0 -0.567096,-0.106575 -0.77068,-0.315154 -0.203655,-0.208225 -0.30531,-0.475014 -0.30531,-0.794916 0,-0.315152 0.101655,-0.581625 0.30531,-0.790063 0.203655,-0.208225 0.460489,-0.310228 0.77068,-0.310228 0.305301,0 0.557386,0.106575 0.76097,0.315153 0.208582,0.208578 0.310237,0.470162 0.310237,0.78521 0,0.320076 -0.101655,0.586514 -0.30531,0.794916 m -0.770681,-2.336246 c -0.441076,0 -0.809445,0.150189 -1.114816,0.445927 -0.305301,0.300379 -0.455599,0.664037 -0.455599,1.100256 0,0.436254 0.150192,0.79977 0.455599,1.095437 0.3053,0.30038 0.67374,0.445928 1.114816,0.445928 0.431401,0 0.804625,-0.145266 1.109961,-0.445928 0.30531,-0.295807 0.46049,-0.659183 0.46049,-1.095437 0,-0.436219 -0.155109,-0.799771 -0.46049,-1.100256 -0.305301,-0.295808 -0.67856,-0.445927 -1.109961,-0.445927 m -3.228166,0.04854 h -0.479832 v 2.990612 h 1.851518 v -0.426547 h -1.371686 m -2.67071,-0.950032 h 1.119673 V 33.168159 H 62.879028 V 32.40233 h 1.488041 v -0.426511 h -1.967908 v 2.985757 h 2.02123 V 34.535029 H 62.879028 M 60.436137,34.05034 59.57337,31.975819 h -0.538026 l 1.318392,3.03908 h 0.16482 l 1.318364,-3.03908 h -0.542863 m -3.964859,-0.179385 h 0.402303 l 0.460481,-0.494395 h -0.47502 m -0.659201,2.282924 h 1.114826 v -0.41684 h -1.114826 v -0.765827 h 1.483203 v -0.426512 h -1.963043 v 2.985757 h 2.021194 v -0.426548 h -1.541354 m -1.982411,-0.30038 c -0.203584,0.198729 -0.484714,0.30038 -0.82884,0.30038 h -0.455625 v -2.127844 h 0.455625 c 0.348991,0 0.625265,0.09708 0.82884,0.290883 0.203584,0.189232 0.305372,0.445962 0.305372,0.765828 0,0.315154 -0.101762,0.571953 -0.305372,0.770683 m -0.823994,-2.258689 h -0.94033 v 2.985757 h 0.94033 c 0.489552,0 0.882153,-0.140694 1.177813,-0.416839 0.29567,-0.281035 0.445933,-0.639803 0.445933,-1.080912 0,-0.445926 -0.145407,-0.804589 -0.445933,-1.076021 -0.290813,-0.276462 -0.688261,-0.411985 -1.177813,-0.411985 m -4.628896,1.609249 h 1.119654 V 33.168265 H 49.62246 v -0.76583 h 1.483185 v -0.426511 h -1.963043 v 2.985757 h 2.021202 V 34.535134 H 49.62246 m -1.982429,-0.30038 c -0.203584,0.198729 -0.484697,0.30038 -0.828841,0.30038 H 46.355566 V 32.40729 h 0.455624 c 0.348982,0 0.625265,0.09708 0.828841,0.290883 0.203583,0.189233 0.305371,0.445963 0.305371,0.765829 0,0.315152 -0.101752,0.571953 -0.305371,0.770682 m -0.823994,-2.258689 h -0.940312 v 2.985756 h 0.940312 c 0.484696,0 0.882162,-0.140692 1.177831,-0.416839 0.29566,-0.281035 0.445914,-0.639802 0.445914,-1.08091 0,-0.445928 -0.145407,-0.80459 -0.441077,-1.076023 -0.295668,-0.276461 -0.693117,-0.411984 -1.182668,-0.411984 m 44.21445,-2.525235 h -1.541363 v -0.945177 h 1.119672 v -0.416839 h -1.119672 v -0.765828 h 1.483186 v -0.431401 h -1.963056 v 2.990611 h 2.021233 M 87.521249,28.219625 87.18675,28.06451 C 87.036561,27.9917 86.929986,27.928741 86.867025,27.87563 l -0.09708,-0.237421 c 0,-0.116423 0.04361,-0.208226 0.130845,-0.271538 0.08723,-0.05804 0.198729,-0.09215 0.324649,-0.09215 0.256766,0 0.465308,0.120997 0.63013,0.363516 l 0.334498,-0.256764 c -0.09708,-0.160039 -0.227922,-0.290884 -0.397423,-0.387751 -0.164963,-0.09708 -0.358697,-0.15019 -0.567135,-0.15019 -0.266613,0 -0.489541,0.07773 -0.673707,0.227923 -0.179384,0.145266 -0.271538,0.343994 -0.271538,0.58648 0,0.18888 0.06296,0.353842 0.184309,0.484723 0.121347,0.130844 0.295804,0.242344 0.513774,0.343994 l 0.329574,0.150191 c 0.160039,0.07281 0.271538,0.140693 0.339423,0.203653 l 0.10165,0.247269 c 0,0.12592 -0.04854,0.227923 -0.145266,0.30038 -0.09215,0.07773 -0.218075,0.116424 -0.36837,0.116424 -0.305304,0 -0.567098,-0.16004 -0.785207,-0.475017 l -0.339422,0.256766 c 0.116423,0.203653 0.271537,0.358697 0.465307,0.475016 0.198728,0.116423 0.416838,0.174459 0.659182,0.174459 0.290883,0 0.533156,-0.0823 0.71736,-0.23742 0.193804,-0.160038 0.285958,-0.36837 0.285958,-0.63013 0,-0.193804 -0.05803,-0.358661 -0.174459,-0.489541 -0.121348,-0.130845 -0.300381,-0.247269 -0.542865,-0.358662 m -2.56888,1.66229 h 0.479834 v -2.98576 h -0.479834 z m -2.501065,-0.911236 0.49925,-1.240844 0.494394,1.240844 z m 1.381394,0.911236 h 0.51863 l -1.318399,-3.03908 h -0.164963 l -1.318365,3.03908 h 0.513776 l 0.21315,-0.499214 h 1.342598 m -4.090577,0.843349 c 0.213144,0.02462 0.353838,0.07773 0.353838,0.198729 l -0.189231,0.135769 -0.252192,-0.05803 -0.06791,0.203654 c 0.0774,0.04362 0.203646,0.07281 0.324642,0.07281 0.23285,0 0.465309,-0.101651 0.465309,-0.363515 0,-0.189232 -0.150191,-0.310229 -0.315153,-0.339423 l 0.08228,-0.145266 c 0.252191,-0.01055 0.484691,-0.06789 0.697981,-0.184308 0.222998,-0.121348 0.397458,-0.290883 0.523484,-0.504104 l -0.358697,-0.266614 c -0.222999,0.343995 -0.528303,0.518631 -0.916089,0.518631 -0.310227,0 -0.567098,-0.106575 -0.770646,-0.315153 C 78.897545,28.970867 78.7959,28.70443 78.7959,28.389383 c 0,-0.315154 0.101645,-0.581663 0.310227,-0.790064 0.203655,-0.208577 0.460454,-0.315153 0.770646,-0.315153 0.387786,0 0.693125,0.17446 0.916089,0.513777 l 0.358697,-0.266613 c -0.130845,-0.208578 -0.305305,-0.378079 -0.528338,-0.49925 -0.227923,-0.125922 -0.479868,-0.189232 -0.751304,-0.189232 -0.436212,0 -0.809437,0.150189 -1.114781,0.445926 -0.3053,0.30038 -0.455634,0.664037 -0.455634,1.100292 0,0.436219 0.150191,0.804589 0.455634,1.100256 0.261689,0.256765 0.571916,0.402312 0.935466,0.436254 m -4.119312,-2.059784 1.8225,2.069668 h 0.160036 v -3.039079 h -0.479832 v 2.011526 l -1.812797,-2.064849 h -0.169533 v 3.039079 h 0.479839 m -2.985968,-0.911235 0.499252,-1.240844 0.49439,1.240844 z m 1.900028,0.911235 -1.318365,-3.039079 h -0.164962 l -1.318365,3.039079 h 0.513775 l 0.213144,-0.499214 h 1.342643 l 0.213143,0.499214 m -4.075974,-1.58013 H 69.291596 V 27.31807 h 0.601006 c 0.169533,0 0.295811,0.04854 0.39261,0.140692 0.09214,0.08723 0.140684,0.208579 0.140684,0.353844 0,0.145266 -0.04855,0.26169 -0.140684,0.353844 -0.09708,0.09215 -0.223006,0.135768 -0.39261,0.135768 m 0.450778,0.348919 c 0.179386,-0.06789 0.32008,-0.174459 0.421699,-0.324649 0.101645,-0.15019 0.150182,-0.320077 0.150182,-0.51863 0,-0.271538 -0.09214,-0.489543 -0.276105,-0.659184 -0.188885,-0.169535 -0.436256,-0.252191 -0.736738,-0.252191 h -1.090583 v 2.985756 h 0.479867 V 28.72866 h 0.547684 l 0.853091,1.153579 h 0.54772 m -4.473903,-1.231242 h 1.187524 v -0.436228 h -1.187521 v -0.891855 h 1.444395 V 26.891513 H 66.28643 v 2.990611 h 0.479867 m -2.714355,-0.431366 h -1.53647 v -0.945177 h 1.114816 v -0.416839 h -1.114816 v -0.765828 h 1.483185 v -0.431401 h -1.963052 v 2.990611 h 2.016337 m -3.247473,-0.135769 c 0.227818,-0.121348 0.402313,-0.290883 0.528334,-0.504104 l -0.36354,-0.266614 c -0.222962,0.343996 -0.528315,0.518631 -0.916079,0.518631 -0.305371,0 -0.56226,-0.106575 -0.770681,-0.315153 -0.203584,-0.208577 -0.30538,-0.470161 -0.30538,-0.790063 0,-0.319726 0.10176,-0.58166 0.30538,-0.790063 0.208431,-0.208578 0.46531,-0.315152 0.770681,-0.315152 0.387764,0 0.693117,0.174459 0.916079,0.51863 l 0.36354,-0.271538 c -0.130841,-0.208578 -0.305372,-0.378077 -0.53318,-0.49925 -0.22297,-0.125921 -0.475003,-0.189232 -0.746439,-0.189232 -0.441076,0 -0.814301,0.15019 -1.119672,0.450781 -0.300481,0.295808 -0.455607,0.659183 -0.455607,1.095437 0,0.436219 0.150262,0.80459 0.455607,1.100257 0.305381,0.295807 0.673741,0.441073 1.119672,0.441073 0.276283,0 0.523469,-0.05803 0.751285,-0.184309 m -5.050595,-1.879977 1.817645,2.069667 h 0.164784 v -3.039079 h -0.479857 v 2.011526 l -1.817627,-2.064849 h -0.16964 v 3.03908 h 0.484695 m -1.172967,-0.431366 h -1.541352 v -0.945177 h 1.119663 v -0.416839 h -1.119619 v -0.765825 h 1.488032 v -0.4314 h -1.96789 v 2.990611 h 2.021211 m -4.192676,-1.15358 h 0.916097 v 0.319726 c -0.198728,0.30038 -0.499244,0.455634 -0.891846,0.455634 -0.319902,0 -0.586492,-0.106574 -0.790067,-0.319725 -0.20844,-0.208578 -0.310192,-0.475015 -0.310192,-0.79977 0,-0.315153 0.101752,-0.581626 0.300516,-0.790064 0.198728,-0.208576 0.455625,-0.310228 0.775528,-0.310228 0.368377,0 0.668893,0.155114 0.891846,0.470162 l 0.348991,-0.28596 c -0.29567,-0.416838 -0.707658,-0.625275 -1.235982,-0.625275 -0.445923,0 -0.819155,0.15019 -1.124509,0.445927 -0.305371,0.30038 -0.455616,0.664037 -0.455616,1.100291 0,0.43622 0.150253,0.80459 0.455616,1.100257 0.305372,0.295807 0.678586,0.445927 1.124509,0.445927 0.300516,0 0.57679,-0.07281 0.823985,-0.218074 0.247203,-0.140694 0.436239,-0.334498 0.567106,-0.571954 v -0.843385 h -1.395946 m -3.751609,0.668855 0.499236,-1.240844 0.494398,1.240844 z m 0.416827,-2.127844 -1.318383,3.03908 h 0.513793 l 0.213259,-0.499216 h 1.342616 l 0.213295,0.499216 h 0.518631 l -1.318401,-3.03908"
       id="path1835"
       style="fill:#ffffff;fill-opacity:1;stroke:#ffffff;stroke-width:2;stroke-linecap:butt;stroke-linejoin:round;stroke-miterlimit:4;stroke-dasharray:none;stroke-opacity:1" />
  </g>
  <g
     transform="matrix(0.03590754,0,0,0.03590754,179.65146,28.531106)"
     id="g863">
    <path
       id="rect621"
       style="font-size:12px;opacity:0.2;fill:#ffffff;fill-rule:evenodd;stroke:none;stroke-width:1.18207"
       d="M 1540.1673,-19.088001 V 247.3002 h 249.2839 V -19.088001 Z m 21.5923,21.7917799 h 115.0426 c -48.1065,19.7816141 -59.0839,44.7411481 -58.394,72.5561311 0.9253,41.31846 65.4132,48.89511 64.6273,84.22494 -0.6722,28.50094 -35.0138,52.39884 -56.3494,65.27556 h -64.9265 z m 122.6723,0 h 83.2274 V 224.76041 h -126.2625 c 30.0961,-12.46282 70.8019,-36.38679 71.9079,-72.15719 1.1444,-57.216916 -74.3488,-60.070169 -73.2044,-95.544685 0,-24.334976 23.5691,-41.032018 44.3316,-54.3547561 z m 69.165,12.5165471 -37.2503,29.172047 -27.4766,-22.88883 21.1935,28.623523 -18.8997,25.731232 25.1828,-18.301102 35.4552,31.465925 -27.9752,-37.150728 z" />
    <path
       id="rect2864-2"
       d="m 577.05998,30.115748 c -49.46593,1.75e-4 -74.21267,16.833491 -74.21267,50.478312 0,13.021381 3.56755,23.19672 10.69196,30.55645 7.1243,7.27907 21.26459,14.9249 42.39486,22.93167 l 19.77861,7.53877 16.65408,6.30622 c 5.01937,1.86023 8.94746,4.81354 11.78114,8.85738 2.59049,3.72041 3.86953,8.02289 3.86965,12.95636 -1.2e-4,16.17551 -13.64997,24.27894 -40.93291,24.27894 -18.7825,0 -40.06289,-4.00358 -63.86476,-12.01049 v 30.55644 l 19.17662,2.92377 c 2.08146,0.31541 4.13352,0.60789 6.15596,0.87748 7.82121,1.04249 15.20089,1.74261 22.13823,2.10306 3.68827,0.19164 7.25152,0.28724 10.68963,0.28724 29.38788,0 51.05762,-4.39876 64.98262,-13.21442 14.00574,-8.73467 21.01094,-22.45093 21.01117,-41.13363 -2.3e-4,-13.50645 -3.86093,-24.20695 -11.55189,-32.133 -7.6912,-8.00678 -21.47594,-15.6864 -41.39166,-23.04632 l -20.66711,-7.65345 -13.84493,-5.331602 c -8.01502,-3.073223 -13.31824,-5.95896 -15.90885,-8.628045 -2.7527,-2.830569 -4.12783,-6.800386 -4.12771,-11.895796 -1.2e-4,-7.764079 2.84611,-13.213109 8.51336,-16.367469 5.66702,-3.073188 15.61965,-4.614843 29.86847,-4.615005 17.72978,1.62e-4 36.58687,3.31482 56.58381,9.946611 V 36.307289 c -19.34928,-4.12456 -38.60062,-6.191366 -57.78768,-6.191541 z m 83.20485,4.500337 v 24.622864 h 52.45613 V 214.14231 H 750.1283 V 59.238949 h 52.45614 V 34.616085 Z m 198.44497,0 -69.71235,179.526225 h 27.31736 l 18.34527,-47.89846 h 74.32738 l 18.31657,47.89846 h 38.26728 L 896.11701,34.616085 Z m 129.56385,0 V 214.14231 h 35.22875 v -73.38127 h 29.2665 l 50.5069,73.38127 h 42.0223 l -58.791,-83.81519 c 9.553,-4.60993 16.8853,-9.69761 21.9858,-15.27824 8.5814,-9.54342 12.8702,-21.520409 12.8704,-35.916709 -2e-4,-29.681825 -18.2371,-44.515901 -54.7494,-44.516086 z m 156.76655,0 v 24.622864 h 52.4849 V 214.14231 h 37.4073 V 59.238949 h 52.4562 V 34.616085 Z m 155.7062,0 55.0072,91.096025 -57.5585,88.4302 h 30.2412 l 41.7642,-64.15129 38.9839,64.15129 h 43.4841 l -57.0999,-94.85106 55.1507,-84.675165 h -30.241 l -39.5859,60.39627 -36.5473,-60.39627 z m -277.244,24.622864 h 24.0495 c 11.2532,1.62e-4 19.8644,1.739377 25.8555,5.216959 6.9624,3.963136 10.4338,10.496234 10.4339,19.635231 -10e-5,8.734884 -2.4907,15.821786 -7.5102,21.240451 -6.6386,7.19819 -17.7018,10.80665 -33.1648,10.80654 h -19.6639 z m -151.69292,11.52317 27.94793,71.575451 h -55.86728 z"
       style="opacity:0.2;fill:#ffffff;fill-opacity:1;stroke:#ffffff;stroke-width:9.70757;stroke-linecap:butt;stroke-linejoin:miter;stroke-miterlimit:2.5;stroke-dasharray:none;stroke-opacity:1" />
    <path
       id="rect2864-6"
       d="m 576.88639,29.713835 c -49.46581,1.83e-4 -74.21255,16.8335 -74.21255,50.478318 0,13.021381 3.56755,23.196717 10.69184,30.556447 7.12441,7.27905 21.26471,14.92489 42.39498,22.93166 l 19.77849,7.53881 16.65408,6.30621 c 5.01936,1.86025 8.94757,4.81353 11.78126,8.85736 2.59049,3.72041 3.86953,8.02289 3.86964,12.95637 -1.1e-4,16.17552 -13.64996,24.27895 -40.93302,24.27895 -18.7825,0 -40.06278,-4.00358 -63.86464,-12.0105 v 30.55642 l 19.17662,2.92381 c 14.41056,2.18366 27.4066,3.26777 38.98382,3.26777 29.38787,0 51.0575,-4.39878 64.9825,-13.21442 14.00574,-8.73468 21.01105,-22.45092 21.01117,-41.13362 -1.2e-4,-13.50647 -3.86082,-24.20696 -11.55178,-32.13302 -7.69119,-8.00678 -21.47594,-15.68637 -41.39166,-23.04633 l -20.6671,-7.65344 -13.84506,-5.331621 c -8.01501,-3.073211 -13.31812,-5.958948 -15.90884,-8.628033 -2.75258,-2.830569 -4.12771,-6.800397 -4.12771,-11.895797 0,-7.764084 2.84623,-13.213107 8.51336,-16.367475 5.66713,-3.073183 15.61976,-4.614842 29.86858,-4.614996 17.72978,1.54e-4 36.58688,3.314815 56.58382,9.946608 V 35.905381 c -19.34929,-4.12456 -38.60062,-6.191363 -57.7878,-6.191546 z m 83.20497,4.500336 v 24.622873 h 52.45613 V 213.7404 h 37.40734 V 58.837044 h 52.45614 V 34.214171 Z m 198.44485,0 -69.71223,179.526229 h 27.31736 l 18.34527,-47.89845 h 74.32726 l 18.31669,47.89845 h 38.26727 L 895.94354,34.214171 Z m 129.56397,0 V 213.7404 h 35.22872 v -73.38128 h 29.2666 l 50.5069,73.38128 h 42.0223 l -58.7911,-83.8152 c 9.553,-4.60993 16.8852,-9.6976 21.9858,-15.27823 8.5814,-9.54341 12.8702,-21.520406 12.8703,-35.916706 -10e-5,-29.681827 -18.237,-44.51591 -54.7493,-44.516093 z m 156.76652,0 v 24.622873 h 52.4848 V 213.7404 h 37.4073 V 58.837044 h 52.4563 V 34.214171 Z m 155.706,0 55.0072,91.096019 -57.5584,88.43021 h 30.2412 l 41.7641,-64.15127 38.984,64.15127 h 43.484 l -57.0998,-94.85106 55.1507,-84.675169 h -30.2412 l -39.5857,60.396265 -36.5473,-60.396265 z m -277.2438,24.622873 h 24.0496 c 11.2531,1.58e-4 19.8643,1.739377 25.8554,5.216956 6.9623,3.963131 10.4338,10.496234 10.4339,19.635232 -10e-5,8.734884 -2.4908,15.821786 -7.51,21.240458 -6.6388,7.19818 -17.702,10.80665 -33.165,10.80654 h -19.6639 z m -151.69301,11.523167 27.94805,71.575469 h -55.86728 z"
       style="opacity:0.2;fill:#000e44;fill-opacity:0;stroke:none;stroke-width:1.37607" />
    <text
       xml:space="preserve"
       style="font-style:normal;font-variant:normal;font-weight:normal;font-stretch:normal;font-size:260.548px;line-height:1.25;font-family:sans-serif;-inkscape-font-specification:'sans-serif, Normal';font-variant-ligatures:normal;font-variant-caps:normal;font-variant-numeric:normal;font-feature-settings:normal;text-align:start;letter-spacing:0px;word-spacing:0px;writing-mode:lr-tb;text-anchor:start;opacity:0.2;fill:#000000;fill-opacity:1;stroke:none;stroke-width:21.7123"
       x="69.383331"
       y="193.82585"
       id="text3244"><tspan
         id="tspan3242"
         x="69.383331"
         y="193.82585"
         style="font-style:normal;font-variant:normal;font-weight:600;font-stretch:normal;font-family:'URW Gothic';-inkscape-font-specification:'URW Gothic Semi-Bold';fill:#ffffff;fill-opacity:1;stroke-width:21.7123">by</tspan></text>
  </g>
  <g
     transform="matrix(0.93491925,0,0,0.93491925,16.128141,2.338026)"
     fill="#fff"
     id="g977">
    <path
       d="m 105.01468,17.740822 0.9,0.9 c -1.2,1.3 -2.9,2 -4.7,2 -3.400004,0.1 -6.200006,-2.7 -6.300006,-6.1 -0.1,-3.399999 2.700002,-6.2000019 6.100006,-6.3000019 h 0.2 c 1.9,0 3.6,0.7000002 4.7,2.0000009 l -0.9,0.900002 c -1,-1.100003 -2.4,-1.7000027 -3.9,-1.7000027 -2.800002,0 -4.900004,2.2000027 -4.900004,5.0000017 0,2.8 2.100002,5 4.900004,5 1.6,-0.1 3,-0.7 3.9,-1.7 z"
       id="path941" />
    <path
       d="m 111.31468,11.640823 c 2.4,0 4.4,1.899999 4.4,4.399999 0,2.5 -1.9,4.5 -4.4,4.5 -2.4,0 -4.4,-1.9 -4.4,-4.5 0,-2.6 1.9,-4.399999 4.4,-4.399999 z m 3.1,4.499999 c 0,-1.9 -1.4,-3.299999 -3.1,-3.299999 -1.7,0 -3.1,1.499999 -3.1,3.299999 0,1.9 1.4,3.3 3.1,3.3 1.7,0 3.1,-1.5 3.1,-3.3 z"
       id="path943" />
    <path
       d="m 117.41468,11.840823 h 1.3 v 1 c 0.7,-0.8 1.6,-1.2 2.7,-1.2 1.9,0 3.3,1.3 3.3,3.299999 v 5.4 h -1.3 v -5.2 c 0,-1.5 -0.9,-2.499999 -2.4,-2.499999 -1,0 -1.9,0.5 -2.4,1.299999 v 6.3 h -1.2 z"
       id="path945" />
    <path
       d="m 127.51468,12.940823 h -1.8 v -1.1 h 1.8 V 9.6408203 l 1.2,-0.3 v 2.5000027 h 2.6 v 1.1 h -2.6 v 5.199999 c 0,0.9 0.4,1.3 1.3,1.3 0.4,0 0.9,-0.1 1.2,-0.2 v 1.1 c -0.5,0.2 -1,0.2 -1.5,0.2 -1.5,0 -2.3,-0.7 -2.3,-2.1 z"
       id="path947" />
    <path
       d="m 132.21468,17.940822 c 0,-1.6 1.3,-2.6 3.4,-2.6 0.9,0 1.7,0.2 2.5,0.6 v -1.1 c 0,-1.4 -0.8,-2.099999 -2.3,-2.099999 -0.8,0 -1.7,0.2 -2.7,0.799999 l -0.5,-0.999999 c 1.2,-0.6 2.2,-0.9 3.3,-0.9 2.2,0 3.4,1.1 3.4,2.999999 v 5.7 h -1.2 v -0.8 c -0.8,0.7 -1.8,1 -2.8,1 -1.8,0 -3.1,-1 -3.1,-2.6 z m 3.4,1.6 c 1,0 1.9,-0.3 2.5,-1 v -1.6 c -0.7,-0.5 -1.5,-0.7 -2.5,-0.7 -1.4,0 -2.2,0.7 -2.2,1.7 0,1 0.9,1.6 2.2,1.6 z"
       id="path949" />
    <path
       d="m 141.31468,9.3408203 c 0,-0.5000002 0.4,-0.9000002 0.9,-0.9000002 0.5,0 0.8,0.4 0.9,0.8000002 0,0.5 -0.4,0.8999997 -0.9,0.8999997 -0.6,0.100001 -0.9,-0.2999995 -0.9,-0.7999997 z m 1.4,11.1000017 h -1.3 v -8.499999 h 1.3 z"
       id="path951" />
    <path
       d="m 144.91468,11.840823 h 1.3 v 1 c 0.7,-0.8 1.6,-1.2 2.7,-1.2 1.9,0 3.3,1.3 3.3,3.299999 v 5.4 h -1.2 v -5.2 c 0,-1.5 -0.9,-2.499999 -2.4,-2.499999 -1,0 -1.9,0.5 -2.4,1.299999 v 6.3 h -1.3 z"
       id="path953" />
    <path
       d="m 158.31468,20.540822 c -2.4,0 -4.4,-1.9 -4.4,-4.3 v -0.1 c 0,-2.5 1.9,-4.399999 4.2,-4.399999 2.3,0 4,1.899999 4,4.399999 v 0.4 h -7 c 0.2,1.7 1.5,2.9 3.2,2.9 0.9,0 1.8,-0.3 2.4,-0.8 l 0.8,0.8 c -0.9,0.8 -2.1,1.1 -3.2,1.1 z m -3.1,-5 h 5.7 c -0.2,-1.5 -1.4,-2.699999 -2.8,-2.699999 -1.5,0 -2.7,1.099999 -2.9,2.699999 z"
       id="path955" />
    <path
       d="m 163.91468,11.840823 h 1.3 v 1.2 c 0.5,-0.9 1.4,-1.4 2.4,-1.4 0.3,0 0.5,0 0.8,0.1 v 1.2 c -0.3,-0.1 -0.6,-0.2 -0.9,-0.2 -1.1,0 -1.9,0.599999 -2.3,1.799999 v 5.9 h -1.3 z"
       id="path957" />
    <path
       d="m 179.18624,8.4408202 h 5.2 c 2.3,0 3.9,1.4000003 3.9,3.4000028 0,2 -1.5,3.499999 -3.9,3.499999 h -3.9 v 5 h -1.3 z m 1.3,1.2000001 v 4.6000027 h 3.8 c 1.6,0 2.6,-0.9 2.6,-2.3 0,-1.400002 -1,-2.3000027 -2.6,-2.3000027 z"
       id="path959" />
    <path
       d="m 191.28624,20.440822 h -1.3 V 8.4408202 l 1.3,-0.3 z"
       id="path961" />
    <path
       d="m 192.98624,17.940822 c 0,-1.6 1.3,-2.6 3.4,-2.6 0.9,0 1.7,0.2 2.5,0.6 v -1.099999 c 0,-1.4 -0.8,-2.1 -2.3,-2.1 -0.8,0 -1.7,0.2 -2.7,0.8 l -0.5,-1 c 1.2,-0.6 2.2,-0.9 3.3,-0.9 2.2,0 3.4,1.1 3.4,3 v 5.699999 h -1.2 v -0.8 c -0.8,0.7 -1.8,1 -2.8,1 -1.8,0 -3.1,-1 -3.1,-2.6 z m 3.4,1.6 c 1,0 1.9,-0.3 2.5,-1 v -1.6 c -0.7,-0.5 -1.5,-0.7 -2.5,-0.7 -1.4,0 -2.2,0.7 -2.2,1.7 0,1 0.9,1.6 2.2,1.6 z"
       id="path963" />
    <path
       d="m 202.98624,12.940823 h -1.8 v -1.1 h 1.8 V 9.6408203 l 1.2,-0.3 v 2.5000027 h 2.6 v 1.1 h -2.6 v 5.199999 c 0,0.9 0.4,1.3 1.3,1.3 0.4,0 0.9,-0.1 1.2,-0.2 v 1.1 c -0.5,0.2 -1,0.2 -1.5,0.2 -1.5,0 -2.3,-0.7 -2.3,-2.1 z"
       id="path965" />
    <path
       d="m 209.48624,11.840823 v -1.600002 c 0,-1.7000007 0.9,-2.6000008 2.6,-2.6000008 0.4,0 0.8,0 1.1,0.2 v 1.1000001 c -0.3,-0.1 -0.7,-0.2 -1.1,-0.2 -1,0 -1.5,0.5 -1.5,1.5000007 v 1.600002 h 2.5 v 1.1 h -2.5 v 7.499999 h -1.2 v -7.499999 h -2 v -1.1 z"
       id="path967" />
    <path
       d="m 218.18624,11.640823 c 2.4,0 4.4,1.9 4.4,4.399999 0,2.5 -1.9,4.5 -4.4,4.5 -2.4,0 -4.4,-1.9 -4.4,-4.5 0,-2.599999 2,-4.399999 4.4,-4.399999 z m 3.1,4.499999 c 0,-1.899999 -1.4,-3.299999 -3.1,-3.299999 -1.7,0 -3.1,1.5 -3.1,3.299999 0,1.9 1.4,3.3 3.1,3.3 1.8,0 3.1,-1.5 3.1,-3.3 z"
       id="path969" />
    <path
       d="m 224.28624,11.840823 h 1.3 v 1.2 c 0.5,-0.9 1.4,-1.4 2.4,-1.4 0.3,0 0.5,0 0.8,0.1 v 1.2 c -0.3,-0.1 -0.6,-0.2 -0.9,-0.2 -1.1,0 -1.9,0.6 -2.3,1.8 v 5.899999 h -1.3 z"
       id="path971" />
    <path
       d="m 230.28624,11.840823 h 1.3 v 0.9 c 0.6,-0.7 1.5,-1.1 2.5,-1.1 1.1,0 2.2,0.6 2.7,1.6 0.6,-1 1.8,-1.6 2.9,-1.6 1.9,0 3.1,1.3 3.1,3.3 v 5.399999 h -1.2 v -5.199999 c 0,-1.5 -0.9,-2.5 -2.2,-2.5 -0.9,0 -1.7,0.5 -2.3,1.4 0.1,0.3 0.1,0.5 0.1,0.8 v 5.399999 h -1.3 v -5.199999 c 0,-1.5 -0.9,-2.5 -2.2,-2.5 -0.9,0 -1.7,0.4 -2.2,1.2 v 6.399999 h -1.3 v -8.299999 z"
       id="path973" />
  </g>
  <g
     class="logo"
     id="g941"
     transform="matrix(0.15854605,0,0,0.15854605,3.6853709,1.991347)">
    <g
       clip-path="url(#clip3)"
       transform="matrix(7.05555,0,0,7.05556,-2143.9715,-5332.3169)"
       id="g927">
      <g
         clip-path="url(#clip4)"
         id="g925">
        <path
           fill="url(#linear0)"
           d="m 335.35547,783.52734 v -26.10547 h -25.7461 v 26.10547 z m 0,0"
           id="path923"
           style="fill:url(#linear0)" />
      </g>
    </g>
    <g
       clip-path="url(#clip5)"
       transform="matrix(7.05555,0,0,7.05556,-2143.9715,-5332.3169)"
       id="g933">
      <g
         clip-path="url(#clip6)"
         id="g931">
        <path
           fill="url(#linear1)"
           d="m 305.52734,786.69922 v -26.10938 h 25.74219 v 26.10938 z m 0,0"
           id="path929"
           style="fill:url(#linear1)" />
      </g>
    </g>
    <g
       clip-path="url(#clip7)"
       transform="matrix(7.05555,0,0,7.05556,-2143.9715,-5332.3169)"
       id="g939">
      <g
         clip-path="url(#clip8)"
         id="g937">
        <rect
           fill="url(#linear2)"
           width="112"
           height="114"
           x="0"
           y="0"
           transform="matrix(0.24064,0,0,0.24063,306.894,758.354)"
           id="rect935"
           style="fill:url(#linear2)" />
      </g>
    </g>
  </g>
  <path
     class="text_AFD"
     fill="#232166"
     d="m 82.126513,6.654871 c 2.709469,0 4.876106,0.7464123 6.490137,2.2635411 1.618923,1.5170949 2.43807,3.4850019 2.43807,5.9230479 0,2.408983 -0.819147,4.401097 -2.462305,5.942459 -1.614031,1.517093 -3.780668,2.287774 -6.465902,2.287774 H 76.978978 V 6.654871 Z m -2.51559,2.3895617 V 20.711184 h 2.491356 c 1.914586,0 3.431679,-0.547684 4.551351,-1.643122 1.119635,-1.09544 1.691589,-2.515601 1.691589,-4.226602 0,-1.769152 -0.571954,-3.160252 -1.691589,-4.207224 C 85.533958,9.5630636 84.016865,9.0444327 82.102279,9.0444327 M 74.366446,6.654871 v 2.3604732 h -7.910331 v 4.9051728 h 7.910331 v 2.38475 h -7.910331 v 6.766426 H 63.81935 V 6.654871 m -5.448035,16.416822 -1.168138,-2.733706 h -7.386835 l -1.172985,2.733706 h -2.81126 L 53.073534,6.378579 h 0.891846 l 7.241446,16.693114 z M 56.228939,18.07441 53.519448,11.254654 50.785742,18.07441"
     id="path943-3"
     style="stroke-width:0.175867" />
  <path
     class="text_Agence_Francaise_de_Developpement"
     fill="#232166"
     d="m 88.553654,31.970826 v 0.431366 h 1.003319 v 2.559245 h 0.479871 v -2.559245 h 1.01302 v -0.431366 m -3.533469,2.016345 -1.812796,-2.064813 h -0.169535 v 3.039079 h 0.47987 v -2.01638 l 1.822468,2.069702 h 0.164611 v -3.043933 h -0.484688 m -4.173204,1.614032 h 1.119637 v -0.416839 h -1.119637 v -0.765827 h 1.488042 V 31.97568 h -1.96791 v 2.985757 h 2.02123 v -0.426548 h -1.541362 m -2.782205,-0.940322 -1.255374,-1.672209 h -0.164606 v 3.039079 h 0.479867 v -1.875792 l 0.862767,1.124489 h 0.160038 l 0.85791,-1.124489 v 1.875792 h 0.47987 v -3.039079 h -0.164963 m -4.866536,1.6625 h 1.119673 V 33.168019 H 76.949889 V 32.402192 H 78.43793 V 31.97568 h -1.967881 v 2.985757 h 2.021202 v -0.426548 h -1.541362 m -1.715821,-1.284458 c -0.09215,0.08723 -0.223006,0.130844 -0.387755,0.130844 h -0.605897 v -0.983972 h 0.605897 c 0.164615,0 0.295811,0.04854 0.387755,0.135768 0.09214,0.09215 0.140693,0.213151 0.140693,0.358697 0,0.150191 -0.04856,0.266614 -0.140693,0.358663 m 0.353837,-1.022735 c -0.188875,-0.169535 -0.4314,-0.256764 -0.736736,-0.256764 h -1.090584 v 2.99061 h 0.479831 v -1.153614 h 0.610753 c 0.3053,0 0.547683,-0.08723 0.736736,-0.256766 0.188884,-0.169535 0.281041,-0.392604 0.281041,-0.664036 0,-0.271538 -0.09215,-0.489578 -0.281041,-0.659219 m -3.05849,1.022524 c -0.09215,0.08723 -0.222998,0.130844 -0.397458,0.130844 h -0.601005 v -0.983972 h 0.601005 c 0.17446,0 0.305301,0.04854 0.397458,0.135768 0.09215,0.09215 0.135767,0.213151 0.135767,0.358697 0,0.150191 -0.04358,0.266614 -0.135767,0.358663 m 0.34892,-1.022735 C 72.68945,32.058161 72.446969,31.970932 72.146453,31.970932 H 71.05587 v 2.99061 h 0.475011 v -1.153614 h 0.615572 c 0.300374,0 0.542855,-0.08723 0.731882,-0.256766 0.184303,-0.169535 0.281032,-0.392604 0.281032,-0.664036 0,-0.271538 -0.09673,-0.489578 -0.281032,-0.659219 m -3.329821,2.030695 c -0.203655,0.208579 -0.460454,0.315154 -0.765826,0.315154 -0.310226,0 -0.567096,-0.106575 -0.77068,-0.315154 -0.203655,-0.208225 -0.30531,-0.475014 -0.30531,-0.794916 0,-0.315152 0.101655,-0.581625 0.30531,-0.790063 0.203655,-0.208225 0.460489,-0.310228 0.77068,-0.310228 0.305301,0 0.557386,0.106575 0.76097,0.315153 0.208582,0.208578 0.310237,0.470162 0.310237,0.78521 0,0.320076 -0.101655,0.586514 -0.30531,0.794916 m -0.770681,-2.336246 c -0.441076,0 -0.809445,0.150189 -1.114816,0.445927 -0.305301,0.300379 -0.455599,0.664037 -0.455599,1.100256 0,0.436254 0.150192,0.79977 0.455599,1.095437 0.3053,0.30038 0.67374,0.445928 1.114816,0.445928 0.431401,0 0.804625,-0.145266 1.109961,-0.445928 0.30531,-0.295807 0.46049,-0.659183 0.46049,-1.095437 0,-0.436219 -0.155109,-0.799771 -0.46049,-1.100256 -0.305301,-0.295808 -0.67856,-0.445927 -1.109961,-0.445927 m -3.228166,0.04854 h -0.479832 v 2.990612 h 1.851518 v -0.426547 h -1.371686 m -2.67071,-0.950032 h 1.119673 V 33.168159 H 62.879028 V 32.40233 h 1.488041 v -0.426511 h -1.967908 v 2.985757 h 2.02123 V 34.535029 H 62.879028 M 60.436137,34.05034 59.57337,31.975819 h -0.538026 l 1.318392,3.03908 h 0.16482 l 1.318364,-3.03908 h -0.542863 m -3.964859,-0.179385 h 0.402303 l 0.460481,-0.494395 h -0.47502 m -0.659201,2.282924 h 1.114826 v -0.41684 h -1.114826 v -0.765827 h 1.483203 v -0.426512 h -1.963043 v 2.985757 h 2.021194 v -0.426548 h -1.541354 m -1.982411,-0.30038 c -0.203584,0.198729 -0.484714,0.30038 -0.82884,0.30038 h -0.455625 v -2.127844 h 0.455625 c 0.348991,0 0.625265,0.09708 0.82884,0.290883 0.203584,0.189232 0.305372,0.445962 0.305372,0.765828 0,0.315154 -0.101762,0.571953 -0.305372,0.770683 m -0.823994,-2.258689 h -0.94033 v 2.985757 h 0.94033 c 0.489552,0 0.882153,-0.140694 1.177813,-0.416839 0.29567,-0.281035 0.445933,-0.639803 0.445933,-1.080912 0,-0.445926 -0.145407,-0.804589 -0.445933,-1.076021 -0.290813,-0.276462 -0.688261,-0.411985 -1.177813,-0.411985 m -4.628896,1.609249 h 1.119654 V 33.168265 H 49.62246 v -0.76583 h 1.483185 v -0.426511 h -1.963043 v 2.985757 h 2.021202 V 34.535134 H 49.62246 m -1.982429,-0.30038 c -0.203584,0.198729 -0.484697,0.30038 -0.828841,0.30038 H 46.355566 V 32.40729 h 0.455624 c 0.348982,0 0.625265,0.09708 0.828841,0.290883 0.203583,0.189233 0.305371,0.445963 0.305371,0.765829 0,0.315152 -0.101752,0.571953 -0.305371,0.770682 m -0.823994,-2.258689 h -0.940312 v 2.985756 h 0.940312 c 0.484696,0 0.882162,-0.140692 1.177831,-0.416839 0.29566,-0.281035 0.445914,-0.639802 0.445914,-1.08091 0,-0.445928 -0.145407,-0.80459 -0.441077,-1.076023 -0.295668,-0.276461 -0.693117,-0.411984 -1.182668,-0.411984 m 44.21445,-2.525235 h -1.541363 v -0.945177 h 1.119672 v -0.416839 h -1.119672 v -0.765828 h 1.483186 v -0.431401 h -1.963056 v 2.990611 h 2.021233 M 87.521249,28.219625 87.18675,28.06451 C 87.036561,27.9917 86.929986,27.928741 86.867025,27.87563 l -0.09708,-0.237421 c 0,-0.116423 0.04361,-0.208226 0.130845,-0.271538 0.08723,-0.05804 0.198729,-0.09215 0.324649,-0.09215 0.256766,0 0.465308,0.120997 0.63013,0.363516 l 0.334498,-0.256764 c -0.09708,-0.160039 -0.227922,-0.290884 -0.397423,-0.387751 -0.164963,-0.09708 -0.358697,-0.15019 -0.567135,-0.15019 -0.266613,0 -0.489541,0.07773 -0.673707,0.227923 -0.179384,0.145266 -0.271538,0.343994 -0.271538,0.58648 0,0.18888 0.06296,0.353842 0.184309,0.484723 0.121347,0.130844 0.295804,0.242344 0.513774,0.343994 l 0.329574,0.150191 c 0.160039,0.07281 0.271538,0.140693 0.339423,0.203653 l 0.10165,0.247269 c 0,0.12592 -0.04854,0.227923 -0.145266,0.30038 -0.09215,0.07773 -0.218075,0.116424 -0.36837,0.116424 -0.305304,0 -0.567098,-0.16004 -0.785207,-0.475017 l -0.339422,0.256766 c 0.116423,0.203653 0.271537,0.358697 0.465307,0.475016 0.198728,0.116423 0.416838,0.174459 0.659182,0.174459 0.290883,0 0.533156,-0.0823 0.71736,-0.23742 0.193804,-0.160038 0.285958,-0.36837 0.285958,-0.63013 0,-0.193804 -0.05803,-0.358661 -0.174459,-0.489541 -0.121348,-0.130845 -0.300381,-0.247269 -0.542865,-0.358662 m -2.56888,1.66229 h 0.479834 v -2.98576 h -0.479834 z m 0,0 m -2.501065,-0.911236 0.49925,-1.240844 0.494394,1.240844 z m 1.381394,0.911236 h 0.51863 l -1.318399,-3.03908 h -0.164963 l -1.318365,3.03908 h 0.513776 l 0.21315,-0.499214 h 1.342598 m -4.090577,0.843349 c 0.213144,0.02462 0.353838,0.07773 0.353838,0.198729 l -0.189231,0.135769 -0.252192,-0.05803 -0.06791,0.203654 c 0.0774,0.04362 0.203646,0.07281 0.324642,0.07281 0.23285,0 0.465309,-0.101651 0.465309,-0.363515 0,-0.189232 -0.150191,-0.310229 -0.315153,-0.339423 l 0.08228,-0.145266 c 0.252191,-0.01055 0.484691,-0.06789 0.697981,-0.184308 0.222998,-0.121348 0.397458,-0.290883 0.523484,-0.504104 l -0.358697,-0.266614 c -0.222999,0.343995 -0.528303,0.518631 -0.916089,0.518631 -0.310227,0 -0.567098,-0.106575 -0.770646,-0.315153 C 78.897545,28.970867 78.7959,28.70443 78.7959,28.389383 c 0,-0.315154 0.101645,-0.581663 0.310227,-0.790064 0.203655,-0.208577 0.460454,-0.315153 0.770646,-0.315153 0.387786,0 0.693125,0.17446 0.916089,0.513777 l 0.358697,-0.266613 c -0.130845,-0.208578 -0.305305,-0.378079 -0.528338,-0.49925 -0.227923,-0.125922 -0.479868,-0.189232 -0.751304,-0.189232 -0.436212,0 -0.809437,0.150189 -1.114781,0.445926 -0.3053,0.30038 -0.455634,0.664037 -0.455634,1.100292 0,0.436219 0.150191,0.804589 0.455634,1.100256 0.261689,0.256765 0.571916,0.402312 0.935466,0.436254 m -4.119312,-2.059784 1.8225,2.069668 h 0.160036 v -3.039079 h -0.479832 v 2.011526 l -1.812797,-2.064849 h -0.169533 v 3.039079 h 0.479839 m -2.985968,-0.911235 0.499252,-1.240844 0.49439,1.240844 z m 1.900028,0.911235 -1.318365,-3.039079 h -0.164962 l -1.318365,3.039079 h 0.513775 l 0.213144,-0.499214 h 1.342643 l 0.213143,0.499214 m -4.075974,-1.58013 H 69.291596 V 27.31807 h 0.601006 c 0.169533,0 0.295811,0.04854 0.39261,0.140692 0.09214,0.08723 0.140684,0.208579 0.140684,0.353844 0,0.145266 -0.04855,0.26169 -0.140684,0.353844 -0.09708,0.09215 -0.223006,0.135768 -0.39261,0.135768 m 0.450778,0.348919 c 0.179386,-0.06789 0.32008,-0.174459 0.421699,-0.324649 0.101645,-0.15019 0.150182,-0.320077 0.150182,-0.51863 0,-0.271538 -0.09214,-0.489543 -0.276105,-0.659184 -0.188885,-0.169535 -0.436256,-0.252191 -0.736738,-0.252191 h -1.090583 v 2.985756 h 0.479867 V 28.72866 h 0.547684 l 0.853091,1.153579 h 0.54772 m -4.473903,-1.231242 h 1.187524 v -0.436228 h -1.187521 v -0.891855 h 1.444395 V 26.891513 H 66.28643 v 2.990611 h 0.479867 m -2.714355,-0.431366 h -1.53647 v -0.945177 h 1.114816 v -0.416839 h -1.114816 v -0.765828 h 1.483185 v -0.431401 h -1.963052 v 2.990611 h 2.016337 m -3.247473,-0.135769 c 0.227818,-0.121348 0.402313,-0.290883 0.528334,-0.504104 l -0.36354,-0.266614 c -0.222962,0.343996 -0.528315,0.518631 -0.916079,0.518631 -0.305371,0 -0.56226,-0.106575 -0.770681,-0.315153 -0.203584,-0.208577 -0.30538,-0.470161 -0.30538,-0.790063 0,-0.319726 0.10176,-0.58166 0.30538,-0.790063 0.208431,-0.208578 0.46531,-0.315152 0.770681,-0.315152 0.387764,0 0.693117,0.174459 0.916079,0.51863 l 0.36354,-0.271538 c -0.130841,-0.208578 -0.305372,-0.378077 -0.53318,-0.49925 -0.22297,-0.125921 -0.475003,-0.189232 -0.746439,-0.189232 -0.441076,0 -0.814301,0.15019 -1.119672,0.450781 -0.300481,0.295808 -0.455607,0.659183 -0.455607,1.095437 0,0.436219 0.150262,0.80459 0.455607,1.100257 0.305381,0.295807 0.673741,0.441073 1.119672,0.441073 0.276283,0 0.523469,-0.05803 0.751285,-0.184309 m -5.050595,-1.879977 1.817645,2.069667 h 0.164784 v -3.039079 h -0.479857 v 2.011526 l -1.817627,-2.064849 h -0.16964 v 3.03908 h 0.484695 m -1.172967,-0.431366 h -1.541352 v -0.945177 h 1.119663 v -0.416839 h -1.119619 v -0.765825 h 1.488032 v -0.4314 h -1.96789 v 2.990611 h 2.021211 m -4.192676,-1.15358 h 0.916097 v 0.319726 c -0.198728,0.30038 -0.499244,0.455634 -0.891846,0.455634 -0.319902,0 -0.586492,-0.106574 -0.790067,-0.319725 -0.20844,-0.208578 -0.310192,-0.475015 -0.310192,-0.79977 0,-0.315153 0.101752,-0.581626 0.300516,-0.790064 0.198728,-0.208576 0.455625,-0.310228 0.775528,-0.310228 0.368377,0 0.668893,0.155114 0.891846,0.470162 l 0.348991,-0.28596 c -0.29567,-0.416838 -0.707658,-0.625275 -1.235982,-0.625275 -0.445923,0 -0.819155,0.15019 -1.124509,0.445927 -0.305371,0.30038 -0.455616,0.664037 -0.455616,1.100291 0,0.43622 0.150253,0.80459 0.455616,1.100257 0.305372,0.295807 0.678586,0.445927 1.124509,0.445927 0.300516,0 0.57679,-0.07281 0.823985,-0.218074 0.247203,-0.140694 0.436239,-0.334498 0.567106,-0.571954 v -0.843385 h -1.395946 m -3.751609,0.668855 0.499236,-1.240844 0.494398,1.240844 z m 0.416827,-2.127844 -1.318383,3.03908 h 0.513793 l 0.213259,-0.499216 h 1.342616 l 0.213295,0.499216 h 0.518631 l -1.318401,-3.03908"
     id="path945-7"
     style="stroke-width:0.175867" />
</svg>
