<?xml version="1.0" encoding="UTF-8" standalone="no"?>
<svg
   xmlns:dc="http://purl.org/dc/elements/1.1/"
   xmlns:cc="http://creativecommons.org/ns#"
   xmlns:rdf="http://www.w3.org/1999/02/22-rdf-syntax-ns#"
   xmlns:svg="http://www.w3.org/2000/svg"
   xmlns="http://www.w3.org/2000/svg"
   xmlns:sodipodi="http://sodipodi.sourceforge.net/DTD/sodipodi-0.dtd"
   xmlns:inkscape="http://www.inkscape.org/namespaces/inkscape"
   width="200"
   height="41"
   version="1.1"
   viewBox="-1.3144 -1.3144 200 41"
   id="svg39"
   sodipodi:docname="chx-logo-d1.svg"
   inkscape:version="1.0.2 (e86c870879, 2021-01-15)">
  <metadata
     id="metadata43">
    <rdf:RDF>
      <cc:Work
         rdf:about="">
        <dc:format>image/svg+xml</dc:format>
        <dc:type
           rdf:resource="http://purl.org/dc/dcmitype/StillImage" />
      </cc:Work>
    </rdf:RDF>
  </metadata>
  <sodipodi:namedview
     pagecolor="#ffffff"
     bordercolor="#666666"
     borderopacity="1"
     objecttolerance="10"
     gridtolerance="10"
     guidetolerance="10"
     inkscape:pageopacity="0"
     inkscape:pageshadow="2"
     inkscape:window-width="1920"
     inkscape:window-height="1016"
     id="namedview41"
     showgrid="false"
     inkscape:zoom="6.525"
     inkscape:cx="100"
     inkscape:cy="20.5"
     inkscape:window-x="0"
     inkscape:window-y="0"
     inkscape:window-maximized="1"
     inkscape:current-layer="svg39"
     inkscape:document-rotation="0" />
  <defs
     id="defs5">
    <clipPath
       id="a">
      <path
         d="m0 0h442.91v201.86h-442.91z"
         fill="#fff"
         id="path2" />
    </clipPath>
  </defs>
  <title
     id="title7">ODDO BHF</title>
  <g
     transform="matrix(.17257 0 0 .17257 2.7129 2.1321)"
     clip-path="url(#a)"
     fill="#852e3f"
     id="g37">
    <path
       d="m31.83 70.93h12.73v29.04h17.28v-29.04h12.73v29.04h17.28v-29.04h12.73v29.04h13.67v-41.77h-100.09v41.77h13.67zm-21.83-12.73h-10v41.79h10zm0 68.2h-10v52.74h10zm0-18.19h-10v10h10zm11.83 79.12h-21.83v10h21.83zm-11.83-155.95-7.28-7.28-0.9 0.91v25h8.18zm108.22 18.63v-10h-26.37v-24.1l-0.9-0.9-6.83 6.83-11.38-11.39v-5.91l-4.53-4.54-4.53 4.54v5.91l-11.39 11.39-6.82-6.83-0.91 0.9v24.1h-26.37v10zm18.19 8.19h-10v41.79h10zm0 68.2h-10v52.74h10zm-18.16-18.19h-100.09v10h100.09zm18.16 0h-10v10h10zm0.01 79.12h-21.83v10h21.83zm-1.83-162.32-0.9-0.91-7.28 7.28v18.63h8.18zm-16.37 101.39h-100.03v52.74h10l22.87-12.73h7.18v-30.01h19.92v30.01h7.18l22.87 12.72h10v-52.73zm-73.66 35.56h-12.73v-25.56h12.73zm60.02 0h-12.73v-25.56h12.73z"
       id="path31" />
    <path
       d="m52.6 174.6-22.59 12.73v14.53h76.39v-14.53l-22.59-12.73zm121.38-115.86c-3.23-3.14-4.82-7.17-4.82-12.08s1.64-9.03 4.91-12.21c3.32-3.23 7.3-4.82 11.99-4.82 5.89 0 11.2 2.74 14.07 6.86l-4.12 3.94c-2.66-3.32-5.89-4.96-9.69-4.96-3.05 0-5.66 1.06-7.79 3.19-2.08 2.12-3.14 4.78-3.14 8.01s1.02 5.75 3.1 7.83 4.69 3.1 7.79 3.1c4.03 0 7.3-1.64 9.87-4.96l4.2 3.81c-3.05 4.12-8.36 6.95-14.38 6.95-4.74 0-8.76-1.55-11.99-4.65zm30.22 4.16v-33.64h5.62v12.7c1.37-2.17 4.2-3.72 7.61-3.72 2.61 0 4.78 0.88 6.59 2.61s2.74 4.16 2.74 7.39v14.65h-5.75v-13.1c0-4.03-2.08-6.28-5.27-6.28-3.41 0-5.8 2.61-5.8 6.37v13.01h-5.75zm46.6-24.03h5.49v24.03h-5.49v-2.96c-2.08 2.35-4.69 3.54-7.83 3.54-3.45 0-6.28-1.19-8.54-3.63s-3.36-5.49-3.36-9.07 1.11-6.59 3.36-8.94c2.26-2.35 5.13-3.54 8.54-3.54 3.05 0 5.66 1.19 7.83 3.63zm-1.86 6.81c-1.33-1.42-3.01-2.12-5.09-2.12s-3.76 0.71-5.09 2.12c-1.28 1.42-1.95 3.14-1.95 5.18s0.66 3.81 1.95 5.22c1.33 1.42 3.01 2.12 5.09 2.12s3.76-0.71 5.09-2.12c1.33-1.42 1.99-3.14 1.99-5.22s-0.66-3.76-1.99-5.18zm48.99-4.73c1.81 1.81 2.74 4.29 2.74 7.48v14.47h-5.8v-13.41c0-3.89-1.99-5.97-5-5.97-3.23 0-5.53 2.43-5.53 6.15v13.23h-5.75v-13.36c0-3.76-2.04-6.02-5.09-6.02-3.23 0-5.58 2.43-5.58 6.2v13.19h-5.75v-24.03h5.66v3.45c1.37-2.52 4.16-4.12 7.3-4.12 3.14 0.04 5.89 1.5 7.17 4.29 1.73-2.7 4.96-4.29 8.63-4.29 2.88 0 5.18 0.93 6.99 2.74zm30.23 0.97c2.3 2.43 3.45 5.4 3.45 8.98s-1.15 6.55-3.45 8.98c-2.26 2.39-5.13 3.58-8.54 3.58-3.1 0-5.66-1.24-7.7-3.76v3.19h-5.66v-33.63h5.75v12.7c2.04-2.43 4.6-3.67 7.66-3.67 3.41 0 6.24 1.19 8.5 3.63zm-4.38 3.81c-1.28-1.42-2.92-2.12-5-2.12s-3.76 0.71-5.04 2.12c-1.28 1.37-1.95 3.1-1.95 5.13s0.66 3.81 1.95 5.22c1.28 1.37 2.96 2.08 5.04 2.08s3.72-0.71 5-2.08c1.28-1.42 1.95-3.14 1.95-5.22s-0.66-3.76-1.95-5.13zm12.39 17.17v-24.03h5.53v3.32c1.46-2.61 3.72-3.94 6.68-3.94 1.02 0 1.99 0.18 2.88 0.49l-0.49 5.53c-0.97-0.31-1.9-0.49-2.79-0.49-3.58 0-6.06 2.39-6.06 7.39v11.73zm40.31-9.96h-18.32c0.75 3.32 3.23 5.53 7.35 5.53 2.92 0 5.58-0.84 7.92-2.48l2.3 4.12c-2.96 2.21-6.46 3.32-10.44 3.32-9.03 0-13.01-6.19-13.01-12.57 0-3.63 1.15-6.64 3.45-8.98 2.34-2.39 5.35-3.58 9.03-3.58s6.33 1.11 8.54 3.27c2.26 2.17 3.36 5.09 3.36 8.81 0 0.66-0.04 1.5-0.18 2.57zm-18.32-4.38h12.83c-0.49-3.36-2.92-5.44-6.24-5.44s-5.84 2.08-6.59 5.44zm-169.54 29.7h5.75v33.63h-5.62v-3.14c-1.99 2.48-4.56 3.72-7.66 3.72-3.41 0-6.28-1.19-8.54-3.58-2.26-2.43-3.41-5.44-3.41-9.03s1.15-6.5 3.41-8.94c2.3-2.43 5.13-3.63 8.5-3.63 3.05 0 5.58 1.19 7.57 3.63zm-1.64 26.82c1.28-1.42 1.95-3.14 1.95-5.22s-0.66-3.76-1.99-5.18c-1.28-1.42-2.96-2.12-5.04-2.12s-3.76 0.71-5.04 2.12-1.95 3.14-1.95 5.18 0.66 3.81 1.95 5.22 2.96 2.12 5.04 2.12 3.8-0.71 5.09-2.12zm36.21-3.14h-18.32c0.75 3.32 3.23 5.53 7.35 5.53 2.92 0 5.58-0.84 7.92-2.48l2.3 4.12c-2.96 2.21-6.46 3.32-10.44 3.32-9.03 0-13.01-6.2-13.01-12.57 0-3.63 1.15-6.64 3.45-8.98 2.35-2.39 5.35-3.58 9.03-3.58s6.33 1.11 8.54 3.27c2.26 2.17 3.36 5.09 3.36 8.81 0 0.66-0.04 1.5-0.18 2.57zm-18.32-4.38h12.83c-0.49-3.36-2.92-5.44-6.24-5.44s-5.84 2.08-6.59 5.44zm20.93 10.18 3.27-3.54c1.59 2.12 4.12 3.41 6.46 3.41 2.08 0 3.54-1.11 3.54-2.52 0-0.93-0.62-1.73-1.81-2.3-0.4-0.22-1.37-0.62-2.92-1.2-1.5-0.58-2.52-1.02-3.05-1.28-2.7-1.33-4.03-3.36-4.03-6.11 0-2.08 0.8-3.81 2.39-5.13 1.59-1.33 3.72-1.99 6.33-1.99 3.41 0 6.15 1.19 8.23 3.54l-3.01 3.67c-1.55-1.64-3.36-2.48-5.4-2.48-1.81 0-2.92 0.97-2.92 2.26 0 1.06 0.71 1.86 2.08 2.35 3.45 1.37 5.4 2.17 5.8 2.39 2.7 1.46 4.07 3.5 4.07 6.11 0 2.17-0.84 3.98-2.57 5.44s-3.98 2.17-6.77 2.17c-3.89 0-7.43-1.64-9.69-4.78zm35.23 4.15v-32.7h12.61c4.82 0 8.63 1.46 11.42 4.43 2.79 2.92 4.16 6.9 4.16 11.99s-1.42 8.98-4.25 11.9c-2.79 2.92-6.68 4.38-11.59 4.38zm6.02-5.8h6.55c2.96 0 5.22-1.02 6.86-3.01s2.48-4.56 2.48-7.61-0.8-5.49-2.43-7.48c-1.64-1.99-3.89-3.01-6.86-3.01h-6.59v21.11zm50-4.15h-18.32c0.75 3.32 3.23 5.53 7.35 5.53 2.92 0 5.58-0.84 7.92-2.48l2.3 4.12c-2.96 2.21-6.46 3.32-10.44 3.32-9.03 0-13.01-6.2-13.01-12.57 0-3.63 1.15-6.64 3.45-8.98 2.35-2.39 5.35-3.58 9.03-3.58s6.33 1.11 8.54 3.27c2.26 2.17 3.36 5.09 3.36 8.81 0 0.66-0.04 1.5-0.18 2.57zm-18.32-4.38h12.83c-0.49-3.36-2.92-5.44-6.24-5.44s-5.84 2.08-6.59 5.44zm13.01-21.02-4.12 7.7h-5.13l2.74-7.7zm32.04 14.42c2.26 2.43 3.36 5.4 3.36 8.89s-1.15 6.55-3.41 8.98-5.09 3.63-8.5 3.63c-3.05 0-5.66-1.19-7.74-3.58v12.88h-5.8v-33.9h5.75v3.19c2.08-2.52 4.69-3.76 7.83-3.76 3.41 0 6.24 1.24 8.5 3.67zm-14.47 14.16c1.28 1.37 2.96 2.08 5.04 2.08s3.76-0.71 5.04-2.08c1.28-1.42 1.95-3.14 1.95-5.22s-0.66-3.81-1.95-5.18c-1.28-1.42-2.96-2.12-5.04-2.12s-3.76 0.71-5.04 2.12-1.95 3.14-1.95 5.18 0.66 3.81 1.95 5.22zm22.08-3.27v-13.98h5.8v13.98c0 3.23 1.9 5.35 5.04 5.35s5.09-2.12 5.09-5.35v-13.98h5.8v13.98c0 6.68-4.12 10.62-10.89 10.62s-10.84-3.94-10.84-10.62zm44.26 8.63c-1.9 1.33-4.25 1.99-6.95 1.99-5.44 0-8.23-3.23-8.23-9.38v-10.35h-3.98v-4.87h4.07v-8.5h5.71v8.5h8.05v4.87h-8.05v10.13c0 2.88 1.15 4.34 3.5 4.34 1.33 0 2.7-0.4 4.07-1.24zm25.62-8.54h-18.32c0.75 3.32 3.23 5.53 7.35 5.53 2.92 0 5.58-0.84 7.92-2.48l2.3 4.12c-2.96 2.21-6.46 3.32-10.44 3.32-9.03 0-13.01-6.2-13.01-12.57 0-3.63 1.15-6.64 3.45-8.98 2.35-2.39 5.35-3.58 9.03-3.58s6.33 1.11 8.54 3.27c2.26 2.17 3.36 5.09 3.36 8.81 0 0.66-0.04 1.5-0.18 2.57zm-18.32-4.38h12.83c-0.49-3.36-2.92-5.44-6.24-5.44s-5.84 2.08-6.59 5.44zm13.01-21.02-4.12 7.7h-5.13l2.74-7.7zm7.93 31.2 3.27-3.54c1.59 2.12 4.12 3.41 6.46 3.41 2.08 0 3.54-1.11 3.54-2.52 0-0.93-0.62-1.73-1.81-2.3-0.4-0.22-1.37-0.62-2.92-1.2-1.5-0.58-2.52-1.02-3.05-1.28-2.7-1.33-4.03-3.36-4.03-6.11 0-2.08 0.8-3.81 2.39-5.13 1.59-1.33 3.72-1.99 6.33-1.99 3.41 0 6.15 1.19 8.23 3.54l-3.01 3.67c-1.55-1.64-3.36-2.48-5.4-2.48-1.81 0-2.92 0.97-2.92 2.26 0 1.06 0.71 1.86 2.08 2.35 3.45 1.37 5.4 2.17 5.8 2.39 2.7 1.46 4.07 3.5 4.07 6.11 0 2.17-0.84 3.98-2.57 5.44s-3.98 2.17-6.77 2.17c-3.89 0-7.43-1.64-9.69-4.78zm-251.74 47.61c-2.1-2.1-3.15-4.75-3.15-7.96s1.11-5.92 3.29-8.02c2.19-2.1 4.9-3.15 8.08-3.15 3.5 0 6.79 1.49 8.75 3.62l-2.65 2.8c-1.66-1.72-3.7-2.57-6.09-2.57-2.07 0-3.82 0.7-5.22 2.07-1.37 1.37-2.07 3.12-2.07 5.22s0.67 3.79 2.04 5.19 3.12 2.1 5.19 2.1c2.3 0 4.61-0.99 6.04-2.48v-3.27h-6.24v-3.5h9.91v8.72c-2.74 2.89-6.01 4.34-9.83 4.34-3.24 0-5.92-1.05-8.05-3.12zm33.19 2.79-4.81-8.08h-2.65v8.08h-3.97v-21.55h8.02c2.33 0 4.11 0.64 5.37 1.95 1.25 1.31 1.87 2.89 1.87 4.78 0 2.8-1.52 5.31-4.52 6.27l5.42 8.54h-4.72zm-7.46-17.85v6.18h3.62c2.42 0 3.59-1.37 3.59-3.12s-1.17-3.06-3.15-3.06zm28.65 17.85-1.78-4.9h-7.64l-1.78 4.9h-4.23l8.34-21.55h3.06l8.25 21.55h-4.23zm-5.57-15.86-2.68 7.38h5.34l-2.65-7.38zm26.72-5.68h3.94v21.55h-2.6l-11.58-13.71v13.71h-3.94v-21.55h2.39l11.78 13.82v-13.82zm8.89 21.54v-21.55h8.31c3.18 0 5.69 0.96 7.52 2.92 1.84 1.92 2.74 4.55 2.74 7.9s-0.93 5.92-2.8 7.84c-1.84 1.92-4.4 2.89-7.64 2.89h-8.14zm3.97-3.82h4.32c1.95 0 3.44-0.67 4.52-1.98s1.63-3 1.63-5.02-0.52-3.62-1.6-4.93-2.57-1.98-4.52-1.98h-4.34v13.91zm17.69-2.47v-3.56h11.81v3.56zm16.1 6.29v-21.55h8.31c3.18 0 5.69 0.96 7.52 2.92 1.84 1.92 2.74 4.55 2.74 7.9s-0.93 5.92-2.8 7.84c-1.84 1.92-4.4 2.89-7.64 2.89h-8.14zm3.97-3.82h4.32c1.95 0 3.44-0.67 4.52-1.98s1.63-3 1.63-5.02-0.52-3.62-1.6-4.93-2.57-1.98-4.52-1.98h-4.34v13.91zm20.5 2.13c-1.55-1.4-2.33-3.41-2.33-6.04v-13.82h4v13.47c0 3 1.6 4.58 4.26 4.58s4.26-1.63 4.26-4.58v-13.47h4.02v13.82c0 2.62-0.79 4.64-2.33 6.04-1.55 1.37-3.53 2.07-5.95 2.07s-4.37-0.7-5.92-2.07zm20.82-1.05c-2.13-2.07-3.18-4.72-3.18-7.96s1.08-5.95 3.24-8.05c2.19-2.13 4.81-3.18 7.9-3.18 3.88 0 7.38 1.81 9.27 4.52l-2.71 2.59c-1.75-2.19-3.88-3.27-6.39-3.27-2.01 0-3.73 0.7-5.13 2.1-1.37 1.4-2.07 3.15-2.07 5.28s0.67 3.79 2.04 5.16 3.09 2.04 5.13 2.04c2.65 0 4.81-1.08 6.5-3.27l2.77 2.51c-2.01 2.71-5.51 4.58-9.48 4.58-3.12 0-5.77-1.02-7.9-3.06zm20.47 2.74v-21.55h4v8.72h9.45v-8.72h4v21.55h-4v-8.98h-9.45v8.98zm22.39 0v-21.55h14.32v3.73h-10.32v5.07h9.54v3.7h-9.54v5.31h10.32v3.73h-14.32zm5.19-23.15 1.87-5.22h4.4l-2.77 5.22zm-217.68 62.35v-21.55h8.31c3.18 0 5.69 0.96 7.52 2.92 1.84 1.92 2.74 4.55 2.74 7.9s-0.93 5.92-2.8 7.84c-1.84 1.92-4.4 2.89-7.64 2.89h-8.14zm3.97-3.82h4.32c1.95 0 3.44-0.67 4.52-1.98s1.63-3 1.63-5.02-0.52-3.62-1.6-4.93-2.57-1.98-4.52-1.98h-4.34v13.91zm18.4 3.82v-21.55h14.32v3.73h-10.32v5.07h9.54v3.7h-9.54v5.31h10.32v3.73h-14.32zm25.57 0v-21.55h4v17.73h11.08v3.82zm19.63-1.69c-1.55-1.4-2.33-3.41-2.33-6.04v-13.82h4v13.47c0 3 1.6 4.58 4.26 4.58s4.26-1.63 4.26-4.58v-13.47h4.02v13.82c0 2.62-0.79 4.64-2.33 6.04-1.55 1.37-3.53 2.07-5.95 2.07s-4.37-0.7-5.92-2.07zm16.5 1.69 6.97-10.91-6.53-10.64h4.61l4.43 7.64 4.61-7.64h4.7l-6.85 10.64 6.85 10.91h-4.64l-4.69-7.79-4.72 7.79zm21.55 0v-21.55h14.32v3.73h-10.32v5.07h9.54v3.7h-9.54v5.31h10.32v3.73h-14.32zm18.37 0v-21.55h2.51l8.63 12.57 8.6-12.57h2.54v21.55h-3.97v-12.77l-6.53 9.45h-1.31l-6.53-9.45v12.77zm43.62-6.26c0 1.75-0.61 3.24-1.84 4.46-1.22 1.2-2.89 1.81-4.96 1.81h-9.59v-21.55h9.16c1.92 0 3.41 0.52 4.49 1.6s1.6 2.33 1.6 3.76c0 1.95-1.17 3.76-2.94 4.37 2.65 0.7 4.08 2.95 4.08 5.54zm-12.45-11.75v4.99h4.43c1.87 0 2.89-1.17 2.89-2.57 0-1.31-1.02-2.42-2.74-2.42zm4.9 14.46c2.19 0 3.44-1.4 3.44-3 0-1.72-1.22-3.09-3.44-3.09h-4.9v6.09zm13.15-15.11c2.19-2.19 4.84-3.27 7.96-3.27s5.77 1.08 7.93 3.27c2.19 2.19 3.27 4.81 3.27 7.9s-1.08 5.71-3.27 7.87c-2.16 2.16-4.81 3.24-7.99 3.24s-5.83-1.05-7.96-3.18-3.18-4.75-3.18-7.87 1.08-5.77 3.24-7.96zm12.95 2.74c-1.37-1.37-3.03-2.07-4.99-2.07s-3.64 0.7-5.02 2.07-2.04 3.09-2.04 5.16 0.67 3.79 2.01 5.16c1.37 1.37 3.03 2.04 5.04 2.04s3.67-0.67 5.04-2.04 2.04-3.09 2.01-5.16c0-2.07-0.7-3.79-2.07-5.16zm11.98 14.23c-1.55-1.4-2.33-3.41-2.33-6.04v-13.82h4v13.47c0 3 1.6 4.58 4.26 4.58s4.26-1.63 4.26-4.58v-13.47h4.02v13.82c0 2.62-0.79 4.64-2.33 6.04-1.55 1.37-3.53 2.07-5.95 2.07s-4.37-0.7-5.92-2.07zm30.33 1.69-4.81-8.08h-2.65v8.08h-3.97v-21.55h8.02c2.33 0 4.11 0.64 5.37 1.95 1.25 1.31 1.87 2.89 1.87 4.78 0 2.8-1.52 5.31-4.52 6.27l5.42 8.54h-4.72zm-7.46-17.85v6.18h3.62c2.42 0 3.59-1.37 3.59-3.12s-1.17-3.06-3.15-3.06zm17.14 15.05c-2.1-2.1-3.15-4.75-3.15-7.96s1.11-5.92 3.29-8.02c2.19-2.1 4.9-3.15 8.08-3.15 3.5 0 6.79 1.49 8.75 3.62l-2.65 2.8c-1.66-1.72-3.7-2.57-6.09-2.57-2.07 0-3.82 0.7-5.22 2.07-1.37 1.37-2.07 3.12-2.07 5.22s0.67 3.79 2.04 5.19 3.12 2.1 5.19 2.1c2.3 0 4.61-0.99 6.04-2.48v-3.27h-6.24v-3.5h9.91v8.72c-2.74 2.89-6.01 4.34-9.83 4.34-3.24 0-5.92-1.05-8.05-3.12z"
       id="path33" />
    <path
       d="m52.6 174.6-22.59 12.73v14.53h76.39v-14.53l-22.59-12.73zm121.38-115.86c-3.23-3.14-4.82-7.17-4.82-12.08s1.64-9.03 4.91-12.21c3.32-3.23 7.3-4.82 11.99-4.82 5.89 0 11.2 2.74 14.07 6.86l-4.12 3.94c-2.66-3.32-5.89-4.96-9.69-4.96-3.05 0-5.66 1.06-7.79 3.19-2.08 2.12-3.14 4.78-3.14 8.01s1.02 5.75 3.1 7.83 4.69 3.1 7.79 3.1c4.03 0 7.3-1.64 9.87-4.96l4.2 3.81c-3.05 4.12-8.36 6.95-14.38 6.95-4.74 0-8.76-1.55-11.99-4.65zm30.22 4.16v-33.64h5.62v12.7c1.37-2.17 4.2-3.72 7.61-3.72 2.61 0 4.78 0.88 6.59 2.61s2.74 4.16 2.74 7.39v14.65h-5.75v-13.1c0-4.03-2.08-6.28-5.27-6.28-3.41 0-5.8 2.61-5.8 6.37v13.01h-5.75zm46.6-24.03h5.49v24.03h-5.49v-2.96c-2.08 2.35-4.69 3.54-7.83 3.54-3.45 0-6.28-1.19-8.54-3.63s-3.36-5.49-3.36-9.07 1.11-6.59 3.36-8.94c2.26-2.35 5.13-3.54 8.54-3.54 3.05 0 5.66 1.19 7.83 3.63zm-1.86 6.81c-1.33-1.42-3.01-2.12-5.09-2.12s-3.76 0.71-5.09 2.12c-1.28 1.42-1.95 3.14-1.95 5.18s0.66 3.81 1.95 5.22c1.33 1.42 3.01 2.12 5.09 2.12s3.76-0.71 5.09-2.12c1.33-1.42 1.99-3.14 1.99-5.22s-0.66-3.76-1.99-5.18zm48.99-4.73c1.81 1.81 2.74 4.29 2.74 7.48v14.47h-5.8v-13.41c0-3.89-1.99-5.97-5-5.97-3.23 0-5.53 2.43-5.53 6.15v13.23h-5.75v-13.36c0-3.76-2.04-6.02-5.09-6.02-3.23 0-5.58 2.43-5.58 6.2v13.19h-5.75v-24.03h5.66v3.45c1.37-2.52 4.16-4.12 7.3-4.12 3.14 0.04 5.89 1.5 7.17 4.29 1.73-2.7 4.96-4.29 8.63-4.29 2.88 0 5.18 0.93 6.99 2.74zm30.23 0.97c2.3 2.43 3.45 5.4 3.45 8.98s-1.15 6.55-3.45 8.98c-2.26 2.39-5.13 3.58-8.54 3.58-3.1 0-5.66-1.24-7.7-3.76v3.19h-5.66v-33.63h5.75v12.7c2.04-2.43 4.6-3.67 7.66-3.67 3.41 0 6.24 1.19 8.5 3.63zm-4.38 3.81c-1.28-1.42-2.92-2.12-5-2.12s-3.76 0.71-5.04 2.12c-1.28 1.37-1.95 3.1-1.95 5.13s0.66 3.81 1.95 5.22c1.28 1.37 2.96 2.08 5.04 2.08s3.72-0.71 5-2.08c1.28-1.42 1.95-3.14 1.95-5.22s-0.66-3.76-1.95-5.13zm12.39 17.17v-24.03h5.53v3.32c1.46-2.61 3.72-3.94 6.68-3.94 1.02 0 1.99 0.18 2.88 0.49l-0.49 5.53c-0.97-0.31-1.9-0.49-2.79-0.49-3.58 0-6.06 2.39-6.06 7.39v11.73zm40.31-9.96h-18.32c0.75 3.32 3.23 5.53 7.35 5.53 2.92 0 5.58-0.84 7.92-2.48l2.3 4.12c-2.96 2.21-6.46 3.32-10.44 3.32-9.03 0-13.01-6.19-13.01-12.57 0-3.63 1.15-6.64 3.45-8.98 2.34-2.39 5.35-3.58 9.03-3.58s6.33 1.11 8.54 3.27c2.26 2.17 3.36 5.09 3.36 8.81 0 0.66-0.04 1.5-0.18 2.57zm-18.32-4.38h12.83c-0.49-3.36-2.92-5.44-6.24-5.44s-5.84 2.08-6.59 5.44zm-169.54 29.7h5.75v33.63h-5.62v-3.14c-1.99 2.48-4.56 3.72-7.66 3.72-3.41 0-6.28-1.19-8.54-3.58-2.26-2.43-3.41-5.44-3.41-9.03s1.15-6.5 3.41-8.94c2.3-2.43 5.13-3.63 8.5-3.63 3.05 0 5.58 1.19 7.57 3.63zm-1.64 26.82c1.28-1.42 1.95-3.14 1.95-5.22s-0.66-3.76-1.99-5.18c-1.28-1.42-2.96-2.12-5.04-2.12s-3.76 0.71-5.04 2.12-1.95 3.14-1.95 5.18 0.66 3.81 1.95 5.22 2.96 2.12 5.04 2.12 3.8-0.71 5.09-2.12zm36.21-3.14h-18.32c0.75 3.32 3.23 5.53 7.35 5.53 2.92 0 5.58-0.84 7.92-2.48l2.3 4.12c-2.96 2.21-6.46 3.32-10.44 3.32-9.03 0-13.01-6.2-13.01-12.57 0-3.63 1.15-6.64 3.45-8.98 2.35-2.39 5.35-3.58 9.03-3.58s6.33 1.11 8.54 3.27c2.26 2.17 3.36 5.09 3.36 8.81 0 0.66-0.04 1.5-0.18 2.57zm-18.32-4.38h12.83c-0.49-3.36-2.92-5.44-6.24-5.44s-5.84 2.08-6.59 5.44zm20.93 10.18 3.27-3.54c1.59 2.12 4.12 3.41 6.46 3.41 2.08 0 3.54-1.11 3.54-2.52 0-0.93-0.62-1.73-1.81-2.3-0.4-0.22-1.37-0.62-2.92-1.2-1.5-0.58-2.52-1.02-3.05-1.28-2.7-1.33-4.03-3.36-4.03-6.11 0-2.08 0.8-3.81 2.39-5.13 1.59-1.33 3.72-1.99 6.33-1.99 3.41 0 6.15 1.19 8.23 3.54l-3.01 3.67c-1.55-1.64-3.36-2.48-5.4-2.48-1.81 0-2.92 0.97-2.92 2.26 0 1.06 0.71 1.86 2.08 2.35 3.45 1.37 5.4 2.17 5.8 2.39 2.7 1.46 4.07 3.5 4.07 6.11 0 2.17-0.84 3.98-2.57 5.44s-3.98 2.17-6.77 2.17c-3.89 0-7.43-1.64-9.69-4.78zm35.23 4.15v-32.7h12.61c4.82 0 8.63 1.46 11.42 4.43 2.79 2.92 4.16 6.9 4.16 11.99s-1.42 8.98-4.25 11.9c-2.79 2.92-6.68 4.38-11.59 4.38zm6.02-5.8h6.55c2.96 0 5.22-1.02 6.86-3.01s2.48-4.56 2.48-7.61-0.8-5.49-2.43-7.48c-1.64-1.99-3.89-3.01-6.86-3.01h-6.59v21.11zm50-4.15h-18.32c0.75 3.32 3.23 5.53 7.35 5.53 2.92 0 5.58-0.84 7.92-2.48l2.3 4.12c-2.96 2.21-6.46 3.32-10.44 3.32-9.03 0-13.01-6.2-13.01-12.57 0-3.63 1.15-6.64 3.45-8.98 2.35-2.39 5.35-3.58 9.03-3.58s6.33 1.11 8.54 3.27c2.26 2.17 3.36 5.09 3.36 8.81 0 0.66-0.04 1.5-0.18 2.57zm-18.32-4.38h12.83c-0.49-3.36-2.92-5.44-6.24-5.44s-5.84 2.08-6.59 5.44zm13.01-21.02-4.12 7.7h-5.13l2.74-7.7zm32.04 14.42c2.26 2.43 3.36 5.4 3.36 8.89s-1.15 6.55-3.41 8.98-5.09 3.63-8.5 3.63c-3.05 0-5.66-1.19-7.74-3.58v12.88h-5.8v-33.9h5.75v3.19c2.08-2.52 4.69-3.76 7.83-3.76 3.41 0 6.24 1.24 8.5 3.67zm-14.47 14.16c1.28 1.37 2.96 2.08 5.04 2.08s3.76-0.71 5.04-2.08c1.28-1.42 1.95-3.14 1.95-5.22s-0.66-3.81-1.95-5.18c-1.28-1.42-2.96-2.12-5.04-2.12s-3.76 0.71-5.04 2.12-1.95 3.14-1.95 5.18 0.66 3.81 1.95 5.22zm22.08-3.27v-13.98h5.8v13.98c0 3.23 1.9 5.35 5.04 5.35s5.09-2.12 5.09-5.35v-13.98h5.8v13.98c0 6.68-4.12 10.62-10.89 10.62s-10.84-3.94-10.84-10.62zm44.26 8.63c-1.9 1.33-4.25 1.99-6.95 1.99-5.44 0-8.23-3.23-8.23-9.38v-10.35h-3.98v-4.87h4.07v-8.5h5.71v8.5h8.05v4.87h-8.05v10.13c0 2.88 1.15 4.34 3.5 4.34 1.33 0 2.7-0.4 4.07-1.24zm25.62-8.54h-18.32c0.75 3.32 3.23 5.53 7.35 5.53 2.92 0 5.58-0.84 7.92-2.48l2.3 4.12c-2.96 2.21-6.46 3.32-10.44 3.32-9.03 0-13.01-6.2-13.01-12.57 0-3.63 1.15-6.64 3.45-8.98 2.35-2.39 5.35-3.58 9.03-3.58s6.33 1.11 8.54 3.27c2.26 2.17 3.36 5.09 3.36 8.81 0 0.66-0.04 1.5-0.18 2.57zm-18.32-4.38h12.83c-0.49-3.36-2.92-5.44-6.24-5.44s-5.84 2.08-6.59 5.44zm13.01-21.02-4.12 7.7h-5.13l2.74-7.7zm7.93 31.2 3.27-3.54c1.59 2.12 4.12 3.41 6.46 3.41 2.08 0 3.54-1.11 3.54-2.52 0-0.93-0.62-1.73-1.81-2.3-0.4-0.22-1.37-0.62-2.92-1.2-1.5-0.58-2.52-1.02-3.05-1.28-2.7-1.33-4.03-3.36-4.03-6.11 0-2.08 0.8-3.81 2.39-5.13 1.59-1.33 3.72-1.99 6.33-1.99 3.41 0 6.15 1.19 8.23 3.54l-3.01 3.67c-1.55-1.64-3.36-2.48-5.4-2.48-1.81 0-2.92 0.97-2.92 2.26 0 1.06 0.71 1.86 2.08 2.35 3.45 1.37 5.4 2.17 5.8 2.39 2.7 1.46 4.07 3.5 4.07 6.11 0 2.17-0.84 3.98-2.57 5.44s-3.98 2.17-6.77 2.17c-3.89 0-7.43-1.64-9.69-4.78zm-251.74 47.61c-2.1-2.1-3.15-4.75-3.15-7.96s1.11-5.92 3.29-8.02c2.19-2.1 4.9-3.15 8.08-3.15 3.5 0 6.79 1.49 8.75 3.62l-2.65 2.8c-1.66-1.72-3.7-2.57-6.09-2.57-2.07 0-3.82 0.7-5.22 2.07-1.37 1.37-2.07 3.12-2.07 5.22s0.67 3.79 2.04 5.19 3.12 2.1 5.19 2.1c2.3 0 4.61-0.99 6.04-2.48v-3.27h-6.24v-3.5h9.91v8.72c-2.74 2.89-6.01 4.34-9.83 4.34-3.24 0-5.92-1.05-8.05-3.12zm33.19 2.79-4.81-8.08h-2.65v8.08h-3.97v-21.55h8.02c2.33 0 4.11 0.64 5.37 1.95 1.25 1.31 1.87 2.89 1.87 4.78 0 2.8-1.52 5.31-4.52 6.27l5.42 8.54h-4.72zm-7.46-17.85v6.18h3.62c2.42 0 3.59-1.37 3.59-3.12s-1.17-3.06-3.15-3.06zm28.65 17.85-1.78-4.9h-7.64l-1.78 4.9h-4.23l8.34-21.55h3.06l8.25 21.55h-4.23zm-5.57-15.86-2.68 7.38h5.34l-2.65-7.38zm26.72-5.68h3.94v21.55h-2.6l-11.58-13.71v13.71h-3.94v-21.55h2.39l11.78 13.82v-13.82zm8.89 21.54v-21.55h8.31c3.18 0 5.69 0.96 7.52 2.92 1.84 1.92 2.74 4.55 2.74 7.9s-0.93 5.92-2.8 7.84c-1.84 1.92-4.4 2.89-7.64 2.89h-8.14zm3.97-3.82h4.32c1.95 0 3.44-0.67 4.52-1.98s1.63-3 1.63-5.02-0.52-3.62-1.6-4.93-2.57-1.98-4.52-1.98h-4.34v13.91zm17.69-2.47v-3.56h11.81v3.56zm16.1 6.29v-21.55h8.31c3.18 0 5.69 0.96 7.52 2.92 1.84 1.92 2.74 4.55 2.74 7.9s-0.93 5.92-2.8 7.84c-1.84 1.92-4.4 2.89-7.64 2.89h-8.14zm3.97-3.82h4.32c1.95 0 3.44-0.67 4.52-1.98s1.63-3 1.63-5.02-0.52-3.62-1.6-4.93-2.57-1.98-4.52-1.98h-4.34v13.91zm20.5 2.13c-1.55-1.4-2.33-3.41-2.33-6.04v-13.82h4v13.47c0 3 1.6 4.58 4.26 4.58s4.26-1.63 4.26-4.58v-13.47h4.02v13.82c0 2.62-0.79 4.64-2.33 6.04-1.55 1.37-3.53 2.07-5.95 2.07s-4.37-0.7-5.92-2.07zm20.82-1.05c-2.13-2.07-3.18-4.72-3.18-7.96s1.08-5.95 3.24-8.05c2.19-2.13 4.81-3.18 7.9-3.18 3.88 0 7.38 1.81 9.27 4.52l-2.71 2.59c-1.75-2.19-3.88-3.27-6.39-3.27-2.01 0-3.73 0.7-5.13 2.1-1.37 1.4-2.07 3.15-2.07 5.28s0.67 3.79 2.04 5.16 3.09 2.04 5.13 2.04c2.65 0 4.81-1.08 6.5-3.27l2.77 2.51c-2.01 2.71-5.51 4.58-9.48 4.58-3.12 0-5.77-1.02-7.9-3.06zm20.47 2.74v-21.55h4v8.72h9.45v-8.72h4v21.55h-4v-8.98h-9.45v8.98zm22.39 0v-21.55h14.32v3.73h-10.32v5.07h9.54v3.7h-9.54v5.31h10.32v3.73h-14.32zm5.19-23.15 1.87-5.22h4.4l-2.77 5.22zm-217.68 62.35v-21.55h8.31c3.18 0 5.69 0.96 7.52 2.92 1.84 1.92 2.74 4.55 2.74 7.9s-0.93 5.92-2.8 7.84c-1.84 1.92-4.4 2.89-7.64 2.89h-8.14zm3.97-3.82h4.32c1.95 0 3.44-0.67 4.52-1.98s1.63-3 1.63-5.02-0.52-3.62-1.6-4.93-2.57-1.98-4.52-1.98h-4.34v13.91zm18.4 3.82v-21.55h14.32v3.73h-10.32v5.07h9.54v3.7h-9.54v5.31h10.32v3.73h-14.32zm25.57 0v-21.55h4v17.73h11.08v3.82zm19.63-1.69c-1.55-1.4-2.33-3.41-2.33-6.04v-13.82h4v13.47c0 3 1.6 4.58 4.26 4.58s4.26-1.63 4.26-4.58v-13.47h4.02v13.82c0 2.62-0.79 4.64-2.33 6.04-1.55 1.37-3.53 2.07-5.95 2.07s-4.37-0.7-5.92-2.07zm16.5 1.69 6.97-10.91-6.53-10.64h4.61l4.43 7.64 4.61-7.64h4.7l-6.85 10.64 6.85 10.91h-4.64l-4.69-7.79-4.72 7.79zm21.55 0v-21.55h14.32v3.73h-10.32v5.07h9.54v3.7h-9.54v5.31h10.32v3.73h-14.32zm18.37 0v-21.55h2.51l8.63 12.57 8.6-12.57h2.54v21.55h-3.97v-12.77l-6.53 9.45h-1.31l-6.53-9.45v12.77zm43.62-6.26c0 1.75-0.61 3.24-1.84 4.46-1.22 1.2-2.89 1.81-4.96 1.81h-9.59v-21.55h9.16c1.92 0 3.41 0.52 4.49 1.6s1.6 2.33 1.6 3.76c0 1.95-1.17 3.76-2.94 4.37 2.65 0.7 4.08 2.95 4.08 5.54zm-12.45-11.75v4.99h4.43c1.87 0 2.89-1.17 2.89-2.57 0-1.31-1.02-2.42-2.74-2.42zm4.9 14.46c2.19 0 3.44-1.4 3.44-3 0-1.72-1.22-3.09-3.44-3.09h-4.9v6.09zm13.15-15.11c2.19-2.19 4.84-3.27 7.96-3.27s5.77 1.08 7.93 3.27c2.19 2.19 3.27 4.81 3.27 7.9s-1.08 5.71-3.27 7.87c-2.16 2.16-4.81 3.24-7.99 3.24s-5.83-1.05-7.96-3.18-3.18-4.75-3.18-7.87 1.08-5.77 3.24-7.96zm12.95 2.74c-1.37-1.37-3.03-2.07-4.99-2.07s-3.64 0.7-5.02 2.07-2.04 3.09-2.04 5.16 0.67 3.79 2.01 5.16c1.37 1.37 3.03 2.04 5.04 2.04s3.67-0.67 5.04-2.04 2.04-3.09 2.01-5.16c0-2.07-0.7-3.79-2.07-5.16zm11.98 14.23c-1.55-1.4-2.33-3.41-2.33-6.04v-13.82h4v13.47c0 3 1.6 4.58 4.26 4.58s4.26-1.63 4.26-4.58v-13.47h4.02v13.82c0 2.62-0.79 4.64-2.33 6.04-1.55 1.37-3.53 2.07-5.95 2.07s-4.37-0.7-5.92-2.07zm30.33 1.69-4.81-8.08h-2.65v8.08h-3.97v-21.55h8.02c2.33 0 4.11 0.64 5.37 1.95 1.25 1.31 1.87 2.89 1.87 4.78 0 2.8-1.52 5.31-4.52 6.27l5.42 8.54h-4.72zm-7.46-17.85v6.18h3.62c2.42 0 3.59-1.37 3.59-3.12s-1.17-3.06-3.15-3.06zm17.14 15.05c-2.1-2.1-3.15-4.75-3.15-7.96s1.11-5.92 3.29-8.02c2.19-2.1 4.9-3.15 8.08-3.15 3.5 0 6.79 1.49 8.75 3.62l-2.65 2.8c-1.66-1.72-3.7-2.57-6.09-2.57-2.07 0-3.82 0.7-5.22 2.07-1.37 1.37-2.07 3.12-2.07 5.22s0.67 3.79 2.04 5.19 3.12 2.1 5.19 2.1c2.3 0 4.61-0.99 6.04-2.48v-3.27h-6.24v-3.5h9.91v8.72c-2.74 2.89-6.01 4.34-9.83 4.34-3.24 0-5.92-1.05-8.05-3.12z"
       id="path35" />
  </g>
  <path
     d="m 109.29631,9.353998 v 1.732736 q -0.82982,-0.772828 -1.77345,-1.155212 -0.93557,-0.382351 -1.99311,-0.382351 -2.08261,0 -3.18895,1.277195 -1.10634,1.269036 -1.10634,3.677048 0,2.399853 1.10634,3.677048 1.10634,1.269037 3.18895,1.269037 1.05754,0 1.99311,-0.382351 0.94363,-0.382351 1.77345,-1.155213 v 1.7165 q -0.86229,0.585724 -1.83041,0.878607 -0.95995,0.292858 -2.03374,0.292858 -2.7578,0 -4.34408,-1.683943 -1.586353,-1.692103 -1.586353,-4.612609 0,-2.928583 1.586353,-4.612608 1.58636,-1.692104 4.34408,-1.692104 1.0901,0 2.05006,0.292859 0.96804,0.284723 1.81409,0.862288 z"
     id="path9-3"
     style="font-variant-ligatures:normal;font-variant-caps:normal;font-variant-numeric:normal;font-feature-settings:normal;white-space:pre;inline-size:114.026;fill:#1eb110;fill-opacity:1;stroke-width:0.82421" />
  <path
     d="m 111.98323,7.905861 h 1.49685 v 12.658217 h -1.49685 z"
     id="path11-6"
     style="font-variant-ligatures:normal;font-variant-caps:normal;font-variant-numeric:normal;font-feature-settings:normal;white-space:pre;inline-size:114.026;fill:#1eb110;fill-opacity:1;stroke-width:0.82421" />
  <path
     d="m 116.64002,16.968874 v -5.515531 h 1.49685 v 5.458578 q 0,1.293433 0.50437,1.944311 0.50437,0.64267 1.51309,0.64267 1.21208,0 1.91175,-0.772829 0.70776,-0.772829 0.70776,-2.10701 v -5.165737 h 1.49685 v 9.111642 h -1.49685 v -1.399261 q -0.54505,0.829814 -1.26904,1.236562 -0.71588,0.39862 -1.6677,0.39862 -1.57004,0 -2.38354,-0.976194 -0.81349,-0.976194 -0.8135,-2.855393 z"
     id="path13-7"
     style="font-variant-ligatures:normal;font-variant-caps:normal;font-variant-numeric:normal;font-feature-settings:normal;white-space:pre;inline-size:114.026;fill:#1eb110;fill-opacity:1;stroke-width:0.82421" />
  <path
     d="m 133.37973,11.721129 v 1.415498 q -0.63454,-0.325398 -1.31791,-0.488105 -0.68335,-0.1627 -1.4155,-0.1627 -1.1145,0 -1.67579,0.341669 -0.55317,0.341668 -0.55317,1.024987 0,0.520645 0.39861,0.821639 0.39862,0.292858 1.60259,0.56132 l 0.51252,0.113889 q 1.59451,0.341668 2.26154,0.968034 0.67521,0.618265 0.67521,1.732737 0,1.269036 -1.00875,2.009342 -1.00059,0.740288 -2.7578,0.740288 -0.73216,0 -1.52941,-0.146429 -0.7891,-0.138294 -1.6677,-0.423025 v -1.545641 q 0.82981,0.43116 1.63515,0.650804 0.80537,0.211509 1.59443,0.211509 1.05754,0 1.62699,-0.357938 0.56946,-0.366081 0.56946,-1.024988 0,-0.610129 -0.41489,-0.93556 -0.40675,-0.325398 -1.79785,-0.6264 l -0.52064,-0.122024 q -1.3911,-0.292858 -2.00934,-0.894845 -0.61826,-0.61013 -0.61826,-1.667706 0,-1.285356 0.91108,-1.984945 0.91108,-0.69959 2.58695,-0.699615 0.82982,0 1.56196,0.122025 0.73216,0.122024 1.35039,0.366081 z"
     id="path15-5"
     style="font-variant-ligatures:normal;font-variant-caps:normal;font-variant-numeric:normal;font-feature-settings:normal;white-space:pre;inline-size:114.026;fill:#1eb110;fill-opacity:1;stroke-width:0.82421" />
  <path
     d="m 137.92937,8.866065 v 2.586948 h 3.0832 v 1.16329 h -3.0832 v 4.946084 q 0,1.114497 0.30099,1.431736 0.30914,0.317263 1.24464,0.317263 h 1.53748 v 1.252799 H 139.475 q -1.73274,0 -2.39169,-0.64267 -0.65893,-0.650804 -0.65893,-2.359136 v -4.946084 h -1.09826 v -1.16329 h 1.09826 V 8.866057 Z"
     id="path17-3"
     style="font-variant-ligatures:normal;font-variant-caps:normal;font-variant-numeric:normal;font-feature-settings:normal;white-space:pre;inline-size:114.026;fill:#1eb110;fill-opacity:1;stroke-width:0.82421" />
  <path
     d="m 150.98485,15.634478 v 0.732154 h -6.88223 q 0.0976,1.545641 0.9274,2.359136 0.83789,0.805369 2.32658,0.805369 0.86229,0 1.66771,-0.211509 0.8135,-0.211509 1.61075,-0.634535 v 1.415499 q -0.80537,0.341668 -1.65139,0.520645 -0.84605,0.178968 -1.7165,0.178968 -2.1802,0 -3.45739,-1.269035 -1.26904,-1.269037 -1.26904,-3.433 0,-2.237153 1.20401,-3.546905 1.21208,-1.317912 3.26214,-1.317912 1.83848,0 2.90418,1.187687 1.07387,1.179609 1.07387,3.213347 z m -1.49684,-0.439296 q -0.0162,-1.228402 -0.69148,-1.960548 -0.66708,-0.732154 -1.77346,-0.732154 -1.25279,0 -2.00934,0.707749 -0.74842,0.707749 -0.86229,1.993105 z"
     id="path19-5"
     style="font-variant-ligatures:normal;font-variant-caps:normal;font-variant-numeric:normal;font-feature-settings:normal;white-space:pre;inline-size:114.026;fill:#1eb110;fill-opacity:1;stroke-width:0.82421" />
  <path
     d="m 158.91375,12.851945 q -0.25218,-0.146429 -0.55318,-0.211509 -0.29286,-0.07322 -0.6508,-0.07322 -1.26904,0 -1.95239,0.829815 -0.67521,0.821639 -0.67521,2.367296 v 4.799705 h -1.50501 V 11.45239 h 1.50501 v 1.415498 q 0.47183,-0.829814 1.2284,-1.228402 0.75656,-0.406756 1.83848,-0.406756 0.15457,0 0.34167,0.0244 0.18711,0.01627 0.41489,0.05694 z"
     id="path21-6"
     style="font-variant-ligatures:normal;font-variant-caps:normal;font-variant-numeric:normal;font-feature-settings:normal;white-space:pre;inline-size:114.026;fill:#1eb110;fill-opacity:1;stroke-width:0.82421" />
  <path
     d="m 127.06628,26.429156 v 9.444622 h 1.98495 q 2.51375,0 3.67704,-1.138893 1.17145,-1.138894 1.17145,-3.595699 0,-2.440486 -1.17145,-3.571302 -1.16329,-1.138893 -3.67704,-1.138893 z m -1.64331,-1.350386 h 3.37605 q 3.53058,0 5.18205,1.472451 1.65139,1.464292 1.65139,4.58813 0,3.140158 -1.65955,4.612609 -1.65954,1.472451 -5.17389,1.472451 h -3.37605 z"
     id="path23-2"
     style="font-variant-ligatures:normal;font-variant-caps:normal;font-variant-numeric:normal;font-feature-settings:normal;white-space:pre;inline-size:114.026;fill:#1eb110;fill-opacity:1;stroke-width:0.82421" />
  <path
     d="m 138.44038,25.0791 h 7.67949 v 1.382942 h -6.03618 v 3.595698 h 5.78397 v 1.382942 h -5.78397 v 4.401034 h 6.18264 v 1.382942 h -7.82595 z"
     id="path25-9"
     style="font-variant-ligatures:normal;font-variant-caps:normal;font-variant-numeric:normal;font-feature-settings:normal;white-space:pre;inline-size:114.026;fill:#1eb110;fill-opacity:1;stroke-width:0.82421" />
  <path
     d="M 152.30359,37.224658 147.66658,25.0791 h 1.7165 l 3.84791,10.225973 3.85599,-10.225973 h 1.70834 l -4.62885,12.145558 z"
     id="path27-1"
     style="font-variant-ligatures:normal;font-variant-caps:normal;font-variant-numeric:normal;font-feature-settings:normal;white-space:pre;inline-size:114.026;fill:#1eb110;fill-opacity:1;stroke-width:0.82421" />
</svg>
