<?xml version="1.0" encoding="UTF-8" standalone="no"?>
<svg
   xmlns:dc="http://purl.org/dc/elements/1.1/"
   xmlns:cc="http://creativecommons.org/ns#"
   xmlns:rdf="http://www.w3.org/1999/02/22-rdf-syntax-ns#"
   xmlns:svg="http://www.w3.org/2000/svg"
   xmlns="http://www.w3.org/2000/svg"
   xmlns:sodipodi="http://sodipodi.sourceforge.net/DTD/sodipodi-0.dtd"
   xmlns:inkscape="http://www.inkscape.org/namespaces/inkscape"
   width="200"
   height="41"
   version="1.1"
   viewBox="-1.3144 -1.3144 200 41"
   id="svg92"
   sodipodi:docname="chx-logo-p1.svg"
   inkscape:version="1.0.2 (e86c870879, 2021-01-15)">
  <metadata
     id="metadata96">
    <rdf:RDF>
      <cc:Work
         rdf:about="">
        <dc:format>image/svg+xml</dc:format>
        <dc:type
           rdf:resource="http://purl.org/dc/dcmitype/StillImage" />
      </cc:Work>
    </rdf:RDF>
  </metadata>
  <sodipodi:namedview
     pagecolor="#ffffff"
     bordercolor="#666666"
     borderopacity="1"
     objecttolerance="10"
     gridtolerance="10"
     guidetolerance="10"
     inkscape:pageopacity="0"
     inkscape:pageshadow="2"
     inkscape:window-width="1920"
     inkscape:window-height="1016"
     id="namedview94"
     showgrid="false"
     inkscape:zoom="6.525"
     inkscape:cx="100"
     inkscape:cy="20.5"
     inkscape:window-x="0"
     inkscape:window-y="0"
     inkscape:window-maximized="1"
     inkscape:current-layer="svg92" />
  <defs
     id="defs56">
    <clipPath
       id="a">
      <path
         d="m0 0h442.91v201.86h-442.91z"
         fill="#fff"
         id="path53" />
    </clipPath>
  </defs>
  <title
     id="title58">ODDO BHF</title>
  <g
     transform="matrix(0.82421,0,0,0.82421,-33.836,-9.2715)"
     fill="#f30909"
     stroke="#f30909"
     stroke-linecap="round"
     stroke-linejoin="round"
     stroke-width="0.41922"
     style="font-variant-ligatures:normal;font-variant-caps:normal;font-variant-numeric:normal;font-feature-settings:normal;white-space:pre;inline-size:114.026"
     aria-label="Cluster PROD"
     id="g82">
    <path
       d="m 173.66,22.598 v 2.1023 q -1.0068,-0.93766 -2.1517,-1.4016 -1.1351,-0.4639 -2.4182,-0.4639 -2.5268,0 -3.8691,1.5496 -1.3423,1.5397 -1.3423,4.4613 0,2.9117 1.3423,4.4613 1.3423,1.5397 3.8691,1.5397 1.2831,0 2.4182,-0.4639 1.1449,-0.4639 2.1517,-1.4016 v 2.0826 q -1.0462,0.71065 -2.2208,1.066 -1.1647,0.35532 -2.4675,0.35532 -3.346,0 -5.2706,-2.0431 -1.9247,-2.053 -1.9247,-5.5964 0,-3.5532 1.9247,-5.5964 1.9247,-2.053 5.2706,-2.053 1.3226,0 2.4873,0.35532 1.1745,0.34545 2.201,1.0462 z"
       id="path60" />
    <path
       d="m 176.92,20.841 h 1.8161 V 36.199 H 176.92 Z"
       id="path62" />
    <path
       d="m 182.57,31.837 v -6.6919 h 1.8161 v 6.6228 q 0,1.5693 0.61195,2.359 0.61194,0.77974 1.8358,0.77974 1.4706,0 2.3195,-0.93766 0.85871,-0.93766 0.85871,-2.5564 v -6.2675 h 1.8161 v 11.055 h -1.8161 v -1.6977 q -0.6613,1.0068 -1.5397,1.5003 -0.86857,0.48364 -2.0234,0.48364 -1.9049,0 -2.8919,-1.1844 -0.987,-1.1844 -0.98701,-3.4644 z"
       id="path64" />
    <path
       d="m 202.88,25.47 v 1.7174 q -0.76987,-0.3948 -1.599,-0.59221 -0.82909,-0.1974 -1.7174,-0.1974 -1.3522,0 -2.0332,0.41454 -0.67116,0.41454 -0.67116,1.2436 0,0.63169 0.48363,0.99688 0.48364,0.35532 1.9444,0.68104 l 0.62182,0.13818 q 1.9346,0.41454 2.7439,1.1745 0.81922,0.75013 0.81922,2.1023 0,1.5397 -1.2239,2.4379 -1.214,0.89818 -3.346,0.89818 -0.88831,0 -1.8556,-0.17766 -0.9574,-0.16779 -2.0234,-0.51325 v -1.8753 q 1.0068,0.52312 1.9839,0.78961 0.97714,0.25662 1.9345,0.25662 1.2831,0 1.974,-0.43428 0.69091,-0.44416 0.69091,-1.2436 0,-0.74026 -0.50337,-1.1351 -0.49351,-0.3948 -2.1813,-0.76 l -0.63169,-0.14805 q -1.6878,-0.35532 -2.4379,-1.0857 -0.75012,-0.74026 -0.75012,-2.0234 0,-1.5595 1.1054,-2.4083 1.1054,-0.8488 3.1387,-0.84883 1.0068,0 1.8951,0.14805 0.88831,0.14805 1.6384,0.44416 z"
       id="path66" />
    <path
       d="m 208.4,22.006 v 3.1387 h 3.7408 v 1.4114 H 208.4 v 6.001 q 0,1.3522 0.36519,1.7371 0.37507,0.38493 1.5101,0.38493 h 1.8654 v 1.52 h -1.8654 q -2.1023,0 -2.9018,-0.77974 -0.79947,-0.78961 -0.79947,-2.8623 v -6.001 h -1.3325 v -1.4114 h 1.3325 v -3.1387 z"
       id="path68" />
    <path
       d="m 224.24,30.218 v 0.88831 h -8.3501 q 0.11844,1.8753 1.1252,2.8623 1.0166,0.97714 2.8228,0.97714 1.0462,0 2.0234,-0.25662 0.98701,-0.25662 1.9543,-0.76987 v 1.7174 q -0.97714,0.41454 -2.0036,0.63169 -1.0265,0.21714 -2.0826,0.21714 -2.6452,0 -4.1948,-1.5397 -1.5397,-1.5397 -1.5397,-4.1652 0,-2.7143 1.4608,-4.3034 1.4706,-1.599 3.9579,-1.599 2.2306,0 3.5236,1.441 1.3029,1.4312 1.3029,3.8987 z m -1.8161,-0.53299 q -0.0197,-1.4904 -0.83896,-2.3787 -0.80935,-0.88831 -2.1517,-0.88831 -1.52,0 -2.4379,0.8587 -0.90805,0.8587 -1.0462,2.4182 z"
       id="path70" />
    <path
       d="m 233.86,26.842 q -0.30597,-0.17766 -0.67117,-0.25662 -0.35532,-0.08883 -0.78961,-0.08883 -1.5397,0 -2.3688,1.0068 -0.81922,0.99688 -0.81922,2.8722 v 5.8234 h -1.826 v -11.055 h 1.826 v 1.7174 q 0.57247,-1.0068 1.4904,-1.4904 0.91792,-0.49351 2.2306,-0.49351 0.18753,0 0.41454,0.02961 0.22702,0.01974 0.50338,0.06909 z"
       id="path72" />
    <path
       d="m 179.42,43.315 v 5.5371 h 2.507 q 1.3917,0 2.1517,-0.72052 0.76,-0.72052 0.76,-2.053 0,-1.3226 -0.76,-2.0431 -0.76,-0.72052 -2.1517,-0.72052 z m -1.9938,-1.6384 h 4.5008 q 2.4774,0 3.7408,1.1252 1.2732,1.1153 1.2732,3.2769 0,2.1813 -1.2732,3.2966 -1.2634,1.1153 -3.7408,1.1153 h -2.507 v 5.9221 h -1.9938 z"
       id="path74" />
    <path
       d="m 196.86,49.504 q 0.64156,0.21714 1.2436,0.92779 0.61194,0.71065 1.2239,1.9543 l 2.0234,4.027 h -2.1418 l -1.8852,-3.7803 q -0.73039,-1.4805 -1.4213,-1.9642 -0.68104,-0.48364 -1.8654,-0.48364 h -2.1714 v 6.228 h -1.9938 v -14.736 h 4.5008 q 2.5268,0 3.7704,1.0561 1.2436,1.0561 1.2436,3.188 0,1.3917 -0.65143,2.3096 -0.64155,0.91792 -1.8753,1.2732 z m -4.9943,-6.1886 v 5.2312 h 2.507 q 1.441,0 2.1714,-0.6613 0.74026,-0.67117 0.74026,-1.9642 0,-1.293 -0.74026,-1.9444 -0.73039,-0.6613 -2.1714,-0.6613 z"
       id="path76" />
    <path
       d="m 210.14,43.029 q -2.1714,0 -3.4546,1.6187 -1.2732,1.6187 -1.2732,4.4119 0,2.7834 1.2732,4.4021 1.2831,1.6187 3.4546,1.6187 2.1714,0 3.4348,-1.6187 1.2732,-1.6187 1.2732,-4.4021 0,-2.7932 -1.2732,-4.4119 -1.2634,-1.6187 -3.4348,-1.6187 z m 0,-1.6187 q 3.0992,0 4.9548,2.0826 1.8556,2.0727 1.8556,5.5667 0,3.4842 -1.8556,5.5667 -1.8556,2.0727 -4.9548,2.0727 -3.1091,0 -4.9745,-2.0727 -1.8556,-2.0727 -1.8556,-5.5667 0,-3.494 1.8556,-5.5667 1.8654,-2.0826 4.9745,-2.0826 z"
       id="path78" />
    <path
       d="m 222.3,43.315 v 11.459 h 2.4083 q 3.0499,0 4.4613,-1.3818 1.4213,-1.3818 1.4213,-4.3626 0,-2.961 -1.4213,-4.333 -1.4114,-1.3818 -4.4613,-1.3818 z m -1.9938,-1.6384 h 4.0961 q 4.2836,0 6.2873,1.7865 2.0036,1.7766 2.0036,5.5667 0,3.8099 -2.0135,5.5964 -2.0135,1.7865 -6.2774,1.7865 h -4.0961 z"
       id="path80" />
  </g>
  <g
     transform="matrix(.17257 0 0 .17257 2.7129 2.1321)"
     clip-path="url(#a)"
     fill="#852e3f"
     id="g90">
    <path
       d="m31.83 70.93h12.73v29.04h17.28v-29.04h12.73v29.04h17.28v-29.04h12.73v29.04h13.67v-41.77h-100.09v41.77h13.67zm-21.83-12.73h-10v41.79h10zm0 68.2h-10v52.74h10zm0-18.19h-10v10h10zm11.83 79.12h-21.83v10h21.83zm-11.83-155.95-7.28-7.28-0.9 0.91v25h8.18zm108.22 18.63v-10h-26.37v-24.1l-0.9-0.9-6.83 6.83-11.38-11.39v-5.91l-4.53-4.54-4.53 4.54v5.91l-11.39 11.39-6.82-6.83-0.91 0.9v24.1h-26.37v10zm18.19 8.19h-10v41.79h10zm0 68.2h-10v52.74h10zm-18.16-18.19h-100.09v10h100.09zm18.16 0h-10v10h10zm0.01 79.12h-21.83v10h21.83zm-1.83-162.32-0.9-0.91-7.28 7.28v18.63h8.18zm-16.37 101.39h-100.03v52.74h10l22.87-12.73h7.18v-30.01h19.92v30.01h7.18l22.87 12.72h10v-52.73zm-73.66 35.56h-12.73v-25.56h12.73zm60.02 0h-12.73v-25.56h12.73z"
       id="path84" />
    <path
       d="m52.6 174.6-22.59 12.73v14.53h76.39v-14.53l-22.59-12.73zm121.38-115.86c-3.23-3.14-4.82-7.17-4.82-12.08s1.64-9.03 4.91-12.21c3.32-3.23 7.3-4.82 11.99-4.82 5.89 0 11.2 2.74 14.07 6.86l-4.12 3.94c-2.66-3.32-5.89-4.96-9.69-4.96-3.05 0-5.66 1.06-7.79 3.19-2.08 2.12-3.14 4.78-3.14 8.01s1.02 5.75 3.1 7.83 4.69 3.1 7.79 3.1c4.03 0 7.3-1.64 9.87-4.96l4.2 3.81c-3.05 4.12-8.36 6.95-14.38 6.95-4.74 0-8.76-1.55-11.99-4.65zm30.22 4.16v-33.64h5.62v12.7c1.37-2.17 4.2-3.72 7.61-3.72 2.61 0 4.78 0.88 6.59 2.61s2.74 4.16 2.74 7.39v14.65h-5.75v-13.1c0-4.03-2.08-6.28-5.27-6.28-3.41 0-5.8 2.61-5.8 6.37v13.01h-5.75zm46.6-24.03h5.49v24.03h-5.49v-2.96c-2.08 2.35-4.69 3.54-7.83 3.54-3.45 0-6.28-1.19-8.54-3.63s-3.36-5.49-3.36-9.07 1.11-6.59 3.36-8.94c2.26-2.35 5.13-3.54 8.54-3.54 3.05 0 5.66 1.19 7.83 3.63zm-1.86 6.81c-1.33-1.42-3.01-2.12-5.09-2.12s-3.76 0.71-5.09 2.12c-1.28 1.42-1.95 3.14-1.95 5.18s0.66 3.81 1.95 5.22c1.33 1.42 3.01 2.12 5.09 2.12s3.76-0.71 5.09-2.12c1.33-1.42 1.99-3.14 1.99-5.22s-0.66-3.76-1.99-5.18zm48.99-4.73c1.81 1.81 2.74 4.29 2.74 7.48v14.47h-5.8v-13.41c0-3.89-1.99-5.97-5-5.97-3.23 0-5.53 2.43-5.53 6.15v13.23h-5.75v-13.36c0-3.76-2.04-6.02-5.09-6.02-3.23 0-5.58 2.43-5.58 6.2v13.19h-5.75v-24.03h5.66v3.45c1.37-2.52 4.16-4.12 7.3-4.12 3.14 0.04 5.89 1.5 7.17 4.29 1.73-2.7 4.96-4.29 8.63-4.29 2.88 0 5.18 0.93 6.99 2.74zm30.23 0.97c2.3 2.43 3.45 5.4 3.45 8.98s-1.15 6.55-3.45 8.98c-2.26 2.39-5.13 3.58-8.54 3.58-3.1 0-5.66-1.24-7.7-3.76v3.19h-5.66v-33.63h5.75v12.7c2.04-2.43 4.6-3.67 7.66-3.67 3.41 0 6.24 1.19 8.5 3.63zm-4.38 3.81c-1.28-1.42-2.92-2.12-5-2.12s-3.76 0.71-5.04 2.12c-1.28 1.37-1.95 3.1-1.95 5.13s0.66 3.81 1.95 5.22c1.28 1.37 2.96 2.08 5.04 2.08s3.72-0.71 5-2.08c1.28-1.42 1.95-3.14 1.95-5.22s-0.66-3.76-1.95-5.13zm12.39 17.17v-24.03h5.53v3.32c1.46-2.61 3.72-3.94 6.68-3.94 1.02 0 1.99 0.18 2.88 0.49l-0.49 5.53c-0.97-0.31-1.9-0.49-2.79-0.49-3.58 0-6.06 2.39-6.06 7.39v11.73zm40.31-9.96h-18.32c0.75 3.32 3.23 5.53 7.35 5.53 2.92 0 5.58-0.84 7.92-2.48l2.3 4.12c-2.96 2.21-6.46 3.32-10.44 3.32-9.03 0-13.01-6.19-13.01-12.57 0-3.63 1.15-6.64 3.45-8.98 2.34-2.39 5.35-3.58 9.03-3.58s6.33 1.11 8.54 3.27c2.26 2.17 3.36 5.09 3.36 8.81 0 0.66-0.04 1.5-0.18 2.57zm-18.32-4.38h12.83c-0.49-3.36-2.92-5.44-6.24-5.44s-5.84 2.08-6.59 5.44zm-169.54 29.7h5.75v33.63h-5.62v-3.14c-1.99 2.48-4.56 3.72-7.66 3.72-3.41 0-6.28-1.19-8.54-3.58-2.26-2.43-3.41-5.44-3.41-9.03s1.15-6.5 3.41-8.94c2.3-2.43 5.13-3.63 8.5-3.63 3.05 0 5.58 1.19 7.57 3.63zm-1.64 26.82c1.28-1.42 1.95-3.14 1.95-5.22s-0.66-3.76-1.99-5.18c-1.28-1.42-2.96-2.12-5.04-2.12s-3.76 0.71-5.04 2.12-1.95 3.14-1.95 5.18 0.66 3.81 1.95 5.22 2.96 2.12 5.04 2.12 3.8-0.71 5.09-2.12zm36.21-3.14h-18.32c0.75 3.32 3.23 5.53 7.35 5.53 2.92 0 5.58-0.84 7.92-2.48l2.3 4.12c-2.96 2.21-6.46 3.32-10.44 3.32-9.03 0-13.01-6.2-13.01-12.57 0-3.63 1.15-6.64 3.45-8.98 2.35-2.39 5.35-3.58 9.03-3.58s6.33 1.11 8.54 3.27c2.26 2.17 3.36 5.09 3.36 8.81 0 0.66-0.04 1.5-0.18 2.57zm-18.32-4.38h12.83c-0.49-3.36-2.92-5.44-6.24-5.44s-5.84 2.08-6.59 5.44zm20.93 10.18 3.27-3.54c1.59 2.12 4.12 3.41 6.46 3.41 2.08 0 3.54-1.11 3.54-2.52 0-0.93-0.62-1.73-1.81-2.3-0.4-0.22-1.37-0.62-2.92-1.2-1.5-0.58-2.52-1.02-3.05-1.28-2.7-1.33-4.03-3.36-4.03-6.11 0-2.08 0.8-3.81 2.39-5.13 1.59-1.33 3.72-1.99 6.33-1.99 3.41 0 6.15 1.19 8.23 3.54l-3.01 3.67c-1.55-1.64-3.36-2.48-5.4-2.48-1.81 0-2.92 0.97-2.92 2.26 0 1.06 0.71 1.86 2.08 2.35 3.45 1.37 5.4 2.17 5.8 2.39 2.7 1.46 4.07 3.5 4.07 6.11 0 2.17-0.84 3.98-2.57 5.44s-3.98 2.17-6.77 2.17c-3.89 0-7.43-1.64-9.69-4.78zm35.23 4.15v-32.7h12.61c4.82 0 8.63 1.46 11.42 4.43 2.79 2.92 4.16 6.9 4.16 11.99s-1.42 8.98-4.25 11.9c-2.79 2.92-6.68 4.38-11.59 4.38zm6.02-5.8h6.55c2.96 0 5.22-1.02 6.86-3.01s2.48-4.56 2.48-7.61-0.8-5.49-2.43-7.48c-1.64-1.99-3.89-3.01-6.86-3.01h-6.59v21.11zm50-4.15h-18.32c0.75 3.32 3.23 5.53 7.35 5.53 2.92 0 5.58-0.84 7.92-2.48l2.3 4.12c-2.96 2.21-6.46 3.32-10.44 3.32-9.03 0-13.01-6.2-13.01-12.57 0-3.63 1.15-6.64 3.45-8.98 2.35-2.39 5.35-3.58 9.03-3.58s6.33 1.11 8.54 3.27c2.26 2.17 3.36 5.09 3.36 8.81 0 0.66-0.04 1.5-0.18 2.57zm-18.32-4.38h12.83c-0.49-3.36-2.92-5.44-6.24-5.44s-5.84 2.08-6.59 5.44zm13.01-21.02-4.12 7.7h-5.13l2.74-7.7zm32.04 14.42c2.26 2.43 3.36 5.4 3.36 8.89s-1.15 6.55-3.41 8.98-5.09 3.63-8.5 3.63c-3.05 0-5.66-1.19-7.74-3.58v12.88h-5.8v-33.9h5.75v3.19c2.08-2.52 4.69-3.76 7.83-3.76 3.41 0 6.24 1.24 8.5 3.67zm-14.47 14.16c1.28 1.37 2.96 2.08 5.04 2.08s3.76-0.71 5.04-2.08c1.28-1.42 1.95-3.14 1.95-5.22s-0.66-3.81-1.95-5.18c-1.28-1.42-2.96-2.12-5.04-2.12s-3.76 0.71-5.04 2.12-1.95 3.14-1.95 5.18 0.66 3.81 1.95 5.22zm22.08-3.27v-13.98h5.8v13.98c0 3.23 1.9 5.35 5.04 5.35s5.09-2.12 5.09-5.35v-13.98h5.8v13.98c0 6.68-4.12 10.62-10.89 10.62s-10.84-3.94-10.84-10.62zm44.26 8.63c-1.9 1.33-4.25 1.99-6.95 1.99-5.44 0-8.23-3.23-8.23-9.38v-10.35h-3.98v-4.87h4.07v-8.5h5.71v8.5h8.05v4.87h-8.05v10.13c0 2.88 1.15 4.34 3.5 4.34 1.33 0 2.7-0.4 4.07-1.24zm25.62-8.54h-18.32c0.75 3.32 3.23 5.53 7.35 5.53 2.92 0 5.58-0.84 7.92-2.48l2.3 4.12c-2.96 2.21-6.46 3.32-10.44 3.32-9.03 0-13.01-6.2-13.01-12.57 0-3.63 1.15-6.64 3.45-8.98 2.35-2.39 5.35-3.58 9.03-3.58s6.33 1.11 8.54 3.27c2.26 2.17 3.36 5.09 3.36 8.81 0 0.66-0.04 1.5-0.18 2.57zm-18.32-4.38h12.83c-0.49-3.36-2.92-5.44-6.24-5.44s-5.84 2.08-6.59 5.44zm13.01-21.02-4.12 7.7h-5.13l2.74-7.7zm7.93 31.2 3.27-3.54c1.59 2.12 4.12 3.41 6.46 3.41 2.08 0 3.54-1.11 3.54-2.52 0-0.93-0.62-1.73-1.81-2.3-0.4-0.22-1.37-0.62-2.92-1.2-1.5-0.58-2.52-1.02-3.05-1.28-2.7-1.33-4.03-3.36-4.03-6.11 0-2.08 0.8-3.81 2.39-5.13 1.59-1.33 3.72-1.99 6.33-1.99 3.41 0 6.15 1.19 8.23 3.54l-3.01 3.67c-1.55-1.64-3.36-2.48-5.4-2.48-1.81 0-2.92 0.97-2.92 2.26 0 1.06 0.71 1.86 2.08 2.35 3.45 1.37 5.4 2.17 5.8 2.39 2.7 1.46 4.07 3.5 4.07 6.11 0 2.17-0.84 3.98-2.57 5.44s-3.98 2.17-6.77 2.17c-3.89 0-7.43-1.64-9.69-4.78zm-251.74 47.61c-2.1-2.1-3.15-4.75-3.15-7.96s1.11-5.92 3.29-8.02c2.19-2.1 4.9-3.15 8.08-3.15 3.5 0 6.79 1.49 8.75 3.62l-2.65 2.8c-1.66-1.72-3.7-2.57-6.09-2.57-2.07 0-3.82 0.7-5.22 2.07-1.37 1.37-2.07 3.12-2.07 5.22s0.67 3.79 2.04 5.19 3.12 2.1 5.19 2.1c2.3 0 4.61-0.99 6.04-2.48v-3.27h-6.24v-3.5h9.91v8.72c-2.74 2.89-6.01 4.34-9.83 4.34-3.24 0-5.92-1.05-8.05-3.12zm33.19 2.79-4.81-8.08h-2.65v8.08h-3.97v-21.55h8.02c2.33 0 4.11 0.64 5.37 1.95 1.25 1.31 1.87 2.89 1.87 4.78 0 2.8-1.52 5.31-4.52 6.27l5.42 8.54h-4.72zm-7.46-17.85v6.18h3.62c2.42 0 3.59-1.37 3.59-3.12s-1.17-3.06-3.15-3.06zm28.65 17.85-1.78-4.9h-7.64l-1.78 4.9h-4.23l8.34-21.55h3.06l8.25 21.55h-4.23zm-5.57-15.86-2.68 7.38h5.34l-2.65-7.38zm26.72-5.68h3.94v21.55h-2.6l-11.58-13.71v13.71h-3.94v-21.55h2.39l11.78 13.82v-13.82zm8.89 21.54v-21.55h8.31c3.18 0 5.69 0.96 7.52 2.92 1.84 1.92 2.74 4.55 2.74 7.9s-0.93 5.92-2.8 7.84c-1.84 1.92-4.4 2.89-7.64 2.89h-8.14zm3.97-3.82h4.32c1.95 0 3.44-0.67 4.52-1.98s1.63-3 1.63-5.02-0.52-3.62-1.6-4.93-2.57-1.98-4.52-1.98h-4.34v13.91zm17.69-2.47v-3.56h11.81v3.56zm16.1 6.29v-21.55h8.31c3.18 0 5.69 0.96 7.52 2.92 1.84 1.92 2.74 4.55 2.74 7.9s-0.93 5.92-2.8 7.84c-1.84 1.92-4.4 2.89-7.64 2.89h-8.14zm3.97-3.82h4.32c1.95 0 3.44-0.67 4.52-1.98s1.63-3 1.63-5.02-0.52-3.62-1.6-4.93-2.57-1.98-4.52-1.98h-4.34v13.91zm20.5 2.13c-1.55-1.4-2.33-3.41-2.33-6.04v-13.82h4v13.47c0 3 1.6 4.58 4.26 4.58s4.26-1.63 4.26-4.58v-13.47h4.02v13.82c0 2.62-0.79 4.64-2.33 6.04-1.55 1.37-3.53 2.07-5.95 2.07s-4.37-0.7-5.92-2.07zm20.82-1.05c-2.13-2.07-3.18-4.72-3.18-7.96s1.08-5.95 3.24-8.05c2.19-2.13 4.81-3.18 7.9-3.18 3.88 0 7.38 1.81 9.27 4.52l-2.71 2.59c-1.75-2.19-3.88-3.27-6.39-3.27-2.01 0-3.73 0.7-5.13 2.1-1.37 1.4-2.07 3.15-2.07 5.28s0.67 3.79 2.04 5.16 3.09 2.04 5.13 2.04c2.65 0 4.81-1.08 6.5-3.27l2.77 2.51c-2.01 2.71-5.51 4.58-9.48 4.58-3.12 0-5.77-1.02-7.9-3.06zm20.47 2.74v-21.55h4v8.72h9.45v-8.72h4v21.55h-4v-8.98h-9.45v8.98zm22.39 0v-21.55h14.32v3.73h-10.32v5.07h9.54v3.7h-9.54v5.31h10.32v3.73h-14.32zm5.19-23.15 1.87-5.22h4.4l-2.77 5.22zm-217.68 62.35v-21.55h8.31c3.18 0 5.69 0.96 7.52 2.92 1.84 1.92 2.74 4.55 2.74 7.9s-0.93 5.92-2.8 7.84c-1.84 1.92-4.4 2.89-7.64 2.89h-8.14zm3.97-3.82h4.32c1.95 0 3.44-0.67 4.52-1.98s1.63-3 1.63-5.02-0.52-3.62-1.6-4.93-2.57-1.98-4.52-1.98h-4.34v13.91zm18.4 3.82v-21.55h14.32v3.73h-10.32v5.07h9.54v3.7h-9.54v5.31h10.32v3.73h-14.32zm25.57 0v-21.55h4v17.73h11.08v3.82zm19.63-1.69c-1.55-1.4-2.33-3.41-2.33-6.04v-13.82h4v13.47c0 3 1.6 4.58 4.26 4.58s4.26-1.63 4.26-4.58v-13.47h4.02v13.82c0 2.62-0.79 4.64-2.33 6.04-1.55 1.37-3.53 2.07-5.95 2.07s-4.37-0.7-5.92-2.07zm16.5 1.69 6.97-10.91-6.53-10.64h4.61l4.43 7.64 4.61-7.64h4.7l-6.85 10.64 6.85 10.91h-4.64l-4.69-7.79-4.72 7.79zm21.55 0v-21.55h14.32v3.73h-10.32v5.07h9.54v3.7h-9.54v5.31h10.32v3.73h-14.32zm18.37 0v-21.55h2.51l8.63 12.57 8.6-12.57h2.54v21.55h-3.97v-12.77l-6.53 9.45h-1.31l-6.53-9.45v12.77zm43.62-6.26c0 1.75-0.61 3.24-1.84 4.46-1.22 1.2-2.89 1.81-4.96 1.81h-9.59v-21.55h9.16c1.92 0 3.41 0.52 4.49 1.6s1.6 2.33 1.6 3.76c0 1.95-1.17 3.76-2.94 4.37 2.65 0.7 4.08 2.95 4.08 5.54zm-12.45-11.75v4.99h4.43c1.87 0 2.89-1.17 2.89-2.57 0-1.31-1.02-2.42-2.74-2.42zm4.9 14.46c2.19 0 3.44-1.4 3.44-3 0-1.72-1.22-3.09-3.44-3.09h-4.9v6.09zm13.15-15.11c2.19-2.19 4.84-3.27 7.96-3.27s5.77 1.08 7.93 3.27c2.19 2.19 3.27 4.81 3.27 7.9s-1.08 5.71-3.27 7.87c-2.16 2.16-4.81 3.24-7.99 3.24s-5.83-1.05-7.96-3.18-3.18-4.75-3.18-7.87 1.08-5.77 3.24-7.96zm12.95 2.74c-1.37-1.37-3.03-2.07-4.99-2.07s-3.64 0.7-5.02 2.07-2.04 3.09-2.04 5.16 0.67 3.79 2.01 5.16c1.37 1.37 3.03 2.04 5.04 2.04s3.67-0.67 5.04-2.04 2.04-3.09 2.01-5.16c0-2.07-0.7-3.79-2.07-5.16zm11.98 14.23c-1.55-1.4-2.33-3.41-2.33-6.04v-13.82h4v13.47c0 3 1.6 4.58 4.26 4.58s4.26-1.63 4.26-4.58v-13.47h4.02v13.82c0 2.62-0.79 4.64-2.33 6.04-1.55 1.37-3.53 2.07-5.95 2.07s-4.37-0.7-5.92-2.07zm30.33 1.69-4.81-8.08h-2.65v8.08h-3.97v-21.55h8.02c2.33 0 4.11 0.64 5.37 1.95 1.25 1.31 1.87 2.89 1.87 4.78 0 2.8-1.52 5.31-4.52 6.27l5.42 8.54h-4.72zm-7.46-17.85v6.18h3.62c2.42 0 3.59-1.37 3.59-3.12s-1.17-3.06-3.15-3.06zm17.14 15.05c-2.1-2.1-3.15-4.75-3.15-7.96s1.11-5.92 3.29-8.02c2.19-2.1 4.9-3.15 8.08-3.15 3.5 0 6.79 1.49 8.75 3.62l-2.65 2.8c-1.66-1.72-3.7-2.57-6.09-2.57-2.07 0-3.82 0.7-5.22 2.07-1.37 1.37-2.07 3.12-2.07 5.22s0.67 3.79 2.04 5.19 3.12 2.1 5.19 2.1c2.3 0 4.61-0.99 6.04-2.48v-3.27h-6.24v-3.5h9.91v8.72c-2.74 2.89-6.01 4.34-9.83 4.34-3.24 0-5.92-1.05-8.05-3.12z"
       id="path86" />
    <path
       d="m52.6 174.6-22.59 12.73v14.53h76.39v-14.53l-22.59-12.73zm121.38-115.86c-3.23-3.14-4.82-7.17-4.82-12.08s1.64-9.03 4.91-12.21c3.32-3.23 7.3-4.82 11.99-4.82 5.89 0 11.2 2.74 14.07 6.86l-4.12 3.94c-2.66-3.32-5.89-4.96-9.69-4.96-3.05 0-5.66 1.06-7.79 3.19-2.08 2.12-3.14 4.78-3.14 8.01s1.02 5.75 3.1 7.83 4.69 3.1 7.79 3.1c4.03 0 7.3-1.64 9.87-4.96l4.2 3.81c-3.05 4.12-8.36 6.95-14.38 6.95-4.74 0-8.76-1.55-11.99-4.65zm30.22 4.16v-33.64h5.62v12.7c1.37-2.17 4.2-3.72 7.61-3.72 2.61 0 4.78 0.88 6.59 2.61s2.74 4.16 2.74 7.39v14.65h-5.75v-13.1c0-4.03-2.08-6.28-5.27-6.28-3.41 0-5.8 2.61-5.8 6.37v13.01h-5.75zm46.6-24.03h5.49v24.03h-5.49v-2.96c-2.08 2.35-4.69 3.54-7.83 3.54-3.45 0-6.28-1.19-8.54-3.63s-3.36-5.49-3.36-9.07 1.11-6.59 3.36-8.94c2.26-2.35 5.13-3.54 8.54-3.54 3.05 0 5.66 1.19 7.83 3.63zm-1.86 6.81c-1.33-1.42-3.01-2.12-5.09-2.12s-3.76 0.71-5.09 2.12c-1.28 1.42-1.95 3.14-1.95 5.18s0.66 3.81 1.95 5.22c1.33 1.42 3.01 2.12 5.09 2.12s3.76-0.71 5.09-2.12c1.33-1.42 1.99-3.14 1.99-5.22s-0.66-3.76-1.99-5.18zm48.99-4.73c1.81 1.81 2.74 4.29 2.74 7.48v14.47h-5.8v-13.41c0-3.89-1.99-5.97-5-5.97-3.23 0-5.53 2.43-5.53 6.15v13.23h-5.75v-13.36c0-3.76-2.04-6.02-5.09-6.02-3.23 0-5.58 2.43-5.58 6.2v13.19h-5.75v-24.03h5.66v3.45c1.37-2.52 4.16-4.12 7.3-4.12 3.14 0.04 5.89 1.5 7.17 4.29 1.73-2.7 4.96-4.29 8.63-4.29 2.88 0 5.18 0.93 6.99 2.74zm30.23 0.97c2.3 2.43 3.45 5.4 3.45 8.98s-1.15 6.55-3.45 8.98c-2.26 2.39-5.13 3.58-8.54 3.58-3.1 0-5.66-1.24-7.7-3.76v3.19h-5.66v-33.63h5.75v12.7c2.04-2.43 4.6-3.67 7.66-3.67 3.41 0 6.24 1.19 8.5 3.63zm-4.38 3.81c-1.28-1.42-2.92-2.12-5-2.12s-3.76 0.71-5.04 2.12c-1.28 1.37-1.95 3.1-1.95 5.13s0.66 3.81 1.95 5.22c1.28 1.37 2.96 2.08 5.04 2.08s3.72-0.71 5-2.08c1.28-1.42 1.95-3.14 1.95-5.22s-0.66-3.76-1.95-5.13zm12.39 17.17v-24.03h5.53v3.32c1.46-2.61 3.72-3.94 6.68-3.94 1.02 0 1.99 0.18 2.88 0.49l-0.49 5.53c-0.97-0.31-1.9-0.49-2.79-0.49-3.58 0-6.06 2.39-6.06 7.39v11.73zm40.31-9.96h-18.32c0.75 3.32 3.23 5.53 7.35 5.53 2.92 0 5.58-0.84 7.92-2.48l2.3 4.12c-2.96 2.21-6.46 3.32-10.44 3.32-9.03 0-13.01-6.19-13.01-12.57 0-3.63 1.15-6.64 3.45-8.98 2.34-2.39 5.35-3.58 9.03-3.58s6.33 1.11 8.54 3.27c2.26 2.17 3.36 5.09 3.36 8.81 0 0.66-0.04 1.5-0.18 2.57zm-18.32-4.38h12.83c-0.49-3.36-2.92-5.44-6.24-5.44s-5.84 2.08-6.59 5.44zm-169.54 29.7h5.75v33.63h-5.62v-3.14c-1.99 2.48-4.56 3.72-7.66 3.72-3.41 0-6.28-1.19-8.54-3.58-2.26-2.43-3.41-5.44-3.41-9.03s1.15-6.5 3.41-8.94c2.3-2.43 5.13-3.63 8.5-3.63 3.05 0 5.58 1.19 7.57 3.63zm-1.64 26.82c1.28-1.42 1.95-3.14 1.95-5.22s-0.66-3.76-1.99-5.18c-1.28-1.42-2.96-2.12-5.04-2.12s-3.76 0.71-5.04 2.12-1.95 3.14-1.95 5.18 0.66 3.81 1.95 5.22 2.96 2.12 5.04 2.12 3.8-0.71 5.09-2.12zm36.21-3.14h-18.32c0.75 3.32 3.23 5.53 7.35 5.53 2.92 0 5.58-0.84 7.92-2.48l2.3 4.12c-2.96 2.21-6.46 3.32-10.44 3.32-9.03 0-13.01-6.2-13.01-12.57 0-3.63 1.15-6.64 3.45-8.98 2.35-2.39 5.35-3.58 9.03-3.58s6.33 1.11 8.54 3.27c2.26 2.17 3.36 5.09 3.36 8.81 0 0.66-0.04 1.5-0.18 2.57zm-18.32-4.38h12.83c-0.49-3.36-2.92-5.44-6.24-5.44s-5.84 2.08-6.59 5.44zm20.93 10.18 3.27-3.54c1.59 2.12 4.12 3.41 6.46 3.41 2.08 0 3.54-1.11 3.54-2.52 0-0.93-0.62-1.73-1.81-2.3-0.4-0.22-1.37-0.62-2.92-1.2-1.5-0.58-2.52-1.02-3.05-1.28-2.7-1.33-4.03-3.36-4.03-6.11 0-2.08 0.8-3.81 2.39-5.13 1.59-1.33 3.72-1.99 6.33-1.99 3.41 0 6.15 1.19 8.23 3.54l-3.01 3.67c-1.55-1.64-3.36-2.48-5.4-2.48-1.81 0-2.92 0.97-2.92 2.26 0 1.06 0.71 1.86 2.08 2.35 3.45 1.37 5.4 2.17 5.8 2.39 2.7 1.46 4.07 3.5 4.07 6.11 0 2.17-0.84 3.98-2.57 5.44s-3.98 2.17-6.77 2.17c-3.89 0-7.43-1.64-9.69-4.78zm35.23 4.15v-32.7h12.61c4.82 0 8.63 1.46 11.42 4.43 2.79 2.92 4.16 6.9 4.16 11.99s-1.42 8.98-4.25 11.9c-2.79 2.92-6.68 4.38-11.59 4.38zm6.02-5.8h6.55c2.96 0 5.22-1.02 6.86-3.01s2.48-4.56 2.48-7.61-0.8-5.49-2.43-7.48c-1.64-1.99-3.89-3.01-6.86-3.01h-6.59v21.11zm50-4.15h-18.32c0.75 3.32 3.23 5.53 7.35 5.53 2.92 0 5.58-0.84 7.92-2.48l2.3 4.12c-2.96 2.21-6.46 3.32-10.44 3.32-9.03 0-13.01-6.2-13.01-12.57 0-3.63 1.15-6.64 3.45-8.98 2.35-2.39 5.35-3.58 9.03-3.58s6.33 1.11 8.54 3.27c2.26 2.17 3.36 5.09 3.36 8.81 0 0.66-0.04 1.5-0.18 2.57zm-18.32-4.38h12.83c-0.49-3.36-2.92-5.44-6.24-5.44s-5.84 2.08-6.59 5.44zm13.01-21.02-4.12 7.7h-5.13l2.74-7.7zm32.04 14.42c2.26 2.43 3.36 5.4 3.36 8.89s-1.15 6.55-3.41 8.98-5.09 3.63-8.5 3.63c-3.05 0-5.66-1.19-7.74-3.58v12.88h-5.8v-33.9h5.75v3.19c2.08-2.52 4.69-3.76 7.83-3.76 3.41 0 6.24 1.24 8.5 3.67zm-14.47 14.16c1.28 1.37 2.96 2.08 5.04 2.08s3.76-0.71 5.04-2.08c1.28-1.42 1.95-3.14 1.95-5.22s-0.66-3.81-1.95-5.18c-1.28-1.42-2.96-2.12-5.04-2.12s-3.76 0.71-5.04 2.12-1.95 3.14-1.95 5.18 0.66 3.81 1.95 5.22zm22.08-3.27v-13.98h5.8v13.98c0 3.23 1.9 5.35 5.04 5.35s5.09-2.12 5.09-5.35v-13.98h5.8v13.98c0 6.68-4.12 10.62-10.89 10.62s-10.84-3.94-10.84-10.62zm44.26 8.63c-1.9 1.33-4.25 1.99-6.95 1.99-5.44 0-8.23-3.23-8.23-9.38v-10.35h-3.98v-4.87h4.07v-8.5h5.71v8.5h8.05v4.87h-8.05v10.13c0 2.88 1.15 4.34 3.5 4.34 1.33 0 2.7-0.4 4.07-1.24zm25.62-8.54h-18.32c0.75 3.32 3.23 5.53 7.35 5.53 2.92 0 5.58-0.84 7.92-2.48l2.3 4.12c-2.96 2.21-6.46 3.32-10.44 3.32-9.03 0-13.01-6.2-13.01-12.57 0-3.63 1.15-6.64 3.45-8.98 2.35-2.39 5.35-3.58 9.03-3.58s6.33 1.11 8.54 3.27c2.26 2.17 3.36 5.09 3.36 8.81 0 0.66-0.04 1.5-0.18 2.57zm-18.32-4.38h12.83c-0.49-3.36-2.92-5.44-6.24-5.44s-5.84 2.08-6.59 5.44zm13.01-21.02-4.12 7.7h-5.13l2.74-7.7zm7.93 31.2 3.27-3.54c1.59 2.12 4.12 3.41 6.46 3.41 2.08 0 3.54-1.11 3.54-2.52 0-0.93-0.62-1.73-1.81-2.3-0.4-0.22-1.37-0.62-2.92-1.2-1.5-0.58-2.52-1.02-3.05-1.28-2.7-1.33-4.03-3.36-4.03-6.11 0-2.08 0.8-3.81 2.39-5.13 1.59-1.33 3.72-1.99 6.33-1.99 3.41 0 6.15 1.19 8.23 3.54l-3.01 3.67c-1.55-1.64-3.36-2.48-5.4-2.48-1.81 0-2.92 0.97-2.92 2.26 0 1.06 0.71 1.86 2.08 2.35 3.45 1.37 5.4 2.17 5.8 2.39 2.7 1.46 4.07 3.5 4.07 6.11 0 2.17-0.84 3.98-2.57 5.44s-3.98 2.17-6.77 2.17c-3.89 0-7.43-1.64-9.69-4.78zm-251.74 47.61c-2.1-2.1-3.15-4.75-3.15-7.96s1.11-5.92 3.29-8.02c2.19-2.1 4.9-3.15 8.08-3.15 3.5 0 6.79 1.49 8.75 3.62l-2.65 2.8c-1.66-1.72-3.7-2.57-6.09-2.57-2.07 0-3.82 0.7-5.22 2.07-1.37 1.37-2.07 3.12-2.07 5.22s0.67 3.79 2.04 5.19 3.12 2.1 5.19 2.1c2.3 0 4.61-0.99 6.04-2.48v-3.27h-6.24v-3.5h9.91v8.72c-2.74 2.89-6.01 4.34-9.83 4.34-3.24 0-5.92-1.05-8.05-3.12zm33.19 2.79-4.81-8.08h-2.65v8.08h-3.97v-21.55h8.02c2.33 0 4.11 0.64 5.37 1.95 1.25 1.31 1.87 2.89 1.87 4.78 0 2.8-1.52 5.31-4.52 6.27l5.42 8.54h-4.72zm-7.46-17.85v6.18h3.62c2.42 0 3.59-1.37 3.59-3.12s-1.17-3.06-3.15-3.06zm28.65 17.85-1.78-4.9h-7.64l-1.78 4.9h-4.23l8.34-21.55h3.06l8.25 21.55h-4.23zm-5.57-15.86-2.68 7.38h5.34l-2.65-7.38zm26.72-5.68h3.94v21.55h-2.6l-11.58-13.71v13.71h-3.94v-21.55h2.39l11.78 13.82v-13.82zm8.89 21.54v-21.55h8.31c3.18 0 5.69 0.96 7.52 2.92 1.84 1.92 2.74 4.55 2.74 7.9s-0.93 5.92-2.8 7.84c-1.84 1.92-4.4 2.89-7.64 2.89h-8.14zm3.97-3.82h4.32c1.95 0 3.44-0.67 4.52-1.98s1.63-3 1.63-5.02-0.52-3.62-1.6-4.93-2.57-1.98-4.52-1.98h-4.34v13.91zm17.69-2.47v-3.56h11.81v3.56zm16.1 6.29v-21.55h8.31c3.18 0 5.69 0.96 7.52 2.92 1.84 1.92 2.74 4.55 2.74 7.9s-0.93 5.92-2.8 7.84c-1.84 1.92-4.4 2.89-7.64 2.89h-8.14zm3.97-3.82h4.32c1.95 0 3.44-0.67 4.52-1.98s1.63-3 1.63-5.02-0.52-3.62-1.6-4.93-2.57-1.98-4.52-1.98h-4.34v13.91zm20.5 2.13c-1.55-1.4-2.33-3.41-2.33-6.04v-13.82h4v13.47c0 3 1.6 4.58 4.26 4.58s4.26-1.63 4.26-4.58v-13.47h4.02v13.82c0 2.62-0.79 4.64-2.33 6.04-1.55 1.37-3.53 2.07-5.95 2.07s-4.37-0.7-5.92-2.07zm20.82-1.05c-2.13-2.07-3.18-4.72-3.18-7.96s1.08-5.95 3.24-8.05c2.19-2.13 4.81-3.18 7.9-3.18 3.88 0 7.38 1.81 9.27 4.52l-2.71 2.59c-1.75-2.19-3.88-3.27-6.39-3.27-2.01 0-3.73 0.7-5.13 2.1-1.37 1.4-2.07 3.15-2.07 5.28s0.67 3.79 2.04 5.16 3.09 2.04 5.13 2.04c2.65 0 4.81-1.08 6.5-3.27l2.77 2.51c-2.01 2.71-5.51 4.58-9.48 4.58-3.12 0-5.77-1.02-7.9-3.06zm20.47 2.74v-21.55h4v8.72h9.45v-8.72h4v21.55h-4v-8.98h-9.45v8.98zm22.39 0v-21.55h14.32v3.73h-10.32v5.07h9.54v3.7h-9.54v5.31h10.32v3.73h-14.32zm5.19-23.15 1.87-5.22h4.4l-2.77 5.22zm-217.68 62.35v-21.55h8.31c3.18 0 5.69 0.96 7.52 2.92 1.84 1.92 2.74 4.55 2.74 7.9s-0.93 5.92-2.8 7.84c-1.84 1.92-4.4 2.89-7.64 2.89h-8.14zm3.97-3.82h4.32c1.95 0 3.44-0.67 4.52-1.98s1.63-3 1.63-5.02-0.52-3.62-1.6-4.93-2.57-1.98-4.52-1.98h-4.34v13.91zm18.4 3.82v-21.55h14.32v3.73h-10.32v5.07h9.54v3.7h-9.54v5.31h10.32v3.73h-14.32zm25.57 0v-21.55h4v17.73h11.08v3.82zm19.63-1.69c-1.55-1.4-2.33-3.41-2.33-6.04v-13.82h4v13.47c0 3 1.6 4.58 4.26 4.58s4.26-1.63 4.26-4.58v-13.47h4.02v13.82c0 2.62-0.79 4.64-2.33 6.04-1.55 1.37-3.53 2.07-5.95 2.07s-4.37-0.7-5.92-2.07zm16.5 1.69 6.97-10.91-6.53-10.64h4.61l4.43 7.64 4.61-7.64h4.7l-6.85 10.64 6.85 10.91h-4.64l-4.69-7.79-4.72 7.79zm21.55 0v-21.55h14.32v3.73h-10.32v5.07h9.54v3.7h-9.54v5.31h10.32v3.73h-14.32zm18.37 0v-21.55h2.51l8.63 12.57 8.6-12.57h2.54v21.55h-3.97v-12.77l-6.53 9.45h-1.31l-6.53-9.45v12.77zm43.62-6.26c0 1.75-0.61 3.24-1.84 4.46-1.22 1.2-2.89 1.81-4.96 1.81h-9.59v-21.55h9.16c1.92 0 3.41 0.52 4.49 1.6s1.6 2.33 1.6 3.76c0 1.95-1.17 3.76-2.94 4.37 2.65 0.7 4.08 2.95 4.08 5.54zm-12.45-11.75v4.99h4.43c1.87 0 2.89-1.17 2.89-2.57 0-1.31-1.02-2.42-2.74-2.42zm4.9 14.46c2.19 0 3.44-1.4 3.44-3 0-1.72-1.22-3.09-3.44-3.09h-4.9v6.09zm13.15-15.11c2.19-2.19 4.84-3.27 7.96-3.27s5.77 1.08 7.93 3.27c2.19 2.19 3.27 4.81 3.27 7.9s-1.08 5.71-3.27 7.87c-2.16 2.16-4.81 3.24-7.99 3.24s-5.83-1.05-7.96-3.18-3.18-4.75-3.18-7.87 1.08-5.77 3.24-7.96zm12.95 2.74c-1.37-1.37-3.03-2.07-4.99-2.07s-3.64 0.7-5.02 2.07-2.04 3.09-2.04 5.16 0.67 3.79 2.01 5.16c1.37 1.37 3.03 2.04 5.04 2.04s3.67-0.67 5.04-2.04 2.04-3.09 2.01-5.16c0-2.07-0.7-3.79-2.07-5.16zm11.98 14.23c-1.55-1.4-2.33-3.41-2.33-6.04v-13.82h4v13.47c0 3 1.6 4.58 4.26 4.58s4.26-1.63 4.26-4.58v-13.47h4.02v13.82c0 2.62-0.79 4.64-2.33 6.04-1.55 1.37-3.53 2.07-5.95 2.07s-4.37-0.7-5.92-2.07zm30.33 1.69-4.81-8.08h-2.65v8.08h-3.97v-21.55h8.02c2.33 0 4.11 0.64 5.37 1.95 1.25 1.31 1.87 2.89 1.87 4.78 0 2.8-1.52 5.31-4.52 6.27l5.42 8.54h-4.72zm-7.46-17.85v6.18h3.62c2.42 0 3.59-1.37 3.59-3.12s-1.17-3.06-3.15-3.06zm17.14 15.05c-2.1-2.1-3.15-4.75-3.15-7.96s1.11-5.92 3.29-8.02c2.19-2.1 4.9-3.15 8.08-3.15 3.5 0 6.79 1.49 8.75 3.62l-2.65 2.8c-1.66-1.72-3.7-2.57-6.09-2.57-2.07 0-3.82 0.7-5.22 2.07-1.37 1.37-2.07 3.12-2.07 5.22s0.67 3.79 2.04 5.19 3.12 2.1 5.19 2.1c2.3 0 4.61-0.99 6.04-2.48v-3.27h-6.24v-3.5h9.91v8.72c-2.74 2.89-6.01 4.34-9.83 4.34-3.24 0-5.92-1.05-8.05-3.12z"
       id="path88" />
  </g>
</svg>
