<?xml version="1.0" encoding="UTF-8"?>
<svg width="200" height="41" version="1.1" viewBox="-1.3144 -1.3144 200 41" xmlns="http://www.w3.org/2000/svg">
<defs>
<clipPath id="a">
<path d="m0 0h442.91v201.86h-442.91z" fill="#fff"/>
</clipPath>
<clipPath id="b">
<rect class="cls-1" x="35.6" y="80.7" width="8.51" height="8.5"/>
</clipPath>
<clipPath id="c">
<rect class="cls-1" x="29.79" y="86.82" width="8.19" height="8.19"/>
</clipPath>
<clipPath id="d">
<rect class="cls-1" x="23.98" y="92.95" width="7.88" height="7.87"/>
</clipPath>
<clipPath id="e">
<rect class="cls-1" x="18.17" y="99.08" width="7.56" height="7.56"/>
</clipPath>
<clipPath id="f">
<rect class="cls-1" x="12.35" y="105.2" width="7.24" height="7.24"/>
</clipPath>
<clipPath id="g">
<rect class="cls-1" x="6.54" y="111.33" width="6.93" height="6.93"/>
</clipPath>
<clipPath id="h">
<rect class="cls-1" x=".73" y="117.46" width="6.61" height="6.61"/>
</clipPath>
</defs>
<title>ODDO BHF</title>
<g transform="matrix(.3059 0 0 .3059 -60.882 51.323)" fill="#fff">
<g transform="matrix(3.2691 0 0 3.2691 2.8669 28.386)" fill="#fff">
<g fill="#fff" stroke="#fff" stroke-linejoin="round" stroke-miterlimit=".5">
<g fill-rule="evenodd" stroke-width="4.9036">
<path class="cls-17" transform="matrix(.3059 0 0 .3059 -.87699 -8.6831)" d="m249.7-110.09c1.31 0.37 2.84 0.35 4.26 0.85 0.72 0.25 1.38 1.39 2.14 1.28 1.64-0.25 0.82-3.12 0.42-4-0.82-1.76-1.45-2.77-2-3.84-6.79-13.5-13.22-25.73-20.47-38.1-2.87-4.9-5.55-10-9.67-13.79h-0.28c-0.11 0.17-0.55 0.26-0.57 0.29-5.71 6.73-3.45 20.07-0.7 28.16 4.68 13.77 13.17 25.21 26.87 29.15" style="paint-order:normal"/>
<path class="cls-17" transform="matrix(.3059 0 0 .3059 -.87699 -8.6831)" d="m240.74-101.99c2.9 0.28 7.67 2 8.39-0.14 0.72-2.14-3-4.51-4.55-5.83-9.91-8.67-19-16.33-29-24.31-3.5-2.79-8.3-7-12.94-8.53-0.74 1-0.7 3.13-0.56 4.83 0.4 5.3 3.15 10.79 5.82 14.93 7.24 11.19 16.46 17.46 32.84 19.05" style="paint-order:normal"/>
<path class="cls-17" transform="matrix(.3059 0 0 .3059 -.87699 -8.6831)" d="m271.31-107.39c5.86-0.45 4.78-9.8-1.28-8.67-5.21 1-4.26 9.09 1.28 8.67" style="paint-order:normal"/>
<path class="cls-17" transform="matrix(.3059 0 0 .3059 -.87699 -8.6831)" d="m266.9-104.41c-0.17-2.4-2-3.35-4-3.27-3.32 0.14-5.9 2-8 4-1.83 1.78-3.9 4.65-4.27 7.54-0.32 2.51 0.82 4.49 3.13 4.69 3.44 0.3 6.35-1.94 8.67-4.27s4.67-5 4.41-8.67" style="paint-order:normal"/>
<path class="cls-17" transform="matrix(.3059 0 0 .3059 -.87699 -8.6831)" d="m320.64-70.291c-13.71-8.94-28.81-16.83-43.93-24.31-2.26-1.07-5.37-3.29-7.71-3.69-0.7-0.13-2.07 0.57-2.13 1.28s1 1.43 1.28 2.13c0.55 1.62 0.66 3.34 1.14 4.83 3.42 10.58 10.4 17.38 19.79 22.32 9.11 4.78 27.05 10.94 37.53 2.7-1.25-2.4-3.75-3.81-6-5.26" style="paint-order:normal"/>
<path class="cls-17" transform="matrix(.3059 0 0 .3059 -.87699 -8.6831)" d="m267.33-85.211c-1.45-1.63-3.65-4.74-5.55-5.12-3.16-0.64-1.17 5.31-1 6.54 0.45 3.1 0.57 6 1.13 8.81 2.82 13.82 11.17 22.69 22 28.15 4.37 2.19 9.67 4.85 15.78 3.27-1.8-5-5.16-9-8.25-12.94-7.67-9.88-15.73-19.25-24.16-28.71" style="paint-order:normal"/>
</g>
<g stroke-width="1.5">
<circle cx="74.923" cy="-35.807" r="1.3525" stop-color="#000000" style="paint-order:normal"/>
<circle cx="73.102" cy="-33.985" r="1.2984" stop-color="#000000" style="paint-order:normal"/>
<circle cx="71.271" cy="-32.159" r="1.2465" stop-color="#000000" style="paint-order:normal"/>
<circle cx="69.45" cy="-30.328" r="1.1966" stop-color="#000000" style="paint-order:normal"/>
<circle cx="67.62" cy="-28.51" r="1.1488" stop-color="#000000" style="paint-order:normal"/>
<circle cx="65.793" cy="-26.673" r="1.1028" stop-color="#000000" style="paint-order:normal"/>
<circle cx="63.958" cy="-24.852" r="1.0587" stop-color="#000000" style="paint-order:normal"/>
<circle cx="62.14" cy="-23.023" r="1.0164" stop-color="#000000" style="paint-order:normal"/>
</g>
</g>
</g>
</g>
<text transform="matrix(.86761 0 0 .60351 -62.254 -10.885)" x="119.85305" y="36.19912" fill="#ffffff" font-size="20.214px" stroke-width=".41922" word-spacing="0px" style="font-feature-settings:normal;font-variant-caps:normal;font-variant-ligatures:normal;font-variant-numeric:normal;inline-size:192.231;line-height:1;white-space:pre" xml:space="preserve"><tspan x="119.85305" y="36.19912"><tspan fill="#ffffff" font-family="Carlito">C L O U D   T E M P L E</tspan></tspan></text>
<g transform="matrix(.3059 0 0 .3059 -60.882 51.323)">
<g class="cls-2" transform="translate(202 -167.67)" opacity=".3">
<g class="cls-3" clip-path="url(#h)">
<path class="cls-4" d="m1.35 118.83a3.31 3.31 0 1 1 0 3.88 3.31 3.31 0 0 1 0-3.88"/>
</g>
</g>
<g class="cls-5" transform="translate(202 -167.67)" opacity=".4">
<g class="cls-6" clip-path="url(#g)">
<path class="cls-4" d="m7.21 112.75a3.46 3.46 0 1 1 0 4.09 3.46 3.46 0 0 1 0-4.09"/>
</g>
</g>
<g class="cls-7" transform="translate(202 -167.67)" opacity=".5">
<g class="cls-8" clip-path="url(#f)">
<path class="cls-4" d="m13.06 106.67a3.62 3.62 0 1 1 0 4.31 3.63 3.63 0 0 1 0-4.31"/>
</g>
</g>
<g class="cls-9" transform="translate(202 -167.67)" opacity=".6">
<g class="cls-10" clip-path="url(#e)">
<path class="cls-4" d="m18.91 100.59a3.79 3.79 0 1 1 0 4.52 3.79 3.79 0 0 1 0-4.52"/>
</g>
</g>
<g class="cls-11" transform="translate(202 -167.67)" opacity=".7">
<g class="cls-12" clip-path="url(#d)">
<path class="cls-4" d="m24.77 94.52a3.94 3.94 0 1 1 0 4.73 3.93 3.93 0 0 1 0-4.73"/>
</g>
</g>
<g class="cls-13" transform="translate(202 -167.67)" opacity=".8">
<g class="cls-14" clip-path="url(#c)">
<path class="cls-4" d="m30.62 88.44a4.09 4.09 0 1 1 0 4.94 4.1 4.1 0 0 1 0-4.94"/>
</g>
</g>
<g class="cls-15" transform="translate(202 -167.67)" opacity=".9">
<g class="cls-16" clip-path="url(#b)">
<path class="cls-4" d="m36.48 82.36a4.25 4.25 0 1 1 0 5.16 4.25 4.25 0 0 1 0-5.16"/>
</g>
</g>
<g fill="#008f75">
<path class="cls-4" d="m244.33-91.391a4.41 4.41 0 0 1 7.24 0.37 4.37 4.37 0 0 1 0 4.64 4.41 4.41 0 1 1-7.25-5"/>
<g fill-rule="evenodd">
<path class="cls-17" d="m249.7-110.09c1.31 0.37 2.84 0.35 4.26 0.85 0.72 0.25 1.38 1.39 2.14 1.28 1.64-0.25 0.82-3.12 0.42-4-0.82-1.76-1.45-2.77-2-3.84-6.79-13.5-13.22-25.73-20.47-38.1-2.87-4.9-5.55-10-9.67-13.79h-0.28c-0.11 0.17-0.55 0.26-0.57 0.29-5.71 6.73-3.45 20.07-0.7 28.16 4.68 13.77 13.17 25.21 26.87 29.15"/>
<path class="cls-17" d="m240.74-101.99c2.9 0.28 7.67 2 8.39-0.14 0.72-2.14-3-4.51-4.55-5.83-9.91-8.67-19-16.33-29-24.31-3.5-2.79-8.3-7-12.94-8.53-0.74 1-0.7 3.13-0.56 4.83 0.4 5.3 3.15 10.79 5.82 14.93 7.24 11.19 16.46 17.46 32.84 19.05"/>
<path class="cls-17" d="m271.31-107.39c5.86-0.45 4.78-9.8-1.28-8.67-5.21 1-4.26 9.09 1.28 8.67"/>
<path class="cls-17" d="m266.9-104.41c-0.17-2.4-2-3.35-4-3.27-3.32 0.14-5.9 2-8 4-1.83 1.78-3.9 4.65-4.27 7.54-0.32 2.51 0.82 4.49 3.13 4.69 3.44 0.3 6.35-1.94 8.67-4.27s4.67-5 4.41-8.67"/>
<path class="cls-17" d="m320.64-70.291c-13.71-8.94-28.81-16.83-43.93-24.31-2.26-1.07-5.37-3.29-7.71-3.69-0.7-0.13-2.07 0.57-2.13 1.28s1 1.43 1.28 2.13c0.55 1.62 0.66 3.34 1.14 4.83 3.42 10.58 10.4 17.38 19.79 22.32 9.11 4.78 27.05 10.94 37.53 2.7-1.25-2.4-3.75-3.81-6-5.26"/>
<path class="cls-17" d="m267.33-85.211c-1.45-1.63-3.65-4.74-5.55-5.12-3.16-0.64-1.17 5.31-1 6.54 0.45 3.1 0.57 6 1.13 8.81 2.82 13.82 11.17 22.69 22 28.15 4.37 2.19 9.67 4.85 15.78 3.27-1.8-5-5.16-9-8.25-12.94-7.67-9.88-15.73-19.25-24.16-28.71"/>
</g>
</g>
</g>
<text transform="matrix(.82421 0 0 .82421 -218.5 5.7099)" x="281.59467" y="36.19912" font-size="20.214px" stroke-width=".41922" word-spacing="0px" style="font-feature-settings:normal;font-variant-caps:normal;font-variant-ligatures:normal;font-variant-numeric:normal;inline-size:223.755;line-height:1;white-space:pre" xml:space="preserve"><tspan x="281.59467" y="36.19912"><tspan fill="#15790b" text-align="end" text-anchor="end">Cluster XXX-001</tspan></tspan></text>
<path d="m42.137 14.516h154.91" fill="none" stroke="#fff" stroke-width="1.0317px"/>
</svg>
