<?xml version="1.0" encoding="UTF-8" standalone="no"?>
<svg
    xmlns:dc="http://purl.org/dc/elements/1.1/"
    xmlns:cc="http://creativecommons.org/ns#"
    xmlns:rdf="http://www.w3.org/1999/02/22-rdf-syntax-ns#"
    xmlns:svg="http://www.w3.org/2000/svg"
    xmlns="http://www.w3.org/2000/svg"
    id="svg76"
    version="1.1"
    width="259.9"
    viewBox="0 0 259.9 40"
    height="40"
    enable-background="new 0 0 259.9 40">
    <metadata
    id="metadata82">
    <rdf:RDF>
        <cc:Work
        rdf:about="">
        <dc:format>image/svg+xml</dc:format>
        <dc:type
            rdf:resource="http://purl.org/dc/dcmitype/StillImage" />
        <dc:title></dc:title>
        </cc:Work>
    </rdf:RDF>
    </metadata>
    <defs
    id="defs80" />
    <g
    transform="matrix(0.17448637,0,0,0.17448637,0.2991442,0.079288)"
    id="g863">
    <rect
        y="1.6366946"
        x="0.67983073"
        height="225.38602"
        width="210.91208"
        id="rect621"
        style="font-size:12px;fill:#ffffff;fill-rule:evenodd;stroke:none" />
    <path
        id="logoGreen"
        d="M 11.437496,11.975078 V 215.93793 H 71.152403 C 90.753481,204.10792 122.25938,182.19532 122.87706,156.01117 123.5991,123.55329 64.364252,116.56025 63.514099,78.600489 62.880504,53.046556 72.960764,30.148689 117.15678,11.975078 Z"
        style="fill:#0c6f5e;fill-opacity:1;fill-rule:evenodd;stroke:none" />
    <path
        id="logoBlue"
        d="m 124.14823,11.975078 c -19.07463,12.239744 -40.707845,27.58215 -40.707815,49.938969 -1.051344,32.590834 68.332705,35.20569 67.281405,87.771533 -1.01638,32.86264 -38.48162,54.80259 -66.131294,66.25235 H 200.63052 V 11.975078 Z m 63.52843,11.470832 -27.36051,33.655841 25.75641,34.17036 -32.56627,-28.934334 -23.15352,16.82792 17.37272,-23.637786 -19.46107,-26.301185 25.24187,21.034903 z"
        style="fill:#000e44;fill-opacity:1;fill-rule:evenodd;stroke:none" />
    <path
        id="rect2864-2"
        d="m 316.48335,8.5576809 c -28.42443,1.052e-4 -42.64461,9.6729921 -42.6446,29.0062321 -1e-5,7.482442 2.04998,13.329466 6.14385,17.55857 4.09384,4.182758 12.21924,8.576263 24.36129,13.177173 l 11.3653,4.331986 9.56991,3.623725 c 2.88426,1.068941 5.14147,2.765994 6.76977,5.08969 1.48861,2.13785 2.22358,4.610177 2.22365,7.445083 -7e-5,9.294895 -7.84369,13.95135 -23.52124,13.95135 -10.79294,0 -23.02122,-2.30057 -36.69841,-6.901559 V 113.3985 l 11.01941,1.68008 c 1.19608,0.18124 2.37521,0.34931 3.53737,0.50422 4.49429,0.59905 8.73484,1.00136 12.72123,1.20848 2.11939,0.11012 4.16693,0.16506 6.14257,0.16506 16.88712,0 29.33909,-2.52765 37.3408,-7.59337 8.04806,-5.01919 12.07348,-12.900921 12.07358,-23.636516 -1e-4,-7.761177 -2.21858,-13.909977 -6.63801,-18.464505 -4.41958,-4.600918 -12.34066,-9.013835 -23.78477,-13.243057 l -11.87592,-4.397873 -7.95571,-3.063691 c -4.60564,-1.765957 -7.65301,-3.424181 -9.14166,-4.957908 -1.58175,-1.626527 -2.37192,-3.907693 -2.37189,-6.835654 -3e-5,-4.461455 1.63551,-7.592614 4.89202,-9.405201 3.25644,-1.765935 8.97549,-2.651815 17.16325,-2.651904 10.18807,8.9e-5 21.02386,1.904785 32.51466,5.715595 V 12.115516 C 338.57117,9.7454282 327.50879,8.5577861 316.48335,8.5576809 Z M 364.29516,11.1437 v 14.148979 h 30.14276 v 89.011731 h 21.49526 V 25.292679 h 30.14276 V 11.1437 Z m 114.03189,0 -40.05859,103.16071 h 15.69731 l 10.54172,-27.523778 h 42.71049 l 10.52525,27.523778 h 21.9894 L 499.82229,11.1437 Z m 74.45097,0 v 103.16071 h 20.24342 V 72.137511 h 16.81736 l 29.02267,42.166899 h 24.14715 L 609.22569,66.141895 c 5.48941,-2.64899 9.70272,-5.572514 12.6336,-8.779298 4.93115,-5.483908 7.3956,-12.36622 7.3957,-20.638727 -10e-5,-17.055994 -10.47953,-25.580065 -31.46048,-25.58017 z m 90.08239,0 v 14.148979 h 30.15928 v 89.011731 h 21.49528 V 25.292679 h 30.14277 V 11.1437 Z m 89.47303,0 31.60866,52.346287 -33.07467,50.814423 h 17.37741 l 23.99892,-36.863099 22.40113,36.863099 h 24.98723 L 786.82091,59.800377 818.51204,11.1437 H 801.1347 L 778.38756,45.849056 757.38649,11.1437 Z m -159.312,14.148979 H 586.841 c 6.46637,9e-5 11.4146,0.999494 14.85721,2.997805 4.00081,2.277325 5.99557,6.031425 5.99561,11.282946 -4e-5,5.019304 -1.43124,9.091633 -4.31551,12.205349 -3.81479,4.136279 -10.17198,6.209795 -19.05746,6.209732 h -11.29941 z m -87.16695,6.621525 16.05968,41.129224 H 469.8113 Z"
        style="fill:#ffffff;fill-opacity:1;stroke:#ffffff;stroke-width:12.2006;stroke-linecap:butt;stroke-linejoin:miter;stroke-miterlimit:2.5;stroke-dasharray:none;stroke-opacity:1" />
    <path
        id="rect2864-6"
        d="m 316.38365,8.3267329 c -28.42444,1.052e-4 -42.64461,9.6729921 -42.6446,29.0062321 -1e-5,7.482442 2.04999,13.329466 6.14386,17.558571 4.09383,4.182743 12.21923,8.576256 24.36127,13.177165 l 11.3653,4.332002 9.56992,3.623725 c 2.88425,1.068949 5.14147,2.765986 6.76977,5.089682 1.48861,2.137851 2.22358,4.610177 2.22364,7.445091 -6e-5,9.294895 -7.84368,13.951349 -23.52123,13.951349 -10.79294,0 -23.02121,-2.30057 -36.6984,-6.901566 v 17.558566 l 11.01941,1.6801 c 8.28072,1.25479 15.74861,1.87775 22.40117,1.87775 16.88711,0 29.33908,-2.52766 37.34078,-7.59337 8.04808,-5.01919 12.0735,-12.90092 12.07358,-23.636515 -8e-5,-7.761185 -2.21857,-13.909977 -6.63799,-18.464513 -4.41959,-4.600918 -12.34066,-9.013819 -23.78478,-13.243057 l -11.87592,-4.397876 -7.95572,-3.06369 c -4.60563,-1.765955 -7.653,-3.42418 -9.14166,-4.957908 -1.58174,-1.626525 -2.37192,-3.907693 -2.37189,-6.835652 -3e-5,-4.461457 1.63552,-7.592615 4.89203,-9.405202 3.25645,-1.765935 8.9755,-2.651815 17.16326,-2.651904 10.18806,8.9e-5 21.02385,1.904784 32.51465,5.715595 V 11.884566 C 338.47148,9.5144797 327.40909,8.3268381 316.38365,8.3267329 Z m 47.81182,2.5860171 v 14.14898 h 30.14275 v 89.01173 h 21.49525 V 25.06173 h 30.14276 V 10.91275 Z m 114.03188,0 -40.05858,103.16071 h 15.6973 L 464.4078,86.549693 h 42.71048 l 10.52527,27.523767 h 21.98938 L 499.72259,10.91275 Z m 74.45098,0 v 103.16071 h 20.24342 V 71.906556 h 16.81735 l 29.02271,42.166904 h 24.14715 L 609.126,65.91094 c 5.48941,-2.64899 9.7027,-5.572506 12.6336,-8.779289 4.93117,-5.483911 7.39559,-12.366222 7.39569,-20.63873 -1e-4,-17.055994 -10.47953,-25.580066 -31.46048,-25.580171 z m 90.08239,0 v 14.14898 h 30.15919 v 89.01173 h 21.49528 V 25.06173 h 30.14279 V 10.91275 Z m 89.47296,0 31.60866,52.346282 -33.07467,50.814428 h 17.37742 l 23.99884,-36.863088 22.40121,36.863088 h 24.98715 L 786.72116,59.56943 818.41228,10.91275 H 801.03486 L 778.28781,45.618107 757.28672,10.91275 Z M 572.92175,25.06173 h 13.81955 c 6.46637,9.1e-5 11.41463,0.999494 14.85725,2.997807 4.00074,2.277324 5.99554,6.031423 5.99561,11.282945 -7e-5,5.019304 -1.43129,9.091632 -4.31553,12.205349 -3.81479,4.136272 -10.17199,6.209797 -19.05746,6.209741 h -11.29942 z m -87.16695,6.621526 16.05967,41.129233 h -32.10286 z"
        style="fill:#000e44;fill-opacity:1;stroke:none;stroke-width:0.790725" />
    </g>
    <g
    transform="matrix(0.93491925,0,0,0.93491925,16.128141,2.338026)"
    fill="#fff"
    id="g977">
    <path
        d="m 38.9,36.7 c -3.5,0 -6.2,-2.7 -6.2,-6.2 0,-3.5 2.7,-6.2 6.2,-6.2 3.5,0 6.2,2.7 6.2,6.2 0,3.5 -2.7,6.2 -6.2,6.2 z m 0,-10.7 c -2.5,0 -4.4,1.9 -4.4,4.5 0,2.6 1.9,4.5 4.4,4.5 2.5,0 4.4,-2 4.4,-4.5 C 43.3,28 41.4,26 38.9,26 Z"
        id="path923" />
    <path
        d="m 46.8,27.8 h 1.7 v 0.8 c 0.7,-0.6 1.7,-1 2.7,-1 2.5,0 4.4,2 4.4,4.5 0,2.5 -1.9,4.5 -4.4,4.5 -0.9,0 -1.9,-0.3 -2.6,-0.9 V 40 H 46.9 V 27.8 Z m 1.8,2.4 v 3.9 c 0.5,0.6 1.5,1 2.4,1 1.7,0 2.9,-1.3 2.9,-3 0,-1.7 -1.3,-3 -2.9,-3 -1,0 -1.9,0.4 -2.4,1.1 z"
        id="path925" />
    <path
        d="m 61.4,36.6 c -2.6,0 -4.6,-2 -4.6,-4.5 0,-2.5 1.9,-4.5 4.4,-4.5 2.4,0 4.2,2 4.2,4.5 v 0.5 h -6.9 c 0.2,1.4 1.5,2.5 2.9,2.5 0.8,0 1.6,-0.3 2.2,-0.8 l 1.1,1.1 c -0.9,0.8 -2.1,1.2 -3.3,1.2 z m -2.8,-5.2 h 5.2 c -0.3,-1.3 -1.3,-2.3 -2.5,-2.3 -1.4,0 -2.5,0.9 -2.7,2.3 z"
        id="path927" />
    <path
        d="m 67,27.8 h 1.7 v 0.9 c 0.7,-0.7 1.6,-1.1 2.6,-1 2,0 3.4,1.4 3.4,3.4 v 5.5 H 73 v -5.2 c 0,-1.4 -0.8,-2.2 -2.2,-2.2 -0.9,0 -1.7,0.4 -2.2,1.1 v 6.2 H 67 Z"
        id="path929" />
    <path
        d="m 76.9,33.2 c 1.3,1.3 2.6,1.9 4.1,1.9 1.7,0 2.9,-0.8 2.9,-2 0,-1.1 -0.7,-1.6 -2.4,-1.9 l -2,-0.3 c -2.2,-0.4 -3.3,-1.4 -3.3,-3.1 0,-2.1 1.7,-3.4 4.4,-3.4 1.7,0 3.4,0.6 4.8,1.6 l -1,1.4 c -1.3,-1 -2.6,-1.5 -3.9,-1.5 -1.6,0 -2.6,0.7 -2.6,1.8 0,1 0.6,1.4 2.1,1.7 l 1.9,0.3 c 2.5,0.4 3.7,1.5 3.7,3.3 0,2.2 -1.9,3.7 -4.8,3.7 -1.9,0 -3.8,-0.8 -5.1,-2.2 z"
        id="path931" />
    <path
        d="m 87.2,24.5 1.7,-0.4 v 4.5 c 0.7,-0.7 1.6,-1.1 2.6,-1 2,0 3.4,1.4 3.4,3.4 v 5.5 h -1.7 v -5.2 c 0,-1.4 -0.8,-2.2 -2.2,-2.2 -0.9,0 -1.7,0.4 -2.2,1.1 v 6.2 H 87.1 V 24.5 Z"
        id="path933" />
    <path
        d="m 96.7,25.3 c 0,-0.6 0.5,-1.1 1,-1.1 0.6,0 1.1,0.4 1.1,1 0,0.6 -0.4,1.1 -1,1.1 h -0.1 c -0.6,0.1 -1,-0.4 -1,-1 z m 1.9,11.2 h -1.7 v -8.7 h 1.7 z"
        id="path935" />
    <path
        d="m 101.9,27.8 v -1.3 c 0,-1.8 1,-2.8 3,-2.8 0.4,0 0.8,0 1.2,0.2 v 1.5 c -0.3,-0.1 -0.7,-0.2 -1.1,-0.2 -0.9,0 -1.4,0.4 -1.4,1.3 v 1.3 h 2.5 v 1.4 h -2.5 v 7.3 h -1.7 v -7.3 h -2 v -1.4 z"
        id="path937" />
    <path
        d="m 108.7,29.2 h -1.8 v -1.4 h 1.8 v -2.2 l 1.7,-0.4 v 2.6 h 2.6 v 1.4 h -2.6 v 4.7 c 0,0.9 0.4,1.2 1.3,1.2 0.4,0 0.8,-0.1 1.2,-0.2 v 1.4 c -0.5,0.2 -1.1,0.2 -1.6,0.3 -1.7,0 -2.6,-0.8 -2.6,-2.3 z"
        id="path939" />
    <path
        d="m 127.6,33.8 0.9,0.9 c -1.2,1.3 -2.9,2 -4.7,2 -3.4,0.1 -6.2,-2.7 -6.3,-6.1 -0.1,-3.4 2.7,-6.2 6.1,-6.3 h 0.2 c 1.9,0 3.6,0.7 4.7,2 l -0.9,0.9 c -1,-1.1 -2.4,-1.7 -3.9,-1.7 -2.8,0 -4.9,2.2 -4.9,5 0,2.8 2.1,5 4.9,5 1.6,-0.1 3,-0.7 3.9,-1.7 z"
        id="path941" />
    <path
        d="m 133.9,27.7 c 2.4,0 4.4,1.9 4.4,4.4 0,2.5 -1.9,4.5 -4.4,4.5 -2.4,0 -4.4,-1.9 -4.4,-4.5 0,-2.6 1.9,-4.4 4.4,-4.4 z m 3.1,4.5 c 0,-1.9 -1.4,-3.3 -3.1,-3.3 -1.7,0 -3.1,1.5 -3.1,3.3 0,1.9 1.4,3.3 3.1,3.3 1.7,0 3.1,-1.5 3.1,-3.3 z"
        id="path943" />
    <path
        d="m 140,27.9 h 1.3 v 1 c 0.7,-0.8 1.6,-1.2 2.7,-1.2 1.9,0 3.3,1.3 3.3,3.3 v 5.4 H 146 v -5.2 c 0,-1.5 -0.9,-2.5 -2.4,-2.5 -1,0 -1.9,0.5 -2.4,1.3 v 6.3 H 140 Z"
        id="path945" />
    <path
        d="m 150.1,29 h -1.8 v -1.1 h 1.8 v -2.2 l 1.2,-0.3 v 2.5 h 2.6 V 29 h -2.6 v 5.2 c 0,0.9 0.4,1.3 1.3,1.3 0.4,0 0.9,-0.1 1.2,-0.2 v 1.1 c -0.5,0.2 -1,0.2 -1.5,0.2 -1.5,0 -2.3,-0.7 -2.3,-2.1 z"
        id="path947" />
    <path
        d="m 154.8,34 c 0,-1.6 1.3,-2.6 3.4,-2.6 0.9,0 1.7,0.2 2.5,0.6 v -1.1 c 0,-1.4 -0.8,-2.1 -2.3,-2.1 -0.8,0 -1.7,0.2 -2.7,0.8 l -0.5,-1 c 1.2,-0.6 2.2,-0.9 3.3,-0.9 2.2,0 3.4,1.1 3.4,3 v 5.7 h -1.2 v -0.8 c -0.8,0.7 -1.8,1 -2.8,1 -1.8,0 -3.1,-1 -3.1,-2.6 z m 3.4,1.6 c 1,0 1.9,-0.3 2.5,-1 V 33 c -0.7,-0.5 -1.5,-0.7 -2.5,-0.7 -1.4,0 -2.2,0.7 -2.2,1.7 0,1 0.9,1.6 2.2,1.6 z"
        id="path949" />
    <path
        d="m 163.9,25.4 c 0,-0.5 0.4,-0.9 0.9,-0.9 0.5,0 0.8,0.4 0.9,0.8 0,0.5 -0.4,0.9 -0.9,0.9 -0.6,0.1 -0.9,-0.3 -0.9,-0.8 z m 1.4,11.1 H 164 V 28 h 1.3 z"
        id="path951" />
    <path
        d="m 167.5,27.9 h 1.3 v 1 c 0.7,-0.8 1.6,-1.2 2.7,-1.2 1.9,0 3.3,1.3 3.3,3.3 v 5.4 h -1.2 v -5.2 c 0,-1.5 -0.9,-2.5 -2.4,-2.5 -1,0 -1.9,0.5 -2.4,1.3 v 6.3 h -1.3 z"
        id="path953" />
    <path
        d="m 180.9,36.6 c -2.4,0 -4.4,-1.9 -4.4,-4.3 v -0.1 c 0,-2.5 1.9,-4.4 4.2,-4.4 2.3,0 4,1.9 4,4.4 v 0.4 h -7 c 0.2,1.7 1.5,2.9 3.2,2.9 0.9,0 1.8,-0.3 2.4,-0.8 l 0.8,0.8 c -0.9,0.8 -2.1,1.1 -3.2,1.1 z m -3.1,-5 h 5.7 c -0.2,-1.5 -1.4,-2.7 -2.8,-2.7 -1.5,0 -2.7,1.1 -2.9,2.7 z"
        id="path955" />
    <path
        d="m 186.5,27.9 h 1.3 v 1.2 c 0.5,-0.9 1.4,-1.4 2.4,-1.4 0.3,0 0.5,0 0.8,0.1 V 29 c -0.3,-0.1 -0.6,-0.2 -0.9,-0.2 -1.1,0 -1.9,0.6 -2.3,1.8 v 5.9 h -1.3 z"
        id="path957" />
    <path
        d="m 196.3,24.5 h 5.2 c 2.3,0 3.9,1.4 3.9,3.4 0,2 -1.5,3.5 -3.9,3.5 h -3.9 v 5 h -1.3 z m 1.3,1.2 v 4.6 h 3.8 c 1.6,0 2.6,-0.9 2.6,-2.3 0,-1.4 -1,-2.3 -2.6,-2.3 z"
        id="path959" />
    <path
        d="m 208.4,36.5 h -1.3 v -12 l 1.3,-0.3 z"
        id="path961" />
    <path
        d="m 210.1,34 c 0,-1.6 1.3,-2.6 3.4,-2.6 0.9,0 1.7,0.2 2.5,0.6 v -1.1 c 0,-1.4 -0.8,-2.1 -2.3,-2.1 -0.8,0 -1.7,0.2 -2.7,0.8 l -0.5,-1 c 1.2,-0.6 2.2,-0.9 3.3,-0.9 2.2,0 3.4,1.1 3.4,3 v 5.7 H 216 v -0.8 c -0.8,0.7 -1.8,1 -2.8,1 -1.8,0 -3.1,-1 -3.1,-2.6 z m 3.4,1.6 c 1,0 1.9,-0.3 2.5,-1 V 33 c -0.7,-0.5 -1.5,-0.7 -2.5,-0.7 -1.4,0 -2.2,0.7 -2.2,1.7 0,1 0.9,1.6 2.2,1.6 z"
        id="path963" />
    <path
        d="m 220.1,29 h -1.8 v -1.1 h 1.8 v -2.2 l 1.2,-0.3 v 2.5 h 2.6 V 29 h -2.6 v 5.2 c 0,0.9 0.4,1.3 1.3,1.3 0.4,0 0.9,-0.1 1.2,-0.2 v 1.1 c -0.5,0.2 -1,0.2 -1.5,0.2 -1.5,0 -2.3,-0.7 -2.3,-2.1 z"
        id="path965" />
    <path
        d="m 226.6,27.9 v -1.6 c 0,-1.7 0.9,-2.6 2.6,-2.6 0.4,0 0.8,0 1.1,0.2 V 25 c -0.3,-0.1 -0.7,-0.2 -1.1,-0.2 -1,0 -1.5,0.5 -1.5,1.5 v 1.6 h 2.5 V 29 h -2.5 v 7.5 h -1.2 V 29 h -2 v -1.1 z"
        id="path967" />
    <path
        d="m 235.3,27.7 c 2.4,0 4.4,1.9 4.4,4.4 0,2.5 -1.9,4.5 -4.4,4.5 -2.4,0 -4.4,-1.9 -4.4,-4.5 0,-2.6 2,-4.4 4.4,-4.4 z m 3.1,4.5 c 0,-1.9 -1.4,-3.3 -3.1,-3.3 -1.7,0 -3.1,1.5 -3.1,3.3 0,1.9 1.4,3.3 3.1,3.3 1.8,0 3.1,-1.5 3.1,-3.3 z"
        id="path969" />
    <path
        d="m 241.4,27.9 h 1.3 v 1.2 c 0.5,-0.9 1.4,-1.4 2.4,-1.4 0.3,0 0.5,0 0.8,0.1 V 29 c -0.3,-0.1 -0.6,-0.2 -0.9,-0.2 -1.1,0 -1.9,0.6 -2.3,1.8 v 5.9 h -1.3 z"
        id="path971" />
    <path
        d="m 247.4,27.9 h 1.3 v 0.9 c 0.6,-0.7 1.5,-1.1 2.5,-1.1 1.1,0 2.2,0.6 2.7,1.6 0.6,-1 1.8,-1.6 2.9,-1.6 1.9,0 3.1,1.3 3.1,3.3 v 5.4 h -1.2 v -5.2 c 0,-1.5 -0.9,-2.5 -2.2,-2.5 -0.9,0 -1.7,0.5 -2.3,1.4 0.1,0.3 0.1,0.5 0.1,0.8 v 5.4 H 253 v -5.2 c 0,-1.5 -0.9,-2.5 -2.2,-2.5 -0.9,0 -1.7,0.4 -2.2,1.2 v 6.4 h -1.3 v -8.3 z"
        id="path973" />
    </g>
</svg>