<?xml version="1.0" encoding="UTF-8"?>
<svg width="259.9" height="40" enable-background="new 0 0 259.9 40" version="1.1" viewBox="0 0 259.9 40" xmlns="http://www.w3.org/2000/svg" xmlns:cc="http://creativecommons.org/ns#" xmlns:dc="http://purl.org/dc/elements/1.1/" xmlns:rdf="http://www.w3.org/1999/02/22-rdf-syntax-ns#"><metadata><rdf:RDF><cc:Work rdf:about=""><dc:format>image/svg+xml</dc:format><dc:type rdf:resource="http://purl.org/dc/dcmitype/StillImage"/><dc:title/></cc:Work></rdf:RDF></metadata><g transform="matrix(.82971 0 0 .82971 -1.8103 .53728)"><path d="m54.228 11.987c-0.5725-1.1825-1.235-2.3238-2.0038-3.4l-8.2125 2.9888c0.955 0.9775 1.7575 2.0762 2.4138 3.2512zm-36.303 9.0834-8.215 2.9888c0.105 1.3175 0.3325 2.6188 0.65125 3.8938l7.8038-2.8412c-0.25375-1.32-0.34375-2.68-0.24-4.0412" fill="#c22133"/><path d="m36.156 9.6601c1.7088 0.7975 3.1888 1.885 4.4375 3.16l8.2125-2.9888c-2.275-3.1925-5.3738-5.86-9.17-7.6312-11.741-5.475-25.749-0.3775-31.222 11.363-1.7725 3.7988-2.4312 7.8338-2.1212 11.741l8.2138-2.9888c0.13625-1.78 0.57-3.5638 1.3662-5.2738 3.5575-7.6275 12.656-10.938 20.284-7.3813" fill="#db212e"/><path d="m44.916 24.668c-0.13125 1.7788-0.58 3.5625-1.3788 5.2738-3.5562 7.6288-12.656 10.939-20.282 7.3825-1.7112-0.79875-3.2025-1.8775-4.4462-3.155l-8.1962 2.9825c2.27 3.1925 5.365 5.8612 9.1638 7.6338 11.741 5.4738 25.746 0.37625 31.221-11.365 1.7738-3.7962 2.4275-7.8312 2.115-11.735z" fill="#db212e"/><path d="m46.935 14.641-7.8038 2.84c1.45 2.5975 2.135 5.5875 1.91 8.595l8.1962-2.9812c-0.235-2.9412-1.0188-5.8125-2.3025-8.4538m-36.063 13.124-7.8038 2.8425c0.71625 2.845 1.96 5.5488 3.67 7.955l8.195-2.9838c-2.1038-2.16-3.5025-4.8938-4.0612-7.8138" fill="#eb2126"/><path d="m53.038 9.823c-0.25875-0.42-0.5275-0.83375-0.81375-1.2362l-8.2125 2.9888c0.36125 0.37 0.69375 0.7625 1.0112 1.165zm-35.145 12.896c-0.02-0.5475-0.0113-1.0975 0.0312-1.6488l-8.215 2.9888c0.0425 0.52625 0.10875 1.0488 0.1875 1.57l7.9962-2.91z" fill="#ad213b"/><path d="m53.112 21.686-8.1962 2.9825c-0.0863 1.18-0.31625 2.3625-0.6925 3.525l8.9212-3.2525c0.0638-1.09 0.0537-2.1775-0.0325-3.255m-42.499 15.468c0.63125 0.88875 1.33 1.7362 2.0888 2.5362l8.9225-3.2538c-1.0425-0.6525-1.985-1.4138-2.8162-2.2662z" fill="#ba2133"/></g><g transform="matrix(1.2636 0 0 1.2636 -15.956 -12.785)" fill="#f3f3f3" stroke-width=".86992"><path d="m102.64 34.447 0.78292 0.78293c-1.0439 1.1309-2.5228 1.7398-4.0886 1.7398-2.9577 0.08699-5.3935-2.3488-5.4805-5.3065s2.3488-5.3935 5.3065-5.4805h0.17398c1.6529 0 3.1317 0.60894 4.0886 1.7398l-0.78292 0.78293c-0.86992-0.95691-2.0878-1.4789-3.3927-1.4789-2.4358 0-4.2626 1.9138-4.2626 4.3496s1.8268 4.3496 4.2626 4.3496c1.3919-0.08699 2.6098-0.60894 3.3927-1.4789z"/><path d="m108.12 29.141c2.0878 0 3.8276 1.6528 3.8276 3.8276s-1.6528 3.9146-3.8276 3.9146c-2.0878 0-3.8276-1.6528-3.8276-3.9146s1.6528-3.8276 3.8276-3.8276zm2.6968 3.9146c0-1.6528-1.2179-2.8707-2.6968-2.8707s-2.6968 1.3049-2.6968 2.8707c0 1.6528 1.2179 2.8707 2.6968 2.8707s2.6968-1.3049 2.6968-2.8707z"/><path d="m113.42 29.315h1.1309v0.86992c0.60894-0.69594 1.3919-1.0439 2.3488-1.0439 1.6528 0 2.8707 1.1309 2.8707 2.8707v4.6976h-1.1309v-4.5236c0-1.3049-0.78292-2.1748-2.0878-2.1748-0.86992 0-1.6528 0.43496-2.0878 1.1309v5.4805h-1.0439z"/><path d="m122.21 30.272h-1.5659v-0.95691h1.5659v-1.9138l1.0439-0.26098v2.1748h2.2618v0.95691h-2.2618v4.5236c0 0.78293 0.34797 1.1309 1.1309 1.1309 0.34796 0 0.78292-0.08699 1.0439-0.17398v0.95691c-0.43496 0.17398-0.86992 0.17398-1.3049 0.17398-1.3049 0-2.0008-0.60894-2.0008-1.8268z"/><path d="m126.3 34.621c0-1.3919 1.1309-2.2618 2.9577-2.2618 0.78293 0 1.4789 0.17398 2.1748 0.52195v-0.95691c0-1.2179-0.69594-1.8268-2.0008-1.8268-0.69593 0-1.4789 0.17398-2.3488 0.69594l-0.43496-0.86992c1.0439-0.52195 1.9138-0.78293 2.8707-0.78293 1.9138 0 2.9577 0.95691 2.9577 2.6098v4.9585h-1.0439v-0.69594c-0.69594 0.60894-1.5659 0.86992-2.4358 0.86992-1.5658 0-2.6968-0.86992-2.6968-2.2618zm2.9577 1.3919c0.86992 0 1.6528-0.26098 2.1748-0.86992v-1.3919c-0.60895-0.43496-1.3049-0.60894-2.1748-0.60894-1.2179 0-1.9138 0.60894-1.9138 1.4789s0.78293 1.3919 1.9138 1.3919z"/><path d="m134.22 27.14c0-0.43496 0.34797-0.78293 0.78293-0.78293s0.69594 0.34797 0.78293 0.69594c0 0.43496-0.34797 0.78293-0.78293 0.78293-0.52195 0.08699-0.78293-0.26098-0.78293-0.69594zm1.2179 9.6561h-1.1309v-7.3943h1.1309z"/><path d="m137.35 29.315h1.1309v0.86992c0.60894-0.69594 1.3919-1.0439 2.3488-1.0439 1.6528 0 2.8707 1.1309 2.8707 2.8707v4.6976h-1.0439v-4.5236c0-1.3049-0.78293-2.1748-2.0878-2.1748-0.86992 0-1.6528 0.43496-2.0878 1.1309v5.4805h-1.1309z"/><path d="m149 36.883c-2.0878 0-3.8276-1.6528-3.8276-3.7407v-0.08699c0-2.1748 1.6528-3.8276 3.6537-3.8276s3.4797 1.6528 3.4797 3.8276v0.34797h-6.0894c0.17398 1.4789 1.3049 2.5228 2.7837 2.5228 0.78292 0 1.5658-0.26098 2.0878-0.69594l0.69594 0.69594c-0.78293 0.69594-1.8268 0.95691-2.7838 0.95691zm-2.6968-4.3496h4.9586c-0.17399-1.3049-1.2179-2.3488-2.4358-2.3488-1.3049 0-2.3488 0.95691-2.5228 2.3488z"/><path d="m153.88 29.315h1.1309v1.0439c0.43496-0.78293 1.2179-1.2179 2.0878-1.2179 0.26098 0 0.43496 0 0.69594 0.08699v1.0439c-0.26098-0.08699-0.52195-0.17398-0.78293-0.17398-0.95691 0-1.6528 0.52195-2.0008 1.5659v5.1325h-1.1309z"/><path d="m162.4 26.357h4.5236c2.0008 0 3.3927 1.2179 3.3927 2.9577s-1.3049 3.0447-3.3927 3.0447h-3.3927v4.3496h-1.1309zm1.1309 1.0439v4.0016h3.3057c1.3919 0 2.2618-0.78293 2.2618-2.0008s-0.86992-2.0008-2.2618-2.0008z"/><path d="m172.93 36.796h-1.1309v-10.439l1.1309-0.26098z"/><path d="m174.41 34.621c0-1.3919 1.1309-2.2618 2.9577-2.2618 0.78293 0 1.4789 0.17398 2.1748 0.52195v-0.95691c0-1.2179-0.69594-1.8268-2.0008-1.8268-0.69593 0-1.4789 0.17398-2.3488 0.69594l-0.43496-0.86992c1.0439-0.52195 1.9138-0.78293 2.8707-0.78293 1.9138 0 2.9577 0.95691 2.9577 2.6098v4.9585h-1.0439v-0.69594c-0.69594 0.60894-1.5659 0.86992-2.4358 0.86992-1.5658 0-2.6968-0.86992-2.6968-2.2618zm2.9577 1.3919c0.86992 0 1.6528-0.26098 2.1748-0.86992v-1.3919c-0.60895-0.43496-1.3049-0.60894-2.1748-0.60894-1.2179 0-1.9138 0.60894-1.9138 1.4789s0.78293 1.3919 1.9138 1.3919z"/><path d="m183.1 30.272h-1.5659v-0.95691h1.5659v-1.9138l1.0439-0.26098v2.1748h2.2618v0.95691h-2.2618v4.5236c0 0.78293 0.34797 1.1309 1.1309 1.1309 0.34797 0 0.78293-0.08699 1.0439-0.17398v0.95691c-0.43496 0.17398-0.86992 0.17398-1.3049 0.17398-1.3049 0-2.0008-0.60894-2.0008-1.8268z"/><path d="m188.76 29.315v-1.3919c0-1.4789 0.78293-2.2618 2.2618-2.2618 0.34797 0 0.69594 0 0.95691 0.17398v0.95691c-0.26097-0.08699-0.60894-0.17398-0.95691-0.17398-0.86992 0-1.3049 0.43496-1.3049 1.3049v1.3919h2.1748v0.95691h-2.1748v6.5244h-1.0439v-6.5244h-1.7398v-0.95691z"/><path d="m196.33 29.141c2.0878 0 3.8276 1.6528 3.8276 3.8276s-1.6528 3.9146-3.8276 3.9146c-2.0878 0-3.8276-1.6528-3.8276-3.9146s1.7398-3.8276 3.8276-3.8276zm2.6968 3.9146c0-1.6528-1.2179-2.8707-2.6968-2.8707s-2.6968 1.3049-2.6968 2.8707c0 1.6528 1.2179 2.8707 2.6968 2.8707 1.5659 0 2.6968-1.3049 2.6968-2.8707z"/><path d="m201.63 29.315h1.1309v1.0439c0.43496-0.78293 1.2179-1.2179 2.0878-1.2179 0.26098 0 0.43496 0 0.69594 0.08699v1.0439c-0.26098-0.08699-0.52196-0.17398-0.78293-0.17398-0.95691 0-1.6528 0.52195-2.0008 1.5659v5.1325h-1.1309z"/><path d="m206.85 29.315h1.1309v0.78293c0.52195-0.60894 1.3049-0.95691 2.1748-0.95691 0.95691 0 1.9138 0.52195 2.3488 1.3919 0.52195-0.86992 1.5658-1.3919 2.5228-1.3919 1.6528 0 2.6968 1.1309 2.6968 2.8707v4.6976h-1.0439v-4.5236c0-1.3049-0.78293-2.1748-1.9138-2.1748-0.78293 0-1.4789 0.43496-2.0008 1.2179 0.087 0.26098 0.087 0.43496 0.087 0.69594v4.6976h-1.1309v-4.5236c0-1.3049-0.78293-2.1748-1.9138-2.1748-0.78292 0-1.4789 0.34797-1.9138 1.0439v5.5675h-1.1309v-7.2203z"/></g><g fill="#3c3c3a"><g stroke-width=".26286"><path class="st0" d="m229.53 5.9288c-2.2606 0-4.5475 0.63086-4.5475 5.3886 0 1.8663 0.26286 3.0492 0.86745 3.8115 0.65714 0.86745 1.7612 1.2617 3.4435 1.2617 0.99887 0 2.6812-0.10509 3.6538-0.26285l0.15771-0.02627v-1.4983h-3.3383c-1.9715 0-2.6286-0.52572-2.6286-2.0766v-0.55201h5.2572c0.81487 0 1.3143-0.55201 1.3143-1.3669v-0.60457c0.0263-2.7338-1.3932-4.0743-4.1795-4.0743zm2.1029 4.3635h-4.4949v-0.39429c0-0.97258 0.34171-2.1554 1.9714-2.1554h0.81487c1.4457 0 1.7349 0.86744 1.7349 2.1817v0.36801z"/><path class="st0" d="m212.07 5.9288h-0.49944c-3.0492 0-4.3898 1.656-4.3898 5.3623 0 3.0755 0.73601 5.0995 4.3898 5.0995h0.49944c2.9703 0 4.3635-1.656 4.3635-5.2309 0-3.68-1.3143-5.2309-4.3635-5.2309zm2.1292 6.0721c0 1.8663-0.60457 2.6286-2.1292 2.6286h-0.55201c-1.8137 0-2.1292-0.81487-2.1292-3.1017v-0.68344c0-2.4446 0.47315-3.1017 2.2343-3.1017h0.31542c1.656 0 2.2343 0.47314 2.2343 3.1017v1.1566z"/><path class="st0" d="m192.36 5.9288c-2.2606 0-4.5475 0.63086-4.5475 5.3886 0 1.8663 0.26286 3.0492 0.86744 3.8115 0.65715 0.86745 1.7612 1.2617 3.4435 1.2617 0.99886 0 2.6812-0.10509 3.6538-0.26285l0.15772-0.02627v-1.4983h-3.3383c-1.9714 0-2.6286-0.52572-2.6286-2.0766v-0.55201h5.2572c0.81487 0 1.3143-0.55201 1.3143-1.3669v-0.60458c0.0263-2.7338-1.3932-4.0743-4.1795-4.0743zm2.1029 4.3635h-4.4949v-0.39429c0-0.97258 0.34172-2.1554 1.9715-2.1554h0.81487c1.4457 0 1.7349 0.86744 1.7349 2.1817v0.36801z"/><path class="st0" d="m184.1 6.1653h-2.8915c-1.9715 0.02627-3.8903 0.55201-3.8903 5.1783 0 4.6789 1.8137 5.0469 4.3635 5.0469 1.0514 0 2.5235-0.02627 4.3372-0.28915l0.184-0.02627v-13.196h-2.1029zm0 8.3852h-2.3395c-1.7612 0-2.2343-0.57829-2.2343-2.7075v-1.1829c0-1.9452 0.63087-2.6286 2.392-2.6286h2.1817z"/><path class="st0" d="m239.62 5.9288c-1.0777 0-2.3657 0.07881-3.312 0.23657l-0.15772 0.02627v1.5772h3.6275c1.3406 0 1.8137 0.44686 1.8137 1.7349v0.49944c-1.104-0.15771-2.1817-0.21029-3.128-0.21029-1.6297 0-3.8115 0.36801-3.8115 3.496 0 2.9178 1.7874 3.1543 4.1269 3.1543 1.0514 0 3.128-0.10521 4.6789-0.36801l0.15771-0.02627 0.0263-6.5452c-0.0263-3.1543-1.9189-3.5749-4.0218-3.5749zm1.9452 8.6218h-3.2858c-1.0514 0-1.4457-0.34171-1.4457-1.2354v-0.368c0-0.92002 0.47316-1.3406 1.5509-1.3406h3.1806z"/></g><polygon class="st0" transform="matrix(.26286 0 0 .26286 116.73 -23.774)" points="303.6 113.9 319.5 152 327.4 152 342.9 113.9 334.8 113.9 323.7 142.2 311.9 113.9"/><path class="st0" d="m220.72 13.184v-5.3623h3.0492v-1.656h-3.0229v-3.128h-1.9714v3.128h-1.6297v1.656h1.4983v5.3623c0 1.6035 0.36801 3.2332 3.0492 3.2332 0.78858 0 1.6034-0.10509 2.4709-0.31544l0.15773-0.02627v-1.4983h-2.1029c-1.1566 0-1.4983-0.31543-1.4983-1.3932z" stroke-width=".26286"/><path class="st0" d="m255.79 5.9025c-0.99887 0-2.2606 0.15772-3.4172 0.42058-0.70972-0.368-1.5772-0.39428-2.392-0.39428-1.9189 0-4.2058 0.39428-4.2058 0.39428v9.8573h2.1292v-8.3852h1.9714c1.4457 0 1.8663 0.47314 1.8663 2.0766v6.3086h2.1292v-6.8607c0-0.60459-0.0788-1.0777-0.23658-1.472h1.84c1.6297 0 2.1292 0.49944 2.1292 2.0766v6.2561h2.1029v-6.8081c0-3.4698-2.6549-3.4698-3.9166-3.4698z" stroke-width=".26286"/></g><path class="st1" d="m65.328 1.2222c-10.541 0-19.11 8.543-19.11 19.11 0 10.541 8.543 19.11 19.11 19.11 10.541 0 19.11-8.543 19.11-19.11 0-10.567-8.543-19.11-19.11-19.11z" fill="#f8485e" stroke-width=".26286"/><g transform="matrix(.26286 0 0 .26286 -6.1118 -33.761)"><g transform="matrix(.5203 0 0 .5203 285.44 21.098)"><g fill="#1b1f3e"><path class="st2" d="m534.83 279.95c4.06-4.52 6.09-10.19 6.09-17 0-14.05-8.63-21.07-25.92-21.07h-37.09v84.98h16.68v-34.74h13.86l23.91 34.74h19.89l-27.83-39.68c4.52-2.18 7.99-4.59 10.41-7.23zm-15.23-4.6c-3.14 3.41-8.38 5.11-15.7 5.11h-9.31v-26.93h11.38c5.33 0 9.41 0.82 12.24 2.47 3.3 1.87 4.94 4.97 4.94 9.29 0.01 4.14-1.17 7.49-3.55 10.06z"/><polygon class="st2" points="347.47 326.86 365.18 326.86 365.18 253.53 390.01 253.53 390.01 241.87 322.64 241.87 322.64 253.53 347.47 253.53"/><path class="st2" d="m416.58 241.87-33 84.98h12.93l8.69-22.67h35.19l8.67 22.67h18.12l-32.88-84.98zm-7.01 51 13.22-33.88 13.23 33.88z"/><path class="st2" d="m291.47 277.19-9.78-3.62-6.55-2.52c-3.8-1.46-6.31-2.82-7.53-4.08-1.31-1.34-1.96-3.22-1.96-5.63 0-3.68 1.35-6.25 4.03-7.75 2.68-1.46 7.39-2.19 14.14-2.19 8.39 0 17.32 1.57 26.78 4.71v-13.43c-9.16-1.95-18.27-2.93-27.36-2.93-23.42 0-35.13 7.97-35.13 23.9 0 6.17 1.69 10.98 5.06 14.47 3.37 3.45 10.07 7.06 20.07 10.86l9.36 3.57 7.88 2.99c2.38 0.88 4.24 2.28 5.58 4.19 1.22 1.76 1.83 3.8 1.83 6.13 0 7.66-6.46 11.5-19.38 11.5-8.89 0-18.96-1.9-30.23-5.69v14.47l9.08 1.38c6.82 1.03 12.97 1.54 18.45 1.54 13.91 0 24.17-2.08 30.76-6.25 6.63-4.14 9.95-10.63 9.95-19.47 0-6.39-1.83-11.46-5.47-15.21-3.62-3.81-10.15-7.45-19.58-10.94z"/><polygon class="st2" points="696.84 241.87 682.52 241.87 663.78 270.46 646.48 241.87 625.84 241.87 651.88 285 624.63 326.86 638.94 326.86 658.72 296.49 677.17 326.86 697.76 326.86 670.73 281.96"/><polygon class="st2" points="594.68 253.53 619.51 253.53 619.51 241.87 552.13 241.87 552.13 253.53 576.97 253.53 576.97 326.86 594.68 326.86"/></g><g fill="#65121d"><polygon class="st0" points="322.64 241.87 322.64 253.53 347.47 253.53 347.47 326.86 365.18 326.86 365.18 253.53 390.01 253.53 390.01 241.87"/><path class="st0" d="m275.83 329.04c13.91 0 24.17-2.08 30.76-6.25 6.63-4.14 9.95-10.63 9.95-19.47 0-6.39-1.83-11.46-5.47-15.21-3.64-3.79-10.17-7.43-19.6-10.91l-9.78-3.62-6.55-2.52c-3.8-1.46-6.31-2.82-7.53-4.08-1.31-1.34-1.96-3.22-1.96-5.63 0-3.68 1.35-6.25 4.03-7.75 2.68-1.46 7.39-2.19 14.14-2.19 8.39 0 17.32 1.57 26.78 4.71v-13.43c-9.16-1.95-18.27-2.93-27.36-2.93-23.42 0-35.13 7.97-35.13 23.9 0 6.17 1.69 10.98 5.06 14.47 3.37 3.45 10.07 7.06 20.07 10.86l9.36 3.57 7.88 2.99c2.38 0.88 4.24 2.28 5.58 4.19 1.22 1.76 1.83 3.8 1.83 6.13 0 7.66-6.46 11.5-19.38 11.5-8.89 0-18.96-1.9-30.23-5.69v14.47l9.08 1.38c6.84 1 12.99 1.51 18.47 1.51z"/><polygon class="st0" points="658.72 296.49 677.17 326.86 697.76 326.86 670.73 281.96 696.84 241.87 682.52 241.87 663.78 270.46 646.48 241.87 625.84 241.87 651.88 285 624.63 326.86 638.94 326.86"/><polygon class="st0" points="552.13 241.87 552.13 253.53 576.97 253.53 576.97 326.86 594.68 326.86 594.68 253.53 619.51 253.53 619.51 241.87"/><path class="st0" d="m524.42 287.18c4.52-2.18 7.99-4.59 10.41-7.23 4.06-4.52 6.09-10.19 6.09-17 0-14.05-8.63-21.07-25.92-21.07h-37.09v84.98h16.68v-34.74h13.86l23.91 34.74h19.89zm-4.82-11.83c-3.14 3.41-8.38 5.11-15.7 5.11h-9.31v-26.93h11.38c5.33 0 9.41 0.82 12.24 2.47 3.3 1.87 4.94 4.97 4.94 9.29 0.01 4.14-1.17 7.49-3.55 10.06z"/><path class="st0" d="m434.29 241.87h-17.71l-33 84.98h12.93l8.69-22.67h35.19l8.67 22.67h18.12zm-24.72 51 13.22-33.88 13.23 33.88z"/></g></g><path class="st1" d="m269.73 133.28 52 33.348v44.98h22.716c7.4531-4.5408 19.44-12.957 19.675-23.015 0.272-12.463-22.257-15.148-22.577-29.729-0.24179-9.8139 3.5906-18.609 20.401-25.585z" fill="#f8485e" stroke-width=".60739"/><path class="st0" d="m388.76 137.68-10.409 12.927 9.7985 13.122-12.386-11.114-8.8071 6.4633 6.6068-9.0754-7.3987-10.101 9.599 8.0806zm-24.167-4.4004c-7.2536 4.6995-15.486 10.589-15.486 19.176-0.39896 12.518 25.992 13.519 25.593 33.708-0.38686 12.621-14.64 21.044-25.152 25.444 0 0 37.714 2.4244 42.138-2 5.7437-21.436 6.2474-51.013 0-74.328-3.2489-3.4975-27.093-2-27.093-2z" fill="#65121d" stroke-width=".60739"/><text x="655.44861" y="191.66702" fill="#3c3c3a" font-family="Niconne" font-size="27.435px" letter-spacing="0px" stroke-width=".42868" word-spacing="0px" style="line-height:1.25" xml:space="preserve"><tspan x="655.44861" y="191.66702" fill="#3c3c3a" font-family="Montserrat" font-size="27.435px" font-weight="600" stroke-width=".42868">by</tspan></text></g><g fill="#fff"><path class="st3" d="m92.387 15.172c0.10487-5.3053-6.8323-5.57-6.7274-8.8605 0-2.2572 2.1625-3.8054 4.0707-5.0406h-0.69913c-4.4187 1.8337-5.4262 4.1456-5.3626 6.7253 0.0858 3.8328 6.0077 4.5385 5.9346 7.8146-0.06197 2.6438-3.2111 4.8545-5.1718 6.0497h1.3426c2.7648-1.1551 6.5113-3.3691 6.613-6.6882z" stroke-width=".15966"/><polygon class="st3" transform="matrix(.15889 0 0 .16043 64.098 -37.434)" points="201.29 248.47 184.07 269.65 200.28 291.15 179.79 272.95 165.22 283.53 176.15 268.66 163.91 252.11 179.79 265.35"/><path class="st2" d="m78.077 18.886h-7.3075v13.353h-8.6744c-4.7052 0-8.9372-2.8389-8.9372-8.9372 0-4.5212 2.3657-8.9372 8.9372-8.9372h2.024s0.81487 2.208 1.104 4.5738h-3.0229c-2.7075 0-4.2583 1.472-4.2583 4.3635 0 2.7338 1.4457 4.3635 4.2583 4.3635h3.864v-20.083h4.6789v6.7818h7.3075v4.5212z" stroke-width=".26286"/></g></svg>
