<?xml version="1.0" encoding="UTF-8"?>
<svg width="259.9" height="40" enable-background="new 0 0 259.9 40" version="1.1" viewBox="0 0 259.9 40" xmlns="http://www.w3.org/2000/svg" xmlns:cc="http://creativecommons.org/ns#" xmlns:dc="http://purl.org/dc/elements/1.1/" xmlns:rdf="http://www.w3.org/1999/02/22-rdf-syntax-ns#"><metadata><rdf:RDF><cc:Work rdf:about=""><dc:format>image/svg+xml</dc:format><dc:type rdf:resource="http://purl.org/dc/dcmitype/StillImage"/><dc:title/></cc:Work></rdf:RDF></metadata><g transform="translate(57.616 7.6366)" fill="#fff" stroke="#f8f8f8" stroke-miterlimit="2"><polygon transform="matrix(.2154 0 0 .2154 -56.371 -9.231)" points="156.8 145.4 140.4 145.4 140.4 119.7 145.9 119.7 145.9 140.6 156.8 140.6" stroke-width="23.212"/><path d="m-20.399 20.129h1.8309l-0.9047-2.5418zm2.154 1.0124h-2.4771l-0.34465 0.94778h-1.2924l2.1325-5.5359h1.4863l2.1325 5.5359h-1.2924z" stroke-width="5"/><g stroke-width="23.212"><polygon transform="matrix(.2154 0 0 .2154 -56.371 -9.231)" points="219.9 145.4 214.4 145.4 214.4 134.6 202.3 134.6 202.3 145.4 196.8 145.4 196.8 119.7 202.3 119.7 202.3 129.8 214.4 129.8 214.4 119.7 219.9 119.7"/><g transform="matrix(.2154 0 0 .2154 -56.371 -9.231)"><path d="m237.2 124.2c-4.7 0-7.8 3.6-7.8 8.4s3 8.4 7.8 8.4c4.7 0 7.8-3.7 7.8-8.4 0-4.8-3.1-8.4-7.8-8.4m0-4.9c7.8 0 13.4 5.5 13.4 13.3 0 7.7-5.7 13.3-13.4 13.3s-13.4-5.6-13.4-13.3c-0.1-7.7 5.6-13.3 13.4-13.3" fill="#fff" stroke="#f8f8f8" stroke-miterlimit="2" stroke-width="23.212"/></g><polygon transform="matrix(.2154 0 0 .2154 -56.371 -9.231)" points="268.4 135.8 274.6 119.7 282.3 119.7 282.3 145.4 276.8 145.4 276.8 126.9 269.6 145.4 267.2 145.4 259.9 126.9 259.9 145.4 254.5 145.4 254.5 119.7 262.1 119.7"/><polygon transform="matrix(.2154 0 0 .2154 -56.371 -9.231)" points="305.6 145.4 287.4 145.4 287.4 119.7 305.6 119.7 305.6 124.4 292.9 124.4 292.9 130 305.3 130 305.3 134.7 292.9 134.7 292.9 140.7 305.6 140.7"/><g transform="matrix(.2154 0 0 .2154 -56.371 -9.231)"><path d="m321 137.6c1.8 1.9 4.6 3.5 8.2 3.5 3 0 4.5-1.4 4.5-2.9 0-1.9-2.2-2.6-5.2-3.3-4.2-1-9.6-2.1-9.6-7.9 0-4.3 3.7-7.7 9.7-7.7 4.1 0 7.5 1.2 10 3.6l-3 4c-2.1-1.9-4.9-2.8-7.4-2.8s-3.8 1.1-3.8 2.6c0 1.7 2.2 2.3 5.1 3 4.2 1 9.6 2.2 9.6 7.9 0 4.7-3.3 8.2-10.3 8.2-4.9 0-8.5-1.7-10.9-4.1z" fill="#fff" stroke="#f8f8f8" stroke-miterlimit="2" stroke-width="23.212"/></g><polygon transform="matrix(.2154 0 0 .2154 -56.371 -9.231)" points="365 138.3 369.5 119.7 375.6 119.7 368.3 145.4 362.5 145.4 358 127.8 353.5 145.4 347.7 145.4 340.3 119.7 346.5 119.7 351 138.3 355.9 119.7 360.1 119.7"/><polygon transform="matrix(.2154 0 0 .2154 -56.371 -9.231)" points="396.4 145.4 378.2 145.4 378.2 119.7 396.4 119.7 396.4 124.4 383.7 124.4 383.7 130 396.1 130 396.1 134.7 383.7 134.7 383.7 140.7 396.4 140.7"/><polygon transform="matrix(.2154 0 0 .2154 -56.371 -9.231)" points="418.9 145.4 400.7 145.4 400.7 119.7 418.9 119.7 418.9 124.4 406.2 124.4 406.2 130 418.6 130 418.6 134.7 406.2 134.7 406.2 140.7 418.9 140.7"/><polygon transform="matrix(.2154 0 0 .2154 -56.371 -9.231)" points="421.6 119.7 442.1 119.7 442.1 124.5 434.6 124.5 434.6 145.4 429.1 145.4 429.1 124.5 421.6 124.5"/><g transform="matrix(.2154 0 0 .2154 -56.371 -9.231)"><path d="m454.2 132.6c0-7.9 6-13.3 13.5-13.3 5.9 0 9.1 3.1 10.9 6.3l-4.7 2.3c-1.1-2.1-3.4-3.7-6.2-3.7-4.5 0-7.9 3.6-7.9 8.4 0 4.9 3.4 8.4 7.9 8.4 2.9 0 5.2-1.6 6.2-3.7l4.7 2.3c-1.9 3.2-5.1 6.3-10.9 6.3-7.5 0-13.5-5.4-13.5-13.3"/><path d="m494.1 124.2c-4.7 0-7.8 3.6-7.8 8.4s3 8.4 7.8 8.4c4.7 0 7.8-3.7 7.8-8.4 0-4.8-3.1-8.4-7.8-8.4m0-4.9c7.8 0 13.4 5.5 13.4 13.3 0 7.7-5.7 13.3-13.4 13.3s-13.4-5.6-13.4-13.3 5.6-13.3 13.4-13.3"/></g><polygon transform="matrix(.2154 0 0 .2154 -56.371 -9.231)" points="525.3 135.8 531.5 119.7 539.2 119.7 539.2 145.4 533.7 145.4 533.7 126.9 526.5 145.4 524.1 145.4 516.8 126.9 516.8 145.4 511.4 145.4 511.4 119.7 519 119.7"/><g transform="matrix(.2154 0 0 .2154 -56.371 -9.231)"><path d="m555.6 124.4h-5.8v7.1h5.8c2.2 0 3.8-1.4 3.8-3.5s-1.6-3.6-3.8-3.6m-11.3-4.7h12c5.6 0 8.6 3.8 8.6 8.3s-3.1 8.2-8.6 8.2h-6.5v9.2h-5.5z" fill="#fff" stroke="#f8f8f8" stroke-miterlimit="2" stroke-width="23.212"/></g></g><path d="m66.818 20.129h1.8309l-0.9047-2.5418zm2.154 1.0124h-2.4771l-0.34465 0.94778h-1.2924l2.1325-5.5359h1.4863l2.1325 5.5359h-1.2924z" stroke-width="5"/><g stroke-width="23.212"><polygon transform="matrix(.2154 0 0 .2154 -56.371 -9.231)" points="597.5 119.7 609.4 136.4 609.4 119.7 614.9 119.7 614.9 145.4 609.6 145.4 597.3 128.2 597.3 145.4 591.9 145.4 591.9 119.7"/><polygon transform="matrix(.2154 0 0 .2154 -56.371 -9.231)" points="632.6 134.9 642.4 119.7 636.2 119.7 629.9 130.1 623.5 119.7 617.2 119.7 627.1 134.9 627.1 145.4 632.6 145.4"/><polygon class="st0" transform="matrix(.2154 0 0 .2154 -56.371 -9.231)" points="52.2 75 30.6 62.5 9 75 9 99.9 30.6 112.3 52.2 99.9"/></g><path class="st0" d="m-33.582 24.824-4.8897-2.8218v-5.6651l4.8897-2.8218 4.8897 2.8218v5.6651z" stroke-width="5"/><polygon class="st0" transform="matrix(.2154 0 0 .2154 -56.371 -9.231)" points="78.4 118.6 78.4 144.9 55.7 158 32.9 144.9 32.9 118.6 55.7 105.5" stroke-width="23.212"/><path class="st0" d="m-38.967 15.26-4.9112-2.8218v-5.6651l4.8897-2.8218 4.8897 2.8218v5.6651z" stroke-width="5"/><g transform="matrix(.2154 0 0 .2154 -56.371 -9.231)" stroke-width="23.212"><path class="st0" d="m120.4 80.3c1.9 11.1 10.3 16.3 21.1 16.3 11.1 0 18.4-4.8 18.4-14.5 0-9.1-5.4-13-19.2-17.5-11.8-3.7-23-7.6-23-21.5 0-15 11.8-20.3 23.5-20.3 13.8 0 23.6 5.6 25.2 20.2l-6.8 0.1c-1.5-10.7-7.9-14.7-18.3-14.7-9.5 0-16.7 4.4-16.7 14.2 0 9.7 7.4 12.4 20.1 16.4 12.4 3.9 22.2 8.6 22.2 22.3 0 14-10.9 20.7-25.7 20.7-15 0-24.9-7.9-27.1-21.8z" fill="#fff" stroke="#f8f8f8" stroke-miterlimit="2" stroke-width="23.212"/></g><path class="st0" d="m-1.1633-2.9412 4.5235 12.623h-9.047zm-0.77546-1.3786-6.1606 16.737h1.4432l0.51697-1.4217h9.9948l0.51697 1.4217h1.4432l-6.1606-16.737z" stroke-width="5"/><g stroke-width="23.212"><polygon class="st0" transform="matrix(.2154 0 0 .2154 -56.371 -9.231)" points="192.5 28.7 192.5 99.5 198.5 99.5 198.5 28.7 218.7 28.7 218.7 22.8 172.4 22.8 172.4 28.7"/><g transform="matrix(.2154 0 0 .2154 -56.371 -9.231)"><path class="st0" d="m351.9 99.7-18.7-35c9.3-3.2 14-11.2 14-20.2 0-11.7-7.8-21.7-23.5-21.7h-29.6v76.7h6v-70.9h22.9c10.8 0 18 6.6 18 15.9s-7.2 15.9-18 15.9h-10.5v5.8h11.2c1.1 0 2.2-0.1 3.2-0.2l18 33.7z" fill="#fff" stroke="#f8f8f8" stroke-miterlimit="2" stroke-width="23.212"/></g><polygon class="st0" transform="matrix(.2154 0 0 .2154 -56.371 -9.231)" points="377.5 28.7 377.5 99.5 383.5 99.5 383.5 28.7 403.6 28.7 403.6 22.8 357.3 22.8 357.3 28.7"/><polygon class="st0" transform="matrix(.2154 0 0 .2154 -56.371 -9.231)" points="418.3 22.8 418.2 22.8 410.6 22.8 436.4 60.2 409.1 99.4 409 99.6 416.6 99.6 440.1 65.1 463.7 99.5 463.7 99.6 471.2 99.6 443.9 60.1 469.6 23 469.7 22.8 462.1 22.8 440.1 55.2"/><polygon class="st1" transform="matrix(.2154 0 0 .2154 -56.371 -9.231)" points="142.2 173 142.2 161 139 161 139 175.8 148.4 175.8 148.4 173"/></g><rect class="st1" x="-23.759" y="25.449" width=".68929" height="3.188" stroke-width="5"/><g stroke-width="23.212"><g transform="matrix(.2154 0 0 .2154 -56.371 -9.231)"><path class="st1" d="m165.5 173.1c1.2 0 1.9-0.7 1.9-1.8 0-0.9-0.7-1.7-1.9-1.7h-4.1v3.5zm-0.1-6.1c1.1 0 1.7-0.7 1.7-1.6s-0.7-1.6-1.7-1.6h-3.9v3.3h3.9zm-7.1-6h7.8c2.8 0 4.3 1.8 4.3 3.8 0 1.9-1.2 3.1-2.6 3.4 1.6 0.2 2.8 1.8 2.8 3.6 0 2.2-1.5 4-4.3 4h-8z"/><path class="st1" d="m180.3 163.7h-3.3v4.1h3.3c1.3 0 2.2-0.8 2.2-2 0-1.3-1-2.1-2.2-2.1m-1 6.8h-2.3v5.3h-3.2v-14.8h6.9c3.1 0 5 2 5 4.8 0 2.6-1.6 4-3.2 4.4l3.3 5.6h-3.6z"/></g><polygon class="st1" transform="matrix(.2154 0 0 .2154 -56.371 -9.231)" points="199.3 163.7 199.3 161 188.9 161 188.9 175.8 199.3 175.8 199.3 173.1 192 173.1 192 169.6 199.2 169.6 199.2 166.9 192 166.9 192 163.7"/><g transform="matrix(.2154 0 0 .2154 -56.371 -9.231)"><path class="st1" d="m214.9 173c2.9 0 4.6-2.1 4.6-4.6 0-2.6-1.6-4.6-4.6-4.6h-2.7v9.3h2.7zm-5.8-12h5.8c4.6 0 7.9 3 7.9 7.4 0 4.5-3.2 7.4-7.9 7.4h-5.8z" fill="#fff" stroke="#f8f8f8" stroke-miterlimit="2" stroke-width="23.212"/></g><polygon class="st1" transform="matrix(.2154 0 0 .2154 -56.371 -9.231)" points="236.3 163.7 236.3 161 225.8 161 225.8 175.8 236.3 175.8 236.3 173.1 229 173.1 229 169.6 236.1 169.6 236.1 166.9 229 166.9 229 163.7"/><g transform="matrix(.2154 0 0 .2154 -56.371 -9.231)"><path class="st1" d="m246 163.7h-3.3v4.1h3.3c1.2 0 2.2-0.8 2.2-2 0-1.3-0.9-2.1-2.2-2.1m-6.5-2.7h6.9c3.2 0 5 2.2 5 4.8s-1.8 4.7-5 4.7h-3.8v5.3h-3.2v-14.8z"/><path class="st1" d="m254.2 161h3.2v8.8c0 2.1 1.1 3.5 3.4 3.5s3.4-1.4 3.4-3.5v-8.8h3.2v8.9c0 3.7-2.1 6.2-6.6 6.2s-6.6-2.5-6.6-6.2z"/></g></g><rect class="st1" x="2.0247" y="25.449" width=".68929" height="3.188" stroke-width="5"/><g transform="matrix(.2154 0 0 .2154 -56.371 -9.231)" stroke-width="23.212"><path class="st1" d="m278.7 171.3c1 1.1 2.7 2 4.7 2 1.7 0 2.6-0.8 2.6-1.7 0-1.1-1.3-1.5-3-1.9-2.4-0.6-5.5-1.2-5.5-4.5 0-2.5 2.1-4.5 5.6-4.5 2.4 0 4.3 0.7 5.8 2.1l-1.8 2.3c-1.2-1.1-2.8-1.6-4.2-1.6s-2.2 0.6-2.2 1.5c0 1 1.2 1.3 3 1.7 2.4 0.6 5.6 1.3 5.6 4.6 0 2.7-1.9 4.8-5.9 4.8-2.8 0-4.9-1-6.3-2.4z"/><path class="st1" d="m298.2 173.3c6.1-4.5 7.8-6 7.8-7.8 0-1.3-1.2-1.9-2.4-1.9-1.7 0-3 0.7-4 1.7l-1.8-2.1c1.4-1.7 3.6-2.4 5.7-2.4 3.2 0 5.7 1.8 5.7 4.7 0 2.5-2.1 4.7-6.1 7.5h6.2v2.8h-11.1z"/><path class="st1" d="m318.1 163.6c-2.1 0-2.9 2.1-2.9 4.8s0.8 4.9 2.9 4.9 2.9-2.1 2.9-4.9c0-2.7-0.8-4.8-2.9-4.8m0-2.8c4.2 0 6.1 3.8 6.1 7.6s-1.9 7.7-6.1 7.7-6.1-3.8-6.1-7.7 1.9-7.6 6.1-7.6"/><path class="st1" d="m332.7 163.6c-2.1 0-2.9 2.1-2.9 4.8s0.8 4.9 2.9 4.9 2.9-2.1 2.9-4.9c0-2.7-0.8-4.8-2.9-4.8m0-2.8c4.2 0 6.1 3.8 6.1 7.6s-1.9 7.7-6.1 7.7-6.1-3.8-6.1-7.7 1.8-7.6 6.1-7.6"/><path class="st1" d="m342.4 171.6c1 1.1 2.6 1.7 4.1 1.7 1.8 0 2.8-0.8 2.8-1.9 0-1.2-0.9-1.8-3-1.8h-1.8v-2.8h1.8c1.6 0 2.7-0.5 2.7-1.6 0-1.2-1.2-1.8-2.8-1.8-1.4 0-2.7 0.6-3.8 1.6l-1.6-2c1.2-1.4 3.1-2.4 5.7-2.4 3.5 0 5.6 1.6 5.6 4 0 1.9-1.6 3.1-3.2 3.4 1.5 0.2 3.5 1.3 3.5 3.6 0 2.6-2.3 4.4-5.8 4.4-2.7 0-4.8-1-5.8-2.4z"/></g></g><g transform="translate(57.616 7.6366)"><g fill="#fff"><polygon transform="matrix(.2154 0 0 .2154 -56.371 -9.231)" points="145.9 140.6 156.8 140.6 156.8 145.4 140.4 145.4 140.4 119.7 145.9 119.7"/><path d="m-20.399 20.129h1.8309l-0.9047-2.5418zm2.154 1.0124h-2.4771l-0.34465 0.94778h-1.2924l2.1325-5.5359h1.4863l2.1325 5.5359h-1.2924z" stroke-width=".2154"/><polygon transform="matrix(.2154 0 0 .2154 -56.371 -9.231)" points="202.3 145.4 196.8 145.4 196.8 119.7 202.3 119.7 202.3 129.8 214.4 129.8 214.4 119.7 219.9 119.7 219.9 145.4 214.4 145.4 214.4 134.6 202.3 134.6"/><g transform="matrix(.2154 0 0 .2154 -56.371 -9.231)"><path d="m237.2 124.2c-4.7 0-7.8 3.6-7.8 8.4s3 8.4 7.8 8.4c4.7 0 7.8-3.7 7.8-8.4 0-4.8-3.1-8.4-7.8-8.4m0-4.9c7.8 0 13.4 5.5 13.4 13.3 0 7.7-5.7 13.3-13.4 13.3s-13.4-5.6-13.4-13.3c-0.1-7.7 5.6-13.3 13.4-13.3" fill="#fff"/></g><polygon transform="matrix(.2154 0 0 .2154 -56.371 -9.231)" points="276.8 145.4 276.8 126.9 269.6 145.4 267.2 145.4 259.9 126.9 259.9 145.4 254.5 145.4 254.5 119.7 262.1 119.7 268.4 135.8 274.6 119.7 282.3 119.7 282.3 145.4"/><polygon transform="matrix(.2154 0 0 .2154 -56.371 -9.231)" points="305.6 124.4 292.9 124.4 292.9 130 305.3 130 305.3 134.7 292.9 134.7 292.9 140.7 305.6 140.7 305.6 145.4 287.4 145.4 287.4 119.7 305.6 119.7"/><g transform="matrix(.2154 0 0 .2154 -56.371 -9.231)"><path d="m321 137.6c1.8 1.9 4.6 3.5 8.2 3.5 3 0 4.5-1.4 4.5-2.9 0-1.9-2.2-2.6-5.2-3.3-4.2-1-9.6-2.1-9.6-7.9 0-4.3 3.7-7.7 9.7-7.7 4.1 0 7.5 1.2 10 3.6l-3 4c-2.1-1.9-4.9-2.8-7.4-2.8s-3.8 1.1-3.8 2.6c0 1.7 2.2 2.3 5.1 3 4.2 1 9.6 2.2 9.6 7.9 0 4.7-3.3 8.2-10.3 8.2-4.9 0-8.5-1.7-10.9-4.1z" fill="#fff"/></g><polygon transform="matrix(.2154 0 0 .2154 -56.371 -9.231)" points="362.5 145.4 358 127.8 353.5 145.4 347.7 145.4 340.3 119.7 346.5 119.7 351 138.3 355.9 119.7 360.1 119.7 365 138.3 369.5 119.7 375.6 119.7 368.3 145.4"/><polygon transform="matrix(.2154 0 0 .2154 -56.371 -9.231)" points="396.4 124.4 383.7 124.4 383.7 130 396.1 130 396.1 134.7 383.7 134.7 383.7 140.7 396.4 140.7 396.4 145.4 378.2 145.4 378.2 119.7 396.4 119.7"/><polygon transform="matrix(.2154 0 0 .2154 -56.371 -9.231)" points="418.9 124.4 406.2 124.4 406.2 130 418.6 130 418.6 134.7 406.2 134.7 406.2 140.7 418.9 140.7 418.9 145.4 400.7 145.4 400.7 119.7 418.9 119.7"/><polygon transform="matrix(.2154 0 0 .2154 -56.371 -9.231)" points="434.6 145.4 429.1 145.4 429.1 124.5 421.6 124.5 421.6 119.7 442.1 119.7 442.1 124.5 434.6 124.5"/><g transform="matrix(.2154 0 0 .2154 -56.371 -9.231)"><path d="m454.2 132.6c0-7.9 6-13.3 13.5-13.3 5.9 0 9.1 3.1 10.9 6.3l-4.7 2.3c-1.1-2.1-3.4-3.7-6.2-3.7-4.5 0-7.9 3.6-7.9 8.4 0 4.9 3.4 8.4 7.9 8.4 2.9 0 5.2-1.6 6.2-3.7l4.7 2.3c-1.9 3.2-5.1 6.3-10.9 6.3-7.5 0-13.5-5.4-13.5-13.3"/><path d="m494.1 124.2c-4.7 0-7.8 3.6-7.8 8.4s3 8.4 7.8 8.4c4.7 0 7.8-3.7 7.8-8.4 0-4.8-3.1-8.4-7.8-8.4m0-4.9c7.8 0 13.4 5.5 13.4 13.3 0 7.7-5.7 13.3-13.4 13.3s-13.4-5.6-13.4-13.3 5.6-13.3 13.4-13.3"/></g><polygon transform="matrix(.2154 0 0 .2154 -56.371 -9.231)" points="533.7 145.4 533.7 126.9 526.5 145.4 524.1 145.4 516.8 126.9 516.8 145.4 511.4 145.4 511.4 119.7 519 119.7 525.3 135.8 531.5 119.7 539.2 119.7 539.2 145.4"/><g transform="matrix(.2154 0 0 .2154 -56.371 -9.231)"><path d="m555.6 124.4h-5.8v7.1h5.8c2.2 0 3.8-1.4 3.8-3.5s-1.6-3.6-3.8-3.6m-11.3-4.7h12c5.6 0 8.6 3.8 8.6 8.3s-3.1 8.2-8.6 8.2h-6.5v9.2h-5.5z" fill="#fff"/></g><path d="m66.818 20.129h1.8309l-0.9047-2.5418zm2.154 1.0124h-2.4771l-0.34465 0.94778h-1.2924l2.1325-5.5359h1.4863l2.1325 5.5359h-1.2924z" stroke-width=".2154"/><polygon transform="matrix(.2154 0 0 .2154 -56.371 -9.231)" points="614.9 145.4 609.6 145.4 597.3 128.2 597.3 145.4 591.9 145.4 591.9 119.7 597.5 119.7 609.4 136.4 609.4 119.7 614.9 119.7"/><polygon transform="matrix(.2154 0 0 .2154 -56.371 -9.231)" points="623.5 119.7 617.2 119.7 627.1 134.9 627.1 145.4 632.6 145.4 632.6 134.9 642.4 119.7 636.2 119.7 629.9 130.1"/></g><g fill="#005e2c"><polygon class="st0" transform="matrix(.2154 0 0 .2154 -56.371 -9.231)" points="30.6 112.3 52.2 99.9 52.2 75 30.6 62.5 9 75 9 99.9"/><path class="st0" d="m-37.976 21.723 4.3942 2.5418 4.3942-2.5418v-5.0835l-4.3942-2.5418-4.3942 2.5418zm4.3942 3.1018-4.8897-2.8218v-5.6651l4.8897-2.8218 4.8897 2.8218v5.6651z" stroke-width=".2154"/><polygon class="st0" transform="matrix(.2154 0 0 .2154 -56.371 -9.231)" points="32.9 118.6 55.7 105.5 78.4 118.6 78.4 144.9 55.7 158 32.9 144.9"/><path class="st0" d="m-43.382 12.137 4.4158 2.5418 4.3942-2.5418v-5.062l-4.3942-2.5418-4.4158 2.5418zm4.4158 3.1234-4.9112-2.8218v-5.6651l4.8897-2.8218 4.8897 2.8218v5.6651z" stroke-width=".2154"/><g transform="matrix(.2154 0 0 .2154 -56.371 -9.231)"><path class="st0" d="m120.4 80.3c1.9 11.1 10.3 16.3 21.1 16.3 11.1 0 18.4-4.8 18.4-14.5 0-9.1-5.4-13-19.2-17.5-11.8-3.7-23-7.6-23-21.5 0-15 11.8-20.3 23.5-20.3 13.8 0 23.6 5.6 25.2 20.2l-6.8 0.1c-1.5-10.7-7.9-14.7-18.3-14.7-9.5 0-16.7 4.4-16.7 14.2 0 9.7 7.4 12.4 20.1 16.4 12.4 3.9 22.2 8.6 22.2 22.3 0 14-10.9 20.7-25.7 20.7-15 0-24.9-7.9-27.1-21.8z" fill="#005e2c"/></g><path class="st0" d="m-1.1633-2.9412 4.5235 12.623h-9.047zm-0.77546-1.3786-6.1606 16.737h1.4432l0.51697-1.4217h9.9948l0.51697 1.4217h1.4432l-6.1606-16.737z" stroke-width=".2154"/><polygon class="st0" transform="matrix(.2154 0 0 .2154 -56.371 -9.231)" points="218.7 28.7 218.7 22.8 172.4 22.8 172.4 28.7 192.5 28.7 192.5 99.5 198.5 99.5 198.5 28.7"/><g transform="matrix(.2154 0 0 .2154 -56.371 -9.231)"><path class="st0" d="m351.9 99.7-18.7-35c9.3-3.2 14-11.2 14-20.2 0-11.7-7.8-21.7-23.5-21.7h-29.6v76.7h6v-70.9h22.9c10.8 0 18 6.6 18 15.9s-7.2 15.9-18 15.9h-10.5v5.8h11.2c1.1 0 2.2-0.1 3.2-0.2l18 33.7z" fill="#005e2c"/></g><polygon class="st0" transform="matrix(.2154 0 0 .2154 -56.371 -9.231)" points="403.6 28.7 403.6 22.8 357.3 22.8 357.3 28.7 377.5 28.7 377.5 99.5 383.5 99.5 383.5 28.7"/><polygon class="st0" transform="matrix(.2154 0 0 .2154 -56.371 -9.231)" points="409.1 99.4 409 99.6 416.6 99.6 440.1 65.1 463.7 99.5 463.7 99.6 471.2 99.6 443.9 60.1 469.6 23 469.7 22.8 462.1 22.8 440.1 55.2 418.3 22.8 418.2 22.8 410.6 22.8 436.4 60.2"/></g><g fill="#d8d9da"><polygon class="st1" transform="matrix(.2154 0 0 .2154 -56.371 -9.231)" points="148.4 175.8 148.4 173 142.2 173 142.2 161 139 161 139 175.8"/><rect class="st1" x="-23.759" y="25.449" width=".68929" height="3.188" stroke-width=".2154"/><g transform="matrix(.2154 0 0 .2154 -56.371 -9.231)"><path class="st1" d="m165.5 173.1c1.2 0 1.9-0.7 1.9-1.8 0-0.9-0.7-1.7-1.9-1.7h-4.1v3.5zm-0.1-6.1c1.1 0 1.7-0.7 1.7-1.6s-0.7-1.6-1.7-1.6h-3.9v3.3h3.9zm-7.1-6h7.8c2.8 0 4.3 1.8 4.3 3.8 0 1.9-1.2 3.1-2.6 3.4 1.6 0.2 2.8 1.8 2.8 3.6 0 2.2-1.5 4-4.3 4h-8z"/><path class="st1" d="m180.3 163.7h-3.3v4.1h3.3c1.3 0 2.2-0.8 2.2-2 0-1.3-1-2.1-2.2-2.1m-1 6.8h-2.3v5.3h-3.2v-14.8h6.9c3.1 0 5 2 5 4.8 0 2.6-1.6 4-3.2 4.4l3.3 5.6h-3.6z"/></g><polygon class="st1" transform="matrix(.2154 0 0 .2154 -56.371 -9.231)" points="199.3 175.8 199.3 173.1 192 173.1 192 169.6 199.2 169.6 199.2 166.9 192 166.9 192 163.7 199.3 163.7 199.3 161 188.9 161 188.9 175.8"/><g transform="matrix(.2154 0 0 .2154 -56.371 -9.231)"><path class="st1" d="m214.9 173c2.9 0 4.6-2.1 4.6-4.6 0-2.6-1.6-4.6-4.6-4.6h-2.7v9.3h2.7zm-5.8-12h5.8c4.6 0 7.9 3 7.9 7.4 0 4.5-3.2 7.4-7.9 7.4h-5.8z" fill="#d8d9da"/></g><polygon class="st1" transform="matrix(.2154 0 0 .2154 -56.371 -9.231)" points="236.3 175.8 236.3 173.1 229 173.1 229 169.6 236.1 169.6 236.1 166.9 229 166.9 229 163.7 236.3 163.7 236.3 161 225.8 161 225.8 175.8"/><g transform="matrix(.2154 0 0 .2154 -56.371 -9.231)"><path class="st1" d="m246 163.7h-3.3v4.1h3.3c1.2 0 2.2-0.8 2.2-2 0-1.3-0.9-2.1-2.2-2.1m-6.5-2.7h6.9c3.2 0 5 2.2 5 4.8s-1.8 4.7-5 4.7h-3.8v5.3h-3.2v-14.8z"/><path class="st1" d="m254.2 161h3.2v8.8c0 2.1 1.1 3.5 3.4 3.5s3.4-1.4 3.4-3.5v-8.8h3.2v8.9c0 3.7-2.1 6.2-6.6 6.2s-6.6-2.5-6.6-6.2z"/></g><rect class="st1" x="2.0247" y="25.449" width=".68929" height="3.188" stroke-width=".2154"/><g transform="matrix(.2154 0 0 .2154 -56.371 -9.231)"><path class="st1" d="m278.7 171.3c1 1.1 2.7 2 4.7 2 1.7 0 2.6-0.8 2.6-1.7 0-1.1-1.3-1.5-3-1.9-2.4-0.6-5.5-1.2-5.5-4.5 0-2.5 2.1-4.5 5.6-4.5 2.4 0 4.3 0.7 5.8 2.1l-1.8 2.3c-1.2-1.1-2.8-1.6-4.2-1.6s-2.2 0.6-2.2 1.5c0 1 1.2 1.3 3 1.7 2.4 0.6 5.6 1.3 5.6 4.6 0 2.7-1.9 4.8-5.9 4.8-2.8 0-4.9-1-6.3-2.4z"/><path class="st1" d="m298.2 173.3c6.1-4.5 7.8-6 7.8-7.8 0-1.3-1.2-1.9-2.4-1.9-1.7 0-3 0.7-4 1.7l-1.8-2.1c1.4-1.7 3.6-2.4 5.7-2.4 3.2 0 5.7 1.8 5.7 4.7 0 2.5-2.1 4.7-6.1 7.5h6.2v2.8h-11.1z"/><path class="st1" d="m318.1 163.6c-2.1 0-2.9 2.1-2.9 4.8s0.8 4.9 2.9 4.9 2.9-2.1 2.9-4.9c0-2.7-0.8-4.8-2.9-4.8m0-2.8c4.2 0 6.1 3.8 6.1 7.6s-1.9 7.7-6.1 7.7-6.1-3.8-6.1-7.7 1.9-7.6 6.1-7.6"/><path class="st1" d="m332.7 163.6c-2.1 0-2.9 2.1-2.9 4.8s0.8 4.9 2.9 4.9 2.9-2.1 2.9-4.9c0-2.7-0.8-4.8-2.9-4.8m0-2.8c4.2 0 6.1 3.8 6.1 7.6s-1.9 7.7-6.1 7.7-6.1-3.8-6.1-7.7 1.8-7.6 6.1-7.6"/><path class="st1" d="m342.4 171.6c1 1.1 2.6 1.7 4.1 1.7 1.8 0 2.8-0.8 2.8-1.9 0-1.2-0.9-1.8-3-1.8h-1.8v-2.8h1.8c1.6 0 2.7-0.5 2.7-1.6 0-1.2-1.2-1.8-2.8-1.8-1.4 0-2.7 0.6-3.8 1.6l-1.6-2c1.2-1.4 3.1-2.4 5.7-2.4 3.5 0 5.6 1.6 5.6 4 0 1.9-1.6 3.1-3.2 3.4 1.5 0.2 3.5 1.3 3.5 3.6 0 2.6-2.3 4.4-5.8 4.4-2.7 0-4.8-1-5.8-2.4z"/></g></g></g><g fill="#fff" aria-label="Container Platform"><path d="m159.13 11.37q0 2.0508 0.63802 3.1628 0.63803 1.112 1.905 1.112 1.4766 0 2.1875-2.224l2.4883 0.47396q-1.2122 3.8646-4.7031 3.8646-2.5612 0-3.9102-1.6224-1.3398-1.6315-1.3398-4.7669 0-6.28 5.1771-6.28 1.6953 0 2.8346 0.89323 1.1484 0.89323 1.6862 2.6523l-2.4792 0.60156q-0.26433-0.96615-0.79297-1.4948-0.52865-0.53776-1.2122-0.53776-2.4792 0-2.4792 4.1654z"/><path d="m177.23 12.637q0 2.4518-1.2396 3.7917-1.2396 1.3307-3.5638 1.3307-2.2422 0-3.4818-1.3307-1.2396-1.3398-1.2396-3.7917 0-2.4427 1.2305-3.7734t3.5456-1.3307q4.7487 0 4.7487 5.1042zm-2.6797 0q0-1.75-0.46485-2.543-0.46484-0.80208-1.5677-0.80208-1.1302 0-1.6315 0.80208-0.49219 0.80208-0.49219 2.543 0 1.7591 0.5013 2.5703 0.51042 0.80208 1.5039 0.80208 1.1302 0 1.6406-0.79297 0.51042-0.80208 0.51042-2.5794z"/><path d="m185.58 17.577v-5.6419q0-1.2852-0.35547-1.8867-0.34635-0.60156-1.2031-0.60156-0.94792 0-1.5221 0.8112-0.56511 0.80208-0.56511 2.0326v5.2865h-2.5612v-7.6563q0-0.79297-0.0273-1.2943-0.0182-0.51042-0.0456-0.91146h2.4427q0.0273 0.17318 0.0729 0.92969 0.0456 0.7474 0.0456 1.0299h0.0365q0.51954-1.1302 1.3034-1.6406 0.78386-0.51042 1.8685-0.51042 3.0625 0 3.0625 3.7917v6.2617z"/><path d="m192.26 9.4472h-1.5221v-1.7318h1.6497l0.80208-2.5703h1.6042v2.5703h3.5091v1.7318h-3.5091v4.8307q0 0.80208 0.14584 1.0846 0.15494 0.27344 0.49218 0.4375 0.33724 0.15495 0.94792 0.15495 1.1302 0 2.3242-0.24609v1.6953q-1.2943 0.20964-1.832 0.24609-0.53776 0.04557-1.1211 0.04557-1.1576 0-1.9414-0.3099-0.77475-0.31901-1.1758-0.98438-0.39193-0.67448-0.39193-1.8867z"/><path d="m204.48 17.76q-1.431 0-2.2331-0.77474-0.80208-0.78386-0.80208-2.1966 0-1.5313 0.94791-2.3242 0.95704-0.80208 2.8529-0.82943l2.0326-0.03646v-0.5013q0-0.9388-0.31901-1.4219-0.31901-0.48307-1.03-0.48307-0.66537 0-0.98438 0.33724-0.30989 0.32813-0.38281 1.0573l-2.6706-0.1276q0.49219-2.9258 4.1471-2.9258 1.8412 0 2.8164 0.90235 0.98437 0.90235 0.98437 2.6523v3.5729q0 0.82943 0.18229 1.1484 0.19141 0.3099 0.62891 0.3099 0.29167 0 0.56511-0.05469v1.3854q-0.22787 0.05469-0.41016 0.10026t-0.36458 0.07292q-0.1823 0.02734-0.39193 0.04557-0.20052 0.01823-0.47396 0.01823-0.96615 0-1.431-0.47396-0.45573-0.47396-0.54688-1.3945h-0.0547q-0.57422 1.03-1.3125 1.4857-0.72917 0.45573-1.75 0.45573zm2.7982-4.7487-1.2214 0.01823q-0.82031 0.01823-1.194 0.17318-0.36458 0.14583-0.55599 0.48307-0.19141 0.32813-0.19141 0.90235 0 1.3854 1.0938 1.3854 0.88411 0 1.4766-0.69271 0.59245-0.70182 0.59245-1.7682z"/><path d="m218.91 15.846h3.2175v1.7318h-9.3789v-1.7318h3.6003v-6.3984h-2.6432v-1.7318h5.2044zm-2.5612-9.9076v-1.8867h2.5612v1.8867z"/><path d="m230.39 17.577v-5.6419q0-1.2852-0.35546-1.8867-0.34636-0.60156-1.2031-0.60156-0.94792 0-1.5221 0.8112-0.56511 0.80208-0.56511 2.0326v5.2865h-2.5612v-7.6563q0-0.79297-0.0273-1.2943-0.0182-0.51042-0.0456-0.91146h2.4427q0.0273 0.17318 0.0729 0.92969 0.0456 0.7474 0.0456 1.0299h0.0365q0.51953-1.1302 1.3034-1.6406 0.78386-0.51042 1.8685-0.51042 3.0625 0 3.0625 3.7917v6.2617z"/><path d="m239.79 17.76q-2.2969 0-3.5456-1.349-1.2487-1.3581-1.2487-3.8099 0-1.6406 0.58333-2.7708 0.59245-1.1302 1.6771-1.7135t2.5703-0.58333q2.1602 0 3.3542 1.4401t1.194 4.0925v0.07292h-6.6901q0 1.3398 0.59245 2.1237 0.60157 0.78386 1.6406 0.78386 0.67448 0 1.194-0.28255 0.51954-0.29167 0.70183-0.89323l2.4154 0.20964q-0.50131 1.2852-1.668 1.987-1.1667 0.69271-2.7708 0.69271zm0-8.6133q-0.93881 0-1.4948 0.63802-0.55599 0.62891-0.59245 1.75h4.1927q-0.0638-1.0938-0.62891-1.7409-0.55599-0.64714-1.4766-0.64714z"/><path d="m255.13 9.8482q-1.0208-0.17318-1.9323-0.17318-1.4219 0-2.2604 1.0755-0.82943 1.0755-0.82943 2.8346v3.9922h-2.5521v-6.3893q0-0.69271-0.1276-1.6315-0.11849-0.9388-0.34636-1.8411h2.4701q0.32812 1.1849 0.41927 2.0781h0.0365q0.45573-1.2396 1.2305-1.75t2.0143-0.51042q0.94791 0 1.8776 0.15495z"/><path d="m177.28 27.831q0 1.2214-0.55599 2.151-0.55599 0.92057-1.6133 1.4219-1.0482 0.5013-2.5156 0.5013h-1.7956v4.3386h-2.6888v-12.296h4.375q2.3424 0 3.5638 0.99349 1.2305 0.98438 1.2305 2.8893zm-2.707 0.04557q0-0.99349-0.60156-1.4128-0.59245-0.42839-1.7865-0.42839h-1.3854v3.8008h1.4583q1.2031 0 1.7591-0.49219 0.55599-0.5013 0.55599-1.4675z"/><path d="m186.55 34.494 1.9779 0.01823v1.7318l-3.181-0.04557q-0.90234-0.15495-1.7409-0.80208-0.39192-0.30078-0.6289-1.03-0.20964-0.61979-0.22787-1.5495v-8.3672h-2.6432v-1.7318h5.2044v10.391q0.0182 0.78386 0.20964 1.0026 0.24609 0.28255 1.03 0.38281z"/><path d="m193.27 36.426q-1.431 0-2.2331-0.77474-0.80209-0.78386-0.80209-2.1966 0-1.5313 0.94792-2.3242 0.95703-0.80208 2.8529-0.82943l2.0326-0.03646v-0.5013q0-0.9388-0.31902-1.4219-0.31901-0.48307-1.0299-0.48307-0.66537 0-0.98438 0.33724-0.3099 0.32813-0.38281 1.0573l-2.6706-0.1276q0.49219-2.9258 4.1471-2.9258 1.8412 0 2.8164 0.90234 0.98438 0.90235 0.98438 2.6523v3.5729q0 0.82943 0.18229 1.1484 0.19141 0.3099 0.62891 0.3099 0.29167 0 0.5651-0.05469v1.3854q-0.22786 0.05469-0.41015 0.10026-0.1823 0.04557-0.36459 0.07292-0.18229 0.02734-0.39193 0.04557-0.20052 0.01823-0.47395 0.01823-0.96615 0-1.431-0.47396-0.45573-0.47396-0.54687-1.3945h-0.0547q-0.57422 1.03-1.3125 1.4857-0.72917 0.45573-1.75 0.45573zm2.7982-4.7487-1.2214 0.01823q-0.82031 0.01823-1.194 0.17318-0.36459 0.14583-0.55599 0.48307-0.19141 0.32812-0.19141 0.90234 0 1.3854 1.0938 1.3854 0.88412 0 1.4766-0.69271 0.59245-0.70182 0.59245-1.7682z"/><path d="m203.46 28.114h-1.5221v-1.7318h1.6497l0.80209-2.5703h1.6042v2.5703h3.5091v1.7318h-3.5091v4.8307q0 0.80208 0.14583 1.0846 0.15495 0.27344 0.49219 0.4375 0.33724 0.15495 0.94792 0.15495 1.1302 0 2.3242-0.24609v1.6953q-1.2943 0.20964-1.832 0.24609-0.53776 0.04557-1.1211 0.04557-1.1576 0-1.9414-0.3099-0.77474-0.31901-1.1758-0.98438-0.39193-0.67448-0.39193-1.8867z"/><path d="m217.63 28.114v8.1302h-2.5521v-8.1302h-2.3333v-1.7318h2.3333v-0.75651q0-1.5859 0.99349-2.3789 1.0026-0.80208 2.8529-0.80208 1.4492 0 2.9805 0.25521v1.6771q-1.3672-0.17318-2.5339-0.17318-0.89323 0-1.3216 0.3737-0.41928 0.36458-0.41928 1.2852v0.51953h4.0378v1.7318z"/><path d="m233.24 31.304q0 2.4518-1.2396 3.7917-1.2396 1.3307-3.5638 1.3307-2.2422 0-3.4818-1.3307-1.2396-1.3398-1.2396-3.7917 0-2.4427 1.2305-3.7734t3.5456-1.3307q4.7487 0 4.7487 5.1042zm-2.6797 0q0-1.75-0.46484-2.543-0.46485-0.80208-1.5677-0.80208-1.1302 0-1.6315 0.80208-0.49219 0.80208-0.49219 2.543 0 1.7591 0.50131 2.5703 0.51041 0.80208 1.5039 0.80208 1.1302 0 1.6406-0.79297 0.51042-0.80208 0.51042-2.5794z"/><path d="m243.93 28.515q-1.0208-0.17318-1.9323-0.17318-1.4219 0-2.2604 1.0755-0.82942 1.0755-0.82942 2.8346v3.9922h-2.5521v-6.3893q0-0.69271-0.12761-1.6315-0.11849-0.9388-0.34635-1.8411h2.47q0.32813 1.1849 0.41928 2.0781h0.0365q0.45573-1.2396 1.2305-1.75 0.77474-0.51042 2.0143-0.51042 0.94792 0 1.8776 0.15495z"/><path d="m249.85 36.244v-5.9974q0-1.3581-0.17318-1.8867-0.16406-0.52865-0.61979-0.52865-0.46485 0-0.73829 0.85677-0.26432 0.85677-0.26432 2.2513v5.3047h-2.0872v-7.7565q0-1.7227-0.0547-2.1055h1.905l0.0547 1.1576v0.4375h0.0182q0.30989-0.92969 0.78385-1.349 0.47396-0.42839 1.1849-0.42839 0.80208 0 1.194 0.4375 0.40104 0.4375 0.57422 1.349h0.0182q0.36459-0.96615 0.86589-1.3763 0.51042-0.41016 1.2852-0.41016 1.0755 0 1.5404 0.78386 0.46485 0.78386 0.46485 2.6888v6.5716h-2.0781v-5.9974q0-1.3581-0.17318-1.8867-0.16406-0.52865-0.61979-0.52865-0.46484 0-0.73828 0.73828-0.26433 0.72917-0.26433 2.1966v5.4779z"/></g></svg>
