<?xml version="1.0" encoding="UTF-8"?>
<svg width="200" height="41" enable-background="new 0 0 259.9 40" version="1.1" viewBox="0 0 200 41" xmlns="http://www.w3.org/2000/svg">
 <path class="c" d="m8.4064 20.418-1.758 2.4009-1.758-2.4009 1.758-2.4033zm3.5185 0-1.7605 2.4033-1.758-2.4058 1.7605-2.4009zm3.5185 0-1.7604 2.4033-1.758-2.4033 1.758-2.4009zm3.516 0-1.758 2.4009-1.758-2.4009 1.758-2.4033zm3.5185 0-1.7605 2.4033-1.758-2.4033 1.758-2.4009zm-14.071 4.8561-1.7679 2.4033-1.758-2.4033 1.758-2.4009zm3.5185 0-1.7704 2.4033-1.7481-2.4033 1.7605-2.4009zm3.5185 0-1.7704 2.4033-1.758-2.4033 1.758-2.4009zm3.516 0-1.7679 2.4033-1.758-2.4033 1.758-2.4009zm3.5185 0-1.7704 2.4033-1.758-2.4033 1.758-2.4033zm-14.071 4.8116-1.758 2.4033-1.758-2.4033 1.758-2.4033zm3.5185 0-1.7605 2.4058-1.758-2.4058 1.7605-2.4009zm3.5185 0-1.7604 2.4058-1.758-2.4033 1.7481-2.4108zm3.516 0-1.758 2.4033-1.758-2.4033 1.758-2.4033zm3.5185 0-1.7605 2.4058-1.758-2.4033 1.758-2.4009zm-1.9558-24.342h-1.4638c-0.34864-0.6577-0.8382-1.0929-1.3822-1.1547h-1.8074a1.5157 1.5157 0 0 0-0.78626 0.35358 2.7421 2.7421 0 0 1-0.68738 0.40302 0.82584 0.82584 0 0 0 0.40797-0.69232 0.76155 0.76155 0 0 0-0.0149-0.15082l-0.47967-1.0088 1.0088 0.49452v-2.0028l-1.0113 0.49452 0.50934-1.0088h-2.2797l0.50934 1.0088-1.0113-0.49452v2.0028l1.0113-0.49452-0.48213 1.0088a0.76155 0.76155 0 0 0-0.0148 0.15082 0.82584 0.82584 0 0 0 0.40797 0.69232 2.7421 2.7421 0 0 1-0.68736-0.40302 1.5083 1.5083 0 0 0-0.79616-0.361h-1.8099c-0.54396 0.061859-1.0335 0.49452-1.3822 1.1547h-1.4638c-1.8717 0.11868-3.3553 1.4588-3.3553 3.1031a3.066 3.066 0 0 0 1.7654 2.6728c1.1497 0.6305 1.8816 1.6591 1.936 2.7198h-0.24725a0.39808 0.39808 0 1 0 0 0.78627v0.81348a0.39808 0.39808 0 1 0 0 0.78874h13.508a0.39808 0.39808 0 1 0 0-0.78874v-0.81348a0.39808 0.39808 0 1 0 0-0.78627h-0.24725c0.0544-1.0558 0.78628-2.0844 1.936-2.7198a3.066 3.066 0 0 0 1.7654-2.6728c0.0124-1.6443-1.4786-2.9844-3.3553-3.0957zm-3.7583-0.15083a2.166 2.166 0 0 1 0.39561 0.49452 7.7812 7.7812 0 0 1-1.753 0.42281c-0.0174-0.098905-0.042-0.19781-0.0618-0.29423a3.2885 3.2885 0 0 0 1.4291-0.6231zm-6.1987 0a3.2885 3.2885 0 0 0 1.4192 0.63051c-0.0198 0.096424-0.042 0.19532-0.0618 0.29423a7.8158 7.8158 0 0 1-1.753-0.42281 2.2253 2.2253 0 0 1 0.40549-0.50194zm-1.2981 8.6317c-0.0519-1.261-0.91238-2.4948-2.2797-3.2415a2.4553 2.4553 0 0 1-1.4192-2.1437c0-1.1695 0.9272-2.1511 2.1783-2.4231 0.0767 0.017261 0.1533 0.037099 0.22747 0.059379a5.5905 5.5905 0 0 0-0.24725 1.6368c0 1.1967 0.35852 2.3193 0.93711 2.9671l0.58599 0.82089a5.4174 5.4174 0 0 1 0.59588 2.3267zm3.2366-0.08163-0.0149 0.07913h-0.69231a6.4559 6.4559 0 0 0-0.74178-2.8657 6.755 6.755 0 0 0-0.56375-0.80111c-0.49451-0.50687-0.81348-1.4465-0.81348-2.4454a4.5668 4.5668 0 0 1 0.12365-1.083 11.374 11.374 0 0 0 2.0151 0.20027 8.4067 8.4067 0 0 0-0.047 0.88024 8.968 8.968 0 0 0 0.10138 1.3203s0.0173 0.20276 0.39809 1.6863c0.26455 0.98655 0.39066 2.297 0.24478 3.0289zm1.1596 2.0868-1.036-0.66759 1.0459-0.67502 1.0508 0.67502zm2.6184-4.871a6.4287 6.4287 0 0 0-0.74178 2.8657h-0.69231l-0.0149-0.07913c-0.14587-0.74177-0.0198-2.0522 0.22995-3.0264 0.38078-1.4835 0.39808-1.6863 0.39808-1.6863a8.968 8.968 0 0 0 0.10139-1.3203 8.4067 8.4067 0 0 0-0.0471-0.88023 11.374 11.374 0 0 0 2.0151-0.20029 4.5644 4.5644 0 0 1 0.1261 1.083c0 0.98902-0.31154 1.9385-0.81593 2.4454a6.755 6.755 0 0 0-0.55881 0.79864zm4.0723-0.37583c-1.3698 0.74177-2.2253 1.9781-2.2822 3.2415h-0.58848a5.3482 5.3482 0 0 1 0.5959-2.3267l0.586-0.8209c0.5761-0.64533 0.93462-1.7679 0.93462-2.9671a5.6869 5.6869 0 0 0-0.23241-1.6368c0.0742-0.022271 0.14836-0.042012 0.22499-0.05937 1.2511 0.27198 2.1808 1.2536 2.1808 2.4231a2.4726 2.4726 0 0 1-1.4192 2.1462z" fill="#fff" stroke="#fff" stroke-width="1.385"/>
 <path class="c" d="m8.4064 20.418-1.758 2.4009-1.758-2.4009 1.758-2.4033zm3.5185 0-1.7605 2.4033-1.758-2.4058 1.7605-2.4009zm3.5185 0-1.7604 2.4033-1.758-2.4033 1.758-2.4009zm3.516 0-1.758 2.4009-1.758-2.4009 1.758-2.4033zm3.5185 0-1.7605 2.4033-1.758-2.4033 1.758-2.4009zm-14.071 4.8561-1.7679 2.4033-1.758-2.4033 1.758-2.4009zm3.5185 0-1.7704 2.4033-1.7481-2.4033 1.7605-2.4009zm3.5185 0-1.7704 2.4033-1.758-2.4033 1.758-2.4009zm3.516 0-1.7679 2.4033-1.758-2.4033 1.758-2.4009zm3.5185 0-1.7704 2.4033-1.758-2.4033 1.758-2.4033zm-14.071 4.8116-1.758 2.4033-1.758-2.4033 1.758-2.4033zm3.5185 0-1.7605 2.4058-1.758-2.4058 1.7605-2.4009zm3.5185 0-1.7604 2.4058-1.758-2.4033 1.7481-2.4108zm3.516 0-1.758 2.4033-1.758-2.4033 1.758-2.4033zm3.5185 0-1.7605 2.4058-1.758-2.4033 1.758-2.4009zm-1.9558-24.342h-1.4638c-0.34864-0.6577-0.8382-1.0929-1.3822-1.1547h-1.8074a1.5157 1.5157 0 0 0-0.78626 0.35358 2.7421 2.7421 0 0 1-0.68738 0.40302 0.82584 0.82584 0 0 0 0.40797-0.69232 0.76155 0.76155 0 0 0-0.0149-0.15082l-0.47967-1.0088 1.0088 0.49452v-2.0028l-1.0113 0.49452 0.50934-1.0088h-2.2797l0.50934 1.0088-1.0113-0.49452v2.0028l1.0113-0.49452-0.48213 1.0088a0.76155 0.76155 0 0 0-0.0148 0.15082 0.82584 0.82584 0 0 0 0.40797 0.69232 2.7421 2.7421 0 0 1-0.68736-0.40302 1.5083 1.5083 0 0 0-0.79616-0.361h-1.8099c-0.54396 0.061859-1.0335 0.49452-1.3822 1.1547h-1.4638c-1.8717 0.11868-3.3553 1.4588-3.3553 3.1031a3.066 3.066 0 0 0 1.7654 2.6728c1.1497 0.6305 1.8816 1.6591 1.936 2.7198h-0.24725a0.39808 0.39808 0 1 0 0 0.78627v0.81348a0.39808 0.39808 0 1 0 0 0.78874h13.508a0.39808 0.39808 0 1 0 0-0.78874v-0.81348a0.39808 0.39808 0 1 0 0-0.78627h-0.24725c0.0544-1.0558 0.78628-2.0844 1.936-2.7198a3.066 3.066 0 0 0 1.7654-2.6728c0.0124-1.6443-1.4786-2.9844-3.3553-3.0957zm-3.7583-0.15083a2.166 2.166 0 0 1 0.39561 0.49452 7.7812 7.7812 0 0 1-1.753 0.42281c-0.0174-0.098905-0.042-0.19781-0.0618-0.29423a3.2885 3.2885 0 0 0 1.4291-0.6231zm-6.1987 0a3.2885 3.2885 0 0 0 1.4192 0.63051c-0.0198 0.096424-0.042 0.19532-0.0618 0.29423a7.8158 7.8158 0 0 1-1.753-0.42281 2.2253 2.2253 0 0 1 0.40549-0.50194zm-1.2981 8.6317c-0.0519-1.261-0.91238-2.4948-2.2797-3.2415a2.4553 2.4553 0 0 1-1.4192-2.1437c0-1.1695 0.9272-2.1511 2.1783-2.4231 0.0767 0.017261 0.1533 0.037099 0.22747 0.059379a5.5905 5.5905 0 0 0-0.24725 1.6368c0 1.1967 0.35852 2.3193 0.93711 2.9671l0.58599 0.8209a5.4174 5.4174 0 0 1 0.59588 2.3267zm3.2366-0.08163-0.0149 0.07913h-0.69231a6.4559 6.4559 0 0 0-0.74178-2.8657 6.755 6.755 0 0 0-0.56375-0.80111c-0.49451-0.50687-0.81348-1.4465-0.81348-2.4454a4.5668 4.5668 0 0 1 0.12365-1.083 11.374 11.374 0 0 0 2.0151 0.20027 8.4067 8.4067 0 0 0-0.047 0.88024 8.968 8.968 0 0 0 0.10138 1.3203s0.0173 0.20276 0.39809 1.6863c0.26455 0.98655 0.39066 2.297 0.24478 3.0289zm1.1596 2.0868-1.036-0.66759 1.0459-0.67502 1.0508 0.67502zm2.6184-4.871a6.4287 6.4287 0 0 0-0.74178 2.8657h-0.69231l-0.0149-0.07913c-0.14587-0.74177-0.0198-2.0522 0.22995-3.0264 0.38078-1.4835 0.39808-1.6863 0.39808-1.6863a8.968 8.968 0 0 0 0.10139-1.3203 8.4067 8.4067 0 0 0-0.0471-0.88023 11.374 11.374 0 0 0 2.0151-0.20029 4.5644 4.5644 0 0 1 0.1261 1.083c0 0.98902-0.31154 1.9385-0.81593 2.4454a6.755 6.755 0 0 0-0.55881 0.79864zm4.0723-0.37583c-1.3698 0.74177-2.2253 1.9781-2.2822 3.2415h-0.58848a5.3482 5.3482 0 0 1 0.5959-2.3267l0.586-0.8209c0.5761-0.64533 0.93462-1.7679 0.93462-2.9671a5.6869 5.6869 0 0 0-0.23241-1.6368c0.0742-0.022271 0.14836-0.042012 0.22499-0.05937 1.2511 0.27198 2.1808 1.2536 2.1808 2.4231a2.4726 2.4726 0 0 1-1.4192 2.1462z" fill="#96232d" stroke-width=".24726"/>
 <g transform="matrix(.60611 0 0 .60611 -192.44 32.745)">
  <g transform="matrix(.44483 0 0 .44483 123.45 -88.45)" fill="#fff">
   <path d="m582.12 106.73c0 0.44-0.14 0.68-0.43 0.72a10.3 10.3 0 0 0-4.39 1.2c-0.78 0.55-1.16 1.65-1.16 3.31v3.14a18.3 18.3 0 0 0 0.59 5.66 49.92 49.92 0 0 1-7.7 2.31 35.46 35.46 0 0 1-7.3 0.89 23 23 0 0 1-10.74-2.4 17.44 17.44 0 0 1-7.19-6.87 19.61 19.61 0 0 1-2.57-9.94 18.73 18.73 0 0 1 2.79-10 19 19 0 0 1 7.7-7.05 24 24 0 0 1 11.13-2.51 33.38 33.38 0 0 1 6.5 0.85 29.26 29.26 0 0 0 5.5 0.75c0.23 2.49 0.65 5.51 1.24 9.07 0 0.29-0.29 0.43-0.86 0.43-0.38 0-0.6-0.14-0.67-0.43q-2.37-9-12.56-9a13.21 13.21 0 0 0-10.59 5.17 19.18 19.18 0 0 0-4.28 12.67 18.77 18.77 0 0 0 4.23 12.39 13 13 0 0 0 10.35 5.11q9 0 9-4.43v-7.06a2.16 2.16 0 0 0-1.43-2.1 29 29 0 0 0-6.81-1.16c-0.28 0-0.43-0.26-0.43-0.79s0.15-0.73 0.43-0.73c1.2 0 3 0 5.31 0.13s3.92 0.14 5 0.14 2.49 0 4.26-0.14 3.44-0.13 4.64-0.13c0.32 0.07 0.44 0.3 0.44 0.8z"/>
   <path d="m609.66 111.74a11.75 11.75 0 0 1-3.48 8.74 13.56 13.56 0 0 1-18 0 11.75 11.75 0 0 1-3.49-8.73 12.5 12.5 0 1 1 25 0zm-5.42 0a14.16 14.16 0 0 0-1.89-7.8 6 6 0 0 0-10.36 0 14.1 14.1 0 0 0-1.91 7.79 13.77 13.77 0 0 0 1.88 7.67 6.19 6.19 0 0 0 10.4 0 13.71 13.71 0 0 0 1.88-7.71z"/>
   <path d="m639 121.36c0 0.38-0.14 0.59-0.43 0.62-3.25 0.36-5.48 1-6.67 1.85a1.29 1.29 0 0 1-0.75 0.29c-0.36 0-0.54-0.14-0.54-0.43l0.21-3.36c-2.64 2.38-5 3.58-7.18 3.58a7.13 7.13 0 0 1-7.78-7.7v-10a5.6 5.6 0 0 0-0.61-3.15 3.08 3.08 0 0 0-2.45-0.77h-0.77c-0.27 0-0.41-0.23-0.41-0.69s0.15-0.84 0.43-0.84a36.76 36.76 0 0 0 8.13-1.2c0.32 0 0.48 0.23 0.48 0.67v14.67a6.76 6.76 0 0 0 1.16 4.39 4.46 4.46 0 0 0 3.62 1.37 6.34 6.34 0 0 0 2.8-0.58 8.92 8.92 0 0 0 2.58-2.09v-11.8a5.38 5.38 0 0 0-0.63-3.14 3.08 3.08 0 0 0-2.5-0.79h-0.76c-0.26 0-0.4-0.23-0.4-0.69s0.15-0.84 0.43-0.84a37 37 0 0 0 8.15-1.2c0.33 0 0.49 0.23 0.49 0.67v17a4.08 4.08 0 0 0 0.52 2.47 4 4 0 0 0 2.45 0.89c0.28 0.09 0.43 0.33 0.43 0.8z"/>
   <path d="m665 100.84c0 0.46-0.14 0.7-0.43 0.74a4.87 4.87 0 0 0-3 1.07 13.94 13.94 0 0 0-1.91 3.44l-7.66 17.44a0.71 0.71 0 0 1-1.31 0l-7.22-17.44a9.27 9.27 0 0 0-2-3.37 5.13 5.13 0 0 0-2.76-1.14c-0.29 0-0.43-0.28-0.43-0.72s0.14-0.75 0.42-0.75c0.71 0 1.59 0.06 2.65 0.16s2.13 0.16 3 0.16 1.88-0.05 3.1-0.16 2-0.16 2.74-0.16c0.29 0 0.43 0.25 0.43 0.75s-0.14 0.68-0.43 0.72a6.42 6.42 0 0 0-2.22 0.57 1.15 1.15 0 0 0-0.6 1 9.52 9.52 0 0 0 0.78 2.86l4.34 10.5 4.45-10.47a8.82 8.82 0 0 0 0.84-2.89 1.14 1.14 0 0 0-0.62-1 6.33 6.33 0 0 0-2.15-0.57c-0.29 0-0.43-0.28-0.43-0.72s0.14-0.75 0.43-0.75a24.86 24.86 0 0 1 2.55 0.16 20.89 20.89 0 0 0 2.47 0.16c0.37 0 1 0 1.82-0.13a26.24 26.24 0 0 1 2.81-0.19c0.22 0 0.34 0.24 0.34 0.73z"/>
   <path d="m687.1 108c0 0.5-0.33 0.75-1 0.75h-14.66a26.29 26.29 0 0 0-0.17 3 9.61 9.61 0 0 0 2.06 6.6 7.38 7.38 0 0 0 5.83 2.31 8.22 8.22 0 0 0 3.83-1 9 9 0 0 0 3.11-2.66l0.14-0.06a0.62 0.62 0 0 1 0.47 0.3 1.08 1.08 0 0 1 0.22 0.69c0 0.38-0.57 1.15-1.71 2.33a12.47 12.47 0 0 1-3.73 2.71 9.91 9.91 0 0 1-4.21 0.94 10.68 10.68 0 0 1-8.12-3.53 12.14 12.14 0 0 1-3.3-8.64 12.83 12.83 0 0 1 3.23-8.86 10.51 10.51 0 0 1 8.19-3.62 9.71 9.71 0 0 1 7 2.71 8.17 8.17 0 0 1 2.82 6.03zm-4.88-2.34a4.39 4.39 0 0 0-1.38-3.32 5 5 0 0 0-3.56-1.33 4.64 4.64 0 0 0-3.58 1.73 9.33 9.33 0 0 0-2.05 4.52l7.45-0.22a7 7 0 0 0 2.41-0.32 1.06 1.06 0 0 0 0.71-1.11z"/>
   <path d="m709 101.92a2.65 2.65 0 0 1-0.66 1.82 2.05 2.05 0 0 1-1.6 0.75 4.14 4.14 0 0 1-2.33-0.78 2.93 2.93 0 0 0-1.58-0.61 5.07 5.07 0 0 0-3.59 2v12a5 5 0 0 0 0.8 3.24c0.54 0.62 1.68 1 3.44 1.27q0.42 0 0.42 0.72t-0.42 0.75c-0.74 0-1.77-0.06-3.11-0.16s-2.66-0.16-3.53-0.16-2 0-3.23 0.16-2.09 0.16-2.82 0.16c-0.28 0-0.43-0.25-0.43-0.75s0.15-0.69 0.43-0.72c1.56-0.2 2.55-0.56 3-1.09s0.66-1.67 0.66-3.41v-9.86a4.72 4.72 0 0 0-0.55-2.79 3.77 3.77 0 0 0-2.46-0.88c-0.28 0-0.43-0.24-0.43-0.71s0.15-0.65 0.43-0.65a24.1 24.1 0 0 0 4.38-1.49 7.86 7.86 0 0 0 2.26-1.4 0.92 0.92 0 0 1 0.64-0.32c0.49 0 0.74 0.15 0.74 0.43l-0.21 3.36a18.53 18.53 0 0 1 3.68-2.77 6.57 6.57 0 0 1 3.07-0.8 3 3 0 0 1 2.12 0.8 2.44 2.44 0 0 1 0.88 1.89z"/>
   <path d="m738.63 122.36c0 0.5-0.14 0.75-0.43 0.75-0.71 0-1.59-0.06-2.63-0.16s-2.14-0.16-3-0.16-1.91 0-3.07 0.16-1.94 0.16-2.65 0.16c-0.29 0-0.43-0.25-0.43-0.75s0.15-0.69 0.43-0.72a3.31 3.31 0 0 0 2.43-1 6.78 6.78 0 0 0 0.58-3.47v-8.91a6.69 6.69 0 0 0-1.18-4.37 4.53 4.53 0 0 0-3.65-1.39 6 6 0 0 0-2.75 0.59 9.09 9.09 0 0 0-2.56 2.08v12a6.92 6.92 0 0 0 0.57 3.47 3.33 3.33 0 0 0 2.43 1c0.29 0 0.43 0.27 0.43 0.72s-0.14 0.75-0.43 0.75c-0.73 0-1.62-0.06-2.68-0.16s-2.18-0.16-3.06-0.16-1.86 0-3 0.16-2 0.16-2.68 0.16c-0.29 0-0.43-0.25-0.43-0.75s0.14-0.69 0.43-0.72a4.75 4.75 0 0 0 3-1.11 5.84 5.84 0 0 0 0.67-3.39v-9.86a4.87 4.87 0 0 0-0.55-2.8 3.83 3.83 0 0 0-2.46-0.87c-0.28 0-0.43-0.24-0.43-0.71s0.15-0.65 0.43-0.65a24.68 24.68 0 0 0 4.43-1.51 7.33 7.33 0 0 0 2.22-1.38 0.79 0.79 0 0 1 0.59-0.32c0.5 0 0.75 0.15 0.75 0.43l-0.21 3.36q3.85-3.57 7.17-3.57a7.14 7.14 0 0 1 7.74 7.68v10.19c0 1.74 0.22 2.88 0.66 3.41s1.41 0.9 2.93 1.1c0.25 0.03 0.39 0.27 0.39 0.72z"/>
   <path d="m762.07 108c0 0.5-0.32 0.75-1 0.75h-14.66a26.33 26.33 0 0 0-0.16 3q0 4.29 2 6.6a7.39 7.39 0 0 0 5.83 2.31 8.22 8.22 0 0 0 3.83-1 9.18 9.18 0 0 0 3.12-2.59l0.13-0.06a0.62 0.62 0 0 1 0.47 0.3 1.08 1.08 0 0 1 0.23 0.69c0 0.38-0.58 1.15-1.72 2.33a12.47 12.47 0 0 1-3.73 2.71 9.91 9.91 0 0 1-4.21 0.94 10.68 10.68 0 0 1-8.12-3.53 12.14 12.14 0 0 1-3.3-8.64 12.83 12.83 0 0 1 3.23-8.86 10.5 10.5 0 0 1 8.19-3.62 9.71 9.71 0 0 1 7 2.71 8.17 8.17 0 0 1 2.87 5.96zm-4.88-2.34a4.36 4.36 0 0 0-1.39-3.32 4.93 4.93 0 0 0-3.55-1.33 4.62 4.62 0 0 0-3.58 1.73 9.33 9.33 0 0 0-2 4.52l7.46-0.22a6.85 6.85 0 0 0 2.39-0.32 1.06 1.06 0 0 0 0.67-1.11z"/>
   <path d="m808.1 122.36q0 0.75-0.42 0.75c-0.72 0-1.59-0.06-2.63-0.16s-2.16-0.16-3-0.16-1.88 0-3 0.16-1.91 0.16-2.64 0.16c-0.29 0-0.43-0.25-0.43-0.75s0.14-0.69 0.43-0.72a3.2 3.2 0 0 0 2.38-1 7 7 0 0 0 0.56-3.47v-8.91a6.79 6.79 0 0 0-1.15-4.39 4.42 4.42 0 0 0-3.61-1.37 7.09 7.09 0 0 0-5.34 2.19v12.48a6.78 6.78 0 0 0 0.58 3.47 3.34 3.34 0 0 0 2.41 1c0.29 0 0.43 0.27 0.43 0.72s-0.15 0.75-0.43 0.75a24.47 24.47 0 0 1-2.5-0.16 27.19 27.19 0 0 0-2.85-0.16 28.35 28.35 0 0 0-2.93 0.16 24.65 24.65 0 0 1-2.5 0.16c-0.29 0-0.43-0.25-0.43-0.75s0.14-0.69 0.43-0.72a3.29 3.29 0 0 0 2.43-1 6.78 6.78 0 0 0 0.58-3.47v-8.91a6.64 6.64 0 0 0-1.18-4.37 4.54 4.54 0 0 0-3.66-1.39 6 6 0 0 0-2.75 0.59 9 9 0 0 0-2.57 2.08v12a6.78 6.78 0 0 0 0.58 3.47 3.29 3.29 0 0 0 2.43 1c0.29 0 0.43 0.27 0.43 0.72s-0.14 0.75-0.43 0.75c-0.73 0-1.62-0.06-2.67-0.16s-2.18-0.16-3.06-0.16-1.9 0-3 0.16-1.89 0.16-2.62 0.16c-0.29 0-0.43-0.25-0.43-0.75s0.14-0.69 0.43-0.72a4.67 4.67 0 0 0 2.93-1.09c0.44-0.54 0.66-1.67 0.66-3.41v-9.86a4.78 4.78 0 0 0-0.55-2.8 3.73 3.73 0 0 0-2.4-0.87c-0.29 0-0.43-0.24-0.43-0.71s0.14-0.65 0.43-0.65a24.69 24.69 0 0 0 4.41-1.51 7.47 7.47 0 0 0 2.22-1.38 0.75 0.75 0 0 1 0.58-0.32c0.5 0 0.75 0.15 0.75 0.43l-0.21 3.36c2.58-2.38 5-3.57 7.21-3.57q5.12 0 6.94 3.89 4.07-3.89 7.94-3.89a7.12 7.12 0 0 1 7.75 7.68v10.19c0 1.74 0.22 2.88 0.66 3.41a4.64 4.64 0 0 0 2.94 1.1q0.3 0.05 0.3 0.72z"/>
   <path d="m831.51 108q0 0.75-1 0.75h-14.7a28.86 28.86 0 0 0-0.16 3 9.66 9.66 0 0 0 2 6.6 7.41 7.41 0 0 0 5.84 2.31 8.25 8.25 0 0 0 3.83-1 9 9 0 0 0 3.11-2.59l0.14-0.06a0.6 0.6 0 0 1 0.46 0.3 1 1 0 0 1 0.23 0.69c0 0.38-0.57 1.15-1.71 2.33a12.47 12.47 0 0 1-3.73 2.71 9.91 9.91 0 0 1-4.21 0.94 10.67 10.67 0 0 1-8.12-3.53 12.14 12.14 0 0 1-3.3-8.64 12.83 12.83 0 0 1 3.23-8.86 10.5 10.5 0 0 1 8.19-3.62 9.67 9.67 0 0 1 7 2.71 8.13 8.13 0 0 1 2.9 5.96zm-4.88-2.34a4.36 4.36 0 0 0-1.38-3.32 4.93 4.93 0 0 0-3.55-1.34 4.62 4.62 0 0 0-3.58 1.73 9.33 9.33 0 0 0-2 4.52l7.45-0.22a6.88 6.88 0 0 0 2.4-0.32 1 1 0 0 0 0.66-1.1z"/>
   <path d="m862.56 122.36q0 0.75-0.42 0.75c-0.72 0-1.6-0.06-2.63-0.16s-2.15-0.16-3-0.16-1.91 0-3.07 0.16-1.93 0.16-2.64 0.16c-0.29 0-0.43-0.25-0.43-0.75s0.14-0.69 0.43-0.72a3.29 3.29 0 0 0 2.42-1 6.78 6.78 0 0 0 0.58-3.47v-8.91a6.64 6.64 0 0 0-1.18-4.37 4.52 4.52 0 0 0-3.65-1.39 6 6 0 0 0-2.75 0.59 9.23 9.23 0 0 0-2.56 2.08v12a6.89 6.89 0 0 0 0.58 3.47 3.29 3.29 0 0 0 2.43 1c0.28 0 0.43 0.27 0.43 0.72s-0.15 0.75-0.43 0.75c-0.74 0-1.63-0.06-2.69-0.16s-2.18-0.16-3.05-0.16-1.86 0-3 0.16-1.94 0.16-2.68 0.16c-0.28 0-0.43-0.25-0.43-0.75s0.15-0.69 0.43-0.72a4.75 4.75 0 0 0 3-1.11 5.84 5.84 0 0 0 0.67-3.39v-9.86a4.78 4.78 0 0 0-0.55-2.8 3.8 3.8 0 0 0-2.45-0.87c-0.29 0-0.43-0.24-0.43-0.71s0.14-0.65 0.43-0.65a24.55 24.55 0 0 0 4.42-1.51 7.56 7.56 0 0 0 2.23-1.38 0.77 0.77 0 0 1 0.59-0.32c0.5 0 0.75 0.15 0.75 0.43l-0.22 3.36q3.86-3.57 7.18-3.57a7.12 7.12 0 0 1 7.73 7.68v10.19c0 1.74 0.22 2.88 0.66 3.41a4.64 4.64 0 0 0 2.94 1.1q0.36 0.05 0.36 0.72z"/>
   <path d="m881.39 101.87c0 1-0.23 1.44-0.7 1.44l-8-0.21v12.8q0 5 3.59 5a8 8 0 0 0 4.05-1 0.49 0.49 0 0 1 0.39 0.28 1.07 1.07 0 0 1 0.17 0.6c0 0.44-0.66 1-2 1.8a8.85 8.85 0 0 1-4.48 1.13 6.48 6.48 0 0 1-4.87-1.85 6.67 6.67 0 0 1-1.82-4.9v-0.24l0.11-13c0-0.5-0.22-0.75-0.65-0.75h-2c-0.39 0-0.59-0.22-0.59-0.68a0.85 0.85 0 0 1 0.49-0.79 20.57 20.57 0 0 0 6.46-6.18 0.88 0.88 0 0 1 0.75-0.43q0.75 0 0.75 0.42l-0.21 5.1h7.88c0.45 0.02 0.68 0.5 0.68 1.46z"/>
   <path d="m928 96.88a10.07 10.07 0 0 1-3.63 7.88 13.09 13.09 0 0 1-9 3.19c-2.14 0-4.25-0.08-6.32-0.26v9.44a5.24 5.24 0 0 0 0.47 2.61 3.14 3.14 0 0 0 1.63 1.19 15.14 15.14 0 0 0 3.42 0.71c0.29 0 0.43 0.27 0.43 0.72s-0.14 0.75-0.43 0.75c-1.2 0-2.62-0.06-4.26-0.16s-2.91-0.16-4-0.16-2.43 0-4 0.16-3.09 0.16-4.29 0.16c-0.28 0-0.43-0.25-0.43-0.75s0.15-0.69 0.43-0.72a10.27 10.27 0 0 0 4.41-1.2c0.78-0.55 1.17-1.66 1.17-3.31v-25.13a5.38 5.38 0 0 0-0.47-2.63 3.18 3.18 0 0 0-1.65-1.2 16.67 16.67 0 0 0-3.46-0.71c-0.28 0-0.43-0.24-0.43-0.73s0.15-0.73 0.43-0.73c1.2 0 2.63 0 4.29 0.16s2.93 0.16 4 0.16 2.42 0 4-0.16 3.06-0.16 4.26-0.16q6.58 0 10 2.77c2.28 1.85 3.43 4.56 3.43 8.11zm-5.93 0a9.86 9.86 0 0 0-2.1-6.69 7.08 7.08 0 0 0-5.59-2.4 12.26 12.26 0 0 0-3.23 0.32 2.67 2.67 0 0 0-1.61 1 5.89 5.89 0 0 0-0.47 2.86v12.28a1.59 1.59 0 0 0 0.72 1.54 8 8 0 0 0 3.14 0.39 8.93 8.93 0 0 0 6.76-2.49 9.49 9.49 0 0 0 2.37-6.81z"/>
   <path d="m947.89 101.92a2.65 2.65 0 0 1-0.66 1.82 2.05 2.05 0 0 1-1.6 0.75 4.14 4.14 0 0 1-2.33-0.78 3 3 0 0 0-1.58-0.61 5.07 5.07 0 0 0-3.59 2v12a5 5 0 0 0 0.8 3.24c0.54 0.62 1.68 1 3.43 1.27 0.29 0 0.43 0.27 0.43 0.72s-0.14 0.75-0.43 0.75c-0.73 0-1.77-0.06-3.11-0.16s-2.65-0.16-3.52-0.16-2 0-3.23 0.16-2.09 0.16-2.82 0.16c-0.29 0-0.43-0.25-0.43-0.75s0.14-0.69 0.43-0.72c1.56-0.2 2.55-0.56 3-1.09a6 6 0 0 0 0.66-3.41v-9.86a4.81 4.81 0 0 0-0.55-2.79 3.77 3.77 0 0 0-2.46-0.88c-0.28 0-0.43-0.24-0.43-0.71s0.15-0.65 0.43-0.65a24.1 24.1 0 0 0 4.38-1.49 7.62 7.62 0 0 0 2.25-1.4 1 1 0 0 1 0.64-0.32c0.5 0 0.75 0.15 0.75 0.43l-0.21 3.36a18.25 18.25 0 0 1 3.68-2.77 6.54 6.54 0 0 1 3.07-0.8 3 3 0 0 1 2.12 0.8 2.44 2.44 0 0 1 0.88 1.89z"/>
   <path d="m962.15 122.36c0 0.5-0.14 0.75-0.43 0.75-0.73 0-1.67-0.06-2.81-0.16s-2.36-0.16-3.23-0.16-2 0-3.21 0.16-2.05 0.16-2.79 0.16c-0.28 0-0.43-0.25-0.43-0.75s0.15-0.69 0.43-0.72a4.71 4.71 0 0 0 2.94-1.09 6 6 0 0 0 0.65-3.41v-9.86a4.88 4.88 0 0 0-0.54-2.8 3.74 3.74 0 0 0-2.41-0.87c-0.28 0-0.42-0.24-0.42-0.71s0.14-0.66 0.42-0.66a27.67 27.67 0 0 0 4.6-1.53 7.17 7.17 0 0 0 2.25-1.35 0.77 0.77 0 0 1 0.59-0.32c0.49 0 0.74 0.15 0.74 0.43q-0.42 6-0.42 9.28v8.38c0 1.74 0.21 2.88 0.65 3.42a4.8 4.8 0 0 0 3 1.09c0.27 0.03 0.42 0.27 0.42 0.72zm-3.75-32.25a2.69 2.69 0 0 1-0.82 1.94 2.79 2.79 0 0 1-4.76-1.94 2.79 2.79 0 1 1 5.58 0z"/>
   <path d="m992 122.36c0 0.5-0.14 0.75-0.43 0.75-0.72 0-1.59-0.06-2.63-0.16s-2.15-0.16-3-0.16-1.92 0-3.08 0.16-1.93 0.16-2.64 0.16c-0.29 0-0.43-0.25-0.43-0.75s0.14-0.69 0.43-0.72a3.33 3.33 0 0 0 2.43-1 6.92 6.92 0 0 0 0.57-3.47v-8.91a6.64 6.64 0 0 0-1.18-4.37 4.49 4.49 0 0 0-3.64-1.39 6 6 0 0 0-2.75 0.59 9 9 0 0 0-2.56 2.08v12a6.92 6.92 0 0 0 0.57 3.47 3.33 3.33 0 0 0 2.43 1c0.29 0 0.43 0.27 0.43 0.72s-0.14 0.75-0.43 0.75c-0.73 0-1.63-0.06-2.68-0.16s-2.18-0.16-3.06-0.16-1.86 0-3 0.16-1.95 0.16-2.68 0.16c-0.29 0-0.43-0.25-0.43-0.75s0.14-0.69 0.43-0.72a4.75 4.75 0 0 0 3-1.11 5.84 5.84 0 0 0 0.67-3.39v-9.86a4.77 4.77 0 0 0-0.56-2.8 3.77 3.77 0 0 0-2.45-0.87c-0.29 0-0.43-0.24-0.43-0.71s0.14-0.65 0.43-0.65a24.28 24.28 0 0 0 4.42-1.51 7.42 7.42 0 0 0 2.23-1.38 0.79 0.79 0 0 1 0.59-0.32c0.5 0 0.75 0.15 0.75 0.43l-0.21 3.36c2.56-2.38 5-3.57 7.17-3.57a7.12 7.12 0 0 1 7.73 7.68v10.19a6 6 0 0 0 0.66 3.41 4.64 4.64 0 0 0 2.94 1.1c0.22 0.03 0.39 0.27 0.39 0.72z"/>
   <path d="m1014.9 103.47a1.94 1.94 0 0 1-2.2 2.19 2.69 2.69 0 0 1-1.54-0.4 4.28 4.28 0 0 1-1.22-1.73 4.62 4.62 0 0 0-1.54-2.07 4.11 4.11 0 0 0-2.14-0.5 5.53 5.53 0 0 0-5 2.68q-1.69 2.69-1.7 7.84a10.6 10.6 0 0 0 2.15 6.92 7 7 0 0 0 5.74 2.62 8.45 8.45 0 0 0 6.46-2.53h0.13a0.62 0.62 0 0 1 0.47 0.3 1.14 1.14 0 0 1 0.23 0.68c0 0.36-0.52 1-1.57 1.84a11.16 11.16 0 0 1-3.43 2 11.76 11.76 0 0 1-4 0.67 11 11 0 0 1-8.21-3.51 12.16 12.16 0 0 1-3.42-8.87 12.05 12.05 0 0 1 12.06-12.27 13.7 13.7 0 0 1 6.13 1.24c1.73 0.76 2.6 1.75 2.6 2.9z"/>
   <path d="m1031.3 122.36c0 0.5-0.14 0.75-0.43 0.75-0.73 0-1.67-0.06-2.81-0.16s-2.36-0.16-3.24-0.16-1.95 0-3.2 0.16-2 0.16-2.79 0.16c-0.28 0-0.43-0.25-0.43-0.75s0.15-0.69 0.43-0.72a4.71 4.71 0 0 0 2.94-1.09 6 6 0 0 0 0.65-3.41v-9.86a4.88 4.88 0 0 0-0.54-2.8 3.74 3.74 0 0 0-2.41-0.87c-0.28 0-0.42-0.24-0.42-0.71s0.14-0.66 0.42-0.66a27.67 27.67 0 0 0 4.6-1.53 7.17 7.17 0 0 0 2.25-1.35 0.77 0.77 0 0 1 0.59-0.32c0.49 0 0.74 0.15 0.74 0.43q-0.42 6-0.42 9.28v8.38c0 1.74 0.21 2.88 0.65 3.42a4.8 4.8 0 0 0 3 1.09c0.28 0.03 0.42 0.27 0.42 0.72zm-3.75-32.25a2.69 2.69 0 0 1-0.82 1.94 2.79 2.79 0 0 1-4.76-1.94 2.79 2.79 0 1 1 5.58 0z"/>
   <path d="m1055.2 108q0 0.75-1 0.75h-14.69a26.29 26.29 0 0 0-0.17 3 9.61 9.61 0 0 0 2.06 6.6 7.38 7.38 0 0 0 5.83 2.31 8.22 8.22 0 0 0 3.83-1 9 9 0 0 0 3.11-2.59l0.14-0.06a0.62 0.62 0 0 1 0.47 0.3 1.08 1.08 0 0 1 0.22 0.69c0 0.38-0.57 1.15-1.71 2.33a12.34 12.34 0 0 1-3.73 2.71 9.91 9.91 0 0 1-4.21 0.94 10.67 10.67 0 0 1-8.12-3.53 12.14 12.14 0 0 1-3.3-8.64 12.83 12.83 0 0 1 3.23-8.86 10.53 10.53 0 0 1 8.19-3.62 9.71 9.71 0 0 1 7 2.71 8.15 8.15 0 0 1 2.85 5.96zm-4.87-2.34a4.36 4.36 0 0 0-1.39-3.32 4.93 4.93 0 0 0-3.55-1.33 4.64 4.64 0 0 0-3.58 1.73 9.33 9.33 0 0 0-2 4.52l7.46-0.22a6.85 6.85 0 0 0 2.39-0.32 1.06 1.06 0 0 0 0.67-1.11z"/>
   <path d="m1077.1 101.92a2.65 2.65 0 0 1-0.66 1.82 2 2 0 0 1-1.59 0.75 4.15 4.15 0 0 1-2.34-0.78 3 3 0 0 0-1.58-0.61 5.07 5.07 0 0 0-3.59 2v12a5 5 0 0 0 0.8 3.24c0.54 0.62 1.68 1 3.43 1.27 0.29 0 0.43 0.27 0.43 0.72s-0.14 0.75-0.43 0.75c-0.73 0-1.76-0.06-3.11-0.16s-2.65-0.16-3.52-0.16-2 0-3.23 0.16-2.09 0.16-2.82 0.16c-0.29 0-0.43-0.25-0.43-0.75s0.14-0.69 0.43-0.72c1.56-0.2 2.55-0.56 3-1.09s0.66-1.67 0.66-3.41v-9.86a4.72 4.72 0 0 0-0.55-2.79 3.77 3.77 0 0 0-2.46-0.88c-0.28 0-0.43-0.24-0.43-0.71s0.15-0.65 0.43-0.65a24.1 24.1 0 0 0 4.38-1.49 7.62 7.62 0 0 0 2.25-1.4 1 1 0 0 1 0.65-0.32c0.49 0 0.74 0.15 0.74 0.43l-0.21 3.36a18.25 18.25 0 0 1 3.68-2.77 6.55 6.55 0 0 1 3.08-0.8 3 3 0 0 1 2.12 0.8 2.42 2.42 0 0 1 0.87 1.89z"/>
  </g>
  <text x="362.96249" y="0.73228127" fill="#000000" font-family="sans-serif" font-size="35.388px" letter-spacing="0px" stroke-width=".73392" word-spacing="0px" style="font-feature-settings:normal;font-variant-caps:normal;font-variant-ligatures:normal;font-variant-numeric:normal;line-height:0.25" xml:space="preserve"><tspan x="362.96249" y="0.73228127" fill="#38cf97" font-family="C059" letter-spacing=".41529px" stroke="#38cf97" stroke-linecap="round" stroke-linejoin="round" stroke-width=".73392">Cluster Client 1</tspan></text>
 </g>
</svg>
