<?xml version="1.0" encoding="UTF-8"?>
<svg width="259.9" height="40" enable-background="new 0 0 259.9 40" version="1.1" viewBox="0 0 259.9 40" xmlns="http://www.w3.org/2000/svg" xmlns:cc="http://creativecommons.org/ns#" xmlns:dc="http://purl.org/dc/elements/1.1/" xmlns:rdf="http://www.w3.org/1999/02/22-rdf-syntax-ns#">
 <metadata>
  <rdf:RDF>
   <cc:Work rdf:about="">
    <dc:format>image/svg+xml</dc:format>
    <dc:type rdf:resource="http://purl.org/dc/dcmitype/StillImage"/>
   </cc:Work>
  </rdf:RDF>
 </metadata>
 <defs>
  <mask x="18" y="94" width="54" height="37" mask-type="alpha" maskUnits="userSpaceOnUse">
   <rect x="18" y="94" width="54" height="37" fill="#c4c4c4"/>
  </mask>
  <mask x="18" y="20" width="57" height="20" mask-type="alpha" maskUnits="userSpaceOnUse">
   <rect x="18" y="20" width="57" height="20" fill="#c4c4c4"/>
  </mask>
 </defs>
 <g transform="matrix(1.6452 0 0 1.6452 22.174 73.694)" fill="#f2f2f2" stroke="#fdfdfd" stroke-linecap="square" stroke-width="1.1339">
  <rect x="-10.45" y="-43.532" width="17.279" height="6.2834"/>
  <path d="m-3.3069-37.99c0.06746-0.06746 0.13554-0.13986 0.20321-0.21254 0.12092-0.14382 0.25322-0.27889 0.39453-0.40418 0.0409-0.0371 0.08407-0.07158 0.12932-0.10324 0.0059-0.0059 0.0089-0.01485 0.0118-0.02375s0.0059-0.01781 0.0118-0.02375c-0.02965 0.0118-0.05341 0.02968-0.07716 0.04748-0.02375 0.01781-0.04751 0.03564-0.07719 0.04751-0.0118 0-0.02375-0.0118-0.0118-0.02372l0.12686-0.09516c-0.0026 1.57e-4 -0.0054 1.57e-4 -0.0081 1.57e-4 -0.0118 0-0.0118-0.0118-0.0118-0.02375-0.15309-0.02354-0.2711 0.08134-0.37729 0.17568l-0.0027 0.0024c-0.0158 8e-3 -0.03166 0-0.04398-0.0062-0.0061-3e-3 -0.01133-0.0057-0.01532-0.0057-0.09334 0.03114-0.17364 0.08835-0.25454 0.14599h-3.2e-5c-0.07349 0.05238-0.14748 0.10509-0.2322 0.13898v-0.02375c-0.02952 0.0099-0.05871 0.023-0.08797 0.03619-0.04135 0.01865-0.08284 0.03739-0.12576 0.0469-0.08037 0.01784-0.154 0.01564-0.22598 0.01341h-1.25e-4c-0.02372-7.54e-4 -0.04725-0.0015-0.07078-0.0015-0.14518 0.01765-0.28932 0.04333-0.4317 0.07687l-0.0062 0.0015-0.0029 6.91e-4 -0.0033 8.8e-4c-0.07703 0.02076-0.15131 0.05067-0.22124 0.0891-0.0027 0.0015-0.0054 3e-3 -0.0081 0.0048-0.0059 0.0073-0.01165 0.01453-0.01719 0.02056-0.02241 0.02861-0.05005 0.05271-0.08144 0.07103-0.05161 0.02627-0.09661 0.06636-0.14128 0.10612-0.01845 0.01644-0.03682 0.03283-0.0556 0.04816-0.0056 0.0038-0.01229 0.0061-0.01904 0.0061-0.01957 0.01878-0.03905 0.03763-0.05857 0.05649v3.2e-5h-3e-5v3.2e-5c-0.04392 0.04245-0.08784 0.08495-0.13265 0.12649-0.01133 0.0053-0.02397 0.0067-0.03623 0.0043 0.0032-5e-3 0.0056-0.0086 0.0078-0.01245 0.01005-0.01677 0.02014-0.03346 0.03042-0.05008 0.01149-0.01858 0.02322-0.03695 0.03522-0.05514 0.01618-0.02456 0.03283-0.04885 0.05054-0.07229 0.0041-0.0045 4e-3 -0.01133-4.39e-4 -0.01564-0.0045-0.0043-0.01037-0.0065-0.01658-0.0062 0.06072-0.0568 0.12759-0.1067 0.19931-0.14874-8e-3 7.23e-4 -0.01944-0.0056-0.01341-0.01404 0.0045-0.0062 0.0083-0.01261 0.01214-0.01894 0.0027-0.0045 0.0054-0.0089 0.0083-0.01341 0.0014-0.0035 0.0026-7e-3 0.0038-0.01053-0.0019-0.0021-0.0037-4e-3 -0.0056-0.0059l-0.0033-0.0035c-0.01955 0.01165-0.03821 0.02463-0.05579 0.03899-0.0086 0.0078-0.01665 0.01797-0.02488 0.02844-0.01891 0.02407-0.03883 0.04939-0.06886 0.04904-0.0061-9.4e-5 -0.01214-9.74e-4 -0.018-0.0026-0.0045-5.97e-4 -0.0086-0.0021-0.01245-0.0043l0.0015-0.0027 0.0018-0.0033 0.0018-3e-3 0.0056-0.01021 3e-3 -0.0054 0.0026-0.0048 0.0046-0.0083c0.0029-5e-3 0.0056-0.0099 0.0085-0.015l0.0024-0.0041 0.0013-0.0022 0.0026-0.0043c0.0035-0.0061 7e-3 -0.01214 0.0107-0.01829l9.5e-5 -1.88e-4 0.0046-0.0077 0.0073-0.01261 0.0053-0.0089 6.4e-5 -6.3e-5 3e-5 -9.4e-5 3.2e-5 -6.4e-5h3.2e-5l0.0035-0.0062 0.0037-0.0062c0.0024-0.0038 0.0029-0.0088 0.0011-0.01292-0.0018-0.0042-0.0054-0.0073-0.01005-0.0083 0.02209-0.02881 0.04973-0.0529 0.08131-0.07084h-0.0035c0.0313-0.0158 0.06259-0.03383 0.09387-0.05193l3.2e-5 -3.2e-5 9.4e-5 -3e-5c0.01404-0.0081 0.02825-0.01634 0.04236-0.02429 0.0045-0.0037 0.0086-0.0075 0.01292-0.01117l0.0067-0.0057c-0.06682 0.0226-0.13038 0.05394-0.189 0.09322-7e-3 0.0027-0.01372 0.0064-0.01989 0.01085-0.01117 0.0024-0.02268-0.0018-0.02963-0.01085-0.0019-0.0026-0.0029-0.0056-0.0029-0.0088 7e-3 -0.01389 0.02193-0.02365 0.03792-0.03412 0.01149-0.0075 0.02344-0.01532 0.03337-0.02526 0.0118 0 0.02368 0 0.02368 0.0118 0.23575-0.18423 0.52633-0.22667 0.81791-0.26924 0.17832-0.02601 0.35706-0.05212 0.52379-0.11074l0.10684-0.07123c0.03055-0.01229 0.05793-0.03386 0.08703-0.05683 0.02748-0.0217 0.05646-0.04461 0.09104-0.06192 0.09595-0.06585 0.16704-0.16202 0.20186-0.27305-0.0013-0.0089-0.0054-0.01738-0.0118-0.02378-0.14923 0.16089-0.32617 0.29362-0.52243 0.39183-0.1798 0.09419-0.37195 0.1081-0.56309 0.12192-0.07392 0.0053-0.14773 0.0107-0.22058 0.02067 0.01197-0.02372 0.03565-0.02372 0.05938-0.02372 0-0.02822 0.01484-0.04152 0.03283-0.05761 0.0048-0.0043 0.0097-0.0086 0.01468-0.01356h0.03565c0.0059 0 0.0089-0.0059 0.0118-0.0118 3e-3 -0.0059 0.0059-0.0118 0.0118-0.0118 0.02375 0 0.05942-0.0118 0.04754-0.0118-0.0181-0.02413-0.04537-0.01453-0.07561-4e-3 -0.02932 0.01021-0.06139 0.02148-0.09061 4e-3 0.01149-0.01149 0.01468-0.02573 0.01749-0.03873 3e-3 -0.01389 0.0058-0.02636 0.0181-0.03249h0.04751c0.0026-0.018 0.01085-0.03471 0.02375-0.04749 0.10577-0.0635 0.20738-0.1186 0.30729-0.17276 0.0683-0.03704 0.13581-0.07363 0.20336-0.11222-0.01389 0-0.02582 0.0053-0.03746 0.01053-0.01838 0.0081-0.03572 0.01596-0.05753 0.0014 0.0118 0 0.0118-0.0089 0.0118-0.01781 0-0.0089 0-0.01784 0.0118-0.01784 0.07474-0.02036 0.1417-0.05241 0.20977-0.08501 0.05089-0.02435 0.10242-0.04898 0.15828-0.06931-0.01628 0-0.0312 0.0041-0.04564 0.0083-0.02767 0.0078-0.05375 0.01516-0.08495-0.0083 0.0078-4e-3 0.01453-0.0093 0.02108-0.01453 0.01324-0.01053 0.0264-0.02111 0.05014-0.02111v-0.03562c0-0.0118 0.01197-0.0118 0.02378-0.0118-0.0091-0.0013-0.01738-0.0054-0.02378-0.0118 0.0062-0.01229 0.01862-0.015 0.03252-0.0181 0.01309-0.0029 0.02727-0.0061 0.03873-0.01749-0.0118 0-0.03562 0-0.03562-0.0118 0.03562-0.04751 0.09497-0.05941 0.15439-0.07126-0.0059-0.0118-0.01784-0.0118-0.02825-0.0118-0.01038 0-0.01929 0-0.01929-0.0118s0.0118-0.0118 0.02375-0.0118h-0.02372c-0.01842-0.0093-0.01532-0.02553-0.01309-0.03795 6.6e-4 -0.0037 0.0013-0.0069 0.0013-0.0096 0.04749-0.05542 0.06334-0.1214 0.07914-0.18734 8e-3 -0.03299 0.0158-0.06597 0.0277-0.09765-0.0118 0-0.02375 0-0.02375-0.0118-0.11524 0.12679-0.29768 0.17525-0.47113 0.22133l-0.01564 0.0042h-0.05935c-0.06578 0.02582-0.13959 0.0215-0.20189-0.0118-0.02874-0.01436-0.04879-0.03311-0.07065-0.05354-0.01421-0.01341-0.02932-0.0274-0.04804-0.04148-0.09314-0.05935-0.1928-0.10722-0.29714-0.14263-0.29482-0.09639-0.60421-0.14056-0.91424-0.13057 0.08533-0.04657 0.17644-0.06529 0.26862-0.08423 0.04891-0.01005 0.09815-0.02017 0.14696-0.03452 0.02949-0.0086 0.05878-0.01762 0.08787-0.02652 0.17003-0.05193 0.33516-0.10236 0.51763-0.09224-0.02413-8e-3 -0.05372-0.0051-0.0814-0.0026-0.01309 0.0013-0.02585 0.0026-0.03733 0.0026-0.1337-0.0096-0.26745 0.01933-0.40745 0.04955-0.03399 0.0073-0.06837 0.01484-0.1032 0.02174-0.05932 0.0118-0.11565 0.02965-0.17201 0.04745-0.05643 0.01781-0.11284 0.03562-0.17229 0.04751-0.02737 0.0091-0.04949 0.02526-0.07106 0.041-0.03457 0.02523-0.06773 0.04946-0.11894 0.0421v-0.03559c0.11875-0.14261 0.26123-0.28495 0.45121-0.29683 0.18062-0.0301 0.35278-0.0093 0.53079 0.01214h9.5e-5c0.03257 4e-3 0.06535 0.0078 0.09843 0.01149 0.15222 0.01618 0.30295 0.04395 0.45096 0.0831 0.03263 0 0.05092 0.02868 0.06864 0.05649 0.01453 0.02281 0.02871 0.04505 0.05014 0.0504 0.02847 0.0094 0.05699 0.01133 0.08549 0.01324 0.04275 0.0029 0.08552 0.0057 0.12818 0.03418 0-8e-3 -0.0013-0.0158-0.0027-0.02371-0.0027-0.0158-0.0053-0.03166 0.0027-0.04749 0.02679-0.02683 0.0574-0.01957 0.0875-0.01245 0.02325 0.0054 0.04622 0.01085 0.06688 5.65e-4 0.06444-0.04028 0.0032-0.10242-0.05771-0.16419-0.02884-0.02925-0.05761-0.05844-0.07288-0.08517 0.0013-0.0089 0.0054-0.01735 0.0118-0.02375 0.02847 0.02491 0.05479 0.05089 0.08089 0.07665 0.06104 0.0602 0.12092 0.11923 0.20406 0.16082 0.05938 0.02372 0.20186 0.05938 0.1781-0.0118-0.04158-0.09159-0.11241-0.17147-0.18372-0.25196-0.03045-0.03434-0.06095-0.06877-0.08935-0.10428v-0.04732c-0.01738 0-0.02202-0.0064-0.02793-0.01436-0.0022-0.0029-0.0045-0.0062-0.0077-0.0093v-0.04748c-0.02988-0.015-0.03626-0.03924-0.04279-0.06409-0.0038-0.01468-0.0078-0.02954-0.01658-0.04275-0.01985-0.03308-0.02127-0.07352-0.02274-0.11517-0.0012-0.03315-0.0024-0.06704-0.01292-0.09859-0.02144-0.06581-0.0373-0.13333-0.04753-0.20182-0.01388-0.0792-0.02971-0.15474-0.04515-0.22875h-3.2e-5v-3e-5c-0.02391-0.11468-0.04709-0.2257-0.06165-0.34113-0.01829-0.17364 0.06902-0.31923 0.15893-0.46918 0.02686-0.04477 0.05397-0.08994 0.07853-0.13635 0.0831-0.14261 0.17807-0.28498 0.33242-0.37996 0.03557-0.14219 0.13013-0.26057 0.2247-0.37895l7.85e-4 -9.73e-4c0.09481-0.11589 0.25237-0.18649 0.36651-0.23751 0.10295-0.04571 0.20826-0.08592 0.31549-0.12042h-8.1484v6.2832h5.7708c0.1575-0.11339 0.31483-0.1853 0.50248-0.27107 0.08171-0.03736 0.16915-0.07732 0.26484-0.12448 0.01838-0.0091 0.03964-0.01933 0.06302-0.03066l2.2e-4 -9.4e-5 3.14e-4 -1.56e-4 1.27e-4 -6.4e-5c0.1667-0.08067 0.44069-0.21329 0.54179-0.31445zm-1.8852-0.86243c0.0083-0.04165 0.05168-0.05407 0.09328-0.066 0.01771-0.0051 0.03509-0.01005 0.0493-0.01712l0.0058-0.0029 0.0064-0.0033 3.2e-5 -3.2e-5c0.02264-0.01214 0.05102-0.02734 0.071-0.01738 0.01341 0.02017 0.03069 0.0251 0.04745 0.02991 0.01277 0.0037 0.02539 0.0073 0.03568 0.01759-0.04288 0.04282-0.09432 0.04703-0.14657 0.05131-0.03468 0.0029-0.06974 0.0057-0.10289 0.01995-0.0057 0-0.01292 6.91e-4 -0.02033 0.0014-0.023 0.0022-0.04804 0.0046-0.03905-0.01324zm-1.3892-0.87864c-0.10664 0.21373-0.2339 0.41653-0.37993 0.60553 0.0012 0.0089 0.0054 0.01738 0.0118 0.02378 0.28498-0.32061 0.54619-0.59369 0.91411-0.8193 0.0091-0.0045 0.0061-3.77e-4 0.0014 0.0058-0.0073 0.01005-0.01878 0.02526 0.01053 0.01794 0.12341-0.02847 0.17851-0.13282 0.23205-0.23422 0.01341-0.02545 0.02673-0.05067 0.04103-0.0745 0.0552-0.08969 0.13447-0.14728 0.21445-0.20544 0.05767-0.04194 0.11576-0.08417 0.1655-0.13886 0.0016 0.01309-0.0027 0.02614-0.0118 0.03559 0.0094 0.0091 0.02258 0.01356 0.03562 0.0118 0.0207-0.01548 0.0436-0.02199 0.06582-0.02831 0.0289-0.0081 0.05664-0.01609 0.07678-0.04291-0.09846-0.03943-0.20751-0.04363-0.30874-0.01197-0.24938 0.11877-0.46305 0.30874-0.66494 0.52247-0.12117 0.12831-0.24932 0.24933-0.40368 0.33242zm0.58178-0.10684c-0.0093 0.02121-0.02627 0.03814-0.04748 0.04751-0.0118 0-0.02375 0-0.02375-0.0118 0.0107-0.04986 0.04671-0.09045 0.095-0.10688 0.0118-3.1e-5 0.0118 0.0118 0.0118 0.02375-0.0061 0.01229-0.01261 0.01882-0.01882 0.02523-0.0059 0.0061-0.01165 0.01197-0.01684 0.02228zm0.57346 1.7845c0.0096-0.0088-8.17e-4 -0.01532-0.01564-0.01838 0.01214-0.0093 0.02215-0.02108 0.02922-0.03465 0.0097-0.02332-0.05306-0.01771-0.06283-0.01102-0.0096 0.0077-0.01816 0.01649-0.02552 0.0263-0.01548 0.01671-0.03201 0.03248-0.04936 0.04729-0.01309 0.01197-0.02569 0.02423-0.03836 0.03648-0.01625 0.0158-0.03248 0.03152-0.04942 0.04644-0.01998 0.01756 0.04531 0.02676 0.05938 0.01421 0.01516-0.01341 0.02978-0.02746 0.0443-0.04153 0.0062-2.52e-4 0.01229-0.0011 0.01829-0.0026 0.03412-0.01421 0.06481-0.03565 0.08998-0.06277zm-0.20214-0.14907-0.01404 0.0099c-0.0398 0.02809-0.07967 0.05621-0.12159 0.08056-0.03763 0.02183-0.07657 0.03977-0.11562 0.0578-0.01372 0.0062-0.02737 0.01261-0.041 0.0191-3.77e-4 -1e-3 -9.11e-4 -0.0021-0.0015-0.0029-0.0045-0.0064-0.01309-0.0085-0.01989-0.0048-0.04366 0.02488-0.08382 0.05549-0.11939 0.09098-0.0056 0.0053-0.01102 0.01053-0.0166 0.01599-0.0075 0.0073-0.01309 0.01292-0.01875 0.01862l-0.0019 0.0019c-1.89e-4 1.88e-4 -2.83e-4 4.08e-4 -3.77e-4 5.97e-4l-3.44e-4 5.02e-4c-0.0085 0.0085-0.01655 0.01687-0.02585 0.02777-0.0043 0.0064-0.0096 0.01197-0.0158 0.01655-0.0073 5e-3 -0.0278 0.0048-0.02592-0.0089v-0.0024l-8.49e-4 4.73e-4c-0.0067 0.0035-0.01341 7e-3 -0.02024 0.01038-0.0062 0.0029-0.01165 0.0061-0.01725 0.0094l-0.0013 7.54e-4c-0.0026-1e-3 -0.0054-0.0014-0.0081-0.0012-3e-3 3.1e-5 -0.0061 1e-3 -0.0086 0.0029-0.01453 0.01133-0.02887 0.02351-0.04288 0.03619-0.02494 0.02247-0.048 0.04697-0.06889 0.07324l-0.0033 0.0045-0.0035 0.0046c-0.0011 0.0016-0.0026 0.0033-0.0038 5e-3l-0.0012 0.0014-0.0018 0.0026-0.0033 0.0051-0.0029 0.0043c-0.0032 0.0032-0.0065 5e-3 -0.01021 0.0054l-0.0019-0.0029c-9.73e-4 -0.0014-0.0019-0.0027-0.0029-0.0041l-0.0019-0.0033-0.0013-0.0024c-0.0037-0.0061-7e-3 -0.01245-0.01021-0.01901l-3.45e-4 -7.21e-4 -0.0014-0.0027-0.0014-3e-3c0.01292-0.01389 0.02526-0.02812 0.03726-0.04275l0.0024-0.0029c0.0041-0.0051 0.0083-0.01021 0.01229-0.01516l0.01988-0.02542c0.0015-0.0019 0.0029-0.0038 0.0043-0.0056l3e-3 -0.0038c0.01309-0.01703 0.02552-0.03356 0.03714-0.05014l8.8e-4 -0.0013 0.0021-3e-3c1e-3 -0.0014 0.0019-0.0029 3e-3 -0.0045 0.0058-0.0085 0.01117-0.01687 0.01628-0.02552 0.0046-0.0078 0.0089-0.01564 0.01292-0.02368l9.73e-4 -0.0018 0.0012-0.0024c3.46e-4 -6.91e-4 6.59e-4 -0.0014 9.43e-4 -0.0021 3.45e-4 -7.53e-4 6.59e-4 -0.0015 1e-3 -0.0022 0.0041-0.0089 8e-3 -0.01816 0.01133-0.02767l0.0011-3e-3 6.61e-4 -0.0019c6.91e-4 -0.0019 0.0014-0.0038 0.0019-0.0059 0.0014-0.0043 0.0026-0.0086 0.0037-0.01309 2.19e-4 -9.75e-4 3.77e-4 -0.0019 6.59e-4 -0.0029l1e-3 -0.0042v-3.2e-5c0.0011-0.0043 0.0022-0.0086 3e-3 -0.01324 5.03e-4 -0.0027 0-0.0056-0.0015-8e-3 0.01341-0.02296 0.02916-0.04446 0.04706-0.06412-8.49e-4 5.35e-4 -0.0018 1e-3 -0.0027 0.0015-9.41e-4 5.03e-4 -0.0019 1e-3 -0.0027 0.0016-0.0094 0.0061-0.01716 0.01356-0.02485 0.02095-0.0061 0.0059-0.01229 0.0118-0.01923 0.01709-0.01292 0.0096-0.03675-0.0064-0.02147-0.01781 0.0094-0.0075 0.0185-0.0158 0.02699-0.02448 0.02004-0.02344 0.04025-0.04357 0.06186-0.06218l0.0051-0.0037c0.01149-0.0085 0.0218-0.0158 0.03139-0.02419 0.0012-1e-3 0.0022-0.0021 0.0035-0.0032l0.0018-0.0015c0.0081-0.01053 0.01696-0.02059 0.02655-0.02984l5.03e-4 -5.03e-4c2.2e-4 -2.52e-4 4.4e-4 -4.7e-4 7.23e-4 -6.6e-4 0.06947-0.06704 0.16796-0.0913 0.26827-0.11596 0.06377-0.01564 0.12831-0.0316 0.18656-0.05878 0.03305-0.01324 0.0698-8e-3 0.10616-0.0029 0.02887 0.0042 0.0575 0.0081 0.08375 0.0029 0.03726-0.0037 0.07467 0.0048 0.10688 0.02378-0.08228 0.0448-0.15982 0.09409-0.23563 0.14232-0.02241 0.01421-0.04462 0.02841-0.06679 0.04229zm0.19859-0.85175h0.095c-0.0067 0.01341-0.02475 0.01548-0.03707 0.01687-0.0094 0.0011-0.01548 0.0018-0.01038 7e-3 0.03565 0.03552 0.10688 0.02368 0.15435-6.3e-5 0.03607-0.0203 0.07764-0.02863 0.11873-0.02375 0.0118 0 0.0118-0.02375 0.0118-0.0356 0.03062 0.0097 0.06283 0.01373 0.09494 0.0118 0.28499-0.05938 0.5581-0.11872 0.8193-0.24936-0.26358-0.20273-0.58777-0.29296-0.90602-0.38152-0.05448-0.01516-0.10878-0.03026-0.16258-0.0459 0.0118 0 0.02375 4e-3 0.03562 8e-3 0.02375 8e-3 0.04751 0.0158 0.07126-8e-3 -0.0323-0.02582-0.06814-0.03056-0.10368-0.03529-0.02971-4e-3 -0.05926-0.0078-0.08631-0.02407 0.0027 0 0.0059 5.97e-4 0.0096 0.0013 0.01245 0.0022 0.02874 0.0053 0.03795-0.01309-0.06331-0.03163-0.12662-0.04219-0.18992-0.05274-0.03166-0.0053-0.06337-0.01053-0.09507-0.0185 0.05689-0.01021 0.09749-0.06095 0.095-0.11872 0-0.0118-0.02375-0.0118-0.03562-0.0118-0.14248 0.07122-0.23748 0.20182-0.29683 0.35618 0.05303 0.03032 0.11087 0.02676 0.16739 0.02335 0.03208-0.0019 0.06374-0.0038 0.09384 4.08e-4 -0.02646 0.02636-0.06585 0.03321-0.1038 0.0398-0.01324 0.0024-0.02644 0.0046-0.0388 0.0077-0.03645 0.0091-0.07126 0.03559-0.05938 0.05935 0.0065 0.0089 0.01612 0.01516 0.02699 0.01719-0.02806 0.0073-0.05369 0.02193-0.07446 0.04219 0.03399 0.02545 0.06795 0.0206 0.10188 0.0158 0.01356-0.0019 0.02711-0.0038 0.04068-0.0038 0 0.0158 0.01053 0.02111 0.02115 0.02639 0.0053 0.0027 0.01053 0.0053 0.01453 0.0093-0.0519 0.01891-0.09448 0.05721-0.11875 0.10681-0.01421 0.03565-0.04135 0.05844-0.0684 0.08125-0.01807 0.01516-0.0361 0.03039-0.05033 0.04939v0.03559c-0.04038 0.03632-0.08209 0.06849-0.12328 0.10032-0.08011 0.06182-0.15834 0.12218-0.22105 0.20842 0.0118 0 0.0118 0.0118 0.0118 0.02371-0.0107 0.01615-0.02636 0.02743-0.04135 0.03824-0.0181 0.01309-0.03525 0.02539-0.04178 0.04486 0 0.01197 0 0.02378 0.01197 0.02378 0.07467-0.02488 0.13956-0.06607 0.20317-0.10648 0.0578-0.03669 0.11462-0.07276 0.17678-0.09535 0.05077-0.01277 0.09472-0.03557 0.13736-0.05774 0.03714-0.01929 0.07327-0.03808 0.11197-0.04914 0.02965-0.0059 0.06234-0.01485 0.09497-0.02375 0.03267-0.0089 0.06532-0.01781 0.095-0.02375 0 0.0118 0 0.02375 0.0118 0.02375zm0.54763 1.0466c9.43e-4 -6.91e-4 0.0019-0.0014 0.0029-0.0022l0.0021-0.0018c0.01719-0.01214 0.03314-0.02764 0.04744-0.04619-9.73e-4 -3.13e-4 -0.0019-6.59e-4 -0.0029-0.0011-9.11e-4 -3.45e-4 -0.0018-7.85e-4 -0.0027-0.0012-0.0158 0.01621-0.03123 0.03364-0.04678 0.05238zm2.3161-0.77914-0.02466 0.01845c0.01356-6.27e-4 0.02466-0.0042 0.02466-0.01845z" clip-rule="evenodd" fill-rule="evenodd"/>
  <path d="m6.8288-43.532h-6.759c0.0225 0.0073 0.04402 0.01741 0.06416 0.02984 0.05489 0.02944 0.12601 0.06743 0.17053 0.09076 0.09108 0.04194 0.16928 0.10755 0.22639 0.18995 0.02374 0.03562 0.05938 0.10688 0.03562 0.15439-0.02374 0.05935-0.03562 0.15435-0.09497 0.1781-0.07126 0.03561-0.16626 0.03561-0.24936 0.02372-0.04832-0.0021-0.0962-0.01005-0.14261-0.02372 0.17807 0.07122 0.3443 0.15435 0.46306 0.32058 0.0118 0.02375 0.05935 0.03559 0.10688 0.03559 0.0118 0 0.0118 0.02375 0.0118 0.03564-0.02377 0.02378-0.04753 0.03562-0.03565 0.07122h0.03565c0.05935-0.02375 0.04749-0.14258 0.13061-0.10684 0.0606 0.03736 0.08144 0.11556 0.04749 0.1781-0.0445 0.04304-0.09217 0.08271-0.14258 0.11873-0.0118 0.02643-0.0118 0.05667 0 0.08313 0.02972 0.04275 0.04995 0.09136 0.05935 0.14258 0.03565 0.0831 0.04752 0.1781 0.08312 0.2612 0.04752 0.1781 0.09497 0.35621 0.08309 0.53431 0 0.095-0.04748 0.1781-0.0118 0.27311 0.02374 0.09497 0.08309 0.16623 0.13064 0.24933 0.04744 0.07122 0.09497 0.11872 0.13061 0.18998 0.0712 0.11872 0.20182 0.23745 0.14261 0.37993-0.03562 0.0831-0.16623 0.07126-0.24933 0.11875-0.07126 0.05935-0.0118 0.15432 0.02371 0.2137 0.05938 0.10688-0.07126 0.1781-0.15435 0.21373 0.02374 0.0356 0.07126 0.02371 0.08309 0.04748 0.0118 0.05938 0.07126 0.095 0.03565 0.15435-0.04752 0.07126-0.18998 0.10688-0.11874 0.21373 0.0475 0.08313 0.01659 0.17543-0.0118 0.26123-0.03564 0.10684-0.13061 0.15432-0.21373 0.1781-0.07316 0.02164-0.15043 0.02569-0.22548 0.0118-0.02167-0.01309-0.046-0.02127-0.07123-0.02372-0.20189-0.02378-0.40374-0.08313-0.60556-0.08313-0.05721 0.0088-0.11307 0.02466-0.16623 0.04748-0.05171 0.03792-0.09981 0.08046-0.14376 0.12714l-0.0014 0.0015c-0.0089 0.0094-0.01748 0.0191-0.02589 0.02877-0.0051 0.0061-0.01014 0.01214-0.01531 0.01823-0.0033 4e-3 -0.0068 0.0081-0.01 0.01229-0.03447 0.04327-0.06569 0.089-0.09347 0.13685-0.0018 3e-3 -0.0035 0.0061-0.0053 0.0091-3e-3 0.0054-0.0061 0.01102-0.0091 0.01658-0.03736 0.06934-0.06749 0.14232-0.08991 0.21785-0.0807 0.27188-0.04543 0.50519 0.01117 0.5618 0.0158 0.0158 0.3919 0.13188 0.65388 0.24845 0.09665 0.04058 0.19029 0.08796 0.28024 0.14178h6.6373z"/>
  <path d="m0.47177-41.24c0.04753 0.0118 0.11871 0.0118 0.11871 0.03562-0.02371 0.09494-0.16626 0.11868-0.23748 0.21373h-0.03555c-0.03559 0.02375-0.02371 0.0831-0.05935 0.0831-0.03594-0.0078-0.07348-0.0037-0.10685 0.0118 0.0475 0.04748 0.10685 0.08316 0.17807 0.07122 0.02046 7e-3 0.03456 0.02592 0.03562 0.04756 0.0091-8.79e-4 0.0176-0.0051 0.02374-0.01197 0.01196 0 0.02377 0 0.02377 0.01197v0.04748c-0.03565 0.04751-0.09503 0.02372-0.14258 0.03562 0.08948 0.02375 0.1836 0.02375 0.27305 0 0.07129-0.02375 0-0.14261 0.04753-0.20188-0.02371 0 0-0.03562-0.02371-0.03562 0.02371-0.02372 0.04748-0.05935 0.07123-0.07122 0.02822 7.53e-4 0.05495-0.01261 0.07126-0.03562 0-0.02372-0.04749-0.03559-0.03564-0.05942 0.07123-0.04741 0.13058-0.11869 0.10688-0.18992-0.01196-0.03562-0.10688-0.03562-0.16626-0.05938-0.05941-0.02371-0.13064 0-0.20182 0.0118-0.05941 0-0.11877 0.03564-0.17813 0.04751-0.08087 0.02761-0.15696 0.06763-0.22548 0.11869 0.08501-0.03072 0.17239-0.05455 0.26123-0.07122 0.07112 0 0.13161-0.01752 0.2017 0z"/>
  <path d="m-10.432-29.394h0.89224v-3.1543l0.98021 1.6463h0.62834l0.98021-1.6463v3.1543h0.89224v-4.3984h-1.1122l-1.0745 1.8473-1.0745-1.8473h-1.1122zm5.6951 0h0.89225v-4.3984h-0.89225zm2.2159 0h0.89225v-3.1794l1.9667 3.1794h1.1436v-4.3984h-0.89224v3.1794l-1.9667-3.1794h-1.1436zm5.3269 0h0.89224v-4.3984h-0.89224zm1.8201-0.60949c0.38957 0.46497 0.88596 0.73516 1.6274 0.73516 0.81056 0 1.4515-0.49639 1.464-1.3258 0-1.508-1.9981-1.2818-1.9981-2.0798 0-0.2639 0.20736-0.46497 0.52152-0.46497 0.33302 0 0.62206 0.21992 0.87968 0.55294l0.65348-0.59064c-0.377-0.44612-0.87968-0.74144-1.5394-0.74144-0.84198 0-1.4201 0.57807-1.4201 1.2755 0 1.4892 1.9981 1.2692 1.9981 2.0798 0 0.31417-0.21364 0.50268-0.56551 0.50268-0.35816 0-0.71003-0.20107-0.97393-0.54037zm3.6381-2.9783h1.3572v3.5878h0.89224v-3.5878h1.3572v-0.81056h-3.6067zm5.3706-1.1876h0.81684l-0.71003-0.84826h-0.91738zm-0.88596 4.7754h2.5638v-0.74144h-1.6715v-1.131h1.4202v-0.74144h-1.4202v-1.043h1.6715v-0.74144h-2.5638zm3.6948 0h0.89224v-1.7782h0.45869l1.175 1.7782h1.0493l-1.3761-1.9479c0.45241-0.20735 0.71003-0.60321 0.71003-1.1373 0-0.81684-0.59692-1.3132-1.5646-1.3132h-1.3446zm1.3949-3.657c0.37701 0 0.59692 0.2262 0.59692 0.55922 0 0.35815-0.21992 0.57807-0.59692 0.57807h-0.50267v-1.1373zm2.8398 3.657h2.5636v-0.74144h-1.6714v-1.131h1.4201v-0.74144h-1.4201v-1.043h1.6714v-0.74144h-2.5636zm-31.11 6.5976h1.7279c1.3949 0 2.3374-1.0116 2.3374-2.1992 0-1.1876-0.94251-2.1992-2.3374-2.1992h-1.7279zm1.7405-3.5878c0.81684 0 1.4075 0.60321 1.4075 1.3886 0 0.77914-0.59064 1.3886-1.4075 1.3886h-0.84826v-2.7773zm3.2796 3.5878h2.5636v-0.74144h-1.6714v-1.131h1.4201v-0.74144h-1.4201v-1.043h1.6714v-0.74144h-2.5636zm5.4197 0h2.5636v-0.81056h-1.6714v-3.5878h-0.89225zm3.0804 0h0.9488l0.42099-1.1436h1.7594l0.42099 1.1436h0.9488l-1.6651-4.3984h-1.1687zm1.6463-1.9039 0.60321-1.6525 0.60321 1.6525zm6.3125 1.5394v-4.034h-0.89224v4.0779c0 0.4524-0.20735 0.62206-0.60321 0.62206-0.08796 0-0.16337-0.0062-0.2262-0.01886v0.78543c0.08796 0.02513 0.20735 0.02513 0.35187 0.02513 0.91738 0 1.3698-0.48382 1.3698-1.4578zm3.8731-1.2818c0 0.59064-0.33946 0.93623-0.88612 0.93623-0.55922 0-0.89224-0.34559-0.89224-0.93623v-2.7521h-0.89225v2.6767c0 1.1561 0.67861 1.8473 1.7782 1.8473 1.106 0 1.7846-0.69118 1.7846-1.8473v-2.6767h-0.89225zm1.699 1.0368c0.38957 0.46497 0.88596 0.73516 1.6274 0.73516 0.81056 0 1.4515-0.49639 1.464-1.3258 0-1.508-1.9981-1.2818-1.9981-2.0798 0-0.2639 0.20735-0.46497 0.52152-0.46497 0.33302 0 0.62206 0.21992 0.87968 0.55294l0.65348-0.59064c-0.377-0.44612-0.87968-0.74144-1.5394-0.74144-0.84198 0-1.4201 0.57808-1.4201 1.2755 0 1.4892 1.9981 1.2693 1.9981 2.0798 0 0.31417-0.21364 0.50267-0.56551 0.50267-0.35815 0-0.71003-0.20107-0.97393-0.54037zm3.6381-2.9783h1.3572v3.5878h0.89224v-3.5878h1.3572v-0.81056h-3.6067zm4.4845 3.5878h0.89224v-4.3984h-0.89224zm4.1763-0.71003c-0.82941 0-1.4201-0.64719-1.4201-1.4892 0-0.84198 0.59064-1.4892 1.4201-1.4892 0.50267 0 0.89853 0.24505 1.1499 0.60321l0.70374-0.54666c-0.40214-0.53409-1.0556-0.89225-1.8536-0.89225-1.3886 0-2.3374 1.0682-2.3374 2.3249 0 1.2567 0.9488 2.3249 2.3374 2.3249 0.79799 0 1.4515-0.35187 1.8536-0.89853l-0.70374-0.54037c-0.25134 0.35815-0.64719 0.60321-1.1499 0.60321zm2.7223 0.71003h2.5636v-0.74144h-1.6714v-1.131h1.4201v-0.74144h-1.4201v-1.043h1.6714v-0.74144h-2.5636z"/>
 </g>
 <g transform="matrix(.93492 0 0 .93492 16.128 2.338)" fill="#fff">
  <path d="m121.54 34.041 0.9 0.9c-1.2 1.3-2.9 2-4.7 2-3.4 0.1-6.2-2.7-6.3-6.1-0.1-3.4 2.7-6.2 6.1-6.3h0.2c1.9 0 3.6 0.7 4.7 2l-0.9 0.9c-1-1.1-2.4-1.7-3.9-1.7-2.8 0-4.9 2.2-4.9 5 0 2.8 2.1 5 4.9 5 1.6-0.1 3-0.7 3.9-1.7z"/>
  <path d="m127.84 27.941c2.4 0 4.4 1.9 4.4 4.4s-1.9 4.5-4.4 4.5c-2.4 0-4.4-1.9-4.4-4.5s1.9-4.4 4.4-4.4zm3.1 4.5c0-1.9-1.4-3.3-3.1-3.3s-3.1 1.5-3.1 3.3c0 1.9 1.4 3.3 3.1 3.3s3.1-1.5 3.1-3.3z"/>
  <path d="m133.94 28.141h1.3v1c0.7-0.8 1.6-1.2 2.7-1.2 1.9 0 3.3 1.3 3.3 3.3v5.4h-1.3v-5.2c0-1.5-0.9-2.5-2.4-2.5-1 0-1.9 0.5-2.4 1.3v6.3h-1.2z"/>
  <path d="m144.04 29.241h-1.8v-1.1h1.8v-2.2l1.2-0.3v2.5h2.6v1.1h-2.6v5.2c0 0.9 0.4 1.3 1.3 1.3 0.4 0 0.9-0.1 1.2-0.2v1.1c-0.5 0.2-1 0.2-1.5 0.2-1.5 0-2.3-0.7-2.3-2.1z"/>
  <path d="m148.74 34.241c0-1.6 1.3-2.6 3.4-2.6 0.9 0 1.7 0.2 2.5 0.6v-1.1c0-1.4-0.8-2.1-2.3-2.1-0.8 0-1.7 0.2-2.7 0.8l-0.5-1c1.2-0.6 2.2-0.9 3.3-0.9 2.2 0 3.4 1.1 3.4 3v5.7h-1.2v-0.8c-0.8 0.7-1.8 1-2.8 1-1.8 0-3.1-1-3.1-2.6zm3.4 1.6c1 0 1.9-0.3 2.5-1v-1.6c-0.7-0.5-1.5-0.7-2.5-0.7-1.4 0-2.2 0.7-2.2 1.7s0.9 1.6 2.2 1.6z"/>
  <path d="m157.84 25.641c0-0.5 0.4-0.9 0.9-0.9s0.8 0.4 0.9 0.8c0 0.5-0.4 0.9-0.9 0.9-0.6 0.1-0.9-0.3-0.9-0.8zm1.4 11.1h-1.3v-8.5h1.3z"/>
  <path d="m161.44 28.141h1.3v1c0.7-0.8 1.6-1.2 2.7-1.2 1.9 0 3.3 1.3 3.3 3.3v5.4h-1.2v-5.2c0-1.5-0.9-2.5-2.4-2.5-1 0-1.9 0.5-2.4 1.3v6.3h-1.3z"/>
  <path d="m174.84 36.841c-2.4 0-4.4-1.9-4.4-4.3v-0.1c0-2.5 1.9-4.4 4.2-4.4s4 1.9 4 4.4v0.4h-7c0.2 1.7 1.5 2.9 3.2 2.9 0.9 0 1.8-0.3 2.4-0.8l0.8 0.8c-0.9 0.8-2.1 1.1-3.2 1.1zm-3.1-5h5.7c-0.2-1.5-1.4-2.7-2.8-2.7-1.5 0-2.7 1.1-2.9 2.7z"/>
  <path d="m180.44 28.141h1.3v1.2c0.5-0.9 1.4-1.4 2.4-1.4 0.3 0 0.5 0 0.8 0.1v1.2c-0.3-0.1-0.6-0.2-0.9-0.2-1.1 0-1.9 0.6-2.3 1.8v5.9h-1.3z"/>
  <path d="m195.71 24.741h5.2c2.3 0 3.9 1.4 3.9 3.4 0 2-1.5 3.5-3.9 3.5h-3.9v5h-1.3zm1.3 1.2v4.6h3.8c1.6 0 2.6-0.9 2.6-2.3 0-1.4-1-2.3-2.6-2.3z"/>
  <path d="m207.81 36.741h-1.3v-12l1.3-0.3z"/>
  <path d="m209.51 34.241c0-1.6 1.3-2.6 3.4-2.6 0.9 0 1.7 0.2 2.5 0.6v-1.1c0-1.4-0.8-2.1-2.3-2.1-0.8 0-1.7 0.2-2.7 0.8l-0.5-1c1.2-0.6 2.2-0.9 3.3-0.9 2.2 0 3.4 1.1 3.4 3v5.7h-1.2v-0.8c-0.8 0.7-1.8 1-2.8 1-1.8 0-3.1-1-3.1-2.6zm3.4 1.6c1 0 1.9-0.3 2.5-1v-1.6c-0.7-0.5-1.5-0.7-2.5-0.7-1.4 0-2.2 0.7-2.2 1.7s0.9 1.6 2.2 1.6z"/>
  <path d="m219.51 29.241h-1.8v-1.1h1.8v-2.2l1.2-0.3v2.5h2.6v1.1h-2.6v5.2c0 0.9 0.4 1.3 1.3 1.3 0.4 0 0.9-0.1 1.2-0.2v1.1c-0.5 0.2-1 0.2-1.5 0.2-1.5 0-2.3-0.7-2.3-2.1z"/>
  <path d="m226.01 28.141v-1.6c0-1.7 0.9-2.6 2.6-2.6 0.4 0 0.8 0 1.1 0.2v1.1c-0.3-0.1-0.7-0.2-1.1-0.2-1 0-1.5 0.5-1.5 1.5v1.6h2.5v1.1h-2.5v7.5h-1.2v-7.5h-2v-1.1z"/>
  <path d="m234.71 27.941c2.4 0 4.4 1.9 4.4 4.4 0 2.5-1.9 4.5-4.4 4.5-2.4 0-4.4-1.9-4.4-4.5 0-2.6 2-4.4 4.4-4.4zm3.1 4.5c0-1.9-1.4-3.3-3.1-3.3s-3.1 1.5-3.1 3.3c0 1.9 1.4 3.3 3.1 3.3 1.8 0 3.1-1.5 3.1-3.3z"/>
  <path d="m240.81 28.141h1.3v1.2c0.5-0.9 1.4-1.4 2.4-1.4 0.3 0 0.5 0 0.8 0.1v1.2c-0.3-0.1-0.6-0.2-0.9-0.2-1.1 0-1.9 0.6-2.3 1.8v5.9h-1.3z"/>
  <path d="m246.81 28.141h1.3v0.9c0.6-0.7 1.5-1.1 2.5-1.1 1.1 0 2.2 0.6 2.7 1.6 0.6-1 1.8-1.6 2.9-1.6 1.9 0 3.1 1.3 3.1 3.3v5.4h-1.2v-5.2c0-1.5-0.9-2.5-2.2-2.5-0.9 0-1.7 0.5-2.3 1.4 0.1 0.3 0.1 0.5 0.1 0.8v5.4h-1.3v-5.2c0-1.5-0.9-2.5-2.2-2.5-0.9 0-1.7 0.4-2.2 1.2v6.4h-1.3v-8.3z"/>
  <g fill="#fff" stroke-width=".69316" aria-label="ALPHA">
   <path d="m121.43 1.4163-3.7095 10.059h7.4325zm-1.5434-2.6941h3.1002l7.7032 20.213h-2.843l-1.8412-5.1851h-9.1112l-1.8412 5.1851h-2.8836z"/>
   <path d="m133.64-1.2778h2.7347v17.911h9.8423v2.3015h-12.577z"/>
   <path d="m151.83 0.96957v7.5949h3.4387q1.9089 0 2.9513-0.98829t1.0424-2.8159q0-1.8141-1.0424-2.8024-1.0424-0.98829-2.9513-0.98829zm-2.7347-2.2473h6.1734q3.3981 0 5.131 1.5434 1.7464 1.5298 1.7464 4.4947 0 2.9919-1.7464 4.5218-1.7329 1.5298-5.131 1.5298h-3.4387v8.1229h-2.7347z"/>
   <path d="m165.81-1.2778h2.7347v8.2854h9.937v-8.2854h2.7347v20.213h-2.7347v-9.6256h-9.937v9.6256h-2.7347z"/>
   <path d="m193.42 1.4163-3.7095 10.059h7.4325zm-1.5434-2.6941h3.1002l7.7032 20.213h-2.843l-1.8412-5.1851h-9.1112l-1.8412 5.1851h-2.8836z"/>
  </g>
 </g>
 <g stroke-width=".51688">
  <rect x="4.9808" y="2.0744" width="28.429" height="10.338" fill="#fff"/>
  <path d="m16.734 11.193c0.11099-0.11099 0.22299-0.23011 0.33432-0.34967 0.19894-0.23662 0.41661-0.45884 0.6491-0.66497 0.06729-0.06104 0.13832-0.11776 0.21275-0.16985 0.0097-0.0097 0.01464-0.024433 0.01942-0.039075 0.0048-0.014642 0.0097-0.029303 0.01942-0.039074-0.04878 0.019417-0.08787 0.048826-0.12695 0.07812-0.03908 0.0293-0.07817 0.05864-0.127 0.07817-0.01942 0-0.03907-0.01942-0.01942-0.03903l0.20871-0.15656c-0.0042 2.58e-4 -0.0089 2.58e-4 -0.01332 2.58e-4 -0.01942 0-0.01942-0.019417-0.01942-0.039074-0.25187-0.038728-0.44602 0.13382-0.62073 0.28904l-0.0044 0.0039c-0.02599 0.01316-0.05209 0-0.07235-0.0102-0.01004-0.0049-0.01864-0.0093-0.0252-0.0093-0.15357 0.05123-0.28568 0.14536-0.41878 0.24019h-5.3e-5c-0.12091 0.08618-0.24263 0.1729-0.38203 0.22866v-0.03907c-0.04857 0.01629-0.09659 0.03784-0.14473 0.05954-0.06803 0.03068-0.13629 0.06151-0.2069 0.07716-0.13223 0.02935-0.25337 0.02573-0.37179 0.02206h-2.06e-4c-0.03903-0.0013-0.07773-0.0025-0.11645-0.0025-0.23885 0.02904-0.476 0.07128-0.71025 0.12647l-0.0102 0.0025-0.0048 0.0012-0.0054 0.0014c-0.12673 0.03416-0.24893 0.08336-0.36399 0.14659-0.0044 0.0025-0.0089 0.0049-0.01332 0.0079-0.0097 0.01201-0.01917 0.0239-0.02828 0.03383-0.03687 0.04707-0.08235 0.08673-0.13399 0.11686-0.08492 0.04322-0.15895 0.10918-0.23244 0.1746-0.03035 0.02705-0.06058 0.05401-0.09147 0.07924-0.0092 0.0063-0.02022 0.01004-0.03132 0.01004-0.0322 0.0309-0.06425 0.06191-0.09636 0.09294v5.3e-5h-4.9e-5v5.3e-5c-0.07226 0.06984-0.14452 0.13976-0.21824 0.2081-0.01864 0.0088-0.03944 0.01102-0.05961 7e-3 0.0053-0.0082 0.0092-0.01415 0.01283-0.02049 0.01654-0.02759 0.03313-0.05504 0.05005-0.08239 0.01891-0.03056 0.0382-0.06079 0.05794-0.09072 0.02662-0.0404 0.05401-0.08037 0.08315-0.11893 0.0067-0.0074 0.0065-0.01864-7.22e-4 -0.02573-0.0074-7e-3 -0.01706-0.0107-0.02728-0.0102 0.0999-0.09345 0.20992-0.17555 0.32791-0.2447-0.01316 0.0012-0.03198-0.0092-0.02206-0.02309 0.0074-0.0102 0.01365-0.02074 0.01997-0.03116 0.0044-0.0074 0.0089-0.01464 0.01365-0.02206 0.0023-0.0058 0.0042-0.01151 0.0063-0.01733-0.0031-0.0035-0.0061-0.0065-0.0092-0.0097l-0.0054-0.0058c-0.03216 0.01917-0.06286 0.04052-0.09179 0.06415-0.01415 0.01283-0.0274 0.02956-0.04093 0.04679-0.03111 0.0396-0.06388 0.08126-0.11329 0.08068-0.01003-1.55e-4 -0.01997-0.0016-0.02961-0.0042-0.0074-9.63e-4 -0.01415-0.0035-0.02049-7e-3l0.0025-0.0044 3e-3 -0.0054 3e-3 -0.0049 0.0092-0.0168 0.0049-0.0089 0.0042-0.0079 0.0076-0.01366c0.0048-0.0082 0.0092-0.01629 0.01399-0.02468l0.0039-0.0067 0.0021-0.0037 0.0042-7e-3c0.0058-0.01003 0.01151-0.01998 0.01761-0.03009l1.57e-4 -3.1e-4 0.0076-0.01267 0.01201-0.02074 0.0088-0.01464 1.06e-4 -1.04e-4 4.9e-5 -1.55e-4 5.3e-5 -1.05e-4h5.2e-5l0.0058-0.0102 0.0061-0.0102c0.0039-0.0063 0.0048-0.01448 0.0018-0.02126-3e-3 -0.0069-0.0089-0.01201-0.01654-0.01366 0.03634-0.0474 0.08182-0.08703 0.13377-0.11655h-0.0058c0.05149-0.02599 0.10298-0.05566 0.15444-0.08543l5.2e-5 -5.3e-5 1.55e-4 -4.9e-5c0.02309-0.01332 0.04648-0.02689 0.0697-0.03996 0.0074-0.0061 0.01415-0.01234 0.02126-0.01838l0.01102-0.0093c-0.10993 0.03718-0.21451 0.08875-0.31096 0.15337-0.01151 0.0044-0.02257 0.01053-0.03272 0.01785-0.01838 0.0039-0.03731-3e-3 -0.04875-0.01785-0.0031-0.0042-0.0048-0.0092-0.0048-0.01448 0.01151-0.02285 0.03608-0.03891 0.06239-0.05613 0.01891-0.01234 0.03856-0.0252 0.0549-0.04156 0.01942 0 0.03896 0 0.03896 0.01942 0.38786-0.3031 0.86593-0.37293 1.3456-0.44296 0.29338-0.04279 0.58744-0.08575 0.86175-0.18219l0.17578-0.11719c0.05026-0.020216 0.09531-0.055708 0.14318-0.093502 0.04522-0.035705 0.09289-0.073393 0.14978-0.10187 0.15786-0.10834 0.27483-0.26656 0.3321-0.44922-0.0021-0.014643-0.0089-0.028594-0.01942-0.039123-0.24552 0.2647-0.53663 0.48308-0.85952 0.64466-0.29581 0.15496-0.61194 0.17786-0.92641 0.2006-0.12162 0.0088-0.24305 0.01761-0.3629 0.03401 0.0197-0.03903 0.05865-0.03903 0.09769-0.03903 0-0.04643 0.02441-0.06831 0.05401-0.09478 0.0079-7e-3 0.01596-0.01415 0.02415-0.0223h0.05865c0.0097 0 0.01464-0.0097 0.01942-0.01942 0.0049-0.0097 0.0097-0.01942 0.01942-0.01942 0.03907 0 0.09776-0.019417 0.07822-0.019417-0.02978-0.0397-0.07464-0.023903-0.1244-0.00655-0.04824 0.016798-0.101 0.035339-0.14908 0.00655 0.01891-0.018906 0.02415-0.042328 0.02877-0.063718 0.0049-0.022853 0.0095-0.043368 0.02978-0.053456h0.07817c0.0042-0.029611 0.01785-0.057105 0.03907-0.078129 0.17402-0.10447 0.34119-0.19513 0.50556-0.28424 0.11237-0.060939 0.22344-0.12114 0.33458-0.18463-0.02285 0-0.04248 0.00872-0.06163 0.017324-0.03024 0.013326-0.05877 0.026258-0.09465 0.0023 0.01942 0 0.01942-0.014643 0.01942-0.029301 0-0.014643 0-0.029351 0.01942-0.029351 0.12296-0.033497 0.23313-0.086227 0.34512-0.13986 0.08372-0.040062 0.16851-0.080584 0.26041-0.11403-0.02678 0-0.05133 0.00675-0.07509 0.013655-0.04552 0.012833-0.08843 0.024941-0.13976-0.013655 0.01283-0.00658 0.0239-0.0153 0.03468-0.023906 0.02179-0.017324 0.04343-0.034731 0.08249-0.034731v-0.058603c0-0.019414 0.01969-0.019414 0.03912-0.019414-0.01497-0.00214-0.02859-0.00889-0.03912-0.019414 0.0102-0.02022 0.03063-0.024679 0.0535-0.029779 0.02153-0.00477 0.04487-0.010036 0.06372-0.028776-0.01942 0-0.05861 0-0.05861-0.019414 0.05861-0.078165 0.15625-0.097743 0.254-0.11724-0.0097-0.019414-0.02935-0.019414-0.04648-0.019414-0.01708 0-0.03174 0-0.03174-0.019414s0.01942-0.019414 0.03907-0.019414h-0.03903c-0.0303-0.0153-0.0252-0.042003-0.02154-0.062437 0.0011-0.00608 0.0021-0.011352 0.0021-0.015794 0.07813-0.091179 0.10421-0.19973 0.1302-0.30822 0.01316-0.054276 0.02599-0.10854 0.04557-0.16066-0.01942 0-0.03907 0-0.03907-0.019414-0.1896 0.20861-0.48975 0.28832-0.77512 0.36415l-0.02573 0.00691h-0.09764c-0.10822 0.04248-0.22966 0.035373-0.33215-0.019414-0.04729-0.023625-0.08027-0.054474-0.11624-0.088086-0.02338-0.022062-0.04824-0.045079-0.07903-0.068245-0.15329-0.097952-0.31726-0.17671-0.48892-0.23497-0.48504-0.15858-0.99407-0.23126-1.5041-0.21482 0.14039-0.076618 0.29028-0.10742 0.44194-0.13858 0.08047-0.016534 0.16148-0.033185 0.24179-0.056794 0.04852-0.014149 0.09671-0.028989 0.14457-0.043631 0.27974-0.085436 0.55141-0.16841 0.85162-0.15176-0.0397-0.013161-0.08838-0.00839-0.13392-0.00427-0.02154 0.00214-0.04253 0.00427-0.06142 0.00427-0.21997-0.015794-0.44002 0.031802-0.67035 0.081521-0.05592 0.01201-0.11248 0.024415-0.1698 0.035767-0.0976 0.019414-0.19028 0.048781-0.28299 0.078066-0.09284 0.029301-0.18566 0.058603-0.28346 0.078165-0.04503 0.014971-0.08142 0.041559-0.11691 0.067454-0.05687 0.041509-0.11143 0.081373-0.19569 0.069264v-0.058553c0.19537-0.23462 0.42979-0.46881 0.74235-0.48835 0.29715-0.049522 0.58041-0.015301 0.87327 0.019973h1.56e-4c0.05358 0.00658 0.10752 0.012833 0.16194 0.018904 0.25043 0.02662 0.49843 0.072308 0.74193 0.13672 0.05369 0 0.08378 0.047185 0.11293 0.092939 0.0239 0.037528 0.04724 0.074118 0.08249 0.08292 0.04684 0.015465 0.09376 0.018641 0.14065 0.021783 0.07033 0.00477 0.1407 0.00938 0.21089 0.056234 0-0.013161-0.0021-0.025995-0.0044-0.039009-0.0044-0.025995-0.0088-0.052088 0.0044-0.078132 0.04408-0.044141 0.09444-0.032197 0.14396-0.020483 0.03826 0.00889 0.07604 0.01785 0.11003 9.295e-4 0.10602-0.06627 0.0053-0.16851-0.09495-0.27012-0.04745-0.048123-0.09478-0.096147-0.1199-0.14012 0.0021-0.014643 0.0089-0.028545 0.01942-0.039074 0.04684 0.040983 0.09014 0.083726 0.13308 0.12611 0.10042 0.099043 0.19894 0.19616 0.33572 0.26459 0.09769 0.039025 0.3321 0.097694 0.29302-0.019414-0.0684-0.15069-0.18493-0.28211-0.30226-0.41454-0.0501-0.056497-0.10028-0.11314-0.147-0.17156v-0.077853c-0.02859 0-0.03622-0.01053-0.04595-0.023625-0.0037-0.00477-0.0074-0.0102-0.01267-0.0153v-0.078116c-0.04916-0.024679-0.05965-0.064558-0.0704-0.10544-0.0063-0.024152-0.01283-0.0486-0.02728-0.070333-0.03265-0.054425-0.03499-0.12096-0.03741-0.18949-2e-3 -0.054539-0.0039-0.1103-0.02126-0.1622-0.03527-0.10827-0.06137-0.21936-0.0782-0.33204-0.02283-0.1303-0.04888-0.25458-0.07428-0.37634h-5.3e-5v-4.93e-5c-0.03934-0.18868-0.07748-0.37133-0.10144-0.56123-0.03009-0.28568 0.11355-0.5252 0.26148-0.77191 0.04419-0.073658 0.08879-0.14797 0.1292-0.22433 0.13672-0.23462 0.29297-0.46887 0.54692-0.62512 0.05852-0.23394 0.21409-0.4287 0.36967-0.62347l0.0013-0.0016c0.15598-0.19067 0.41521-0.30682 0.603-0.39077 0.16938-0.075203 0.34264-0.14136 0.51905-0.19813h-13.406v10.337h9.4942c0.25912-0.18655 0.51797-0.30486 0.8267-0.44597 0.13443-0.06147 0.27829-0.12721 0.43573-0.2048 0.03024-0.01497 0.06522-0.03181 0.10368-0.05044l3.62e-4 -1.55e-4 5.17e-4 -2.57e-4 2.09e-4 -1.05e-4c0.27426-0.13272 0.72503-0.35091 0.89136-0.51735zm-3.1016-1.4189c0.01366-0.068522 0.08502-0.088959 0.15347-0.10859 0.02914-0.00839 0.05773-0.016535 0.08111-0.028166l0.0095-0.00477 0.01053-0.00543 5.2e-5 -5.26e-5c0.03725-0.019973 0.08394-0.044981 0.11681-0.028594 0.02206 0.033185 0.05049 0.041295 0.07807 0.049209 0.02101 0.00608 0.04177 0.01201 0.0587 0.028939-0.07054 0.070447-0.15518 0.077378-0.24114 0.084415-0.05706 0.00481-0.11474 0.00934-0.16927 0.032826-0.0093 0-0.02126 0.00116-0.03345 0.00231-0.03784 0.00366-0.07903 0.0076-0.06425-0.021785zm-2.2856-1.4456c-0.17544 0.35164-0.38482 0.68528-0.62507 0.99624 0.0019 0.014643 0.0089 0.028594 0.01942 0.039123 0.46886-0.52748 0.8986-0.97676 1.5039-1.3479 0.01497-0.0074 0.01003-6.203e-4 0.0023 0.00954-0.01201 0.016535-0.0309 0.041559 0.01733 0.029515 0.20304-0.04684 0.2937-0.21853 0.38177-0.38534 0.02206-0.041872 0.04397-0.083364 0.0675-0.12257 0.09082-0.14756 0.22123-0.24232 0.35282-0.33799 0.09488-0.069001 0.19046-0.13848 0.27229-0.22845 0.0026 0.021536-0.0044 0.043007-0.01942 0.058553 0.01547 0.014971 0.03715 0.02231 0.05861 0.019414 0.03406-0.025468 0.07173-0.036179 0.10829-0.046576 0.04754-0.013326 0.09319-0.026472 0.12632-0.070597-0.16199-0.064867-0.3414-0.071777-0.50794-0.01969-0.4103 0.1954-0.76183 0.50794-1.094 0.85958-0.19936 0.2111-0.4102 0.4102-0.66414 0.54692zm0.95716-0.17578c-0.0153 0.034895-0.04322 0.062749-0.07812 0.078164-0.01942 0-0.03908 0-0.03908-0.019414 0.01761-0.082032 0.07685-0.14881 0.1563-0.17584 0.01942-5.1e-5 0.01942 0.019414 0.01942 0.039074-0.01003 0.02022-0.02075 0.030963-0.03096 0.041509-0.0097 0.010036-0.01917 0.019693-0.02771 0.036656zm0.94347 2.9358c0.0158-0.01448-0.0013-0.0252-0.02573-0.03024 0.01998-0.0153 0.03645-0.03468 0.04808-0.05701 0.01596-0.03837-0.08729-0.02914-0.10337-0.01813-0.0158 0.01267-0.02988 0.02713-0.04198 0.04327-0.02547 0.02749-0.05267 0.05344-0.08121 0.0778-0.02153 0.0197-0.04227 0.03986-0.06311 0.06002-0.02673 0.02599-0.05344 0.05186-0.08131 0.07641-0.03287 0.02889 0.07455 0.04402 0.09769 0.02338 0.02494-0.02206 0.049-0.04518 0.07288-0.06833 0.0102-4.15e-4 0.02022-0.0018 0.03009-0.0042 0.05613-0.02338 0.10663-0.05865 0.14804-0.10327zm-0.33256-0.24526-0.02309 0.01629c-0.06548 0.04622-0.13108 0.09248-0.20005 0.13254-0.06191 0.03592-0.12598 0.06543-0.19022 0.09509-0.02257 0.0102-0.04503 0.02074-0.06745 0.03142-6.21e-4 -0.0016-0.0015-0.0035-0.0025-0.0048-0.0074-0.01053-0.02153-0.01399-0.03272-0.0079-0.07183 0.04093-0.1379 0.0913-0.19642 0.14968-0.0092 0.0088-0.01813 0.01733-0.02731 0.02631-0.01234 0.01201-0.02153 0.02126-0.03085 0.03063l-0.0031 0.0031c-3.11e-4 3.09e-4 -4.65e-4 6.71e-4 -6.2e-4 9.63e-4l-5.66e-4 8.26e-4c-0.01399 0.01399-0.02723 0.02775-0.04253 0.04569-7e-3 0.01053-0.0158 0.0197-0.02599 0.02723-0.01201 0.0082-0.04574 0.0079-0.04265-0.01464v-0.0039l-0.0014 7.79e-4c-0.01102 0.0058-0.02206 0.01151-0.0333 0.01708-0.0102 0.0048-0.01917 0.01003-0.02838 0.01546l-0.0021 0.0013c-0.0042-0.0016-0.0089-0.0023-0.01332-2e-3 -0.0049 5.1e-5 -0.01003 0.0016-0.01415 0.0048-0.0239 0.01864-0.0475 0.03868-0.07054 0.05954-0.04103 0.03697-0.07897 0.07727-0.11334 0.1205l-0.0054 0.0074-0.0058 0.0076c-0.0018 0.0026-0.0042 0.0054-0.0063 0.0082l-0.0019 0.0023-3e-3 0.0042-0.0054 0.0084-0.0048 7e-3c-0.0053 0.0053-0.0107 0.0082-0.0168 0.0089l-0.0031-0.0048c-0.0016-0.0023-0.0031-0.0044-0.0048-0.0067l-0.0031-0.0054-0.0021-0.0039c-0.0061-0.01003-0.01151-0.02049-0.0168-0.03128l-5.67e-4 -0.0012-0.0023-0.0044-0.0023-0.0049c0.02126-0.02285 0.04156-0.04626 0.0613-0.07033l0.0039-0.0048c0.0067-0.0084 0.01365-0.0168 0.02022-0.02494l0.03271-0.04182c0.0025-0.0031 0.0048-0.0063 0.0071-0.0092l0.0049-0.0063c0.02153-0.02802 0.04199-0.05522 0.0611-0.08249l0.0014-0.0021 0.0035-0.0049c0.0016-0.0023 0.0032-0.0048 0.0049-0.0074 0.0095-0.01399 0.01838-0.02775 0.02678-0.04199 0.0076-0.01283 0.01464-0.02573 0.02126-0.03896l0.0016-3e-3 0.0019-0.0039c5.69e-4 -0.0012 0.0011-0.0023 0.0015-0.0035 5.67e-4 -0.0013 0.0011-0.0025 0.0016-0.0037 0.0067-0.01464 0.01316-0.02988 0.01864-0.04552l0.0018-0.0049 0.0011-0.0031c0.0012-0.0031 0.0023-0.0063 0.0032-0.0097 0.0023-7e-3 0.0042-0.01415 0.0061-0.02153 3.6e-4 -0.0016 6.2e-4 -0.0031 0.0011-0.0048l0.0016-0.0069v-5.3e-5c0.0018-7e-3 0.0037-0.01415 0.0049-0.02178 8.26e-4 -0.0044 0-0.0092-0.0025-0.01316 0.02206-0.03777 0.04798-0.07314 0.07743-0.10549-0.0014 8.8e-4 -3e-3 0.0016-0.0044 0.0025-0.0015 8.27e-4 -0.0032 0.0016-0.0044 0.0026-0.01547 0.01003-0.02823 0.02231-0.04088 0.03446-0.01003 0.0097-0.02022 0.01942-0.03163 0.02812-0.02126 0.0158-0.06046-0.01053-0.03532-0.0293 0.01547-0.01234 0.03044-0.02599 0.04441-0.04028 0.03297-0.03856 0.06622-0.07168 0.10177-0.1023l0.0084-0.0061c0.01891-0.01399 0.03587-0.02599 0.05165-0.0398 0.0019-0.0016 0.0037-0.0035 0.0058-0.0053l3e-3 -0.0025c0.01332-0.01733 0.02791-0.03388 0.04369-0.0491l8.28e-4 -8.28e-4c3.62e-4 -4.14e-4 7.23e-4 -7.73e-4 0.0012-0.0011 0.11429-0.1103 0.27632-0.15021 0.44136-0.19078 0.10492-0.02573 0.2111-0.05199 0.30693-0.09671 0.05437-0.02178 0.11484-0.01316 0.17465-0.0048 0.0475 0.0069 0.0946 0.01332 0.13779 0.0048 0.0613-0.0061 0.12285 0.0079 0.17584 0.03912-0.13537 0.07371-0.26294 0.1548-0.38766 0.23415-0.03687 0.02338-0.07341 0.04674-0.10988 0.06958zm0.32672-1.4013h0.1563c-0.01102 0.022062-0.04072 0.025468-0.06098 0.027755-0.01546 0.00181-0.02547 0.00296-0.01708 0.011516 0.05865 0.058439 0.17584 0.038959 0.25395-1.035e-4 0.05935-0.033398 0.12774-0.047103 0.19534-0.039074 0.01942 0 0.01942-0.039074 0.01942-0.05857 0.05038 0.015959 0.10337 0.022589 0.1562 0.019414 0.46887-0.097694 0.9182-0.19531 1.3479-0.41025-0.43365-0.33353-0.96702-0.48198-1.4906-0.62769-0.08963-0.024941-0.17896-0.049785-0.26749-0.075516 0.01942 0 0.03907 0.00658 0.05861 0.013162 0.03907 0.013162 0.07817 0.025995 0.11724-0.013162-0.05314-0.04248-0.11211-0.050278-0.17059-0.05806-0.04888-0.00658-0.0975-0.012833-0.142-0.039601 0.0044 0 0.0097 9.819e-4 0.0158 0.00214 0.02049 0.00362 0.04729 0.00872 0.06244-0.021536-0.10416-0.052036-0.20832-0.06941-0.31246-0.086767-0.05209-0.00872-0.10426-0.017324-0.15641-0.030437 0.0936-0.016797 0.16039-0.10028 0.1563-0.19532 0-0.019414-0.03908-0.019414-0.05861-0.019414-0.23441 0.11717-0.39071 0.33205-0.48835 0.58599 0.08725 0.049884 0.1824 0.044026 0.2754 0.038416 0.05278-0.00313 0.10487-0.00625 0.15439 6.713e-4 -0.04353 0.043368-0.10834 0.054638-0.17077 0.065481-0.02178 0.00395-0.0435 0.00757-0.06383 0.012669-0.05996 0.014971-0.11724 0.058553-0.09769 0.097644 0.0107 0.014643 0.02652 0.024941 0.04441 0.028282-0.04617 0.01201-0.08833 0.03608-0.1225 0.069412 0.05592 0.041871 0.11179 0.033892 0.16762 0.025995 0.02231-0.00313 0.0446-0.00625 0.06692-0.00625 0 0.025994 0.01733 0.034731 0.0348 0.043418 0.0088 0.00444 0.01733 0.00872 0.0239 0.0153-0.08539 0.031111-0.15544 0.094124-0.19537 0.17573-0.02338 0.058653-0.06803 0.096147-0.11253 0.13367-0.02973 0.024941-0.0594 0.049998-0.08281 0.081258v0.058553c-0.06643 0.059752-0.13506 0.11268-0.20283 0.16504-0.1318 0.10171-0.26051 0.20102-0.36368 0.3429 0.01942 0 0.01942 0.019417 0.01942 0.039007-0.01761 0.026569-0.04337 0.045129-0.06803 0.062909-0.02977 0.021534-0.05799 0.04177-0.06873 0.073807 0 0.019696 0 0.039122 0.0197 0.039122 0.12285-0.040932 0.22961-0.1087 0.33427-0.17518 0.09509-0.060368 0.18857-0.11971 0.29085-0.15687 0.08353-0.02101 0.15584-0.058521 0.22598-0.094996 0.0611-0.031737 0.12055-0.062651 0.18421-0.080846 0.04878-0.00971 0.10256-0.024431 0.15625-0.039074 0.05376-0.014643 0.10747-0.029301 0.1563-0.039074 0 0.019414 0 0.039074 0.01942 0.039074zm0.90098 1.7219c0.0015-0.0012 0.0031-0.0023 0.0048-0.0037l0.0035-3e-3c0.02828-0.01998 0.05452-0.04548 0.07805-0.07599-0.0016-5.15e-4 -0.0031-0.0011-0.0048-0.0018-0.0015-5.68e-4 -3e-3 -0.0013-0.0044-2e-3 -0.02599 0.02667-0.05138 0.05534-0.07696 0.08618zm3.8106-1.2819-0.04058 0.030352c0.02231-0.00106 0.04058-0.00693 0.04058-0.030352z" clip-rule="evenodd" fill="#000091" fill-rule="evenodd"/>
  <path d="m33.409 2.0744h-11.12c0.03701 0.01201 0.07242 0.028644 0.10556 0.049093 0.09031 0.048436 0.20731 0.11094 0.28056 0.14932 0.14985 0.069001 0.2785 0.17694 0.37247 0.31251 0.03906 0.058604 0.09769 0.17584 0.05861 0.254-0.03905 0.097644-0.05861 0.25395-0.15625 0.29302-0.11724 0.058586-0.27354 0.058586-0.41025 0.039025-0.0795-0.00346-0.15827-0.016535-0.23462-0.039025 0.29297 0.11717 0.56645 0.25395 0.76184 0.52743 0.01942 0.039074 0.09764 0.058553 0.17584 0.058553 0.01942 0 0.01942 0.039074 0.01942 0.058636-0.0391 0.039123-0.0782 0.058603-0.05865 0.11717h0.05865c0.09764-0.039074 0.07813-0.23457 0.21488-0.17578 0.0997 0.061466 0.13399 0.19012 0.07813 0.29302-0.07321 0.070811-0.15164 0.13608-0.23457 0.19534-0.01942 0.043483-0.01942 0.093235 0 0.13677 0.04889 0.070333 0.08218 0.15031 0.09764 0.23457 0.05865 0.13672 0.07818 0.29302 0.13675 0.42974 0.07818 0.29302 0.15625 0.58604 0.1367 0.87906 0 0.1563-0.07812 0.29302-0.01942 0.44933 0.03905 0.15625 0.1367 0.27348 0.21493 0.4102 0.07805 0.11717 0.15625 0.19532 0.21488 0.31256 0.11714 0.19532 0.33205 0.39066 0.23462 0.62507-0.05861 0.13672-0.27348 0.11724-0.4102 0.19537-0.11724 0.097644-0.01942 0.25389 0.03901 0.35158 0.09769 0.17584-0.11724 0.29302-0.25395 0.35164 0.03905 0.058571 0.11724 0.039009 0.1367 0.078115 0.01942 0.097694 0.11724 0.1563 0.05865 0.25395-0.07818 0.11724-0.31256 0.17584-0.19536 0.35164 0.07815 0.13677 0.02729 0.28863-0.01942 0.42979-0.05864 0.17578-0.21488 0.2539-0.35164 0.29302-0.12036 0.035599-0.24749 0.042271-0.37097 0.019417-0.03565-0.021534-0.07568-0.034992-0.11719-0.039026-0.33214-0.039121-0.66424-0.13677-0.99629-0.13677-0.09412 0.014478-0.18602 0.040566-0.27348 0.078119-0.08508 0.06239-0.16421 0.13238-0.23651 0.20918l-0.0023 0.0025c-0.01464 0.01547-0.02876 0.03142-0.0426 0.04733-0.0084 0.01003-0.01668 0.01998-0.02519 0.03-0.0054 0.0065-0.01119 0.01332-0.01645 0.02022-0.05671 0.07119-0.10808 0.14643-0.15378 0.22514-3e-3 0.0049-0.0058 0.01004-0.0088 0.01497-0.0049 0.0089-0.01004 0.01813-0.01497 0.02728-0.06147 0.11408-0.11104 0.23415-0.14792 0.35841-0.13277 0.44731-0.07474 0.83115 0.01838 0.92429 0.02599 0.02599 0.64476 0.21698 1.0758 0.40875 0.15901 0.06676 0.31308 0.14471 0.46106 0.23326h10.92z" fill="#e1000f"/>
  <path d="m22.95 5.8455c0.0782 0.019414 0.19531 0.019414 0.19531 0.058604-0.03901 0.1562-0.27353 0.19526-0.39071 0.35164h-0.05849c-0.05856 0.039074-0.03901 0.13672-0.09764 0.13672-0.05913-0.012833-0.12089-0.00608-0.17579 0.019414 0.07815 0.078116 0.17579 0.13682 0.29297 0.11717 0.03366 0.011516 0.05686 0.042645 0.05861 0.078247 0.01497-0.00144 0.02896-0.00839 0.03906-0.019693 0.01968 0 0.0391 0 0.0391 0.019693v0.078116c-0.05866 0.078165-0.15635 0.039025-0.23457 0.058603 0.14722 0.039074 0.30207 0.039074 0.44922 0 0.11729-0.039074 0-0.23462 0.0782-0.33215-0.03901 0 0-0.058603-0.03901-0.058603 0.03901-0.039025 0.07812-0.097644 0.11719-0.11717 0.04643 0.00124 0.0904-0.020746 0.11724-0.058604 0-0.039025-0.07813-0.058553-0.05863-0.09776 0.11719-0.078 0.21483-0.19527 0.17584-0.31246-0.01968-0.058603-0.17584-0.058603-0.27354-0.097694-0.09774-0.039009-0.21493 0-0.33205 0.019414-0.09774 0-0.19541 0.058636-0.29307 0.078165-0.13305 0.045425-0.25823 0.11127-0.37097 0.19527 0.13986-0.050541 0.28362-0.089747 0.42979-0.11717 0.11701 0 0.21652-0.028825 0.33184 0z" fill="#808080"/>
  <path d="m5.0118 25.334h1.4679v-5.1895l1.6127 2.7085h1.0338l1.6127-2.7085v5.1895h1.4679v-7.2364h-1.8298l-1.7677 3.0393-1.7677-3.0393h-1.8298zm9.3697 0h1.468v-7.2364h-1.468zm3.6457 0h1.468v-5.2309l3.2357 5.2309h1.8815v-7.2364h-1.4679v5.2309l-3.2357-5.2309h-1.8815zm8.764 0h1.4679v-7.2364h-1.4679zm2.9944-1.0028c0.64094 0.76499 1.4576 1.2095 2.6775 1.2095 1.3336 0 2.388-0.81668 2.4087-2.1812 0-2.481-3.2874-2.1089-3.2874-3.4218 0-0.43418 0.34115-0.76499 0.85803-0.76499 0.5479 0 1.0234 0.36182 1.4473 0.90972l1.0751-0.97174c-0.62026-0.73398-1.4473-1.2198-2.5327-1.2198-1.3852 0-2.3363 0.95106-2.3363 2.0985 0 2.45 3.2874 2.0882 3.2874 3.4218 0 0.51688-0.35148 0.82702-0.93039 0.82702-0.58925 0-1.1682-0.33081-1.6023-0.88904zm5.9856-4.9001h2.2329v5.9028h1.4679v-5.9028h2.2329v-1.3336h-5.9338zm8.8358-1.9538h1.3439l-1.1682-1.3956h-1.5093zm-1.4576 7.8566h4.218v-1.2198h-2.75v-1.8608h2.3365v-1.2198h-2.3365v-1.7161h2.75v-1.2198h-4.218zm6.0788 0h1.4679v-2.9256h0.75465l1.9331 2.9256h1.7264l-2.264-3.2047c0.74431-0.34114 1.1682-0.99242 1.1682-1.8711 0-1.3439-0.98208-2.1606-2.5741-2.1606h-2.2123zm2.295-6.0165c0.62026 0 0.98208 0.37216 0.98208 0.92005 0 0.58924-0.36182 0.95106-0.98208 0.95106h-0.82701v-1.8711zm4.6721 6.0165h4.2178v-1.2198h-2.7498v-1.8608h2.3363v-1.2198h-2.3363v-1.7161h2.7498v-1.2198h-4.2178zm-51.183 10.855h2.8429c2.295 0 3.8456-1.6644 3.8456-3.6182 0-1.9538-1.5506-3.6182-3.8456-3.6182h-2.8429zm2.8635-5.9028c1.3439 0 2.3156 0.99242 2.3156 2.2846 0 1.2819-0.97174 2.2846-2.3156 2.2846h-1.3956v-4.5692zm5.3957 5.9028h4.2178v-1.2198h-2.7498v-1.8608h2.3363v-1.2198h-2.3363v-1.7161h2.7498v-1.2198h-4.2178zm8.9167 0h4.2178v-1.3336h-2.7498v-5.9028h-1.468zm5.0679 0h1.561l0.69263-1.8815h2.8945l0.69262 1.8815h1.561l-2.7395-7.2364h-1.9228zm2.7085-3.1323 0.99242-2.7188 0.99241 2.7188zm10.385 2.5327v-6.6368h-1.4679v6.7091c0 0.74431-0.34114 1.0234-0.99242 1.0234-0.14471 0-0.26878-0.0102-0.37216-0.03103v1.2922c0.14471 0.04135 0.34114 0.04135 0.57891 0.04135 1.5093 0 2.2536-0.796 2.2536-2.3983zm6.3721-2.1089c0 0.97174-0.55849 1.5403-1.4579 1.5403-0.92005 0-1.4679-0.56857-1.4679-1.5403v-4.5279h-1.468v4.4038c0 1.9021 1.1165 3.0393 2.9256 3.0393 1.8197 0 2.9362-1.1371 2.9362-3.0393v-4.4038h-1.468zm2.7953 1.7057c0.64093 0.76499 1.4576 1.2095 2.6775 1.2095 1.3336 0 2.388-0.81668 2.4087-2.1812 0-2.481-3.2874-2.1089-3.2874-3.4218 0-0.43418 0.34114-0.76499 0.85802-0.76499 0.5479 0 1.0234 0.36182 1.4473 0.90972l1.0751-0.97174c-0.62026-0.73398-1.4473-1.2198-2.5327-1.2198-1.3852 0-2.3363 0.95107-2.3363 2.0985 0 2.45 3.2874 2.0882 3.2874 3.4218 0 0.51688-0.35148 0.82701-0.93039 0.82701-0.58924 0-1.1682-0.3308-1.6023-0.88904zm5.9855-4.9001h2.2329v5.9028h1.4679v-5.9028h2.2329v-1.3336h-5.9338zm7.378 5.9028h1.4679v-7.2364h-1.4679zm6.8709-1.1682c-1.3646 0-2.3363-1.0648-2.3363-2.45 0-1.3852 0.97174-2.45 2.3363-2.45 0.82701 0 1.4783 0.40317 1.8918 0.99242l1.1578-0.89938c-0.66161-0.8787-1.7367-1.468-3.0496-1.468-2.2846 0-3.8456 1.7574-3.8456 3.8249 0 2.0675 1.561 3.8249 3.8456 3.8249 1.3129 0 2.388-0.57891 3.0496-1.4783l-1.1578-0.88904c-0.41351 0.58924-1.0648 0.99242-1.8918 0.99242zm4.4788 1.1682h4.2178v-1.2198h-2.7498v-1.8608h2.3363v-1.2198h-2.3363v-1.7161h2.7498v-1.2198h-4.2178z" fill="#1e1e1e"/>
 </g>
</svg>
