<?xml version="1.0" encoding="UTF-8"?>
<svg width="200" height="41" version="1.1" viewBox="-1.3144 -1.3144 200 41" xmlns="http://www.w3.org/2000/svg">
<title>ODDO BHF</title>
<path d="m2.6075 2.2299h32.899v14.211c0 10.507-11.981 20.035-16.817 20.035-4.356 0-16.178-9.5965-16.178-20.09 0-5.5047 0.096614-14.156 0.096614-14.156z" fill="#fff" stroke="#fff" stroke-linecap="square" stroke-width="4"/>
<path d="m2.6075 2.2299v9.7536c1.786-0.68139 3.723-1.0589 5.7469-1.0589 8.9112 0 16.159 7.2516 16.159 16.165 0 3.1248-0.89518 6.0409-2.4356 8.5173 2.2364-1.2858 5.1231-3.4192 7.6472-6.262 1.6907-1.9032 3.2115-4.126 4.2702-6.6171-1.6522-9.7336-8.7254-17.642-17.999-20.498zm21.634 0c4.9675 3.1835 8.9203 7.8144 11.265 13.291v-13.291zm-15.887 12.201c-2.0642 0-4.0146 0.49851-5.7383 1.3795 0.16676 10.426 9.6726 18.004 14.505 20.395 2.3958-2.3043 3.8924-5.5392 3.8924-9.1183 0-6.9787-5.6781-12.656-12.659-12.656z" fill="#e6272f"/>
<path d="m55.807 0.61982c-4.272 0-7.3709 3.1575-7.3709 7.5101 0 3.6794 2.2674 7.3923 7.3308 7.3923 5.065 0 7.3308-3.724 7.3308-7.4137 0-5.1748-3.6626-7.4888-7.2906-7.4888zm52.819 0c-4.272 0-7.3736 3.1575-7.3736 7.5101 0 3.6794 2.2675 7.3923 7.3309 7.3923 5.065 0 7.3308-3.724 7.3308-7.4137 0-5.1748-3.6582-7.4888-7.288-7.4888zm-40.974 0.25968v14.34h5.4653c2.1428 0 3.949-0.68462 5.2217-1.9778 1.2865-1.3105 2.0059-3.248 1.9699-5.3154-0.0603-3.5081-2.3081-7.0471-7.1915-7.0471zm17.231 0v14.34h5.4653c2.1429 0 3.949-0.68462 5.2218-1.9778 1.2863-1.3105 2.0058-3.248 1.9699-5.3154-0.06029-3.5081-2.3081-7.0471-7.1917-7.0471zm40.545 0v14.34h6.5894c3.5115 0 5.369-1.4383 5.369-4.1618 0-0.95745-0.58911-2.6024-2.1358-3.2465 1.0945-0.56526 1.6915-1.5368 1.6915-2.7701 0-2.6071-1.8414-4.1618-4.9247-4.1618zm16.551 0v14.343h2.548v-5.8374h7.1193v5.8374h2.5292v-14.343h-2.5292v6.1157h-7.1193v-6.1157zm17.614 0.019185v14.322h2.5479v-5.4733h7.3014v-2.39h-7.3014v-3.9692h7.6814v-2.4891zm-103.79 2.0688c2.1977 0.036999 4.7641 1.4193 4.7641 5.1843 0 2.4186-1.261 5.0023-4.8015 5.0023-3.455 0-4.7467-2.6967-4.8015-5.0023 0-3.198 1.855-5.1843 4.8389-5.1843zm52.817 0c2.1976 0.036999 4.7667 1.4193 4.7667 5.1843 0 2.4186-1.2636 5.0023-4.8041 5.0023-3.455 0-4.7468-2.6967-4.8017-5.0023 0-3.198 1.8552-5.1843 4.8391-5.1843zm19.34 0.24091h4.0574c1.5725 0 2.3981 0.9417 2.3981 1.8735 0 1.3327-1.2924 1.6138-2.3767 1.6138h-4.0788zm-57.782 0.12059h2.9387c2.0966 0 4.575 1.2 4.6623 4.5847 0.03426 1.3943-0.4322 2.692-1.2766 3.557-0.82905 0.84961-1.9674 1.2821-3.3857 1.2821h-2.9387zm17.233 0h2.9361c2.0966 0 4.575 1.2 4.6624 4.5847 0.03426 1.3943-0.4296 2.692-1.274 3.557-0.82905 0.84961-1.9701 1.2821-3.3884 1.2821h-2.9361zm40.548 5.6768h4.0788c1.0809 0 2.797 0.54978 2.797 2.0314 0 1.7078-2.3473 1.796-2.8184 1.796h-4.0574z" fill="#fff"/>
<text x="47.512665" y="36.19912" font-size="20.214px" stroke-width=".41922" style="font-feature-settings:normal;font-variant-caps:normal;font-variant-ligatures:normal;font-variant-numeric:normal;line-height:0.25" xml:space="preserve"><tspan x="47.512665" y="36.19912" fill="#e6272f" font-family="'DejaVu Sans'" letter-spacing=".23721px" stroke="#e6272f" stroke-linecap="round" stroke-linejoin="round" stroke-width=".41922">Cluster PROD</tspan></text>
</svg>
