<?xml version="1.0" encoding="UTF-8" standalone="no"?>
<svg
   xmlns:dc="http://purl.org/dc/elements/1.1/"
   xmlns:cc="http://creativecommons.org/ns#"
   xmlns:rdf="http://www.w3.org/1999/02/22-rdf-syntax-ns#"
   xmlns:svg="http://www.w3.org/2000/svg"
   xmlns="http://www.w3.org/2000/svg"
   xmlns:xlink="http://www.w3.org/1999/xlink"
   xmlns:sodipodi="http://sodipodi.sourceforge.net/DTD/sodipodi-0.dtd"
   xmlns:inkscape="http://www.inkscape.org/namespaces/inkscape"
   id="svg76"
   version="1.1"
   width="259.9"
   viewBox="0 0 259.9 40"
   height="40"
   enable-background="new 0 0 259.9 40"
   sodipodi:docname="photoweb-logo.svg"
   inkscape:version="1.0.2 (e86c870879, 2021-01-15)">
  <sodipodi:namedview
     pagecolor="#1a1a1a"
     bordercolor="#666666"
     borderopacity="1"
     objecttolerance="10"
     gridtolerance="10"
     guidetolerance="10"
     inkscape:pageopacity="0"
     inkscape:pageshadow="2"
     inkscape:window-width="1920"
     inkscape:window-height="1016"
     id="namedview38"
     showgrid="false"
     inkscape:zoom="3.5858667"
     inkscape:cx="120.68619"
     inkscape:cy="38.065727"
     inkscape:window-x="0"
     inkscape:window-y="0"
     inkscape:window-maximized="1"
     inkscape:current-layer="svg76" />
  <metadata
     id="metadata82">
    <rdf:RDF>
      <cc:Work
         rdf:about="">
        <dc:format>image/svg+xml</dc:format>
        <dc:type
           rdf:resource="http://purl.org/dc/dcmitype/StillImage" />
        <dc:title></dc:title>
      </cc:Work>
    </rdf:RDF>
  </metadata>
  <defs
     id="defs80">
    <linearGradient
       inkscape:collect="always"
       xlink:href="#linearGradient974"
       id="linearGradient1003"
       gradientUnits="userSpaceOnUse"
       gradientTransform="translate(-0.07992918)"
       x1="24.656704"
       y1="62.371357"
       x2="44.493145"
       y2="36.634163" />
    <linearGradient
       inkscape:collect="always"
       id="linearGradient974">
      <stop
         style="stop-color:#d6e03f;stop-opacity:1"
         offset="0"
         id="stop970" />
      <stop
         style="stop-color:#24a9d4;stop-opacity:1"
         offset="1"
         id="stop972" />
    </linearGradient>
    <linearGradient
       inkscape:collect="always"
       xlink:href="#linearGradient986"
       id="linearGradient1005"
       gradientUnits="userSpaceOnUse"
       gradientTransform="translate(0,0.07992918)"
       x1="72.1735"
       y1="71.756012"
       x2="52.944298"
       y2="72.635239" />
    <linearGradient
       inkscape:collect="always"
       id="linearGradient986">
      <stop
         style="stop-color:#e53050;stop-opacity:1"
         offset="0"
         id="stop982" />
      <stop
         style="stop-color:#fcc842;stop-opacity:1"
         offset="1"
         id="stop984" />
    </linearGradient>
    <linearGradient
       inkscape:collect="always"
       xlink:href="#linearGradient980"
       id="linearGradient1007"
       gradientUnits="userSpaceOnUse"
       gradientTransform="translate(0.07992918)"
       x1="71.542847"
       y1="37.114605"
       x2="86.019829"
       y2="51.26207" />
    <linearGradient
       inkscape:collect="always"
       id="linearGradient980">
      <stop
         style="stop-color:#41b8df;stop-opacity:1"
         offset="0"
         id="stop976" />
      <stop
         style="stop-color:#d42b82;stop-opacity:1"
         offset="1"
         id="stop978" />
    </linearGradient>
  </defs>
  <g
     transform="matrix(0.93491925,0,0,0.93491925,-51.63857,4.192599)"
     fill="#ffffff"
     id="g977">
    <path
       d="m 127.6,33.8 0.9,0.9 c -1.2,1.3 -2.9,2 -4.7,2 -3.4,0.1 -6.2,-2.7 -6.3,-6.1 -0.1,-3.4 2.7,-6.2 6.1,-6.3 h 0.2 c 1.9,0 3.6,0.7 4.7,2 l -0.9,0.9 c -1,-1.1 -2.4,-1.7 -3.9,-1.7 -2.8,0 -4.9,2.2 -4.9,5 0,2.8 2.1,5 4.9,5 1.6,-0.1 3,-0.7 3.9,-1.7 z"
       id="path941" />
    <path
       d="m 133.9,27.7 c 2.4,0 4.4,1.9 4.4,4.4 0,2.5 -1.9,4.5 -4.4,4.5 -2.4,0 -4.4,-1.9 -4.4,-4.5 0,-2.6 1.9,-4.4 4.4,-4.4 z m 3.1,4.5 c 0,-1.9 -1.4,-3.3 -3.1,-3.3 -1.7,0 -3.1,1.5 -3.1,3.3 0,1.9 1.4,3.3 3.1,3.3 1.7,0 3.1,-1.5 3.1,-3.3 z"
       id="path943" />
    <path
       d="m 140,27.9 h 1.3 v 1 c 0.7,-0.8 1.6,-1.2 2.7,-1.2 1.9,0 3.3,1.3 3.3,3.3 v 5.4 H 146 v -5.2 c 0,-1.5 -0.9,-2.5 -2.4,-2.5 -1,0 -1.9,0.5 -2.4,1.3 v 6.3 H 140 Z"
       id="path945" />
    <path
       d="m 150.1,29 h -1.8 v -1.1 h 1.8 v -2.2 l 1.2,-0.3 v 2.5 h 2.6 V 29 h -2.6 v 5.2 c 0,0.9 0.4,1.3 1.3,1.3 0.4,0 0.9,-0.1 1.2,-0.2 v 1.1 c -0.5,0.2 -1,0.2 -1.5,0.2 -1.5,0 -2.3,-0.7 -2.3,-2.1 z"
       id="path947" />
    <path
       d="m 154.8,34 c 0,-1.6 1.3,-2.6 3.4,-2.6 0.9,0 1.7,0.2 2.5,0.6 v -1.1 c 0,-1.4 -0.8,-2.1 -2.3,-2.1 -0.8,0 -1.7,0.2 -2.7,0.8 l -0.5,-1 c 1.2,-0.6 2.2,-0.9 3.3,-0.9 2.2,0 3.4,1.1 3.4,3 v 5.7 h -1.2 v -0.8 c -0.8,0.7 -1.8,1 -2.8,1 -1.8,0 -3.1,-1 -3.1,-2.6 z m 3.4,1.6 c 1,0 1.9,-0.3 2.5,-1 V 33 c -0.7,-0.5 -1.5,-0.7 -2.5,-0.7 -1.4,0 -2.2,0.7 -2.2,1.7 0,1 0.9,1.6 2.2,1.6 z"
       id="path949" />
    <path
       d="m 163.9,25.4 c 0,-0.5 0.4,-0.9 0.9,-0.9 0.5,0 0.8,0.4 0.9,0.8 0,0.5 -0.4,0.9 -0.9,0.9 -0.6,0.1 -0.9,-0.3 -0.9,-0.8 z m 1.4,11.1 H 164 V 28 h 1.3 z"
       id="path951" />
    <path
       d="m 167.5,27.9 h 1.3 v 1 c 0.7,-0.8 1.6,-1.2 2.7,-1.2 1.9,0 3.3,1.3 3.3,3.3 v 5.4 h -1.2 v -5.2 c 0,-1.5 -0.9,-2.5 -2.4,-2.5 -1,0 -1.9,0.5 -2.4,1.3 v 6.3 h -1.3 z"
       id="path953" />
    <path
       d="m 180.9,36.6 c -2.4,0 -4.4,-1.9 -4.4,-4.3 v -0.1 c 0,-2.5 1.9,-4.4 4.2,-4.4 2.3,0 4,1.9 4,4.4 v 0.4 h -7 c 0.2,1.7 1.5,2.9 3.2,2.9 0.9,0 1.8,-0.3 2.4,-0.8 l 0.8,0.8 c -0.9,0.8 -2.1,1.1 -3.2,1.1 z m -3.1,-5 h 5.7 c -0.2,-1.5 -1.4,-2.7 -2.8,-2.7 -1.5,0 -2.7,1.1 -2.9,2.7 z"
       id="path955" />
    <path
       d="m 186.5,27.9 h 1.3 v 1.2 c 0.5,-0.9 1.4,-1.4 2.4,-1.4 0.3,0 0.5,0 0.8,0.1 V 29 c -0.3,-0.1 -0.6,-0.2 -0.9,-0.2 -1.1,0 -1.9,0.6 -2.3,1.8 v 5.9 h -1.3 z"
       id="path957" />
    <path
       d="m 196.3,24.5 h 5.2 c 2.3,0 3.9,1.4 3.9,3.4 0,2 -1.5,3.5 -3.9,3.5 h -3.9 v 5 h -1.3 z m 1.3,1.2 v 4.6 h 3.8 c 1.6,0 2.6,-0.9 2.6,-2.3 0,-1.4 -1,-2.3 -2.6,-2.3 z"
       id="path959" />
    <path
       d="m 208.4,36.5 h -1.3 v -12 l 1.3,-0.3 z"
       id="path961" />
    <path
       d="m 210.1,34 c 0,-1.6 1.3,-2.6 3.4,-2.6 0.9,0 1.7,0.2 2.5,0.6 v -1.1 c 0,-1.4 -0.8,-2.1 -2.3,-2.1 -0.8,0 -1.7,0.2 -2.7,0.8 l -0.5,-1 c 1.2,-0.6 2.2,-0.9 3.3,-0.9 2.2,0 3.4,1.1 3.4,3 v 5.7 H 216 v -0.8 c -0.8,0.7 -1.8,1 -2.8,1 -1.8,0 -3.1,-1 -3.1,-2.6 z m 3.4,1.6 c 1,0 1.9,-0.3 2.5,-1 V 33 c -0.7,-0.5 -1.5,-0.7 -2.5,-0.7 -1.4,0 -2.2,0.7 -2.2,1.7 0,1 0.9,1.6 2.2,1.6 z"
       id="path963" />
    <path
       d="m 220.1,29 h -1.8 v -1.1 h 1.8 v -2.2 l 1.2,-0.3 v 2.5 h 2.6 V 29 h -2.6 v 5.2 c 0,0.9 0.4,1.3 1.3,1.3 0.4,0 0.9,-0.1 1.2,-0.2 v 1.1 c -0.5,0.2 -1,0.2 -1.5,0.2 -1.5,0 -2.3,-0.7 -2.3,-2.1 z"
       id="path965" />
    <path
       d="m 226.6,27.9 v -1.6 c 0,-1.7 0.9,-2.6 2.6,-2.6 0.4,0 0.8,0 1.1,0.2 V 25 c -0.3,-0.1 -0.7,-0.2 -1.1,-0.2 -1,0 -1.5,0.5 -1.5,1.5 v 1.6 h 2.5 V 29 h -2.5 v 7.5 h -1.2 V 29 h -2 v -1.1 z"
       id="path967" />
    <path
       d="m 235.3,27.7 c 2.4,0 4.4,1.9 4.4,4.4 0,2.5 -1.9,4.5 -4.4,4.5 -2.4,0 -4.4,-1.9 -4.4,-4.5 0,-2.6 2,-4.4 4.4,-4.4 z m 3.1,4.5 c 0,-1.9 -1.4,-3.3 -3.1,-3.3 -1.7,0 -3.1,1.5 -3.1,3.3 0,1.9 1.4,3.3 3.1,3.3 1.8,0 3.1,-1.5 3.1,-3.3 z"
       id="path969" />
    <path
       d="m 241.4,27.9 h 1.3 v 1.2 c 0.5,-0.9 1.4,-1.4 2.4,-1.4 0.3,0 0.5,0 0.8,0.1 V 29 c -0.3,-0.1 -0.6,-0.2 -0.9,-0.2 -1.1,0 -1.9,0.6 -2.3,1.8 v 5.9 h -1.3 z"
       id="path971" />
    <path
       d="m 247.4,27.9 h 1.3 v 0.9 c 0.6,-0.7 1.5,-1.1 2.5,-1.1 1.1,0 2.2,0.6 2.7,1.6 0.6,-1 1.8,-1.6 2.9,-1.6 1.9,0 3.1,1.3 3.1,3.3 v 5.4 h -1.2 v -5.2 c 0,-1.5 -0.9,-2.5 -2.2,-2.5 -0.9,0 -1.7,0.5 -2.3,1.4 0.1,0.3 0.1,0.5 0.1,0.8 v 5.4 H 253 v -5.2 c 0,-1.5 -0.9,-2.5 -2.2,-2.5 -0.9,0 -1.7,0.4 -2.2,1.2 v 6.4 h -1.3 v -8.3 z"
       id="path973" />
  </g>
  <g
     id="g995"
     transform="matrix(0.60535543,0,0,0.60535543,-5.6676654,-17.152024)">
    <path
       style="opacity:0.75;fill:url(#linearGradient1003);fill-opacity:1;stroke:none;stroke-width:0.1;stroke-linecap:butt;stroke-linejoin:miter;stroke-miterlimit:4;stroke-dasharray:none;stroke-opacity:1"
       d="M 13.987606,35.088908 C 6.058998,51.398689 24.21854,73.055267 42.68218,73.694701 56.859253,74.185682 67.733007,62.969078 67.540154,50.755027 67.300366,35.568484 20.931147,20.805489 13.987606,35.088908 Z"
       id="path837"
       sodipodi:nodetypes="ssss" />
    <path
       style="opacity:0.75;fill:url(#linearGradient1005);fill-opacity:1;stroke:none;stroke-width:0.1;stroke-linecap:butt;stroke-linejoin:miter;stroke-miterlimit:4;stroke-dasharray:none;stroke-opacity:1"
       d="m 64.507433,91.476314 c 17.736035,0 17.105829,-38.426697 -1.895464,-36.834716 -18.112743,1.517537 -18.039464,36.834716 1.895464,36.834716 z"
       id="path839"
       sodipodi:nodetypes="sss" />
    <path
       style="opacity:0.75;fill:url(#linearGradient1007);fill-opacity:1;stroke:none;stroke-width:0.1;stroke-linecap:butt;stroke-linejoin:miter;stroke-miterlimit:4;stroke-dasharray:none;stroke-opacity:1"
       d="M 57.126037,61.244627 C 67.716605,75.471602 102.25396,45.650848 90.65217,31.828695 82.823166,22.501367 43.897287,43.473616 57.126037,61.244627 Z"
       id="path863"
       sodipodi:nodetypes="sss" />
    <path
       id="path902"
       style="opacity:1;fill:#fff02d;fill-opacity:0.905172;stroke:none;stroke-width:0.1;stroke-linecap:butt;stroke-linejoin:miter;stroke-miterlimit:4;stroke-dasharray:none;stroke-opacity:1"
       d="m 63.488281,54.515625 c -0.287925,0.0056 -0.580058,0.022 -0.876953,0.04687 -8.895586,0.745297 -13.394273,9.643055 -13.318359,18.505859 9.317652,-2.154831 16.266674,-9.504241 17.939453,-18.035156 -1.150466,-0.35742 -2.397436,-0.543928 -3.744141,-0.517578 z" />
    <path
       id="path911"
       style="opacity:1;fill:#009fe3;fill-opacity:0.795977;stroke:none;stroke-width:0.1;stroke-linecap:butt;stroke-linejoin:miter;stroke-miterlimit:4;stroke-dasharray:none;stroke-opacity:1"
       d="m 60.912109,40.505859 c -6.087377,5.992675 -9.164381,13.619605 -3.865234,20.738282 1.461169,1.962879 3.379583,3.083698 5.568359,3.527343 3.223922,-3.9762 5.084578,-8.906448 5.003907,-14.015625 -0.05629,-3.56502 -2.673403,-7.101933 -6.707032,-10.25 z" />
    <path
       id="path920"
       style="opacity:1;fill:#e6007e;fill-opacity:0.795977;stroke:none;stroke-width:0.1;stroke-linecap:butt;stroke-linejoin:miter;stroke-miterlimit:4;stroke-dasharray:none;stroke-opacity:1"
       d="m 63.48828,54.515625 c -0.28792,0.0056 -0.58006,0.022 -0.87695,0.04687 -3.00095,0.251428 -5.489476,1.443619 -7.484377,3.236328 0.44126,1.155728 1.072598,2.307049 1.919922,3.445313 C 60.9261,66.455341 68.01626,65.74342 74.87695,62.085933 72.62297,57.578528 68.83231,54.411058 63.48828,54.51562 Z" />
    <path
       id="path929-2"
       style="opacity:1;fill:#ffffff;fill-opacity:1;stroke:#ffffff;stroke-width:0.1;stroke-linecap:butt;stroke-linejoin:miter;stroke-miterlimit:4;stroke-dasharray:none;stroke-opacity:1"
       d="m 63.48828,54.515625 c -0.28792,0.0056 -0.58006,0.02201 -0.87695,0.04687 -0.48144,0.04034 -0.94474,0.114375 -1.40039,0.201172 -0.14801,0.02841 -0.29422,0.05861 -0.43946,0.0918 -0.36178,0.08196 -0.71372,0.180741 -1.05859,0.291015 -0.15162,0.04893 -0.30286,0.09809 -0.45117,0.152344 -0.31032,0.112498 -0.61223,0.238228 -0.9082,0.373047 -0.20724,0.09518 -0.41114,0.195078 -0.61133,0.300781 -0.15475,0.08111 -0.30455,0.168668 -0.45508,0.25586 -0.47949,0.279524 -0.94176,0.584643 -1.37891,0.921875 -0.0037,0.0029 -0.008,0.0049 -0.01172,0.0078 -0.25343,0.195943 -0.499,0.401467 -0.73828,0.615235 -0.0052,0.0046 -0.01046,0.009 -0.01562,0.01367 0.0744,0.195551 0.143,0.39067 0.22851,0.585938 0.03563,0.0814 0.06595,0.162806 0.10352,0.244141 0.17576,0.380168 0.37819,0.760188 0.59766,1.138671 0.05845,0.100931 0.12,0.201954 0.18164,0.302735 0.2427,0.396384 0.49994,0.791909 0.79297,1.185547 0.2195,0.29488 0.45195,0.564776 0.6914,0.822265 0.06971,0.07492 0.14156,0.144989 0.21289,0.216797 0.17888,0.180184 0.36205,0.350799 0.55078,0.511719 0.07999,0.06815 0.16049,0.136423 0.24219,0.201172 0.26304,0.208605 0.53256,0.406085 0.8125,0.580078 0,0 0.0019,0.002 0.0019,0.002 0.27434,0.170392 0.55827,0.318853 0.84766,0.457031 0.0964,0.04604 0.19499,0.08635 0.29297,0.128906 0.2105,0.09137 0.42507,0.174515 0.64258,0.25 0.10079,0.03503 0.20051,0.07183 0.30273,0.103516 0.27393,0.08476 0.55225,0.159544 0.83594,0.220703 0.0413,0.009 0.0815,0.02083 0.12305,0.0293 2.5e-4,-3.14e-4 0.002,3.15e-4 0.002,0 0.0675,-0.08324 0.13291,-0.167879 0.19922,-0.251953 0.27062,-0.343125 0.53302,-0.69249 0.7832,-1.048828 0.1085,-0.154645 0.21577,-0.309785 0.32031,-0.466797 0.23521,-0.352969 0.45711,-0.711935 0.67188,-1.076172 0.0948,-0.160891 0.19057,-0.321405 0.28125,-0.484375 0.2075,-0.372514 0.40025,-0.752088 0.58594,-1.134765 0.077,-0.158898 0.16124,-0.31407 0.23437,-0.47461 0.24463,-0.536099 0.46939,-1.080032 0.66992,-1.632812 9.9e-4,-0.0027 0.003,-0.0051 0.004,-0.0078 0.19937,-0.550258 0.37152,-1.111447 0.52539,-1.675781 0.059,-0.217035 0.10411,-0.437385 0.15625,-0.65625 0.0657,-0.275096 0.12707,-0.55038 0.18164,-0.828125 -1.14673,-0.3547 -2.38901,-0.539919 -3.73047,-0.513672 z" />
  </g>
  <text
     xml:space="preserve"
     style="font-style:normal;font-variant:normal;font-weight:normal;font-stretch:normal;font-size:23.1119px;line-height:1.25;font-family:sans-serif;-inkscape-font-specification:'sans-serif, Normal';font-variant-ligatures:normal;font-variant-caps:normal;font-variant-numeric:normal;font-feature-settings:normal;text-align:start;letter-spacing:-1.46083px;word-spacing:0px;writing-mode:lr-tb;text-anchor:start;fill:#ffffff;fill-opacity:1;stroke:none;stroke-width:1.92599"
     x="59.264015"
     y="18.405928"
     id="text999"
     transform="scale(0.97345382,1.0272701)"><tspan
       sodipodi:role="line"
       id="tspan997"
       x="59.264015"
       y="18.405928"
       style="fill:#ffffff;fill-opacity:1;stroke-width:1.92599">photoweb</tspan></text>
</svg>
