<?xml version="1.0" encoding="UTF-8"?>
<svg width="259.9" height="40" enable-background="new 0 0 259.9 40" version="1.1" viewBox="0 0 259.9 40" xmlns="http://www.w3.org/2000/svg" xmlns:xlink="http://www.w3.org/1999/xlink">
 <g fill="#fff" stroke="#fff">
  <polygon class="st0" transform="matrix(.18803 0 0 .18803 198.3 9.0255)" points="30.6 62.5 9 75 9 99.9 30.6 112.3 52.2 99.9 52.2 75" stroke-width="5.3184"/>
  <path class="st0" d="m214.36 36.046 3.8358 2.2188 3.8358-2.2188v-4.4375l-3.8358-2.2188-3.8358 2.2188zm3.8358 2.7076-4.2683-2.4632v-4.9452l4.2683-2.4632 4.2683 2.4632v4.9452z"/>
  <polygon class="st0" transform="matrix(.18803 0 0 .18803 198.3 9.0255)" points="78.4 144.9 55.7 158 32.9 144.9 32.9 118.6 55.7 105.5 78.4 118.6" stroke-width="5.3184"/>
  <path class="st0" d="m209.64 27.678 3.8546 2.2188 3.8358-2.2188v-4.4187l-3.8358-2.2188-3.8546 2.2188zm3.8546 2.7265-4.2871-2.4632v-4.9452l4.2683-2.4632 4.2683 2.4632v4.9452z"/>
 </g>
 <g transform="matrix(.23213 0 0 .23213 6.6349 19.876)" stroke-width="12.924">
  <path d="m25.454-50.52 34.985-20.514 31.249 2.9491 3.5722 8.233 26.931-16.369 33.582 2.3901 16.958 43.676-33.274 19.427 10.232 0.64267 17.537 41.519-37.083 21.563-6.742-0.92813 1.8254 3.3647-37.083 21.563-29.91-4.5234-2.7161-5.7787-7.3742 4.3021-29.91-4.5234-16.778-40.993 11.615-6.6379-14.837-2.3687-16.778-40.993 34.985-20.514 11.732 1.2389-2.7178-6.7245v0" fill="#fff" stroke="#fff" stroke-linecap="round" stroke-linejoin="round" stroke-width="12.924"/>
 </g>
 <g transform="matrix(.23213 0 0 .23213 6.6349 -.12409)">
  <use transform="translate(10,-34)" width="100%" height="100%" xlink:href="#sxg"/>
  <use id="sxi" transform="translate(4,-34)" width="100%" height="100%" xlink:href="#sxf"/>
  <use transform="translate(-40,-6)" width="100%" height="100%" xlink:href="#sxg"/>
  <use id="sxh" transform="translate(-40,-8)" width="100%" height="100%" xlink:href="#sxf"/>
  <use transform="translate(58,58)" width="100%" height="100%" xlink:href="#sxi"/>
  <use id="sxg" transform="translate(60,56)" width="100%" height="100%" xlink:href="#sxh"/>
  <g id="sxf">
   <path d="m51.014 72.996 36.675-20.922 17.537 41.519-37.083 21.563z" fill="#e0131c" stroke-linecap="round" stroke-linejoin="round" stroke-width="1.9306"/>
   <path d="m51.014 72.996-29.56-3.3562 16.778 40.993 29.91 4.5234z" fill="#5d0000" stroke-linecap="round" stroke-linejoin="round" stroke-width="1.9306"/>
   <path d="m51.014 72.996 36.675-20.922-31.249-2.9491-34.985 20.514z" fill="#700000" stroke-linecap="round" stroke-linejoin="round" stroke-width="1.9306"/>
  </g>
  <g id="sxj" transform="translate(66,-38)" stroke-linecap="round" stroke-linejoin="round" stroke-width="2">
   <path d="m50.571 72.668 39.202-22.339 16.958 43.676-38.417 22.339z" fill="#00a7e4"/>
   <path d="m50.571 72.668-30.622-3.4769 17.381 42.467 30.985 4.686z" fill="#004464"/>
   <path d="m50.571 72.668 39.202-22.339-33.582-2.3901-36.243 21.252z" fill="#005275"/>
  </g>
 </g>
 <g fill="#9e0000">
  <g>
   <polygon class="st0" transform="matrix(.18803 0 0 .18803 198.3 9.0255)" points="9 99.9 30.6 112.3 52.2 99.9 52.2 75 30.6 62.5 9 75"/>
   <path class="st0" d="m214.36 36.046 3.8358 2.2188 3.8358-2.2188v-4.4375l-3.8358-2.2188-3.8358 2.2188zm3.8358 2.7076-4.2683-2.4632v-4.9452l4.2683-2.4632 4.2683 2.4632v4.9452z" stroke-width=".18803"/>
   <polygon class="st0" transform="matrix(.18803 0 0 .18803 198.3 9.0255)" points="32.9 144.9 32.9 118.6 55.7 105.5 78.4 118.6 78.4 144.9 55.7 158"/>
   <path class="st0" d="m209.64 27.678 3.8546 2.2188 3.8358-2.2188v-4.4187l-3.8358-2.2188-3.8546 2.2188zm3.8546 2.7265-4.2871-2.4632v-4.9452l4.2683-2.4632 4.2683 2.4632v4.9452z" stroke-width=".18803"/>
  </g>
  <g transform="scale(1.0692 .93529)" stroke="#ffc9c9" stroke-linecap="round" stroke-width="1.5" aria-label="PROD">
   <path d="m189.3 17.025q-0.41593 0-0.69952-0.28359-0.28359-0.28359-0.28359-0.69952v-12.799q0-0.43484 0.28359-0.69953 0.28359-0.28359 0.69952-0.28359h3.7812q1.399 0 2.4956 0.6239 1.1155 0.6239 1.7204 1.7394 0.6239 1.1155 0.6239 2.5334 0 1.3801-0.6239 2.4578-0.60499 1.0776-1.7204 1.6826-1.0966 0.605-2.4956 0.605h-2.7981v4.1404q0 0.41593-0.28359 0.69952-0.26469 0.28359-0.69953 0.28359zm3.7812-6.9385q1.2856 0 2.1175-0.81296 0.83186-0.83187 0.83186-2.1175 0-1.3423-0.83186-2.212-0.83187-0.86968-2.1175-0.86968h-2.7981v6.0121z" style="paint-order:stroke markers fill"/>
   <path d="m209.68 15.513q0.18906 0.3025 0.18906 0.6239 0 0.37812-0.26468 0.64281-0.24578 0.24578-0.68062 0.24578-0.54828 0-0.85078-0.47265l-3.2518-5.2181h-2.7603v4.7076q0 0.41593-0.28359 0.69952-0.26468 0.28359-0.69952 0.28359-0.41594 0-0.69953-0.28359-0.28359-0.28359-0.28359-0.69952v-12.799q0-0.43484 0.28359-0.69953 0.28359-0.28359 0.69953-0.28359h3.4031q1.399 0 2.4956 0.58609 1.1155 0.58609 1.7205 1.6448 0.6239 1.0587 0.6239 2.42 0 1.3423-0.68062 2.3822-0.68062 1.0398-1.8528 1.5692zm-5.1992-5.9932q1.2856 0 2.1175-0.71843 0.83187-0.73734 0.83187-1.8906 0-1.2478-0.83187-2.0419t-2.1175-0.79406h-2.42v5.445z" style="paint-order:stroke markers fill"/>
   <path d="m218.87 17.214q-2.1931 0-3.9136-0.96421-1.7015-0.96421-2.6468-2.6847-0.9453-1.7394-0.9453-3.9325 0-2.1931 0.9453-3.9136 0.94531-1.7205 2.6468-2.6847 1.7205-0.96421 3.9136-0.96421 2.1742 0 3.8758 0.96421 1.7204 0.96421 2.6658 2.6847 0.96421 1.7205 0.96421 3.9136 0 2.1931-0.96421 3.9325-0.94531 1.7205-2.6469 2.6847t-3.8946 0.96421zm0-1.7772q1.607 0 2.8926-0.75624 1.2856-0.77515 2.004-2.0986 0.71843-1.3234 0.71843-2.9494 0-1.6259-0.71843-2.9494-0.71844-1.3234-2.004-2.0797-1.2667-0.75624-2.8926-0.75624-1.6259 0-2.9115 0.75624-1.2667 0.75624-1.9851 2.0797-0.71843 1.3234-0.71843 2.9494 0 1.6259 0.71843 2.9494t2.004 2.0986q1.2856 0.75624 2.8926 0.75624z" style="paint-order:stroke markers fill"/>
   <path d="m230.44 17.025q-0.41593 0-0.69952-0.28359-0.2836-0.28359-0.2836-0.69952v-12.799q0-0.43484 0.2836-0.69953 0.28359-0.28359 0.69952-0.28359h3.422q2.1364 0 3.8001 0.9453 1.6637 0.9453 2.5901 2.6279 0.9264 1.6637 0.9264 3.8001 0 2.1364-0.9264 3.819t-2.5901 2.6279-3.8001 0.9453zm3.422-1.7394q1.5692 0 2.7981-0.71843 1.2478-0.71843 1.9284-2.004 0.69953-1.3045 0.69953-2.9304 0-1.6259-0.69953-2.9115-0.68062-1.2856-1.9284-2.004-1.2289-0.71843-2.7981-0.71843h-2.4389v11.287z" style="paint-order:stroke markers fill"/>
  </g>
 </g>
 <g transform="scale(1.0951 .91318)" fill="#fefefe" stroke="#fff" aria-label="PRAGMATIK CAAS/PAAS">
  <path d="m52.983 20.305q-0.46099 0-0.77529-0.31431-0.31431-0.31431-0.31431-0.77529v-14.186q0-0.48194 0.31431-0.77529 0.31431-0.31431 0.77529-0.31431h4.1908q1.5506 0 2.7659 0.69148 1.2363 0.69148 1.9068 1.9278 0.69148 1.2363 0.69148 2.8078 0 1.5296-0.69148 2.724-0.67052 1.1944-1.9068 1.8649-1.2153 0.67052-2.7659 0.67052h-3.1012v4.5889q0 0.46098-0.31431 0.77529-0.29335 0.31431-0.77529 0.31431zm4.1908-7.6901q1.4249 0 2.3468-0.90102 0.92197-0.92197 0.92197-2.3468 0-1.4877-0.92197-2.4516-0.92197-0.96388-2.3468-0.96388h-3.1012v6.6633z"/>
  <path d="m75.571 18.629q0.20954 0.33526 0.20954 0.69148 0 0.41908-0.29335 0.71243-0.2724 0.2724-0.75434 0.2724-0.60766 0-0.94292-0.52385l-3.6041-5.7833h-3.0593v5.2175q0 0.46098-0.31431 0.77529-0.29335 0.31431-0.77529 0.31431-0.46099 0-0.77529-0.31431-0.31431-0.31431-0.31431-0.77529v-14.186q0-0.48194 0.31431-0.77529 0.31431-0.31431 0.77529-0.31431h3.7717q1.5506 0 2.7659 0.64957 1.2363 0.64957 1.9068 1.823 0.69148 1.1734 0.69148 2.6821 0 1.4877-0.75434 2.6402t-2.0535 1.7392zm-5.7623-6.6424q1.4249 0 2.3468-0.79625 0.92197-0.8172 0.92197-2.0954 0-1.383-0.92197-2.263-0.92197-0.88006-2.3468-0.88006h-2.6821v6.0347z"/>
  <path d="m90.428 18.775q0.10477 0.2724 0.10477 0.46098 0 0.44003-0.31431 0.75434t-0.77529 0.31431q-0.31431 0-0.60766-0.16763-0.2724-0.18858-0.39812-0.50289l-1.1734-2.9335h-7.5224l-1.1944 2.9335q-0.14668 0.31431-0.41908 0.50289-0.2724 0.16763-0.58671 0.16763-0.46099 0-0.77529-0.31431-0.29336-0.33526-0.29336-0.77529 0-0.20954 0.10477-0.48194l5.888-14.06q0.31431-0.73339 1.0267-0.73339 0.75434 0 1.0267 0.73339zm-3.8974-3.8765-2.9964-7.4596-3.0593 7.4596z"/>
  <path d="m104.24 11.819q0.46098 0 0.75434 0.31431 0.31431 0.29335 0.31431 0.77529v5.008q0 0.50289-0.33526 0.77529-2.2002 1.823-5.1337 1.823-2.2421 0-4.107-1.1106-1.8439-1.1106-2.9126-3.0383t-1.0686-4.2536q0-2.3049 1.0686-4.2117 1.0686-1.9278 2.9126-3.0383 1.8649-1.1315 4.107-1.1315 1.5925 0 2.745 0.41908 1.1734 0.41908 2.3678 1.383 0.25145 0.18859 0.33526 0.39812 0.0838 0.18859 0.0838 0.46099 0 0.41908-0.31431 0.69148-0.29335 0.2724-0.71243 0.2724-0.37717 0-0.71243-0.2724-0.85911-0.73339-1.6763-1.0477-0.8172-0.33526-2.1163-0.33526-1.6344 0-3.0174 0.85911-1.362 0.85911-2.1792 2.3468-0.79625 1.4668-0.79625 3.2059 0 1.7601 0.79625 3.2269 0.8172 1.4668 2.1792 2.3259 1.383 0.85911 3.0174 0.85911 1.7601 0 3.3736-1.0477v-3.7298h-2.8916q-0.48194 0-0.79625-0.2724-0.29336-0.2724-0.29336-0.69148t0.29336-0.69148q0.31431-0.2724 0.79625-0.2724z"/>
  <path d="m124.08 3.9399q0.46099 0 0.7753 0.31431 0.3143 0.31431 0.3143 0.77529v14.186q0 0.46098-0.33526 0.77529-0.31431 0.31431-0.75434 0.31431-0.46098 0-0.77529-0.31431t-0.31431-0.77529v-10.414l-5.0708 10.33q-0.35621 0.5448-0.94292 0.5448-0.69148 0-1.0058-0.64957l-5.008-10.037v10.226q0 0.46098-0.31431 0.77529t-0.77529 0.31431q-0.46099 0-0.7753-0.31431t-0.31431-0.77529v-14.186q0-0.46099 0.31431-0.77529t0.7753-0.31431q0.62861 0 0.96388 0.58671l6.2233 12.468 6.0557-12.468q0.33526-0.58671 0.96388-0.58671z"/>
  <path d="m141.6 18.775q0.10477 0.2724 0.10477 0.46098 0 0.44003-0.31431 0.75434t-0.7753 0.31431q-0.3143 0-0.60766-0.16763-0.2724-0.18858-0.39812-0.50289l-1.1734-2.9335h-7.5224l-1.1944 2.9335q-0.14668 0.31431-0.41908 0.50289-0.2724 0.16763-0.58671 0.16763-0.46099 0-0.77529-0.31431-0.29336-0.33526-0.29336-0.77529 0-0.20954 0.10477-0.48194l5.888-14.06q0.3143-0.73339 1.0267-0.73339 0.75434 0 1.0267 0.73339zm-3.8974-3.8765-2.9964-7.4596-3.0593 7.4596z"/>
  <path d="m152.85 3.9399q0.44003 0 0.71244 0.29335 0.29335 0.2724 0.29335 0.71243t-0.29335 0.73339q-0.27241 0.2724-0.71244 0.2724h-4.5051v13.264q0 0.46098-0.3143 0.77529-0.31431 0.31431-0.7753 0.31431-0.46098 0-0.77529-0.31431t-0.31431-0.77529v-13.264h-4.526q-0.44004 0-0.73339-0.2724-0.2724-0.29335-0.2724-0.73339 0-0.44003 0.2724-0.71243 0.29335-0.29335 0.73339-0.29335z"/>
  <path d="m157.35 20.305q-0.46098 0-0.77529-0.31431t-0.31431-0.77529v-14.186q0-0.48194 0.31431-0.77529 0.31431-0.31431 0.77529-0.31431 0.48194 0 0.7753 0.31431 0.31431 0.29335 0.31431 0.77529v14.186q0 0.46098-0.31431 0.77529-0.29336 0.31431-0.7753 0.31431z"/>
  <path d="m163.72 20.305q-0.44003 0-0.77529-0.31431-0.31431-0.31431-0.31431-0.77529v-14.186q0-0.46099 0.31431-0.77529 0.33526-0.31431 0.77529-0.31431 0.46099 0 0.7753 0.31431t0.31431 0.77529v6.2862l6.9357-6.9357q0.25144-0.25145 0.44003-0.33526 0.20954-0.10477 0.46098-0.10477 0.44004 0 0.67053 0.2724 0.25145 0.25145 0.25145 0.62862 0 0.5448-0.39813 0.94293l-5.3432 5.3642 5.448 7.4177q0.20954 0.29335 0.20954 0.67052 0 0.41908-0.2724 0.75434-0.2724 0.31431-0.69148 0.31431-0.58671 0-0.90102-0.46098l-5.3013-7.1872-1.5087 1.5087v5.0499q0 0.46098-0.31431 0.77529t-0.7753 0.31431z"/>
  <path d="m59.227 40.531q-2.2421 0-4.107-1.1106-1.8439-1.1106-2.9126-3.0383t-1.0686-4.2536q0-2.3049 1.0686-4.2117 1.0686-1.9278 2.9126-3.0383 1.8649-1.1315 4.107-1.1315 1.5925 0 2.745 0.41908 1.1734 0.41908 2.3678 1.383 0.25145 0.18858 0.33526 0.39812 0.08382 0.18858 0.08382 0.46099 0 0.41908-0.31431 0.69148-0.29336 0.2724-0.69148 0.2724t-0.73339-0.2724q-0.85911-0.73339-1.6763-1.0477-0.8172-0.33526-2.1163-0.33526-1.6344 0-3.0174 0.85911-1.362 0.85911-2.1792 2.3468-0.79625 1.4668-0.79625 3.2059 0 1.7601 0.79625 3.2269 0.8172 1.4668 2.1792 2.3259 1.383 0.85911 3.0174 0.85911 2.0116 0 3.8555-1.383 0.35622-0.25145 0.69148-0.25145 0.39812 0 0.64957 0.29335 0.2724 0.2724 0.2724 0.73339 0 0.44003-0.33526 0.77529-2.263 1.823-5.1337 1.823z"/>
  <path d="m80.412 38.792q0.10477 0.2724 0.10477 0.46098 0 0.44003-0.31431 0.75434t-0.77529 0.31431q-0.31431 0-0.60766-0.16763-0.2724-0.18858-0.39812-0.50289l-1.1734-2.9335h-7.5224l-1.1944 2.9335q-0.14668 0.31431-0.41908 0.50289-0.2724 0.16763-0.58671 0.16763-0.46098 0-0.77529-0.31431-0.29336-0.33526-0.29336-0.7753 0-0.20954 0.10477-0.48194l5.888-14.06q0.31431-0.73339 1.0267-0.73339 0.75434 0 1.0267 0.73339zm-3.8974-3.8765-2.9964-7.4596-3.0593 7.4596z"/>
  <path d="m95.142 38.792q0.10477 0.2724 0.10477 0.46098 0 0.44003-0.31431 0.75434t-0.77529 0.31431q-0.31431 0-0.60766-0.16763-0.2724-0.18858-0.39812-0.50289l-1.1734-2.9335h-7.5224l-1.1944 2.9335q-0.14668 0.31431-0.41908 0.50289-0.2724 0.16763-0.58671 0.16763-0.46099 0-0.77529-0.31431-0.29336-0.33526-0.29336-0.7753 0-0.20954 0.10477-0.48194l5.888-14.06q0.31431-0.73339 1.0267-0.73339 0.75434 0 1.0267 0.73339zm-3.8974-3.8765-2.9964-7.4596-3.0593 7.4596z"/>
  <path d="m102.83 40.531q-2.0325 0-3.7088-0.92197-1.6554-0.92197-2.284-2.4097-0.10477-0.25145-0.10477-0.41908 0-0.31431 0.23049-0.5448 0.23049-0.25145 0.62862-0.33526 0.06286-0.02095 0.20954-0.02095 0.33526 0 0.62862 0.20954 0.31431 0.18858 0.46099 0.52385 0.37717 0.8172 1.4877 1.383 1.1106 0.56576 2.4516 0.56576 1.5716 0 2.6612-0.71243 1.0896-0.73339 1.0896-1.9906 0-1.1944-0.92197-2.0325-0.92197-0.85911-2.8078-1.0477-2.5983-0.25145-4.086-1.5087-1.4877-1.2782-1.4877-3.185 0-1.341 0.75434-2.3049 0.77529-0.98483 2.0954-1.4877 1.341-0.52385 2.9964-0.52385 1.802 0 3.0383 0.73339t2.0954 2.0954q0.25145 0.39812 0.25145 0.75434 0 0.46098-0.41908 0.75434-0.23049 0.14668-0.5448 0.14668t-0.58671-0.14668q-0.2724-0.16763-0.41908-0.44003-0.56575-0.94292-1.4249-1.4249-0.83816-0.50289-2.1373-0.50289-1.5925 0-2.5773 0.62862-0.98483 0.60766-0.98483 1.7811 0 1.0896 0.88006 1.823 0.88006 0.73339 3.1431 0.96388 2.5145 0.25145 3.8974 1.5296 1.383 1.2572 1.383 3.3317 0 1.5087-0.8172 2.5983-0.81721 1.0686-2.1792 1.6134-1.341 0.52385-2.8916 0.52385z"/>
  <path d="m111.8 41.872q-0.44003 0-0.75434-0.31431-0.31431-0.29335-0.31431-0.73339 0-0.20954 0.10477-0.46099l6.3071-15.778q0.12573-0.29336 0.39813-0.46099t0.58671-0.16763q0.44003 0 0.73338 0.31431 0.31431 0.29336 0.31431 0.73339 0 0.23049-0.0838 0.46099l-6.3071 15.778q-0.12572 0.31431-0.39812 0.46099-0.2724 0.16763-0.58671 0.16763z"/>
  <path d="m122.97 40.321q-0.46098 0-0.77529-0.31431t-0.31431-0.7753v-14.186q0-0.48194 0.31431-0.7753 0.31431-0.31431 0.77529-0.31431h4.1908q1.5506 0 2.7659 0.69148 1.2363 0.69148 1.9068 1.9278 0.69148 1.2363 0.69148 2.8078 0 1.5296-0.69148 2.724-0.67052 1.1944-1.9068 1.8649-1.2153 0.67052-2.7659 0.67052h-3.1012v4.5889q0 0.46099-0.3143 0.7753-0.29336 0.31431-0.7753 0.31431zm4.1908-7.6901q1.4249 0 2.3468-0.90102 0.92197-0.92197 0.92197-2.3468 0-1.4877-0.92197-2.4516-0.92197-0.96388-2.3468-0.96388h-3.1012v6.6633z"/>
  <path d="m146.54 38.792q0.10477 0.2724 0.10477 0.46098 0 0.44003-0.31431 0.75434t-0.77529 0.31431q-0.31431 0-0.60766-0.16763-0.27241-0.18858-0.39813-0.50289l-1.1734-2.9335h-7.5224l-1.1944 2.9335q-0.14668 0.31431-0.41908 0.50289-0.2724 0.16763-0.58671 0.16763-0.46098 0-0.77529-0.31431-0.29336-0.33526-0.29336-0.7753 0-0.20954 0.10477-0.48194l5.888-14.06q0.31431-0.73339 1.0267-0.73339 0.75434 0 1.0267 0.73339zm-3.8974-3.8765-2.9964-7.4596-3.0593 7.4596z"/>
  <path d="m161.27 38.792q0.10477 0.2724 0.10477 0.46098 0 0.44003-0.31431 0.75434t-0.77529 0.31431q-0.31431 0-0.60767-0.16763-0.2724-0.18858-0.39812-0.50289l-1.1734-2.9335h-7.5224l-1.1944 2.9335q-0.14668 0.31431-0.41908 0.50289-0.2724 0.16763-0.58671 0.16763-0.46098 0-0.77529-0.31431-0.29336-0.33526-0.29336-0.7753 0-0.20954 0.10477-0.48194l5.888-14.06q0.31431-0.73339 1.0267-0.73339 0.75434 0 1.0267 0.73339zm-3.8974-3.8765-2.9964-7.4596-3.0593 7.4596z"/>
  <path d="m168.96 40.531q-2.0325 0-3.7088-0.92197-1.6554-0.92197-2.284-2.4097-0.10477-0.25145-0.10477-0.41908 0-0.31431 0.23049-0.5448 0.2305-0.25145 0.62862-0.33526 0.0629-0.02095 0.20954-0.02095 0.33526 0 0.62862 0.20954 0.3143 0.18858 0.46098 0.52385 0.37717 0.8172 1.4877 1.383 1.1106 0.56576 2.4516 0.56576 1.5716 0 2.6612-0.71243 1.0896-0.73339 1.0896-1.9906 0-1.1944-0.92197-2.0325-0.92197-0.85911-2.8078-1.0477-2.5983-0.25145-4.086-1.5087-1.4877-1.2782-1.4877-3.185 0-1.341 0.75434-2.3049 0.7753-0.98483 2.0954-1.4877 1.341-0.52385 2.9964-0.52385 1.802 0 3.0383 0.73339t2.0954 2.0954q0.25145 0.39812 0.25145 0.75434 0 0.46098-0.41908 0.75434-0.23049 0.14668-0.5448 0.14668t-0.58671-0.14668q-0.2724-0.16763-0.41907-0.44003-0.56576-0.94292-1.4249-1.4249-0.83816-0.50289-2.1373-0.50289-1.5925 0-2.5773 0.62862-0.98483 0.60766-0.98483 1.7811 0 1.0896 0.88006 1.823 0.88007 0.73339 3.1431 0.96388 2.5145 0.25145 3.8974 1.5296 1.383 1.2572 1.383 3.3317 0 1.5087-0.8172 2.5983-0.8172 1.0686-2.1792 1.6134-1.341 0.52385-2.8916 0.52385z"/>
 </g>
</svg>
