<?xml version="1.0" encoding="UTF-8"?>
<svg width="259.9" height="40" enable-background="new 0 0 259.9 40" version="1.1" viewBox="0 0 259.9 40" xmlns="http://www.w3.org/2000/svg" xmlns:cc="http://creativecommons.org/ns#" xmlns:dc="http://purl.org/dc/elements/1.1/" xmlns:rdf="http://www.w3.org/1999/02/22-rdf-syntax-ns#"><title>Logo STARTX</title><metadata><rdf:RDF><cc:Work rdf:about=""><dc:format>image/svg+xml</dc:format><dc:type rdf:resource="http://purl.org/dc/dcmitype/StillImage"/><dc:title>Logo STARTX</dc:title><dc:creator><cc:Agent><dc:title>Christophe LARUE</dc:title></cc:Agent></dc:creator></cc:Work></rdf:RDF></metadata><g transform="matrix(.93048 0 0 .93048 212.94 -87.497)" fill="#fff" stroke="#fff" stroke-width="6.8302"><g transform="matrix(.29282 0 0 -.29282 -168.59 110.71)"><path d="m0 0v-24.916l21.575-12.457 21.576 12.457v24.916l-21.576 12.458z" fill="#fff" stroke="#fff" stroke-width="6.8302"/></g><g transform="matrix(.29282 0 0 -.29282 -140.25 135.06)"><path d="M 0,0 -22.743,13.132 V 39.391 L 0,52.525 22.746,39.391 V 13.132 Z M -20.408,14.479 0,2.695 20.411,14.479 V 38.044 L 0,49.827 -20.408,38.044 Z" fill="#fff" stroke="#fff" stroke-width="6.8302"/></g><g transform="matrix(.29282 0 0 -.29282 -154.94 135.02)"><path d="m0 0-22.743 13.133v26.259l22.743 13.134 22.743-13.134v-26.259z" fill="#fff" stroke="#fff" stroke-width="6.8302"/></g><g transform="matrix(.29282 0 0 -.29282 -147.59 122.04)"><path d="M 0,0 -22.743,13.132 V 39.391 L 0,52.523 22.746,39.391 V 13.132 Z M -20.408,14.479 0,2.696 20.411,14.479 V 38.044 L 0,49.827 -20.408,38.044 Z" fill="#fff" stroke="#fff" stroke-width="6.8302"/></g><g transform="matrix(.29282 0 0 -.29282 -135.98 112.26)"><path d="m0 0c1.879-11.084 10.309-16.305 21.057-16.305 11.147 0 18.402 4.828 18.402 14.478 0 9.132-5.372 13.044-19.207 17.479-11.819 3.651-22.966 7.564-22.966 21.521 0 15 11.817 20.346 23.504 20.346 13.835 0 23.638-5.61 25.249-20.214l-6.848-0.127c-1.476 10.696-7.926 14.731-18.269 14.731-9.533 0-16.653-4.432-16.653-14.215 0-9.652 7.387-12.39 20.146-16.435 12.358-3.91 22.164-8.609 22.164-22.304 0-13.955-10.883-20.735-25.657-20.735-15.04 0-24.918 7.934-27.067 21.759z" fill="#fff" stroke="#fff" stroke-width="6.8302"/></g><g transform="matrix(.29282 0 0 -.29282 -97.247 95.42)"><path d="m0 0-28.592-77.724h6.702l2.421 6.645h46.364l2.429-6.645h6.702l-28.589 77.724zm3.667-6.433 21.02-58.61h-41.958z" fill="#fff" stroke="#fff" stroke-width="6.8302"/></g><g transform="matrix(.29282 0 0 -.29282 -120.76 95.42)"><path d="m0 0v-5.971h20.164v-70.759h5.971v70.759h20.161v5.971z" fill="#fff" stroke="#fff" stroke-width="6.8302"/></g><g transform="matrix(.29282 0 0 -.29282 -68.19 117.95)"><path d="m0 0-18.736 35.042c9.307 3.187 14.03 11.188 14.03 20.208 0 11.682-7.764 21.692-23.455 21.692h-29.64v-76.691h5.981v70.908h22.923c10.786 0 18.02-6.565 18.02-15.909 0-9.346-7.234-15.909-18.02-15.909h-10.504v-5.783h11.24c1.111 0 2.175 0.062 3.208 0.163l18.03-33.721z" fill="#fff" stroke="#fff" stroke-width="6.8302"/></g><g transform="matrix(.29282 0 0 -.29282 -66.605 95.42)"><path d="m0 0v-5.971h20.164v-70.759h5.97v70.759h20.162v5.971z" fill="#fff" stroke="#fff" stroke-width="6.8302"/></g><g transform="matrix(.29282 0 0 -.29282 -35.918 95.42)"><path d="m0 0-21.988-32.393-21.854 32.341-0.033 0.052h-7.696l25.885-37.419-27.287-39.189-0.124-0.179h7.598l23.511 34.461 23.581-34.409 0.031-0.052h7.491l-27.309 39.482 25.662 37.123 0.124 0.182z" fill="#fff" stroke="#fff" stroke-width="6.8302"/></g></g><g transform="matrix(.93048 0 0 .93048 45.461 -87.497)"><g transform="matrix(.29282 0 0 -.29282 11.407 110.71)"><path d="m0 0v-24.916l21.575-12.457 21.576 12.457v24.916l-21.576 12.458z" fill="#005524"/></g><g transform="matrix(.29282 0 0 -.29282 39.75 135.06)"><path d="M 0,0 -22.743,13.132 V 39.391 L 0,52.525 22.746,39.391 V 13.132 Z M -20.408,14.479 0,2.695 20.411,14.479 V 38.044 L 0,49.827 -20.408,38.044 Z" fill="#005524"/></g><g transform="matrix(.29282 0 0 -.29282 25.063 135.02)"><path d="m0 0-22.743 13.133v26.259l22.743 13.134 22.743-13.134v-26.259z" fill="#005524"/></g><g transform="matrix(.29282 0 0 -.29282 32.412 122.04)"><path d="M 0,0 -22.743,13.132 V 39.391 L 0,52.523 22.746,39.391 V 13.132 Z M -20.408,14.479 0,2.696 20.411,14.479 V 38.044 L 0,49.827 -20.408,38.044 Z" fill="#005524"/></g><g transform="matrix(.29282 0 0 -.29282 44.018 112.26)"><path d="m0 0c1.879-11.084 10.309-16.305 21.057-16.305 11.147 0 18.402 4.828 18.402 14.478 0 9.132-5.372 13.044-19.207 17.479-11.819 3.651-22.966 7.564-22.966 21.521 0 15 11.817 20.346 23.504 20.346 13.835 0 23.638-5.61 25.249-20.214l-6.848-0.127c-1.476 10.696-7.926 14.731-18.269 14.731-9.533 0-16.653-4.432-16.653-14.215 0-9.652 7.387-12.39 20.146-16.435 12.358-3.91 22.164-8.609 22.164-22.304 0-13.955-10.883-20.735-25.657-20.735-15.04 0-24.918 7.934-27.067 21.759z" fill="#005524"/></g><g transform="matrix(.29282 0 0 -.29282 82.753 95.42)"><path d="m0 0-28.592-77.724h6.702l2.421 6.645h46.364l2.429-6.645h6.702l-28.589 77.724zm3.667-6.433 21.02-58.61h-41.958z" fill="#005524"/></g><g transform="matrix(.29282 0 0 -.29282 59.241 95.42)"><path d="m0 0v-5.971h20.164v-70.759h5.971v70.759h20.161v5.971z" fill="#005524"/></g><g transform="matrix(.29282 0 0 -.29282 111.81 117.95)"><path d="m0 0-18.736 35.042c9.307 3.187 14.03 11.188 14.03 20.208 0 11.682-7.764 21.692-23.455 21.692h-29.64v-76.691h5.981v70.908h22.923c10.786 0 18.02-6.565 18.02-15.909 0-9.346-7.234-15.909-18.02-15.909h-10.504v-5.783h11.24c1.111 0 2.175 0.062 3.208 0.163l18.03-33.721z" fill="#005524"/></g><g transform="matrix(.29282 0 0 -.29282 113.39 95.42)"><path d="m0 0v-5.971h20.164v-70.759h5.97v70.759h20.162v5.971z" fill="#005524"/></g><g transform="matrix(.29282 0 0 -.29282 144.08 95.42)"><path d="m0 0-21.988-32.393-21.854 32.341-0.033 0.052h-7.696l25.885-37.419-27.287-39.189-0.124-0.179h7.598l23.511 34.461 23.581-34.409 0.031-0.052h7.491l-27.309 39.482 25.662 37.123 0.124 0.182z" fill="#005524"/></g></g><g transform="matrix(.82971 0 0 .82971 -1.8103 .53728)"><path d="m54.228 11.987c-0.5725-1.1825-1.235-2.3238-2.0038-3.4l-8.2125 2.9888c0.955 0.9775 1.7575 2.0762 2.4138 3.2512zm-36.303 9.0834-8.215 2.9888c0.105 1.3175 0.3325 2.6188 0.65125 3.8938l7.8038-2.8412c-0.25375-1.32-0.34375-2.68-0.24-4.0412" fill="#c22133"/><path d="m36.156 9.6601c1.7088 0.7975 3.1888 1.885 4.4375 3.16l8.2125-2.9888c-2.275-3.1925-5.3738-5.86-9.17-7.6312-11.741-5.475-25.749-0.3775-31.222 11.363-1.7725 3.7988-2.4312 7.8338-2.1212 11.741l8.2138-2.9888c0.13625-1.78 0.57-3.5638 1.3662-5.2738 3.5575-7.6275 12.656-10.938 20.284-7.3813" fill="#db212e"/><path d="m44.916 24.668c-0.13125 1.7788-0.58 3.5625-1.3788 5.2738-3.5562 7.6288-12.656 10.939-20.282 7.3825-1.7112-0.79875-3.2025-1.8775-4.4462-3.155l-8.1962 2.9825c2.27 3.1925 5.365 5.8612 9.1638 7.6338 11.741 5.4738 25.746 0.37625 31.221-11.365 1.7738-3.7962 2.4275-7.8312 2.115-11.735z" fill="#db212e"/><path d="m46.935 14.641-7.8038 2.84c1.45 2.5975 2.135 5.5875 1.91 8.595l8.1962-2.9812c-0.235-2.9412-1.0188-5.8125-2.3025-8.4538m-36.063 13.124-7.8038 2.8425c0.71625 2.845 1.96 5.5488 3.67 7.955l8.195-2.9838c-2.1038-2.16-3.5025-4.8938-4.0612-7.8138" fill="#eb2126"/><path d="m53.038 9.823c-0.25875-0.42-0.5275-0.83375-0.81375-1.2362l-8.2125 2.9888c0.36125 0.37 0.69375 0.7625 1.0112 1.165zm-35.145 12.896c-0.02-0.5475-0.0113-1.0975 0.0312-1.6488l-8.215 2.9888c0.0425 0.52625 0.10875 1.0488 0.1875 1.57l7.9962-2.91z" fill="#ad213b"/><path d="m53.112 21.686-8.1962 2.9825c-0.0863 1.18-0.31625 2.3625-0.6925 3.525l8.9212-3.2525c0.0638-1.09 0.0537-2.1775-0.0325-3.255m-42.499 15.468c0.63125 0.88875 1.33 1.7362 2.0888 2.5362l8.9225-3.2538c-1.0425-0.6525-1.985-1.4138-2.8162-2.2662z" fill="#ba2133"/></g><g fill="#f0f0f0" stroke-width=".86992"><path d="m102.64 34.447 0.78293 0.78293c-1.0439 1.1309-2.5228 1.7398-4.0886 1.7398-2.9577 0.08699-5.3935-2.3488-5.4805-5.3065s2.3488-5.3935 5.3065-5.4805h0.17399c1.6528 0 3.1317 0.60894 4.0886 1.7398l-0.78293 0.78293c-0.86992-0.95691-2.0878-1.4789-3.3927-1.4789-2.4358 0-4.2626 1.9138-4.2626 4.3496s1.8268 4.3496 4.2626 4.3496c1.3919-0.08699 2.6098-0.60894 3.3927-1.4789z"/><path d="m108.12 29.141c2.0878 0 3.8276 1.6528 3.8276 3.8276s-1.6528 3.9146-3.8276 3.9146c-2.0878 0-3.8276-1.6528-3.8276-3.9146s1.6528-3.8276 3.8276-3.8276zm2.6968 3.9146c0-1.6528-1.2179-2.8707-2.6968-2.8707s-2.6968 1.3049-2.6968 2.8707c0 1.6528 1.2179 2.8707 2.6968 2.8707s2.6968-1.3049 2.6968-2.8707z"/><path d="m113.42 29.315h1.1309v0.86992c0.60894-0.69594 1.3919-1.0439 2.3488-1.0439 1.6528 0 2.8707 1.1309 2.8707 2.8707v4.6976h-1.1309v-4.5236c0-1.3049-0.78293-2.1748-2.0878-2.1748-0.86992 0-1.6528 0.43496-2.0878 1.1309v5.4805h-1.0439z"/><path d="m122.21 30.272h-1.5658v-0.95691h1.5658v-1.9138l1.0439-0.26098v2.1748h2.2618v0.95691h-2.2618v4.5236c0 0.78293 0.34796 1.1309 1.1309 1.1309 0.34797 0 0.78293-0.08699 1.0439-0.17398v0.95691c-0.43496 0.17398-0.86992 0.17398-1.3049 0.17398-1.3049 0-2.0008-0.60894-2.0008-1.8268z"/><path d="m126.3 34.621c0-1.3919 1.1309-2.2618 2.9577-2.2618 0.78293 0 1.4789 0.17398 2.1748 0.52195v-0.95691c0-1.2179-0.69593-1.8268-2.0008-1.8268-0.69594 0-1.4789 0.17398-2.3488 0.69594l-0.43496-0.86992c1.0439-0.52195 1.9138-0.78293 2.8707-0.78293 1.9138 0 2.9577 0.95691 2.9577 2.6098v4.9585h-1.0439v-0.69594c-0.69593 0.60894-1.5658 0.86992-2.4358 0.86992-1.5659 0-2.6968-0.86992-2.6968-2.2618zm2.9577 1.3919c0.86992 0 1.6528-0.26098 2.1748-0.86992v-1.3919c-0.60894-0.43496-1.3049-0.60894-2.1748-0.60894-1.2179 0-1.9138 0.60894-1.9138 1.4789s0.78293 1.3919 1.9138 1.3919z"/><path d="m134.22 27.14c0-0.43496 0.34797-0.78293 0.78293-0.78293s0.69593 0.34797 0.78292 0.69594c0 0.43496-0.34796 0.78293-0.78292 0.78293-0.52196 0.08699-0.78293-0.26098-0.78293-0.69594zm1.2179 9.6561h-1.1309v-7.3943h1.1309z"/><path d="m137.35 29.315h1.1309v0.86992c0.60894-0.69594 1.3919-1.0439 2.3488-1.0439 1.6528 0 2.8707 1.1309 2.8707 2.8707v4.6976h-1.0439v-4.5236c0-1.3049-0.78293-2.1748-2.0878-2.1748-0.86992 0-1.6528 0.43496-2.0878 1.1309v5.4805h-1.1309z"/><path d="m149 36.883c-2.0878 0-3.8276-1.6528-3.8276-3.7407v-0.08699c0-2.1748 1.6528-3.8276 3.6537-3.8276 2.0008 0 3.4797 1.6528 3.4797 3.8276v0.34797h-6.0894c0.17399 1.4789 1.3049 2.5228 2.7838 2.5228 0.78292 0 1.5658-0.26098 2.0878-0.69594l0.69594 0.69594c-0.78293 0.69594-1.8268 0.95691-2.7838 0.95691zm-2.6968-4.3496h4.9585c-0.17398-1.3049-1.2179-2.3488-2.4358-2.3488-1.3049 0-2.3488 0.95691-2.5228 2.3488z"/><path d="m153.88 29.315h1.1309v1.0439c0.43496-0.78293 1.2179-1.2179 2.0878-1.2179 0.26097 0 0.43496 0 0.69593 0.08699v1.0439c-0.26097-0.08699-0.52195-0.17398-0.78292-0.17398-0.95692 0-1.6528 0.52195-2.0008 1.5659v5.1325h-1.1309z"/><path d="m162.4 26.357h4.5236c2.0008 0 3.3927 1.2179 3.3927 2.9577s-1.3049 3.0447-3.3927 3.0447h-3.3927v4.3496h-1.1309zm1.1309 1.0439v4.0016h3.3057c1.3919 0 2.2618-0.78293 2.2618-2.0008s-0.86992-2.0008-2.2618-2.0008z"/><path d="m172.93 36.796h-1.1309v-10.439l1.1309-0.26098z"/><path d="m174.41 34.621c0-1.3919 1.1309-2.2618 2.9577-2.2618 0.78293 0 1.4789 0.17398 2.1748 0.52195v-0.95691c0-1.2179-0.69593-1.8268-2.0008-1.8268-0.69594 0-1.4789 0.17398-2.3488 0.69594l-0.43496-0.86992c1.0439-0.52195 1.9138-0.78293 2.8707-0.78293 1.9138 0 2.9577 0.95691 2.9577 2.6098v4.9585h-1.0439v-0.69594c-0.69593 0.60894-1.5658 0.86992-2.4358 0.86992-1.5659 0-2.6968-0.86992-2.6968-2.2618zm2.9577 1.3919c0.86992 0 1.6528-0.26098 2.1748-0.86992v-1.3919c-0.60894-0.43496-1.3049-0.60894-2.1748-0.60894-1.2179 0-1.9138 0.60894-1.9138 1.4789s0.78293 1.3919 1.9138 1.3919z"/><path d="m183.1 30.272h-1.5659v-0.95691h1.5659v-1.9138l1.0439-0.26098v2.1748h2.2618v0.95691h-2.2618v4.5236c0 0.78293 0.34797 1.1309 1.1309 1.1309 0.34796 0 0.78292-0.08699 1.0439-0.17398v0.95691c-0.43496 0.17398-0.86992 0.17398-1.3049 0.17398-1.3049 0-2.0008-0.60894-2.0008-1.8268z"/><path d="m188.76 29.315v-1.3919c0-1.4789 0.78292-2.2618 2.2618-2.2618 0.34797 0 0.69593 0 0.95691 0.17398v0.95691c-0.26098-0.08699-0.60894-0.17398-0.95691-0.17398-0.86992 0-1.3049 0.43496-1.3049 1.3049v1.3919h2.1748v0.95691h-2.1748v6.5244h-1.0439v-6.5244h-1.7398v-0.95691z"/><path d="m196.33 29.141c2.0878 0 3.8276 1.6528 3.8276 3.8276s-1.6528 3.9146-3.8276 3.9146c-2.0878 0-3.8276-1.6528-3.8276-3.9146s1.7398-3.8276 3.8276-3.8276zm2.6968 3.9146c0-1.6528-1.2179-2.8707-2.6968-2.8707s-2.6968 1.3049-2.6968 2.8707c0 1.6528 1.2179 2.8707 2.6968 2.8707 1.5659 0 2.6968-1.3049 2.6968-2.8707z"/><path d="m201.63 29.315h1.1309v1.0439c0.43496-0.78293 1.2179-1.2179 2.0878-1.2179 0.26097 0 0.43496 0 0.69593 0.08699v1.0439c-0.26097-0.08699-0.52195-0.17398-0.78293-0.17398-0.95691 0-1.6528 0.52195-2.0008 1.5659v5.1325h-1.1309z"/><path d="m206.85 29.315h1.1309v0.78293c0.52195-0.60894 1.3049-0.95691 2.1748-0.95691 0.95691 0 1.9138 0.52195 2.3488 1.3919 0.52195-0.86992 1.5659-1.3919 2.5228-1.3919 1.6528 0 2.6968 1.1309 2.6968 2.8707v4.6976h-1.0439v-4.5236c0-1.3049-0.78293-2.1748-1.9138-2.1748-0.78292 0-1.4789 0.43496-2.0008 1.2179 0.087 0.26098 0.087 0.43496 0.087 0.69594v4.6976h-1.1309v-4.5236c0-1.3049-0.78292-2.1748-1.9138-2.1748-0.78293 0-1.4789 0.34797-1.9138 1.0439v5.5675h-1.1309v-7.2203z"/></g></svg>
