<?xml version="1.0" encoding="UTF-8"?>
<svg width="259.9" height="40" enable-background="new 0 0 259.9 40" version="1.1" viewBox="0 0 259.9 40" xmlns="http://www.w3.org/2000/svg" xmlns:cc="http://creativecommons.org/ns#" xmlns:dc="http://purl.org/dc/elements/1.1/" xmlns:rdf="http://www.w3.org/1999/02/22-rdf-syntax-ns#"><metadata><rdf:RDF><cc:Work rdf:about=""><dc:format>image/svg+xml</dc:format><dc:type rdf:resource="http://purl.org/dc/dcmitype/StillImage"/><dc:title/></cc:Work></rdf:RDF></metadata><g transform="matrix(.93048 0 0 .93048 212.94 -87.497)" fill="#fff" stroke="#fff" stroke-width="6.8302"><g transform="matrix(.29282 0 0 -.29282 -168.59 110.71)"><path d="m0 0v-24.916l21.575-12.457 21.576 12.457v24.916l-21.576 12.458z" fill="#fff" stroke="#fff" stroke-width="6.8302"/></g><g transform="matrix(.29282 0 0 -.29282 -140.25 135.06)"><path d="M 0,0 -22.743,13.132 V 39.391 L 0,52.525 22.746,39.391 V 13.132 Z M -20.408,14.479 0,2.695 20.411,14.479 V 38.044 L 0,49.827 -20.408,38.044 Z" fill="#fff" stroke="#fff" stroke-width="6.8302"/></g><g transform="matrix(.29282 0 0 -.29282 -154.94 135.02)"><path d="m0 0-22.743 13.133v26.259l22.743 13.134 22.743-13.134v-26.259z" fill="#fff" stroke="#fff" stroke-width="6.8302"/></g><g transform="matrix(.29282 0 0 -.29282 -147.59 122.04)"><path d="M 0,0 -22.743,13.132 V 39.391 L 0,52.523 22.746,39.391 V 13.132 Z M -20.408,14.479 0,2.696 20.411,14.479 V 38.044 L 0,49.827 -20.408,38.044 Z" fill="#fff" stroke="#fff" stroke-width="6.8302"/></g><g transform="matrix(.29282 0 0 -.29282 -135.98 112.26)"><path d="m0 0c1.879-11.084 10.309-16.305 21.057-16.305 11.147 0 18.402 4.828 18.402 14.478 0 9.132-5.372 13.044-19.207 17.479-11.819 3.651-22.966 7.564-22.966 21.521 0 15 11.817 20.346 23.504 20.346 13.835 0 23.638-5.61 25.249-20.214l-6.848-0.127c-1.476 10.696-7.926 14.731-18.269 14.731-9.533 0-16.653-4.432-16.653-14.215 0-9.652 7.387-12.39 20.146-16.435 12.358-3.91 22.164-8.609 22.164-22.304 0-13.955-10.883-20.735-25.657-20.735-15.04 0-24.918 7.934-27.067 21.759z" fill="#fff" stroke="#fff" stroke-width="6.8302"/></g><g transform="matrix(.29282 0 0 -.29282 -97.247 95.42)"><path d="m0 0-28.592-77.724h6.702l2.421 6.645h46.364l2.429-6.645h6.702l-28.589 77.724zm3.667-6.433 21.02-58.61h-41.958z" fill="#fff" stroke="#fff" stroke-width="6.8302"/></g><g transform="matrix(.29282 0 0 -.29282 -120.76 95.42)"><path d="m0 0v-5.971h20.164v-70.759h5.971v70.759h20.161v5.971z" fill="#fff" stroke="#fff" stroke-width="6.8302"/></g><g transform="matrix(.29282 0 0 -.29282 -68.19 117.95)"><path d="m0 0-18.736 35.042c9.307 3.187 14.03 11.188 14.03 20.208 0 11.682-7.764 21.692-23.455 21.692h-29.64v-76.691h5.981v70.908h22.923c10.786 0 18.02-6.565 18.02-15.909 0-9.346-7.234-15.909-18.02-15.909h-10.504v-5.783h11.24c1.111 0 2.175 0.062 3.208 0.163l18.03-33.721z" fill="#fff" stroke="#fff" stroke-width="6.8302"/></g><g transform="matrix(.29282 0 0 -.29282 -66.605 95.42)"><path d="m0 0v-5.971h20.164v-70.759h5.97v70.759h20.162v5.971z" fill="#fff" stroke="#fff" stroke-width="6.8302"/></g><g transform="matrix(.29282 0 0 -.29282 -35.918 95.42)"><path d="m0 0-21.988-32.393-21.854 32.341-0.033 0.052h-7.696l25.885-37.419-27.287-39.189-0.124-0.179h7.598l23.511 34.461 23.581-34.409 0.031-0.052h7.491l-27.309 39.482 25.662 37.123 0.124 0.182z" fill="#fff" stroke="#fff" stroke-width="6.8302"/></g></g><g transform="matrix(.93048 0 0 .93048 45.461 -87.497)"><g transform="matrix(.29282 0 0 -.29282 11.407 110.71)"><path d="m0 0v-24.916l21.575-12.457 21.576 12.457v24.916l-21.576 12.458z" fill="#005524"/></g><g transform="matrix(.29282 0 0 -.29282 39.75 135.06)"><path d="M 0,0 -22.743,13.132 V 39.391 L 0,52.525 22.746,39.391 V 13.132 Z M -20.408,14.479 0,2.695 20.411,14.479 V 38.044 L 0,49.827 -20.408,38.044 Z" fill="#005524"/></g><g transform="matrix(.29282 0 0 -.29282 25.063 135.02)"><path d="m0 0-22.743 13.133v26.259l22.743 13.134 22.743-13.134v-26.259z" fill="#005524"/></g><g transform="matrix(.29282 0 0 -.29282 32.412 122.04)"><path d="M 0,0 -22.743,13.132 V 39.391 L 0,52.523 22.746,39.391 V 13.132 Z M -20.408,14.479 0,2.696 20.411,14.479 V 38.044 L 0,49.827 -20.408,38.044 Z" fill="#005524"/></g><g transform="matrix(.29282 0 0 -.29282 44.018 112.26)"><path d="m0 0c1.879-11.084 10.309-16.305 21.057-16.305 11.147 0 18.402 4.828 18.402 14.478 0 9.132-5.372 13.044-19.207 17.479-11.819 3.651-22.966 7.564-22.966 21.521 0 15 11.817 20.346 23.504 20.346 13.835 0 23.638-5.61 25.249-20.214l-6.848-0.127c-1.476 10.696-7.926 14.731-18.269 14.731-9.533 0-16.653-4.432-16.653-14.215 0-9.652 7.387-12.39 20.146-16.435 12.358-3.91 22.164-8.609 22.164-22.304 0-13.955-10.883-20.735-25.657-20.735-15.04 0-24.918 7.934-27.067 21.759z" fill="#005524"/></g><g transform="matrix(.29282 0 0 -.29282 82.753 95.42)"><path d="m0 0-28.592-77.724h6.702l2.421 6.645h46.364l2.429-6.645h6.702l-28.589 77.724zm3.667-6.433 21.02-58.61h-41.958z" fill="#005524"/></g><g transform="matrix(.29282 0 0 -.29282 59.241 95.42)"><path d="m0 0v-5.971h20.164v-70.759h5.971v70.759h20.161v5.971z" fill="#005524"/></g><g transform="matrix(.29282 0 0 -.29282 111.81 117.95)"><path d="m0 0-18.736 35.042c9.307 3.187 14.03 11.188 14.03 20.208 0 11.682-7.764 21.692-23.455 21.692h-29.64v-76.691h5.981v70.908h22.923c10.786 0 18.02-6.565 18.02-15.909 0-9.346-7.234-15.909-18.02-15.909h-10.504v-5.783h11.24c1.111 0 2.175 0.062 3.208 0.163l18.03-33.721z" fill="#005524"/></g><g transform="matrix(.29282 0 0 -.29282 113.39 95.42)"><path d="m0 0v-5.971h20.164v-70.759h5.97v70.759h20.162v5.971z" fill="#005524"/></g><g transform="matrix(.29282 0 0 -.29282 144.08 95.42)"><path d="m0 0-21.988-32.393-21.854 32.341-0.033 0.052h-7.696l25.885-37.419-27.287-39.189-0.124-0.179h7.598l23.511 34.461 23.581-34.409 0.031-0.052h7.491l-27.309 39.482 25.662 37.123 0.124 0.182z" fill="#005524"/></g></g><g transform="matrix(.86992 0 0 .86992 62.445 -54.85)" fill="#fff"><g transform="matrix(.95378 0 0 .95378 -73.863 63.67)"><path d="m54.228 11.987c-0.5725-1.1825-1.235-2.3238-2.0038-3.4l-8.2125 2.9888c0.955 0.9775 1.7575 2.0762 2.4138 3.2512zm-36.303 9.0834-8.215 2.9888c0.105 1.3175 0.3325 2.6188 0.65125 3.8938l7.8038-2.8412c-0.25375-1.32-0.34375-2.68-0.24-4.0412" fill="#c22133"/><path d="m36.156 9.6601c1.7088 0.7975 3.1888 1.885 4.4375 3.16l8.2125-2.9888c-2.275-3.1925-5.3738-5.86-9.17-7.6312-11.741-5.475-25.749-0.3775-31.222 11.363-1.7725 3.7988-2.4312 7.8338-2.1212 11.741l8.2138-2.9888c0.13625-1.78 0.57-3.5638 1.3662-5.2738 3.5575-7.6275 12.656-10.938 20.284-7.3813" fill="#db212e"/><path d="m44.916 24.668c-0.13125 1.7788-0.58 3.5625-1.3788 5.2738-3.5562 7.6288-12.656 10.939-20.282 7.3825-1.7112-0.79875-3.2025-1.8775-4.4462-3.155l-8.1962 2.9825c2.27 3.1925 5.365 5.8612 9.1638 7.6338 11.741 5.4738 25.746 0.37625 31.221-11.365 1.7738-3.7962 2.4275-7.8312 2.115-11.735z" fill="#db212e"/><path d="m46.935 14.641-7.8038 2.84c1.45 2.5975 2.135 5.5875 1.91 8.595l8.1962-2.9812c-0.235-2.9412-1.0188-5.8125-2.3025-8.4538m-36.063 13.124-7.8038 2.8425c0.71625 2.845 1.96 5.5488 3.67 7.955l8.195-2.9838c-2.1038-2.16-3.5025-4.8938-4.0612-7.8138" fill="#eb2126"/><path d="m53.038 9.823c-0.25875-0.42-0.5275-0.83375-0.81375-1.2362l-8.2125 2.9888c0.36125 0.37 0.69375 0.7625 1.0112 1.165zm-35.145 12.896c-0.02-0.5475-0.0113-1.0975 0.0312-1.6488l-8.215 2.9888c0.0425 0.52625 0.10875 1.0488 0.1875 1.57l7.9962-2.91z" fill="#ad213b"/><path d="m53.112 21.686-8.1962 2.9825c-0.0863 1.18-0.31625 2.3625-0.6925 3.525l8.9212-3.2525c0.0638-1.09 0.0537-2.1775-0.0325-3.255m-42.499 15.468c0.63125 0.88875 1.33 1.7362 2.0888 2.5362l8.9225-3.2538c-1.0425-0.6525-1.985-1.4138-2.8162-2.2662z" fill="#ba2133"/></g><path d="m46.202 102.65 0.9 0.9c-1.2 1.3-2.9 2-4.7 2-3.4 0.1-6.2-2.7-6.3-6.1-0.1-3.4 2.7-6.2 6.1-6.3h0.2c1.9 0 3.6 0.7 4.7 2l-0.9 0.9c-1-1.1-2.4-1.7-3.9-1.7-2.8 0-4.9 2.2-4.9 5 0 2.8 2.1 5 4.9 5 1.6-0.1 3-0.7 3.9-1.7z"/><path d="m52.502 96.55c2.4 0 4.4 1.9 4.4 4.4 0 2.5-1.9 4.5-4.4 4.5-2.4 0-4.4-1.9-4.4-4.5 0-2.6 1.9-4.4 4.4-4.4zm3.1 4.5c0-1.9-1.4-3.3-3.1-3.3s-3.1 1.5-3.1 3.3c0 1.9 1.4 3.3 3.1 3.3s3.1-1.5 3.1-3.3z"/><path d="m58.602 96.75h1.3v1c0.7-0.8 1.6-1.2 2.7-1.2 1.9 0 3.3 1.3 3.3 3.3v5.4h-1.3v-5.2c0-1.5-0.9-2.5-2.4-2.5-1 0-1.9 0.5-2.4 1.3v6.3h-1.2z"/><path d="m68.702 97.85h-1.8v-1.1h1.8v-2.2l1.2-0.3v2.5h2.6v1.1h-2.6v5.2c0 0.9 0.4 1.3 1.3 1.3 0.4 0 0.9-0.1 1.2-0.2v1.1c-0.5 0.2-1 0.2-1.5 0.2-1.5 0-2.3-0.7-2.3-2.1z"/><path d="m73.402 102.85c0-1.6 1.3-2.6 3.4-2.6 0.9 0 1.7 0.2 2.5 0.6v-1.1c0-1.4-0.8-2.1-2.3-2.1-0.8 0-1.7 0.2-2.7 0.8l-0.5-1c1.2-0.6 2.2-0.9 3.3-0.9 2.2 0 3.4 1.1 3.4 3v5.7h-1.2v-0.8c-0.8 0.7-1.8 1-2.8 1-1.8 0-3.1-1-3.1-2.6zm3.4 1.6c1 0 1.9-0.3 2.5-1v-1.6c-0.7-0.5-1.5-0.7-2.5-0.7-1.4 0-2.2 0.7-2.2 1.7s0.9 1.6 2.2 1.6z"/><path d="m82.502 94.25c0-0.5 0.4-0.9 0.9-0.9s0.8 0.4 0.9 0.8c0 0.5-0.4 0.9-0.9 0.9-0.6 0.1-0.9-0.3-0.9-0.8zm1.4 11.1h-1.3v-8.5h1.3z"/><path d="m86.102 96.75h1.3v1c0.7-0.8 1.6-1.2 2.7-1.2 1.9 0 3.3 1.3 3.3 3.3v5.4h-1.2v-5.2c0-1.5-0.9-2.5-2.4-2.5-1 0-1.9 0.5-2.4 1.3v6.3h-1.3z"/><path d="m99.502 105.45c-2.4 0-4.4-1.9-4.4-4.3v-0.1c0-2.5 1.9-4.4 4.2-4.4 2.3 0 4 1.9 4 4.4v0.4h-7c0.2 1.7 1.5 2.9 3.2 2.9 0.9 0 1.8-0.3 2.4-0.8l0.8 0.8c-0.9 0.8-2.1 1.1-3.2 1.1zm-3.1-5h5.7c-0.2-1.5-1.4-2.7-2.8-2.7-1.5 0-2.7 1.1-2.9 2.7z"/><path d="m105.1 96.75h1.3v1.2c0.5-0.9 1.4-1.4 2.4-1.4 0.3 0 0.5 0 0.8 0.1v1.2c-0.3-0.1-0.6-0.2-0.9-0.2-1.1 0-1.9 0.6-2.3 1.8v5.9h-1.3z"/><path d="m114.9 93.35h5.2c2.3 0 3.9 1.4 3.9 3.4s-1.5 3.5-3.9 3.5h-3.9v5h-1.3zm1.3 1.2v4.6h3.8c1.6 0 2.6-0.9 2.6-2.3s-1-2.3-2.6-2.3z"/><path d="m127 105.35h-1.3v-12l1.3-0.3z"/><path d="m128.7 102.85c0-1.6 1.3-2.6 3.4-2.6 0.9 0 1.7 0.2 2.5 0.6v-1.1c0-1.4-0.8-2.1-2.3-2.1-0.8 0-1.7 0.2-2.7 0.8l-0.5-1c1.2-0.6 2.2-0.9 3.3-0.9 2.2 0 3.4 1.1 3.4 3v5.7h-1.2v-0.8c-0.8 0.7-1.8 1-2.8 1-1.8 0-3.1-1-3.1-2.6zm3.4 1.6c1 0 1.9-0.3 2.5-1v-1.6c-0.7-0.5-1.5-0.7-2.5-0.7-1.4 0-2.2 0.7-2.2 1.7s0.9 1.6 2.2 1.6z"/><path d="m138.7 97.85h-1.8v-1.1h1.8v-2.2l1.2-0.3v2.5h2.6v1.1h-2.6v5.2c0 0.9 0.4 1.3 1.3 1.3 0.4 0 0.9-0.1 1.2-0.2v1.1c-0.5 0.2-1 0.2-1.5 0.2-1.5 0-2.3-0.7-2.3-2.1z"/><path d="m145.2 96.75v-1.6c0-1.7 0.9-2.6 2.6-2.6 0.4 0 0.8 0 1.1 0.2v1.1c-0.3-0.1-0.7-0.2-1.1-0.2-1 0-1.5 0.5-1.5 1.5v1.6h2.5v1.1h-2.5v7.5h-1.2v-7.5h-2v-1.1z"/><path d="m153.9 96.55c2.4 0 4.4 1.9 4.4 4.4 0 2.5-1.9 4.5-4.4 4.5-2.4 0-4.4-1.9-4.4-4.5 0-2.6 2-4.4 4.4-4.4zm3.1 4.5c0-1.9-1.4-3.3-3.1-3.3s-3.1 1.5-3.1 3.3c0 1.9 1.4 3.3 3.1 3.3 1.8 0 3.1-1.5 3.1-3.3z"/><path d="m160 96.75h1.3v1.2c0.5-0.9 1.4-1.4 2.4-1.4 0.3 0 0.5 0 0.8 0.1v1.2c-0.3-0.1-0.6-0.2-0.9-0.2-1.1 0-1.9 0.6-2.3 1.8v5.9h-1.3z"/><path d="m166 96.75h1.3v0.9c0.6-0.7 1.5-1.1 2.5-1.1 1.1 0 2.2 0.6 2.7 1.6 0.6-1 1.8-1.6 2.9-1.6 1.9 0 3.1 1.3 3.1 3.3v5.4h-1.2v-5.2c0-1.5-0.9-2.5-2.2-2.5-0.9 0-1.7 0.5-2.3 1.4 0.1 0.3 0.1 0.5 0.1 0.8v5.4h-1.3v-5.2c0-1.5-0.9-2.5-2.2-2.5-0.9 0-1.7 0.4-2.2 1.2v6.4h-1.3v-8.3z"/></g></svg>
