<?xml version="1.0" encoding="UTF-8"?>
<svg width="259.9" height="40" enable-background="new 0 0 259.9 40" version="1.1" viewBox="0 0 259.9 40" xmlns="http://www.w3.org/2000/svg" xmlns:cc="http://creativecommons.org/ns#" xmlns:dc="http://purl.org/dc/elements/1.1/" xmlns:rdf="http://www.w3.org/1999/02/22-rdf-syntax-ns#">
 <metadata>
  <rdf:RDF>
   <cc:Work rdf:about="">
    <dc:format>image/svg+xml</dc:format>
    <dc:type rdf:resource="http://purl.org/dc/dcmitype/StillImage"/>
   </cc:Work>
  </rdf:RDF>
 </metadata>
 <g transform="matrix(.14417 0 0 .14417 -46.519 5.0488)">
  <rect x="714.71" y="3.8857" width="110.12" height="117.68" fill="#fff" fill-rule="evenodd"/>
  <g>
   <path id="logoGreen" d="m720.32 9.2837v106.5h31.179c10.234-6.1768 26.685-17.618 27.007-31.29 0.377-16.947-30.551-20.599-30.995-40.419-0.33082-13.343 4.9324-25.298 28.009-34.787z" fill="#0c6f5e" fill-rule="evenodd"/>
   <path id="logoBlue" d="m779.17 9.2837c-9.9595 6.3908-21.255 14.402-21.255 26.075-0.54894 17.017 35.679 18.382 35.13 45.828-0.53068 17.159-20.092 28.614-34.529 34.592h60.588v-106.5zm33.17 5.9893-14.286 17.573 13.448 17.841-17.004-15.108-12.089 8.7864 9.0708-12.342-10.161-13.733 13.18 10.983z" fill="#000e44" fill-rule="evenodd"/>
   <path d="m923.98 8.5577c-28.424 1.052e-4 -42.645 9.673-42.645 29.006-1e-5 7.4824 2.05 13.329 6.1438 17.559 4.0938 4.1828 12.219 8.5763 24.361 13.177l11.365 4.332 9.5699 3.6237c2.8843 1.0689 5.1415 2.766 6.7698 5.0897 1.4886 2.1378 2.2236 4.6102 2.2236 7.4451-7e-5 9.2949-7.8437 13.951-23.521 13.951-10.793 0-23.021-2.3006-36.698-6.9016v17.559l11.019 1.6801c1.1961 0.18124 2.3752 0.34931 3.5374 0.50422 4.4943 0.59905 8.7348 1.0014 12.721 1.2085 2.1194 0.11012 4.1669 0.16506 6.1426 0.16506 16.887 0 29.339-2.5276 37.341-7.5934 8.0481-5.0192 12.073-12.901 12.074-23.637-1e-4 -7.7612-2.2186-13.91-6.638-18.465-4.4196-4.6009-12.341-9.0138-23.785-13.243l-11.876-4.3979-7.9557-3.0637c-4.6056-1.766-7.653-3.4242-9.1417-4.9579-1.5818-1.6265-2.3719-3.9077-2.3719-6.8357-3e-5 -4.4615 1.6355-7.5926 4.892-9.4052 3.2564-1.7659 8.9755-2.6518 17.163-2.6519 10.188 8.9e-5 21.024 1.9048 32.515 5.7156v-16.307c-11.119-2.3701-22.181-3.5577-33.206-3.5578zm47.812 2.586v14.149h30.143v89.012h21.495v-89.012h30.143v-14.149zm114.03 0-40.059 103.16h15.697l10.542-27.524h42.71l10.525 27.524h21.989l-39.91-103.16zm74.451 0v103.16h20.244v-42.167h16.817l29.023 42.167h24.147l-33.783-48.163c5.4894-2.649 9.7027-5.5725 12.634-8.7793 4.9312-5.4839 7.3956-12.366 7.3957-20.639-1e-4 -17.056-10.48-25.58-31.46-25.58zm90.082 0v14.149h30.159v89.012h21.495v-89.012h30.143v-14.149zm89.473 0 31.609 52.346-33.075 50.814h17.377l23.999-36.863 22.401 36.863h24.987l-32.811-54.504 31.691-48.657h-17.377l-22.747 34.705-21.001-34.705zm-159.31 14.149h13.82c6.4664 9e-5 11.415 0.99949 14.857 2.9978 4.0008 2.2773 5.9956 6.0314 5.9956 11.283 0 5.0193-1.4312 9.0916-4.3155 12.205-3.8148 4.1363-10.172 6.2098-19.057 6.2097h-11.299zm-87.167 6.6215 16.06 41.129h-32.103z" fill="#fff" stroke="#fff" stroke-miterlimit="2.5" stroke-width="12.201"/>
   <path d="m923.88 8.3267c-28.424 1.052e-4 -42.645 9.673-42.645 29.006-1e-5 7.4824 2.05 13.329 6.1439 17.559 4.0938 4.1827 12.219 8.5763 24.361 13.177l11.365 4.332 9.5699 3.6237c2.8842 1.0689 5.1415 2.766 6.7698 5.0897 1.4886 2.1379 2.2236 4.6102 2.2236 7.4451-6e-5 9.2949-7.8437 13.951-23.521 13.951-10.793 0-23.021-2.3006-36.698-6.9016v17.559l11.019 1.6801c8.2807 1.2548 15.749 1.8778 22.401 1.8778 16.887 0 29.339-2.5277 37.341-7.5934 8.0481-5.0192 12.074-12.901 12.074-23.637-8e-5 -7.7612-2.2186-13.91-6.638-18.465-4.4196-4.6009-12.341-9.0138-23.785-13.243l-11.876-4.3979-7.9557-3.0637c-4.6056-1.766-7.653-3.4242-9.1417-4.9579-1.5817-1.6265-2.3719-3.9077-2.3719-6.8357-3e-5 -4.4615 1.6355-7.5926 4.892-9.4052 3.2564-1.7659 8.9755-2.6518 17.163-2.6519 10.188 8.9e-5 21.024 1.9048 32.515 5.7156v-16.307c-11.119-2.3701-22.181-3.5577-33.206-3.5578zm47.812 2.586v14.149h30.143v89.012h21.495v-89.012h30.143v-14.149zm114.03 0-40.059 103.16h15.697l10.542-27.524h42.71l10.525 27.524h21.989l-39.91-103.16zm74.451 0v103.16h20.243v-42.167h16.817l29.023 42.167h24.147l-33.783-48.163c5.4894-2.649 9.7027-5.5725 12.634-8.7793 4.9312-5.4839 7.3956-12.366 7.3957-20.639-1e-4 -17.056-10.48-25.58-31.46-25.58zm90.082 0v14.149h30.159v89.012h21.495v-89.012h30.143v-14.149zm89.473 0 31.609 52.346-33.075 50.814h17.377l23.999-36.863 22.401 36.863h24.987l-32.811-54.504 31.691-48.657h-17.377l-22.747 34.705-21.001-34.705zm-159.31 14.149h13.82c6.4664 9.1e-5 11.415 0.99949 14.857 2.9978 4.0007 2.2773 5.9955 6.0314 5.9956 11.283-1e-4 5.0193-1.4313 9.0916-4.3155 12.205-3.8148 4.1363-10.172 6.2098-19.058 6.2097h-11.299zm-87.167 6.6215 16.06 41.129h-32.103z" fill="#000e44"/>
  </g>
 </g>
 <g transform="matrix(.7419 0 0 .7419 -31.784 12.301)" fill="#fff">
  <path d="m127.6 33.8 0.9 0.9c-1.2 1.3-2.9 2-4.7 2-3.4 0.1-6.2-2.7-6.3-6.1s2.7-6.2 6.1-6.3h0.2c1.9 0 3.6 0.7 4.7 2l-0.9 0.9c-1-1.1-2.4-1.7-3.9-1.7-2.8 0-4.9 2.2-4.9 5s2.1 5 4.9 5c1.6-0.1 3-0.7 3.9-1.7z"/>
  <path d="m133.9 27.7c2.4 0 4.4 1.9 4.4 4.4s-1.9 4.5-4.4 4.5c-2.4 0-4.4-1.9-4.4-4.5s1.9-4.4 4.4-4.4zm3.1 4.5c0-1.9-1.4-3.3-3.1-3.3s-3.1 1.5-3.1 3.3c0 1.9 1.4 3.3 3.1 3.3s3.1-1.5 3.1-3.3z"/>
  <path d="m140 27.9h1.3v1c0.7-0.8 1.6-1.2 2.7-1.2 1.9 0 3.3 1.3 3.3 3.3v5.4h-1.3v-5.2c0-1.5-0.9-2.5-2.4-2.5-1 0-1.9 0.5-2.4 1.3v6.3h-1.2z"/>
  <path d="m150.1 29h-1.8v-1.1h1.8v-2.2l1.2-0.3v2.5h2.6v1.1h-2.6v5.2c0 0.9 0.4 1.3 1.3 1.3 0.4 0 0.9-0.1 1.2-0.2v1.1c-0.5 0.2-1 0.2-1.5 0.2-1.5 0-2.3-0.7-2.3-2.1z"/>
  <path d="m154.8 34c0-1.6 1.3-2.6 3.4-2.6 0.9 0 1.7 0.2 2.5 0.6v-1.1c0-1.4-0.8-2.1-2.3-2.1-0.8 0-1.7 0.2-2.7 0.8l-0.5-1c1.2-0.6 2.2-0.9 3.3-0.9 2.2 0 3.4 1.1 3.4 3v5.7h-1.2v-0.8c-0.8 0.7-1.8 1-2.8 1-1.8 0-3.1-1-3.1-2.6zm3.4 1.6c1 0 1.9-0.3 2.5-1v-1.6c-0.7-0.5-1.5-0.7-2.5-0.7-1.4 0-2.2 0.7-2.2 1.7s0.9 1.6 2.2 1.6z"/>
  <path d="m163.9 25.4c0-0.5 0.4-0.9 0.9-0.9s0.8 0.4 0.9 0.8c0 0.5-0.4 0.9-0.9 0.9-0.6 0.1-0.9-0.3-0.9-0.8zm1.4 11.1h-1.3v-8.5h1.3z"/>
  <path d="m167.5 27.9h1.3v1c0.7-0.8 1.6-1.2 2.7-1.2 1.9 0 3.3 1.3 3.3 3.3v5.4h-1.2v-5.2c0-1.5-0.9-2.5-2.4-2.5-1 0-1.9 0.5-2.4 1.3v6.3h-1.3z"/>
  <path d="m180.9 36.6c-2.4 0-4.4-1.9-4.4-4.3v-0.1c0-2.5 1.9-4.4 4.2-4.4s4 1.9 4 4.4v0.4h-7c0.2 1.7 1.5 2.9 3.2 2.9 0.9 0 1.8-0.3 2.4-0.8l0.8 0.8c-0.9 0.8-2.1 1.1-3.2 1.1zm-3.1-5h5.7c-0.2-1.5-1.4-2.7-2.8-2.7-1.5 0-2.7 1.1-2.9 2.7z"/>
  <path d="m186.5 27.9h1.3v1.2c0.5-0.9 1.4-1.4 2.4-1.4 0.3 0 0.5 0 0.8 0.1v1.2c-0.3-0.1-0.6-0.2-0.9-0.2-1.1 0-1.9 0.6-2.3 1.8v5.9h-1.3z"/>
  <path d="m196.3 24.5h5.2c2.3 0 3.9 1.4 3.9 3.4s-1.5 3.5-3.9 3.5h-3.9v5h-1.3zm1.3 1.2v4.6h3.8c1.6 0 2.6-0.9 2.6-2.3s-1-2.3-2.6-2.3z"/>
  <path d="m208.4 36.5h-1.3v-12l1.3-0.3z"/>
  <path d="m210.1 34c0-1.6 1.3-2.6 3.4-2.6 0.9 0 1.7 0.2 2.5 0.6v-1.1c0-1.4-0.8-2.1-2.3-2.1-0.8 0-1.7 0.2-2.7 0.8l-0.5-1c1.2-0.6 2.2-0.9 3.3-0.9 2.2 0 3.4 1.1 3.4 3v5.7h-1.2v-0.8c-0.8 0.7-1.8 1-2.8 1-1.8 0-3.1-1-3.1-2.6zm3.4 1.6c1 0 1.9-0.3 2.5-1v-1.6c-0.7-0.5-1.5-0.7-2.5-0.7-1.4 0-2.2 0.7-2.2 1.7s0.9 1.6 2.2 1.6z"/>
  <path d="m220.1 29h-1.8v-1.1h1.8v-2.2l1.2-0.3v2.5h2.6v1.1h-2.6v5.2c0 0.9 0.4 1.3 1.3 1.3 0.4 0 0.9-0.1 1.2-0.2v1.1c-0.5 0.2-1 0.2-1.5 0.2-1.5 0-2.3-0.7-2.3-2.1z"/>
  <path d="m226.6 27.9v-1.6c0-1.7 0.9-2.6 2.6-2.6 0.4 0 0.8 0 1.1 0.2v1.1c-0.3-0.1-0.7-0.2-1.1-0.2-1 0-1.5 0.5-1.5 1.5v1.6h2.5v1.1h-2.5v7.5h-1.2v-7.5h-2v-1.1z"/>
  <path d="m235.3 27.7c2.4 0 4.4 1.9 4.4 4.4s-1.9 4.5-4.4 4.5c-2.4 0-4.4-1.9-4.4-4.5s2-4.4 4.4-4.4zm3.1 4.5c0-1.9-1.4-3.3-3.1-3.3s-3.1 1.5-3.1 3.3c0 1.9 1.4 3.3 3.1 3.3 1.8 0 3.1-1.5 3.1-3.3z"/>
  <path d="m241.4 27.9h1.3v1.2c0.5-0.9 1.4-1.4 2.4-1.4 0.3 0 0.5 0 0.8 0.1v1.2c-0.3-0.1-0.6-0.2-0.9-0.2-1.1 0-1.9 0.6-2.3 1.8v5.9h-1.3z"/>
  <path d="m247.4 27.9h1.3v0.9c0.6-0.7 1.5-1.1 2.5-1.1 1.1 0 2.2 0.6 2.7 1.6 0.6-1 1.8-1.6 2.9-1.6 1.9 0 3.1 1.3 3.1 3.3v5.4h-1.2v-5.2c0-1.5-0.9-2.5-2.2-2.5-0.9 0-1.7 0.5-2.3 1.4 0.1 0.3 0.1 0.5 0.1 0.8v5.4h-1.3v-5.2c0-1.5-0.9-2.5-2.2-2.5-0.9 0-1.7 0.4-2.2 1.2v6.4h-1.3v-8.3z"/>
 </g>
 <g transform="matrix(.042928 0 0 .042928 .37311 .26648)" fill="#fff">
  <path d="m0 727.61v111.62c0 45.322 30.895 74.21 75.891 74.21 47.33 0 76.3-30.464 76.3-77.267v-108.56h-40.06v106.52c0 25.52-12.852 41.346-35.813 41.346-25.164 0-36.257-18.2-36.257-39.307v-108.56zm171.67 1.542v182.47h63.806c35.339 0 65.367-18.024 65.367-53.772 0-37.314-32.652-45.585-32.652-45.585s24.178-6.716 24.178-38.64c0-31.903-30.56-44.47-56.893-44.47zm40.36 34.658h19.369c13.442 0 22.043 7.08 22.043 19.4 0 11.02-7.297 19.336-21.024 19.336h-20.387v-38.736zm0 67.279h21.407c20.13 0 27.11 10.34 27.11 22.68 0 14.359-9.029 22.777-25.071 22.777h-23.445v-45.456zm103.98-101.95h40.265v182.47h-40.265zm439.35 182.47h-40.265v-182.47h126.4v37.717h-86.136v41.794h78.491v30.58h-78.491zm100.92-182.47v37.717h51.987v144.75h40.775v-144.75h50.968v-37.717zm-454.03 121.8-31.987 23.387s11.053 40.425 66.465 40.425c36.9 0 64.053-21.534 64.053-59.392 0-61.011-85.31-48.068-85.31-79.444 0-8.257 7.343-15.551 20.895-15.551 21.744 0 30.008 21.33 30.008 21.33l31.996-22.455s-12.497-33.313-60.397-33.313c-39.365 0-60.276 25.255-60.276 51.315 0 62.175 82.826 48.68 82.826 81.31 0 11.011-8.677 19.102-22.191 19.009-26.775 0-36.082-26.621-36.082-26.621zm202.5-125.1c-47.417 0-68.552 25.739-68.552 25.739l6.116 6.116s-30.677 21.79-30.677 68.584c0 53.845 41.527 88.43 93.336 88.43 60.198 0 94.355-44.418 94.355-94.355 0-53.25-38.996-94.514-94.578-94.514zm0.86 37.876c32.15 0 53.007 24.573 53.007 56.479 0 31.575-20.608 56.83-53.007 56.83-32.009 0-53.039-22.352-53.039-52.02 0-27.001 18.285-38.768 18.285-38.768l-6.626-6.626s14.099-15.895 41.38-15.895zm-124.08-763.71c-206.8 0-296.06 184.07-296.06 184.07l26.275 18.81s-33.065 62.879-32.15 143.53c0 164.64 131.06 319.73 323.99 319.73 175.27 0 320.05-142.66 320.05-319.33 0-230.42-178.68-346.82-342.1-346.82zm1.794 56.168c161.57 0 286.95 130.2 286.95 281.56 0 160.46-120.68 272.04-261.31 272.04-103.5 0-196.86-78.816-196.86-186.88 0-62.414 33.174-105.93 70.348-129.12l5.44 5.903c-10.173 7.96-39.181 54.557-39.181 100.36 0 85.022 66.674 143.91 150.68 143.91 107.01 0 178.37-91.267 178.37-197.24 0-123.3-108.83-227.97-239.81-227.97-72.442 0-133.93 31.154-169.26 58.657l-5.498-4.977c46.221-71.267 126.26-116.24 220.13-116.24zm-48.21 117.95c83.58 0 165.18 55.293 185.55 133.78l-7.408 2.807c-36.571-48.294-96.496-88.317-167.26-88.317-130.21 0-198.6 118.32-188.56 217.15l-7.668 2.808s-14.382-31.734-14.382-69.364c0-108.97 89.488-198.86 199.73-198.86zm55.242 136.76c39.57 0 71.216 32.073 71.216 70.146 0 31.506-20.228 50.178-20.228 50.178l23.96 16.754s-23.759 37.301-72.257 37.301c-46.391 0-87.42-37.444-87.42-87.797 0-51.884 44.629-86.582 84.73-86.582z" fill="#fff"/>
 </g>
</svg>
