<?xml version="1.0" encoding="UTF-8" standalone="no"?>
<svg
   height="40"
   viewBox="0 0 60 40"
   width="60"
   version="1.1"
   id="svg36"
   sodipodi:docname="chaos-mesh.svg"
   inkscape:version="1.1.2 (0a00cf5339, 2022-02-04)"
   xmlns:inkscape="http://www.inkscape.org/namespaces/inkscape"
   xmlns:sodipodi="http://sodipodi.sourceforge.net/DTD/sodipodi-0.dtd"
   xmlns="http://www.w3.org/2000/svg"
   xmlns:svg="http://www.w3.org/2000/svg"
   xmlns:rdf="http://www.w3.org/1999/02/22-rdf-syntax-ns#"
   xmlns:cc="http://creativecommons.org/ns#"
   xmlns:dc="http://purl.org/dc/elements/1.1/">
  <sodipodi:namedview
     pagecolor="#ffffff"
     bordercolor="#666666"
     borderopacity="1"
     objecttolerance="10"
     gridtolerance="10"
     guidetolerance="10"
     inkscape:pageopacity="0"
     inkscape:pageshadow="2"
     inkscape:window-width="2048"
     inkscape:window-height="1083"
     id="namedview81"
     showgrid="false"
     showguides="false"
     inkscape:zoom="11.313708"
     inkscape:cx="-0.57452426"
     inkscape:cy="23.953242"
     inkscape:window-x="0"
     inkscape:window-y="0"
     inkscape:window-maximized="1"
     inkscape:current-layer="g1042"
     inkscape:document-rotation="0"
     inkscape:pagecheckerboard="0" />
  <metadata
     id="metadata42">
    <rdf:RDF>
      <cc:Work
         rdf:about="">
        <dc:format>image/svg+xml</dc:format>
        <dc:type
           rdf:resource="http://purl.org/dc/dcmitype/StillImage" />
      </cc:Work>
    </rdf:RDF>
  </metadata>
  <defs
     id="defs40">
    <mask
       id="a-1"
       fill="#ffffff">
      <path
         d="M 0,0 H 313.30315 V 159.86486 H 0 Z"
         fill="#ffffff"
         fill-rule="evenodd"
         id="path2-9" />
    </mask>
    <clipPath
       clipPathUnits="userSpaceOnUse"
       id="clipPath3444">
      <path
         d="M 11.52,162 C 11.52,81.677 135.307,16.561 288,16.561 v 0 c 152.693,0 276.481,65.116 276.481,145.439 v 0 c 0,80.322 -123.788,145.439 -276.481,145.439 v 0 C 135.307,307.439 11.52,242.322 11.52,162"
         id="path3446" />
    </clipPath>
    <radialGradient
       cx="0"
       cy="0"
       fx="0"
       fy="0"
       gradientTransform="matrix(363.05789,0,0,-363.05789,177.52002,256.30713)"
       gradientUnits="userSpaceOnUse"
       id="radialGradient3452"
       r="1"
       spreadMethod="pad">
      <stop
         id="stop3454"
         offset="0"
         style="stop-opacity:1;stop-color:#aeb2d5" />
      <stop
         id="stop3456"
         offset="0.3"
         style="stop-opacity:1;stop-color:#aeb2d5" />
      <stop
         id="stop3458"
         offset="0.75"
         style="stop-opacity:1;stop-color:#484c89" />
      <stop
         id="stop3460"
         offset="1"
         style="stop-opacity:1;stop-color:#484c89" />
    </radialGradient>
    <clipPath
       clipPathUnits="userSpaceOnUse"
       id="clipPath3468">
      <path
         d="M 0,324 H 576 V 0 H 0 Z"
         id="path3470" />
    </clipPath>
    <clipPath
       clipPathUnits="userSpaceOnUse"
       id="clipPath3480">
      <path
         d="M 0,324 H 576 V 0 H 0 Z"
         id="path3482" />
    </clipPath>
  </defs>
  <mask
     id="a"
     fill="#ffffff">
    <path
       d="M 0,0 H 313.30315 V 159.86486 H 0 Z"
       fill="#ffffff"
       fill-rule="evenodd"
       id="path2" />
  </mask>
  <mask
     id="b"
     fill="#ffffff">
    <path
       d="M 0,0 H 313.30315 V 159.86486 H 0 Z"
       fill="#ffffff"
       fill-rule="evenodd"
       id="path5" />
  </mask>
  <g
     id="g1042"
     style="display:inline">
    <g
       id="g994"
       transform="matrix(0.08667043,0,0,0.08667043,54.837532,-43.975856)"
       style="display:inline">
      <path
         id="path990"
         style="fill:#000e44;fill-opacity:1;fill-rule:evenodd;stroke:none;stroke-width:3.14747"
         d="m 56.695351,510.77372 -107.53235,84.40183 -79.398391,-66.27467 61.189259,82.84335 -54.627399,74.39502 72.836531,-52.98696 102.528945,91.04567 -81.03891,-107.53235 z" />
    </g>
    <circle
       style="opacity:1;fill:#eaed8c;fill-opacity:1;stroke:none;stroke-width:0.308165;stroke-miterlimit:2.5;stroke-opacity:1;stop-color:#000000"
       id="path912"
       cx="16.627409"
       cy="16.633268"
       r="16.433828" />
    <g
       fill="none"
       fill-rule="evenodd"
       transform="matrix(0.15069337,0,0,0.15069337,-6.1976669,-20.880758)"
       id="g1008"
       style="fill:#6f6f0c;fill-opacity:1">
      <g
         transform="matrix(0.92863152,0,0,-0.92863152,9.2718211,454.1644)"
         id="g1006"
         style="fill:#6f6f0c;fill-opacity:1">
        <g
           fill="#0f1689"
           mask="url(#a-1)"
           id="g1002"
           style="fill:#6f6f0c;fill-opacity:1"
           transform="matrix(0.94489362,0,0,0.94489362,8.6962507,2.7018401)">
          <path
             d="m 203.46068,95.687543 c 6.93631,0 12.5593,-14.80922 12.5593,-33.077318 0,-18.268097 -5.62299,-33.077317 -12.5593,-33.077317 -6.93631,0 -12.55931,14.80922 -12.55931,33.077317 0,18.268098 5.62299,33.077318 12.55931,33.077318 z"
             transform="rotate(35,137.93117,151.55002)"
             id="path996"
             style="fill:#6f6f0c;fill-opacity:1" />
          <path
             d="m 30.142322,95.687543 c 6.936311,0 12.559301,-14.80922 12.559301,-33.077318 0,-18.268097 -5.62299,-33.077317 -12.559301,-33.077317 -6.93631,0 -12.559301,14.80922 -12.559301,33.077317 0,18.268098 5.622991,33.077318 12.559301,33.077318 z"
             transform="matrix(-0.81915204,0.57357644,0.57357644,0.81915204,58.084611,47.704768)"
             id="path998"
             style="fill:#6f6f0c;fill-opacity:1" />
          <path
             d="m 116.73282,66.275268 c 6.93631,0 12.5593,-14.80922 12.5593,-33.077318 0,-18.268097 -5.62299,-33.07731673 -12.55931,-33.07731673 -6.93631,0 -12.5593,14.80921973 -12.5593,33.07731673 0,18.268098 5.62299,33.077318 12.55931,33.077318 z"
             transform="matrix(-1,0,0,1,272.62852,53.670762)"
             id="path1000"
             style="fill:#6f6f0c;fill-opacity:1" />
        </g>
        <path
           d="m 251.46701,173.09985 c -20.23008,-33.60997 -56.88957,-56.06791 -98.75578,-56.06791 -40.7208,0 -76.515877,21.2459 -97.058696,53.33459"
           mask="url(#a-1)"
           stroke="#0f1689"
           stroke-width="20"
           id="path1004"
           style="stroke:#6f6f0c;stroke-opacity:1;fill:none;fill-opacity:1"
           transform="matrix(0.94489362,0,0,0.94489362,8.6962507,2.7018401)" />
      </g>
    </g>
    <g
       id="g97"
       transform="matrix(0.03936691,0,0,0.03936691,6.8555781,5.1294397)" />
    <g
       id="g99"
       transform="matrix(0.03936691,0,0,0.03936691,6.8555781,5.1294397)" />
    <g
       id="g101"
       transform="matrix(0.03936691,0,0,0.03936691,6.8555781,5.1294397)" />
    <g
       id="g103"
       transform="matrix(0.03936691,0,0,0.03936691,6.8555781,5.1294397)" />
    <g
       id="g105"
       transform="matrix(0.03936691,0,0,0.03936691,6.8555781,5.1294397)" />
    <g
       id="g107"
       transform="matrix(0.03936691,0,0,0.03936691,6.8555781,5.1294397)" />
    <g
       id="g109"
       transform="matrix(0.03936691,0,0,0.03936691,6.8555781,5.1294397)" />
    <g
       id="g111"
       transform="matrix(0.03936691,0,0,0.03936691,6.8555781,5.1294397)" />
    <g
       id="g113"
       transform="matrix(0.03936691,0,0,0.03936691,6.8555781,5.1294397)" />
    <g
       id="g115"
       transform="matrix(0.03936691,0,0,0.03936691,6.8555781,5.1294397)" />
    <g
       id="g117"
       transform="matrix(0.03936691,0,0,0.03936691,6.8555781,5.1294397)" />
    <g
       id="g119"
       transform="matrix(0.03936691,0,0,0.03936691,6.8555781,5.1294397)" />
    <g
       id="g121"
       transform="matrix(0.03936691,0,0,0.03936691,6.8555781,5.1294397)" />
    <g
       id="g123"
       transform="matrix(0.03936691,0,0,0.03936691,6.8555781,5.1294397)" />
    <g
       id="g125"
       transform="matrix(0.03936691,0,0,0.03936691,6.8555781,5.1294397)" />
    <g
       id="g6172"
       transform="matrix(0.06722409,0,0,0.06722409,22.018624,14.547384)">
      <path
         class="cls-1"
         d="m -70.69056,91.54547 a 226.41737,226.41737 0 0 0 -5.5846,-33.04852 c -0.81152,-3.35364 -1.79773,-4.517 -5.6239,-4.30573 -15.57824,0.85993 -27.88537,-8.29632 -32.10925,-23.57025 -0.79431,-2.87207 -2.20966,-3.48089 -4.92279,-3.61944 -10.84589,-0.5542 -21.72766,-0.96094 -32.49695,-2.24793 -4.31323,-0.5155 -8.23779,-0.88641 -11.28644,0.94776 a 24.33517,24.33517 0 0 1 -7.947,8.98956 6.6627,6.6627 0 0 0 0.36548,4.95209 187.155,187.155 0 0 1 10.42694,47.45727 5.12822,5.12822 0 0 0 1.36224,3.48828 24.20238,24.20238 0 0 1 17.9267,20.25238 4.222,4.222 0 0 0 3.48621,1.29352 c 12.30542,0.48279 24.60327,1.86884 36.90081,1.19916 2.73761,-0.14911 10.82581,-1.11176 10.82581,-1.11176 a 24.22709,24.22709 0 0 1 17.99992,-17.30728 c 0.73291,-0.74868 0.82098,-1.76559 0.67682,-3.36911 z"
         id="path963"
         style="fill:none" />
      <path
         class="cls-1"
         d="m -1.87403,-10.79071 a 197.61367,197.61367 0 0 1 -8.54889,-40.71789 4.65761,4.65761 0 0 0 -1.34326,-3.30774 24.22885,24.22885 0 0 1 -18.30957,-14.683 4.62163,4.62163 0 0 0 -5.59833,-1.51782 425.98981,425.98981 0 0 1 -43.46027,2.37537 4.14081,4.14081 0 0 0 -3.99731,1.8363 24.24682,24.24682 0 0 1 -14.56861,16.08685 5.10089,5.10089 0 0 0 -0.836,4.75025 320.60439,320.60439 0 0 0 7.46411,32.69385 q 0.0243,0.21606 0.0674,0.42944 a 4.9757,4.9757 0 0 0 5.86316,3.89075 30.88537,30.88537 0 0 1 31.71588,21.36 c 1.17609,3.46124 2.66766,4.02924 5.7146,3.69507 10.97253,-1.20319 21.95062,-2.36633 32.942,-3.38074 a 3.14537,3.14537 0 0 0 2.54644,-1.17047 h -6e-5 a 24.16388,24.16388 0 0 1 10.4339,-18.2138 5.50767,5.50767 0 0 0 -0.0852,-4.12642 z"
         id="path965"
         style="fill:none" />
      <path
         d="m -165.4712,108.45858 c -0.10156,0.0127 -0.19367,0.048 -0.29285,0.0669 0.14984,-0.0286 0.298,-0.0626 0.45185,-0.0764 -0.0529,0.005 -0.10621,0.003 -0.159,0.01 z"
         id="path967" />
      <path
         d="m -169.52009,113.65802 6e-5,0.003 a 10.15933,10.15933 0 0 0 0.12616,1.55713 10.1523,10.1523 0 0 1 -0.126,-1.55713 z"
         id="path969" />
      <path
         d="m -164.37788,119.23773 a 5.9675,5.9675 0 0 1 -2.55469,-0.43371 5.96733,5.96733 0 0 0 2.55469,0.43371 z"
         id="path971" />
      <path
         d="m -164.27375,108.46424 a 5.40143,5.40143 0 0 1 1.00067,0.13885 5.41235,5.41235 0 0 0 -1.00092,-0.139 4.65217,4.65217 0 0 0 -0.83221,-0.0274 4.6532,4.6532 0 0 1 0.83234,0.0275 z"
         id="path973" />
      <path
         d="m -71.38331,118.66187 -6e-5,0.002 a 7.13672,7.13672 0 0 0 0.0925,1.16168 7.143,7.143 0 0 1 -0.0924,-1.16168 z"
         id="path975" />
      <path
         d="m -70.69483,121.47644 c 0.877,1.41248 2.60565,2.12042 5.2644,2.2121 a 4.9608,4.9608 0 0 0 0.54572,0.0235 4.95972,4.95972 0 0 1 -0.54566,-0.0235 c -2.65875,-0.0918 -4.38745,-0.79962 -5.26446,-2.2121 z"
         id="path977" />
      <path
         d="m -60.6764,117.81378 c -0.004,-0.0624 -0.0234,-0.11938 -0.0295,-0.18109 a 4.84971,4.84971 0 0 1 0.0284,0.79395 4.88967,4.88967 0 0 0 0.001,-0.61286 z"
         id="path979" />
      <path
         d="m -66.59046,113.23639 c -0.0476,0.003 -0.0909,0.0184 -0.13807,0.0226 0.11255,-0.01 0.2262,-0.0156 0.34,-0.0204 -0.0673,0.002 -0.13467,-0.006 -0.20193,-0.002 z"
         id="path981" />
      <path
         d="m -206.57026,-79.89542 a 5.36165,5.36165 0 0 1 -0.93036,-0.37635 5.36165,5.36165 0 0 0 0.93036,0.37635 z"
         id="path983" />
      <path
         d="m -203.45771,-79.54142 c 0.11566,-0.0098 0.22186,-0.04492 0.33478,-0.06256 -0.13447,0.02106 -0.26532,0.05493 -0.40271,0.06445 0.0226,-0.0015 0.0453,4e-5 0.0679,-0.0019 z"
         id="path985" />
      <path
         d="m -41.96083,120.11792 c 0.0385,-0.54468 0.0918,-1.08557 0.0918,-1.64013 a 13.76113,13.76113 0 0 1 -0.0918,1.64013 z"
         id="path987" />
      <path
         d="m -100.96546,-74.08368 c -0.0132,-0.11426 -0.0514,-0.2182 -0.0722,-0.32959 0.0236,0.12671 0.0615,0.24878 0.0751,0.37836 -0.002,-0.01624 -0.001,-0.03259 -0.003,-0.04877 z"
         id="path989" />
      <path
         d="m -159.11305,114.07337 c 0.002,-0.0561 -0.002,-0.11078 -0.001,-0.16651 -8e-4,0.0744 -0.002,0.14862 -0.006,0.22235 9.8e-4,-0.0191 0.007,-0.0366 0.008,-0.0558 z"
         id="path991" />
      <path
         d="m -106.37593,-78.37591 -0.003,6e-5 q -0.0635,-5.5e-4 -0.12714,4.2e-4 c -0.15509,0.0024 -0.30072,0.03687 -0.45208,0.0528 a 5.03926,5.03926 0 0 1 0.57922,-0.0531 z"
         id="path993" />
      <path
         d="m -102.72633,-69.03564 a 6.76486,6.76486 0 0 1 -2.47955,1.175 6.76391,6.76391 0 0 0 2.47955,-1.175 z"
         id="path995" />
      <path
         d="m -102.72633,-69.03564 a 4.49115,4.49115 0 0 0 1.08978,-1.23761 4.49029,4.49029 0 0 1 -1.08978,1.23761 z"
         id="path997" />
      <path
         d="m -101.05085,-71.89898 a 4.76708,4.76708 0 0 1 -0.5857,1.62573 4.76754,4.76754 0 0 0 0.5857,-1.62573 z"
         id="path999" />
      <path
         d="m -189.16236,15.1261 v 6e-5 c 0.0905,2.00189 0.71331,3.5921 2.07269,4.45923 -1.35938,-0.86713 -1.98224,-2.4574 -2.07269,-4.45929 z"
         id="path1001" />
      <path
         d="m -3.12721,-76.94684 a 10.40656,10.40656 0 0 0 0.28327,-1.02624 10.843,10.843 0 0 0 0.0176,-1.189 10.84194,10.84194 0 0 1 -0.0176,1.189 10.40773,10.40773 0 0 1 -0.28327,1.02624 z"
         id="path1003" />
      <path
         d="m -7.24342,-83.90893 c -0.0714,-0.0099 -0.14191,-0.01148 -0.213,-0.01856 0.11011,0.01093 0.21979,0.01831 0.3305,0.03607 q -0.0587,-0.0094 -0.1175,-0.01751 z"
         id="path1005" />
      <path
         d="m 32.68838,99.7782 h 1.2e-4 a 4.47,4.47 0 0 0 -0.84809,-0.0249 c -0.008,5.5e-4 -0.0157,0.003 -0.024,0.004 a 4.477,4.477 0 0 1 0.87195,0.0209 z"
         id="path1007" />
      <path
         d="m 33.3062,110.51282 c 0.0571,-0.003 0.11206,-0.0133 0.16864,-0.0183 -0.0624,0.005 -0.12371,0.0149 -0.1867,0.0183 0.006,-3e-4 0.012,3.1e-4 0.0181,-6e-5 z"
         id="path1009" />
      <path
         d="m 6.91814,13.95941 c 0.006,0.10059 0.034,0.19342 0.0461,0.292 -0.0175,-0.14234 -0.0416,-0.28309 -0.0452,-0.42823 0.001,0.0455 -0.003,0.0908 -9.2e-4,0.13623 z"
         id="path1011" />
      <path
         d="m 38.36467,104.83673 c -0.003,-0.0605 -0.0139,-0.11877 -0.0193,-0.17871 0.006,0.0665 0.0159,0.13184 0.0195,0.19892 -3.7e-4,-0.007 2.4e-4,-0.0134 -1.3e-4,-0.0202 z"
         id="path1013" />
      <path
         d="m 11.62969,18.16998 0.002,7e-5 a 4.423,4.423 0 0 0 0.65387,0.0613 c 0.0392,7.3e-4 0.0758,-0.009 0.11486,-0.009 a 4.40391,4.40391 0 0 1 -0.76879,-0.052 z"
         id="path1015" />
      <path
         d="m 16.78209,13.90283 -2.4e-4,0.003 3.1e-4,-0.003 h -7e-5 q 0.0358,-0.32253 0.0417,-0.62512 -0.006,0.30281 -0.0417,0.62506 z"
         id="path1017" />
      <path
         d="m 84.38524,93.15758 a 4.73274,4.73274 0 0 0 -0.40258,-1.33722 h 6e-5 c -1.1767,-2.99115 -3.68268,-3.54443 -6.77039,-2.59808 -6.22229,1.907 -12.56439,3.43732 -18.744,5.46582 a 4.36777,4.36777 0 0 1 -3.94537,0.003 24.23138,24.23138 0 0 0 -17.045,-13.24145 6.63154,6.63154 0 0 1 -1.62335,-4.11585 203.20885,203.20885 0 0 0 -9.89637,-39.32879 6.55282,6.55282 0 0 1 -0.4118,-4.82977 24.18259,24.18259 0 0 0 10.36841,-17.45575 10.39818,10.39818 0 0 1 6.65368,-3.12006 C 55.17559,10.1156 67.56628,6.70543 79.86291,2.9798 82.98949,2.0326 85.14678,0.08118 84.14739,-3.41381 83.1372,-6.9472 80.32708,-7.37146 77.143,-6.42352 c -1.5553,0.46307 -3.11371,0.91583 -4.66651,1.38666 -11.43847,3.46771 -23.05621,6.233 -34.71588,8.83587 A 4.48406,4.48406 0 0 1 33.94482,3.46906 24.01309,24.01309 0 0 0 9.12841,-10.74224 4.333,4.333 0 0 1 7.33007,-13.41143 269.12413,269.12413 0 0 1 -0.76618,-51.00116 5.86158,5.86158 0 0 1 0.14733,-55.7807 24.20772,24.20772 0 0 0 16.36346,-76.4743 l 63.61779,-16.3634 c 3.20978,-0.98322 5.08631,-3.01331 4.13282,-6.47992 -0.94733,-3.44507 -3.81073,-3.38538 -6.64875,-2.95514 a 15.62467,15.62467 0 0 0 -2.07745,0.634 556.87465,556.87465 0 0 1 -57.00592,13.53131 6.36355,6.36355 0 0 1 -3.90741,-0.11084 24.28556,24.28556 0 0 0 -14.72778,-13.38989 c -0.15485,-0.0503 -0.31556,-0.0865 -0.47162,-0.13379 0.18677,-1.23676 1.65057,-10.93 2.163,-14.25671 a 169.805,169.805 0 0 1 11.50769,-43.5246 c 1.34967,-3.07636 1.3227,-5.707 -1.99249,-7.31854 -3.43732,-1.67115 -5.44678,0.24286 -6.8551,3.17669 -0.46979,0.97827 -0.89929,1.97657 -1.3266,2.97455 -7.52313,17.56653 -10.47382,35.95557 -14.21008,54.85767 a 5.69943,5.69943 0 0 1 -1.619,3.656 24.20992,24.20992 0 0 0 -18.48767,19.739 3.89168,3.89168 0 0 1 -3.56732,1.72436 c -11.76258,0.7381 -23.51362,1.6579 -35.26874,2.51239 l -5.449,0.0445 a 7.39145,7.39145 0 0 1 -7.4306,-2.02632 24.25105,24.25105 0 0 0 -16.60685,-16.31144 4.95165,4.95165 0 0 1 -0.83588,-4.24414 c 0.91833,-5.70887 1.58478,-11.462 2.64148,-17.14374 a 182.30756,182.30756 0 0 1 12.76526,-41.88947 c 1.46417,-3.24481 0.90558,-5.696 -2.29505,-7.19659 -3.19262,-1.49671 -5.134,0.34027 -6.51312,3.01166 -0.57916,1.12176 -1.042,2.3045 -1.53809,3.46783 a 191.13224,191.13224 0 0 0 -14.4815,59.21564 7.50953,7.50953 0 0 1 -1.5138,4.44092 24.24752,24.24752 0 0 0 -17.74206,16.09735 c -3.96088,2.20733 -9.18909,1.00073 -14.0838,0.91742 -0.90576,-0.01526 -1.81043,-0.12122 -2.71454,-0.19782 a 4.74685,4.74685 0 1 0 -0.69885,9.4455 c 4.69958,0.35223 9.38922,0.85412 14.09234,1.14038 a 4.31776,4.31776 0 0 1 2.66626,0.86847 24.213,24.213 0 0 0 20.54322,19.25946 4.28893,4.28893 0 0 1 1.29351,2.90368 211.98456,211.98456 0 0 0 8.53778,37.45661 4.14826,4.14826 0 0 1 -1.76086,5.596 q -0.105,0.0546 -0.21289,0.10333 a 27.53972,27.53972 0 0 0 -12.02649,16.8186 c -0.74457,3.257 -2.16693,3.94226 -5.20123,3.8039 -12.31946,-0.56171 -24.61048,-1.41022 -36.87982,-2.66272 a 5.03827,5.03827 0 0 1 -4.30587,-2.07827 24.168,24.168 0 0 0 -26.1142,-22.05066 q -0.212,0.0179 -0.4237,0.0395 c -1.52521,-0.7085 -2.17878,-2.10242 -2.77552,-4.19647 a 275.47513,275.47513 0 0 1 -8.0061,-37.04779 c -0.59277,-4.20008 -1.27771,-8.19251 0.65564,-11.05023 a 23.47756,23.47756 0 0 0 13.3324,-10.91565 69.41817,69.41817 0 0 1 14.61462,-0.4101 c 2.91345,0.108 5.0365,-0.88409 5.57336,-3.81036 0.60694,-3.307 -1.40185,-5.12879 -4.39636,-5.75134 a 50.5414,50.5414 0 0 0 -8.62,-1.15516 c -2.1872,-0.0697 -3.551,-0.61358 -4.30786,-2.1286 a 23.15277,23.15277 0 0 0 -2.067,-7.8565 21.98864,21.98864 0 0 0 -12.3371,-12.43373 3.83994,3.83994 0 0 1 -2.69018,-4.71734 q 0.0356,-0.13009 0.0803,-0.25744 a 209.53492,209.53492 0 0 1 5.37354,-24.88062 192.09912,192.09912 0 0 1 8.72986,-24.45935 4.48174,4.48174 0 0 0 -2.15137,-6.38971 4.41852,4.41852 0 0 0 -6.41278,2.09705 38.98835,38.98835 0 0 0 -2.531,5.39184 205.35068,205.35068 0 0 0 -12.83631,47.49543 c -0.4222,2.68206 -1.10968,3.95312 -3.9052,4.67323 a 19.60632,19.60632 0 0 0 -12.74983,9.4738 c -2.04229,3.77826 -4.37139,3.3562 -7.53192,2.3175 -7.04736,-2.31616 -14.11529,-4.58178 -21.23932,-6.64636 -2.82092,-0.81738 -6.035,-1.26764 -7.21051,2.56354 -1.15081,3.75024 0.91346,5.7218 4.35,6.76239 7.95947,2.41009 15.85486,5.04462 23.87073,7.24591 a 4.30249,4.30249 0 0 1 3.80725,4.15057 22.64042,22.64042 0 0 0 12.69922,17.708 23.20914,23.20914 0 0 0 4.79266,2.04944 6.73915,6.73915 0 0 1 2.81555,5.9295 197.76322,197.76322 0 0 0 8.22443,41.94343 15.22256,15.22256 0 0 1 1.02771,8.89892 24.27829,24.27829 0 0 0 -8.084,10.32813 5.14633,5.14633 0 0 1 -3.67968,0.13116 430.93278,430.93278 0 0 1 -41.79486,-11.668 c -3.35443,-1.13293 -6.66481,-1.80233 -8.01363,2.43657 -1.30755,4.10955 1.5243,5.6535 4.98359,6.83886 a 414.239,414.239 0 0 0 41.77575,11.72241 c 1.798,0.4123 3.81024,0.31788 5.04779,2.0705 a 24.2068,24.2068 0 0 0 24.05255,21.76917 c 0.65577,0 1.29987,-0.047 1.94257,-0.0984 a 3.36226,3.36226 0 0 1 2.22577,2.44909 206.56287,206.56287 0 0 1 10.53784,45.31006 5.12,5.12 0 0 1 -0.6629,3.97638 24.24763,24.24763 0 0 0 -16.48364,13.75942 c -3.45557,1.91858 -7.77033,0.48651 -12.044,-0.35138 -2.65991,-0.52154 -5.28033,-1.24133 -7.93665,-1.78332 a 350.23433,350.23433 0 0 1 -46.5194,-12.78669 c -3.01038,-1.0614 -5.52924,-0.69928 -6.79474,2.3357 -1.35926,3.2605 0.18182,5.58343 3.31244,6.8974 0.9992,0.41943 2.06475,0.67962 3.09466,1.02868 a 406.26645,406.26645 0 0 0 60.46314,15.21192 6.9087,6.9087 0 0 1 4.58142,2.23633 24.20778,24.20778 0 0 0 15.743,19.64325 c 1.5675,1.85516 1.46167,4.1701 0.733,7.27807 a 281.491,281.491 0 0 1 -8.22,31.42676 c -1.02179,2.84015 -1.08594,5.95172 2.57965,7.21967 3.89209,1.34637 5.63086,-1.15265 6.82428,-4.30188 0.31946,-0.843 0.69635,-1.66919 0.95,-2.53144 a 227.74519,227.74519 0 0 0 8.00714,-34.28167 6.22469,6.22469 0 0 1 1.34052,-3.70069 24.21747,24.21747 0 0 0 18.49072,-15.01013 4.75862,4.75862 0 0 1 4.15491,-1.18689 420.99515,420.99515 0 0 0 45.11413,1.77136 4.59224,4.59224 0 0 1 3.29987,0.97779 24.23513,24.23513 0 0 0 15.4331,16.92675 3.82036,3.82036 0 0 1 0.31452,3.20484 257.64779,257.64779 0 0 1 -7.73218,29.88324 c -1.17407,3.29925 -2.08679,6.59814 2.12195,8.16308 4.07013,1.51361 5.77887,-1.15484 6.98938,-4.63324 a 195.12061,195.12061 0 0 0 7.96216,-30.9068 7.2042,7.2042 0 0 1 2.15124,-4.65588 24.07294,24.07294 0 0 0 11.58991,-5.22876 15.69932,15.69932 0 0 0 2.16345,-2.059 24.11534,24.11534 0 0 0 6.04455,-11.41858 c 0.0726,-0.33386 0.10834,-0.67993 0.16761,-1.01849 l 13.65277,-2.82959 a 4.46836,4.46836 0 0 0 3.85858,-5.0044 q -0.006,-0.0464 -0.013,-0.0927 a 4.12781,4.12781 0 0 0 -4.66254,-4.2002 c -3.26184,0.0829 -6.52826,0.527 -9.75573,0.66309 -2.68561,0.11328 -3.07764,0.28284 -4.04194,-0.56573 a 24.24117,24.24117 0 0 0 -16.46191,-15.38721 3.6178,3.6178 0 0 1 -1.16534,-2.64984 193.63839,193.63839 0 0 0 -6.86054,-39.42627 c -0.59167,-1.99469 0.23474,-2.89716 1.78064,-3.92957 a 30.527,30.527 0 0 0 13.58875,-20.117 3.45074,3.45074 0 0 1 3.50036,-3.40039 q 0.14063,0.002 0.28076,0.0155 16.79947,-1.28843 33.54541,-3.23151 a 6.28889,6.28889 0 0 1 4.96888,0.96747 24.041,24.041 0 0 0 24.55639,13.87879 5.34584,5.34584 0 0 1 2.13355,3.11828 266.27824,266.27824 0 0 1 9.85766,38.83033 3.0121,3.0121 0 0 1 -0.523,2.7315 24.22158,24.22158 0 0 0 -17.26428,20.78827 c -2.63867,3.15637 -6.89062,3.65106 -11.50683,4.15057 -1.62348,0.1756 -3.25971,0.29017 -4.86365,0.57874 -3.22534,0.58014 -5.47016,2.14612 -4.91034,5.84167 0.53357,3.523 3.15637,4.17432 6.10437,3.81629 4.4895,-0.54511 8.9765,-1.18164 13.41827,-2.022 a 5.57485,5.57485 0 0 1 3.93793,0.26068 24.27054,24.27054 0 0 0 14.819,12.891 7.14865,7.14865 0 0 1 0.59516,5.97711 238.1196,238.1196 0 0 1 -10.086,42.08832 4.44268,4.44268 0 0 0 2.72436,6.18219 4.58452,4.58452 0 0 0 6.49774,-2.98834 c 0.28455,-0.663 0.5885,-1.3219 0.81385,-2.00556 a 221.0801,221.0801 0 0 0 9.82611,-43.82477 7.1303,7.1303 0 0 1 2.03979,-4.99139 24.18933,24.18933 0 0 0 18.75177,-22.25722 5.35435,5.35435 0 0 1 3.66364,-2.32727 c 6.65332,-1.72425 13.26855,-3.60926 19.84564,-5.605 a 4.73255,4.73255 0 0 0 4.00268,-5.36383 z m -288.86804,-163.972 q -0.0585,2.7e-4 -0.11706,6e-5 a 13.86474,13.86474 0 1 1 13.91272,-13.81662 q 1.8e-4,0.04065 6e-5,0.08124 a 13.76558,13.76558 0 0 1 -13.79572,13.73532 z m 162.61377,189.29221 c 0,0.55456 -0.0533,1.09545 -0.0918,1.64013 a 13.76113,13.76113 0 0 0 0.0918,-1.64013 z M -7.67695,-92.55084 a 13.88922,13.88922 0 1 1 -13.89508,13.88336 13.88751,13.88751 0 0 1 13.89508,-13.88336 z m -98.09119,33.33014 a 13.9456,13.9456 0 0 1 -14.29809,-13.584 q -0.008,-0.31008 -10e-4,-0.6203 a 13.94522,13.94522 0 1 1 14.29937,14.20429 z m -78.15248,88.07483 A 14.15641,14.15641 0 0 1 -197.89302,15.06977 13.83283,13.83283 0 0 1 -184.3664,0.961 q 0.0578,-7.3e-4 0.11554,-0.001 a 13.72836,13.72836 0 0 1 13.79309,13.66339 13.99773,13.99773 0 0 1 -13.46285,14.23074 z m 19.28179,98.95569 a 13.92534,13.92534 0 0 1 -13.66129,-13.99915 14.08485,14.08485 0 0 1 13.97894,-13.759 v 0 a 13.88087,13.88087 0 0 1 -0.31769,27.75812 z m 75.27155,-15.588 c 0,0 -8.0882,0.96265 -10.82581,1.11176 -12.29754,0.66968 -24.59539,-0.71637 -36.90081,-1.19916 a 4.222,4.222 0 0 1 -3.48621,-1.29352 24.20238,24.20238 0 0 0 -17.9267,-20.25238 5.12822,5.12822 0 0 1 -1.36224,-3.48828 187.155,187.155 0 0 0 -10.42694,-47.45727 6.6627,6.6627 0 0 1 -0.36548,-4.95209 24.33517,24.33517 0 0 0 7.947,-8.98956 c 3.04865,-1.83417 6.97321,-1.46326 11.28644,-0.94776 10.76929,1.287 21.65106,1.69373 32.497,2.24793 2.71313,0.13855 4.12848,0.74737 4.92279,3.61944 4.22388,15.27393 16.531,24.43018 32.10925,23.57025 3.82617,-0.21124 4.81238,0.95209 5.6239,4.30573 a 226.41737,226.41737 0 0 1 5.5846,33.04852 c 0.14416,1.60352 0.0561,2.62043 -0.67682,3.36914 a 24.22709,24.22709 0 0 0 -18.00001,17.30729 z m 23.35919,-7.36944 0.11035,-10e-4 a 13.71087,13.71087 0 0 1 13.80652,13.6145 14.20207,14.20207 0 0 1 -13.91552,13.87811 14.42457,14.42457 0 0 1 -13.98938,-13.87079 13.9064,13.9064 0 0 1 13.98799,-13.62056 z m 4.36585,-80.79291 A 21.21831,21.21831 0 0 1 -83.6644,44.44222 q -0.15673,0.002 -0.31348,8e-4 a 21.4948,21.4948 0 0 1 -21.39141,-21.59766 q -0.004,-0.23072 -0.002,-0.46155 A 21.76175,21.76175 0 0 1 -83.48164,0.75069 q 0.4107,-0.006 0.82141,0.003 a 21.518,21.518 0 0 1 21.02838,21.99671 q 0.0151,0.65473 -0.0102,1.3093 z m 49.41955,-12.51 h 6e-5 a 3.14537,3.14537 0 0 1 -2.54644,1.17047 c -10.99134,1.01441 -21.96943,2.17755 -32.942,3.38074 -3.04694,0.33417 -4.53851,-0.23383 -5.7146,-3.69507 a 30.88537,30.88537 0 0 0 -31.71588,-21.36 4.9757,4.9757 0 0 1 -5.86316,-3.89075 q -0.0431,-0.21313 -0.0674,-0.42944 a 320.60439,320.60439 0 0 1 -7.46411,-32.69385 5.10089,5.10089 0 0 1 0.836,-4.75025 24.24682,24.24682 0 0 0 14.56864,-16.0868 4.14081,4.14081 0 0 1 3.99731,-1.8363 425.98981,425.98981 0 0 0 43.46027,-2.37537 4.62163,4.62163 0 0 1 5.59833,1.51782 24.22885,24.22885 0 0 0 18.30957,14.683 4.65761,4.65761 0 0 1 1.34326,3.30774 197.61367,197.61367 0 0 0 8.54889,40.71789 5.50767,5.50767 0 0 1 0.0852,4.12641 24.16388,24.16388 0 0 0 -10.43394,18.21379 z m 23.98725,15.45 A 13.73075,13.73075 0 0 1 -1.86562,13.1687 q -0.006,-0.32592 0.003,-0.65179 a 13.38426,13.38426 0 0 1 13.76911,-12.9881 q 0.28728,-0.006 0.57464,7.3e-4 a 13.4223,13.4223 0 0 1 13.11438,13.72333 q 9e-5,0.0582 -3e-4,0.11646 a 13.73083,13.73083 0 0 1 -13.8308,13.63012 z m 34.813,78.32166 a 13.92466,13.92466 0 1 1 0.001,-0.18994 q 1.6e-4,0.0949 -9.9e-4,0.18992 z"
         id="path1019"
         style="fill:#6f6f0c;fill-opacity:1" />
      <path
         d="M 16.82378,13.27777 A 5.31552,5.31552 0 0 0 16.61016,11.62464 4.75794,4.75794 0 0 0 15.94262,10.25812 5.77729,5.77729 0 0 0 15.27971,9.47687 9.32465,9.32465 0 0 0 13.52371,8.146 C 13.19016,7.944 12.83835,7.75 12.47183,7.561 Q 12.19689,7.41926 11.91147,7.28084 c -2.3634,1.16028 -4.72455,2.40235 -4.915,5.55793 l -2.4e-4,0.002 a 4.46567,4.46567 0 0 0 -0.0759,0.79376 c -10e-4,0.0633 -0.003,0.126 -10e-4,0.1889 0.004,0.14514 0.0277,0.28589 0.0452,0.42823 a 4.4412,4.4412 0 0 0 0.0768,0.486 c 0.0326,0.137 0.0797,0.26868 0.12481,0.40124 0.0476,0.13959 0.093,0.27845 0.15381,0.41211 0.0608,0.13366 0.135,0.2602 0.20844,0.387 0.0705,0.12158 0.13916,0.24255 0.22064,0.35693 0.0832,0.11682 0.17792,0.22449 0.272,0.333 0.0946,0.109 0.18787,0.21722 0.293,0.31695 0.101,0.0958 0.212,0.18109 0.322,0.26746 a 4.39281,4.39281 0 0 0 0.35474,0.26062 c 0.12292,0.0781 0.25488,0.14313 0.38629,0.20941 0.12531,0.0632 0.248,0.128 0.38056,0.17963 a 4.52139,4.52139 0 0 0 0.47015,0.14355 c 0.13867,0.0372 0.2749,0.0806 0.41827,0.10443 0.062,0.0103 0.12433,0.0173 0.18665,0.025 a 4.45755,4.45755 0 0 0 0.79724,0.0353 h 0.002 a 4.40391,4.40391 0 0 0 0.76879,0.052 4.34124,4.34124 0 0 0 0.47559,-0.0388 c 0.13446,-0.0156 0.27,-0.026 0.40118,-0.0537 a 4.332,4.332 0 0 0 0.42365,-0.12268 c 0.13458,-0.0429 0.27093,-0.0814 0.40015,-0.13672 0.12823,-0.055 0.24713,-0.12488 0.36926,-0.19147 0.1264,-0.0689 0.25488,-0.13415 0.37384,-0.2149 0.11609,-0.0788 0.2204,-0.17127 0.32855,-0.26074 0.10815,-0.0895 0.21918,-0.17572 0.31867,-0.27546 0.10125,-0.10138 0.18841,-0.21484 0.27966,-0.32611 0.0883,-0.10766 0.17969,-0.21228 0.25781,-0.32855 0.0779,-0.11609 0.14069,-0.24182 0.20776,-0.3659 a 4.33933,4.33933 0 0 0 0.20032,-0.39539 c 0.0512,-0.123 0.0864,-0.25317 0.12671,-0.38208 a 4.19281,4.19281 0 0 0 0.21869,-1.22412 l 2.4e-4,-0.003 q 0.0359,-0.32257 0.0418,-0.6251 z"
         id="path1021"
         style="fill:#6f6f0c;fill-opacity:1" />
      <path
         class="cls-2"
         d="m 13.70043,18.0069 a 4.332,4.332 0 0 1 -0.42365,0.12268"
         id="path1023"
         style="fill:none;stroke:#000000;stroke-width:0;stroke-linecap:round;stroke-linejoin:round" />
      <path
         class="cls-2"
         d="m 16.02838,16.27295 c 0.0779,-0.11609 0.14069,-0.24182 0.20776,-0.3659"
         id="path1025"
         style="fill:none;stroke:#000000;stroke-width:0;stroke-linecap:round;stroke-linejoin:round" />
      <path
         class="cls-2"
         d="M 9.75738,17.86176 C 9.62481,17.81016 9.50213,17.7453 9.37682,17.68213"
         id="path1027"
         style="fill:none;stroke:#000000;stroke-width:0;stroke-linecap:round;stroke-linejoin:round" />
      <path
         class="cls-2"
         d="m 15.4909,16.92758 c 0.10125,-0.10138 0.18841,-0.21484 0.27966,-0.32611"
         id="path1029"
         style="fill:none;stroke:#000000;stroke-width:0;stroke-linecap:round;stroke-linejoin:round" />
      <path
         class="cls-2"
         d="M 8.31377,16.94464 C 8.20867,16.84494 8.11541,16.7367 8.02077,16.62769"
         id="path1031"
         style="fill:none;stroke:#000000;stroke-width:0;stroke-linecap:round;stroke-linejoin:round" />
      <path
         class="cls-2"
         d="m 16.56316,15.12958 c -0.0403,0.12891 -0.0756,0.25909 -0.12671,0.38208"
         id="path1033"
         style="fill:none;stroke:#000000;stroke-width:0;stroke-linecap:round;stroke-linejoin:round" />
      <path
         class="cls-2"
         d="M 8.99053,17.47272 A 4.39281,4.39281 0 0 1 8.63579,17.2121"
         id="path1035"
         style="fill:none;stroke:#000000;stroke-width:0;stroke-linecap:round;stroke-linejoin:round" />
      <path
         class="cls-2"
         d="m 15.17223,17.20307 c -0.10815,0.0895 -0.21246,0.18194 -0.32855,0.26074"
         id="path1037"
         style="fill:none;stroke:#000000;stroke-width:0;stroke-linecap:round;stroke-linejoin:round" />
      <path
         class="cls-2"
         d="m 12.40001,18.22199 a 4.34124,4.34124 0 0 0 0.47559,-0.0388"
         id="path1039"
         style="fill:none;stroke:#000000;stroke-width:0;stroke-linecap:round;stroke-linejoin:round" />
      <path
         d="m 10.51055,18.09168 c 0.0447,0.009 0.0903,0.0106 0.13525,0.0181 -0.14337,-0.0238 -0.2796,-0.0672 -0.41827,-0.10443 0.096,0.0258 0.18408,0.0668 0.28302,0.0864 z"
         id="path1041" />
      <path
         class="cls-2"
         d="m 14.46984,17.67871 c -0.12213,0.0666 -0.241,0.13648 -0.36926,0.19147"
         id="path1043"
         style="fill:none;stroke:#000000;stroke-width:0;stroke-linecap:round;stroke-linejoin:round" />
      <path
         d="m 16.72075,14.55676 a 4.421,4.421 0 0 0 0.0611,-0.6513 4.41368,4.41368 0 0 1 -0.0915,0.7619 c 0.007,-0.0382 0.0239,-0.0721 0.0305,-0.1106 z"
         id="path1045" />
      <path
         class="cls-2"
         d="M 7.31969,15.55078 C 7.25879,15.41712 7.21343,15.27826 7.16588,15.13867"
         id="path1047"
         style="fill:none;stroke:#000000;stroke-width:0;stroke-linecap:round;stroke-linejoin:round" />
      <path
         class="cls-2"
         d="m 6.96428,14.25141 a 4.4412,4.4412 0 0 0 0.0768,0.486"
         id="path1049"
         style="fill:none;stroke:#000000;stroke-width:0;stroke-linecap:round;stroke-linejoin:round" />
      <path
         class="cls-2"
         d="m 13.52373,8.146 a 9.32465,9.32465 0 0 1 1.756,1.33087"
         id="path1051"
         style="fill:none;stroke:#000000;stroke-width:0;stroke-linecap:round;stroke-linejoin:round" />
      <path
         class="cls-2"
         d="m 6.91906,13.82318 c -0.002,-0.0629 1.8e-4,-0.12555 0.001,-0.1889"
         id="path1053"
         style="fill:none;stroke:#000000;stroke-width:0;stroke-linecap:round;stroke-linejoin:round" />
      <path
         class="cls-2"
         d="M 7.74877,16.29474 C 7.66727,16.18036 7.59862,16.05939 7.52813,15.93781"
         id="path1055"
         style="fill:none;stroke:#000000;stroke-width:0;stroke-linecap:round;stroke-linejoin:round" />
      <path
         class="cls-2"
         d="m 15.94262,10.25812 a 4.75794,4.75794 0 0 1 0.66754,1.36652"
         id="path1057"
         style="fill:none;stroke:#000000;stroke-width:0;stroke-linecap:round;stroke-linejoin:round" />
      <path
         d="m 16.61016,11.62464 a 5.31552,5.31552 0 0 1 0.21362,1.65313 5.31552,5.31552 0 0 0 -0.21362,-1.65313 z"
         id="path1059" />
      <path
         class="cls-2"
         d="m 15.27971,9.47687 a 5.77729,5.77729 0 0 1 0.66291,0.78125"
         id="path1061"
         style="fill:none;stroke:#000000;stroke-width:0;stroke-linecap:round;stroke-linejoin:round" />
      <path
         d="m 11.91149,7.28082 h -6e-5 C 9.54802,8.4411 7.18676,9.68305 6.99643,12.83869 l -1.8e-4,0.002 2.4e-4,-0.002 c 0.19045,-3.15558 2.5516,-4.39765 4.915,-5.55793 z"
         id="path1063" />
      <path
         class="cls-2"
         d="m 11.62969,18.16998 a 4.45755,4.45755 0 0 1 -0.79724,-0.0353"
         id="path1065"
         style="fill:#6f6f0c;stroke:#000000;stroke-width:0;stroke-linecap:round;stroke-linejoin:round;fill-opacity:1" />
      <path
         d="m -159.22505,112.7594 c -0.009,-0.0425 -0.0173,-0.0847 -0.027,-0.12677 a 5.35431,5.35431 0 0 0 -0.27148,-0.84576 c -0.0174,-0.0418 -0.0351,-0.0828 -0.0535,-0.12409 a 5.37077,5.37077 0 0 0 -0.41626,-0.76391 c -0.0247,-0.0377 -0.0503,-0.074 -0.0759,-0.111 a 5.416,5.416 0 0 0 -0.54847,-0.67285 c -0.0287,-0.0299 -0.0587,-0.0577 -0.0881,-0.087 a 5.41085,5.41085 0 0 0 -0.67242,-0.57007 c -0.0285,-0.0203 -0.0581,-0.0381 -0.0869,-0.0578 a 5.37445,5.37445 0 0 0 -0.78949,-0.45007 c -0.0239,-0.011 -0.0488,-0.0195 -0.0728,-0.0302 a 5.35041,5.35041 0 0 0 -0.89838,-0.30761 c -0.0156,-0.004 -0.0317,-0.006 -0.0474,-0.009 a 5.40143,5.40143 0 0 0 -1.00067,-0.13885 l -1.2e-4,-7e-5 a 4.6532,4.6532 0 0 0 -0.83234,-0.0275 c -0.0691,0.003 -0.13751,0.006 -0.206,0.0123 -0.15381,0.0138 -0.302,0.0478 -0.45185,0.0764 a 4.63966,4.63966 0 0 0 -0.49591,0.11328 c -0.141,0.0435 -0.27594,0.10035 -0.41144,0.15668 -0.14117,0.0587 -0.28119,0.11615 -0.4154,0.18805 -0.13562,0.0727 -0.26331,0.15759 -0.39087,0.2431 -0.12109,0.0812 -0.241,0.16132 -0.354,0.25342 -0.11682,0.0952 -0.22406,0.20105 -0.33129,0.30713 -0.10627,0.10523 -0.21088,0.20978 -0.307,0.32507 -0.0936,0.11243 -0.17627,0.23383 -0.25934,0.35517 -0.0859,0.12567 -0.17065,0.25024 -0.24438,0.38476 -0.0734,0.1341 -0.13379,0.27619 -0.19416,0.41846 -0.0567,0.13348 -0.11413,0.265 -0.15857,0.40509 a 4.71343,4.71343 0 0 0 -0.119,0.49939 c -0.0297,0.14813 -0.0647,0.29443 -0.0798,0.44659 -0.007,0.0694 -0.0106,0.139 -0.0144,0.20862 a 4.64155,4.64155 0 0 0 0.0195,0.82776 l 1.8e-4,0.003 a 10.1523,10.1523 0 0 0 0.126,1.55713 5.87486,5.87486 0 0 0 0.62524,1.90014 3.95737,3.95737 0 0 0 0.72809,0.95209 3.71143,3.71143 0 0 0 0.46271,0.37537 3.9539,3.9539 0 0 0 0.64526,0.35791 5.9675,5.9675 0 0 0 2.55469,0.43371 l -1.2e-4,-6e-5 a 5.40357,5.40357 0 0 0 1.00391,-0.11957 c 0.0153,-0.003 0.0313,-0.005 0.0466,-0.008 a 5.34,5.34 0 0 0 0.90588,-0.29078 c 0.0235,-0.01 0.048,-0.0178 0.0714,-0.028 a 5.36087,5.36087 0 0 0 0.801,-0.43634 c 0.0279,-0.0183 0.0568,-0.035 0.0843,-0.0538 a 5.39282,5.39282 0 0 0 0.68683,-0.55982 c 0.0287,-0.0274 0.0582,-0.0539 0.0863,-0.082 a 5.40862,5.40862 0 0 0 0.56506,-0.66668 c 0.0248,-0.0344 0.0499,-0.0686 0.074,-0.10364 a 5.38526,5.38526 0 0 0 0.43463,-0.76245 q 0.0268,-0.0573 0.0524,-0.11524 a 5.34427,5.34427 0 0 0 0.29041,-0.84808 c 0.01,-0.0391 0.0186,-0.0786 0.0276,-0.1181 a 5.36537,5.36537 0 0 0 0.12707,-0.91584 c 0.004,-0.0737 0.005,-0.14795 0.006,-0.22235 8.5e-4,-0.0795 4.3e-4,-0.15863 -0.002,-0.23736 a 5.4053,5.4053 0 0 0 -0.10843,-0.90996 z"
         id="path1067"
         style="fill:#6f6f0c;fill-opacity:1" />
      <path
         class="cls-2"
         d="m -169.53962,112.83026 a 4.64155,4.64155 0 0 0 0.0195,0.82776"
         id="path1069"
         style="fill:none;stroke:#000000;stroke-width:0;stroke-linecap:round;stroke-linejoin:round" />
      <path
         class="cls-2"
         d="m -159.61824,116.12647 a 5.38526,5.38526 0 0 1 -0.43463,0.76245"
         id="path1071"
         style="fill:none;stroke:#000000;stroke-width:0;stroke-linecap:round;stroke-linejoin:round" />
      <path
         class="cls-2"
         d="m -159.27546,115.16315 a 5.34427,5.34427 0 0 1 -0.29041,0.84808"
         id="path1073"
         style="fill:none;stroke:#000000;stroke-width:0;stroke-linecap:round;stroke-linejoin:round" />
      <path
         d="m -169.51429,112.46424 c -0.007,0.0522 -0.006,0.105 -0.0109,0.1574 0.0151,-0.15216 0.0502,-0.29846 0.0798,-0.44659 -0.0196,0.098 -0.0554,0.18878 -0.0689,0.28919 z"
         id="path1075" />
      <path
         class="cls-2"
         d="m -162.42162,118.81915 a 5.34,5.34 0 0 1 -0.90588,0.29078"
         id="path1077"
         style="fill:none;stroke:#000000;stroke-width:0;stroke-linecap:round;stroke-linejoin:round" />
      <path
         class="cls-2"
         d="m -160.77815,117.74121 a 5.39282,5.39282 0 0 1 -0.68683,0.55982"
         id="path1079"
         style="fill:none;stroke:#000000;stroke-width:0;stroke-linecap:round;stroke-linejoin:round" />
      <path
         class="cls-2"
         d="m -160.12684,116.99258 a 5.40862,5.40862 0 0 1 -0.56506,0.66668"
         id="path1081"
         style="fill:none;stroke:#000000;stroke-width:0;stroke-linecap:round;stroke-linejoin:round" />
      <path
         class="cls-2"
         d="m -159.1208,114.12921 a 5.36537,5.36537 0 0 1 -0.12707,0.91584"
         id="path1083"
         style="fill:none;stroke:#000000;stroke-width:0;stroke-linecap:round;stroke-linejoin:round" />
      <path
         class="cls-2"
         d="m -161.54933,118.35486 a 5.36087,5.36087 0 0 1 -0.801,0.43634"
         id="path1085"
         style="fill:none;stroke:#000000;stroke-width:0;stroke-linecap:round;stroke-linejoin:round" />
      <path
         class="cls-2"
         d="m -160.61769,110.11505 c -0.0287,-0.0299 -0.0587,-0.0577 -0.0881,-0.087"
         id="path1087"
         style="fill:none;stroke:#000000;stroke-width:0;stroke-linecap:round;stroke-linejoin:round" />
      <path
         class="cls-2"
         d="m -161.37818,109.45801 c -0.0285,-0.0203 -0.0581,-0.0381 -0.0869,-0.0578"
         id="path1089"
         style="fill:none;stroke:#000000;stroke-width:0;stroke-linecap:round;stroke-linejoin:round" />
      <path
         class="cls-2"
         d="m -163.27308,108.60309 c 0.0156,0.004 0.0318,0.005 0.0474,0.009"
         id="path1091"
         style="fill:none;stroke:#000000;stroke-width:0;stroke-linecap:round;stroke-linejoin:round" />
      <path
         class="cls-2"
         d="m -165.10621,108.43671 c -0.0691,0.003 -0.13751,0.006 -0.206,0.0123"
         id="path1093"
         style="fill:none;stroke:#000000;stroke-width:0;stroke-linecap:round;stroke-linejoin:round" />
      <path
         class="cls-2"
         d="m -162.32734,108.91998 c 0.0241,0.0106 0.0489,0.0192 0.0728,0.0302"
         id="path1095"
         style="fill:none;stroke:#000000;stroke-width:0;stroke-linecap:round;stroke-linejoin:round" />
      <path
         class="cls-2"
         d="m -159.52357,111.78687 c -0.0174,-0.0418 -0.0351,-0.0828 -0.0535,-0.12409"
         id="path1097"
         style="fill:none;stroke:#000000;stroke-width:0;stroke-linecap:round;stroke-linejoin:round" />
      <path
         class="cls-2"
         d="m -159.22505,112.7594 c -0.009,-0.0425 -0.0173,-0.0847 -0.027,-0.12677"
         id="path1099"
         style="fill:none;stroke:#000000;stroke-width:0;stroke-linecap:round;stroke-linejoin:round" />
      <path
         d="m -159.11662,113.6695 c 0.003,0.0787 0.003,0.15783 0.002,0.23736 6.1e-4,-0.0595 0.006,-0.11773 0.005,-0.17767 -4.5e-4,-0.0204 -0.007,-0.0393 -0.007,-0.0597 z"
         id="path1101" />
      <path
         class="cls-2"
         d="m -169.32637,111.67566 c 0.0444,-0.14007 0.10187,-0.27161 0.15857,-0.40509"
         id="path1103"
         style="fill:none;stroke:#000000;stroke-width:0;stroke-linecap:round;stroke-linejoin:round" />
      <path
         d="m -164.37788,119.23773 h 1.2e-4 a 5.41019,5.41019 0 0 0 1.00367,-0.11963 5.40357,5.40357 0 0 1 -1.00391,0.11957 z"
         id="path1105" />
      <path
         class="cls-2"
         d="m -159.9933,110.89887 c -0.0247,-0.0377 -0.0503,-0.074 -0.0759,-0.111"
         id="path1107"
         style="fill:none;stroke:#000000;stroke-width:0;stroke-linecap:round;stroke-linejoin:round" />
      <path
         class="cls-2"
         d="m -168.72926,110.46735 c -0.0859,0.12567 -0.17065,0.25024 -0.24438,0.38476"
         id="path1109"
         style="fill:none;stroke:#000000;stroke-width:0;stroke-linecap:round;stroke-linejoin:round" />
      <path
         class="cls-2"
         d="m -167.83168,109.47998 c 0.113,-0.0921 0.23292,-0.17224 0.354,-0.25342"
         id="path1111"
         style="fill:none;stroke:#000000;stroke-width:0;stroke-linecap:round;stroke-linejoin:round" />
      <path
         class="cls-2"
         d="m -165.76405,108.52545 a 4.63966,4.63966 0 0 0 -0.49591,0.11328"
         id="path1113"
         style="fill:none;stroke:#000000;stroke-width:0;stroke-linecap:round;stroke-linejoin:round" />
      <path
         class="cls-2"
         d="m -166.6714,108.79541 c -0.14117,0.0587 -0.28119,0.11615 -0.4154,0.18805"
         id="path1115"
         style="fill:none;stroke:#000000;stroke-width:0;stroke-linecap:round;stroke-linejoin:round" />
      <path
         class="cls-2"
         d="m -168.16297,109.78711 c -0.10627,0.10523 -0.21088,0.20978 -0.307,0.32507"
         id="path1117"
         style="fill:#6f6f0c;stroke:#000000;stroke-width:0;stroke-linecap:round;stroke-linejoin:round;fill-opacity:1" />
      <path
         d="m -179.80122,12.01929 c -0.0395,-0.0862 -0.0658,-0.18463 -0.10974,-0.26679 a 4.15369,4.15369 0 0 0 -0.30328,-0.48468 4.54811,4.54811 0 0 0 -3.83973,-1.70935 6.13939,6.13939 0 0 0 -2.32366,0.35389 3.809,3.809 0 0 0 -1.9314,1.63775 5.72854,5.72854 0 0 0 -0.73041,2.1181 9.94971,9.94971 0 0 0 -0.12292,1.45789 c 0.0905,2.00189 0.71331,3.59216 2.07269,4.45929 a 4.50593,4.50593 0 0 0 1.61249,0.61462 6.70644,6.70644 0 0 0 1.1593,0.10816 v -1.2e-4 a 4.6766,4.6766 0 0 0 4.00879,-1.61689 4.13755,4.13755 0 0 0 0.31909,-0.47869 5.58194,5.58194 0 0 0 0.64471,-1.98517 9.22473,9.22473 0 0 0 0.101,-1.4339 7.99889,7.99889 0 0 0 -0.14978,-1.50012 5.82268,5.82268 0 0 0 -0.40715,-1.27399 z"
         id="path1119"
         style="fill:#6f6f0c;fill-opacity:1" />
      <path
         d="m -184.31788,20.30805 v 1.2e-4 a 4.67641,4.67641 0 0 0 4.00879,-1.617 4.6766,4.6766 0 0 1 -4.00879,1.61688 z"
         id="path1121" />
      <path
         class="cls-2"
         d="m -179.99,18.21247 a 4.13755,4.13755 0 0 1 -0.31909,0.47869"
         id="path1123"
         style="fill:none;stroke:#000000;stroke-width:0;stroke-linecap:round;stroke-linejoin:round" />
      <path
         class="cls-2"
         d="m -186.37762,9.91236 a 6.13939,6.13939 0 0 1 2.32366,-0.35389"
         id="path1125"
         style="fill:none;stroke:#000000;stroke-width:0;stroke-linecap:round;stroke-linejoin:round" />
      <path
         class="cls-2"
         d="m -179.34529,16.2273 a 9.22473,9.22473 0 0 0 0.101,-1.4339"
         id="path1127"
         style="fill:none;stroke:#000000;stroke-width:0;stroke-linecap:round;stroke-linejoin:round" />
      <path
         d="m -180.21424,11.26782 a 4.54771,4.54771 0 0 0 -3.83973,-1.70935 4.54811,4.54811 0 0 1 3.83973,1.70935 z"
         id="path1129" />
      <path
         class="cls-2"
         d="m -180.21424,11.26782 a 4.15369,4.15369 0 0 1 0.30328,0.48468"
         id="path1131"
         style="fill:none;stroke:#000000;stroke-width:0;stroke-linecap:round;stroke-linejoin:round" />
      <path
         class="cls-2"
         d="m -188.30903,11.55011 a 3.809,3.809 0 0 1 1.9314,-1.63775"
         id="path1133"
         style="fill:none;stroke:#000000;stroke-width:0;stroke-linecap:round;stroke-linejoin:round" />
      <path
         class="cls-2"
         d="m -179.24433,14.7934 a 7.99889,7.99889 0 0 0 -0.14978,-1.50012"
         id="path1135"
         style="fill:none;stroke:#000000;stroke-width:0;stroke-linecap:round;stroke-linejoin:round" />
      <path
         d="m -179.80122,12.01929 a 5.82268,5.82268 0 0 1 0.40711,1.274 5.82268,5.82268 0 0 0 -0.40711,-1.274 z"
         id="path1137" />
      <path
         class="cls-2"
         d="m -189.16236,15.1261 a 9.94971,9.94971 0 0 1 0.12292,-1.45789"
         id="path1139"
         style="fill:#6f6f0c;stroke:#000000;stroke-width:0;stroke-linecap:round;stroke-linejoin:round;fill-opacity:1" />
      <path
         d="m -200.81162,-88.57379 a 4.82312,4.82312 0 0 0 -0.85651,-0.41724 6.54631,6.54631 0 0 0 -0.985,-0.27954 8.97209,8.97209 0 0 0 -1.094,-0.15112 q -0.28556,-0.02251 -0.58179,-0.03033 a 9.77266,9.77266 0 0 0 -1.19311,0.07971 5.99614,5.99614 0 0 0 -2.00275,0.59552 c -1.4364,0.75189 -2.25861,2.16491 -2.2218,4.40515 a 5.01856,5.01856 0 0 0 0.83221,2.91516 3.71806,3.71806 0 0 0 0.77069,0.79071 4.29255,4.29255 0 0 0 0.643,0.394 5.36165,5.36165 0 0 0 0.93036,0.37635 8.756,8.756 0 0 0 2.025,0.32232 4.81227,4.81227 0 0 0 0.88635,0.03723 c 0.0445,-0.0018 0.0891,-6.1e-4 0.13331,-0.0037 0.13739,-0.0095 0.26824,-0.04339 0.40271,-0.06445 a 4.81144,4.81144 0 0 0 0.55609,-0.10388 c 0.14459,-0.04059 0.28033,-0.10181 0.41961,-0.1554 0.15064,-0.058 0.30341,-0.10882 0.44684,-0.18121 0.1424,-0.072 0.27307,-0.163 0.40741,-0.24835 0.12659,-0.08057 0.25635,-0.15448 0.37488,-0.2464 0.12231,-0.09485 0.23035,-0.20618 0.34314,-0.31238 0.11279,-0.1062 0.22912,-0.207 0.33142,-0.324 0.0981,-0.11212 0.17987,-0.23822 0.26752,-0.35955 a 4.721,4.721 0 0 0 0.27215,-0.393 c 0.0796,-0.13733 0.13965,-0.28711 0.20575,-0.43323 0.0619,-0.13684 0.13129,-0.26812 0.18061,-0.412 a 4.88384,4.88384 0 0 0 0.13568,-0.54761 c 0.029,-0.13355 0.0705,-0.26264 0.0881,-0.39972 0.006,-0.04382 0.007,-0.08826 0.0114,-0.13239 a 4.8041,4.8041 0 0 0 0.0145,-0.88726 5.754,5.754 0 0 0 -0.038,-1.15308 3.5953,3.5953 0 0 0 -1.70566,-2.68031 z"
         id="path1141"
         style="fill:#6f6f0c;fill-opacity:1" />
      <path
         class="cls-2"
         d="m -199.06794,-84.74035 a 4.8041,4.8041 0 0 1 -0.0145,0.88726"
         id="path1143"
         style="fill:none;stroke:#000000;stroke-width:0;stroke-linecap:round;stroke-linejoin:round" />
      <path
         class="cls-2"
         d="m -199.31751,-82.77342 c -0.0493,0.14392 -0.11866,0.2752 -0.18061,0.412"
         id="path1145"
         style="fill:none;stroke:#000000;stroke-width:0;stroke-linecap:round;stroke-linejoin:round" />
      <path
         class="cls-2"
         d="m -203.52562,-79.53949 c -0.0442,0.003 -0.0888,0.0018 -0.13331,0.0037"
         id="path1147"
         style="fill:none;stroke:#000000;stroke-width:0;stroke-linecap:round;stroke-linejoin:round" />
      <path
         d="m -199.09962,-83.65277 c 0.003,-0.02252 0.003,-0.04535 0.006,-0.06793 -0.0176,0.13708 -0.0591,0.26617 -0.0881,0.39972 0.0243,-0.11212 0.0657,-0.21649 0.0822,-0.33179 z"
         id="path1149" />
      <path
         class="cls-2"
         d="m -202.56684,-79.70782 a 4.81144,4.81144 0 0 1 -0.55609,0.10388"
         id="path1151"
         style="fill:none;stroke:#000000;stroke-width:0;stroke-linecap:round;stroke-linejoin:round" />
      <path
         class="cls-2"
         d="m -205.52198,-89.37231 a 5.99614,5.99614 0 0 0 -2.00275,0.59552"
         id="path1153"
         style="fill:none;stroke:#000000;stroke-width:0;stroke-linecap:round;stroke-linejoin:round" />
      <path
         class="cls-2"
         d="m -201.29298,-80.29278 c 0.12659,-0.08057 0.25635,-0.15448 0.37488,-0.2464"
         id="path1155"
         style="fill:none;stroke:#000000;stroke-width:0;stroke-linecap:round;stroke-linejoin:round" />
      <path
         class="cls-2"
         d="m -201.6681,-88.99103 a 4.82312,4.82312 0 0 1 0.85651,0.41724"
         id="path1157"
         style="fill:none;stroke:#000000;stroke-width:0;stroke-linecap:round;stroke-linejoin:round" />
      <path
         class="cls-2"
         d="m -201.70039,-80.04442 c -0.14343,0.07239 -0.2962,0.12323 -0.44684,0.18121"
         id="path1159"
         style="fill:none;stroke:#000000;stroke-width:0;stroke-linecap:round;stroke-linejoin:round" />
      <path
         class="cls-2"
         d="m -200.57496,-80.85156 c 0.11279,-0.10626 0.22912,-0.207 0.33142,-0.324"
         id="path1161"
         style="fill:none;stroke:#000000;stroke-width:0;stroke-linecap:round;stroke-linejoin:round" />
      <path
         d="m -204.32893,-89.45202 a 9.77166,9.77166 0 0 0 -1.193,0.07971 9.77266,9.77266 0 0 1 1.19311,-0.07971 z"
         id="path1163"
         style="fill:#6f6f0c;fill-opacity:1" />
      <path
         class="cls-2"
         d="m -199.10597,-85.89342 a 5.754,5.754 0 0 1 0.038,1.15308"
         id="path1165"
         style="fill:none;stroke:#000000;stroke-width:0;stroke-linecap:round;stroke-linejoin:round" />
      <path
         class="cls-2"
         d="m -200.81162,-88.57379 a 3.5953,3.5953 0 0 1 1.70565,2.68037"
         id="path1167"
         style="fill:none;stroke:#000000;stroke-width:0;stroke-linecap:round;stroke-linejoin:round" />
      <path
         class="cls-2"
         d="m -199.70387,-81.9281 a 4.721,4.721 0 0 1 -0.27215,0.393"
         id="path1169"
         style="fill:none;stroke:#000000;stroke-width:0;stroke-linecap:round;stroke-linejoin:round" />
      <path
         d="m -101.03762,-74.41327 a 4.89052,4.89052 0 0 0 -0.12774,-0.58386 c -0.0462,-0.14539 -0.11445,-0.28033 -0.17365,-0.41986 a 2.911,2.911 0 0 0 -0.46918,-0.85773 c -0.085,-0.12378 -0.16211,-0.25207 -0.258,-0.36743 -0.10126,-0.12183 -0.21991,-0.22748 -0.33264,-0.33911 -0.11084,-0.10974 -0.21509,-0.22455 -0.33625,-0.32349 -0.118,-0.09643 -0.25073,-0.17456 -0.37793,-0.25988 a 4.79316,4.79316 0 0 0 -0.40436,-0.262 4.90821,4.90821 0 0 0 -0.45953,-0.19763 c -0.13721,-0.05615 -0.26831,-0.12176 -0.41193,-0.16565 a 4.96708,4.96708 0 0 0 -0.59588,-0.12427 c -0.12335,-0.02148 -0.24225,-0.05737 -0.36817,-0.06927 -0.0379,-0.0036 -0.0759,-0.0031 -0.11383,-0.0057 a 4.886,4.886 0 0 0 -0.90918,0.01325 l -0.003,1.8e-4 a 5.03926,5.03926 0 0 0 -0.57922,0.0531 5.17539,5.17539 0 0 0 -0.51557,0.06024 4.99341,4.99341 0 0 0 -0.48254,0.14508 c -0.15973,0.05036 -0.323,0.0907 -0.47559,0.15589 -0.15527,0.06634 -0.29718,0.15515 -0.44409,0.236 -0.142,0.07806 -0.2887,0.14709 -0.42212,0.23785 -0.13806,0.094 -0.26,0.20764 -0.38806,0.31433 -0.1239,0.10334 -0.25366,0.19861 -0.36731,0.313 -0.11566,0.11646 -0.21253,0.2497 -0.31665,0.37677 -0.1037,0.12659 -0.21405,0.24616 -0.30548,0.38245 -0.0913,0.136 -0.16095,0.28625 -0.23908,0.43115 -0.0785,0.14563 -0.16491,0.28534 -0.22931,0.439 -0.0648,0.15455 -0.10492,0.32044 -0.15448,0.48224 -0.0487,0.15876 -0.10675,0.31263 -0.14,0.47766 a 5.21528,5.21528 0 0 0 -0.0574,0.52259 5.029,5.029 0 0 0 -0.0487,0.57373 v 6e-5 a 5.53006,5.53006 0 0 0 0.28644,1.869 4.70455,4.70455 0 0 0 1.20672,1.87536 5.37684,5.37684 0 0 0 0.42292,0.3653 7.94346,7.94346 0 0 0 3.39337,1.425 q 0.53778,-0.0898 1.02887,-0.22058 a 6.76486,6.76486 0 0 0 2.47955,-1.175 4.49029,4.49029 0 0 0 1.08978,-1.23761 4.76708,4.76708 0 0 0 0.5857,-1.62573 6.40739,6.40739 0 0 0 0.0906,-1.11139 4.88251,4.88251 0 0 0 0.004,-0.91425 c -0.003,-0.03674 -0.003,-0.07379 -0.007,-0.11029 -0.0136,-0.12968 -0.0515,-0.25175 -0.0751,-0.37846 z"
         id="path1171"
         style="fill:#6f6f0c;fill-opacity:1" />
      <path
         d="m -105.30549,-78.38104 c -0.0157,-0.0016 -0.0317,-8.6e-4 -0.0474,-0.0024 0.12592,0.0119 0.24482,0.04779 0.36817,0.06927 -0.1084,-0.01886 -0.20966,-0.05517 -0.32074,-0.06689 z"
         id="path1173" />
      <path
         class="cls-2"
         d="m -106.37593,-78.37591 a 4.886,4.886 0 0 1 0.90918,-0.01325"
         id="path1175"
         style="fill:none;stroke:#000000;stroke-width:0;stroke-linecap:round;stroke-linejoin:round" />
      <path
         class="cls-2"
         d="m -107.4734,-78.26242 a 5.17539,5.17539 0 0 1 0.51557,-0.06024"
         id="path1177"
         style="fill:none;stroke:#000000;stroke-width:0;stroke-linecap:round;stroke-linejoin:round" />
      <path
         class="cls-2"
         d="m -110.36976,-76.48352 c -0.1037,0.12659 -0.21405,0.24616 -0.30548,0.38245"
         id="path1179"
         style="fill:none;stroke:#000000;stroke-width:0;stroke-linecap:round;stroke-linejoin:round" />
      <path
         class="cls-2"
         d="m -110.91432,-75.66992 c -0.0785,0.14563 -0.16491,0.28534 -0.22931,0.439"
         id="path1181"
         style="fill:none;stroke:#000000;stroke-width:0;stroke-linecap:round;stroke-linejoin:round" />
      <path
         class="cls-2"
         d="m -104.38887,-78.18988 c 0.14362,0.04389 0.27472,0.1095 0.41193,0.16565"
         id="path1183"
         style="fill:none;stroke:#000000;stroke-width:0;stroke-linecap:round;stroke-linejoin:round" />
      <path
         class="cls-2"
         d="m -111.43812,-74.27106 c 0.0333,-0.165 0.0913,-0.3189 0.14,-0.47766"
         id="path1185"
         style="fill:none;stroke:#000000;stroke-width:0;stroke-linecap:round;stroke-linejoin:round" />
      <path
         class="cls-2"
         d="m -109.29774,-77.48761 c 0.13342,-0.09076 0.28009,-0.15979 0.42212,-0.23785"
         id="path1187"
         style="fill:none;stroke:#000000;stroke-width:0;stroke-linecap:round;stroke-linejoin:round" />
      <path
         class="cls-2"
         d="m -109.6858,-77.17328 c -0.1239,0.10334 -0.25366,0.19861 -0.36731,0.313"
         id="path1189"
         style="fill:none;stroke:#000000;stroke-width:0;stroke-linecap:round;stroke-linejoin:round" />
      <path
         class="cls-2"
         d="m -108.43153,-77.96142 c 0.15259,-0.06519 0.31586,-0.10553 0.47559,-0.15589"
         id="path1191"
         style="fill:none;stroke:#000000;stroke-width:0;stroke-linecap:round;stroke-linejoin:round" />
      <path
         d="m -110.05104,-69.4303 a 4.70455,4.70455 0 0 1 -1.20672,-1.87536 4.70455,4.70455 0 0 0 1.20672,1.87536 z"
         id="path1193" />
      <path
         d="m -111.5442,-73.17474 a 5.029,5.029 0 0 1 0.0487,-0.57373 c -0.0145,0.14959 -0.0477,0.29358 -0.0491,0.44671 q -6.3e-4,0.06363 4.3e-4,0.12714 a 5.52942,5.52942 0 0 0 0.28644,1.869 5.53006,5.53006 0 0 1 -0.28644,-1.869 z"
         id="path1195" />
      <path
         class="cls-2"
         d="m -109.62812,-69.065 a 5.37684,5.37684 0 0 1 -0.42292,-0.3653"
         id="path1197"
         style="fill:#6f6f0c;stroke:#000000;stroke-width:0;stroke-linecap:round;stroke-linejoin:round;fill-opacity:1" />
      <path
         class="cls-2"
         d="m -101.53694,-75.86499 a 4.88835,4.88835 0 0 1 0.19794,0.448"
         id="path1199"
         style="fill:none;stroke:#000000;stroke-width:0;stroke-linecap:round;stroke-linejoin:round" />
      <path
         class="cls-2"
         d="m -101.80818,-76.27472 c -0.085,-0.12378 -0.16211,-0.25207 -0.258,-0.36743"
         id="path1201"
         style="fill:none;stroke:#000000;stroke-width:0;stroke-linecap:round;stroke-linejoin:round" />
      <path
         class="cls-2"
         d="m -101.16535,-74.99713 a 4.89052,4.89052 0 0 1 0.12774,0.58386"
         id="path1203"
         style="fill:none;stroke:#000000;stroke-width:0;stroke-linecap:round;stroke-linejoin:round" />
      <path
         class="cls-2"
         d="m -100.95594,-73.92462 c -0.003,-0.03674 -0.003,-0.07379 -0.007,-0.11029"
         id="path1205"
         style="fill:none;stroke:#000000;stroke-width:0;stroke-linecap:round;stroke-linejoin:round" />
      <path
         class="cls-2"
         d="m -103.51741,-77.8266 a 4.79316,4.79316 0 0 1 0.40436,0.262"
         id="path1207"
         style="fill:none;stroke:#000000;stroke-width:0;stroke-linecap:round;stroke-linejoin:round" />
      <path
         class="cls-2"
         d="m -102.73512,-77.30475 c 0.12116,0.09894 0.22541,0.21375 0.33625,0.32349"
         id="path1209"
         style="fill:none;stroke:#000000;stroke-width:0;stroke-linecap:round;stroke-linejoin:round" />
      <path
         d="m -8.3105,-73.39742 a 4.31339,4.31339 0 0 0 2.5644,-0.23822 3.75853,3.75853 0 0 0 0.79,-0.47479 5.19767,5.19767 0 0 0 1.445,-1.8819 8.23306,8.23306 0 0 0 0.38391,-0.95453 10.40773,10.40773 0 0 0 0.28327,-1.0263 10.84194,10.84194 0 0 0 0.0176,-1.189 6.492,6.492 0 0 0 -0.38665,-2.04156 3.84062,3.84062 0 0 0 -1.79016,-2.07538 5.673,5.673 0 0 0 -2.12122,-0.61212 l -0.002,-2.5e-4 c -0.11071,-0.01776 -0.22039,-0.02514 -0.3305,-0.03607 -0.0977,-0.0098 -0.19537,-0.021 -0.29248,-0.02551 -0.0886,-0.0041 -0.17615,-0.0021 -0.2641,-0.002 -0.0964,1.3e-4 -0.19287,-0.0011 -0.28839,0.004 -0.0888,0.0048 -0.17621,0.01544 -0.264,0.02448 -0.0927,0.0096 -0.18555,0.01764 -0.277,0.0318 -0.0886,0.01373 -0.17554,0.033 -0.26288,0.051 -0.0884,0.01813 -0.177,0.03485 -0.264,0.05725 -0.0873,0.02252 -0.17261,0.05042 -0.25837,0.077 -0.0843,0.02618 -0.16888,0.0509 -0.25158,0.081 -0.0848,0.03089 -0.16718,0.067 -0.25013,0.10187 -0.0804,0.03388 -0.16131,0.06628 -0.23992,0.10388 -0.0808,0.03858 -0.15888,0.08209 -0.23755,0.12451 -0.0769,0.04145 -0.15436,0.08161 -0.22919,0.12659 -0.0756,0.04553 -0.14826,0.0957 -0.22162,0.14472 -0.0734,0.04902 -0.14764,0.0971 -0.21869,0.14965 -0.0698,0.0517 -0.13617,0.10767 -0.20349,0.16254 -0.0696,0.0567 -0.13971,0.1123 -0.20648,0.17242 -0.0641,0.05762 -0.12445,0.11933 -0.18585,0.18 -0.0642,0.06347 -0.12921,0.126 -0.19037,0.19262 -0.0585,0.06385 -0.113,0.13147 -0.16858,0.19806 -0.058,0.06952 -0.1167,0.138 -0.17133,0.21045 -0.0525,0.0697 -0.10064,0.143 -0.15,0.2154 -0.051,0.07489 -0.10291,0.14868 -0.15033,0.22631 -0.0461,0.0755 -0.0875,0.15448 -0.13013,0.23255 -0.0434,0.07959 -0.088,0.15814 -0.12762,0.24023 -0.0396,0.08209 -0.0739,0.16724 -0.10956,0.25159 -0.0349,0.08264 -0.071,0.16431 -0.10211,0.24914 -0.0322,0.08832 -0.0588,0.17957 -0.0867,0.27015 -0.0264,0.08581 -0.0544,0.17059 -0.0768,0.25836 -0.0234,0.09179 -0.0407,0.18628 -0.0596,0.28015 -0.0223,0.11078 -0.0478,0.22028 -0.0635,0.33374 a 5.72957,5.72957 0 0 0 -0.0954,0.66162 4.80924,4.80924 0 0 0 -0.0126,0.61572 4.02893,4.02893 0 0 0 0.19964,1.0987 c 0.67581,2.02579 2.91904,3.04282 5.05667,3.43013 z"
         id="path1211"
         style="fill:#6f6f0c;fill-opacity:1" />
      <path
         class="cls-2"
         d="m -11.27644,-82.87726 c 0.0711,-0.05255 0.1452,-0.10052 0.21869,-0.14965"
         id="path1213"
         style="fill:none;stroke:#000000;stroke-width:0;stroke-linecap:round;stroke-linejoin:round" />
      <path
         class="cls-2"
         d="m -11.68641,-82.5423 c 0.0668,-0.06012 0.1369,-0.11572 0.20648,-0.17242"
         id="path1215"
         style="fill:none;stroke:#000000;stroke-width:0;stroke-linecap:round;stroke-linejoin:round" />
      <path
         class="cls-2"
         d="m -12.70283,-81.31942 c 0.0474,-0.07763 0.0993,-0.15142 0.15033,-0.22631"
         id="path1217"
         style="fill:none;stroke:#000000;stroke-width:0;stroke-linecap:round;stroke-linejoin:round" />
      <path
         d="m -5.00318,-83.27905 a 5.67189,5.67189 0 0 0 -2.12122,-0.61218 l -0.002,-1.9e-4 0.002,2.5e-4 a 5.673,5.673 0 0 1 2.12122,0.61212 z"
         id="path1219" />
      <path
         class="cls-2"
         d="m -12.40254,-81.76117 c 0.0546,-0.07245 0.11335,-0.14093 0.17133,-0.21045"
         id="path1221"
         style="fill:none;stroke:#000000;stroke-width:0;stroke-linecap:round;stroke-linejoin:round" />
      <path
         class="cls-2"
         d="m -12.06262,-82.16968 c 0.0612,-0.06665 0.12616,-0.12915 0.19037,-0.19262"
         id="path1223"
         style="fill:none;stroke:#000000;stroke-width:0;stroke-linecap:round;stroke-linejoin:round" />
      <path
         d="m -3.21302,-81.20367 a 6.492,6.492 0 0 1 0.38665,2.04156 6.49168,6.49168 0 0 0 -0.38665,-2.04156 z"
         id="path1225" />
      <path
         class="cls-2"
         d="m -10.36939,-83.42273 c 0.0786,-0.0376 0.15948,-0.07 0.23992,-0.10388"
         id="path1227"
         style="fill:none;stroke:#000000;stroke-width:0;stroke-linecap:round;stroke-linejoin:round" />
      <path
         class="cls-2"
         d="m -13.33576,-79.81742 c 0.0224,-0.08777 0.0504,-0.17255 0.0768,-0.25836"
         id="path1229"
         style="fill:none;stroke:#000000;stroke-width:0;stroke-linecap:round;stroke-linejoin:round" />
      <path
         class="cls-2"
         d="m -9.87934,-83.62848 c 0.0827,-0.03009 0.16729,-0.05481 0.25158,-0.081"
         id="path1231"
         style="fill:none;stroke:#000000;stroke-width:0;stroke-linecap:round;stroke-linejoin:round" />
      <path
         class="cls-2"
         d="m -8.84248,-83.89471 c 0.0915,-0.01416 0.18433,-0.02222 0.277,-0.0318"
         id="path1233"
         style="fill:none;stroke:#000000;stroke-width:0;stroke-linecap:round;stroke-linejoin:round" />
      <path
         class="cls-2"
         d="m -9.36939,-83.7865 c 0.087,-0.0224 0.17565,-0.03912 0.264,-0.05725"
         id="path1235"
         style="fill:none;stroke:#000000;stroke-width:0;stroke-linecap:round;stroke-linejoin:round" />
      <path
         class="cls-2"
         d="m -10.83613,-83.17163 c 0.0748,-0.045 0.15228,-0.08514 0.22919,-0.12659"
         id="path1237"
         style="fill:none;stroke:#000000;stroke-width:0;stroke-linecap:round;stroke-linejoin:round" />
      <path
         class="cls-2"
         d="m -12.96062,-80.84668 c 0.0397,-0.08209 0.0842,-0.16064 0.12762,-0.24023"
         id="path1239"
         style="fill:none;stroke:#000000;stroke-width:0;stroke-linecap:round;stroke-linejoin:round" />
      <path
         class="cls-2"
         d="m -7.74891,-83.953 c 0.0971,0.0045 0.19476,0.01575 0.29248,0.02551"
         id="path1241"
         style="fill:none;stroke:#000000;stroke-width:0;stroke-linecap:round;stroke-linejoin:round" />
      <path
         class="cls-2"
         d="m -13.17225,-80.34595 c 0.0311,-0.08483 0.0672,-0.1665 0.10211,-0.24914"
         id="path1243"
         style="fill:none;stroke:#000000;stroke-width:0;stroke-linecap:round;stroke-linejoin:round" />
      <path
         class="cls-2"
         d="m -8.3014,-83.95099 c 0.0955,-0.0052 0.192,-0.0039 0.28839,-0.004"
         id="path1245"
         style="fill:none;stroke:#000000;stroke-width:0;stroke-linecap:round;stroke-linejoin:round" />
      <path
         d="m -13.3954,-79.53729 c -0.0145,0.0719 -0.034,0.1416 -0.0457,0.21466 q -0.01,0.05942 -0.0178,0.119 a 5.73054,5.73054 0 0 0 -0.0954,0.66168 5.72957,5.72957 0 0 1 0.0954,-0.66162 c 0.0157,-0.11344 0.0412,-0.22294 0.0635,-0.33372 z"
         id="path1247" />
      <path
         class="cls-2"
         d="m -13.5669,-77.92621 a 4.80924,4.80924 0 0 1 0.0126,-0.61572"
         id="path1249"
         style="fill:#6f6f0c;stroke:#000000;stroke-width:0;stroke-linecap:round;stroke-linejoin:round;fill-opacity:1" />
      <path
         d="m 38.34538,104.65802 c -0.0104,-0.116 -0.0197,-0.23218 -0.0375,-0.34607 -0.0106,-0.0679 -0.0272,-0.13366 -0.0403,-0.20074 -0.0211,-0.10767 -0.0406,-0.21582 -0.0681,-0.32123 -0.0205,-0.0787 -0.0472,-0.155 -0.0712,-0.23242 -0.0277,-0.0895 -0.0532,-0.17987 -0.0854,-0.26734 -0.0326,-0.0886 -0.0715,-0.174 -0.10858,-0.26031 -0.0312,-0.0727 -0.0598,-0.14661 -0.0941,-0.21759 -0.0442,-0.0915 -0.0945,-0.17938 -0.14368,-0.268 -0.0347,-0.0624 -0.0667,-0.12616 -0.10376,-0.18707 -0.053,-0.0872 -0.11175,-0.17035 -0.16955,-0.25421 -0.0403,-0.0585 -0.0784,-0.11859 -0.121,-0.17548 -0.0584,-0.0779 -0.122,-0.15161 -0.18445,-0.22625 -0.0487,-0.0582 -0.0954,-0.11792 -0.14649,-0.174 -0.0605,-0.0665 -0.12567,-0.12835 -0.18939,-0.19171 -0.0592,-0.0589 -0.11676,-0.11914 -0.17871,-0.17529 -0.0609,-0.0551 -0.12591,-0.10577 -0.18933,-0.15814 -0.0703,-0.058 -0.13922,-0.11731 -0.21246,-0.17182 -0.0616,-0.0458 -0.1269,-0.087 -0.19055,-0.13031 -0.0794,-0.0539 -0.15754,-0.10907 -0.23987,-0.15875 -0.0659,-0.0398 -0.13507,-0.0745 -0.20282,-0.11151 -0.084,-0.0459 -0.16706,-0.0934 -0.25385,-0.13489 -0.0752,-0.036 -0.15368,-0.0663 -0.23089,-0.0989 -0.0824,-0.0347 -0.16346,-0.0717 -0.24793,-0.10236 -0.0919,-0.0334 -0.18677,-0.0601 -0.28094,-0.0886 -0.0732,-0.0222 -0.1449,-0.0472 -0.21942,-0.0663 -0.11023,-0.0283 -0.22358,-0.0488 -0.33661,-0.0701 -0.062,-0.0117 -0.12275,-0.0269 -0.18555,-0.0365 -0.11859,-0.0181 -0.24,-0.0275 -0.36115,-0.0378 -0.0614,-0.005 -0.1217,-0.0142 -0.18353,-0.0173 a 5.35724,5.35724 0 0 0 -0.57977,0.001 h -1.2e-4 v 6e-5 a 4.477,4.477 0 0 0 -0.87195,-0.0209 4.38634,4.38634 0 0 0 -0.62152,0.10424 c -0.0857,0.0185 -0.17572,0.023 -0.25977,0.0464 a 4.40233,4.40233 0 0 0 -0.48419,0.186 c -0.11,0.0451 -0.22638,0.0764 -0.332,0.12989 -0.0986,0.0499 -0.18476,0.11926 -0.27918,0.17621 a 2.76139,2.76139 0 0 0 -0.82538,0.64032 c -0.0789,0.0776 -0.16784,0.1441 -0.241,0.22747 a 4.4832,4.4832 0 0 0 -0.36029,0.50037 c -0.0445,0.0676 -0.1,0.1264 -0.14087,0.19659 -0.0644,0.11054 -0.10681,0.23468 -0.16181,0.35138 a 4.36968,4.36968 0 0 0 -0.20172,0.44526 c -0.0296,0.0865 -0.0405,0.18151 -0.0649,0.27063 a 4.427,4.427 0 0 0 -0.13727,0.6 4.48025,4.48025 0 0 0 -0.0303,0.87262 c -0.0374,3.79474 1.34875,6.10327 5.03216,6.00922 a 5.433,5.433 0 0 0 0.57978,-0.001 c 0.063,-0.003 0.12433,-0.0128 0.1867,-0.0183 0.11975,-0.0106 0.23957,-0.0204 0.35706,-0.0387 0.065,-0.0102 0.12823,-0.0261 0.1925,-0.0386 0.11048,-0.0214 0.2212,-0.0417 0.32923,-0.0698 0.0771,-0.0201 0.15179,-0.0463 0.22754,-0.0696 0.091,-0.0281 0.18286,-0.0541 0.27179,-0.0868 0.0878,-0.0324 0.17236,-0.0709 0.25793,-0.1076 0.0735,-0.0315 0.14813,-0.0605 0.21991,-0.0952 0.091,-0.0439 0.17835,-0.094 0.26648,-0.14288 0.0629,-0.0349 0.12708,-0.0672 0.18835,-0.10443 0.0872,-0.053 0.17029,-0.11188 0.25422,-0.16962 0.0585,-0.0403 0.11847,-0.0783 0.17529,-0.12079 0.0779,-0.0584 0.15161,-0.122 0.22632,-0.18444 0.0582,-0.0487 0.118,-0.0955 0.17413,-0.14661 0.0665,-0.0605 0.1283,-0.12561 0.19165,-0.18933 0.0588,-0.0592 0.11914,-0.11676 0.17523,-0.17865 0.0556,-0.0614 0.10669,-0.127 0.15949,-0.191 0.0574,-0.0696 0.11621,-0.13776 0.17016,-0.21027 0.0466,-0.0627 0.0886,-0.129 0.13251,-0.19385 0.0532,-0.0783 0.10761,-0.15545 0.15668,-0.23669 0.0407,-0.0673 0.0762,-0.13806 0.114,-0.20727 0.045,-0.0825 0.0915,-0.16382 0.13226,-0.249 0.037,-0.0773 0.0682,-0.15771 0.10157,-0.23706 0.0338,-0.0804 0.0698,-0.15942 0.0998,-0.24182 0.0342,-0.0942 0.0619,-0.19165 0.0909,-0.28833 0.0213,-0.0707 0.0455,-0.13995 0.064,-0.21191 0.029,-0.11335 0.0503,-0.22968 0.072,-0.34589 0.011,-0.0589 0.0255,-0.11645 0.0346,-0.17609 0.0187,-0.12249 0.0287,-0.248 0.0391,-0.37329 0.005,-0.0575 0.0134,-0.11407 0.0162,-0.17218 0.005,-0.0985 0.001,-0.19519 0.001,-0.29266 -3.1e-4,-0.0892 0.003,-0.17908 -0.002,-0.26733 -0.004,-0.0671 -0.0136,-0.13243 -0.0195,-0.1989 z"
         id="path1251"
         style="fill:#6f6f0c;fill-opacity:1" />
      <path
         class="cls-2"
         d="m 37.60131,107.91974 c -0.0491,0.0812 -0.10352,0.15839 -0.15668,0.23669"
         id="path1253"
         style="fill:none;stroke:#000000;stroke-width:0;stroke-linecap:round;stroke-linejoin:round" />
      <path
         class="cls-2"
         d="m 37.31212,108.35028 c -0.0539,0.0725 -0.11273,0.14069 -0.17016,0.21027"
         id="path1255"
         style="fill:none;stroke:#000000;stroke-width:0;stroke-linecap:round;stroke-linejoin:round" />
      <path
         class="cls-2"
         d="m 37.84752,107.4635 c -0.0407,0.0851 -0.0873,0.16645 -0.13226,0.249"
         id="path1257"
         style="fill:none;stroke:#000000;stroke-width:0;stroke-linecap:round;stroke-linejoin:round" />
      <path
         class="cls-2"
         d="m 37.84026,102.81232 c 0.0343,0.071 0.0629,0.1449 0.0941,0.21759"
         id="path1259"
         style="fill:none;stroke:#000000;stroke-width:0;stroke-linecap:round;stroke-linejoin:round" />
      <path
         class="cls-2"
         d="m 37.3023,101.92758 c 0.0425,0.0569 0.0807,0.117 0.121,0.17548"
         id="path1261"
         style="fill:none;stroke:#000000;stroke-width:0;stroke-linecap:round;stroke-linejoin:round" />
      <path
         class="cls-2"
         d="m 36.21514,109.45058 c -0.0568,0.0425 -0.11682,0.0805 -0.17529,0.12079"
         id="path1263"
         style="fill:none;stroke:#000000;stroke-width:0;stroke-linecap:round;stroke-linejoin:round" />
      <path
         class="cls-2"
         d="m 35.78563,109.74097 c -0.0613,0.0372 -0.12548,0.0696 -0.18835,0.10443"
         id="path1265"
         style="fill:none;stroke:#000000;stroke-width:0;stroke-linecap:round;stroke-linejoin:round" />
      <path
         class="cls-2"
         d="m 38.04888,106.98458 c -0.03,0.0824 -0.066,0.16144 -0.0998,0.24182"
         id="path1267"
         style="fill:none;stroke:#000000;stroke-width:0;stroke-linecap:round;stroke-linejoin:round" />
      <path
         class="cls-2"
         d="m 37.59282,102.35724 c 0.0371,0.0609 0.0691,0.12463 0.10376,0.18707"
         id="path1269"
         style="fill:none;stroke:#000000;stroke-width:0;stroke-linecap:round;stroke-linejoin:round" />
      <path
         class="cls-2"
         d="m 36.98247,108.75158 c -0.0561,0.0619 -0.11639,0.11944 -0.17523,0.17865"
         id="path1271"
         style="fill:none;stroke:#000000;stroke-width:0;stroke-linecap:round;stroke-linejoin:round" />
      <path
         class="cls-2"
         d="m 38.36669,105.12427 c -3.1e-4,-0.0892 0.003,-0.17908 -0.002,-0.26733"
         id="path1273"
         style="fill:none;stroke:#000000;stroke-width:0;stroke-linecap:round;stroke-linejoin:round" />
      <path
         class="cls-2"
         d="m 38.30785,104.31195 c 0.0178,0.11389 0.027,0.23011 0.0375,0.34607"
         id="path1275"
         style="fill:none;stroke:#000000;stroke-width:0;stroke-linecap:round;stroke-linejoin:round" />
      <path
         d="m 27.6762,104.5047 a 4.48025,4.48025 0 0 1 0.0303,-0.87262 c -10e-4,0.008 -0.005,0.0161 -0.006,0.0245 a 4.46492,4.46492 0 0 0 -0.0248,0.84808 c -0.0374,3.79474 1.34869,6.10333 5.03216,6.00922 h 1.4e-4 c -3.68343,0.094 -5.06954,-2.21448 -5.03218,-6.00922 z"
         id="path1277" />
      <path
         d="m 32.70838,110.51392 a 5.3574,5.3574 0 0 0 0.57978,-0.001 5.433,5.433 0 0 1 -0.57978,0.001 z"
         id="path1279" />
      <path
         class="cls-2"
         d="m 38.04296,103.29022 c 0.0322,0.0875 0.0577,0.17786 0.0854,0.26734"
         id="path1281"
         style="fill:none;stroke:#000000;stroke-width:0;stroke-linecap:round;stroke-linejoin:round" />
      <path
         d="m 38.36565,105.43451 c 3.1e-4,-0.006 -2.4e-4,-0.0117 6e-5,-0.0176 -0.003,0.0581 -0.0115,0.11463 -0.0162,0.17218 0.004,-0.0519 0.0134,-0.10223 0.0162,-0.1546 z"
         id="path1283" />
      <path
         class="cls-2"
         d="m 38.20379,106.48438 c -0.0184,0.072 -0.0427,0.14123 -0.064,0.21191"
         id="path1285"
         style="fill:none;stroke:#000000;stroke-width:0;stroke-linecap:round;stroke-linejoin:round" />
      <path
         class="cls-2"
         d="m 38.31038,105.9624 c -0.009,0.0596 -0.0236,0.11719 -0.0346,0.17609"
         id="path1287"
         style="fill:none;stroke:#000000;stroke-width:0;stroke-linecap:round;stroke-linejoin:round" />
      <path
         class="cls-2"
         d="m 38.19951,103.78998 c 0.0275,0.10541 0.047,0.21356 0.0681,0.32123"
         id="path1289"
         style="fill:none;stroke:#000000;stroke-width:0;stroke-linecap:round;stroke-linejoin:round" />
      <path
         class="cls-2"
         d="m 36.61559,109.11951 c -0.0561,0.0511 -0.11591,0.0979 -0.17413,0.14661"
         id="path1291"
         style="fill:none;stroke:#000000;stroke-width:0;stroke-linecap:round;stroke-linejoin:round" />
      <path
         class="cls-2"
         d="m 29.83977,100.40003 c 0.0944,-0.0569 0.18061,-0.12629 0.27918,-0.17621"
         id="path1293"
         style="fill:none;stroke:#000000;stroke-width:0;stroke-linecap:round;stroke-linejoin:round" />
      <path
         class="cls-2"
         d="m 31.19494,99.86158 a 4.38634,4.38634 0 0 1 0.62152,-0.10424"
         id="path1295"
         style="fill:none;stroke:#000000;stroke-width:0;stroke-linecap:round;stroke-linejoin:round" />
      <path
         class="cls-2"
         d="m 35.77105,100.54126 c 0.0823,0.0497 0.16052,0.10486 0.23987,0.15875"
         id="path1297"
         style="fill:none;stroke:#000000;stroke-width:0;stroke-linecap:round;stroke-linejoin:round" />
      <path
         class="cls-2"
         d="m 36.20147,100.83032 c 0.0732,0.0545 0.14221,0.11377 0.21246,0.17182"
         id="path1299"
         style="fill:none;stroke:#000000;stroke-width:0;stroke-linecap:round;stroke-linejoin:round" />
      <path
         class="cls-2"
         d="m 30.45098,100.09393 a 4.40233,4.40233 0 0 1 0.48419,-0.186"
         id="path1301"
         style="fill:none;stroke:#000000;stroke-width:0;stroke-linecap:round;stroke-linejoin:round" />
      <path
         d="m 33.28624,99.7771 c -0.006,-3e-4 -0.0119,3.7e-4 -0.0179,6e-5 0.0618,0.003 0.12213,0.0121 0.18353,0.0173 -0.0556,-0.005 -0.10951,-0.0143 -0.16565,-0.0173 z"
         id="path1303" />
      <path
         class="cls-2"
         d="m 34.3352,99.93878 c 0.0745,0.019 0.14624,0.0441 0.21942,0.0663"
         id="path1305"
         style="fill:none;stroke:#000000;stroke-width:0;stroke-linecap:round;stroke-linejoin:round" />
      <path
         class="cls-2"
         d="m 34.83556,100.09363 c 0.0845,0.0307 0.16553,0.0676 0.24793,0.10236"
         id="path1307"
         style="fill:none;stroke:#000000;stroke-width:0;stroke-linecap:round;stroke-linejoin:round" />
      <path
         class="cls-2"
         d="m 35.31438,100.29486 c 0.0868,0.0415 0.1698,0.089 0.25385,0.13489"
         id="path1309"
         style="fill:none;stroke:#000000;stroke-width:0;stroke-linecap:round;stroke-linejoin:round" />
      <path
         class="cls-2"
         d="m 33.81304,99.83222 c 0.0628,0.01 0.12353,0.0248 0.18555,0.0365"
         id="path1311"
         style="fill:none;stroke:#000000;stroke-width:0;stroke-linecap:round;stroke-linejoin:round" />
      <path
         class="cls-2"
         d="m 35.3308,109.98828 c -0.0718,0.0347 -0.14642,0.0637 -0.21991,0.0952"
         id="path1313"
         style="fill:none;stroke:#000000;stroke-width:0;stroke-linecap:round;stroke-linejoin:round" />
      <path
         class="cls-2"
         d="m 34.35363,110.34747 c -0.108,0.0281 -0.21875,0.0484 -0.32923,0.0698"
         id="path1315"
         style="fill:none;stroke:#000000;stroke-width:0;stroke-linecap:round;stroke-linejoin:round" />
      <path
         class="cls-2"
         d="m 34.85296,110.19104 c -0.0889,0.0327 -0.18079,0.0587 -0.27179,0.0868"
         id="path1317"
         style="fill:none;stroke:#000000;stroke-width:0;stroke-linecap:round;stroke-linejoin:round" />
      <path
         class="cls-2"
         d="m 29.01438,101.04035 a 4.48232,4.48232 0 0 1 0.37909,-0.35718"
         id="path1319"
         style="fill:none;stroke:#000000;stroke-width:0;stroke-linecap:round;stroke-linejoin:round" />
      <path
         class="cls-2"
         d="m 36.97138,101.52728 c 0.0511,0.0561 0.0978,0.11579 0.14649,0.174"
         id="path1321"
         style="fill:none;stroke:#000000;stroke-width:0;stroke-linecap:round;stroke-linejoin:round" />
      <path
         class="cls-2"
         d="m 27.8438,103.03205 c 0.0244,-0.0891 0.0353,-0.18409 0.0649,-0.27063"
         id="path1323"
         style="fill:none;stroke:#000000;stroke-width:0;stroke-linecap:round;stroke-linejoin:round" />
      <path
         class="cls-2"
         d="m 36.60326,101.16028 c 0.062,0.0562 0.11951,0.11639 0.17871,0.17529"
         id="path1325"
         style="fill:none;stroke:#000000;stroke-width:0;stroke-linecap:round;stroke-linejoin:round" />
      <path
         class="cls-2"
         d="m 28.11038,102.31616 c 0.055,-0.1167 0.0974,-0.24084 0.16181,-0.35138"
         id="path1327"
         style="fill:none;stroke:#000000;stroke-width:0;stroke-linecap:round;stroke-linejoin:round" />
      <path
         class="cls-2"
         d="m 33.8319,110.45587 c -0.11749,0.0183 -0.23731,0.0281 -0.35706,0.0387"
         id="path1329"
         style="fill:#6f6f0c;stroke:#000000;stroke-width:0;stroke-linecap:round;stroke-linejoin:round;fill-opacity:1" />
      <path
         class="cls-2"
         d="m 28.41308,101.76819 a 4.4832,4.4832 0 0 1 0.36029,-0.50037"
         id="path1331"
         style="fill:none;stroke:#000000;stroke-width:0;stroke-linecap:round;stroke-linejoin:round" />
      <path
         d="m -71.38331,118.66413 a 7.143,7.143 0 0 0 0.0924,1.16168 4.509,4.509 0 0 0 0.59607,1.65063 c 0.877,1.41248 2.60571,2.1203 5.26446,2.2121 a 4.95972,4.95972 0 0 0 0.54566,0.0235 4.06042,4.06042 0 0 0 0.98895,-0.13117 3.50544,3.50544 0 0 0 1.23053,-0.59924 3.8743,3.8743 0 0 0 0.6546,-0.6344 4.77817,4.77817 0 0 0 0.52417,-0.79559 6.94071,6.94071 0 0 0 0.64319,-1.88587 c 0.0122,-0.0613 0.0241,-0.12274 0.0351,-0.18493 a 9.96976,9.96976 0 0 0 0.12507,-0.9975 c 10e-4,-0.0192 0.004,-0.0375 0.006,-0.0567 a 4.84971,4.84971 0 0 0 -0.0284,-0.79395 4.78269,4.78269 0 0 0 -0.0829,-0.50873 c -0.0312,-0.15033 -0.0625,-0.30041 -0.1073,-0.44555 a 4.80075,4.80075 0 0 0 -0.17181,-0.45362 c -0.0611,-0.1444 -0.12232,-0.28863 -0.1966,-0.42572 -0.0741,-0.13684 -0.15912,-0.2644 -0.2456,-0.39312 -0.088,-0.13074 -0.17621,-0.26105 -0.27613,-0.38257 -0.0989,-0.1203 -0.20727,-0.22955 -0.3172,-0.33985 -0.10919,-0.10968 -0.21868,-0.21868 -0.338,-0.31768 -0.12146,-0.10077 -0.251,-0.189 -0.38214,-0.2779 -0.12769,-0.0865 -0.25549,-0.17224 -0.39166,-0.24664 -0.13721,-0.075 -0.28046,-0.13654 -0.4256,-0.19836 a 4.80566,4.80566 0 0 0 -0.45239,-0.17316 c -0.14533,-0.0453 -0.29474,-0.0772 -0.4458,-0.10907 a 5.209,5.209 0 0 0 -1.30194,-0.11591 4.30025,4.30025 0 0 0 -0.54749,-0.006 c -0.11377,0.005 -0.22742,0.0104 -0.34,0.0204 a 5.00685,5.00685 0 0 0 -0.54406,0.0892 c -0.15479,0.0309 -0.31128,0.0567 -0.46106,0.10144 a 5.02919,5.02919 0 0 0 -0.47736,0.18133 c -0.15173,0.0626 -0.30554,0.12061 -0.44989,0.197 -0.14325,0.0759 -0.27453,0.16761 -0.40954,0.25641 -0.13941,0.0916 -0.28119,0.17969 -0.41083,0.28431 -0.12671,0.10217 -0.23871,0.2185 -0.35523,0.33221 -0.1167,0.114 -0.23639,0.22473 -0.342,0.34961 -0.10711,0.12665 -0.19732,0.26532 -0.29205,0.4024 -0.092,0.13312 -0.18738,0.26349 -0.26678,0.40564 -0.0792,0.14191 -0.14032,0.29309 -0.20612,0.44324 a 5.03553,5.03553 0 0 0 -0.19287,0.47546 c -0.0477,0.148 -0.0768,0.30262 -0.11121,0.45655 a 5.09108,5.09108 0 0 0 -0.10174,0.54376 c -0.0125,0.1123 -0.0206,0.22577 -0.028,0.33942 a 5.13475,5.13475 0 0 0 -0.006,0.54486 z"
         id="path1333"
         style="fill:#6f6f0c;fill-opacity:1" />
      <path
         class="cls-2"
         d="m -61.26462,115.79907 c -0.0741,-0.13684 -0.15912,-0.2644 -0.2456,-0.39312"
         id="path1335"
         style="fill:none;stroke:#000000;stroke-width:0;stroke-linecap:round;stroke-linejoin:round" />
      <path
         class="cls-2"
         d="m -62.10353,114.68358 c 0.10993,0.1103 0.21833,0.21955 0.3172,0.33985"
         id="path1337"
         style="fill:none;stroke:#000000;stroke-width:0;stroke-linecap:round;stroke-linejoin:round" />
      <path
         class="cls-2"
         d="m -63.042,123.23126 a 3.52451,3.52451 0 0 1 -0.85376,0.34961"
         id="path1339"
         style="fill:none;stroke:#000000;stroke-width:0;stroke-linecap:round;stroke-linejoin:round" />
      <path
         class="cls-2"
         d="m -60.84327,119.66577 c 0.0122,-0.0613 0.0241,-0.12274 0.0351,-0.18493"
         id="path1341"
         style="fill:none;stroke:#000000;stroke-width:0;stroke-linecap:round;stroke-linejoin:round" />
      <path
         class="cls-2"
         d="m -62.44154,114.36585 c -0.12146,-0.10077 -0.251,-0.189 -0.38214,-0.2779"
         id="path1343"
         style="fill:none;stroke:#000000;stroke-width:0;stroke-linecap:round;stroke-linejoin:round" />
      <path
         class="cls-2"
         d="m -61.068,116.22479 a 4.80075,4.80075 0 0 1 0.17181,0.45362"
         id="path1345"
         style="fill:none;stroke:#000000;stroke-width:0;stroke-linecap:round;stroke-linejoin:round" />
      <path
         class="cls-2"
         d="m -60.78889,117.12396 a 4.78269,4.78269 0 0 1 0.0829,0.50873"
         id="path1347"
         style="fill:none;stroke:#000000;stroke-width:0;stroke-linecap:round;stroke-linejoin:round" />
      <path
         d="m -60.6775,118.4267 v -6e-5 c -10e-4,0.0192 -0.004,0.0375 -0.006,0.0567 0.001,-0.0191 0.004,-0.0375 0.006,-0.0566 z"
         id="path1349" />
      <path
         d="m -63.89576,123.58087 a 4.06042,4.06042 0 0 1 -0.98895,0.13117 4.06,4.06 0 0 0 0.98895,-0.13117 z"
         id="path1351" />
      <path
         class="cls-2"
         d="m -70.47053,115.45294 c 0.0947,-0.13708 0.18494,-0.27575 0.29205,-0.4024"
         id="path1353"
         style="fill:none;stroke:#000000;stroke-width:0;stroke-linecap:round;stroke-linejoin:round" />
      <path
         class="cls-2"
         d="m -70.73731,115.85858 c -0.0792,0.14191 -0.14032,0.29309 -0.20612,0.44324"
         id="path1355"
         style="fill:none;stroke:#000000;stroke-width:0;stroke-linecap:round;stroke-linejoin:round" />
      <path
         class="cls-2"
         d="m -71.1363,116.77728 c -0.0477,0.148 -0.0768,0.30262 -0.11121,0.45655"
         id="path1357"
         style="fill:none;stroke:#000000;stroke-width:0;stroke-linecap:round;stroke-linejoin:round" />
      <path
         class="cls-2"
         d="m -69.8365,114.70093 c 0.11652,-0.11371 0.22852,-0.23 0.35523,-0.33221"
         id="path1359"
         style="fill:none;stroke:#000000;stroke-width:0;stroke-linecap:round;stroke-linejoin:round" />
      <path
         d="m -71.37495,117.9148 c -0.006,0.0673 7.3e-4,0.13482 -0.002,0.20221 0.007,-0.11365 0.0154,-0.22712 0.028,-0.33942 -0.005,0.047 -0.0217,0.0898 -0.0257,0.13721 z"
         id="path1361" />
      <path
         d="m -71.38331,118.66187 a 5.13475,5.13475 0 0 1 0.006,-0.54486 4.30856,4.30856 0 0 0 -0.006,0.54486 z"
         id="path1363" />
      <path
         d="m -65.22822,113.24591 a 4.87812,4.87812 0 0 0 -0.61285,-10e-4 4.85377,4.85377 0 0 1 0.79394,0.0312 c -0.0617,-0.006 -0.11865,-0.0261 -0.18109,-0.0301 z"
         id="path1365" />
      <path
         class="cls-2"
         d="m -64.09333,113.46979 c -0.14533,-0.0453 -0.29474,-0.0772 -0.4458,-0.10907"
         id="path1367"
         style="fill:none;stroke:#000000;stroke-width:0;stroke-linecap:round;stroke-linejoin:round" />
      <path
         class="cls-2"
         d="m -63.64094,113.64295 c 0.14514,0.0618 0.28839,0.12341 0.4256,0.19836"
         id="path1369"
         style="fill:none;stroke:#000000;stroke-width:0;stroke-linecap:round;stroke-linejoin:round" />
      <path
         class="cls-2"
         d="m -67.27262,113.34821 a 5.00685,5.00685 0 0 1 0.54406,-0.0892"
         id="path1371"
         style="fill:none;stroke:#000000;stroke-width:0;stroke-linecap:round;stroke-linejoin:round" />
      <path
         class="cls-2"
         d="m -68.21101,113.63098 a 5.02919,5.02919 0 0 1 0.47736,-0.18133"
         id="path1373"
         style="fill:none;stroke:#000000;stroke-width:0;stroke-linecap:round;stroke-linejoin:round" />
      <path
         class="cls-2"
         d="m -69.07044,114.08441 c 0.135,-0.0888 0.26629,-0.18054 0.40954,-0.25641"
         id="path1375"
         style="fill:#6f6f0c;stroke:#000000;stroke-width:0;stroke-linecap:round;stroke-linejoin:round;fill-opacity:1" />
    </g>
  </g>
  <g
     transform="matrix(0.95879878,0,0,0.95879878,-871.34292,-378.35028)"
     id="g893" />
</svg>
