<?xml version="1.0" encoding="UTF-8"?>
<svg width="40" height="40" version="1.1" viewBox="0 0 40 40" xmlns="http://www.w3.org/2000/svg" xmlns:cc="http://creativecommons.org/ns#" xmlns:dc="http://purl.org/dc/elements/1.1/" xmlns:rdf="http://www.w3.org/1999/02/22-rdf-syntax-ns#"><metadata><rdf:RDF><cc:Work rdf:about=""><dc:format>image/svg+xml</dc:format><dc:type rdf:resource="http://purl.org/dc/dcmitype/StillImage"/><dc:title/></cc:Work></rdf:RDF></metadata><defs><mask id="c" fill="#ffffff"><path d="m0 0h313.3v159.86h-313.3z" fill="#fff" fill-rule="evenodd"/></mask></defs><mask id="a" fill="#ffffff"><path d="m0 0h313.3v159.86h-313.3z" fill="#fff" fill-rule="evenodd"/></mask><mask id="b" fill="#ffffff"><path d="m0 0h313.3v159.86h-313.3z" fill="#fff" fill-rule="evenodd"/></mask><g transform="matrix(.18989 0 0 .18989 50.031 3.5753)"><g transform="matrix(4.6315,0,0,4.6315,-663,-184.77)"><g transform="translate(96.564,87.836)" fill="#bcbcbc" stroke-width="3.24"><polygon class="st0" transform="matrix(.68312 0 0 .66473 -26.567 -120.67)" points="32.9 118.6 55.7 105.5 78.4 118.6 78.4 144.9 55.7 158 32.9 144.9" fill="#fff" stroke="#6d4013" stroke-width="2.3929" style="paint-order:normal"/></g><g transform="matrix(.15831 0 0 .15831 83.649 18.463)" fill="#005e20" fill-rule="evenodd"><g transform="matrix(1.0777,0,0,-1.0777,-10.799,451.79)"><g transform="matrix(.94489 0 0 .94489 8.6963 2.7018)" fill="#6d4013" mask="url(#c)"><path transform="rotate(35,137.93,151.55)" d="m203.46 95.688c6.9363 0 12.559-14.809 12.559-33.077s-5.623-33.077-12.559-33.077-12.559 14.809-12.559 33.077 5.623 33.077 12.559 33.077z"/><path transform="matrix(-.81915 .57358 .57358 .81915 58.085 47.705)" d="m30.142 95.688c6.9363 0 12.559-14.809 12.559-33.077s-5.623-33.077-12.559-33.077c-6.9363 0-12.559 14.809-12.559 33.077s5.623 33.077 12.559 33.077z"/><path d="m153.24 119.95c-6.9363 0-12.559-14.809-12.559-33.077s5.623-33.077 12.559-33.077c6.9363 0 12.559 14.809 12.559 33.077s-5.623 33.077-12.559 33.077z"/></g><path transform="matrix(.94489 0 0 .94489 8.6963 2.7018)" d="m251.47 173.1c-20.23-33.61-56.89-56.068-98.756-56.068-40.721 0-76.516 21.246-97.059 53.335" fill="none" mask="url(#c)" stroke="#6d4013" stroke-width="19.999"/></g></g></g></g><path d="m30.281 19.203c0.8845-1.532 0.83882-1.4483 1.5702-2.7151 0.25088-0.44884 0.47527-0.84489 0.713-1.2541-0.79226-1.373-1.5974-2.7591-2.4029-4.1453h-3.1023c-0.52803-0.89771-1.0694-1.7954-1.6106-2.7195h-3.0891c-0.52804-0.8845-1.0429-1.7822-1.6239-2.7459-0.01311 0-0.02628 0-0.0394-0.013205-0.27736 0.44885-0.5149 0.8317-0.77891 1.2541-0.26401-0.43565-0.50174-0.81849-0.76576-1.2806-0.27724 0.46205-0.50165 0.8449-0.77888 1.2937-0.25083-0.42245-0.48847-0.80529-0.76569-1.2541h-0.01321c-0.63368 0.8845-1.0562 1.835-1.6502 2.7195h-3.076c-0.52807 0.91089-1.0693 1.8086-1.6106 2.7328h-3.1024c-0.81849 1.4125-1.6238 2.7988-2.4159 4.1717 0.22444 0.40924 0.44887 0.80528 0.69968 1.2541l1.6021 2.7572c1.9565 0 2.3814-0.03957 4.644-0.03957 1.2874 2.2299 1.6667 2.7784 3.0583 5.1889 4.0214 0 4.9107 0.02545 7.0065 0.02545l2.7424-5.23h4.7894z" fill="#6d4013" stroke-width=".020854"/><g transform="matrix(.90062 0 0 .90062 4.1781 2.1764)" fill="#fff" stroke-width=".023155"><path d="m22.752 11.522c0.57171 0.99677 1.1434 1.9789 1.7151 2.9903-0.58653 0.99675-1.158 1.9935-1.7445 3.0049h-3.4446c0.30773 0.54234 0.5863 1.0261 0.86485 1.5245-0.30774 0.51303-0.6157 0.99675-0.90885 1.4951h-5.1597c-0.29317-0.48372-0.601-0.96743-0.92348-1.4951 0.27851-0.48374 0.54237-0.96746 0.85017-1.5098h-3.43c-0.58632-1.0114-1.158-1.9935-1.7443-3.0049 0.57166-0.99677 1.1433-1.9935 1.7297-2.9903h5.2477c0.26386 0.42509 0.52769 0.86483 0.85027 1.3925 0.30774-0.51305 0.55688-0.93814 0.83545-1.3925 1.7149-0.01466 3.43-0.01466 5.2623-0.01466z"/><path d="m3.6231 14.498c0.58634-1.0114 1.158-1.9935 1.7297-2.9756h1.7736c-0.58632 1.0114-1.1433 1.9789-1.715 2.9756 0.557 0.96743 1.1287 1.9495 1.715 2.9903h-1.759c-0.57168-0.96746-1.1433-1.9495-1.7443-2.9903z"/><path d="m27.941 17.503h-1.7737c0.5863-1.0114 1.1432-1.9789 1.7149-2.9903-0.55688-0.96746-1.114-1.9495-1.7149-2.9756h1.7589c0.55712 0.96746 1.1288 1.9495 1.7297 2.961-0.55689 0.99675-1.1434 1.9935-1.7149 3.0049z"/><path d="m14.016 23.498c-0.26383-0.46906-0.52769-0.92346-0.77689-1.3486 0.02932-0.08797 0.04399-0.11728 0.05863-0.13194 0.01467-0.01467 0.04399-0.04399 0.05865-0.04399 2.0668-0.01467 4.1336-0.02932 6.2005-0.02932 0.14657 0 0.27856 0.01467 0.48372 0.02932-0.14658 0.601-0.5423 0.99677-0.77687 1.5098-1.7151 0.01467-3.4448 0.01467-5.2477 0.01467z"/></g><g transform="matrix(.90062 0 0 .90062 4.1781 2.1764)" fill="#6d4013" stroke-width=".023155"><path d="m18.399 13.032h3.4154c0.27833 0.48372 0.57147 0.98212 0.87944 1.4805-0.29315 0.49837-0.57171 0.98209-0.86485 1.4658h-1.6711c-0.30774-0.48374-0.6157-0.99677-0.93803-1.5245h-1.6565c0.29338-0.4984 0.55712-0.93814 0.83568-1.4219z"/><path d="m14.895 16.037c-0.55703-0.01467-1.114-0.02932-1.6857-0.04399-0.32248-0.51306-0.63029-1.0114-0.93812-1.5245h-1.6417c0.29315-0.52771 0.55701-0.96746 0.8062-1.4219h3.4447c0.27849 0.4544 0.55701 0.93812 0.86483 1.4512-0.29317 0.52769-0.58634 1.0407-0.87949 1.5684z"/><path d="m18.399 16.081c0.24915 0.43975 0.5129 0.87949 0.79145 1.3779h-1.6709c-0.23456-0.41045-0.49854-0.86485-0.80627-1.3779h1.6857z"/><path d="m14.881 16.066h1.6417c-0.20523 0.557-0.48372 0.99675-0.79154 1.4072h-1.6124c0.27849-0.51306 0.54235-0.96746 0.79154-1.4365z"/></g></svg>
