<?xml version="1.0" encoding="UTF-8" standalone="no"?>
<svg
   height="40"
   viewBox="0 0 60 40"
   width="60"
   version="1.1"
   id="svg36"
   sodipodi:docname="chaos-cerberus.svg"
   inkscape:version="1.1.2 (0a00cf5339, 2022-02-04)"
   xmlns:inkscape="http://www.inkscape.org/namespaces/inkscape"
   xmlns:sodipodi="http://sodipodi.sourceforge.net/DTD/sodipodi-0.dtd"
   xmlns="http://www.w3.org/2000/svg"
   xmlns:svg="http://www.w3.org/2000/svg"
   xmlns:rdf="http://www.w3.org/1999/02/22-rdf-syntax-ns#"
   xmlns:cc="http://creativecommons.org/ns#"
   xmlns:dc="http://purl.org/dc/elements/1.1/">
  <sodipodi:namedview
     pagecolor="#ffffff"
     bordercolor="#666666"
     borderopacity="1"
     objecttolerance="10"
     gridtolerance="10"
     guidetolerance="10"
     inkscape:pageopacity="0"
     inkscape:pageshadow="2"
     inkscape:window-width="2048"
     inkscape:window-height="1083"
     id="namedview81"
     showgrid="false"
     showguides="false"
     inkscape:zoom="4"
     inkscape:cx="-43.875"
     inkscape:cy="19"
     inkscape:window-x="0"
     inkscape:window-y="0"
     inkscape:window-maximized="1"
     inkscape:current-layer="g1042"
     inkscape:document-rotation="0"
     inkscape:pagecheckerboard="0" />
  <metadata
     id="metadata42">
    <rdf:RDF>
      <cc:Work
         rdf:about="">
        <dc:format>image/svg+xml</dc:format>
        <dc:type
           rdf:resource="http://purl.org/dc/dcmitype/StillImage" />
      </cc:Work>
    </rdf:RDF>
  </metadata>
  <defs
     id="defs40">
    <mask
       id="a-1"
       fill="#ffffff">
      <path
         d="M 0,0 H 313.30315 V 159.86486 H 0 Z"
         fill="#ffffff"
         fill-rule="evenodd"
         id="path2-9" />
    </mask>
    <clipPath
       clipPathUnits="userSpaceOnUse"
       id="clipPath3444">
      <path
         d="M 11.52,162 C 11.52,81.677 135.307,16.561 288,16.561 v 0 c 152.693,0 276.481,65.116 276.481,145.439 v 0 c 0,80.322 -123.788,145.439 -276.481,145.439 v 0 C 135.307,307.439 11.52,242.322 11.52,162"
         id="path3446" />
    </clipPath>
    <radialGradient
       cx="0"
       cy="0"
       fx="0"
       fy="0"
       gradientTransform="matrix(363.05789,0,0,-363.05789,177.52002,256.30713)"
       gradientUnits="userSpaceOnUse"
       id="radialGradient3452"
       r="1"
       spreadMethod="pad">
      <stop
         id="stop3454"
         offset="0"
         style="stop-opacity:1;stop-color:#aeb2d5" />
      <stop
         id="stop3456"
         offset="0.3"
         style="stop-opacity:1;stop-color:#aeb2d5" />
      <stop
         id="stop3458"
         offset="0.75"
         style="stop-opacity:1;stop-color:#484c89" />
      <stop
         id="stop3460"
         offset="1"
         style="stop-opacity:1;stop-color:#484c89" />
    </radialGradient>
    <clipPath
       clipPathUnits="userSpaceOnUse"
       id="clipPath3468">
      <path
         d="M 0,324 H 576 V 0 H 0 Z"
         id="path3470" />
    </clipPath>
    <clipPath
       clipPathUnits="userSpaceOnUse"
       id="clipPath3480">
      <path
         d="M 0,324 H 576 V 0 H 0 Z"
         id="path3482" />
    </clipPath>
  </defs>
  <mask
     id="a"
     fill="#ffffff">
    <path
       d="M 0,0 H 313.30315 V 159.86486 H 0 Z"
       fill="#ffffff"
       fill-rule="evenodd"
       id="path2" />
  </mask>
  <mask
     id="b"
     fill="#ffffff">
    <path
       d="M 0,0 H 313.30315 V 159.86486 H 0 Z"
       fill="#ffffff"
       fill-rule="evenodd"
       id="path5" />
  </mask>
  <g
     id="g1042"
     style="display:inline">
    <g
       id="g994"
       transform="matrix(0.08667043,0,0,0.08667043,54.837532,-43.975856)"
       style="display:inline">
      <path
         id="path990"
         style="fill:#000e44;fill-opacity:1;fill-rule:evenodd;stroke:none;stroke-width:3.14747"
         d="m 56.695351,510.77372 -107.53235,84.40183 -79.398391,-66.27467 61.189259,82.84335 -54.627399,74.39502 72.836531,-52.98696 102.528945,91.04567 -81.03891,-107.53235 z" />
    </g>
    <circle
       style="opacity:1;fill:#eaed8c;fill-opacity:1;stroke:none;stroke-width:0.308165;stroke-miterlimit:2.5;stroke-opacity:1;stop-color:#000000"
       id="path912"
       cx="16.627409"
       cy="16.633268"
       r="16.433828" />
    <g
       fill="none"
       fill-rule="evenodd"
       transform="matrix(0.15069337,0,0,0.15069337,-6.1976669,-20.880758)"
       id="g1008"
       style="fill:#6f6f0c;fill-opacity:1">
      <g
         transform="matrix(0.92863152,0,0,-0.92863152,9.2718211,454.1644)"
         id="g1006"
         style="fill:#6f6f0c;fill-opacity:1">
        <g
           fill="#0f1689"
           mask="url(#a-1)"
           id="g1002"
           style="fill:#6f6f0c;fill-opacity:1"
           transform="matrix(0.94489362,0,0,0.94489362,8.6962507,2.7018401)">
          <path
             d="m 203.46068,95.687543 c 6.93631,0 12.5593,-14.80922 12.5593,-33.077318 0,-18.268097 -5.62299,-33.077317 -12.5593,-33.077317 -6.93631,0 -12.55931,14.80922 -12.55931,33.077317 0,18.268098 5.62299,33.077318 12.55931,33.077318 z"
             transform="rotate(35,137.93117,151.55002)"
             id="path996"
             style="fill:#6f6f0c;fill-opacity:1" />
          <path
             d="m 30.142322,95.687543 c 6.936311,0 12.559301,-14.80922 12.559301,-33.077318 0,-18.268097 -5.62299,-33.077317 -12.559301,-33.077317 -6.93631,0 -12.559301,14.80922 -12.559301,33.077317 0,18.268098 5.622991,33.077318 12.559301,33.077318 z"
             transform="matrix(-0.81915204,0.57357644,0.57357644,0.81915204,58.084611,47.704768)"
             id="path998"
             style="fill:#6f6f0c;fill-opacity:1" />
          <path
             d="m 116.73282,66.275268 c 6.93631,0 12.5593,-14.80922 12.5593,-33.077318 0,-18.268097 -5.62299,-33.07731673 -12.55931,-33.07731673 -6.93631,0 -12.5593,14.80921973 -12.5593,33.07731673 0,18.268098 5.62299,33.077318 12.55931,33.077318 z"
             transform="matrix(-1,0,0,1,272.62852,53.670762)"
             id="path1000"
             style="fill:#6f6f0c;fill-opacity:1" />
        </g>
        <path
           d="m 251.46701,173.09985 c -20.23008,-33.60997 -56.88957,-56.06791 -98.75578,-56.06791 -40.7208,0 -76.515877,21.2459 -97.058696,53.33459"
           mask="url(#a-1)"
           stroke="#0f1689"
           stroke-width="20"
           id="path1004"
           style="stroke:#6f6f0c;stroke-opacity:1;fill:none;fill-opacity:1"
           transform="matrix(0.94489362,0,0,0.94489362,8.6962507,2.7018401)" />
      </g>
    </g>
    <g
       id="g97"
       transform="matrix(0.03936691,0,0,0.03936691,6.8555781,5.1294397)" />
    <g
       id="g99"
       transform="matrix(0.03936691,0,0,0.03936691,6.8555781,5.1294397)" />
    <g
       id="g101"
       transform="matrix(0.03936691,0,0,0.03936691,6.8555781,5.1294397)" />
    <g
       id="g103"
       transform="matrix(0.03936691,0,0,0.03936691,6.8555781,5.1294397)" />
    <g
       id="g105"
       transform="matrix(0.03936691,0,0,0.03936691,6.8555781,5.1294397)" />
    <g
       id="g107"
       transform="matrix(0.03936691,0,0,0.03936691,6.8555781,5.1294397)" />
    <g
       id="g109"
       transform="matrix(0.03936691,0,0,0.03936691,6.8555781,5.1294397)" />
    <g
       id="g111"
       transform="matrix(0.03936691,0,0,0.03936691,6.8555781,5.1294397)" />
    <g
       id="g113"
       transform="matrix(0.03936691,0,0,0.03936691,6.8555781,5.1294397)" />
    <g
       id="g115"
       transform="matrix(0.03936691,0,0,0.03936691,6.8555781,5.1294397)" />
    <g
       id="g117"
       transform="matrix(0.03936691,0,0,0.03936691,6.8555781,5.1294397)" />
    <g
       id="g119"
       transform="matrix(0.03936691,0,0,0.03936691,6.8555781,5.1294397)" />
    <g
       id="g121"
       transform="matrix(0.03936691,0,0,0.03936691,6.8555781,5.1294397)" />
    <g
       id="g123"
       transform="matrix(0.03936691,0,0,0.03936691,6.8555781,5.1294397)" />
    <g
       id="g125"
       transform="matrix(0.03936691,0,0,0.03936691,6.8555781,5.1294397)" />
    <path
       fill="#000000"
       d="m 8.283783,16.003973 c 2.8515,0.251556 4.612697,3.01914 4.612697,3.01914 -0.335455,1.509646 1.25793,2.180567 1.25793,2.180567 1.845118,0.838726 2.348234,-1.174187 2.348234,-1.174187 l 0.503266,-1.090283 -0.838737,0.167805 -0.25155,-1.174185 -0.41936,0.503266 c -1.006381,0.167805 -2.096668,-3.354601 -2.096668,-3.354601 0.838721,-1.174185 2.348218,0.838725 2.348218,0.838725 0.587021,1.090284 1.593402,2.012762 1.593402,2.012762 2.012763,1.425743 2.096668,-1.090284 2.096668,-1.090284 -0.670926,0.587018 -1.425758,-0.335459 -1.425758,-0.335459 -0.503266,-1.00638 -2.432123,-2.348221 -2.432123,-2.348221 0.922493,-0.67092 1.341853,-0.419362 1.341853,-0.419362 l 0.503265,0.503266 0.838721,-0.922478 0.587021,0.503266 0.587021,-0.922478 c 0.67091,0.0839 0.83872,1.761205 0.83872,1.761205 0.503266,-0.167808 1.341837,-1.425743 1.341837,-1.425743 l 0.167811,1.341839 0.922475,-1.425743 c 0.670927,0.167806 1.341836,-2.683681 1.341836,-2.683681 C 24.973038,8.9594643 22.960276,8.8755603 22.960276,8.8755603 21.702346,6.7788975 16.418739,6.1918797 16.418739,6.1918797 17.089649,4.1791189 13.06414,3.9275628 13.06414,3.9275628 L 12.98019,3.0050852 C 12.89624,0.4890588 11.051183,3.9275628 11.051183,3.9275628 L 10.128706,4.2630226 C 10.799616,0.7406166 8.954514,4.3469276 8.954514,4.3469276 7.948133,4.5984855 6.186937,6.611398 6.186937,6.611398 1.187813,10.492369 4.922926,14.071951 8.283738,16.003976 Z"
       id="path2125"
       sodipodi:nodetypes="ccccccccccccccccccccccccccccccccc"
       style="fill:#6f6f0c;fill-opacity:1;stroke:#eaed8c;stroke-width:0.606892;stroke-miterlimit:4;stroke-dasharray:none;stroke-opacity:1" />
    <path
       fill="#000000"
       d="m 11.318253,19.038437 c 2.851483,0.251558 4.612696,3.01914 4.612696,3.01914 -0.334174,1.488381 2.036305,0.139219 2.47668,1.274317 1.845102,0.838725 1.129468,-0.267935 1.129468,-0.267935 l 0.503265,-1.090284 -0.83872,0.167806 -0.25155,-1.174187 -0.419376,0.503266 c -1.006365,0.167807 -2.096652,-3.354601 -2.096652,-3.354601 0.838721,-1.174185 2.348218,0.838728 2.348218,0.838728 0.587021,1.090284 0.812152,0.200259 0.812152,0.200259 2.012746,1.425743 1.815401,0.06597 1.815401,0.06597 -0.67091,0.587018 -0.363241,0.320791 -0.363241,0.320791 -0.503266,-1.00638 -2.432123,-2.348219 -2.432123,-2.348219 0.922476,-0.670922 1.341836,-0.419364 1.341836,-0.419364 l 0.503266,0.503266 0.838736,-0.922478 0.587022,0.503267 0.587004,-0.922477 c 0.670926,0.08391 0.838737,1.761203 0.838737,1.761203 0.503266,-0.167806 1.341836,-1.425743 1.341836,-1.425743 l 0.167811,1.341839 0.922476,-1.425743 c 0.67091,0.167806 1.341835,-2.683681 1.341835,-2.683681 0.922477,-1.509645 -1.090285,-1.593549 -1.090285,-1.593549 C 24.736814,9.813361 19.453208,9.226344 19.453208,9.226344 20.124118,7.2135846 16.098593,6.9620267 16.098593,6.9620267 L 16.014633,6.0395492 C 15.930673,3.5235227 14.08561,6.9620267 14.08561,6.9620267 l -0.922475,0.3354599 c 0.670926,-3.522406 -1.174177,0.083905 -1.174177,0.083905 -1.00638,0.2515561 -2.767593,2.2644694 -2.767593,2.2644694 -4.999107,3.880972 -1.263994,7.460552 2.096818,9.392578 z"
       id="path2087"
       sodipodi:nodetypes="cccccccccccccccccccccccccccccccccc"
       style="fill:#6f6f0c;fill-opacity:1;stroke:#eaed8c;stroke-width:0.606892;stroke-miterlimit:4;stroke-dasharray:none;stroke-opacity:1" />
    <path
       fill="#000000"
       d="m 14.352722,22.072901 c 2.851483,0.251558 4.612696,3.019142 4.612696,3.019142 -0.335472,1.509645 1.25793,2.180564 1.25793,2.180564 1.782602,0.494978 3.441771,-0.282408 5.535718,-2.486684 0.275683,-0.290208 0.503265,-1.090284 0.503265,-1.090284 l -0.83872,0.167806 -0.251566,-1.174185 -0.41936,0.503265 c -1.756382,0.542806 -4.377918,-2.3546 -4.377918,-2.3546 0.286776,-0.190659 0.823778,-0.457492 1.274173,-0.609978 0.922477,-0.670919 1.341836,-0.419363 1.341836,-0.419363 l 0.503266,0.503266 0.838737,-0.922476 0.587004,0.503265 0.587021,-0.922477 c 0.670927,0.08391 0.838721,1.761203 0.838721,1.761203 0.503265,-0.167806 1.341852,-1.425743 1.341852,-1.425743 l 0.167795,1.341841 0.922475,-1.425744 c 0.670927,0.167806 1.341853,-2.68368 1.341853,-2.68368 0.922476,-1.509647 -1.090286,-1.593548 -1.090286,-1.593548 -1.257948,-2.096666 -6.541554,-2.683682 -6.541554,-2.683682 0.670927,-2.01276 -3.354598,-2.264318 -3.354598,-2.264318 l -0.08396,-0.922476 c -0.08395,-2.5160266 -1.929007,0.922476 -1.929007,0.922476 l -0.922476,0.335461 c 0.670927,-3.5224075 -1.174192,0.08391 -1.174192,0.08391 -1.006364,0.251558 -2.767577,2.264468 -2.767577,2.264468 -4.999108,3.880973 -1.264011,7.460554 2.096818,9.392578 z"
       id="path4"
       sodipodi:nodetypes="cccscccccccccccccccccccccccccc"
       style="fill:#6f6f0c;fill-opacity:1;stroke:#eaed8c;stroke-width:0.606892;stroke-miterlimit:4;stroke-dasharray:none;stroke-opacity:1" />
    <path
       style="fill:#eaed8c;fill-opacity:1;stroke:none;stroke-width:0.151723px;stroke-linecap:butt;stroke-linejoin:miter;stroke-opacity:1"
       d="m 21.056155,13.998548 c 0.475098,-1.989426 -2.665082,-1.33295 -3.838458,-1.070402 -1.946281,0.435485 3.493542,2.514711 3.838458,1.070402 z"
       id="path3274"
       sodipodi:nodetypes="sss" />
  </g>
  <g
     transform="matrix(0.95879878,0,0,0.95879878,-871.34292,-378.35028)"
     id="g893" />
</svg>
