<?xml version="1.0" encoding="UTF-8"?>
<svg width="60" height="40" version="1.1" viewBox="0 0 60 40" xmlns="http://www.w3.org/2000/svg" xmlns:cc="http://creativecommons.org/ns#" xmlns:dc="http://purl.org/dc/elements/1.1/" xmlns:rdf="http://www.w3.org/1999/02/22-rdf-syntax-ns#">
 <metadata>
  <rdf:RDF>
   <cc:Work rdf:about="">
    <dc:format>image/svg+xml</dc:format>
    <dc:type rdf:resource="http://purl.org/dc/dcmitype/StillImage"/>
   </cc:Work>
  </rdf:RDF>
 </metadata>
 <defs>
  <mask id="a-1" fill="#ffffff">
   <path d="m0 0h313.3v159.86h-313.3z" fill="#fff" fill-rule="evenodd"/>
  </mask>
  <clipPath id="clipPath916">
   <path d="M 0,27.553 H 27.55 V 0 H 0 Z"/>
  </clipPath>
 </defs>
 <mask id="a" fill="#ffffff">
  <path d="m0 0h313.3v159.86h-313.3z" fill="#fff" fill-rule="evenodd"/>
 </mask>
 <mask id="b" fill="#ffffff">
  <path d="m0 0h313.3v159.86h-313.3z" fill="#fff" fill-rule="evenodd"/>
 </mask>
 <g>
  <g transform="matrix(.08667 0 0 .08667 54.838 -43.976)">
   <path d="m56.695 510.77-107.53 84.402-79.398-66.275 61.189 82.843-54.627 74.395 72.837-52.987 102.53 91.046-81.039-107.53z" fill="#000e44" fill-rule="evenodd"/>
  </g>
  <g>
   <circle cx="16.627" cy="16.633" r="16.434" fill="#e09952" stop-color="#000000"/>
   <g transform="matrix(.15069 0 0 .15069 -6.1977 -20.881)" fill="#6f6f0c" fill-rule="evenodd">
    <g transform="matrix(.92863 0 0 -.92863 9.2718 454.16)">
     <g transform="matrix(.94489 0 0 .94489 8.6963 2.7018)" fill="#6d4013" mask="url(#a-1)">
      <path transform="rotate(35 137.93 151.55)" d="m203.46 95.688c6.9363 0 12.559-14.809 12.559-33.077 0-18.268-5.623-33.077-12.559-33.077s-12.559 14.809-12.559 33.077c0 18.268 5.623 33.077 12.559 33.077z"/>
      <path transform="matrix(-.81915 .57358 .57358 .81915 58.085 47.705)" d="m30.142 95.688c6.9363 0 12.559-14.809 12.559-33.077 0-18.268-5.623-33.077-12.559-33.077-6.9363 0-12.559 14.809-12.559 33.077 0 18.268 5.623 33.077 12.559 33.077z"/>
      <path transform="matrix(-1 0 0 1 272.63 53.671)" d="m116.73 66.275c6.9363 0 12.559-14.809 12.559-33.077 0-18.268-5.623-33.077-12.559-33.077-6.9363 0-12.559 14.809-12.559 33.077 0 18.268 5.623 33.077 12.559 33.077z"/>
     </g>
     <path transform="matrix(.94489 0 0 .94489 8.6963 2.7018)" d="m251.47 173.1c-20.23-33.61-56.89-56.068-98.756-56.068-40.721 0-76.516 21.246-97.059 53.335" fill="none" mask="url(#a-1)" stroke="#6d4013" stroke-width="20"/>
    </g>
   </g>
   <path d="m12.84 13.744h-2.5092v-6.9905h2.5092z" fill="#231406"/>
  </g>
  <g transform="matrix(.83279 0 0 -.83279 7.96 27.187)">
   <g clip-path="url(#clipPath916)">
    <path d="m17.536 3.005h-8.953v3.013h8.953zm-11.676 0h-3.013v21.53h3.013zm-5.822 24.548v-25.215c0-1.291 1.047-2.338 2.338-2.338h15.658c1.276 0 2.311 1.034 2.311 2.311v25.242z" fill="#6d4013"/>
   </g>
  </g>
 </g>
</svg>
