<?xml version="1.0" encoding="UTF-8"?>
<svg width="40" height="40" version="1.1" viewBox="0 0 40 40" xmlns="http://www.w3.org/2000/svg" xmlns:cc="http://creativecommons.org/ns#" xmlns:dc="http://purl.org/dc/elements/1.1/" xmlns:rdf="http://www.w3.org/1999/02/22-rdf-syntax-ns#"><metadata><rdf:RDF><cc:Work rdf:about=""><dc:format>image/svg+xml</dc:format><dc:type rdf:resource="http://purl.org/dc/dcmitype/StillImage"/><dc:title/></cc:Work></rdf:RDF></metadata><defs><mask id="c" fill="#ffffff"><path d="m0 0h313.3v159.86h-313.3z" fill="#fff" fill-rule="evenodd"/></mask></defs><mask id="a" fill="#ffffff"><path d="m0 0h313.3v159.86h-313.3z" fill="#fff" fill-rule="evenodd"/></mask><mask id="b" fill="#ffffff"><path d="m0 0h313.3v159.86h-313.3z" fill="#fff" fill-rule="evenodd"/></mask><g transform="matrix(.18989 0 0 .18989 50.031 3.9098)"><g transform="matrix(4.6315,0,0,4.6315,-663,-184.77)"><g transform="translate(96.564,87.836)" fill="#bcbcbc" stroke-width="3.24"><polygon class="st0" transform="matrix(.72255 0 0 .7031 -28.717 -125.97)" points="55.7 158 32.9 144.9 32.9 118.6 55.7 105.5 78.4 118.6 78.4 144.9" fill="#e09952"/></g><g transform="matrix(.15831 0 0 .15831 83.649 18.463)" fill="#005e20" fill-rule="evenodd"><g transform="matrix(1.0777,0,0,-1.0777,-10.799,451.79)"><g transform="matrix(.94489 0 0 .94489 8.6963 2.7018)" fill="#6d4013" mask="url(#c)"><path transform="rotate(35,137.93,151.55)" d="m203.46 95.688c6.9363 0 12.559-14.809 12.559-33.077s-5.623-33.077-12.559-33.077-12.559 14.809-12.559 33.077 5.623 33.077 12.559 33.077z"/><path transform="matrix(-.81915 .57358 .57358 .81915 58.085 47.705)" d="m30.142 95.688c6.9363 0 12.559-14.809 12.559-33.077s-5.623-33.077-12.559-33.077c-6.9363 0-12.559 14.809-12.559 33.077s5.623 33.077 12.559 33.077z"/><path d="m153.24 119.95c-6.9363 0-12.559-14.809-12.559-33.077s5.623-33.077 12.559-33.077c6.9363 0 12.559 14.809 12.559 33.077s-5.623 33.077-12.559 33.077z"/></g><path transform="matrix(.94489 0 0 .94489 8.6963 2.7018)" d="m251.47 173.1c-20.23-33.61-56.89-56.068-98.756-56.068-40.721 0-76.516 21.246-97.059 53.335" fill="none" mask="url(#c)" stroke="#6d4013" stroke-width="19.999"/></g></g></g></g><path d="m22.385 2.9966c-0.30243 0.16003-1.1467 0.6509-2.1823 1.3741 0.02779 0.019557 0.06487 0.042797 0.10191 0.067548 0.63077 0.42887 0.98392 0.98493 1.1086 1.4427 0.52055-0.69632 1.2373-1.2363 1.5714-2.0757 0.07396-0.25958-0.3004-0.56822-0.59948-0.80848zm-3.0638-0.14581c-0.73106 0.29451-1.6175 0.67387-2.5784 1.1511-2.4293 1.203-4.9412 2.944-5.4063 4.6979-0.35406 1.3358 0.54446 3.2232 1.5983 5.2838 1.0538 2.0605 2.2604 4.2804 2.0323 6.0974-0.61268 2.9178-2.156 3.8427-4.0447 4.9679l1.7998 1.2204s2.2983 0.95027 3.4811 1.3299c1.2703 0.40785 4.4705 1.0576 8.0532-0.6748 0.64593-0.31233 1.626-0.9329 1.7213-1.2924-0.1954 0.0099-0.41015-0.0066-0.65412-0.06608-0.81275-0.1893-1.6199-0.74037-2.2074-1.3433-0.58786-0.60942-1.0206-1.3076-1.2305-2.0054-0.20998-0.69781-0.17294-1.284 0.11531-1.6868 0.28865-0.39627 0.8543-0.62503 1.667-0.43573 0.01821 0.0068 0.03591 0.0074 0.05412 0.01414-0.47976-0.74133-1.005-1.4997-1.5402-2.2745-0.30135-0.43197-0.59361-0.86054-0.88662-1.3022 0.27259 0.70208 0.31678 1.4591 0.07443 1.8855-0.24423 0.39374-0.76513 0.62648-1.532 0.46075-0.09939-0.02449-0.19882-0.04888-0.29862-0.07983 0.43465 0.88403 0.76229 1.7663 0.86492 2.609 0.10303 0.84928-0.0053 1.7407-0.21185 2.6273 0.28759 0.04385 0.5961 0.1401 0.90763 0.28864 0.83366 0.39504 1.4824 0.91398 1.9621 1.6059 0.18736 0.27024 0.36376 0.41548 0.27361 1.0073-0.08498 0.60856-2.8897 1.1381-2.1082 0.94545 0.26101-0.10658 0.49543-0.36355 0.55262-0.75709 0.05756-0.38701-0.05634-0.81266-0.25334-1.1354-0.36514-0.60906-0.89066-0.76106-1.2826-0.60772-0.261 0.10659-0.48593 0.3735-0.55262 0.75709-0.05756 0.38701 0.05634 0.81266 0.25334 1.1354 0.25959 0.32699-1.4905-0.50679-2.5644-0.77468 0.10818-0.25315 0.22645-0.5153 0.34399-0.79049 0.64119-1.5282 1.2133-3.4782 1.0434-4.8632-0.17794-1.522-1.3936-3.4261-2.634-5.4161-1.2403-1.99-2.5114-4.0808-2.3966-5.8826 0.13419-2.1266 2.0418-4.0107 3.8744-5.4563 0.59613-0.4695 1.1864-0.88693 1.7092-1.2403zm0.29067 2.3852c-0.34123-0.046627-0.59812 0.13043-0.71444 0.27393-0.08647 0.20383-0.24804 0.48168 0.0017 0.79221 0.33428 0.08046 0.6541-0.08713 0.78647-0.26101 0.08875-0.1583 0.25263-0.70213-0.07371-0.80512zm-2.0111 1.2569c-1.1956 1.1867-2.1463 2.5417-2.2233 3.7704-0.06768 1.0535 0.50593 2.3342 1.3168 3.7421 0.27728-0.28563 0.74962-0.4344 1.3988-0.29993 0.98956 0.31932 1.676 0.78691 2.3118 1.4526-0.44181-0.70159-0.83922-1.4057-1.1744-2.1121-0.23335-0.02986-0.48641-0.09273-0.75129-0.20459-0.74865-0.31216-1.352-0.8827-1.7134-1.4265-0.35405-0.54105-0.53077-1.1115-0.5054-1.6382 0.02538-0.52673 0.24867-0.92835 0.64473-1.1631 0.39681-0.22173 1.0353-0.26999 1.784 0.04213 0.10065 0.04378 0.2102 0.0915 0.30243 0.14514 0.24539-0.37416 0.55262-0.75709 0.87731-1.1463-0.47276-0.01097-1.0521-0.17038-1.5903-0.53773-0.27855-0.19358-0.49561-0.40254-0.67778-0.62394zm1.029 3.2833c-0.51223-0.07682-0.70941 0.36007-0.72603 0.68581-0.017 0.31919 0.10069 0.65689 0.25707 0.89417 0.25506 0.40188 0.57681 0.42017 0.76686 0.31897 0.17223-0.10151 0.31939-0.32731 0.3368-0.63997-0.02549-0.28404-0.08561-1.0088-0.63469-1.2589zm0.01301 5.2586c-0.76646-0.1592-0.68278 0.66368-0.52485 1.0803 0.15755 0.41006 0.62066 1.3239 1.2896 1.4913 0.59568-0.01963 0.5572-0.67877 0.40607-1.1311-0.19398-0.4237-0.54209-1.1988-1.1708-1.4405zm5.5581 6.402c-0.91743-0.30515-0.86111 0.66078-0.72554 1.152 0.18869 0.48556 0.69393 1.511 1.4623 1.7028 0.74292 0.06102 0.72376-0.72495 0.57908-1.2196-0.19893-0.50854-0.58918-1.3951-1.3158-1.6351z" fill="#6d4013" stroke-width=".076246"/></svg>
