<?xml version="1.0" encoding="UTF-8"?>
<svg width="60" height="40" version="1.1" viewBox="0 0 60 40" xmlns="http://www.w3.org/2000/svg" xmlns:cc="http://creativecommons.org/ns#" xmlns:dc="http://purl.org/dc/elements/1.1/" xmlns:rdf="http://www.w3.org/1999/02/22-rdf-syntax-ns#">
 <metadata>
  <rdf:RDF>
   <cc:Work rdf:about="">
    <dc:format>image/svg+xml</dc:format>
    <dc:type rdf:resource="http://purl.org/dc/dcmitype/StillImage"/>
   </cc:Work>
  </rdf:RDF>
 </metadata>
 <defs>
  <mask id="a-1" fill="#ffffff">
   <path d="m0 0h313.3v159.86h-313.3z" fill="#fff" fill-rule="evenodd"/>
  </mask>
 </defs>
 <mask id="a" fill="#ffffff">
  <path d="m0 0h313.3v159.86h-313.3z" fill="#fff" fill-rule="evenodd"/>
 </mask>
 <mask id="b" fill="#ffffff">
  <path d="m0 0h313.3v159.86h-313.3z" fill="#fff" fill-rule="evenodd"/>
 </mask>
 <g>
  <g transform="matrix(.08667 0 0 .08667 54.838 -43.976)">
   <path d="m56.695 510.77-107.53 84.402-79.398-66.275 61.189 82.843-54.627 74.395 72.837-52.987 102.53 91.046-81.039-107.53z" fill="#000e44" fill-rule="evenodd"/>
  </g>
  <circle cx="16.627" cy="16.633" r="16.434" fill="#e09952" stop-color="#000000"/>
  <g transform="matrix(.15069 0 0 .15069 -6.1977 -20.881)" fill="#6f6f0c" fill-rule="evenodd">
   <g transform="matrix(.92863 0 0 -.92863 9.2718 454.16)">
    <g transform="matrix(.94489 0 0 .94489 8.6963 2.7018)" fill="#6d4013" mask="url(#a-1)">
     <path transform="rotate(35 137.93 151.55)" d="m203.46 95.688c6.9363 0 12.559-14.809 12.559-33.077 0-18.268-5.623-33.077-12.559-33.077s-12.559 14.809-12.559 33.077c0 18.268 5.623 33.077 12.559 33.077z"/>
     <path transform="matrix(-.81915 .57358 .57358 .81915 58.085 47.705)" d="m30.142 95.688c6.9363 0 12.559-14.809 12.559-33.077 0-18.268-5.623-33.077-12.559-33.077-6.9363 0-12.559 14.809-12.559 33.077 0 18.268 5.623 33.077 12.559 33.077z"/>
     <path transform="matrix(-1 0 0 1 272.63 53.671)" d="m116.73 66.275c6.9363 0 12.559-14.809 12.559-33.077 0-18.268-5.623-33.077-12.559-33.077-6.9363 0-12.559 14.809-12.559 33.077 0 18.268 5.623 33.077 12.559 33.077z"/>
    </g>
    <path transform="matrix(.94489 0 0 .94489 8.6963 2.7018)" d="m251.47 173.1c-20.23-33.61-56.89-56.068-98.756-56.068-40.721 0-76.516 21.246-97.059 53.335" fill="none" mask="url(#a-1)" stroke="#6d4013" stroke-width="20"/>
   </g>
  </g>
  <g fill="#6d4013" stroke="#e09952" stroke-width=".60689">
   <path d="m8.2838 16.004c2.8515 0.25156 4.6127 3.0191 4.6127 3.0191-0.33546 1.5096 1.2579 2.1806 1.2579 2.1806 1.8451 0.83873 2.3482-1.1742 2.3482-1.1742l0.50327-1.0903-0.83874 0.1678-0.25155-1.1742-0.41936 0.50327c-1.0064 0.1678-2.0967-3.3546-2.0967-3.3546 0.83872-1.1742 2.3482 0.83872 2.3482 0.83872 0.58702 1.0903 1.5934 2.0128 1.5934 2.0128 2.0128 1.4257 2.0967-1.0903 2.0967-1.0903-0.67093 0.58702-1.4258-0.33546-1.4258-0.33546-0.50327-1.0064-2.4321-2.3482-2.4321-2.3482 0.92249-0.67092 1.3419-0.41936 1.3419-0.41936l0.50326 0.50327 0.83872-0.92248 0.58702 0.50327 0.58702-0.92248c0.67091 0.0839 0.83872 1.7612 0.83872 1.7612 0.50327-0.16781 1.3418-1.4257 1.3418-1.4257l0.16781 1.3418 0.92248-1.4257c0.67093 0.16781 1.3418-2.6837 1.3418-2.6837 0.92248-1.5096-1.0903-1.5935-1.0903-1.5935-1.2579-2.0967-6.5415-2.6837-6.5415-2.6837 0.67091-2.0128-3.3546-2.2643-3.3546-2.2643l-0.08395-0.92248c-0.08395-2.516-1.929 0.92248-1.929 0.92248l-0.92248 0.33546c0.67091-3.5224-1.1742 0.083905-1.1742 0.083905-1.0064 0.25156-2.7676 2.2645-2.7676 2.2645-4.9991 3.881-1.264 7.4606 2.0968 9.3926z"/>
   <path d="m11.318 19.038c2.8515 0.25156 4.6127 3.0191 4.6127 3.0191-0.33417 1.4884 2.0363 0.13922 2.4767 1.2743 1.8451 0.83872 1.1295-0.26794 1.1295-0.26794l0.50326-1.0903-0.83872 0.16781-0.25155-1.1742-0.41938 0.50327c-1.0064 0.16781-2.0967-3.3546-2.0967-3.3546 0.83872-1.1742 2.3482 0.83873 2.3482 0.83873 0.58702 1.0903 0.81215 0.20026 0.81215 0.20026 2.0127 1.4257 1.8154 0.06597 1.8154 0.06597-0.67091 0.58702-0.36324 0.32079-0.36324 0.32079-0.50327-1.0064-2.4321-2.3482-2.4321-2.3482 0.92248-0.67092 1.3418-0.41936 1.3418-0.41936l0.50327 0.50327 0.83874-0.92248 0.58702 0.50327 0.587-0.92248c0.67093 0.08391 0.83874 1.7612 0.83874 1.7612 0.50327-0.16781 1.3418-1.4257 1.3418-1.4257l0.16781 1.3418 0.92248-1.4257c0.67091 0.16781 1.3418-2.6837 1.3418-2.6837 0.92248-1.5096-1.0903-1.5935-1.0903-1.5935-1.2579-2.0967-6.5415-2.6837-6.5415-2.6837 0.67091-2.0128-3.3546-2.2643-3.3546-2.2643l-0.08396-0.92248c-0.08396-2.516-1.929 0.92248-1.929 0.92248l-0.92248 0.33546c0.67093-3.5224-1.1742 0.083905-1.1742 0.083905-1.0064 0.25156-2.7676 2.2645-2.7676 2.2645-4.9991 3.881-1.264 7.4606 2.0968 9.3926z"/>
   <path d="m14.353 22.073c2.8515 0.25156 4.6127 3.0191 4.6127 3.0191-0.33547 1.5096 1.2579 2.1806 1.2579 2.1806 1.7826 0.49498 3.4418-0.28241 5.5357-2.4867 0.27568-0.29021 0.50326-1.0903 0.50326-1.0903l-0.83872 0.16781-0.25157-1.1742-0.41936 0.50326c-1.7564 0.54281-4.3779-2.3546-4.3779-2.3546 0.28678-0.19066 0.82378-0.45749 1.2742-0.60998 0.92248-0.67092 1.3418-0.41936 1.3418-0.41936l0.50327 0.50327 0.83874-0.92248 0.587 0.50326 0.58702-0.92248c0.67093 0.08391 0.83872 1.7612 0.83872 1.7612 0.50326-0.16781 1.3419-1.4257 1.3419-1.4257l0.1678 1.3418 0.92248-1.4257c0.67093 0.16781 1.3419-2.6837 1.3419-2.6837 0.92248-1.5096-1.0903-1.5935-1.0903-1.5935-1.2579-2.0967-6.5416-2.6837-6.5416-2.6837 0.67093-2.0128-3.3546-2.2643-3.3546-2.2643l-0.08396-0.92248c-0.08395-2.516-1.929 0.92248-1.929 0.92248l-0.92248 0.33546c0.67093-3.5224-1.1742 0.08391-1.1742 0.08391-1.0064 0.25156-2.7676 2.2645-2.7676 2.2645-4.9991 3.881-1.264 7.4606 2.0968 9.3926z"/>
  </g>
  <path d="m21.056 13.999c0.4751-1.9894-2.6651-1.333-3.8385-1.0704-1.9463 0.43548 3.4935 2.5147 3.8385 1.0704z" fill="#e09952"/>
 </g>
</svg>
