<?xml version="1.0" encoding="UTF-8"?>
<svg width="40" height="40" version="1.1" viewBox="0 0 40 40" xmlns="http://www.w3.org/2000/svg" xmlns:cc="http://creativecommons.org/ns#" xmlns:dc="http://purl.org/dc/elements/1.1/" xmlns:rdf="http://www.w3.org/1999/02/22-rdf-syntax-ns#"><metadata><rdf:RDF><cc:Work rdf:about=""><dc:format>image/svg+xml</dc:format><dc:type rdf:resource="http://purl.org/dc/dcmitype/StillImage"/><dc:title/></cc:Work></rdf:RDF></metadata><defs><mask id="c" fill="#ffffff"><path d="m0 0h313.3v159.86h-313.3z" fill="#fff" fill-rule="evenodd"/></mask></defs><mask id="a" fill="#ffffff"><path d="m0 0h313.3v159.86h-313.3z" fill="#fff" fill-rule="evenodd"/></mask><mask id="b" fill="#ffffff"><path d="m0 0h313.3v159.86h-313.3z" fill="#fff" fill-rule="evenodd"/></mask><g transform="matrix(.18989 0 0 .18989 50.031 3.6232)"><g transform="matrix(4.6315,0,0,4.6315,-663,-184.77)"><g transform="translate(96.564,87.836)" fill="#bcbcbc" stroke-width="3.24"><polygon class="st0" transform="matrix(.72255 0 0 .7031 -28.717 -125.97)" points="55.7 105.5 78.4 118.6 78.4 144.9 55.7 158 32.9 144.9 32.9 118.6" fill="#e09952"/></g><g transform="matrix(.15831 0 0 .15831 83.649 18.463)" fill="#005e20" fill-rule="evenodd"><g transform="matrix(1.0777,0,0,-1.0777,-10.799,451.79)"><g transform="matrix(.94489 0 0 .94489 8.6963 2.7018)" fill="#6d4013" mask="url(#c)"><path transform="rotate(35,137.93,151.55)" d="m203.46 95.688c6.9363 0 12.559-14.809 12.559-33.077s-5.623-33.077-12.559-33.077-12.559 14.809-12.559 33.077 5.623 33.077 12.559 33.077z"/><path transform="matrix(-.81915 .57358 .57358 .81915 58.085 47.705)" d="m30.142 95.688c6.9363 0 12.559-14.809 12.559-33.077s-5.623-33.077-12.559-33.077c-6.9363 0-12.559 14.809-12.559 33.077s5.623 33.077 12.559 33.077z"/><path d="m153.24 119.95c-6.9363 0-12.559-14.809-12.559-33.077s5.623-33.077 12.559-33.077c6.9363 0 12.559 14.809 12.559 33.077s-5.623 33.077-12.559 33.077z"/></g><path transform="matrix(.94489 0 0 .94489 8.6963 2.7018)" d="m251.47 173.1c-20.23-33.61-56.89-56.068-98.756-56.068-40.721 0-76.516 21.246-97.059 53.335" fill="none" mask="url(#c)" stroke="#6d4013" stroke-width="19.999"/></g></g></g></g><g transform="matrix(.92117 0 0 .92117 4.6485 1.6924)"><g fill="#6d4013" stroke="#e09952" stroke-width=".60689"><path d="m8.2838 16.004c2.8515 0.25156 4.6127 3.0191 4.6127 3.0191-0.33546 1.5096 1.2579 2.1806 1.2579 2.1806 1.8451 0.83873 2.3482-1.1742 2.3482-1.1742l0.50327-1.0903-0.83874 0.1678-0.25155-1.1742-0.41936 0.50327c-1.0064 0.1678-2.0967-3.3546-2.0967-3.3546 0.83872-1.1742 2.3482 0.83872 2.3482 0.83872 0.58702 1.0903 1.5934 2.0128 1.5934 2.0128 2.0128 1.4257 2.0967-1.0903 2.0967-1.0903-0.67093 0.58702-1.4258-0.33546-1.4258-0.33546-0.50327-1.0064-2.4321-2.3482-2.4321-2.3482 0.92249-0.67092 1.3419-0.41936 1.3419-0.41936l0.50326 0.50327 0.83872-0.92248 0.58702 0.50327 0.58702-0.92248c0.67091 0.0839 0.83872 1.7612 0.83872 1.7612 0.50327-0.16781 1.3418-1.4257 1.3418-1.4257l0.16781 1.3418 0.92248-1.4257c0.67093 0.16781 1.3418-2.6837 1.3418-2.6837 0.92248-1.5096-1.0903-1.5935-1.0903-1.5935-1.2579-2.0967-6.5415-2.6837-6.5415-2.6837 0.67091-2.0128-3.3546-2.2643-3.3546-2.2643l-0.08395-0.92248c-0.08395-2.516-1.929 0.92248-1.929 0.92248l-0.92248 0.33546c0.67091-3.5224-1.1742 0.083905-1.1742 0.083905-1.0064 0.25156-2.7676 2.2645-2.7676 2.2645-4.9991 3.881-1.264 7.4606 2.0968 9.3926z"/><path d="m11.318 19.038c2.8515 0.25156 4.6127 3.0191 4.6127 3.0191-0.33417 1.4884 2.0363 0.13922 2.4767 1.2743 1.8451 0.83872 1.1295-0.26794 1.1295-0.26794l0.50326-1.0903-0.83872 0.16781-0.25155-1.1742-0.41938 0.50327c-1.0064 0.16781-2.0967-3.3546-2.0967-3.3546 0.83872-1.1742 2.3482 0.83873 2.3482 0.83873 0.58702 1.0903 0.81215 0.20026 0.81215 0.20026 2.0127 1.4257 1.8154 0.06597 1.8154 0.06597-0.67091 0.58702-0.36324 0.32079-0.36324 0.32079-0.50327-1.0064-2.4321-2.3482-2.4321-2.3482 0.92248-0.67092 1.3418-0.41936 1.3418-0.41936l0.50327 0.50327 0.83874-0.92248 0.58702 0.50327 0.587-0.92248c0.67093 0.08391 0.83874 1.7612 0.83874 1.7612 0.50327-0.16781 1.3418-1.4257 1.3418-1.4257l0.16781 1.3418 0.92248-1.4257c0.67091 0.16781 1.3418-2.6837 1.3418-2.6837 0.92248-1.5096-1.0903-1.5935-1.0903-1.5935-1.2579-2.0967-6.5415-2.6837-6.5415-2.6837 0.67091-2.0128-3.3546-2.2643-3.3546-2.2643l-0.08396-0.92248c-0.08396-2.516-1.929 0.92248-1.929 0.92248l-0.92248 0.33546c0.67093-3.5224-1.1742 0.083905-1.1742 0.083905-1.0064 0.25156-2.7676 2.2645-2.7676 2.2645-4.9991 3.881-1.264 7.4606 2.0968 9.3926z"/><path d="m14.353 22.073c2.8515 0.25156 4.6127 3.0191 4.6127 3.0191-0.33547 1.5096 1.2579 2.1806 1.2579 2.1806 1.7826 0.49498 3.4418-0.28241 5.5357-2.4867 0.27568-0.29021 0.50326-1.0903 0.50326-1.0903l-0.83872 0.16781-0.25157-1.1742-0.41936 0.50326c-1.7564 0.54281-4.3779-2.3546-4.3779-2.3546 0.28678-0.19066 0.82378-0.45749 1.2742-0.60998 0.92248-0.67092 1.3418-0.41936 1.3418-0.41936l0.50327 0.50327 0.83874-0.92248 0.587 0.50326 0.58702-0.92248c0.67093 0.08391 0.83872 1.7612 0.83872 1.7612 0.50326-0.16781 1.3419-1.4257 1.3419-1.4257l0.1678 1.3418 0.92248-1.4257c0.67093 0.16781 1.3419-2.6837 1.3419-2.6837 0.92248-1.5096-1.0903-1.5935-1.0903-1.5935-1.2579-2.0967-6.5416-2.6837-6.5416-2.6837 0.67093-2.0128-3.3546-2.2643-3.3546-2.2643l-0.08396-0.92248c-0.08395-2.516-1.929 0.92248-1.929 0.92248l-0.92248 0.33546c0.67093-3.5224-1.1742 0.08391-1.1742 0.08391-1.0064 0.25156-2.7676 2.2645-2.7676 2.2645-4.9991 3.881-1.264 7.4606 2.0968 9.3926z"/></g><path d="m21.056 13.999c0.4751-1.9894-2.6651-1.333-3.8385-1.0704-1.9463 0.43548 3.4935 2.5147 3.8385 1.0704z" fill="#e09952"/></g></svg>
