<?xml version="1.0" encoding="UTF-8"?>
<svg width="60" height="40" version="1.1" viewBox="0 0 60 40" xmlns="http://www.w3.org/2000/svg" xmlns:cc="http://creativecommons.org/ns#" xmlns:dc="http://purl.org/dc/elements/1.1/" xmlns:rdf="http://www.w3.org/1999/02/22-rdf-syntax-ns#">
 <metadata>
  <rdf:RDF>
   <cc:Work rdf:about="">
    <dc:format>image/svg+xml</dc:format>
    <dc:type rdf:resource="http://purl.org/dc/dcmitype/StillImage"/>
   </cc:Work>
  </rdf:RDF>
 </metadata>
 <defs>
  <mask id="a-1" fill="#ffffff">
   <path d="m0 0h313.3v159.86h-313.3z" fill="#fff" fill-rule="evenodd"/>
  </mask>
 </defs>
 <mask id="a" fill="#ffffff">
  <path d="m0 0h313.3v159.86h-313.3z" fill="#fff" fill-rule="evenodd"/>
 </mask>
 <mask id="b" fill="#ffffff">
  <path d="m0 0h313.3v159.86h-313.3z" fill="#fff" fill-rule="evenodd"/>
 </mask>
 <g>
  <g transform="matrix(.08667 0 0 .08667 54.838 -43.976)">
   <path d="m56.695 510.77-107.53 84.402-79.398-66.275 61.189 82.843-54.627 74.395 72.837-52.987 102.53 91.046-81.039-107.53z" fill="#000e44" fill-rule="evenodd"/>
  </g>
  <circle cx="16.627" cy="16.633" r="15.737" fill="none" stop-color="#000000" stroke="#6d4013" stroke-miterlimit="2.5" stroke-width="1.5"/>
  <g transform="matrix(.15069 0 0 .15069 -6.1977 -20.881)" fill="#6f6f0c" fill-rule="evenodd">
   <g transform="matrix(.92863 0 0 -.92863 9.2718 454.16)">
    <g transform="matrix(.94489 0 0 .94489 8.6963 2.7018)" fill="#6d4013" mask="url(#a-1)">
     <path transform="rotate(35 137.93 151.55)" d="m203.46 95.688c6.9363 0 12.559-14.809 12.559-33.077 0-18.268-5.623-33.077-12.559-33.077s-12.559 14.809-12.559 33.077c0 18.268 5.623 33.077 12.559 33.077z"/>
     <path transform="matrix(-.81915 .57358 .57358 .81915 58.085 47.705)" d="m30.142 95.688c6.9363 0 12.559-14.809 12.559-33.077 0-18.268-5.623-33.077-12.559-33.077-6.9363 0-12.559 14.809-12.559 33.077 0 18.268 5.623 33.077 12.559 33.077z"/>
     <path transform="matrix(-1 0 0 1 272.63 53.671)" d="m116.73 66.275c6.9363 0 12.559-14.809 12.559-33.077 0-18.268-5.623-33.077-12.559-33.077-6.9363 0-12.559 14.809-12.559 33.077 0 18.268 5.623 33.077 12.559 33.077z"/>
    </g>
    <path transform="matrix(.94489 0 0 .94489 8.6963 2.7018)" d="m251.47 173.1c-20.23-33.61-56.89-56.068-98.756-56.068-40.721 0-76.516 21.246-97.059 53.335" fill="none" mask="url(#a-1)" stroke="#6d4013" stroke-width="20"/>
   </g>
  </g>
  <path d="m28.983 18.905c0.9821-1.7011 0.93138-1.6081 1.7435-3.0147 0.27856-0.49837 0.52771-0.93812 0.79168-1.3925-0.87968-1.5245-1.7737-3.0636-2.668-4.6027h-3.4446c-0.58629-0.99677-1.1874-1.9935-1.7883-3.0196h-3.43c-0.5863-0.9821-1.158-1.9789-1.8031-3.0489-0.01456 0-0.02918 0-0.04375-0.014662-0.30797 0.49838-0.57171 0.92347-0.86486 1.3925-0.29314-0.48372-0.55711-0.90881-0.85026-1.4219-0.30783 0.51304-0.557 0.93813-0.86483 1.4365-0.27851-0.46906-0.54237-0.89415-0.85018-1.3925h-0.01467c-0.7036 0.9821-1.1727 2.0375-1.8323 3.0196h-3.4154c-0.58634 1.0114-1.1873 2.0082-1.7883 3.0343h-3.4447c-0.90881 1.5684-1.803 3.1076-2.6825 4.632 0.2492 0.4544 0.4984 0.89414 0.77689 1.3925l1.7789 3.0614c2.1724 0 2.6442-0.04394 5.1564-0.04394 1.4295 2.476 1.8506 3.085 3.3958 5.7615 4.4651 0 5.4526 0.02826 7.7796 0.02826l3.045-5.8071h5.3179z" fill="#6d4013" stroke-width=".023155"/>
  <g fill="#fffffc" stroke-width=".023155">
   <path d="m22.752 11.522c0.57171 0.99677 1.1434 1.9789 1.7151 2.9903-0.58653 0.99675-1.158 1.9935-1.7445 3.0049h-3.4446c0.30773 0.54234 0.5863 1.0261 0.86485 1.5245-0.30774 0.51303-0.6157 0.99675-0.90885 1.4951h-5.1597c-0.29317-0.48372-0.601-0.96743-0.92348-1.4951 0.27851-0.48374 0.54237-0.96746 0.85017-1.5098h-3.43c-0.58632-1.0114-1.158-1.9935-1.7443-3.0049 0.57166-0.99677 1.1433-1.9935 1.7297-2.9903h5.2477c0.26386 0.42509 0.52769 0.86483 0.85027 1.3925 0.30774-0.51305 0.55688-0.93814 0.83545-1.3925 1.7149-0.01466 3.43-0.01466 5.2623-0.01466z"/>
   <path d="m3.6231 14.498c0.58634-1.0114 1.158-1.9935 1.7297-2.9756h1.7736c-0.58632 1.0114-1.1433 1.9789-1.715 2.9756 0.557 0.96743 1.1287 1.9495 1.715 2.9903h-1.759c-0.57168-0.96746-1.1433-1.9495-1.7443-2.9903z"/>
   <path d="m27.941 17.503h-1.7737c0.5863-1.0114 1.1432-1.9789 1.7149-2.9903-0.55688-0.96746-1.114-1.9495-1.7149-2.9756h1.7589c0.55712 0.96746 1.1288 1.9495 1.7297 2.961-0.55689 0.99675-1.1434 1.9935-1.7149 3.0049z"/>
   <path d="m14.016 23.498c-0.26383-0.46906-0.52769-0.92346-0.77689-1.3486 0.02932-0.08797 0.04399-0.11728 0.05863-0.13194 0.01467-0.01467 0.04399-0.04399 0.05865-0.04399 2.0668-0.01467 4.1336-0.02932 6.2005-0.02932 0.14657 0 0.27856 0.01467 0.48372 0.02932-0.14658 0.601-0.5423 0.99677-0.77687 1.5098-1.7151 0.01467-3.4448 0.01467-5.2477 0.01467z"/>
  </g>
  <g fill="#6d4013" stroke-width=".023155">
   <path d="m18.399 13.032h3.4154c0.27833 0.48372 0.57147 0.98212 0.87944 1.4805-0.29315 0.49837-0.57171 0.98209-0.86485 1.4658h-1.6711c-0.30774-0.48374-0.6157-0.99677-0.93803-1.5245h-1.6565c0.29338-0.4984 0.55712-0.93814 0.83568-1.4219z"/>
   <path d="m14.895 16.037c-0.55703-0.01467-1.114-0.02932-1.6857-0.04399-0.32248-0.51306-0.63029-1.0114-0.93812-1.5245h-1.6417c0.29315-0.52771 0.55701-0.96746 0.8062-1.4219h3.4447c0.27849 0.4544 0.55701 0.93812 0.86483 1.4512-0.29317 0.52769-0.58634 1.0407-0.87949 1.5684z"/>
   <path d="m18.399 16.081c0.24915 0.43975 0.5129 0.87949 0.79145 1.3779h-1.6709c-0.23456-0.41045-0.49854-0.86485-0.80627-1.3779h1.6857z"/>
   <path d="m14.881 16.066h1.6417c-0.20523 0.557-0.48372 0.99675-0.79154 1.4072h-1.6124c0.27849-0.51306 0.54235-0.96746 0.79154-1.4365z"/>
  </g>
 </g>
</svg>
