<?xml version="1.0" encoding="UTF-8"?>
<svg width="60" height="40" version="1.1" viewBox="0 0 60 40" xmlns="http://www.w3.org/2000/svg" xmlns:cc="http://creativecommons.org/ns#" xmlns:dc="http://purl.org/dc/elements/1.1/" xmlns:rdf="http://www.w3.org/1999/02/22-rdf-syntax-ns#">
 <metadata>
  <rdf:RDF>
   <cc:Work rdf:about="">
    <dc:format>image/svg+xml</dc:format>
    <dc:type rdf:resource="http://purl.org/dc/dcmitype/StillImage"/>
   </cc:Work>
  </rdf:RDF>
 </metadata>
 <defs>
  <mask id="a-1" fill="#ffffff">
   <path d="m0 0h313.3v159.86h-313.3z" fill="#fff" fill-rule="evenodd"/>
  </mask>
 </defs>
 <mask id="a" fill="#ffffff">
  <path d="m0 0h313.3v159.86h-313.3z" fill="#fff" fill-rule="evenodd"/>
 </mask>
 <mask id="b" fill="#ffffff">
  <path d="m0 0h313.3v159.86h-313.3z" fill="#fff" fill-rule="evenodd"/>
 </mask>
 <g>
  <g transform="matrix(.08667 0 0 .08667 54.838 -43.976)">
   <path d="m56.695 510.77-107.53 84.402-79.398-66.275 61.189 82.843-54.627 74.395 72.837-52.987 102.53 91.046-81.039-107.53z" fill="#000e44" fill-rule="evenodd"/>
  </g>
  <g>
   <circle cx="16.627" cy="16.633" r="16.434" fill="#e09952" stop-color="#000000"/>
   <g transform="matrix(.15069 0 0 .15069 -6.1977 -20.881)" fill="#6f6f0c" fill-rule="evenodd">
    <g transform="matrix(.92863 0 0 -.92863 9.2718 454.16)">
     <g transform="matrix(.94489 0 0 .94489 8.6963 2.7018)" fill="#6d4013" mask="url(#a-1)">
      <path transform="rotate(35 137.93 151.55)" d="m203.46 95.688c6.9363 0 12.559-14.809 12.559-33.077 0-18.268-5.623-33.077-12.559-33.077s-12.559 14.809-12.559 33.077c0 18.268 5.623 33.077 12.559 33.077z"/>
      <path transform="matrix(-.81915 .57358 .57358 .81915 58.085 47.705)" d="m30.142 95.688c6.9363 0 12.559-14.809 12.559-33.077 0-18.268-5.623-33.077-12.559-33.077-6.9363 0-12.559 14.809-12.559 33.077 0 18.268 5.623 33.077 12.559 33.077z"/>
      <path transform="matrix(-1 0 0 1 272.63 53.671)" d="m116.73 66.275c6.9363 0 12.559-14.809 12.559-33.077 0-18.268-5.623-33.077-12.559-33.077-6.9363 0-12.559 14.809-12.559 33.077 0 18.268 5.623 33.077 12.559 33.077z"/>
     </g>
     <path transform="matrix(.94489 0 0 .94489 8.6963 2.7018)" d="m251.47 173.1c-20.23-33.61-56.89-56.068-98.756-56.068-40.721 0-76.516 21.246-97.059 53.335" fill="none" mask="url(#a-1)" stroke="#6d4013" stroke-width="20"/>
    </g>
   </g>
   <path d="m20.838 1.8179c-0.33248 0.17593-1.2607 0.71558-2.3992 1.5106 0.03055 0.021497 0.07132 0.047048 0.11204 0.074259 0.69345 0.47149 1.0817 1.0828 1.2188 1.5861 0.57228-0.76552 1.3602-1.3591 1.7275-2.282 0.08131-0.28538-0.33025-0.62469-0.65905-0.88882zm-3.3683-0.1603c-0.80371 0.32378-1.7782 0.74083-2.8346 1.2655-2.6707 1.3226-5.4322 3.2366-5.9435 5.1647-0.38924 1.4685 0.59857 3.5435 1.7571 5.8089 1.1585 2.2653 2.485 4.7058 2.2343 6.7033-0.67356 3.2078-2.3702 4.2246-4.4466 5.4616l1.9787 1.3417s2.5267 1.0447 3.827 1.4621c1.3965 0.44838 4.9147 1.1627 8.8535-0.74186 0.71012-0.34337 1.7876-1.0256 1.8923-1.4208-0.21482 0.01086-0.45091-0.0073-0.71912-0.07265-0.89352-0.20811-1.7809-0.81394-2.4267-1.4768-0.64628-0.66998-1.122-1.4375-1.3528-2.2047-0.23085-0.76715-0.19012-1.4116 0.12677-1.8544 0.31733-0.43565 0.93919-0.68714 1.8327-0.47903 0.02002 0.0075 0.03948 0.0081 0.0595 0.01555-0.52743-0.815-1.1049-1.6487-1.6933-2.5005-0.3313-0.4749-0.6526-0.94605-0.97472-1.4316 0.29968 0.77185 0.34826 1.6041 0.08183 2.0729-0.2685 0.43287-0.84116 0.68874-1.6842 0.50654-0.10927-0.02692-0.21858-0.05374-0.3283-0.08776 0.47784 0.97188 0.83804 1.9418 0.95087 2.8683 0.11327 0.93368-0.0058 1.9137-0.2329 2.8884 0.31617 0.04821 0.65534 0.15402 0.99782 0.31732 0.9165 0.4343 1.6297 1.0048 2.1571 1.7655 0.20598 0.2971 0.39991 0.45677 0.3008 1.1074-0.09342 0.66903-3.1769 1.2512-2.3177 1.0394 0.28695-0.11717 0.54466-0.39968 0.60753-0.83232 0.06328-0.42547-0.06194-0.89342-0.27851-1.2482-0.40142-0.66958-0.97917-0.83669-1.41-0.66811-0.28694 0.11718-0.53422 0.41061-0.60754 0.83232-0.06328 0.42547 0.06194 0.89342 0.27852 1.2482 0.28539 0.35948-1.6386-0.55715-2.8192-0.85166 0.11893-0.27831 0.24895-0.56651 0.37817-0.86904 0.70491-1.6801 1.3339-3.8238 1.1471-5.3465-0.19562-1.6733-1.5321-3.7666-2.8957-5.9543-1.3636-2.1877-2.761-4.4863-2.6348-6.4672 0.14752-2.3379 2.2447-4.4093 4.2594-5.9985 0.65537-0.51615 1.3043-0.97507 1.879-1.3635zm0.31955 2.6222c-0.37514-0.051265-0.65756 0.14339-0.78544 0.30115-0.09506 0.22409-0.27269 0.52955 0.0019 0.87093 0.3675 0.088447 0.7191-0.095794 0.86462-0.28695 0.09757-0.17403 0.27773-0.7719-0.08104-0.88513zm-2.2109 1.3818c-1.3144 1.3046-2.3596 2.7943-2.4442 4.1451-0.0744 1.1582 0.55621 2.5662 1.4476 4.114 0.30483-0.31401 0.82411-0.47757 1.5378-0.32973 1.0879 0.35105 1.8426 0.86511 2.5415 1.5969-0.48571-0.77131-0.92261-1.5454-1.2911-2.322-0.25654-0.03283-0.53475-0.10194-0.82595-0.22492-0.82305-0.34318-1.4864-0.97041-1.8837-1.5682-0.38923-0.59482-0.58351-1.222-0.55562-1.801 0.0279-0.57907 0.27338-1.0206 0.7088-1.2787 0.43624-0.24376 1.1382-0.29682 1.9613 0.046322 0.11065 0.048125 0.23109 0.10059 0.33248 0.15956 0.26977-0.41134 0.60754-0.83232 0.96449-1.2602-0.51974-0.012059-1.1567-0.18731-1.7483-0.59117-0.30623-0.21282-0.54486-0.44254-0.74513-0.68594zm1.1312 3.6096c-0.56313-0.084451-0.77991 0.39585-0.79818 0.75396-0.01869 0.35091 0.1107 0.72217 0.28262 0.98303 0.28041 0.44181 0.63413 0.46192 0.84307 0.35067 0.18934-0.1116 0.35113-0.35984 0.37027-0.70357-0.02802-0.31226-0.09412-1.109-0.69776-1.384zm0.0143 5.7812c-0.84262-0.17502-0.75063 0.72963-0.57701 1.1876 0.17321 0.45081 0.68234 1.4555 1.4178 1.6395 0.65487-0.02158 0.61257-0.74622 0.44642-1.2435-0.21326-0.4658-0.59596-1.3179-1.2872-1.5836zm6.1104 7.0382c-1.0086-0.33547-0.94668 0.72644-0.79764 1.2665 0.20744 0.53381 0.76289 1.6611 1.6076 1.872 0.81674 0.06708 0.79568-0.79699 0.63662-1.3408-0.2187-0.55907-0.64773-1.5337-1.4466-1.7976z" fill="#6d4013" stroke-width=".083823"/>
  </g>
 </g>
</svg>
