<?xml version="1.0" encoding="UTF-8"?>
<svg width="40" height="40" version="1.1" viewBox="0 0 40 40" xmlns="http://www.w3.org/2000/svg" xmlns:cc="http://creativecommons.org/ns#" xmlns:dc="http://purl.org/dc/elements/1.1/" xmlns:rdf="http://www.w3.org/1999/02/22-rdf-syntax-ns#"><metadata><rdf:RDF><cc:Work rdf:about=""><dc:format>image/svg+xml</dc:format><dc:type rdf:resource="http://purl.org/dc/dcmitype/StillImage"/><dc:title/></cc:Work></rdf:RDF></metadata><defs><mask id="c" fill="#ffffff"><path d="m0 0h313.3v159.86h-313.3z" fill="#fff" fill-rule="evenodd"/></mask></defs><mask id="a" fill="#ffffff"><path d="m0 0h313.3v159.86h-313.3z" fill="#fff" fill-rule="evenodd"/></mask><mask id="b" fill="#ffffff"><path d="m0 0h313.3v159.86h-313.3z" fill="#fff" fill-rule="evenodd"/></mask><g transform="matrix(.18989 0 0 .18989 50.031 3.9028)"><g transform="matrix(4.6315,0,0,4.6315,-663,-184.77)"><g transform="translate(96.564,87.836)" fill="#bcbcbc" stroke-width="3.24"><polygon class="st0" transform="matrix(.72255 0 0 .7031 -28.717 -125.97)" points="55.7 158 32.9 144.9 32.9 118.6 55.7 105.5 78.4 118.6 78.4 144.9" fill="#e09952"/></g><g transform="matrix(.15831 0 0 .15831 83.649 18.463)" fill="#005e20" fill-rule="evenodd"><g transform="matrix(1.0777,0,0,-1.0777,-10.799,451.79)"><g transform="matrix(.94489 0 0 .94489 8.6963 2.7018)" fill="#6d4013" mask="url(#c)"><path transform="rotate(35,137.93,151.55)" d="m203.46 95.688c6.9363 0 12.559-14.809 12.559-33.077s-5.623-33.077-12.559-33.077-12.559 14.809-12.559 33.077 5.623 33.077 12.559 33.077z"/><path transform="matrix(-.81915 .57358 .57358 .81915 58.085 47.705)" d="m30.142 95.688c6.9363 0 12.559-14.809 12.559-33.077s-5.623-33.077-12.559-33.077c-6.9363 0-12.559 14.809-12.559 33.077s5.623 33.077 12.559 33.077z"/><path d="m153.24 119.95c-6.9363 0-12.559-14.809-12.559-33.077s5.623-33.077 12.559-33.077c6.9363 0 12.559 14.809 12.559 33.077s-5.623 33.077-12.559 33.077z"/></g><path transform="matrix(.94489 0 0 .94489 8.6963 2.7018)" d="m251.47 173.1c-20.23-33.61-56.89-56.068-98.756-56.068-40.721 0-76.516 21.246-97.059 53.335" fill="none" mask="url(#c)" stroke="#6d4013" stroke-width="19.999"/></g></g></g></g><g transform="matrix(.060737 0 0 .060737 24.014 16.013)"><path class="cls-1" d="m-70.691 91.545a226.42 226.42 0 0 0-5.5846-33.049c-0.81152-3.3536-1.7977-4.517-5.6239-4.3057-15.578 0.85993-27.885-8.2963-32.109-23.57-0.79431-2.8721-2.2097-3.4809-4.9228-3.6194-10.846-0.5542-21.728-0.96094-32.497-2.2479-4.3132-0.5155-8.2378-0.88641-11.286 0.94776a24.335 24.335 0 0 1-7.947 8.9896 6.6627 6.6627 0 0 0 0.36548 4.9521 187.16 187.16 0 0 1 10.427 47.457 5.1282 5.1282 0 0 0 1.3622 3.4883 24.202 24.202 0 0 1 17.927 20.252 4.222 4.222 0 0 0 3.4862 1.2935c12.305 0.48279 24.603 1.8688 36.901 1.1992 2.7376-0.14911 10.826-1.1118 10.826-1.1118a24.227 24.227 0 0 1 18-17.307c0.73291-0.74868 0.82098-1.7656 0.67682-3.3691z" fill="none"/><path class="cls-1" d="m-1.874-10.791a197.61 197.61 0 0 1-8.5489-40.718 4.6576 4.6576 0 0 0-1.3433-3.3077 24.229 24.229 0 0 1-18.31-14.683 4.6216 4.6216 0 0 0-5.5983-1.5178 425.99 425.99 0 0 1-43.46 2.3754 4.1408 4.1408 0 0 0-3.9973 1.8363 24.247 24.247 0 0 1-14.569 16.087 5.1009 5.1009 0 0 0-0.836 4.7502 320.6 320.6 0 0 0 7.4641 32.694q0.0243 0.21606 0.0674 0.42944a4.9757 4.9757 0 0 0 5.8632 3.8908 30.885 30.885 0 0 1 31.716 21.36c1.1761 3.4612 2.6677 4.0292 5.7146 3.6951 10.973-1.2032 21.951-2.3663 32.942-3.3807a3.1454 3.1454 0 0 0 2.5464-1.1705h-6e-5a24.164 24.164 0 0 1 10.434-18.214 5.5077 5.5077 0 0 0-0.0852-4.1264z" fill="none"/><path d="m-165.47 108.46c-0.10156 0.0127-0.19367 0.048-0.29285 0.0669 0.14984-0.0286 0.298-0.0626 0.45185-0.0764-0.0529 5e-3 -0.10621 3e-3 -0.159 0.01z"/><path d="m-169.52 113.66 6e-5 3e-3a10.159 10.159 0 0 0 0.12616 1.5571 10.152 10.152 0 0 1-0.126-1.5571z"/><path d="m-164.38 119.24a5.9675 5.9675 0 0 1-2.5547-0.43371 5.9673 5.9673 0 0 0 2.5547 0.43371z"/><path d="m-164.27 108.46a5.4014 5.4014 0 0 1 1.0007 0.13885 5.4124 5.4124 0 0 0-1.0009-0.139 4.6522 4.6522 0 0 0-0.83221-0.0274 4.6532 4.6532 0 0 1 0.83234 0.0275z"/><path d="m-71.383 118.66-6e-5 2e-3a7.1367 7.1367 0 0 0 0.0925 1.1617 7.143 7.143 0 0 1-0.0924-1.1617z"/><path d="m-70.695 121.48c0.877 1.4125 2.6056 2.1204 5.2644 2.2121a4.9608 4.9608 0 0 0 0.54572 0.0235 4.9597 4.9597 0 0 1-0.54566-0.0235c-2.6588-0.0918-4.3874-0.79962-5.2645-2.2121z"/><path d="m-60.676 117.81c-4e-3 -0.0624-0.0234-0.11938-0.0295-0.18109a4.8497 4.8497 0 0 1 0.0284 0.79395 4.8897 4.8897 0 0 0 1e-3 -0.61286z"/><path d="m-66.59 113.24c-0.0476 3e-3 -0.0909 0.0184-0.13807 0.0226 0.11255-0.01 0.2262-0.0156 0.34-0.0204-0.0673 2e-3 -0.13467-6e-3 -0.20193-2e-3z"/><path d="m-206.57-79.895a5.3616 5.3616 0 0 1-0.93036-0.37635 5.3616 5.3616 0 0 0 0.93036 0.37635z"/><path d="m-203.46-79.541c0.11566-0.0098 0.22186-0.04492 0.33478-0.06256-0.13447 0.02106-0.26532 0.05493-0.40271 0.06445 0.0226-0.0015 0.0453 4e-5 0.0679-0.0019z"/><path d="m-41.961 120.12c0.0385-0.54468 0.0918-1.0856 0.0918-1.6401a13.761 13.761 0 0 1-0.0918 1.6401z"/><path d="m-100.97-74.084c-0.0132-0.11426-0.0514-0.2182-0.0722-0.32959 0.0236 0.12671 0.0615 0.24878 0.0751 0.37836-2e-3 -0.01624-1e-3 -0.03259-3e-3 -0.04877z"/><path d="m-159.11 114.07c2e-3 -0.0561-2e-3 -0.11078-1e-3 -0.16651-8e-4 0.0744-2e-3 0.14862-6e-3 0.22235 9.8e-4 -0.0191 7e-3 -0.0366 8e-3 -0.0558z"/><path d="m-106.38-78.376-3e-3 6e-5q-0.0635-5.5e-4 -0.12714 4.2e-4c-0.15509 0.0024-0.30072 0.03687-0.45208 0.0528a5.0393 5.0393 0 0 1 0.57922-0.0531z"/><path d="m-102.73-69.036a6.7649 6.7649 0 0 1-2.4796 1.175 6.7639 6.7639 0 0 0 2.4796-1.175z"/><path d="m-102.73-69.036a4.4912 4.4912 0 0 0 1.0898-1.2376 4.4903 4.4903 0 0 1-1.0898 1.2376z"/><path d="m-101.05-71.899a4.7671 4.7671 0 0 1-0.5857 1.6257 4.7675 4.7675 0 0 0 0.5857-1.6257z"/><path d="m-189.16 15.126v6e-5c0.0905 2.0019 0.71331 3.5921 2.0727 4.4592-1.3594-0.86713-1.9822-2.4574-2.0727-4.4593z"/><path d="m-3.1272-76.947a10.407 10.407 0 0 0 0.28327-1.0262 10.843 10.843 0 0 0 0.0176-1.189 10.842 10.842 0 0 1-0.0176 1.189 10.408 10.408 0 0 1-0.28327 1.0262z"/><path d="m-7.2434-83.909c-0.0714-0.0099-0.14191-0.01148-0.213-0.01856 0.11011 0.01093 0.21979 0.01831 0.3305 0.03607q-0.0587-0.0094-0.1175-0.01751z"/><path d="m32.688 99.778h1.2e-4a4.47 4.47 0 0 0-0.84809-0.0249c-8e-3 5.5e-4 -0.0157 3e-3 -0.024 4e-3a4.477 4.477 0 0 1 0.87195 0.0209z"/><path d="m33.306 110.51c0.0571-3e-3 0.11206-0.0133 0.16864-0.0183-0.0624 5e-3 -0.12371 0.0149-0.1867 0.0183 6e-3 -3e-4 0.012 3.1e-4 0.0181-6e-5z"/><path d="m6.9181 13.959c6e-3 0.10059 0.034 0.19342 0.0461 0.292-0.0175-0.14234-0.0416-0.28309-0.0452-0.42823 1e-3 0.0455-3e-3 0.0908-9.2e-4 0.13623z"/><path d="m38.365 104.84c-3e-3 -0.0605-0.0139-0.11877-0.0193-0.17871 6e-3 0.0665 0.0159 0.13184 0.0195 0.19892-3.7e-4 -7e-3 2.4e-4 -0.0134-1.3e-4 -0.0202z"/><path d="m11.63 18.17 2e-3 7e-5a4.423 4.423 0 0 0 0.65387 0.0613c0.0392 7.3e-4 0.0758-9e-3 0.11486-9e-3a4.4039 4.4039 0 0 1-0.76879-0.052z"/><path d="m16.782 13.903-2.4e-4 3e-3 3.1e-4 -3e-3h-7e-5q0.0358-0.32253 0.0417-0.62512-6e-3 0.30281-0.0417 0.62506z"/><path d="m84.385 93.158a4.7327 4.7327 0 0 0-0.40258-1.3372h6e-5c-1.1767-2.9912-3.6827-3.5444-6.7704-2.5981-6.2223 1.907-12.564 3.4373-18.744 5.4658a4.3678 4.3678 0 0 1-3.9454 3e-3 24.231 24.231 0 0 0-17.045-13.241 6.6315 6.6315 0 0 1-1.6234-4.1158 203.21 203.21 0 0 0-9.8964-39.329 6.5528 6.5528 0 0 1-0.4118-4.8298 24.183 24.183 0 0 0 10.368-17.456 10.398 10.398 0 0 1 6.6537-3.1201c12.607-2.4838 24.998-5.894 37.294-9.6196 3.1266-0.9472 5.2839-2.8986 4.2845-6.3936-1.0102-3.5334-3.8203-3.9576-7.0044-3.0097-1.5553 0.46307-3.1137 0.91583-4.6665 1.3867-11.438 3.4677-23.056 6.233-34.716 8.8359a4.4841 4.4841 0 0 1-3.8158-0.32995 24.013 24.013 0 0 0-24.816-14.211 4.333 4.333 0 0 1-1.7983-2.6692 269.12 269.12 0 0 1-8.0962-37.59 5.8616 5.8616 0 0 1 0.91351-4.7795 24.208 24.208 0 0 0 16.216-20.694l63.618-16.363c3.2098-0.98322 5.0863-3.0133 4.1328-6.4799-0.94733-3.4451-3.8107-3.3854-6.6488-2.9551a15.625 15.625 0 0 0-2.0774 0.634 556.87 556.87 0 0 1-57.006 13.531 6.3636 6.3636 0 0 1-3.9074-0.11084 24.286 24.286 0 0 0-14.728-13.39c-0.15485-0.0503-0.31556-0.0865-0.47162-0.13379 0.18677-1.2368 1.6506-10.93 2.163-14.257a169.8 169.8 0 0 1 11.508-43.525c1.3497-3.0764 1.3227-5.707-1.9925-7.3185-3.4373-1.6712-5.4468 0.24286-6.8551 3.1767-0.46979 0.97827-0.89929 1.9766-1.3266 2.9746-7.5231 17.567-10.474 35.956-14.21 54.858a5.6994 5.6994 0 0 1-1.619 3.656 24.21 24.21 0 0 0-18.488 19.739 3.8917 3.8917 0 0 1-3.5673 1.7244c-11.763 0.7381-23.514 1.6579-35.269 2.5124l-5.449 0.0445a7.3914 7.3914 0 0 1-7.4306-2.0263 24.251 24.251 0 0 0-16.607-16.311 4.9516 4.9516 0 0 1-0.83588-4.2441c0.91833-5.7089 1.5848-11.462 2.6415-17.144a182.31 182.31 0 0 1 12.765-41.889c1.4642-3.2448 0.90558-5.696-2.295-7.1966-3.1926-1.4967-5.134 0.34027-6.5131 3.0117-0.57916 1.1218-1.042 2.3045-1.5381 3.4678a191.13 191.13 0 0 0-14.482 59.216 7.5095 7.5095 0 0 1-1.5138 4.4409 24.248 24.248 0 0 0-17.742 16.097c-3.9609 2.2073-9.1891 1.0007-14.084 0.91742-0.90576-0.01526-1.8104-0.12122-2.7145-0.19782a4.7468 4.7468 0 1 0-0.69885 9.4455c4.6996 0.35223 9.3892 0.85412 14.092 1.1404a4.3178 4.3178 0 0 1 2.6663 0.86847 24.213 24.213 0 0 0 20.543 19.259 4.2889 4.2889 0 0 1 1.2935 2.9037 211.98 211.98 0 0 0 8.5378 37.457 4.1483 4.1483 0 0 1-1.7609 5.596q-0.105 0.0546-0.21289 0.10333a27.54 27.54 0 0 0-12.026 16.819c-0.74457 3.257-2.1669 3.9423-5.2012 3.8039-12.319-0.56171-24.61-1.4102-36.88-2.6627a5.0383 5.0383 0 0 1-4.3059-2.0783 24.168 24.168 0 0 0-26.114-22.051q-0.212 0.0179-0.4237 0.0395c-1.5252-0.7085-2.1788-2.1024-2.7755-4.1965a275.48 275.48 0 0 1-8.0061-37.048c-0.59277-4.2001-1.2777-8.1925 0.65564-11.05a23.478 23.478 0 0 0 13.332-10.916 69.418 69.418 0 0 1 14.615-0.4101c2.9134 0.108 5.0365-0.88409 5.5734-3.8104 0.60694-3.307-1.4018-5.1288-4.3964-5.7513a50.541 50.541 0 0 0-8.62-1.1552c-2.1872-0.0697-3.551-0.61358-4.3079-2.1286a23.153 23.153 0 0 0-2.067-7.8565 21.989 21.989 0 0 0-12.337-12.434 3.8399 3.8399 0 0 1-2.6902-4.7173q0.0356-0.13009 0.0803-0.25744a209.53 209.53 0 0 1 5.3735-24.881 192.1 192.1 0 0 1 8.7299-24.459 4.4817 4.4817 0 0 0-2.1514-6.3897 4.4185 4.4185 0 0 0-6.4128 2.097 38.988 38.988 0 0 0-2.531 5.3918 205.35 205.35 0 0 0-12.836 47.495c-0.4222 2.6821-1.1097 3.9531-3.9052 4.6732a19.606 19.606 0 0 0-12.75 9.4738c-2.0423 3.7783-4.3714 3.3562-7.5319 2.3175-7.0474-2.3162-14.115-4.5818-21.239-6.6464-2.8209-0.81738-6.035-1.2676-7.2105 2.5635-1.1508 3.7502 0.91346 5.7218 4.35 6.7624 7.9595 2.4101 15.855 5.0446 23.871 7.2459a4.3025 4.3025 0 0 1 3.8072 4.1506 22.64 22.64 0 0 0 12.699 17.708 23.209 23.209 0 0 0 4.7927 2.0494 6.7392 6.7392 0 0 1 2.8156 5.9295 197.76 197.76 0 0 0 8.2244 41.943 15.223 15.223 0 0 1 1.0277 8.8989 24.278 24.278 0 0 0-8.084 10.328 5.1463 5.1463 0 0 1-3.6797 0.13116 430.93 430.93 0 0 1-41.795-11.668c-3.3544-1.1329-6.6648-1.8023-8.0136 2.4366-1.3076 4.1096 1.5243 5.6535 4.9836 6.8389a414.24 414.24 0 0 0 41.776 11.722c1.798 0.4123 3.8102 0.31788 5.0478 2.0705a24.207 24.207 0 0 0 24.053 21.769c0.65577 0 1.2999-0.047 1.9426-0.0984a3.3623 3.3623 0 0 1 2.2258 2.4491 206.56 206.56 0 0 1 10.538 45.31 5.12 5.12 0 0 1-0.6629 3.9764 24.248 24.248 0 0 0-16.484 13.759c-3.4556 1.9186-7.7703 0.48651-12.044-0.35138-2.6599-0.52154-5.2803-1.2413-7.9366-1.7833a350.23 350.23 0 0 1-46.519-12.787c-3.0104-1.0614-5.5292-0.69928-6.7947 2.3357-1.3593 3.2605 0.18182 5.5834 3.3124 6.8974 0.9992 0.41943 2.0648 0.67962 3.0947 1.0287a406.27 406.27 0 0 0 60.463 15.212 6.9087 6.9087 0 0 1 4.5814 2.2363 24.208 24.208 0 0 0 15.743 19.643c1.5675 1.8552 1.4617 4.1701 0.733 7.2781a281.49 281.49 0 0 1-8.22 31.427c-1.0218 2.8402-1.0859 5.9517 2.5796 7.2197 3.8921 1.3464 5.6309-1.1526 6.8243-4.3019 0.31946-0.843 0.69635-1.6692 0.95-2.5314a227.75 227.75 0 0 0 8.0071-34.282 6.2247 6.2247 0 0 1 1.3405-3.7007 24.217 24.217 0 0 0 18.491-15.01 4.7586 4.7586 0 0 1 4.1549-1.1869 421 421 0 0 0 45.114 1.7714 4.5922 4.5922 0 0 1 3.2999 0.97779 24.235 24.235 0 0 0 15.433 16.927 3.8204 3.8204 0 0 1 0.31452 3.2048 257.65 257.65 0 0 1-7.7322 29.883c-1.1741 3.2992-2.0868 6.5981 2.122 8.1631 4.0701 1.5136 5.7789-1.1548 6.9894-4.6332a195.12 195.12 0 0 0 7.9622-30.907 7.2042 7.2042 0 0 1 2.1512-4.6559 24.073 24.073 0 0 0 11.59-5.2288 15.699 15.699 0 0 0 2.1634-2.059 24.115 24.115 0 0 0 6.0446-11.419c0.0726-0.33386 0.10834-0.67993 0.16761-1.0185l13.653-2.8296a4.4684 4.4684 0 0 0 3.8586-5.0044q-6e-3 -0.0464-0.013-0.0927a4.1278 4.1278 0 0 0-4.6625-4.2002c-3.2618 0.0829-6.5283 0.527-9.7557 0.66309-2.6856 0.11328-3.0776 0.28284-4.0419-0.56573a24.241 24.241 0 0 0-16.462-15.387 3.6178 3.6178 0 0 1-1.1653-2.6498 193.64 193.64 0 0 0-6.8605-39.426c-0.59167-1.9947 0.23474-2.8972 1.7806-3.9296a30.527 30.527 0 0 0 13.589-20.117 3.4507 3.4507 0 0 1 3.5004-3.4004q0.14063 2e-3 0.28076 0.0155 16.799-1.2884 33.545-3.2315a6.2889 6.2889 0 0 1 4.9689 0.96747 24.041 24.041 0 0 0 24.556 13.879 5.3458 5.3458 0 0 1 2.1336 3.1183 266.28 266.28 0 0 1 9.8577 38.83 3.0121 3.0121 0 0 1-0.523 2.7315 24.222 24.222 0 0 0-17.264 20.788c-2.6387 3.1564-6.8906 3.6511-11.507 4.1506-1.6235 0.1756-3.2597 0.29017-4.8636 0.57874-3.2253 0.58014-5.4702 2.1461-4.9103 5.8417 0.53357 3.523 3.1564 4.1743 6.1044 3.8163 4.4895-0.54511 8.9765-1.1816 13.418-2.022a5.5748 5.5748 0 0 1 3.9379 0.26068 24.271 24.271 0 0 0 14.819 12.891 7.1486 7.1486 0 0 1 0.59516 5.9771 238.12 238.12 0 0 1-10.086 42.088 4.4427 4.4427 0 0 0 2.7244 6.1822 4.5845 4.5845 0 0 0 6.4977-2.9883c0.28455-0.663 0.5885-1.3219 0.81385-2.0056a221.08 221.08 0 0 0 9.8261-43.825 7.1303 7.1303 0 0 1 2.0398-4.9914 24.189 24.189 0 0 0 18.752-22.257 5.3544 5.3544 0 0 1 3.6636-2.3273c6.6533-1.7242 13.269-3.6093 19.846-5.605a4.7326 4.7326 0 0 0 4.0027-5.3638zm-288.87-163.97q-0.0585 2.7e-4 -0.11706 6e-5a13.865 13.865 0 1 1 13.913-13.817q1.8e-4 0.04065 6e-5 0.08124a13.766 13.766 0 0 1-13.796 13.735zm162.61 189.29c0 0.55456-0.0533 1.0954-0.0918 1.6401a13.761 13.761 0 0 0 0.0918-1.6401zm34.192-211.03a13.889 13.889 0 1 1-13.895 13.883 13.888 13.888 0 0 1 13.895-13.883zm-98.091 33.33a13.946 13.946 0 0 1-14.298-13.584q-8e-3 -0.31008-1e-3 -0.6203a13.945 13.945 0 1 1 14.299 14.204zm-78.152 88.075a14.156 14.156 0 0 1-13.972-13.784 13.833 13.833 0 0 1 13.527-14.109q0.0578-7.3e-4 0.11554-1e-3a13.728 13.728 0 0 1 13.793 13.663 13.998 13.998 0 0 1-13.463 14.231zm19.282 98.956a13.925 13.925 0 0 1-13.661-13.999 14.085 14.085 0 0 1 13.979-13.759 13.881 13.881 0 0 1-0.31769 27.758zm75.272-15.588s-8.0882 0.96265-10.826 1.1118c-12.298 0.66968-24.595-0.71637-36.901-1.1992a4.222 4.222 0 0 1-3.4862-1.2935 24.202 24.202 0 0 0-17.927-20.252 5.1282 5.1282 0 0 1-1.3622-3.4883 187.16 187.16 0 0 0-10.427-47.457 6.6627 6.6627 0 0 1-0.36548-4.9521 24.335 24.335 0 0 0 7.947-8.9896c3.0486-1.8342 6.9732-1.4633 11.286-0.94776 10.769 1.287 21.651 1.6937 32.497 2.2479 2.7131 0.13855 4.1285 0.74737 4.9228 3.6194 4.2239 15.274 16.531 24.43 32.109 23.57 3.8262-0.21124 4.8124 0.95209 5.6239 4.3057a226.42 226.42 0 0 1 5.5846 33.049c0.14416 1.6035 0.0561 2.6204-0.67682 3.3691a24.227 24.227 0 0 0-18 17.307zm23.359-7.3694 0.11035-1e-3a13.711 13.711 0 0 1 13.807 13.614 14.202 14.202 0 0 1-13.916 13.878 14.425 14.425 0 0 1-13.989-13.871 13.906 13.906 0 0 1 13.988-13.621zm4.3658-80.793a21.218 21.218 0 0 1-22.022 20.383q-0.15673 2e-3 -0.31348 8e-4a21.495 21.495 0 0 1-21.391-21.598q-4e-3 -0.23072-2e-3 -0.46155a21.762 21.762 0 0 1 21.89-21.633q0.4107-6e-3 0.82141 3e-3a21.518 21.518 0 0 1 21.028 21.997q0.0151 0.65473-0.0102 1.3093zm49.42-12.51h6e-5a3.1454 3.1454 0 0 1-2.5464 1.1705c-10.991 1.0144-21.969 2.1776-32.942 3.3807-3.0469 0.33417-4.5385-0.23383-5.7146-3.6951a30.885 30.885 0 0 0-31.716-21.36 4.9757 4.9757 0 0 1-5.8632-3.8908q-0.0431-0.21313-0.0674-0.42944a320.6 320.6 0 0 1-7.4641-32.694 5.1009 5.1009 0 0 1 0.836-4.7502 24.247 24.247 0 0 0 14.569-16.087 4.1408 4.1408 0 0 1 3.9973-1.8363 425.99 425.99 0 0 0 43.46-2.3754 4.6216 4.6216 0 0 1 5.5983 1.5178 24.229 24.229 0 0 0 18.31 14.683 4.6576 4.6576 0 0 1 1.3433 3.3077 197.61 197.61 0 0 0 8.5489 40.718 5.5077 5.5077 0 0 1 0.0852 4.1264 24.164 24.164 0 0 0-10.434 18.214zm23.987 15.45a13.731 13.731 0 0 1-13.63-13.831q-6e-3 -0.32592 3e-3 -0.65179a13.384 13.384 0 0 1 13.769-12.988q0.28728-6e-3 0.57464 7.3e-4a13.422 13.422 0 0 1 13.114 13.723q9e-5 0.0582-3e-4 0.11646a13.731 13.731 0 0 1-13.831 13.63zm34.813 78.322a13.925 13.925 0 1 1 1e-3 -0.18994q1.6e-4 0.0949-9.9e-4 0.18992z" fill="#6d4013"/><path d="m16.824 13.278a5.3155 5.3155 0 0 0-0.21362-1.6531 4.7579 4.7579 0 0 0-0.66754-1.3665 5.7773 5.7773 0 0 0-0.66291-0.78125 9.3246 9.3246 0 0 0-1.756-1.3309c-0.33355-0.202-0.68536-0.396-1.0519-0.585q-0.27494-0.14174-0.56036-0.28016c-2.3634 1.1603-4.7246 2.4024-4.915 5.5579l-2.4e-4 2e-3a4.4657 4.4657 0 0 0-0.0759 0.79376c-1e-3 0.0633-3e-3 0.126-1e-3 0.1889 4e-3 0.14514 0.0277 0.28589 0.0452 0.42823a4.4412 4.4412 0 0 0 0.0768 0.486c0.0326 0.137 0.0797 0.26868 0.12481 0.40124 0.0476 0.13959 0.093 0.27845 0.15381 0.41211 0.0608 0.13366 0.135 0.2602 0.20844 0.387 0.0705 0.12158 0.13916 0.24255 0.22064 0.35693 0.0832 0.11682 0.17792 0.22449 0.272 0.333 0.0946 0.109 0.18787 0.21722 0.293 0.31695 0.101 0.0958 0.212 0.18109 0.322 0.26746a4.3928 4.3928 0 0 0 0.35474 0.26062c0.12292 0.0781 0.25488 0.14313 0.38629 0.20941 0.12531 0.0632 0.248 0.128 0.38056 0.17963a4.5214 4.5214 0 0 0 0.47015 0.14355c0.13867 0.0372 0.2749 0.0806 0.41827 0.10443 0.062 0.0103 0.12433 0.0173 0.18665 0.025a4.4576 4.4576 0 0 0 0.79724 0.0353h2e-3a4.4039 4.4039 0 0 0 0.76879 0.052 4.3412 4.3412 0 0 0 0.47559-0.0388c0.13446-0.0156 0.27-0.026 0.40118-0.0537a4.332 4.332 0 0 0 0.42365-0.12268c0.13458-0.0429 0.27093-0.0814 0.40015-0.13672 0.12823-0.055 0.24713-0.12488 0.36926-0.19147 0.1264-0.0689 0.25488-0.13415 0.37384-0.2149 0.11609-0.0788 0.2204-0.17127 0.32855-0.26074 0.10815-0.0895 0.21918-0.17572 0.31867-0.27546 0.10125-0.10138 0.18841-0.21484 0.27966-0.32611 0.0883-0.10766 0.17969-0.21228 0.25781-0.32855 0.0779-0.11609 0.14069-0.24182 0.20776-0.3659a4.3393 4.3393 0 0 0 0.20032-0.39539c0.0512-0.123 0.0864-0.25317 0.12671-0.38208a4.1928 4.1928 0 0 0 0.21869-1.2241l2.4e-4 -3e-3q0.0359-0.32257 0.0418-0.6251z" fill="#6d4013"/><g fill="none" stroke-width="0"><path class="cls-2" d="m13.7 18.007a4.332 4.332 0 0 1-0.42365 0.12268"/><path class="cls-2" d="m16.028 16.273c0.0779-0.11609 0.14069-0.24182 0.20776-0.3659"/><path class="cls-2" d="m9.7574 17.862c-0.13257-0.0516-0.25525-0.11646-0.38056-0.17963"/><path class="cls-2" d="m15.491 16.928c0.10125-0.10138 0.18841-0.21484 0.27966-0.32611"/><path class="cls-2" d="m8.3138 16.945c-0.1051-0.0997-0.19836-0.20794-0.293-0.31695"/><path class="cls-2" d="m16.563 15.13c-0.0403 0.12891-0.0756 0.25909-0.12671 0.38208"/><path class="cls-2" d="m8.9905 17.473a4.3928 4.3928 0 0 1-0.35474-0.26062"/><path class="cls-2" d="m15.172 17.203c-0.10815 0.0895-0.21246 0.18194-0.32855 0.26074"/><path class="cls-2" d="m12.4 18.222a4.3412 4.3412 0 0 0 0.47559-0.0388"/></g><path d="m10.511 18.092c0.0447 9e-3 0.0903 0.0106 0.13525 0.0181-0.14337-0.0238-0.2796-0.0672-0.41827-0.10443 0.096 0.0258 0.18408 0.0668 0.28302 0.0864z"/><path class="cls-2" d="m14.47 17.679c-0.12213 0.0666-0.241 0.13648-0.36926 0.19147" fill="none" stroke-width="0"/><path d="m16.721 14.557a4.421 4.421 0 0 0 0.0611-0.6513 4.4137 4.4137 0 0 1-0.0915 0.7619c7e-3 -0.0382 0.0239-0.0721 0.0305-0.1106z"/><g fill="none" stroke-width="0"><path class="cls-2" d="m7.3197 15.551c-0.0609-0.13366-0.10626-0.27252-0.15381-0.41211"/><path class="cls-2" d="m6.9643 14.251a4.4412 4.4412 0 0 0 0.0768 0.486"/><path class="cls-2" d="m13.524 8.146a9.3246 9.3246 0 0 1 1.756 1.3309"/><path class="cls-2" d="m6.9191 13.823c-2e-3 -0.0629 1.8e-4 -0.12555 1e-3 -0.1889"/><path class="cls-2" d="m7.7488 16.295c-0.0815-0.11438-0.15015-0.23535-0.22064-0.35693"/><path class="cls-2" d="m15.943 10.258a4.7579 4.7579 0 0 1 0.66754 1.3665"/></g><path d="m16.61 11.625a5.3155 5.3155 0 0 1 0.21362 1.6531 5.3155 5.3155 0 0 0-0.21362-1.6531z"/><path class="cls-2" d="m15.28 9.4769a5.7773 5.7773 0 0 1 0.66291 0.78125" fill="none" stroke-width="0"/><path d="m11.911 7.2808h-6e-5c-2.3634 1.1603-4.7247 2.4022-4.915 5.5579l-1.8e-4 2e-3 2.4e-4 -2e-3c0.19045-3.1556 2.5516-4.3976 4.915-5.5579z"/><path class="cls-2" d="m11.63 18.17a4.4576 4.4576 0 0 1-0.79724-0.0353" fill="#6f6f0c" stroke-width="0"/><path d="m-159.23 112.76c-9e-3 -0.0425-0.0173-0.0847-0.027-0.12677a5.3543 5.3543 0 0 0-0.27148-0.84576c-0.0174-0.0418-0.0351-0.0828-0.0535-0.12409a5.3708 5.3708 0 0 0-0.41626-0.76391c-0.0247-0.0377-0.0503-0.074-0.0759-0.111a5.416 5.416 0 0 0-0.54847-0.67285c-0.0287-0.0299-0.0587-0.0577-0.0881-0.087a5.4108 5.4108 0 0 0-0.67242-0.57007c-0.0285-0.0203-0.0581-0.0381-0.0869-0.0578a5.3744 5.3744 0 0 0-0.78949-0.45007c-0.0239-0.011-0.0488-0.0195-0.0728-0.0302a5.3504 5.3504 0 0 0-0.89838-0.30761c-0.0156-4e-3 -0.0317-6e-3 -0.0474-9e-3a5.4014 5.4014 0 0 0-1.0007-0.13885l-1.2e-4 -7e-5a4.6532 4.6532 0 0 0-0.83234-0.0275c-0.0691 3e-3 -0.13751 6e-3 -0.206 0.0123-0.15381 0.0138-0.302 0.0478-0.45185 0.0764a4.6397 4.6397 0 0 0-0.49591 0.11328c-0.141 0.0435-0.27594 0.10035-0.41144 0.15668-0.14117 0.0587-0.28119 0.11615-0.4154 0.18805-0.13562 0.0727-0.26331 0.15759-0.39087 0.2431-0.12109 0.0812-0.241 0.16132-0.354 0.25342-0.11682 0.0952-0.22406 0.20105-0.33129 0.30713-0.10627 0.10523-0.21088 0.20978-0.307 0.32507-0.0936 0.11243-0.17627 0.23383-0.25934 0.35517-0.0859 0.12567-0.17065 0.25024-0.24438 0.38476-0.0734 0.1341-0.13379 0.27619-0.19416 0.41846-0.0567 0.13348-0.11413 0.265-0.15857 0.40509a4.7134 4.7134 0 0 0-0.119 0.49939c-0.0297 0.14813-0.0647 0.29443-0.0798 0.44659-7e-3 0.0694-0.0106 0.139-0.0144 0.20862a4.6416 4.6416 0 0 0 0.0195 0.82776l1.8e-4 3e-3a10.152 10.152 0 0 0 0.126 1.5571 5.8749 5.8749 0 0 0 0.62524 1.9001 3.9574 3.9574 0 0 0 0.72809 0.95209 3.7114 3.7114 0 0 0 0.46271 0.37537 3.9539 3.9539 0 0 0 0.64526 0.35791 5.9675 5.9675 0 0 0 2.5547 0.43371l-1.2e-4 -6e-5a5.4036 5.4036 0 0 0 1.0039-0.11957c0.0153-3e-3 0.0313-5e-3 0.0466-8e-3a5.34 5.34 0 0 0 0.90588-0.29078c0.0235-0.01 0.048-0.0178 0.0714-0.028a5.3609 5.3609 0 0 0 0.801-0.43634c0.0279-0.0183 0.0568-0.035 0.0843-0.0538a5.3928 5.3928 0 0 0 0.68683-0.55982c0.0287-0.0274 0.0582-0.0539 0.0863-0.082a5.4086 5.4086 0 0 0 0.56506-0.66668c0.0248-0.0344 0.0499-0.0686 0.074-0.10364a5.3853 5.3853 0 0 0 0.43463-0.76245q0.0268-0.0573 0.0524-0.11524a5.3443 5.3443 0 0 0 0.29041-0.84808c0.01-0.0391 0.0186-0.0786 0.0276-0.1181a5.3654 5.3654 0 0 0 0.12707-0.91584c4e-3 -0.0737 5e-3 -0.14795 6e-3 -0.22235 8.5e-4 -0.0795 4.3e-4 -0.15863-2e-3 -0.23736a5.4053 5.4053 0 0 0-0.10843-0.90996z" fill="#6d4013"/><g fill="none" stroke-width="0"><path class="cls-2" d="m-169.54 112.83a4.6416 4.6416 0 0 0 0.0195 0.82776"/><path class="cls-2" d="m-159.62 116.13a5.3853 5.3853 0 0 1-0.43463 0.76245"/><path class="cls-2" d="m-159.28 115.16a5.3443 5.3443 0 0 1-0.29041 0.84808"/></g><path d="m-169.51 112.46c-7e-3 0.0522-6e-3 0.105-0.0109 0.1574 0.0151-0.15216 0.0502-0.29846 0.0798-0.44659-0.0196 0.098-0.0554 0.18878-0.0689 0.28919z"/><g fill="none" stroke-width="0"><path class="cls-2" d="m-162.42 118.82a5.34 5.34 0 0 1-0.90588 0.29078"/><path class="cls-2" d="m-160.78 117.74a5.3928 5.3928 0 0 1-0.68683 0.55982"/><path class="cls-2" d="m-160.13 116.99a5.4086 5.4086 0 0 1-0.56506 0.66668"/><path class="cls-2" d="m-159.12 114.13a5.3654 5.3654 0 0 1-0.12707 0.91584"/><path class="cls-2" d="m-161.55 118.35a5.3609 5.3609 0 0 1-0.801 0.43634"/><path class="cls-2" d="m-160.62 110.12c-0.0287-0.0299-0.0587-0.0577-0.0881-0.087"/><path class="cls-2" d="m-161.38 109.46c-0.0285-0.0203-0.0581-0.0381-0.0869-0.0578"/><path class="cls-2" d="m-163.27 108.6c0.0156 4e-3 0.0318 5e-3 0.0474 9e-3"/><path class="cls-2" d="m-165.11 108.44c-0.0691 3e-3 -0.13751 6e-3 -0.206 0.0123"/><path class="cls-2" d="m-162.33 108.92c0.0241 0.0106 0.0489 0.0192 0.0728 0.0302"/><path class="cls-2" d="m-159.52 111.79c-0.0174-0.0418-0.0351-0.0828-0.0535-0.12409"/><path class="cls-2" d="m-159.23 112.76c-9e-3 -0.0425-0.0173-0.0847-0.027-0.12677"/></g><path d="m-159.12 113.67c3e-3 0.0787 3e-3 0.15783 2e-3 0.23736 6.1e-4 -0.0595 6e-3 -0.11773 5e-3 -0.17767-4.5e-4 -0.0204-7e-3 -0.0393-7e-3 -0.0597z"/><path class="cls-2" d="m-169.33 111.68c0.0444-0.14007 0.10187-0.27161 0.15857-0.40509" fill="none" stroke-width="0"/><path d="m-164.38 119.24h1.2e-4a5.4102 5.4102 0 0 0 1.0037-0.11963 5.4036 5.4036 0 0 1-1.0039 0.11957z"/><g fill="none" stroke-width="0"><path class="cls-2" d="m-159.99 110.9c-0.0247-0.0377-0.0503-0.074-0.0759-0.111"/><path class="cls-2" d="m-168.73 110.47c-0.0859 0.12567-0.17065 0.25024-0.24438 0.38476"/><path class="cls-2" d="m-167.83 109.48c0.113-0.0921 0.23292-0.17224 0.354-0.25342"/><path class="cls-2" d="m-165.76 108.53a4.6397 4.6397 0 0 0-0.49591 0.11328"/><path class="cls-2" d="m-166.67 108.8c-0.14117 0.0587-0.28119 0.11615-0.4154 0.18805"/></g><path class="cls-2" d="m-168.16 109.79c-0.10627 0.10523-0.21088 0.20978-0.307 0.32507" fill="#6f6f0c" stroke-width="0"/><path d="m-179.8 12.019c-0.0395-0.0862-0.0658-0.18463-0.10974-0.26679a4.1537 4.1537 0 0 0-0.30328-0.48468 4.5481 4.5481 0 0 0-3.8397-1.7094 6.1394 6.1394 0 0 0-2.3237 0.35389 3.809 3.809 0 0 0-1.9314 1.6378 5.7285 5.7285 0 0 0-0.73041 2.1181 9.9497 9.9497 0 0 0-0.12292 1.4579c0.0905 2.0019 0.71331 3.5922 2.0727 4.4593a4.5059 4.5059 0 0 0 1.6125 0.61462 6.7064 6.7064 0 0 0 1.1593 0.10816v-1.2e-4a4.6766 4.6766 0 0 0 4.0088-1.6169 4.1376 4.1376 0 0 0 0.31909-0.47869 5.5819 5.5819 0 0 0 0.64471-1.9852 9.2247 9.2247 0 0 0 0.101-1.4339 7.9989 7.9989 0 0 0-0.14978-1.5001 5.8227 5.8227 0 0 0-0.40715-1.274z" fill="#6d4013"/><path d="m-184.32 20.308v1.2e-4a4.6764 4.6764 0 0 0 4.0088-1.617 4.6766 4.6766 0 0 1-4.0088 1.6169z"/><g fill="none" stroke-width="0"><path class="cls-2" d="m-179.99 18.212a4.1376 4.1376 0 0 1-0.31909 0.47869"/><path class="cls-2" d="m-186.38 9.9124a6.1394 6.1394 0 0 1 2.3237-0.35389"/><path class="cls-2" d="m-179.35 16.227a9.2247 9.2247 0 0 0 0.101-1.4339"/></g><path d="m-180.21 11.268a4.5477 4.5477 0 0 0-3.8397-1.7094 4.5481 4.5481 0 0 1 3.8397 1.7094z"/><g fill="none" stroke-width="0"><path class="cls-2" d="m-180.21 11.268a4.1537 4.1537 0 0 1 0.30328 0.48468"/><path class="cls-2" d="m-188.31 11.55a3.809 3.809 0 0 1 1.9314-1.6378"/><path class="cls-2" d="m-179.24 14.793a7.9989 7.9989 0 0 0-0.14978-1.5001"/></g><path d="m-179.8 12.019a5.8227 5.8227 0 0 1 0.40711 1.274 5.8227 5.8227 0 0 0-0.40711-1.274z"/><path class="cls-2" d="m-189.16 15.126a9.9497 9.9497 0 0 1 0.12292-1.4579" fill="#6f6f0c" stroke-width="0"/><path d="m-200.81-88.574a4.8231 4.8231 0 0 0-0.85651-0.41724 6.5463 6.5463 0 0 0-0.985-0.27954 8.9721 8.9721 0 0 0-1.094-0.15112q-0.28556-0.02251-0.58179-0.03033a9.7727 9.7727 0 0 0-1.1931 0.07971 5.9961 5.9961 0 0 0-2.0028 0.59552c-1.4364 0.75189-2.2586 2.1649-2.2218 4.4052a5.0186 5.0186 0 0 0 0.83221 2.9152 3.7181 3.7181 0 0 0 0.77069 0.79071 4.2926 4.2926 0 0 0 0.643 0.394 5.3616 5.3616 0 0 0 0.93036 0.37635 8.756 8.756 0 0 0 2.025 0.32232 4.8123 4.8123 0 0 0 0.88635 0.03723c0.0445-0.0018 0.0891-6.1e-4 0.13331-0.0037 0.13739-0.0095 0.26824-0.04339 0.40271-0.06445a4.8114 4.8114 0 0 0 0.55609-0.10388c0.14459-0.04059 0.28033-0.10181 0.41961-0.1554 0.15064-0.058 0.30341-0.10882 0.44684-0.18121 0.1424-0.072 0.27307-0.163 0.40741-0.24835 0.12659-0.08057 0.25635-0.15448 0.37488-0.2464 0.12231-0.09485 0.23035-0.20618 0.34314-0.31238s0.22912-0.207 0.33142-0.324c0.0981-0.11212 0.17987-0.23822 0.26752-0.35955a4.721 4.721 0 0 0 0.27215-0.393c0.0796-0.13733 0.13965-0.28711 0.20575-0.43323 0.0619-0.13684 0.13129-0.26812 0.18061-0.412a4.8838 4.8838 0 0 0 0.13568-0.54761c0.029-0.13355 0.0705-0.26264 0.0881-0.39972 6e-3 -0.04382 7e-3 -0.08826 0.0114-0.13239a4.8041 4.8041 0 0 0 0.0145-0.88726 5.754 5.754 0 0 0-0.038-1.1531 3.5953 3.5953 0 0 0-1.7057-2.6803z" fill="#6d4013"/><g fill="none" stroke-width="0"><path class="cls-2" d="m-199.07-84.74a4.8041 4.8041 0 0 1-0.0145 0.88726"/><path class="cls-2" d="m-199.32-82.773c-0.0493 0.14392-0.11866 0.2752-0.18061 0.412"/><path class="cls-2" d="m-203.53-79.539c-0.0442 3e-3 -0.0888 0.0018-0.13331 0.0037"/></g><path d="m-199.1-83.653c3e-3 -0.02252 3e-3 -0.04535 6e-3 -0.06793-0.0176 0.13708-0.0591 0.26617-0.0881 0.39972 0.0243-0.11212 0.0657-0.21649 0.0822-0.33179z"/><g fill="none" stroke-width="0"><path class="cls-2" d="m-202.57-79.708a4.8114 4.8114 0 0 1-0.55609 0.10388"/><path class="cls-2" d="m-205.52-89.372a5.9961 5.9961 0 0 0-2.0028 0.59552"/><path class="cls-2" d="m-201.29-80.293c0.12659-0.08057 0.25635-0.15448 0.37488-0.2464"/><path class="cls-2" d="m-201.67-88.991a4.8231 4.8231 0 0 1 0.85651 0.41724"/><path class="cls-2" d="m-201.7-80.044c-0.14343 0.07239-0.2962 0.12323-0.44684 0.18121"/><path class="cls-2" d="m-200.57-80.852c0.11279-0.10626 0.22912-0.207 0.33142-0.324"/></g><path d="m-204.33-89.452a9.7717 9.7717 0 0 0-1.193 0.07971 9.7727 9.7727 0 0 1 1.1931-0.07971z" fill="#6f6f0c"/><g fill="none" stroke-width="0"><path class="cls-2" d="m-199.11-85.893a5.754 5.754 0 0 1 0.038 1.1531"/><path class="cls-2" d="m-200.81-88.574a3.5953 3.5953 0 0 1 1.7056 2.6804"/><path class="cls-2" d="m-199.7-81.928a4.721 4.721 0 0 1-0.27215 0.393"/></g><path d="m-101.04-74.413a4.8905 4.8905 0 0 0-0.12774-0.58386c-0.0462-0.14539-0.11445-0.28033-0.17365-0.41986a2.911 2.911 0 0 0-0.46918-0.85773c-0.085-0.12378-0.16211-0.25207-0.258-0.36743-0.10126-0.12183-0.21991-0.22748-0.33264-0.33911-0.11084-0.10974-0.21509-0.22455-0.33625-0.32349-0.118-0.09643-0.25073-0.17456-0.37793-0.25988a4.7932 4.7932 0 0 0-0.40436-0.262 4.9082 4.9082 0 0 0-0.45953-0.19763c-0.13721-0.05615-0.26831-0.12176-0.41193-0.16565a4.9671 4.9671 0 0 0-0.59588-0.12427c-0.12335-0.02148-0.24225-0.05737-0.36817-0.06927-0.0379-0.0036-0.0759-0.0031-0.11383-0.0057a4.886 4.886 0 0 0-0.90918 0.01325l-3e-3 1.8e-4a5.0393 5.0393 0 0 0-0.57922 0.0531 5.1754 5.1754 0 0 0-0.51557 0.06024 4.9934 4.9934 0 0 0-0.48254 0.14508c-0.15973 0.05036-0.323 0.0907-0.47559 0.15589-0.15527 0.06634-0.29718 0.15515-0.44409 0.236-0.142 0.07806-0.2887 0.14709-0.42212 0.23785-0.13806 0.094-0.26 0.20764-0.38806 0.31433-0.1239 0.10334-0.25366 0.19861-0.36731 0.313-0.11566 0.11646-0.21253 0.2497-0.31665 0.37677-0.1037 0.12659-0.21405 0.24616-0.30548 0.38245-0.0913 0.136-0.16095 0.28625-0.23908 0.43115-0.0785 0.14563-0.16491 0.28534-0.22931 0.439-0.0648 0.15455-0.10492 0.32044-0.15448 0.48224-0.0487 0.15876-0.10675 0.31263-0.14 0.47766a5.2153 5.2153 0 0 0-0.0574 0.52259 5.029 5.029 0 0 0-0.0487 0.57373v6e-5a5.5301 5.5301 0 0 0 0.28644 1.869 4.7046 4.7046 0 0 0 1.2067 1.8754 5.3768 5.3768 0 0 0 0.42292 0.3653 7.9435 7.9435 0 0 0 3.3934 1.425q0.53778-0.0898 1.0289-0.22058a6.7649 6.7649 0 0 0 2.4796-1.175 4.4903 4.4903 0 0 0 1.0898-1.2376 4.7671 4.7671 0 0 0 0.5857-1.6257 6.4074 6.4074 0 0 0 0.0906-1.1114 4.8825 4.8825 0 0 0 4e-3 -0.91425c-3e-3 -0.03674-3e-3 -0.07379-7e-3 -0.11029-0.0136-0.12968-0.0515-0.25175-0.0751-0.37846z" fill="#6d4013"/><path d="m-105.31-78.381c-0.0157-0.0016-0.0317-8.6e-4 -0.0474-0.0024 0.12592 0.0119 0.24482 0.04779 0.36817 0.06927-0.1084-0.01886-0.20966-0.05517-0.32074-0.06689z"/><g fill="none" stroke-width="0"><path class="cls-2" d="m-106.38-78.376a4.886 4.886 0 0 1 0.90918-0.01325"/><path class="cls-2" d="m-107.47-78.262a5.1754 5.1754 0 0 1 0.51557-0.06024"/><path class="cls-2" d="m-110.37-76.484c-0.1037 0.12659-0.21405 0.24616-0.30548 0.38245"/><path class="cls-2" d="m-110.91-75.67c-0.0785 0.14563-0.16491 0.28534-0.22931 0.439"/><path class="cls-2" d="m-104.39-78.19c0.14362 0.04389 0.27472 0.1095 0.41193 0.16565"/><path class="cls-2" d="m-111.44-74.271c0.0333-0.165 0.0913-0.3189 0.14-0.47766"/><path class="cls-2" d="m-109.3-77.488c0.13342-0.09076 0.28009-0.15979 0.42212-0.23785"/><path class="cls-2" d="m-109.69-77.173c-0.1239 0.10334-0.25366 0.19861-0.36731 0.313"/><path class="cls-2" d="m-108.43-77.961c0.15259-0.06519 0.31586-0.10553 0.47559-0.15589"/></g><path d="m-110.05-69.43a4.7046 4.7046 0 0 1-1.2067-1.8754 4.7046 4.7046 0 0 0 1.2067 1.8754z"/><path d="m-111.54-73.175a5.029 5.029 0 0 1 0.0487-0.57373c-0.0145 0.14959-0.0477 0.29358-0.0491 0.44671q-6.3e-4 0.06363 4.3e-4 0.12714a5.5294 5.5294 0 0 0 0.28644 1.869 5.5301 5.5301 0 0 1-0.28644-1.869z"/><path class="cls-2" d="m-109.63-69.065a5.3768 5.3768 0 0 1-0.42292-0.3653" fill="#6f6f0c" stroke-width="0"/><g fill="none" stroke-width="0"><path class="cls-2" d="m-101.54-75.865a4.8884 4.8884 0 0 1 0.19794 0.448"/><path class="cls-2" d="m-101.81-76.275c-0.085-0.12378-0.16211-0.25207-0.258-0.36743"/><path class="cls-2" d="m-101.17-74.997a4.8905 4.8905 0 0 1 0.12774 0.58386"/><path class="cls-2" d="m-100.96-73.925c-3e-3 -0.03674-3e-3 -0.07379-7e-3 -0.11029"/><path class="cls-2" d="m-103.52-77.827a4.7932 4.7932 0 0 1 0.40436 0.262"/><path class="cls-2" d="m-102.74-77.305c0.12116 0.09894 0.22541 0.21375 0.33625 0.32349"/></g><path d="m-8.3105-73.397a4.3134 4.3134 0 0 0 2.5644-0.23822 3.7585 3.7585 0 0 0 0.79-0.47479 5.1977 5.1977 0 0 0 1.445-1.8819 8.2331 8.2331 0 0 0 0.38391-0.95453 10.408 10.408 0 0 0 0.28327-1.0263 10.842 10.842 0 0 0 0.0176-1.189 6.492 6.492 0 0 0-0.38665-2.0416 3.8406 3.8406 0 0 0-1.7902-2.0754 5.673 5.673 0 0 0-2.1212-0.61212l-2e-3 -2.5e-4c-0.11071-0.01776-0.22039-0.02514-0.3305-0.03607-0.0977-0.0098-0.19537-0.021-0.29248-0.02551-0.0886-0.0041-0.17615-0.0021-0.2641-2e-3 -0.0964 1.3e-4 -0.19287-0.0011-0.28839 4e-3 -0.0888 0.0048-0.17621 0.01544-0.264 0.02448-0.0927 0.0096-0.18555 0.01764-0.277 0.0318-0.0886 0.01373-0.17554 0.033-0.26288 0.051-0.0884 0.01813-0.177 0.03485-0.264 0.05725-0.0873 0.02252-0.17261 0.05042-0.25837 0.077-0.0843 0.02618-0.16888 0.0509-0.25158 0.081-0.0848 0.03089-0.16718 0.067-0.25013 0.10187-0.0804 0.03388-0.16131 0.06628-0.23992 0.10388-0.0808 0.03858-0.15888 0.08209-0.23755 0.12451-0.0769 0.04145-0.15436 0.08161-0.22919 0.12659-0.0756 0.04553-0.14826 0.0957-0.22162 0.14472-0.0734 0.04902-0.14764 0.0971-0.21869 0.14965-0.0698 0.0517-0.13617 0.10767-0.20349 0.16254-0.0696 0.0567-0.13971 0.1123-0.20648 0.17242-0.0641 0.05762-0.12445 0.11933-0.18585 0.18-0.0642 0.06347-0.12921 0.126-0.19037 0.19262-0.0585 0.06385-0.113 0.13147-0.16858 0.19806-0.058 0.06952-0.1167 0.138-0.17133 0.21045-0.0525 0.0697-0.10064 0.143-0.15 0.2154-0.051 0.07489-0.10291 0.14868-0.15033 0.22631-0.0461 0.0755-0.0875 0.15448-0.13013 0.23255-0.0434 0.07959-0.088 0.15814-0.12762 0.24023-0.0396 0.08209-0.0739 0.16724-0.10956 0.25159-0.0349 0.08264-0.071 0.16431-0.10211 0.24914-0.0322 0.08832-0.0588 0.17957-0.0867 0.27015-0.0264 0.08581-0.0544 0.17059-0.0768 0.25836-0.0234 0.09179-0.0407 0.18628-0.0596 0.28015-0.0223 0.11078-0.0478 0.22028-0.0635 0.33374a5.7296 5.7296 0 0 0-0.0954 0.66162 4.8092 4.8092 0 0 0-0.0126 0.61572 4.0289 4.0289 0 0 0 0.19964 1.0987c0.67581 2.0258 2.919 3.0428 5.0567 3.4301z" fill="#6d4013"/><g fill="none" stroke-width="0"><path class="cls-2" d="m-11.276-82.877c0.0711-0.05255 0.1452-0.10052 0.21869-0.14965"/><path class="cls-2" d="m-11.686-82.542c0.0668-0.06012 0.1369-0.11572 0.20648-0.17242"/><path class="cls-2" d="m-12.703-81.319c0.0474-0.07763 0.0993-0.15142 0.15033-0.22631"/></g><path d="m-5.0032-83.279a5.6719 5.6719 0 0 0-2.1212-0.61218l-2e-3 -1.9e-4 2e-3 2.5e-4a5.673 5.673 0 0 1 2.1212 0.61212z"/><path class="cls-2" d="m-12.403-81.761c0.0546-0.07245 0.11335-0.14093 0.17133-0.21045" fill="none" stroke-width="0"/><path class="cls-2" d="m-12.063-82.17c0.0612-0.06665 0.12616-0.12915 0.19037-0.19262" fill="none" stroke-width="0"/><path d="m-3.213-81.204a6.492 6.492 0 0 1 0.38665 2.0416 6.4917 6.4917 0 0 0-0.38665-2.0416z"/><g fill="none" stroke-width="0"><path class="cls-2" d="m-10.369-83.423c0.0786-0.0376 0.15948-0.07 0.23992-0.10388"/><path class="cls-2" d="m-13.336-79.817c0.0224-0.08777 0.0504-0.17255 0.0768-0.25836"/><path class="cls-2" d="m-9.8793-83.628c0.0827-0.03009 0.16729-0.05481 0.25158-0.081"/><path class="cls-2" d="m-8.8425-83.895c0.0915-0.01416 0.18433-0.02222 0.277-0.0318"/><path class="cls-2" d="m-9.3694-83.786c0.087-0.0224 0.17565-0.03912 0.264-0.05725"/><path class="cls-2" d="m-10.836-83.172c0.0748-0.045 0.15228-0.08514 0.22919-0.12659"/><path class="cls-2" d="m-12.961-80.847c0.0397-0.08209 0.0842-0.16064 0.12762-0.24023"/><path class="cls-2" d="m-7.7489-83.953c0.0971 0.0045 0.19476 0.01575 0.29248 0.02551"/><path class="cls-2" d="m-13.172-80.346c0.0311-0.08483 0.0672-0.1665 0.10211-0.24914"/><path class="cls-2" d="m-8.3014-83.951c0.0955-0.0052 0.192-0.0039 0.28839-4e-3"/></g><path d="m-13.395-79.537c-0.0145 0.0719-0.034 0.1416-0.0457 0.21466q-0.01 0.05942-0.0178 0.119a5.7305 5.7305 0 0 0-0.0954 0.66168 5.7296 5.7296 0 0 1 0.0954-0.66162c0.0157-0.11344 0.0412-0.22294 0.0635-0.33372z"/><path class="cls-2" d="m-13.567-77.926a4.8092 4.8092 0 0 1 0.0126-0.61572" fill="#6f6f0c" stroke-width="0"/><path d="m38.345 104.66c-0.0104-0.116-0.0197-0.23218-0.0375-0.34607-0.0106-0.0679-0.0272-0.13366-0.0403-0.20074-0.0211-0.10767-0.0406-0.21582-0.0681-0.32123-0.0205-0.0787-0.0472-0.155-0.0712-0.23242-0.0277-0.0895-0.0532-0.17987-0.0854-0.26734-0.0326-0.0886-0.0715-0.174-0.10858-0.26031-0.0312-0.0727-0.0598-0.14661-0.0941-0.21759-0.0442-0.0915-0.0945-0.17938-0.14368-0.268-0.0347-0.0624-0.0667-0.12616-0.10376-0.18707-0.053-0.0872-0.11175-0.17035-0.16955-0.25421-0.0403-0.0585-0.0784-0.11859-0.121-0.17548-0.0584-0.0779-0.122-0.15161-0.18445-0.22625-0.0487-0.0582-0.0954-0.11792-0.14649-0.174-0.0605-0.0665-0.12567-0.12835-0.18939-0.19171-0.0592-0.0589-0.11676-0.11914-0.17871-0.17529-0.0609-0.0551-0.12591-0.10577-0.18933-0.15814-0.0703-0.058-0.13922-0.11731-0.21246-0.17182-0.0616-0.0458-0.1269-0.087-0.19055-0.13031-0.0794-0.0539-0.15754-0.10907-0.23987-0.15875-0.0659-0.0398-0.13507-0.0745-0.20282-0.11151-0.084-0.0459-0.16706-0.0934-0.25385-0.13489-0.0752-0.036-0.15368-0.0663-0.23089-0.0989-0.0824-0.0347-0.16346-0.0717-0.24793-0.10236-0.0919-0.0334-0.18677-0.0601-0.28094-0.0886-0.0732-0.0222-0.1449-0.0472-0.21942-0.0663-0.11023-0.0283-0.22358-0.0488-0.33661-0.0701-0.062-0.0117-0.12275-0.0269-0.18555-0.0365-0.11859-0.0181-0.24-0.0275-0.36115-0.0378-0.0614-5e-3 -0.1217-0.0142-0.18353-0.0173a5.3572 5.3572 0 0 0-0.57977 1e-3h-1.2e-4v6e-5a4.477 4.477 0 0 0-0.87195-0.0209 4.3863 4.3863 0 0 0-0.62152 0.10424c-0.0857 0.0185-0.17572 0.023-0.25977 0.0464a4.4023 4.4023 0 0 0-0.48419 0.186c-0.11 0.0451-0.22638 0.0764-0.332 0.12989-0.0986 0.0499-0.18476 0.11926-0.27918 0.17621a2.7614 2.7614 0 0 0-0.82538 0.64032c-0.0789 0.0776-0.16784 0.1441-0.241 0.22747a4.4832 4.4832 0 0 0-0.36029 0.50037c-0.0445 0.0676-0.1 0.1264-0.14087 0.19659-0.0644 0.11054-0.10681 0.23468-0.16181 0.35138a4.3697 4.3697 0 0 0-0.20172 0.44526c-0.0296 0.0865-0.0405 0.18151-0.0649 0.27063a4.427 4.427 0 0 0-0.13727 0.6 4.4802 4.4802 0 0 0-0.0303 0.87262c-0.0374 3.7947 1.3488 6.1033 5.0322 6.0092a5.433 5.433 0 0 0 0.57978-1e-3c0.063-3e-3 0.12433-0.0128 0.1867-0.0183 0.11975-0.0106 0.23957-0.0204 0.35706-0.0387 0.065-0.0102 0.12823-0.0261 0.1925-0.0386 0.11048-0.0214 0.2212-0.0417 0.32923-0.0698 0.0771-0.0201 0.15179-0.0463 0.22754-0.0696 0.091-0.0281 0.18286-0.0541 0.27179-0.0868 0.0878-0.0324 0.17236-0.0709 0.25793-0.1076 0.0735-0.0315 0.14813-0.0605 0.21991-0.0952 0.091-0.0439 0.17835-0.094 0.26648-0.14288 0.0629-0.0349 0.12708-0.0672 0.18835-0.10443 0.0872-0.053 0.17029-0.11188 0.25422-0.16962 0.0585-0.0403 0.11847-0.0783 0.17529-0.12079 0.0779-0.0584 0.15161-0.122 0.22632-0.18444 0.0582-0.0487 0.118-0.0955 0.17413-0.14661 0.0665-0.0605 0.1283-0.12561 0.19165-0.18933 0.0588-0.0592 0.11914-0.11676 0.17523-0.17865 0.0556-0.0614 0.10669-0.127 0.15949-0.191 0.0574-0.0696 0.11621-0.13776 0.17016-0.21027 0.0466-0.0627 0.0886-0.129 0.13251-0.19385 0.0532-0.0783 0.10761-0.15545 0.15668-0.23669 0.0407-0.0673 0.0762-0.13806 0.114-0.20727 0.045-0.0825 0.0915-0.16382 0.13226-0.249 0.037-0.0773 0.0682-0.15771 0.10157-0.23706 0.0338-0.0804 0.0698-0.15942 0.0998-0.24182 0.0342-0.0942 0.0619-0.19165 0.0909-0.28833 0.0213-0.0707 0.0455-0.13995 0.064-0.21191 0.029-0.11335 0.0503-0.22968 0.072-0.34589 0.011-0.0589 0.0255-0.11645 0.0346-0.17609 0.0187-0.12249 0.0287-0.248 0.0391-0.37329 5e-3 -0.0575 0.0134-0.11407 0.0162-0.17218 5e-3 -0.0985 1e-3 -0.19519 1e-3 -0.29266-3.1e-4 -0.0892 3e-3 -0.17908-2e-3 -0.26733-4e-3 -0.0671-0.0136-0.13243-0.0195-0.1989z" fill="#6d4013"/><g fill="none" stroke-width="0"><path class="cls-2" d="m37.601 107.92c-0.0491 0.0812-0.10352 0.15839-0.15668 0.23669"/><path class="cls-2" d="m37.312 108.35c-0.0539 0.0725-0.11273 0.14069-0.17016 0.21027"/><path class="cls-2" d="m37.848 107.46c-0.0407 0.0851-0.0873 0.16645-0.13226 0.249"/><path class="cls-2" d="m37.84 102.81c0.0343 0.071 0.0629 0.1449 0.0941 0.21759"/><path class="cls-2" d="m37.302 101.93c0.0425 0.0569 0.0807 0.117 0.121 0.17548"/><path class="cls-2" d="m36.215 109.45c-0.0568 0.0425-0.11682 0.0805-0.17529 0.12079"/><path class="cls-2" d="m35.786 109.74c-0.0613 0.0372-0.12548 0.0696-0.18835 0.10443"/><path class="cls-2" d="m38.049 106.98c-0.03 0.0824-0.066 0.16144-0.0998 0.24182"/><path class="cls-2" d="m37.593 102.36c0.0371 0.0609 0.0691 0.12463 0.10376 0.18707"/><path class="cls-2" d="m36.982 108.75c-0.0561 0.0619-0.11639 0.11944-0.17523 0.17865"/><path class="cls-2" d="m38.367 105.12c-3.1e-4 -0.0892 3e-3 -0.17908-2e-3 -0.26733"/><path class="cls-2" d="m38.308 104.31c0.0178 0.11389 0.027 0.23011 0.0375 0.34607"/></g><path d="m27.676 104.5a4.4802 4.4802 0 0 1 0.0303-0.87262c-1e-3 8e-3 -5e-3 0.0161-6e-3 0.0245a4.4649 4.4649 0 0 0-0.0248 0.84808c-0.0374 3.7947 1.3487 6.1033 5.0322 6.0092h1.4e-4c-3.6834 0.094-5.0695-2.2145-5.0322-6.0092z"/><path d="m32.708 110.51a5.3574 5.3574 0 0 0 0.57978-1e-3 5.433 5.433 0 0 1-0.57978 1e-3z"/><path class="cls-2" d="m38.043 103.29c0.0322 0.0875 0.0577 0.17786 0.0854 0.26734" fill="none" stroke-width="0"/><path d="m38.366 105.43c3.1e-4 -6e-3 -2.4e-4 -0.0117 6e-5 -0.0176-3e-3 0.0581-0.0115 0.11463-0.0162 0.17218 4e-3 -0.0519 0.0134-0.10223 0.0162-0.1546z"/><g fill="none" stroke-width="0"><path class="cls-2" d="m38.204 106.48c-0.0184 0.072-0.0427 0.14123-0.064 0.21191"/><path class="cls-2" d="m38.31 105.96c-9e-3 0.0596-0.0236 0.11719-0.0346 0.17609"/><path class="cls-2" d="m38.2 103.79c0.0275 0.10541 0.047 0.21356 0.0681 0.32123"/><path class="cls-2" d="m36.616 109.12c-0.0561 0.0511-0.11591 0.0979-0.17413 0.14661"/><path class="cls-2" d="m29.84 100.4c0.0944-0.0569 0.18061-0.12629 0.27918-0.17621"/><path class="cls-2" d="m31.195 99.862a4.3863 4.3863 0 0 1 0.62152-0.10424"/><path class="cls-2" d="m35.771 100.54c0.0823 0.0497 0.16052 0.10486 0.23987 0.15875"/><path class="cls-2" d="m36.201 100.83c0.0732 0.0545 0.14221 0.11377 0.21246 0.17182"/><path class="cls-2" d="m30.451 100.09a4.4023 4.4023 0 0 1 0.48419-0.186"/></g><path d="m33.286 99.777c-6e-3 -3e-4 -0.0119 3.7e-4 -0.0179 6e-5 0.0618 3e-3 0.12213 0.0121 0.18353 0.0173-0.0556-5e-3 -0.10951-0.0143-0.16565-0.0173z"/><g stroke-width="0"><g fill="none"><path class="cls-2" d="m34.335 99.939c0.0745 0.019 0.14624 0.0441 0.21942 0.0663"/><path class="cls-2" d="m34.836 100.09c0.0845 0.0307 0.16553 0.0676 0.24793 0.10236"/><path class="cls-2" d="m35.314 100.29c0.0868 0.0415 0.1698 0.089 0.25385 0.13489"/><path class="cls-2" d="m33.813 99.832c0.0628 0.01 0.12353 0.0248 0.18555 0.0365"/><path class="cls-2" d="m35.331 109.99c-0.0718 0.0347-0.14642 0.0637-0.21991 0.0952"/><path class="cls-2" d="m34.354 110.35c-0.108 0.0281-0.21875 0.0484-0.32923 0.0698"/><path class="cls-2" d="m34.853 110.19c-0.0889 0.0327-0.18079 0.0587-0.27179 0.0868"/><path class="cls-2" d="m29.014 101.04a4.4823 4.4823 0 0 1 0.37909-0.35718"/><path class="cls-2" d="m36.971 101.53c0.0511 0.0561 0.0978 0.11579 0.14649 0.174"/><path class="cls-2" d="m27.844 103.03c0.0244-0.0891 0.0353-0.18409 0.0649-0.27063"/><path class="cls-2" d="m36.603 101.16c0.062 0.0562 0.11951 0.11639 0.17871 0.17529"/><path class="cls-2" d="m28.11 102.32c0.055-0.1167 0.0974-0.24084 0.16181-0.35138"/></g><path class="cls-2" d="m33.832 110.46c-0.11749 0.0183-0.23731 0.0281-0.35706 0.0387" fill="#6f6f0c"/><path class="cls-2" d="m28.413 101.77a4.4832 4.4832 0 0 1 0.36029-0.50037" fill="none"/></g><path d="m-71.383 118.66a7.143 7.143 0 0 0 0.0924 1.1617 4.509 4.509 0 0 0 0.59607 1.6506c0.877 1.4125 2.6057 2.1203 5.2645 2.2121a4.9597 4.9597 0 0 0 0.54566 0.0235 4.0604 4.0604 0 0 0 0.98895-0.13117 3.5054 3.5054 0 0 0 1.2305-0.59924 3.8743 3.8743 0 0 0 0.6546-0.6344 4.7782 4.7782 0 0 0 0.52417-0.79559 6.9407 6.9407 0 0 0 0.64319-1.8859c0.0122-0.0613 0.0241-0.12274 0.0351-0.18493a9.9698 9.9698 0 0 0 0.12507-0.9975c1e-3 -0.0192 4e-3 -0.0375 6e-3 -0.0567a4.8497 4.8497 0 0 0-0.0284-0.79395 4.7827 4.7827 0 0 0-0.0829-0.50873c-0.0312-0.15033-0.0625-0.30041-0.1073-0.44555a4.8008 4.8008 0 0 0-0.17181-0.45362c-0.0611-0.1444-0.12232-0.28863-0.1966-0.42572-0.0741-0.13684-0.15912-0.2644-0.2456-0.39312-0.088-0.13074-0.17621-0.26105-0.27613-0.38257-0.0989-0.1203-0.20727-0.22955-0.3172-0.33985-0.10919-0.10968-0.21868-0.21868-0.338-0.31768-0.12146-0.10077-0.251-0.189-0.38214-0.2779-0.12769-0.0865-0.25549-0.17224-0.39166-0.24664-0.13721-0.075-0.28046-0.13654-0.4256-0.19836a4.8057 4.8057 0 0 0-0.45239-0.17316c-0.14533-0.0453-0.29474-0.0772-0.4458-0.10907a5.209 5.209 0 0 0-1.3019-0.11591 4.3002 4.3002 0 0 0-0.54749-6e-3c-0.11377 5e-3 -0.22742 0.0104-0.34 0.0204a5.0068 5.0068 0 0 0-0.54406 0.0892c-0.15479 0.0309-0.31128 0.0567-0.46106 0.10144a5.0292 5.0292 0 0 0-0.47736 0.18133c-0.15173 0.0626-0.30554 0.12061-0.44989 0.197-0.14325 0.0759-0.27453 0.16761-0.40954 0.25641-0.13941 0.0916-0.28119 0.17969-0.41083 0.28431-0.12671 0.10217-0.23871 0.2185-0.35523 0.33221-0.1167 0.114-0.23639 0.22473-0.342 0.34961-0.10711 0.12665-0.19732 0.26532-0.29205 0.4024-0.092 0.13312-0.18738 0.26349-0.26678 0.40564-0.0792 0.14191-0.14032 0.29309-0.20612 0.44324a5.0355 5.0355 0 0 0-0.19287 0.47546c-0.0477 0.148-0.0768 0.30262-0.11121 0.45655a5.0911 5.0911 0 0 0-0.10174 0.54376c-0.0125 0.1123-0.0206 0.22577-0.028 0.33942a5.1348 5.1348 0 0 0-6e-3 0.54486z" fill="#6d4013"/><g fill="none" stroke-width="0"><path class="cls-2" d="m-61.265 115.8c-0.0741-0.13684-0.15912-0.2644-0.2456-0.39312"/><path class="cls-2" d="m-62.104 114.68c0.10993 0.1103 0.21833 0.21955 0.3172 0.33985"/><path class="cls-2" d="m-63.042 123.23a3.5245 3.5245 0 0 1-0.85376 0.34961"/><path class="cls-2" d="m-60.843 119.67c0.0122-0.0613 0.0241-0.12274 0.0351-0.18493"/><path class="cls-2" d="m-62.442 114.37c-0.12146-0.10077-0.251-0.189-0.38214-0.2779"/><path class="cls-2" d="m-61.068 116.22a4.8008 4.8008 0 0 1 0.17181 0.45362"/><path class="cls-2" d="m-60.789 117.12a4.7827 4.7827 0 0 1 0.0829 0.50873"/></g><path d="m-60.678 118.43v-6e-5c-1e-3 0.0192-4e-3 0.0375-6e-3 0.0567 1e-3 -0.0191 4e-3 -0.0375 6e-3 -0.0566z"/><path d="m-63.896 123.58a4.0604 4.0604 0 0 1-0.98895 0.13117 4.06 4.06 0 0 0 0.98895-0.13117z"/><g fill="none" stroke-width="0"><path class="cls-2" d="m-70.471 115.45c0.0947-0.13708 0.18494-0.27575 0.29205-0.4024"/><path class="cls-2" d="m-70.737 115.86c-0.0792 0.14191-0.14032 0.29309-0.20612 0.44324"/><path class="cls-2" d="m-71.136 116.78c-0.0477 0.148-0.0768 0.30262-0.11121 0.45655"/><path class="cls-2" d="m-69.836 114.7c0.11652-0.11371 0.22852-0.23 0.35523-0.33221"/></g><path d="m-71.375 117.91c-6e-3 0.0673 7.3e-4 0.13482-2e-3 0.20221 7e-3 -0.11365 0.0154-0.22712 0.028-0.33942-5e-3 0.047-0.0217 0.0898-0.0257 0.13721z"/><path d="m-71.383 118.66a5.1348 5.1348 0 0 1 6e-3 -0.54486 4.3086 4.3086 0 0 0-6e-3 0.54486z"/><path d="m-65.228 113.25a4.8781 4.8781 0 0 0-0.61285-1e-3 4.8538 4.8538 0 0 1 0.79394 0.0312c-0.0617-6e-3 -0.11865-0.0261-0.18109-0.0301z"/><g fill="none" stroke-width="0"><path class="cls-2" d="m-64.093 113.47c-0.14533-0.0453-0.29474-0.0772-0.4458-0.10907"/><path class="cls-2" d="m-63.641 113.64c0.14514 0.0618 0.28839 0.12341 0.4256 0.19836"/><path class="cls-2" d="m-67.273 113.35a5.0068 5.0068 0 0 1 0.54406-0.0892"/><path class="cls-2" d="m-68.211 113.63a5.0292 5.0292 0 0 1 0.47736-0.18133"/></g><path class="cls-2" d="m-69.07 114.08c0.135-0.0888 0.26629-0.18054 0.40954-0.25641" fill="#6f6f0c" stroke-width="0"/></g></svg>
