<?xml version="1.0" encoding="UTF-8" standalone="no"?>
<svg
   height="40"
   viewBox="0 0 60 40"
   width="60"
   version="1.1"
   id="svg36"
   sodipodi:docname="chaos-kraken.svg"
   inkscape:version="1.1.2 (0a00cf5339, 2022-02-04)"
   xmlns:inkscape="http://www.inkscape.org/namespaces/inkscape"
   xmlns:sodipodi="http://sodipodi.sourceforge.net/DTD/sodipodi-0.dtd"
   xmlns="http://www.w3.org/2000/svg"
   xmlns:svg="http://www.w3.org/2000/svg"
   xmlns:rdf="http://www.w3.org/1999/02/22-rdf-syntax-ns#"
   xmlns:cc="http://creativecommons.org/ns#"
   xmlns:dc="http://purl.org/dc/elements/1.1/">
  <sodipodi:namedview
     pagecolor="#ffffff"
     bordercolor="#666666"
     borderopacity="1"
     objecttolerance="10"
     gridtolerance="10"
     guidetolerance="10"
     inkscape:pageopacity="0"
     inkscape:pageshadow="2"
     inkscape:window-width="2048"
     inkscape:window-height="1083"
     id="namedview81"
     showgrid="false"
     showguides="false"
     inkscape:zoom="1"
     inkscape:cx="231.5"
     inkscape:cy="126"
     inkscape:window-x="0"
     inkscape:window-y="0"
     inkscape:window-maximized="1"
     inkscape:current-layer="g1042"
     inkscape:document-rotation="0"
     inkscape:pagecheckerboard="0" />
  <metadata
     id="metadata42">
    <rdf:RDF>
      <cc:Work
         rdf:about="">
        <dc:format>image/svg+xml</dc:format>
        <dc:type
           rdf:resource="http://purl.org/dc/dcmitype/StillImage" />
      </cc:Work>
    </rdf:RDF>
  </metadata>
  <defs
     id="defs40">
    <mask
       id="a-1"
       fill="#ffffff">
      <path
         d="M 0,0 H 313.30315 V 159.86486 H 0 Z"
         fill="#ffffff"
         fill-rule="evenodd"
         id="path2-9" />
    </mask>
    <clipPath
       clipPathUnits="userSpaceOnUse"
       id="clipPath3444">
      <path
         d="M 11.52,162 C 11.52,81.677 135.307,16.561 288,16.561 v 0 c 152.693,0 276.481,65.116 276.481,145.439 v 0 c 0,80.322 -123.788,145.439 -276.481,145.439 v 0 C 135.307,307.439 11.52,242.322 11.52,162"
         id="path3446" />
    </clipPath>
    <radialGradient
       cx="0"
       cy="0"
       fx="0"
       fy="0"
       gradientTransform="matrix(363.05789,0,0,-363.05789,177.52002,256.30713)"
       gradientUnits="userSpaceOnUse"
       id="radialGradient3452"
       r="1"
       spreadMethod="pad">
      <stop
         id="stop3454"
         offset="0"
         style="stop-opacity:1;stop-color:#aeb2d5" />
      <stop
         id="stop3456"
         offset="0.3"
         style="stop-opacity:1;stop-color:#aeb2d5" />
      <stop
         id="stop3458"
         offset="0.75"
         style="stop-opacity:1;stop-color:#484c89" />
      <stop
         id="stop3460"
         offset="1"
         style="stop-opacity:1;stop-color:#484c89" />
    </radialGradient>
    <clipPath
       clipPathUnits="userSpaceOnUse"
       id="clipPath3468">
      <path
         d="M 0,324 H 576 V 0 H 0 Z"
         id="path3470" />
    </clipPath>
    <clipPath
       clipPathUnits="userSpaceOnUse"
       id="clipPath3480">
      <path
         d="M 0,324 H 576 V 0 H 0 Z"
         id="path3482" />
    </clipPath>
  </defs>
  <mask
     id="a"
     fill="#ffffff">
    <path
       d="M 0,0 H 313.30315 V 159.86486 H 0 Z"
       fill="#ffffff"
       fill-rule="evenodd"
       id="path2" />
  </mask>
  <mask
     id="b"
     fill="#ffffff">
    <path
       d="M 0,0 H 313.30315 V 159.86486 H 0 Z"
       fill="#ffffff"
       fill-rule="evenodd"
       id="path5" />
  </mask>
  <g
     id="g1042"
     style="display:inline">
    <g
       id="g994"
       transform="matrix(0.08667043,0,0,0.08667043,54.837532,-43.975856)"
       style="display:inline">
      <path
         id="path990"
         style="fill:#000e44;fill-opacity:1;fill-rule:evenodd;stroke:none;stroke-width:3.14747"
         d="m 56.695351,510.77372 -107.53235,84.40183 -79.398391,-66.27467 61.189259,82.84335 -54.627399,74.39502 72.836531,-52.98696 102.528945,91.04567 -81.03891,-107.53235 z" />
    </g>
    <circle
       style="opacity:1;fill:#eaed8c;fill-opacity:1;stroke:none;stroke-width:0.308165;stroke-miterlimit:2.5;stroke-opacity:1;stop-color:#000000"
       id="path912"
       cx="16.627409"
       cy="16.633268"
       r="16.433828" />
    <g
       fill="none"
       fill-rule="evenodd"
       transform="matrix(0.15069337,0,0,0.15069337,-6.1976669,-20.880758)"
       id="g1008"
       style="fill:#6f6f0c;fill-opacity:1">
      <g
         transform="matrix(0.92863152,0,0,-0.92863152,9.2718211,454.1644)"
         id="g1006"
         style="fill:#6f6f0c;fill-opacity:1">
        <g
           fill="#0f1689"
           mask="url(#a-1)"
           id="g1002"
           style="fill:#6f6f0c;fill-opacity:1"
           transform="matrix(0.94489362,0,0,0.94489362,8.6962507,2.7018401)">
          <path
             d="m 203.46068,95.687543 c 6.93631,0 12.5593,-14.80922 12.5593,-33.077318 0,-18.268097 -5.62299,-33.077317 -12.5593,-33.077317 -6.93631,0 -12.55931,14.80922 -12.55931,33.077317 0,18.268098 5.62299,33.077318 12.55931,33.077318 z"
             transform="rotate(35,137.93117,151.55002)"
             id="path996"
             style="fill:#6f6f0c;fill-opacity:1" />
          <path
             d="m 30.142322,95.687543 c 6.936311,0 12.559301,-14.80922 12.559301,-33.077318 0,-18.268097 -5.62299,-33.077317 -12.559301,-33.077317 -6.93631,0 -12.559301,14.80922 -12.559301,33.077317 0,18.268098 5.622991,33.077318 12.559301,33.077318 z"
             transform="matrix(-0.81915204,0.57357644,0.57357644,0.81915204,58.084611,47.704768)"
             id="path998"
             style="fill:#6f6f0c;fill-opacity:1" />
          <path
             d="m 116.73282,66.275268 c 6.93631,0 12.5593,-14.80922 12.5593,-33.077318 0,-18.268097 -5.62299,-33.07731673 -12.55931,-33.07731673 -6.93631,0 -12.5593,14.80921973 -12.5593,33.07731673 0,18.268098 5.62299,33.077318 12.55931,33.077318 z"
             transform="matrix(-1,0,0,1,272.62852,53.670762)"
             id="path1000"
             style="fill:#6f6f0c;fill-opacity:1" />
        </g>
        <path
           d="m 251.46701,173.09985 c -20.23008,-33.60997 -56.88957,-56.06791 -98.75578,-56.06791 -40.7208,0 -76.515877,21.2459 -97.058696,53.33459"
           mask="url(#a-1)"
           stroke="#0f1689"
           stroke-width="20"
           id="path1004"
           style="stroke:#6f6f0c;stroke-opacity:1;fill:none;fill-opacity:1"
           transform="matrix(0.94489362,0,0,0.94489362,8.6962507,2.7018401)" />
      </g>
    </g>
    <g
       id="g97"
       transform="matrix(0.03936691,0,0,0.03936691,6.8555781,5.1294397)" />
    <g
       id="g99"
       transform="matrix(0.03936691,0,0,0.03936691,6.8555781,5.1294397)" />
    <g
       id="g101"
       transform="matrix(0.03936691,0,0,0.03936691,6.8555781,5.1294397)" />
    <g
       id="g103"
       transform="matrix(0.03936691,0,0,0.03936691,6.8555781,5.1294397)" />
    <g
       id="g105"
       transform="matrix(0.03936691,0,0,0.03936691,6.8555781,5.1294397)" />
    <g
       id="g107"
       transform="matrix(0.03936691,0,0,0.03936691,6.8555781,5.1294397)" />
    <g
       id="g109"
       transform="matrix(0.03936691,0,0,0.03936691,6.8555781,5.1294397)" />
    <g
       id="g111"
       transform="matrix(0.03936691,0,0,0.03936691,6.8555781,5.1294397)" />
    <g
       id="g113"
       transform="matrix(0.03936691,0,0,0.03936691,6.8555781,5.1294397)" />
    <g
       id="g115"
       transform="matrix(0.03936691,0,0,0.03936691,6.8555781,5.1294397)" />
    <g
       id="g117"
       transform="matrix(0.03936691,0,0,0.03936691,6.8555781,5.1294397)" />
    <g
       id="g119"
       transform="matrix(0.03936691,0,0,0.03936691,6.8555781,5.1294397)" />
    <g
       id="g121"
       transform="matrix(0.03936691,0,0,0.03936691,6.8555781,5.1294397)" />
    <g
       id="g123"
       transform="matrix(0.03936691,0,0,0.03936691,6.8555781,5.1294397)" />
    <g
       id="g125"
       transform="matrix(0.03936691,0,0,0.03936691,6.8555781,5.1294397)" />
    <path
       fill="#000000"
       d="m 20.837744,1.8179273 c -0.332485,0.1759271 -1.260695,0.7155771 -2.399236,1.5105749 0.03055,0.021497 0.07132,0.047048 0.11204,0.074259 0.693447,0.471491 1.081676,1.0827865 1.218777,1.5860625 C 20.3416,4.2233072 21.12956,3.6297542 21.496779,2.7067889 21.578089,2.4214055 21.166526,2.0820946 20.837729,1.8179661 Z m -3.36834,-0.160304 C 16.66569,1.9814047 15.691157,2.3984557 14.634765,2.9231131 11.964068,4.2457585 9.202536,6.1597113 8.691277,8.0877765 c -0.389242,1.4684558 0.598571,3.5435475 1.757106,5.8088605 1.158544,2.265317 2.484969,4.705766 2.234341,6.703308 -0.673555,3.207768 -2.370198,4.224618 -4.4465638,5.461624 l 1.9786698,1.341675 c 0,0 2.526749,1.044665 3.826961,1.462131 1.396497,0.44838 4.914671,1.162717 8.85347,-0.741858 0.710124,-0.343374 1.787564,-1.025639 1.89232,-1.420833 -0.214825,0.01086 -0.450908,-0.0073 -0.719124,-0.07265 -0.893523,-0.20811 -1.780868,-0.813938 -2.426729,-1.476754 -0.646277,-0.669985 -1.121971,-1.437544 -1.352816,-2.204683 -0.230851,-0.767153 -0.190124,-1.411597 0.126774,-1.854426 0.317333,-0.435652 0.939189,-0.687141 1.832709,-0.479032 0.02002,0.0075 0.03948,0.0081 0.0595,0.01555 -0.527431,-0.814996 -1.104918,-1.648719 -1.693255,-2.500549 -0.331302,-0.474896 -0.652598,-0.946046 -0.974725,-1.431556 0.299679,0.771853 0.348261,1.604121 0.08183,2.072862 -0.268499,0.43287 -0.841158,0.688735 -1.684202,0.506542 -0.109268,-0.02692 -0.218584,-0.05374 -0.328304,-0.08776 0.477838,0.971882 0.838038,1.941835 0.950873,2.868337 0.113269,0.933678 -0.0058,1.913732 -0.232896,2.888448 0.316173,0.04821 0.655338,0.154015 0.997823,0.317323 0.916501,0.434302 1.629677,1.00479 2.157107,1.765524 0.205981,0.297095 0.399911,0.456768 0.300796,1.107432 -0.09342,0.669027 -3.176864,1.2512 -2.317651,1.03943 0.286948,-0.117171 0.544658,-0.399682 0.607532,-0.832315 0.06328,-0.425468 -0.06194,-0.893418 -0.278511,-1.248182 -0.401424,-0.669575 -0.979168,-0.836693 -1.410016,-0.66811 -0.286942,0.117185 -0.53422,0.410613 -0.607537,0.832325 -0.06328,0.425469 0.06194,0.893417 0.278515,1.248172 0.285393,0.359476 -1.63857,-0.557146 -2.819171,-0.851655 0.11893,-0.278306 0.248948,-0.56651 0.378173,-0.869036 0.704914,-1.680148 1.333894,-3.823822 1.147053,-5.346476 -0.195617,-1.673303 -1.532141,-3.766626 -2.895714,-5.954286 -1.363577,-2.187673 -2.761048,-4.486267 -2.634801,-6.4672137 0.147524,-2.337913 2.244712,-4.4092846 4.25939,-5.9985189 0.655372,-0.5161514 1.304299,-0.9750663 1.879001,-1.3635138 z m 0.319552,2.6222113 c -0.375137,-0.051265 -0.657555,0.1433905 -0.785444,0.3011471 -0.09506,0.2240903 -0.272694,0.5295478 0.0019,0.8709307 0.367495,0.088447 0.719098,-0.095794 0.864621,-0.2869478 0.09757,-0.1740255 0.277726,-0.7718987 -0.08104,-0.88513 z m -2.210895,1.3817528 c -1.314444,1.3046248 -2.359563,2.7942769 -2.444242,4.1451194 -0.0744,1.1581952 0.556209,2.5662232 1.447624,4.1139802 0.304832,-0.314009 0.824107,-0.477569 1.537828,-0.329732 1.087932,0.351051 1.842611,0.865111 2.541462,1.596884 -0.485711,-0.771307 -0.92261,-1.545396 -1.291114,-2.32196 -0.256544,-0.03283 -0.534748,-0.101945 -0.825947,-0.224917 -0.823046,-0.343175 -1.486419,-0.970413 -1.883656,-1.568246 -0.389227,-0.594825 -0.583506,-1.2219671 -0.555617,-1.801031 0.0279,-0.5790729 0.273375,-1.0205573 0.708805,-1.2786612 0.436237,-0.2437648 1.138233,-0.2968244 1.961289,0.046322 0.110648,0.048125 0.231092,0.1005875 0.332478,0.1595625 C 17.37674,7.7875638 17.714507,7.3665835 18.071462,6.9387475 17.551726,6.9266885 16.914749,6.7514384 16.323171,6.3475816 16.016937,6.1347583 15.778308,5.9050382 15.578039,5.6616462 Z M 16.7093,9.2711581 c -0.563129,-0.084451 -0.77991,0.3958519 -0.798179,0.7539559 -0.01869,0.350914 0.110704,0.722174 0.282616,0.983026 0.280413,0.441811 0.634127,0.461916 0.84307,0.350669 0.189345,-0.111601 0.351134,-0.35984 0.370266,-0.703572 -0.02802,-0.31226 -0.09412,-1.1089813 -0.697755,-1.3840381 z m 0.0143,5.7811549 c -0.84262,-0.175022 -0.750632,0.729631 -0.577011,1.18763 0.173214,0.450813 0.682343,1.455457 1.417763,1.63948 0.654867,-0.02158 0.612566,-0.74622 0.446419,-1.243523 -0.21326,-0.465802 -0.595964,-1.317865 -1.287191,-1.583595 z m 6.110355,7.038192 c -1.008648,-0.335468 -0.946683,0.726437 -0.797645,1.26646 0.207436,0.533807 0.762893,1.661064 1.607602,1.871954 0.816736,0.06708 0.795675,-0.796994 0.636619,-1.340767 -0.218704,-0.559074 -0.647726,-1.533747 -1.446576,-1.797647 z"
       id="path1304"
       sodipodi:nodetypes="cccccccccsccccssccsccccccccccccscccccccccsccccccccccccccccscccccccccccccccccccccccccccc"
       style="stroke-width:0.0838227;fill:#6f6f0c;fill-opacity:1" />
  </g>
  <g
     transform="matrix(0.95879878,0,0,0.95879878,-871.34292,-378.35028)"
     id="g893" />
</svg>
