<?xml version="1.0" encoding="UTF-8"?>
<svg width="40" height="40" version="1.1" viewBox="0 0 40 40" xmlns="http://www.w3.org/2000/svg" xmlns:cc="http://creativecommons.org/ns#" xmlns:dc="http://purl.org/dc/elements/1.1/" xmlns:rdf="http://www.w3.org/1999/02/22-rdf-syntax-ns#"><metadata><rdf:RDF><cc:Work rdf:about=""><dc:format>image/svg+xml</dc:format><dc:type rdf:resource="http://purl.org/dc/dcmitype/StillImage"/><dc:title/></cc:Work></rdf:RDF></metadata><defs><mask id="c" fill="#ffffff"><path d="m0 0h313.3v159.86h-313.3z" fill="#fff" fill-rule="evenodd"/></mask></defs><mask id="a" fill="#ffffff"><path d="m0 0h313.3v159.86h-313.3z" fill="#fff" fill-rule="evenodd"/></mask><mask id="b" fill="#ffffff"><path d="m0 0h313.3v159.86h-313.3z" fill="#fff" fill-rule="evenodd"/></mask><g transform="translate(-1.1509e-6 -.41111)"><g transform="translate(.39981 .60197)"><g transform="matrix(.49527 0 0 .49527 5.0758 3.2126)"><g transform="matrix(1.7758,0,0,1.7758,-164.24,-70.425)"><g transform="translate(96.564,87.836)" fill="#66ff9a" stroke-width="3.24"><polygon class="st0" transform="matrix(.72255 0 0 .7031 -28.717 -125.97)" points="55.7 105.5 78.4 118.6 78.4 144.9 55.7 158 32.9 144.9 32.9 118.6" fill="#ed8ced"/></g><g transform="matrix(.15831 0 0 .15831 83.649 18.463)" fill="#005e20" fill-rule="evenodd"><g transform="matrix(1.0777,0,0,-1.0777,-10.799,451.79)"><g transform="matrix(.94489 0 0 .94489 8.6963 2.7018)" fill="#6f0c6f" mask="url(#c)"><path transform="rotate(35,137.93,151.55)" d="m203.46 95.688c6.9363 0 12.559-14.809 12.559-33.077s-5.623-33.077-12.559-33.077-12.559 14.809-12.559 33.077 5.623 33.077 12.559 33.077z"/><path transform="matrix(-.81915 .57358 .57358 .81915 58.085 47.705)" d="m30.142 95.688c6.9363 0 12.559-14.809 12.559-33.077s-5.623-33.077-12.559-33.077c-6.9363 0-12.559 14.809-12.559 33.077s5.623 33.077 12.559 33.077z"/><path d="m153.24 119.95c-6.9363 0-12.559-14.809-12.559-33.077s5.623-33.077 12.559-33.077c6.9363 0 12.559 14.809 12.559 33.077s-5.623 33.077-12.559 33.077z"/></g><path transform="matrix(.94489 0 0 .94489 8.6963 2.7018)" d="m251.47 173.1c-20.23-33.61-56.89-56.068-98.756-56.068-40.721 0-76.516 21.246-97.059 53.335" fill="none" mask="url(#c)" stroke="#6f0c6f" stroke-width="19.999"/></g></g></g></g></g></g><g transform="matrix(.062274 0 0 .062274 -3.0139 -6.7248)" fill="#6f0c6f"><polygon class="cls-3" points="523.21 470.44 368.01 380.89 368.01 552.39"/><polygon class="cls-3" points="368.01 339.97 519.86 252.35 368.01 168.76"/><polygon class="cls-3" points="530.25 447.63 530.25 273.87 379.67 360.75"/><polygon class="cls-3" points="345.55 168.76 271.76 211.36 271.76 235.61 324.55 205.13 324.55 261.08 345.55 261.08"/><polygon class="cls-3" points="200.43 353.7 200.43 288.87 250.31 317.58 250.31 293.35 210.97 270.71 250.31 248 250.31 223.75 179.63 264.55 179.43 264.67 179.43 353.7"/><polygon class="cls-3" points="345.55 360.29 345.55 282.54 324.55 282.54 324.55 336.09 271.76 305.7 271.76 329.93 324.55 360.32 324.55 427.57 345.55 427.57"/><polygon class="cls-3" points="345.55 552.39 345.55 449.02 324.55 449.02 324.55 516.02 271.76 485.54 271.76 509.79"/><polygon class="cls-3" points="179.43 456.48 250.31 497.4 250.31 473.15 200.43 444.36 200.43 375.16 179.43 375.16"/></g></svg>
