<?xml version="1.0" encoding="UTF-8"?>
<svg width="40" height="40" version="1.1" viewBox="0 0 40 40" xmlns="http://www.w3.org/2000/svg" xmlns:cc="http://creativecommons.org/ns#" xmlns:dc="http://purl.org/dc/elements/1.1/" xmlns:rdf="http://www.w3.org/1999/02/22-rdf-syntax-ns#"><metadata><rdf:RDF><cc:Work rdf:about=""><dc:format>image/svg+xml</dc:format><dc:type rdf:resource="http://purl.org/dc/dcmitype/StillImage"/><dc:title/></cc:Work></rdf:RDF></metadata><defs><mask id="c" fill="#ffffff"><path d="m0 0h313.3v159.86h-313.3z" fill="#fff" fill-rule="evenodd"/></mask></defs><mask id="a" fill="#ffffff"><path d="m0 0h313.3v159.86h-313.3z" fill="#fff" fill-rule="evenodd"/></mask><mask id="b" fill="#ffffff"><path d="m0 0h313.3v159.86h-313.3z" fill="#fff" fill-rule="evenodd"/></mask><g><g transform="matrix(.99998 0 0 .99998 -42.265 -.0067025)"><g transform="matrix(.49527 0 0 .49527 5.0758 3.2126)"><g transform="matrix(1.7758,0,0,1.7758,-164.24,-70.425)"><g transform="translate(145.07,88.093)" fill="#eaed8c" stroke-width="3.24"><polygon class="st0" transform="matrix(.72255 0 0 .7031 -28.717 -125.97)" points="78.4 144.9 55.7 158 32.9 144.9 32.9 118.6 55.7 105.5 78.4 118.6" fill="#eaed8c"/></g><g transform="matrix(.15831 0 0 .15831 132.16 18.72)" fill="#005e20" fill-rule="evenodd"><g transform="matrix(1.0777,0,0,-1.0777,-10.799,451.79)"><g transform="matrix(.94489 0 0 .94489 8.6963 2.7018)" fill="#6f6f0c" mask="url(#c)"><path transform="rotate(35,137.93,151.55)" d="m203.46 95.688c6.9363 0 12.559-14.809 12.559-33.077s-5.623-33.077-12.559-33.077-12.559 14.809-12.559 33.077 5.623 33.077 12.559 33.077z"/><path transform="matrix(-.81915 .57358 .57358 .81915 58.085 47.705)" d="m30.142 95.688c6.9363 0 12.559-14.809 12.559-33.077s-5.623-33.077-12.559-33.077c-6.9363 0-12.559 14.809-12.559 33.077s5.623 33.077 12.559 33.077z"/><path d="m153.24 119.95c-6.9363 0-12.559-14.809-12.559-33.077s5.623-33.077 12.559-33.077c6.9363 0 12.559 14.809 12.559 33.077s-5.623 33.077-12.559 33.077z"/></g><path transform="matrix(.94489 0 0 .94489 8.6963 2.7018)" d="m251.47 173.1c-20.23-33.61-56.89-56.068-98.756-56.068-40.721 0-76.516 21.246-97.059 53.335" fill="none" mask="url(#c)" stroke="#6f6f0c" stroke-width="19.999"/></g></g></g></g></g><g transform="matrix(.039367 0 0 .039367 9.3832 5.5143)" fill="#6f6f0c"><g fill="#6f6f0c"><g fill="#6f6f0c"><path d="m132.1 230.87c55.394 0 100.09-44.759 100.09-99.937 0-55.243-44.673-99.981-100.09-99.981-55.135 0-99.808 44.738-99.808 99.981 0 55.156 44.674 99.937 99.808 99.937z"/><path d="m212.3 247.14h-160.23c-28.603 0-52.072 26.295-52.072 58.5v160.9c0 1.769 0.841 3.387 1.014 5.177h262.39c0.108-1.79 0.949-3.408 0.949-5.177v-160.9c0-32.205-23.383-58.5-52.05-58.5z"/><path d="m502.66 137.75c-0.108-58.673-53.711-105.93-119.33-105.78-65.92 0.108-119.09 47.758-119.01 106.28 0.108 46.226 33.478 85.334 79.812 99.722l0.626 202.55 38.676 27.826 40.208-28.064-0.065-26.877h-18.572l-0.086-26.338h18.616l-0.173-29.121h-18.486l-0.086-26.295h18.572l-0.086-26.316h-18.551l-0.065-26.316 18.637-0.022-0.302-41.157c46.399-14.56 79.661-53.819 79.661-100.09zm-119.26-60.139c14.776 0 26.899 12.101 26.899 26.856 0.108 14.949-12.015 27.007-26.834 27.007-14.905 0-26.942-11.886-26.942-26.877-0.086-14.82 11.972-26.943 26.877-26.986z"/></g></g></g></g></svg>
