<?xml version="1.0" encoding="UTF-8"?>
<svg width="40" height="40" version="1.1" viewBox="0 0 40 40" xmlns="http://www.w3.org/2000/svg" xmlns:cc="http://creativecommons.org/ns#" xmlns:dc="http://purl.org/dc/elements/1.1/" xmlns:rdf="http://www.w3.org/1999/02/22-rdf-syntax-ns#"><metadata><rdf:RDF><cc:Work rdf:about=""><dc:format>image/svg+xml</dc:format><dc:type rdf:resource="http://purl.org/dc/dcmitype/StillImage"/><dc:title/></cc:Work></rdf:RDF></metadata><defs><mask id="c" fill="#ffffff"><path d="m0 0h313.3v159.86h-313.3z" fill="#fff" fill-rule="evenodd"/></mask></defs><mask id="a" fill="#ffffff"><path d="m0 0h313.3v159.86h-313.3z" fill="#fff" fill-rule="evenodd"/></mask><mask id="b" fill="#ffffff"><path d="m0 0h313.3v159.86h-313.3z" fill="#fff" fill-rule="evenodd"/></mask><g><g transform="translate(-1.1509e-6 .0011087)"><g transform="translate(.39981 .25283)"><g transform="matrix(.49527 0 0 .49527 5.0758 3.2126)"><g transform="matrix(1.7758,0,0,1.7758,-164.24,-70.425)"><g transform="translate(96.564,87.836)" fill="#66ff9a" stroke-width="3.24"><polygon class="st0" transform="matrix(.72255 0 0 .7031 -28.717 -125.97)" points="32.9 144.9 32.9 118.6 55.7 105.5 78.4 118.6 78.4 144.9 55.7 158" fill="#ababf7"/></g><g transform="matrix(.15831 0 0 .15831 83.649 18.463)" fill="#005e20" fill-rule="evenodd"><g transform="matrix(1.0777,0,0,-1.0777,-10.799,451.79)"><g transform="matrix(.94489 0 0 .94489 8.6963 2.7018)" fill="#0f0c6f" mask="url(#c)"><path transform="rotate(35,137.93,151.55)" d="m203.46 95.688c6.9363 0 12.559-14.809 12.559-33.077s-5.623-33.077-12.559-33.077-12.559 14.809-12.559 33.077 5.623 33.077 12.559 33.077z"/><path transform="matrix(-.81915 .57358 .57358 .81915 58.085 47.705)" d="m30.142 95.688c6.9363 0 12.559-14.809 12.559-33.077s-5.623-33.077-12.559-33.077c-6.9363 0-12.559 14.809-12.559 33.077s5.623 33.077 12.559 33.077z"/><path d="m153.24 119.95c-6.9363 0-12.559-14.809-12.559-33.077s5.623-33.077 12.559-33.077c6.9363 0 12.559 14.809 12.559 33.077s-5.623 33.077-12.559 33.077z"/></g><path transform="matrix(.94489 0 0 .94489 8.6963 2.7018)" d="m251.47 173.1c-20.23-33.61-56.89-56.068-98.756-56.068-40.721 0-76.516 21.246-97.059 53.335" fill="none" mask="url(#c)" stroke="#0f0c6f" stroke-width="19.999"/></g></g></g></g></g><g transform="matrix(.46878 0 0 .46878 32.303 8.4826)" fill="#0f0c6f"><g transform="translate(-60.427,-16.447)" fill="#0f0c6f"><polygon class="st3" points="18.4 21.4 21.3 18.6 37.4 34.5 34.5 37.3"/><path class="st4" d="m49.9 49.9c-1.6 1.6-4.1 1.6-5.7 0l-14.1-14.1c-1.6-1.6-1.6-4.1 0-5.7s4.1-1.6 5.7 0l14.1 14.1c1.6 1.6 1.6 4.1 0 5.7z"/><rect class="st5" transform="matrix(.7071 -.7071 .7071 .7071 -13.255 32)" x="23.4" y="28" width="17.1" height="8"/><polygon class="st3" points="15.1 20.9 12.1 15 14.9 12.1 20.8 15.2 23.9 21.1 21 23.9"/><path class="st5" d="m46.8 22.8c-1.6 1.6-4.1 1.6-5.7 0s-1.6-4.1 0-5.7l6.5-6.5c-1.1-0.3-2.3-0.6-3.6-0.6-5.5 0-10 4.5-10 10s4.5 10 10 10 10-4.5 10-10c0-1.3-0.3-2.5-0.7-3.6z"/><path class="st5" d="m17.2 41.2c1.6-1.6 4.1-1.6 5.7 0s1.6 4.1 0 5.7l-6.5 6.5c1.1 0.4 2.4 0.7 3.6 0.7 5.5 0 10-4.5 10-10s-4.5-10-10-10-10 4.5-10 10c0 1.3 0.3 2.5 0.7 3.6z"/></g></g></g></g></svg>
