<?xml version="1.0" encoding="UTF-8" standalone="no"?>
<svg
   xmlns:dc="http://purl.org/dc/elements/1.1/"
   xmlns:cc="http://creativecommons.org/ns#"
   xmlns:rdf="http://www.w3.org/1999/02/22-rdf-syntax-ns#"
   xmlns:svg="http://www.w3.org/2000/svg"
   xmlns="http://www.w3.org/2000/svg"
   xmlns:sodipodi="http://sodipodi.sourceforge.net/DTD/sodipodi-0.dtd"
   xmlns:inkscape="http://www.inkscape.org/namespaces/inkscape"
   height="40"
   viewBox="0 0 60 40"
   width="60"
   version="1.1"
   id="svg36"
   sodipodi:docname="cluster-acm.svg"
   inkscape:version="1.0.1 (3bc2e813f5, 2020-09-07)">
  <sodipodi:namedview
     pagecolor="#ffffff"
     bordercolor="#666666"
     borderopacity="1"
     objecttolerance="10"
     gridtolerance="10"
     guidetolerance="10"
     inkscape:pageopacity="0"
     inkscape:pageshadow="2"
     inkscape:window-width="1920"
     inkscape:window-height="1016"
     id="namedview191"
     showgrid="false"
     inkscape:zoom="9.925"
     inkscape:cx="-5.3281366"
     inkscape:cy="22.405911"
     inkscape:window-x="0"
     inkscape:window-y="0"
     inkscape:window-maximized="1"
     inkscape:current-layer="g1480"
     inkscape:document-rotation="0" />
  <metadata
     id="metadata42">
    <rdf:RDF>
      <cc:Work
         rdf:about="">
        <dc:format>image/svg+xml</dc:format>
        <dc:type
           rdf:resource="http://purl.org/dc/dcmitype/StillImage" />
        <dc:title />
      </cc:Work>
    </rdf:RDF>
  </metadata>
  <defs
     id="defs40">
    <mask
       id="a-1"
       fill="#ffffff">
      <path
         d="M 0,0 H 313.30315 V 159.86486 H 0 Z"
         fill="#ffffff"
         fill-rule="evenodd"
         id="path2-9" />
    </mask>
    <mask
       id="mask865"
       fill="#ffffff">
      <path
         d="M 0,0 H 313.30315 V 159.86486 H 0 Z"
         fill="#ffffff"
         fill-rule="evenodd"
         id="path863" />
    </mask>
  </defs>
  <mask
     id="a"
     fill="#ffffff">
    <path
       d="M 0,0 H 313.30315 V 159.86486 H 0 Z"
       fill="#ffffff"
       fill-rule="evenodd"
       id="path2" />
  </mask>
  <mask
     id="b"
     fill="#ffffff">
    <path
       d="M 0,0 H 313.30315 V 159.86486 H 0 Z"
       fill="#ffffff"
       fill-rule="evenodd"
       id="path5" />
  </mask>
  <g
     id="g1042"
     style="display:inline">
    <g
       id="g994"
       transform="matrix(0.08667043,0,0,0.08667043,54.837532,-43.975856)"
       style="display:inline">
      <path
         id="path990"
         style="fill:#000e44;fill-opacity:1;fill-rule:evenodd;stroke:none;stroke-width:3.14747"
         d="m 56.695351,510.77372 -107.53235,84.40183 -79.398391,-66.27467 61.189259,82.84335 -54.627399,74.39502 72.836531,-52.98696 102.528945,91.04567 -81.03891,-107.53235 z" />
    </g>
    <circle
       style="opacity:1;fill:#ed8c8c;fill-opacity:1;stroke:none;stroke-width:0.308165;stroke-miterlimit:2.5;stroke-opacity:1;stop-color:#000000"
       id="path912"
       cx="16.627409"
       cy="16.633268"
       r="16.433828" />
    <g
       fill="none"
       fill-rule="evenodd"
       transform="matrix(0.15069337,0,0,0.15069337,-6.1976669,-20.880758)"
       id="g1008">
      <g
         transform="matrix(0.92863152,0,0,-0.92863152,9.2718211,454.1644)"
         id="g1006">
        <g
           fill="#0f1689"
           mask="url(#a-1)"
           id="g1002"
           style="fill:#6f0f0c;fill-opacity:1"
           transform="matrix(0.94489362,0,0,0.94489362,8.6962507,2.7018401)">
          <path
             d="m 203.46068,95.687543 c 6.93631,0 12.5593,-14.80922 12.5593,-33.077318 0,-18.268097 -5.62299,-33.077317 -12.5593,-33.077317 -6.93631,0 -12.55931,14.80922 -12.55931,33.077317 0,18.268098 5.62299,33.077318 12.55931,33.077318 z"
             transform="rotate(35,137.93117,151.55002)"
             id="path996"
             style="fill:#6f0f0c;fill-opacity:1" />
          <path
             d="m 30.142322,95.687543 c 6.936311,0 12.559301,-14.80922 12.559301,-33.077318 0,-18.268097 -5.62299,-33.077317 -12.559301,-33.077317 -6.93631,0 -12.559301,14.80922 -12.559301,33.077317 0,18.268098 5.622991,33.077318 12.559301,33.077318 z"
             transform="matrix(-0.81915204,0.57357644,0.57357644,0.81915204,58.084611,47.704768)"
             id="path998"
             style="fill:#6f0f0c;fill-opacity:1" />
          <path
             d="m 116.73282,66.275268 c 6.93631,0 12.5593,-14.80922 12.5593,-33.077318 0,-18.268097 -5.62299,-33.07731673 -12.55931,-33.07731673 -6.93631,0 -12.5593,14.80921973 -12.5593,33.07731673 0,18.268098 5.62299,33.077318 12.55931,33.077318 z"
             transform="matrix(-1,0,0,1,272.62852,53.670762)"
             id="path1000"
             style="fill:#6f0f0c;fill-opacity:1" />
        </g>
        <path
           d="m 251.46701,173.09985 c -20.23008,-33.60997 -56.88957,-56.06791 -98.75578,-56.06791 -40.7208,0 -76.515877,21.2459 -97.058696,53.33459"
           mask="url(#a-1)"
           stroke="#0f1689"
           stroke-width="20"
           id="path1004"
           style="stroke:#6f0c0c;stroke-opacity:1"
           transform="matrix(0.94489362,0,0,0.94489362,8.6962507,2.7018401)" />
      </g>
    </g>
    <g
       id="g1480"
       transform="translate(40)">
      <g
         id="g1570"
         transform="matrix(0.05112546,0,0,0.05112546,-41.895223,-3.1121633)"
         style="fill:#6f0f0c;fill-opacity:1">
        <rect
           class="cls-3"
           x="330.87"
           y="280.60001"
           width="203.17"
           height="20"
           transform="rotate(-44.96,432.41515,290.59484)"
           id="rect12"
           style="fill:#6f0f0c;fill-opacity:1" />
        <rect
           class="cls-3"
           x="306.63"
           y="167.83"
           width="20"
           height="204.47"
           transform="rotate(-25.45,316.62834,270.07011)"
           id="rect14"
           style="fill:#6f0f0c;fill-opacity:1" />
        <rect
           class="cls-3"
           x="162.98"
           y="364.10001"
           width="198.28"
           height="20"
           transform="rotate(-6.79,262.08289,374.08408)"
           id="rect16"
           style="fill:#6f0f0c;fill-opacity:1" />
        <rect
           class="cls-3"
           x="245.10001"
           y="451.54001"
           width="200.62"
           height="20"
           transform="rotate(-81.31,345.41948,461.53898)"
           id="rect18"
           style="fill:#6f0f0c;fill-opacity:1" />
        <rect
           class="cls-3"
           x="443.85001"
           y="303.76001"
           width="20"
           height="207.03999"
           transform="rotate(-64.3,453.81705,407.27391)"
           id="rect20"
           style="fill:#6f0f0c;fill-opacity:1" />
        <circle
           class="cls-3"
           cx="504.34"
           cy="218.83"
           r="44.080002"
           id="circle22"
           style="fill:#6f0f0c;fill-opacity:1" />
        <circle
           class="cls-3"
           cx="272.70001"
           cy="177.75"
           r="44.080002"
           id="circle24"
           style="fill:#6f0f0c;fill-opacity:1" />
        <circle
           class="cls-3"
           cx="547.12"
           cy="452.17001"
           r="44.080002"
           id="circle26"
           style="fill:#6f0f0c;fill-opacity:1" />
        <circle
           class="cls-3"
           cx="163.67999"
           cy="385.82001"
           r="44.080002"
           id="circle28"
           style="fill:#6f0f0c;fill-opacity:1" />
        <circle
           class="cls-3"
           cx="330.26001"
           cy="560.70001"
           r="44.080002"
           id="circle30"
           style="fill:#6f0f0c;fill-opacity:1" />
        <path
           class="cls-4"
           d="M 444.94,279.92 276.19,448.67 A 119.32427,119.32427 0 0 0 444.94,279.92 Z"
           id="path32-2"
           style="fill:#941d19;fill-opacity:1" />
        <path
           class="cls-3"
           d="M 375.68,245.76 A 119.33,119.33 0 0 0 276.19,448.67 L 444.94,279.92 a 118.89,118.89 0 0 0 -69.26,-34.16 z"
           id="path34-8"
           style="fill:#6f0f0c;fill-opacity:1" />
      </g>
    </g>
  </g>
  <g
     transform="matrix(0.95879878,0,0,0.95879878,-871.34292,-378.35028)"
     id="g893" />
</svg>
