<?xml version="1.0" encoding="UTF-8"?>
<svg width="40" height="40" version="1.1" viewBox="0 0 40 40" xmlns="http://www.w3.org/2000/svg" xmlns:cc="http://creativecommons.org/ns#" xmlns:dc="http://purl.org/dc/elements/1.1/" xmlns:rdf="http://www.w3.org/1999/02/22-rdf-syntax-ns#"><metadata><rdf:RDF><cc:Work rdf:about=""><dc:format>image/svg+xml</dc:format><dc:type rdf:resource="http://purl.org/dc/dcmitype/StillImage"/><dc:title/></cc:Work></rdf:RDF></metadata><defs><mask id="c" fill="#ffffff"><path d="m0 0h313.3v159.86h-313.3z" fill="#fff" fill-rule="evenodd"/></mask></defs><mask id="a" fill="#ffffff"><path d="m0 0h313.3v159.86h-313.3z" fill="#fff" fill-rule="evenodd"/></mask><mask id="b" fill="#ffffff"><path d="m0 0h313.3v159.86h-313.3z" fill="#fff" fill-rule="evenodd"/></mask><g><g transform="translate(.39981 .41558)"><g transform="matrix(.49527 0 0 .49527 5.0758 3.2126)"><g transform="matrix(1.7758,0,0,1.7758,-164.24,-70.425)"><g transform="translate(96.564,87.836)" fill="#66ff9a" stroke-width="3.24"><polygon class="st0" transform="matrix(.72255 0 0 .7031 -28.717 -125.97)" points="78.4 144.9 55.7 158 32.9 144.9 32.9 118.6 55.7 105.5 78.4 118.6" fill="#ed8ced"/></g><g transform="matrix(.15831 0 0 .15831 83.649 18.463)" fill="#005e20" fill-rule="evenodd"><g transform="matrix(1.0777,0,0,-1.0777,-10.799,451.79)"><g transform="matrix(.94489 0 0 .94489 8.6963 2.7018)" fill="#6f0c6f" mask="url(#c)"><path transform="rotate(35,137.93,151.55)" d="m203.46 95.688c6.9363 0 12.559-14.809 12.559-33.077s-5.623-33.077-12.559-33.077-12.559 14.809-12.559 33.077 5.623 33.077 12.559 33.077z"/><path transform="matrix(-.81915 .57358 .57358 .81915 58.085 47.705)" d="m30.142 95.688c6.9363 0 12.559-14.809 12.559-33.077s-5.623-33.077-12.559-33.077c-6.9363 0-12.559 14.809-12.559 33.077s5.623 33.077 12.559 33.077z"/><path d="m153.24 119.95c-6.9363 0-12.559-14.809-12.559-33.077s5.623-33.077 12.559-33.077c6.9363 0 12.559 14.809 12.559 33.077s-5.623 33.077-12.559 33.077z"/></g><path transform="matrix(.94489 0 0 .94489 8.6963 2.7018)" d="m251.47 173.1c-20.23-33.61-56.89-56.068-98.756-56.068-40.721 0-76.516 21.246-97.059 53.335" fill="none" mask="url(#c)" stroke="#6f0c6f" stroke-width="19.999"/></g></g></g></g></g><g transform="matrix(.11127 0 0 .11127 9.2051 5.1273)" fill="#6f0c6f"><path d="m83.55 88.8v1.9m50 59.6 1.7-0.4 0.2 1.3c0.9 5.9 0.5 11-1.9 16.2 3.7 0.5 6.9 2.3 8.6 6 1.2 2.7 2.4 5.7 2.4 8.7 0 2.2-0.7 4.4-2.4 5.8-1 0.8-2.3 1.3-3.6 1.3h-19.3c-1.1 3-3.3 5.8-6.5 6.7-0.9 0.2-1.8 0.3-2.7 0.4-1 0-1.9 0.1-2.9 0.1h-7.4998c-3.9 0-7.8-0.1-11.7-0.2-2.4-0.1-4.5-1.5-5.5-3.6-1 2.1-3.1 3.5-5.5 3.6-3.9 0.1-7.8 0.2-11.7 0.2h-7.5c-1 0-1.9 0-2.9-0.1-0.9-0.1-1.8-0.1-2.7-0.4-3.2-0.8-5.4-3.6-6.5-6.7h-19.1c-1.3 0-2.6-0.5-3.6-1.3-1.7-1.4-2.4-3.6-2.4-5.8 0-2.9 1.2-6 2.4-8.7 0.6-1.4 1.6-2.7 2.8-3.7 1.6-1.3 3.6-2 5.6-2.3-2.4-5.2-2.8-10.3-1.9-16.2l0.2-1.3 1.9 0.5c0.2-1.1 0.5-2.2 0.9-3.3 1.3-3.9 3.6-7.4 6.8-9.9 1.2-0.9 2.4-1.7 3.7-2.3 0.2-3.5 0.6-7 1.4-10.5 0.7-4.7 2-9.2 4.1-13.5-1-1.2-1.8-2.5-2.5-3.9-0.1-0.2-0.2-0.4-0.3-0.7-6-3.4-11.5-7.9-16.3-13.8-2.7-3.3-6.7-8.5-7-12.8-0.2-1.5-0.2-3-0.2-4.6-0.1-3.7 0.2-7.3 0.6-10.9 0.3-2.1 0.6-4.2 1-6.3-2.8-3.2-5.3-6.8-7.3-10.5-3.2-5.9-5.3-12.4-6.1-19.1-0.79999-6.6-0.2-13.3 1.5-19.8 0.9-3.2 3.8-5.5 7.1-5.5 12.6 0 23.5 5.1 33.6 11.8 18.9-11.6 42.9-11.7 61.9 0 10.1-6.6 21-11.8 33.6-11.8 3.4 0 6.3 2.2 7.2 5.5 1.7 6.5 2.3 13.1 1.5 19.8s-2.9 13.1-6.1 19.1c-2 3.8-4.5 7.3-7.3 10.5 0.4 2 0.7 4 1 6 0.5 3.7 0.7 7.4 0.6 11.2 0 1.6-0.1 3.1-0.2 4.6-0.4 4.5-4.2 9.5-7 12.9-4.8 5.9-10.3 10.4-16.3 13.8-0.1 0.2-0.2 0.4-0.3 0.7-0.5 1.1-1.1 2.2-1.7 3.2s-1.3 1.8-2 2.6c0.5 1.2 1 2.4 1.4 3.7 0.9 2.6 1.5 5.3 1.9 8.1 0.3 1.4 0.6 2.8 0.8 4.2 5.6-9.4 13-17.8 22.3-23 5.5-3.1 11.7-5 18-4.8 6.7 0.2 13.3 3.3 18.4 7.6 5.6 4.7 10.1 11.4 10.9 18.8 0.1 1.2 0 2.4-0.2 3.6-1 4-4 7.1-7.6 8.8-4.6 2.2-10.4 2.1-14.3-1.6-2.2-2.1-2.9-4.4-4-7.1-0.7-1.6-1.4-2.8-2.7-3.8-1.9-1.4-4.2-2.1-6.5-2-3.3 0.2-6.3 2.1-8.6 4.4-1.3 1.3-2.5 2.7-3.7 4.1-2.2 2.7-4.2 5.6-6 8.6-1.4 2.3-2.6 4.7-3.6 7.2-0.1 0.1-0.1 0.3-0.2 0.4-0.2 0-0.2 0.1-0.2 0.2m5.1-21c0.3 0 0.6 0 0.9 0.2 1.1-1.3 2.3-2.6 3.5-3.8 0.4-0.4 0.8-0.7 1.2-1.1-1.5-1-2.8-2.5-3.7-4.1-0.8-1.3-1.4-2.9-1.6-4.5-2.4 2.1-4.7 4.5-6.9 7.2-0.1 1.7 1.5 3.7 2.7 4.6 1.1 0.9 2.5 1.6 3.9 1.5m-1.7 3.5c-1.6-0.3-3.1-1-4.4-2.1-1.2-1-2.4-2.3-3.2-3.8-2.1 3-4.1 6.3-5.9 9.9l1.8 1.2c2 1.6 3.7 3.6 4.9 5.9 1.6-3.2 3.9-7.2 6.8-11.1m30-9.5c0 0.2-0.1 0.4-0.1 0.6 3.7 3.7 3.6 7.9 5.9 10.2 4.1 3.9 13.2-0.5 12.7-6.1-0.5-4.9-3.3-9.8-7.3-13.6l-0.1-0.1c-0.6-0.6-1.3-0.8-2.1-0.8-5-0.2-8.8 5-9 9.8m-3.5-1.8c0.2-1.2 0.6-2.5 1.1-3.6 1.6-3.6 4.6-6.6 8.3-7.7-3.5-2.2-7.5-3.5-11.2-3.6-1.1 0-2.2 0-3.3 0.1-0.3 0.2-0.7 0.5-0.8 0.6-0.2 0.2-0.4 0.4-0.6 0.5-2.5 2.8-2.2 8.2-0.1 11.1l0.3 0.6c2.3 0.3 4.4 1 6.3 2m-10.4-1.5c-1-1.9-1.6-4.1-1.6-6.3 0-1.9 0.3-3.9 1.1-5.7-2 0.7-4.1 1.6-6.1 2.7-1.2 0.6-2.3 1.4-3.5 2.2v0.1c-1.1 1.6-0.1 4.3 0.8 5.8 0.8 1.3 1.9 2.7 3.3 3.3 0.2 0.1 0.3 0.2 0.4 0.3 1.9-1.3 3.8-2 5.6-2.4m-74.9-101.1c1 0 1.7 0.8 1.7 1.7 0 1-0.8 1.7-1.7 1.7-1 0-1.7-0.8-1.7-1.7s0.8-1.7 1.7-1.7m0 7.7c1 0 1.7 0.8 1.7 1.7s-0.8 1.7-1.7 1.7c-1 0-1.7-0.8-1.7-1.7s0.8-1.7 1.7-1.7m10.8-7.7c1 0 1.7 0.8 1.7 1.7 0 1-0.8 1.7-1.7 1.7-1 0-1.7-0.8-1.7-1.7s0.8-1.7 1.7-1.7m0 7.7c1 0 1.7 0.8 1.7 1.7s-0.8 1.7-1.7 1.7c-1 0-1.7-0.8-1.7-1.7s0.8-1.7 1.7-1.7m-3.9-13.4v20.9c11.2 0.2 22.1 3.3 28.9 9.3 7.8 6.9 13 18.7 12.4 25-0.5 5.5-9.5 9.3-21.4 11.3 0.6 1.1 1 2.2 1.2 3.5 0.3 1.7 0.3 3.5 0 5.1 4.5-0.5 8.6-1.2 12.2-2 8.8-1.9 15-4.2 18.8-5.7 0.2-0.6 0.4-1.2 0.4-1.7 0 0 2.6-23.5-10.8-42.8-10.2-14.9-25.9-22.5-41.7-22.9m-2.9 20.8v-20.8c-16.1 0.5-32 8.4-42.2 23.7-12.8 19.1-10.3 42.1-10.3 42.1s0 0.6 0.5 1.8c3.8 1.4 10 3.8 18.7 5.6 3.6 0.8 7.7 1.5 12.2 2-0.3-1.7-0.3-3.4 0-5.1 0.2-1.3 0.6-2.4 1.2-3.5-11.9-2-20.9-5.8-21.4-11.4-0.6-6.3 4.6-18.1 12.4-25 6.7-6 17.7-9.1 28.9-9.4m-20.2 57.3c-5.1-0.5-9.7-1.3-13.8-2.2-6.9-1.5-12.2-3.2-16.1-4.6 0.7 1.1 1.5 2.3 2.6 3.6 6.5 7.9 14.6 13.3 24.4 16.7 3.1 1.1 6.3 1.9 9.5 2.6v-0.1c-0.3-0.9-0.4-1.8-0.3-2.7 0.4-2.3 2.1-3.7 4.3-4.6-4.1-1.4-7.8-3.7-10-7.5l-0.6-1.2m10.5 14.5c0.5 1.2 2 2.1 4 2.8 2.3 0.3 4.7 0.5 7.1 0.6l7.2-0.6c1.8-0.6 3.3-1.4 3.9-2.5 2.4-4.8-23.8-4.7-22.2-0.3m62.5-21.2c-3.9 1.4-9.2 3.1-16 4.6-4 0.9-8.6 1.6-13.8 2.2l-0.6 1.2c-2.2 3.7-5.8998 6.1-9.9998 7.4 2.1 0.9 3.8 2.3 4.2 4.5 0.2 1 0.1 2-0.3 2.9 7.9998-1.6 15.4-4.3 22.1-8.6 4.8-3.1 8.7-7.2 12.4-11.6 0.7-0.9 1.4-1.7 2-2.6m-52.4 7.6c-1.1 1.9-3.4 4.9-8.2 3.9-5.9-1.9-10.2-5.9-9.1-12.3 1-5.8 10.5-9.3 18.4-9.3 7.8-0.1 17.4 3.5 18.4 9.3 0.9 5.5-2.1998 9.2-6.7998 11.4-7 2.6-9.4-0.8-10.5-2.9-0.5-1-0.7-1.6-1-1.6h-0.1c-0.3 0.1-0.6 0.6-1.1 1.5m1-15c-4.7 0-10.5 1.4-11.1 4.3-0.9 4.9 6.3 7.3 11.1 7.3h0.1c4.7 0 11.9-2.4 11-7.3-0.5-2.9-6.3-4.3-11.1-4.3m-13.2-9.6c0 1-0.8 1.8-1.8 1.8s-1.8-0.8-1.8-1.8c0-2-0.7-3.9-1.9-5.2-1.1-1.3-2.6-2-4.3-2-1.1 0-2.2 0.4-3.1 1-1 0.7-1.8 1.6-2.3 2.8-0.4 0.9-1.5 1.3-2.3 0.8-0.9-0.4-1.3-1.5-0.8-2.3 0.8-1.7 2-3.2 3.5-4.2s3.2-1.6 5-1.6c2.7 0 5.1 1.2 6.9 3.2s2.9 4.6 2.9 7.5m26.5 0c0 1 0.8 1.8 1.8 1.8s1.7998-0.8 1.7998-1.8c0-2 0.7-3.9 1.9-5.2 1.1-1.3 2.6-2 4.3-2 1.1 0 2.2 0.4 3.1 1 1 0.7 1.8 1.6 2.3 2.8 0.4 0.9 1.5 1.3 2.3 0.8 0.9-0.4 1.3-1.5 0.9-2.3-0.8-1.7-2-3.2-3.5-4.2s-3.2-1.6-5-1.6c-2.7 0-5.1 1.2-6.8998 3.2-2 2-3 4.6-3 7.5m1.4 47.1c-3.8 1.2-7.7 1.9-11.6 2.2-4.9 0.3-9.7-0.1-14.5-1.3-4.1-1-8-2.5-11.7-4.5-1.5-0.4-3.1-1-4.6-1.5 3.3 4.4 8.1 8.4 14.7 10.6-6-1-12-2.8-16.7-6.1-3 6.5-4.9 15.7-3.4 28.1 0.3 2.8 0.8 5.5 1.3 8 7.9-3.6 13.4-2.2 20.2 2.4 0.8-10.8 3.1-18.9 4.1-22.2 0.5-1.4 1.1-2.1 1.9-2.2 0.9-0.1 2.4 0 2.3 2.6-0.3 1.1-0.5 2.3-0.7 3.2-0.5 2.4-0.8 4.9-1.2 7.3s-0.7 4.8-1 7.2c-0.2 1.6-0.4 3.1-0.5 4.7-0.1 0.9-0.1 1.8-0.1 2.7 3.7 0.4 7.4 0.4 11.1-0.1 0-0.9-0.1-1.7-0.1-2.6-0.3-3.9-0.9-8-1.4-11.8-0.3-2.3-0.7-4.6-1.2-6.9-0.3-1.3-0.6-3-1-4.2 0.1-2.6 3.5-3.1 4.4-0.3 1 3.1 3.5 11.5 4.3 22.9 6.2-3.5 14.3-6.2 20.2-2.9 0.5-2.5 0.9-5.1 1.3-7.8 1.4-11.5-0.1-20.2-2.7-26.5-4.7 2.8-10.7 4.3-16.5 5 7.2998-2.1 12.4-6.3 16-11-1.5 0.6-3 1.1-4.6 1.5-2.2 1.3-5.1 2.5-8.2998 3.5m-68.7-102.9c6.2 1.7 12.1 4.7 17.6 8.2-2.2 1.8-4.4 3.8-6.4 6-1.1-1.8-2.2-3.5-3.4-5.1-2.2-3.2-4.8-6.4-7.8-9.1m-10.3-1.5h0.6c7 3.8 13.2 11.6 17.8 19.4-0.9 1.2-1.8 2.5-2.7 3.7-3.4 5.1-6 10.7-7.8 16.5-5.6-7.6-12.8-21.5-8-39.5-0.1 0 0 0 0.1-0.1m128.7 0h-0.6c-7 3.8-13.2 11.6-17.8 19.4 0.8 1 1.5 2 2.2 3 3.7 5.3 6.4 11.1 8.4 17.2 5.6-7.6 12.8-21.5 8-39.5-0.1 0-0.1 0-0.2-0.1m-10.4 1.5c-6.2 1.7-12.1 4.7-17.6 8.2 2.2 1.8 4.4 3.8 6.4 6 1.1-1.8 2.2-3.5 3.4-5.1 2.3-3.2 4.9-6.4 7.8-9.1m-84.5 143.8c2.2 8.3 5.1 14.6 7.1 18.4 0.4 0.8 0.7 1 1.5 1.5 2.4 1.5 5.9 3.1 6.5 9.2-2.8-3.5-5.4-6.1-9.5-7-2 0-4.3 0.4-5.8 2-3.4 3.5-0.9 9.5 1.1 10.1s23 0 23 0 0.9-3.9-0.8-6.1c-1.6-2.2-4.1-13.3-4.3-25.2-4.9-4.3-12.5-7.2-18.8-2.9m58.9 0c-2.2 8.3-5.1 14.6-7.1 18.4-0.4 0.8-0.7 1-1.5 1.5-2.4 1.5-5.8998 3.1-6.4998 9.2 2.8-3.5 5.3998-6.1 9.4998-7 2 0 4.3 0.4 5.8 2 3.4 3.5 0.9 9.5-1.1 10.1s-23 0-23 0-0.9-3.9 0.8-6.1c1.6-2.2 4.1-13.3 4.3-25.2 4.9-4.3 12.5-7.2 18.8-2.9m-27.5 26.4h-1.9-1.5c-0.2-0.4-0.5-0.9-0.8-1.3-0.3-0.5-0.6-1.6-0.8-2.2-0.6-2.1-1.1-4.3-1.4-6.4-0.7-4-1.1-8-1.1-12.1 3.8 0.5 7.7 0.5 11.5-0.1-0.1 4.7-0.6 9.4-1.4 14-0.3 1.6-1.1 5.6-2 7-0.2 0.4-0.4 0.7-0.6 1.1m45.8-25.4c0.2 11.3-7 15.8-11.2 19.2 19-8.6 21.2 6.1 19.3 7.7h-19.7c-0.1-2.6-1.1-5.1-3-7-1.5-1.5-3.3-2.5-5.2-3 1.5-3.2 2.8-6.5 3.8-9.8 5.6-3 12.1-6.1 16-7.1m-10.4-16.6c4.8 2.2 7.8 7.3 8.4 12.9-3.9 1.1-8.1 3.1-11.7 4.9 1.3-4.9 2.3-9.9 2.9-15 0.2-0.9 0.3-1.9 0.4-2.8m-74.6 0.1c-4.7 2.3-7.6 7.3-8.3 12.9 3.8 1.2 8 3.1 11.5 4.9-1.3-4.9-2.3-9.9-2.9-15-0.1-1-0.2-1.9-0.3-2.8m-10.4 16.5c-0.2 11.3 7 15.8 11.2 19.2-19.1-8.6-21.2 6.1-19.3 7.7h19.4c0.1-2.7 1.1-5.3 3.1-7.3 1.4-1.5 3.1-2.4 5-3-0.4-0.8-0.8-1.6-1.1-2.5-1.1-2.4-2-4.9-2.9-7.4-5.5-2.9-11.7-5.7-15.4-6.7" fill="#6f0c6f" fill-rule="evenodd"/></g></g></svg>
