<?xml version="1.0" encoding="UTF-8" standalone="no"?>
<svg
   xmlns:dc="http://purl.org/dc/elements/1.1/"
   xmlns:cc="http://creativecommons.org/ns#"
   xmlns:rdf="http://www.w3.org/1999/02/22-rdf-syntax-ns#"
   xmlns:svg="http://www.w3.org/2000/svg"
   xmlns="http://www.w3.org/2000/svg"
   xmlns:sodipodi="http://sodipodi.sourceforge.net/DTD/sodipodi-0.dtd"
   xmlns:inkscape="http://www.inkscape.org/namespaces/inkscape"
   height="40"
   viewBox="0 0 60 40"
   width="60"
   version="1.1"
   id="svg36"
   sodipodi:docname="cluster-auth.svg"
   inkscape:version="1.0.1 (3bc2e813f5, 2020-09-07)">
  <sodipodi:namedview
     pagecolor="#ffffff"
     bordercolor="#666666"
     borderopacity="1"
     objecttolerance="10"
     gridtolerance="10"
     guidetolerance="10"
     inkscape:pageopacity="0"
     inkscape:pageshadow="2"
     inkscape:window-width="1920"
     inkscape:window-height="1016"
     id="namedview81"
     showgrid="false"
     showguides="false"
     inkscape:zoom="14.03607"
     inkscape:cx="7.3349826"
     inkscape:cy="22.795375"
     inkscape:window-x="0"
     inkscape:window-y="0"
     inkscape:window-maximized="1"
     inkscape:current-layer="g1042"
     inkscape:document-rotation="0" />
  <metadata
     id="metadata42">
    <rdf:RDF>
      <cc:Work
         rdf:about="">
        <dc:format>image/svg+xml</dc:format>
        <dc:type
           rdf:resource="http://purl.org/dc/dcmitype/StillImage" />
        <dc:title />
      </cc:Work>
    </rdf:RDF>
  </metadata>
  <defs
     id="defs40">
    <mask
       id="a-1"
       fill="#ffffff">
      <path
         d="M 0,0 H 313.30315 V 159.86486 H 0 Z"
         fill="#ffffff"
         fill-rule="evenodd"
         id="path2-9" />
    </mask>
    <clipPath
       clipPathUnits="userSpaceOnUse"
       id="clipPath3444">
      <path
         d="M 11.52,162 C 11.52,81.677 135.307,16.561 288,16.561 v 0 c 152.693,0 276.481,65.116 276.481,145.439 v 0 c 0,80.322 -123.788,145.439 -276.481,145.439 v 0 C 135.307,307.439 11.52,242.322 11.52,162"
         id="path3446" />
    </clipPath>
    <radialGradient
       cx="0"
       cy="0"
       fx="0"
       fy="0"
       gradientTransform="matrix(363.05789,0,0,-363.05789,177.52002,256.30713)"
       gradientUnits="userSpaceOnUse"
       id="radialGradient3452"
       r="1"
       spreadMethod="pad">
      <stop
         id="stop3454"
         offset="0"
         style="stop-opacity:1;stop-color:#aeb2d5" />
      <stop
         id="stop3456"
         offset="0.3"
         style="stop-opacity:1;stop-color:#aeb2d5" />
      <stop
         id="stop3458"
         offset="0.75"
         style="stop-opacity:1;stop-color:#484c89" />
      <stop
         id="stop3460"
         offset="1"
         style="stop-opacity:1;stop-color:#484c89" />
    </radialGradient>
    <clipPath
       clipPathUnits="userSpaceOnUse"
       id="clipPath3468">
      <path
         d="M 0,324 H 576 V 0 H 0 Z"
         id="path3470" />
    </clipPath>
    <clipPath
       clipPathUnits="userSpaceOnUse"
       id="clipPath3480">
      <path
         d="M 0,324 H 576 V 0 H 0 Z"
         id="path3482" />
    </clipPath>
  </defs>
  <mask
     id="a"
     fill="#ffffff">
    <path
       d="M 0,0 H 313.30315 V 159.86486 H 0 Z"
       fill="#ffffff"
       fill-rule="evenodd"
       id="path2" />
  </mask>
  <mask
     id="b"
     fill="#ffffff">
    <path
       d="M 0,0 H 313.30315 V 159.86486 H 0 Z"
       fill="#ffffff"
       fill-rule="evenodd"
       id="path5" />
  </mask>
  <g
     id="g1042"
     style="display:inline">
    <g
       id="g994"
       transform="matrix(0.08667043,0,0,0.08667043,54.837532,-43.975856)"
       style="display:inline">
      <path
         id="path990"
         style="fill:#000e44;fill-opacity:1;fill-rule:evenodd;stroke:none;stroke-width:3.14747"
         d="m 56.695351,510.77372 -107.53235,84.40183 -79.398391,-66.27467 61.189259,82.84335 -54.627399,74.39502 72.836531,-52.98696 102.528945,91.04567 -81.03891,-107.53235 z" />
    </g>
    <circle
       style="opacity:1;fill:#eaed8c;fill-opacity:1;stroke:none;stroke-width:0.308165;stroke-miterlimit:2.5;stroke-opacity:1;stop-color:#000000"
       id="path912"
       cx="16.627409"
       cy="16.633268"
       r="16.433828" />
    <g
       fill="none"
       fill-rule="evenodd"
       transform="matrix(0.15069337,0,0,0.15069337,-6.1976669,-20.880758)"
       id="g1008"
       style="fill:#6f6f0c;fill-opacity:1">
      <g
         transform="matrix(0.92863152,0,0,-0.92863152,9.2718211,454.1644)"
         id="g1006"
         style="fill:#6f6f0c;fill-opacity:1">
        <g
           fill="#0f1689"
           mask="url(#a-1)"
           id="g1002"
           style="fill:#6f6f0c;fill-opacity:1"
           transform="matrix(0.94489362,0,0,0.94489362,8.6962507,2.7018401)">
          <path
             d="m 203.46068,95.687543 c 6.93631,0 12.5593,-14.80922 12.5593,-33.077318 0,-18.268097 -5.62299,-33.077317 -12.5593,-33.077317 -6.93631,0 -12.55931,14.80922 -12.55931,33.077317 0,18.268098 5.62299,33.077318 12.55931,33.077318 z"
             transform="rotate(35,137.93117,151.55002)"
             id="path996"
             style="fill:#6f6f0c;fill-opacity:1" />
          <path
             d="m 30.142322,95.687543 c 6.936311,0 12.559301,-14.80922 12.559301,-33.077318 0,-18.268097 -5.62299,-33.077317 -12.559301,-33.077317 -6.93631,0 -12.559301,14.80922 -12.559301,33.077317 0,18.268098 5.622991,33.077318 12.559301,33.077318 z"
             transform="matrix(-0.81915204,0.57357644,0.57357644,0.81915204,58.084611,47.704768)"
             id="path998"
             style="fill:#6f6f0c;fill-opacity:1" />
          <path
             d="m 116.73282,66.275268 c 6.93631,0 12.5593,-14.80922 12.5593,-33.077318 0,-18.268097 -5.62299,-33.07731673 -12.55931,-33.07731673 -6.93631,0 -12.5593,14.80921973 -12.5593,33.07731673 0,18.268098 5.62299,33.077318 12.55931,33.077318 z"
             transform="matrix(-1,0,0,1,272.62852,53.670762)"
             id="path1000"
             style="fill:#6f6f0c;fill-opacity:1" />
        </g>
        <path
           d="m 251.46701,173.09985 c -20.23008,-33.60997 -56.88957,-56.06791 -98.75578,-56.06791 -40.7208,0 -76.515877,21.2459 -97.058696,53.33459"
           mask="url(#a-1)"
           stroke="#0f1689"
           stroke-width="20"
           id="path1004"
           style="stroke:#6f6f0c;stroke-opacity:1;fill:none;fill-opacity:1"
           transform="matrix(0.94489362,0,0,0.94489362,8.6962507,2.7018401)" />
      </g>
    </g>
    <g
       id="g97"
       transform="matrix(0.03936691,0,0,0.03936691,6.8555781,5.1294397)" />
    <g
       id="g99"
       transform="matrix(0.03936691,0,0,0.03936691,6.8555781,5.1294397)" />
    <g
       id="g101"
       transform="matrix(0.03936691,0,0,0.03936691,6.8555781,5.1294397)" />
    <g
       id="g103"
       transform="matrix(0.03936691,0,0,0.03936691,6.8555781,5.1294397)" />
    <g
       id="g105"
       transform="matrix(0.03936691,0,0,0.03936691,6.8555781,5.1294397)" />
    <g
       id="g107"
       transform="matrix(0.03936691,0,0,0.03936691,6.8555781,5.1294397)" />
    <g
       id="g109"
       transform="matrix(0.03936691,0,0,0.03936691,6.8555781,5.1294397)" />
    <g
       id="g111"
       transform="matrix(0.03936691,0,0,0.03936691,6.8555781,5.1294397)" />
    <g
       id="g113"
       transform="matrix(0.03936691,0,0,0.03936691,6.8555781,5.1294397)" />
    <g
       id="g115"
       transform="matrix(0.03936691,0,0,0.03936691,6.8555781,5.1294397)" />
    <g
       id="g117"
       transform="matrix(0.03936691,0,0,0.03936691,6.8555781,5.1294397)" />
    <g
       id="g119"
       transform="matrix(0.03936691,0,0,0.03936691,6.8555781,5.1294397)" />
    <g
       id="g121"
       transform="matrix(0.03936691,0,0,0.03936691,6.8555781,5.1294397)" />
    <g
       id="g123"
       transform="matrix(0.03936691,0,0,0.03936691,6.8555781,5.1294397)" />
    <g
       id="g125"
       transform="matrix(0.03936691,0,0,0.03936691,6.8555781,5.1294397)" />
    <g
       id="g2747"
       transform="translate(40)">
      <path
         class="cls-1"
         d="m -33.015764,16.094137 a 13.627967,13.627967 0 0 1 -0.222217,-2.349917 c 0,-5.5289349 4.333543,-10.0096073 9.679082,-10.0096073 5.345549,0 9.679092,4.4806724 9.679092,10.0070553 0,1.481468 -0.31162,3.201496 -0.868448,4.925105"
         id="path146"
         style="fill:none;stroke:#6f6f0c;stroke-width:1.0217px;stroke-linecap:round;stroke-linejoin:round;stroke-opacity:1" />
      <path
         class="cls-1"
         d="m -19.561994,6.814523 a 7.6862615,7.6862615 0 0 0 -3.996905,-1.1177419 c -4.251807,0 -7.720999,3.4645909 -7.910519,7.8124509 -0.01007,0.224254 0,0.448015 0.0078,0.672279 0.04186,0.966012 0.08944,3.978503 -0.919524,4.444394"
         id="path148"
         style="fill:none;stroke:#6f6f0c;stroke-width:1.0217px;stroke-linecap:round;stroke-linejoin:round;stroke-opacity:1" />
      <path
         class="cls-1"
         d="m -15.390904,20.382211 c -0.968061,-0.809692 -0.83217,-3.473781 -0.498073,-5.294965 0.334097,-1.821185 0.08328,-3.72002 -0.832181,-5.335834 a 8.1909821,8.1909821 0 0 0 -1.238297,-1.6566937"
         id="path150"
         style="fill:none;stroke:#6f6f0c;stroke-width:1.0217px;stroke-linecap:round;stroke-linejoin:round;stroke-opacity:1" />
      <path
         class="cls-1"
         d="m -28.066638,14.143196 c 0,-2.574182 2.018372,-4.660499 4.507739,-4.660499 2.489378,0 4.50775,2.086317 4.50775,4.660499"
         id="path152"
         style="fill:none;stroke:#6f6f0c;stroke-width:1.0217px;stroke-linecap:round;stroke-linejoin:round;stroke-opacity:1" />
      <path
         class="cls-1"
         d="m -26.68683,15.155695 c 0,-2.184396 1.421179,-3.955008 3.173914,-3.955008 1.752724,0 3.172381,1.770612 3.172381,3.955008"
         id="path154"
         style="fill:none;stroke:#6f6f0c;stroke-width:1.0217px;stroke-linecap:round;stroke-linejoin:round;stroke-opacity:1" />
      <path
         class="cls-1"
         d="m -25.128227,15.484172 c 0,-1.350178 0.723368,-2.444928 1.615311,-2.444928 0.891944,0 1.615815,1.09475 1.615815,2.444928"
         id="path156"
         style="fill:none;stroke:#6f6f0c;stroke-width:1.0217px;stroke-linecap:round;stroke-linejoin:round;stroke-opacity:1" />
      <path
         class="cls-1"
         d="m -29.767266,14.014457 c 0,0 0.682499,5.714381 -1.871243,6.575161"
         id="path158"
         style="fill:none;stroke:#6f6f0c;stroke-width:1.0217px;stroke-linecap:round;stroke-linejoin:round;stroke-opacity:1" />
      <path
         class="cls-1"
         d="m -29.767266,14.014457 c 0,-3.544793 2.779539,-6.4183263 6.208367,-6.4183263 2.571629,0 4.777987,1.6163293 5.721533,3.9197583 0.413281,1.010977 0.523616,2.116451 0.39846,3.199459 -0.220168,1.90292 -0.656955,6.586914 0.97828,7.356254"
         id="path160"
         style="fill:none;stroke:#6f6f0c;stroke-width:1.0217px;stroke-linecap:round;stroke-linejoin:round;stroke-opacity:1" />
      <path
         class="cls-1"
         d="m -27.949149,15.917893 c 0.01332,1.685808 -0.237037,5.653587 -2.831132,6.422412"
         id="path162"
         style="fill:none;stroke:#6f6f0c;stroke-width:1.0217px;stroke-linecap:round;stroke-linejoin:round;stroke-opacity:1" />
      <path
         class="cls-1"
         d="m -26.68683,15.155695 c 0,0 0.822979,7.80325 -2.937908,9.016518"
         id="path164"
         style="fill:none;stroke:#6f6f0c;stroke-width:1.0217px;stroke-linecap:round;stroke-linejoin:round;stroke-opacity:1" />
      <path
         class="cls-1"
         d="m -24.917764,16.952365 c 0,0 0.08171,7.752162 -3.374672,8.811148"
         id="path166"
         style="fill:none;stroke:#6f6f0c;stroke-width:1.0217px;stroke-linecap:round;stroke-linejoin:round;stroke-opacity:1" />
      <path
         class="cls-1"
         d="m -21.897101,15.484172 c 0,0 0.853639,10.533751 -3.528955,12.260427"
         id="path168"
         style="fill:none;stroke:#6f6f0c;stroke-width:1.0217px;stroke-linecap:round;stroke-linejoin:round;stroke-opacity:1" />
      <path
         class="cls-1"
         d="m -23.512916,14.778178 c 0,0 1.379293,9.729162 -3.403798,12.160803"
         id="path170"
         style="fill:none;stroke:#6f6f0c;stroke-width:1.0217px;stroke-linecap:round;stroke-linejoin:round;stroke-opacity:1" />
      <path
         class="cls-1"
         d="m -23.114455,28.101173 c 0,0 3.527421,-1.864101 3.080436,-11.50283 0,0 0.529751,6.60581 2.751948,7.57387"
         id="path172"
         style="fill:none;stroke:#6f6f0c;stroke-width:1.0217px;stroke-linecap:round;stroke-linejoin:round;stroke-opacity:1" />
      <path
         class="cls-1"
         d="m -20.402346,26.938981 c 0,0 0.980832,-2.066896 1.11519,-3.081444 0,0 0.328981,1.277117 0.995137,1.527956"
         id="path174"
         style="fill:none;stroke:#6f6f0c;stroke-width:1.0217px;stroke-linecap:round;stroke-linejoin:round;stroke-opacity:1" />
    </g>
  </g>
  <g
     transform="matrix(0.95879878,0,0,0.95879878,-871.34292,-378.35028)"
     id="g893" />
</svg>
