<?xml version="1.0" encoding="UTF-8"?>
<svg width="60" height="40" version="1.1" viewBox="0 0 60 40" xmlns="http://www.w3.org/2000/svg"><defs><mask id="c" fill="#ffffff"><path d="m0 0h313.3v159.86h-313.3z" fill="#fff" fill-rule="evenodd"/></mask></defs><mask id="a" fill="#ffffff"><path d="m0 0h313.3v159.86h-313.3z" fill="#fff" fill-rule="evenodd"/></mask><mask id="b" fill="#ffffff"><path d="m0 0h313.3v159.86h-313.3z" fill="#fff" fill-rule="evenodd"/></mask><g><g transform="matrix(.08667 0 0 .08667 54.838 -43.976)"><path d="m56.695 510.77-107.53 84.402-79.398-66.275 61.189 82.843-54.627 74.395 72.837-52.987 102.53 91.046-81.039-107.53z" fill="#000e44" fill-rule="evenodd"/></g><circle cx="16.627" cy="16.633" r="16.434" fill="#ababf7" stop-color="#000000"/><g transform="matrix(.15069 0 0 .15069 -6.1977 -20.881)" fill="none" fill-rule="evenodd"><g transform="matrix(.92863 0 0 -.92863 9.2718 454.16)"><g transform="matrix(.94489 0 0 .94489 8.6963 2.7018)" fill="#0f0c6f" mask="url(#c)"><path transform="rotate(35 137.93 151.55)" d="m203.46 95.688c6.9363 0 12.559-14.809 12.559-33.077 0-18.268-5.623-33.077-12.559-33.077s-12.559 14.809-12.559 33.077c0 18.268 5.623 33.077 12.559 33.077z"/><path transform="matrix(-.81915 .57358 .57358 .81915 58.085 47.705)" d="m30.142 95.688c6.9363 0 12.559-14.809 12.559-33.077 0-18.268-5.623-33.077-12.559-33.077-6.9363 0-12.559 14.809-12.559 33.077 0 18.268 5.623 33.077 12.559 33.077z"/><path transform="matrix(-1 0 0 1 272.63 53.671)" d="m116.73 66.275c6.9363 0 12.559-14.809 12.559-33.077 0-18.268-5.623-33.077-12.559-33.077-6.9363 0-12.559 14.809-12.559 33.077 0 18.268 5.623 33.077 12.559 33.077z"/></g><path transform="matrix(.94489 0 0 .94489 8.6963 2.7018)" d="m251.47 173.1c-20.23-33.61-56.89-56.068-98.756-56.068-40.721 0-76.516 21.246-97.059 53.335" mask="url(#c)" stroke="#0f0c6f" stroke-width="20"/></g></g><g transform="translate(52.705)"><path class="b1a4fc53-aae5-4eb9-9b7b-a01bc1a54fac" d="m-35.834 4.3093 8.942 5.1626v10.325l-8.942 5.1626-8.9419-5.1626v-10.325l8.942-5.1626m0-1.2126-9.4671 5.4658-0.52508 0.30312v11.538l0.52508 0.30313 9.4671 5.4658 9.4671-5.4658 0.52508-0.30313v-11.538l-0.52508-0.30312-8.942-5.1626z" fill="#0f0c6f" stroke-width=".052507"/><polygon class="b1a4fc53-aae5-4eb9-9b7b-a01bc1a54fac" transform="matrix(.052507 0 0 .052507 -55.269 -4.2984)" points="354.17 513.24 226.77 439.69 226.77 295.22 354.17 368.78" fill="#15119c"/><polygon class="a7859bd4-b053-4c5f-990d-c4f71d480e38" transform="matrix(.052507 0 0 .052507 -55.269 -4.2984)" points="386.02 513.24 513.42 439.69 513.42 295.22 386.02 368.78" fill="#1b16cc"/><polygon class="b1a4fc53-aae5-4eb9-9b7b-a01bc1a54fac" transform="matrix(.052507 0 0 .052507 -55.269 -4.2984)" points="242.69 267.97 370.09 194.42 497.49 267.97 370.09 341.53" fill="#0f0c6f"/></g></g></svg>
