<?xml version="1.0" encoding="UTF-8"?>
<svg width="40" height="40" version="1.1" viewBox="0 0 40 40" xmlns="http://www.w3.org/2000/svg" xmlns:cc="http://creativecommons.org/ns#" xmlns:dc="http://purl.org/dc/elements/1.1/" xmlns:rdf="http://www.w3.org/1999/02/22-rdf-syntax-ns#"><metadata><rdf:RDF><cc:Work rdf:about=""><dc:format>image/svg+xml</dc:format><dc:type rdf:resource="http://purl.org/dc/dcmitype/StillImage"/><dc:title/></cc:Work></rdf:RDF></metadata><defs><mask id="c" fill="#ffffff"><path d="m0 0h313.3v159.86h-313.3z" fill="#fff" fill-rule="evenodd"/></mask></defs><mask id="a" fill="#ffffff"><path d="m0 0h313.3v159.86h-313.3z" fill="#fff" fill-rule="evenodd"/></mask><mask id="b" fill="#ffffff"><path d="m0 0h313.3v159.86h-313.3z" fill="#fff" fill-rule="evenodd"/></mask><g><g transform="translate(.39981 .18163)"><g transform="matrix(.49527 0 0 .49527 5.0758 3.2126)"><g transform="matrix(1.7758,0,0,1.7758,-164.24,-70.425)"><g transform="translate(96.564,87.836)" fill="#66ff9a" stroke-width="3.24"><polygon class="st0" transform="matrix(.72255 0 0 .7031 -28.717 -125.97)" points="55.7 105.5 78.4 118.6 78.4 144.9 55.7 158 32.9 144.9 32.9 118.6" fill="#ababf7"/></g><g transform="matrix(.15831 0 0 .15831 83.649 18.463)" fill="#005e20" fill-rule="evenodd"><g transform="matrix(1.0777,0,0,-1.0777,-10.799,451.79)"><g transform="matrix(.94489 0 0 .94489 8.6963 2.7018)" fill="#0f0c6f" mask="url(#c)"><path transform="rotate(35,137.93,151.55)" d="m203.46 95.688c6.9363 0 12.559-14.809 12.559-33.077s-5.623-33.077-12.559-33.077-12.559 14.809-12.559 33.077 5.623 33.077 12.559 33.077z"/><path transform="matrix(-.81915 .57358 .57358 .81915 58.085 47.705)" d="m30.142 95.688c6.9363 0 12.559-14.809 12.559-33.077s-5.623-33.077-12.559-33.077c-6.9363 0-12.559 14.809-12.559 33.077s5.623 33.077 12.559 33.077z"/><path d="m153.24 119.95c-6.9363 0-12.559-14.809-12.559-33.077s5.623-33.077 12.559-33.077c6.9363 0 12.559 14.809 12.559 33.077s-5.623 33.077-12.559 33.077z"/></g><path transform="matrix(.94489 0 0 .94489 8.6963 2.7018)" d="m251.47 173.1c-20.23-33.61-56.89-56.068-98.756-56.068-40.721 0-76.516 21.246-97.059 53.335" fill="none" mask="url(#c)" stroke="#0f0c6f" stroke-width="19.999"/></g></g></g></g></g><g transform="matrix(.93174 0 0 .93174 42.124 3.2413)"><path d="m-28.06 16.121 0.05038 2.8715 2.5441 1.5365 3.3249 0.37783 4.2317-0.30227 3.1738-1.5617 0.07557-2.8967-2.0403 1.2846-2.9219 0.65491-4.2569-0.15113-2.8212-0.6801z" fill="#0f0c6f"/><g transform="matrix(.3515 0 0 .3515 -36.556 1.9502)"><g fill="#0f0c6f"><path d="m19 13c-3.309 0-6 2.691-6 6s2.691 6 6 6 6-2.691 6-6-2.691-6-6-6zm0 10c-2.206 0-4-1.794-4-4s1.794-4 4-4 4 1.794 4 4-1.794 4-4 4z"/><path d="m50.68 40.375 0.307 1.977c0.683-0.106 1.354-0.226 2.015-0.36l-0.398-1.96c-0.63 0.127-1.273 0.241-1.924 0.343z"/><path d="m46.785 40.817 0.148 1.994c0.682-0.051 1.359-0.114 2.028-0.189l-0.223-1.987c-0.644 0.072-1.297 0.133-1.953 0.182z"/><path d="m54.5 39.595 0.502 1.936c0.68-0.176 1.34-0.369 1.979-0.578l-0.621-1.901c-0.6 0.196-1.221 0.377-1.86 0.543z"/><path d="m46.833 56.817 0.148 1.994c0.682-0.051 1.359-0.114 2.028-0.189l-0.223-1.987c-0.644 0.072-1.297 0.133-1.953 0.182z"/><path d="m50.728 56.375 0.307 1.977c0.683-0.106 1.354-0.226 2.015-0.36l-0.398-1.96c-0.631 0.127-1.273 0.241-1.924 0.343z"/><path d="m54.548 55.595 0.502 1.936c0.68-0.176 1.34-0.369 1.979-0.578l-0.621-1.901c-0.6 0.196-1.221 0.377-1.86 0.543z"/></g><g fill="#fff"><path d="m35.104 48.422c-0.652-0.097-1.295-0.208-1.925-0.332l-0.387 1.962c0.659 0.13 1.333 0.246 2.017 0.348z"/><path d="m39.001 48.84c-0.655-0.045-1.308-0.101-1.953-0.17l-0.213 1.988c0.671 0.072 1.349 0.13 2.031 0.177z"/><path d="m31.279 47.665c-0.64-0.162-1.262-0.339-1.863-0.532l-0.609 1.905c0.641 0.205 1.302 0.394 1.982 0.565z"/></g><g fill="#0f0c6f"><path d="m42.993 34.997h0.175c3.481 0 6.759-0.312 9.246-0.881 3.085-0.706 4.587-1.718 4.591-3.093 0.012-3.902-12.556-4.053-13.988-4.057-3.501 8e-3 -6.892 0.302-9.421 0.88-3.085 0.706-4.587 1.718-4.591 3.093-0.012 3.903 12.556 4.054 13.988 4.058zm0.018-6.03c6.949 0.021 11.243 1.278 11.942 2.051-0.697 0.762-4.933 1.979-11.78 1.979h-0.174c-6.948-0.021-11.243-1.279-11.942-2.051 0.703-0.768 5.027-1.991 11.954-1.979z"/><path d="m62.955 47.027 0.048-16c7e-3 -2.319-2.195-4.417-6.201-5.907-3.692-1.373-8.584-2.138-13.774-2.153-2.964-0.014-5.988 0.24-8.759 0.745 0.031-0.1 0.068-0.199 0.097-0.3l2.634-0.62v-7.584l-2.635-0.62c-0.332-1.159-0.795-2.275-1.381-3.332l1.426-2.302-5.363-5.363-2.303 1.425c-1.056-0.586-2.172-1.049-3.332-1.381l-0.62-2.635h-7.584l-0.62 2.634c-1.16 0.333-2.276 0.795-3.332 1.381l-2.303-1.424-5.363 5.363 1.426 2.302c-0.586 1.057-1.049 2.173-1.381 3.332l-2.635 0.62v7.584l2.635 0.62c0.332 1.159 0.795 2.275 1.381 3.332l-1.426 2.302 5.363 5.363 2.303-1.425c1.056 0.586 2.172 1.049 3.332 1.381l0.62 2.635h7.777l-6e-3 1.906v5e-3l-0.048 15.995c-7e-3 2.319 2.195 4.417 6.201 5.907 3.692 1.373 8.584 2.138 13.774 2.154h0.152c9.65 0 19.856-2.771 19.872-7.94l0.024-7.995c1e-3 -2e-3 1e-3 -3e-3 1e-3 -5e-3zm-1.976-8.006c-9e-3 2.824-7.335 5.946-17.856 5.946h-0.161c-10.605-0.032-17.986-3.215-17.982-6.053l0.013-4.417c1.032 0.868 2.433 1.654 4.212 2.316 3.693 1.373 8.585 2.138 13.775 2.153h0.152c7.061 0 14.414-1.485 17.86-4.306zm-18.024 7.946h0.152c7.061 0 14.414-1.485 17.86-4.306l-0.013 4.362c-0.012 2.823-7.338 5.944-17.857 5.944h-0.161c-4.96-0.015-9.606-0.735-13.083-2.028-3.071-1.142-4.902-2.647-4.898-4.026l0.013-4.36c3.454 2.861 10.879 4.392 17.987 4.414zm0.066-22c4.96 0.015 9.606 0.735 13.083 2.028 3.071 1.142 4.902 2.647 4.898 4.026-9e-3 2.824-7.335 5.946-17.856 5.946h-0.161c-4.96-0.015-9.606-0.735-13.084-2.028-3.071-1.142-4.902-2.647-4.898-4.026 9e-3 -2.824 7.336-5.946 17.857-5.946zm-24.021 4.033c-5.514 0-10-4.486-10-10s4.486-10 10-10 10 4.486 10 10-4.486 10-10 10zm-2.208 6-0.535-2.272-0.595-0.146c-1.377-0.337-2.69-0.882-3.904-1.619l-0.523-0.318-1.986 1.229-3.123-3.123 1.229-1.986-0.318-0.524c-0.736-1.215-1.281-2.528-1.617-3.904l-0.146-0.595-2.274-0.534v-4.416l2.273-0.535 0.146-0.595c0.336-1.375 0.881-2.689 1.617-3.904l0.318-0.524-1.229-1.986 3.123-3.123 1.986 1.229 0.523-0.318c1.214-0.737 2.527-1.281 3.904-1.619l0.595-0.146 0.536-2.271h4.416l0.535 2.272 0.595 0.146c1.377 0.337 2.69 0.882 3.904 1.619l0.523 0.318 1.986-1.229 3.123 3.123-1.229 1.986 0.318 0.524c0.736 1.215 1.281 2.528 1.617 3.904l0.146 0.595 2.274 0.534v4.416l-2.273 0.535-0.146 0.596c-0.155 0.635-0.369 1.259-0.613 1.868-0.903 0.225-1.767 0.479-2.573 0.764 1.015-1.761 1.605-3.797 1.605-5.971 0-6.617-5.383-12-12-12s-12 5.383-12 12 5.383 12 12 12c1.428 0 2.792-0.264 4.063-0.723-0.035 0.206-0.06 0.415-0.06 0.63l-0.012 4.093zm26.281 25.967h-0.161c-4.96-0.015-9.606-0.735-13.083-2.028-3.071-1.142-4.902-2.647-4.898-4.026l0.013-4.416c1.032 0.868 2.433 1.655 4.212 2.317 3.692 1.373 8.584 2.138 13.774 2.154h0.152c7.061 0 14.414-1.485 17.861-4.306l-0.013 4.36c-8e-3 2.823-7.335 5.945-17.857 5.945z"/><path d="m61 11h2v2h-2z"/><path d="m54.414 13h4.586v-2h-5.414l-8 8h-6.586v2h7.414z"/><path d="m52.414 9h10.586v-2h-11.414l-8 8h-4.586v2h5.414z"/><path d="m11 61h2v2h-2z"/><path d="m19 45.586-8 8v5.414h2v-4.586l8-8v-7.414h-2z"/><path d="m17 39h-2v4.586l-8 8v11.414h2v-10.586l8-8z"/></g></g><path d="m-32.62 4.1562-0.70529-0.47859-1.461 1.5365-0.0074 0.69259-0.21929 1.4737-0.93199 0.27708v2.0907l0.88161 0.20151 0.55416 1.3602-0.32746 0.73048 1.335 1.4358 0.78086-0.25189 1.461 0.55416 0.35264 0.93199 2.67-0.17632 0.15113-2.1662-2.0151 0.20151-2.1914-0.83123-1.0076-1.2091-0.60453-1.9144 0.32746-1.2846 1.1335-1.5617 1.461-0.85642 2.0403-0.075567 1.5617 0.83123 1.1083 1.461 0.27708 1.4358-0.17632 1.5365-0.70529 1.1587 1.9647-0.60453 0.43515-0.47534 0.62278-0.58259-0.12594-2.0403-0.83123-0.25189-0.55416-1.3098 0.55416-0.85642-1.5365-1.4358-0.93199 0.40302-1.335-0.50378-0.15113-0.85642-2.1914-0.075567-0.27708 0.98237z" fill="#0f0c6f"/></g></g></svg>
