<?xml version="1.0" encoding="UTF-8"?>
<svg width="40" height="40" version="1.1" viewBox="0 0 40 40" xmlns="http://www.w3.org/2000/svg" xmlns:cc="http://creativecommons.org/ns#" xmlns:dc="http://purl.org/dc/elements/1.1/" xmlns:rdf="http://www.w3.org/1999/02/22-rdf-syntax-ns#"><metadata><rdf:RDF><cc:Work rdf:about=""><dc:format>image/svg+xml</dc:format><dc:type rdf:resource="http://purl.org/dc/dcmitype/StillImage"/><dc:title/></cc:Work></rdf:RDF></metadata><defs><mask id="c" fill="#ffffff"><path d="m0 0h313.3v159.86h-313.3z" fill="#fff" fill-rule="evenodd"/></mask></defs><mask id="a" fill="#ffffff"><path d="m0 0h313.3v159.86h-313.3z" fill="#fff" fill-rule="evenodd"/></mask><mask id="b" fill="#ffffff"><path d="m0 0h313.3v159.86h-313.3z" fill="#fff" fill-rule="evenodd"/></mask><g><g transform="matrix(.99998 0 0 .99998 -42.265 -.080928)"><g transform="matrix(.49527 0 0 .49527 5.0758 3.2126)"><g transform="matrix(1.7758,0,0,1.7758,-164.24,-70.425)"><g transform="translate(145.07,88.093)" fill="#eaed8c" stroke-width="3.24"><polygon class="st0" transform="matrix(.72255 0 0 .7031 -28.717 -125.97)" points="55.7 158 32.9 144.9 32.9 118.6 55.7 105.5 78.4 118.6 78.4 144.9" fill="#eaed8c"/></g><g transform="matrix(.15831 0 0 .15831 132.16 18.72)" fill="#005e20" fill-rule="evenodd"><g transform="matrix(1.0777,0,0,-1.0777,-10.799,451.79)"><g transform="matrix(.94489 0 0 .94489 8.6963 2.7018)" fill="#6f6f0c" mask="url(#c)"><path transform="rotate(35,137.93,151.55)" d="m203.46 95.688c6.9363 0 12.559-14.809 12.559-33.077s-5.623-33.077-12.559-33.077-12.559 14.809-12.559 33.077 5.623 33.077 12.559 33.077z"/><path transform="matrix(-.81915 .57358 .57358 .81915 58.085 47.705)" d="m30.142 95.688c6.9363 0 12.559-14.809 12.559-33.077s-5.623-33.077-12.559-33.077c-6.9363 0-12.559 14.809-12.559 33.077s5.623 33.077 12.559 33.077z"/><path d="m153.24 119.95c-6.9363 0-12.559-14.809-12.559-33.077s5.623-33.077 12.559-33.077c6.9363 0 12.559 14.809 12.559 33.077s-5.623 33.077-12.559 33.077z"/></g><path transform="matrix(.94489 0 0 .94489 8.6963 2.7018)" d="m251.47 173.1c-20.23-33.61-56.89-56.068-98.756-56.068-40.721 0-76.516 21.246-97.059 53.335" fill="none" mask="url(#c)" stroke="#6f6f0c" stroke-width="19.999"/></g></g></g></g></g><g transform="matrix(.048202 0 0 .048202 7.3557 2.8047)" fill="#6f6f0c"><g fill="#6f6f0c"><path d="m137 188.95c-45.2 0-81.9 36.7-81.9 81.9 0 19.4 6.8 37.3 18.1 51.3 0.8-6.6 3.5-14 11.9-16.2 16.1-4.1 29.1-13.3 29.1-13.3l12.1 38.2 1.7 5.2 5.4-15.3c-13.6-18.9 3.6-18.2 3.6-18.2s17.2-0.7 3.6 18.2l5.4 15.2 1.7-5.1v0.1l1.9-6.1 10.2-32.2s13 9.2 29.1 13.3c8.4 2.1 11.2 9.6 11.9 16.2 11.3-14 18.1-31.9 18.1-51.3-0.1-45.2-36.7-81.9-81.9-81.9zm31.4 72.1c-2.1 7.4-4 9.4-5.5 9.6-1.4 8.8-8.3 19.9-19.3 23.8-4.5 1.6-9.6 1.6-14.1 0-11.1-3.9-17.9-15.1-19.2-23.9-1.5-0.1-3.4-2.2-5.5-9.6-2.9-10.1 0.2-11.6 2.7-11.3-0.5-1.4-0.9-2.8-1.1-4.2-0.9-4.7-1.2-9.1-0.1-13.3 1.3-5.6 4.4-10.1 7.8-13.6 2.2-2.3 4.6-4.3 7.2-5.9 2.1-1.5 4.4-2.7 7-3.6 2-0.7 4.1-1.1 6.3-1.2 6.9-0.6 12.2 1.1 15.9 3.4 5.6 3.1 7.8 7.2 7.8 7.2s12.9 0.9 8.5 27.1c-0.3 1.4-0.6 2.8-1.1 4.2 2.6-0.3 5.6 1.2 2.7 11.3z"/><path d="m187.8 130.75h109.6c11 0 19.9-8.9 19.9-19.9v-13.5c0-11-8.9-19.9-19.9-19.9h-6.2v-8.5c0-8.4-6.8-15.3-15.3-15.3h-66.6c-8.4 0-15.3 6.8-15.3 15.3v8.5h-6.2c-11 0-19.9 8.9-19.9 19.9v13.5c0 11 8.9 19.9 19.9 19.9z"/><path d="m429.4 105.85h-93.6v5c0 21.2-17.2 38.4-38.4 38.4h-109.6c-21.2 0-38.4-17.2-38.4-38.4v-5h-93.6c-30.8 0-55.8 25-55.8 55.8v214.1c0 30.8 25 55.8 55.8 55.8h373.6c30.8 0 55.8-25 55.8-55.8v-214.2c0-30.8-25-55.7-55.8-55.7zm-292.8 266.4c-56 0-101.4-45.4-101.4-101.4s45.4-101.4 101.4-101.4 101.4 45.4 101.4 101.4-45.4 101.4-101.4 101.4zm294.1-49.4h-162.8v-20.8h162.8zm0-43.8h-162.8v-20.8h162.8zm0-43.8h-162.8v-20.8h162.8z"/></g></g></g></svg>
