<?xml version="1.0" encoding="UTF-8"?>
<svg width="40" height="40" version="1.1" viewBox="0 0 40 40" xmlns="http://www.w3.org/2000/svg" xmlns:cc="http://creativecommons.org/ns#" xmlns:dc="http://purl.org/dc/elements/1.1/" xmlns:rdf="http://www.w3.org/1999/02/22-rdf-syntax-ns#"><metadata><rdf:RDF><cc:Work rdf:about=""><dc:format>image/svg+xml</dc:format><dc:type rdf:resource="http://purl.org/dc/dcmitype/StillImage"/><dc:title/></cc:Work></rdf:RDF></metadata><defs><mask id="c" fill="#ffffff"><path d="m0 0h313.3v159.86h-313.3z" fill="#fff" fill-rule="evenodd"/></mask></defs><mask id="a" fill="#ffffff"><path d="m0 0h313.3v159.86h-313.3z" fill="#fff" fill-rule="evenodd"/></mask><mask id="b" fill="#ffffff"><path d="m0 0h313.3v159.86h-313.3z" fill="#fff" fill-rule="evenodd"/></mask><g><g transform="translate(.39981 .21191)"><g transform="matrix(.49527 0 0 .49527 5.0758 3.2126)"><g transform="matrix(1.7758,0,0,1.7758,-164.24,-70.425)"><g transform="translate(96.564,87.836)" fill="#66ff9a" stroke-width="3.24"><polygon class="st0" transform="matrix(.72255 0 0 .7031 -28.717 -125.97)" points="55.7 158 32.9 144.9 32.9 118.6 55.7 105.5 78.4 118.6 78.4 144.9" fill="#ed8ced"/></g><g transform="matrix(.15831 0 0 .15831 83.649 18.463)" fill="#005e20" fill-rule="evenodd"><g transform="matrix(1.0777,0,0,-1.0777,-10.799,451.79)"><g transform="matrix(.94489 0 0 .94489 8.6963 2.7018)" fill="#6f0c6f" mask="url(#c)"><path transform="rotate(35,137.93,151.55)" d="m203.46 95.688c6.9363 0 12.559-14.809 12.559-33.077s-5.623-33.077-12.559-33.077-12.559 14.809-12.559 33.077 5.623 33.077 12.559 33.077z"/><path transform="matrix(-.81915 .57358 .57358 .81915 58.085 47.705)" d="m30.142 95.688c6.9363 0 12.559-14.809 12.559-33.077s-5.623-33.077-12.559-33.077c-6.9363 0-12.559 14.809-12.559 33.077s5.623 33.077 12.559 33.077z"/><path d="m153.24 119.95c-6.9363 0-12.559-14.809-12.559-33.077s5.623-33.077 12.559-33.077c6.9363 0 12.559 14.809 12.559 33.077s-5.623 33.077-12.559 33.077z"/></g><path transform="matrix(.94489 0 0 .94489 8.6963 2.7018)" d="m251.47 173.1c-20.23-33.61-56.89-56.068-98.756-56.068-40.721 0-76.516 21.246-97.059 53.335" fill="none" mask="url(#c)" stroke="#6f0c6f" stroke-width="19.999"/></g></g></g></g></g><g transform="matrix(.033867 0 0 .033867 9.2944 7.1258)"><g><path class="st54" d="m14.088 200.97c1.9 5.5 4.5 10.6 8.6 15 7.2 4.9 15.1 6.1 23.7 6.1 161.8-0.2 323.6-0.2 485.4 0 8.6 0 16.5-1.2 23.7-6.1 4-4.3 6.7-9.4 8.6-15 0.6-6.3-0.7-12.2-3.1-18-6.6-9.3-15.5-12.8-26.9-12.8-163.3 0.2-326.6 0.2-489.9 0-11.4 0-20.3 3.5-26.9 12.8-2.5 5.8-3.8 11.8-3.2 18zm0.1-82.3c2.1 5.1 4.4 10 8.3 13.9 6.8 4.6 14.2 5.8 22.4 5.8 162.6-0.1 325.2-0.1 487.8 0 7.6 0 14.7-0.8 21.4-4.7 2.3-2.7 4.7-5.4 7-8.1 1-3.2 2-6.4 3-9.7 0.4-6.5-1.8-12.3-4.8-17.9-6.4-7.2-14.3-10.1-24.1-10.1-164.2 0.1-328.3 0.1-492.5 0-9.7 0-17.6 2.8-24.1 10-1.4 3.7-4.9 6.5-4.7 11 0.2 3.5 0.2 6.7 0.3 9.8z" fill="#b413b4"/><path d="m13.888 363.87c1.1 2.1-0.3 4.9 1.6 6.8 2.4 3.9 5 7.7 8.5 10.9 6.4 3.8 13.3 4.7 20.6 4.7 163.1-0.1 326.2-0.1 489.2 0 8 0 15.1-1.4 21.6-5.9 4.5-4.6 6.8-10.4 8.6-16.5 0.2-6-1.4-11.5-4.1-16.7-6.3-8.1-14.5-11.2-24.8-11.2-164.2 0.1-328.3 0.1-492.5 0-10.3 0-18.5 3.1-24.8 11.2-2.5 5.2-4.1 10.8-3.9 16.7z" fill="#6f0c6f"/><path class="st54" d="m13.888 33.97c1.4 6.3 4.1 11.9 8.6 16.5 6.8 4.6 14.2 5.8 22.4 5.8 162.8-0.1 325.5-0.1 488.3 0 8.2 0 15.6-1.3 22.4-5.8 3.9-4 6.3-8.9 8.3-13.9 0-3.2 0.1-6.4 0.1-9.6-1.6-3.7-3.1-7.3-4.7-11-6.4-7.2-14.3-10.1-24.1-10.1-164.2 0.1-328.3 0.1-492.5 0-9.7 0-17.6 2.8-24.1 10-2.9 5.7-5.1 11.6-4.7 18.1z" fill="#b413b4"/><path d="m13.888 281.77c1.3 6.3 4.2 11.8 8.6 16.5 6.6 4.4 13.7 5.9 21.7 5.9 163.2-0.1 326.5-0.1 489.7 0 8 0 15.1-1.5 21.7-5.9 3.8-4 6.4-8.8 8.3-13.9l0.3-8.1-4.8-12.3c-6.4-7.2-14.3-10.1-24-10.1-164.2 0.1-328.3 0.1-492.5 0-10.3 0-18.5 3.1-24.8 11.2-2.8 5.2-4.4 10.7-4.2 16.7zm0 164.3c1.3 6.3 4.2 11.8 8.6 16.5 6.6 4.4 13.7 5.9 21.7 5.9 163.2-0.1 326.5-0.1 489.7 0 8 0 15.1-1.5 21.7-5.9 3.8-4 6.4-8.8 8.3-13.9 0.1-3.2 0.1-6.4 0.2-9.5-1.6-3.7-3.1-7.3-4.7-10.9-6.6-7.6-14.8-10.2-24.8-10.2-163.7 0.2-327.5 0.2-491.2 0-9.9 0-18.1 2.6-24.7 10.1-3.1 5.5-5.2 11.4-4.8 17.9z" fill="#6f0c6f"/></g><g fill="#ebebeb"><path class="st55" d="m43.688 232.97h378.6c37.6 0 75.2 0.2 112.8-0.1 14.2-0.1 25.5-6 31.7-19.5 5.3-11.6 2.8-24.5-5.9-30.4 5 4.9 5.5 11.1 4.7 17.5-0.3 1.1-0.6 2.1-0.9 3.2 1 8.9-7.5 19.2-14.5 22-4.7 1.9-9.5 3.1-14.8 3.1-164.2-0.1-328.3-0.1-492.5-0.1-15.9 0-26.6-8.3-29.6-22.8-0.3-1.3-0.6-2.5-0.2-3.7-0.2-0.6-0.3-1.2-0.5-1.8-0.8-6.5-0.4-12.7 4.7-17.6-6.2 4.3-10 14.4-8.3 22.5 3.4 17.6 16.2 27.7 34.7 27.7z"/><path class="st55" d="m12.488 200.67c0.2 0.6 0.3 1.2 0.5 1.8 0.2-0.5 0.5-1 1.1-1.4-0.6-6.3 0.7-12.2 3.1-18-5.1 4.9-5.5 11.1-4.7 17.6zm551.5 0.3c0.3 0.9 0.5 1.8 0.6 2.8 0.3-1 0.7-2.1 0.9-3.2 0.8-6.5 0.4-12.6-4.7-17.5 2.5 5.7 3.8 11.7 3.2 17.9zm-519.7 196.3h427.6c21.1 0 42.2 0.1 63.3 0 18.3-0.1 30.3-9.9 34-27.4 1.8-8.7-2.3-19.1-9.1-22.7 5 4.5 6 10.4 5.6 16.7-0.3 1.3-0.6 2.5-0.9 3.8 0.5 9.7-6.9 20.6-17.1 23.7-3.7 1.1-7.5 1.9-11.6 1.9-164.7-0.1-329.4-0.1-494.1-0.1-15.7 0-25.4-7.7-28.8-22.7-0.2-0.9-0.4-1.8-0.5-2.6-0.3-1.3-0.5-2.7-0.5-4.1-0.1-6.2 0.7-12.1 5.7-16.5-6.7 3.6-10.9 14.1-9.1 22.7 3.8 17.9 16 27.3 35.5 27.3z"/><path class="st55" d="m564.09 363.87c0.4 1.2 0.5 2.5 0.6 3.7 0.3-1.2 0.7-2.5 0.9-3.8 0.4-6.3-0.6-12.2-5.6-16.7 2.8 5.3 4.4 10.8 4.1 16.8zm-551.9-0.2c0 1.4 0.2 2.8 0.5 4.1-0.1-1.4 0-2.7 1.2-3.9-0.2-6 1.4-11.5 4.1-16.7-5.1 4.4-5.9 10.3-5.8 16.5z"/></g><path class="st57" d="m559.29 428.07c3.5 3 5.1 7 6.2 11.3 0 0.3 0.1 0.7 0.1 1 2.8 3.3 1.2 7.6 0.9 11.2-0.6 7.6-3.1 14.6-11 18-1.4 0.9-2.8 1.9-4.1 2.8-4 4.4-9.4 4.2-14.7 4.2h-496.2c-5 0-10.2 0.1-14-4.2-6.4-4.8-11.5-10.5-13.4-18.6-0.4-2-1-4-0.4-5.9-0.2-0.7-0.3-1.4-0.5-2.1-0.6-6.9 1.1-13 6.4-17.8-7.6 3.9-9.7 11-10.1 18.5-1 18.2 13.6 32.8 32.6 32.8 49.9 0.1 99.7 0 149.6 0h344.5c10.4 0 19.5-3.1 26.6-11.2 11.3-12.5 10.1-32-2.5-40z" fill="#ececec"/><path class="st57" d="m565.59 440.47c0-0.3-0.1-0.7-0.1-1-1.1-4.3-2.7-8.3-6.2-11.3 1.6 3.6 3.1 7.3 4.7 10.9 0.7 0.4 1.2 0.9 1.6 1.4zm-553.2 5.5c0.1 0.7 0.3 1.4 0.5 2.1 0.2-0.7 0.5-1.3 1.1-2-0.4-6.5 1.7-12.4 4.8-17.9-5.3 4.8-7 10.9-6.4 17.8z" fill="#ececec"/><g fill="#ebebeb"><path class="st55" d="m44.188 315.17h394.2c32.2 0 64.4 0.2 96.6-0.1 14.5-0.1 26-5.5 31.9-19.9 5-12.2 2-25.2-7.7-31.3 3.8 3.3 5.5 7.7 6.3 12.5 0.1 0.9 0.1 1.8 0.1 2.7 2.9 7 0.5 16.8-6 22.2-2.8 2.3-5.5 4.6-8.3 7-3.7 3.3-8.1 4.2-12.8 4.2h-499.2c-4.7 0-9.2-0.9-12.8-4.2-6.8-5.1-12.1-11.1-13.4-19.9-0.2-1.5-0.6-3.1-0.3-4.5-0.2-0.7-0.3-1.3-0.4-2-0.4-6.3 0.6-12.2 5.6-16.8-6.7 3.6-10.9 14.1-9.1 22.7 3.8 18 15.7 27.4 35.3 27.4z"/><path class="st55" d="m12.388 281.77c0.1 0.7 0.3 1.3 0.4 2 0.2-0.7 0.5-1.4 1.1-2-0.2-6 1.4-11.5 4.1-16.7-5 4.5-6.1 10.4-5.6 16.7zm553.4-2.8c0-0.9 0-1.8-0.1-2.7-0.8-4.8-2.5-9.2-6.3-12.5l4.8 12.3c0.6 1 1.1 1.9 1.6 2.9zm-533.2-212.9c8.5 1.7 17 1.3 25.6 1.3h474.9c11 0 21-2.5 28.8-11.1 11.2-12.4 9.2-34.8-2.5-40.2 3.5 3 5.1 7 6.2 11.3 0.1 1.1 0.2 2.2 0.2 3.3 3.2 9.3-0.6 21.4-8.8 25.6-1.8 1.4-3.7 2.8-5.5 4.2-3.7 3.3-8.1 4.2-12.8 4.2h-499.2c-4.7 0-9.2-0.9-12.8-4.2-6.8-5.1-12.1-11.1-13.4-19.9-0.2-1.5-0.6-3.1-0.3-4.5-0.2-0.7-0.3-1.4-0.5-2.1-0.6-6.9 1.2-13 6.4-17.8-2.7 0.6-4.3 2.7-5.7 4.8-11.1 16.5-0.2 41.2 19.4 45.1z"/><path class="st55" d="m563.99 26.97c0.7 1.1 1.3 2.4 1.7 3.6 0-1.1-0.1-2.2-0.2-3.3-1-4.3-2.7-8.3-6.2-11.3 1.6 3.7 3.2 7.4 4.7 11zm-551.6 6.9c0.1 0.7 0.3 1.4 0.5 2.1 0.2-0.7 0.5-1.4 1.1-2-0.4-6.5 1.8-12.3 4.8-17.9-5.3 4.8-7 10.9-6.4 17.8zm31.3 115.6h366.1c41.8 0 83.5 0.1 125.3-0.1 14.5-0.1 26.1-5.5 32-19.9 5-12.2 2-25.3-7.7-31.4 5.1 4.7 6.9 10.7 6.4 17.4-0.2 1.4-0.5 2.8-0.9 4.2 0.5 6.7-2.5 12.3-7.2 17.3-1.9 2-4.1 3.7-6.1 5.5-3.7 3.3-8.1 4.2-12.8 4.2h-499.2c-4.7 0-9.2-0.9-12.8-4.2-2-1.2-4.5-1.7-5.6-4.2-8.1-4.2-11.9-16.2-8.8-25.4 0-1.1 0-2.3 0.1-3.4 0.5-4.7 2.9-8.3 6.4-11.3-7.5 4.7-11.7 15.2-9.8 24.1 3.7 17.9 15.5 27.2 34.6 27.2z"/><path class="st55" d="m564.19 116.07c0.3 1.3 0.5 2.5 0.6 3.7 0.4-1.4 0.7-2.7 0.9-4.2 0.5-6.8-1.3-12.7-6.4-17.4 3.1 5.6 5.3 11.4 4.9 17.9zm-551.9-6.6c0 1.1-0.1 2.3-0.1 3.4 0.4-1.3 1-2.6 1.8-3.8-0.2-4.4 3.3-7.2 4.7-11-3.5 3.1-5.9 6.7-6.4 11.4z"/></g><path class="st61" d="m39.888 225.97c1.5 0.4 3.2 0.1 4.9 0.1h488.6c7.1 0 13.8-1.1 19.6-5.6 1.1-0.8 1.9-1.6 2.3-2.7-0.3 0.2-0.5 0.4-0.8 0.6-5.4 4.1-11.5 5.6-18.2 5.6h-494.3c-6.7 0-12.8-1.5-18.1-5.5 3.3 5.9 10 6.1 16 7.5z" fill="#bdbdbd"/><path class="st61" d="m41.888 223.97h494.3c6.7 0 12.8-1.5 18.2-5.6 0.3-0.2 0.6-0.4 0.8-0.6 0.2-0.5 0.3-1.1 0.2-1.8-7.2 4.9-15.1 6.1-23.7 6.1-161.8-0.2-323.6-0.2-485.4 0-8.6 0-16.5-1.2-23.7-6.1 0.3 1 0.7 1.8 1.2 2.6 5.4 4 11.4 5.4 18.1 5.4z" fill="#bdbdbd"/><g fill="#d4d4d4"><path class="st5" d="m555.99 217.17c0.2 0.7 0.2 1.3 0 1.9 2.7-2.6 4.6-5.6 6-9.1-1.5 2.7-3.4 5.1-6 7.2zm-534 0c-2.4-1.9-4.2-4.2-5.7-6.7 1.4 3.2 3.3 6 5.6 8.4-0.1-0.4-0.1-1 0.1-1.7z"/><path class="st5" d="m21.988 217.17c0.1-0.4 0.3-0.8 0.6-1.2-4-4.3-6.7-9.4-8.6-15 0.3 3.4 1.1 6.6 2.3 9.5 1.5 2.6 3.4 4.8 5.7 6.7zm540-7.3c1-2.7 1.7-5.7 2-8.9-1.9 5.5-4.5 10.6-8.6 15 0.3 0.4 0.5 0.9 0.6 1.2 2.6-2.1 4.5-4.5 6-7.3z"/><path class="st5" d="m556.09 219.07c-0.4 1.2-1.7 2.1-3 3-5.1 3.6-10.7 5.3-16.9 5.4h-491.6c-7.1 0-13.8-1.2-19.7-5.4-1.3-0.9-2.6-1.9-3-3.1-2.4-2.4-4.2-5.2-5.6-8.4-1.5-2.5-2.5-5.2-3.4-8.1-0.4 1.1-0.1 2.4 0.2 3.7 3.1 14.5 13.7 22.8 29.6 22.8 164.2 0 328.3 0 492.5 0.1 5.3 0 10.1-1.3 14.8-3.1 7.1-2.8 15.6-13.1 14.5-22-0.7 2.2-1.6 4.2-2.6 6.1-1.2 3.4-3.2 6.4-5.8 9z"/><path class="st5" d="m14.088 200.97c-0.5 0.4-0.9 0.9-1.1 1.4 0.8 2.9 1.9 5.6 3.4 8.1-1.3-2.8-2.1-6-2.3-9.5zm547.9 8.9c1.1-1.9 1.9-4 2.6-6.1-0.1-0.9-0.3-1.9-0.6-2.8-0.3 3.3-1 6.2-2 8.9zm-6 7.3c-0.2 0.2-0.5 0.4-0.8 0.6-0.4 1.1-1.2 1.9-2.3 2.7-5.8 4.5-12.5 5.6-19.6 5.6h-488.6c-1.6 0-3.3 0.3-4.9-0.1-5.9-1.4-12.7-1.6-16.1-7.4 0 0-0.1 0-0.1-0.1-0.6-0.4-1.1-0.8-1.7-1.3-0.2 0.7-0.2 1.2-0.1 1.7 4.6 4.6 10.8 7.5 18 7.9 2.3 0.1 4.6 0.1 7 0.1h484.2c5.1 0 10.1 0 15.1-1.8 4-1.5 7.3-3.5 9.9-6 0.2-0.6 0.3-1.2 0-1.9z"/><path class="st5" d="m23.688 218.47c-0.3-0.7-0.7-1.5-1.1-2.5-0.3 0.4-0.5 0.9-0.6 1.2 0.6 0.5 1.1 0.9 1.7 1.3zm531.6-0.7c0.3-0.2 0.5-0.4 0.8-0.6-0.1-0.4-0.3-0.8-0.6-1.2 0 0.7-0.1 1.3-0.2 1.8zm-24.2 9.1h-484.2c-2.3 0-4.6 0.1-7-0.1-7.2-0.4-13.5-3.3-18-7.9 0.4 1.3 1.7 2.2 3 3.1 5.9 4.2 12.5 5.4 19.7 5.4 154.6-0.1 309.2 0 463.8 0h27.8c6.2 0 11.8-1.8 16.9-5.4 1.3-0.9 2.6-1.8 3-3-2.6 2.5-5.9 4.5-9.9 6-5 1.9-10 1.9-15.1 1.9z"/></g><path class="st61" d="m38.488 142.37c2.4 0.6 5.1 0.1 7.6 0.1h488.5c5.3 0 10.6 0 15.3-2.9 0.7-1 1.4-2.1 2.1-3.1-5.5 3-11.4 3.9-17.6 3.9-163.8-0.1-327.5-0.1-491.3 0-7.1 0-13.5-1.5-19.6-5.1 3.3 5.5 9.6 5.8 15 7.1z" fill="#bdbdbd"/><path class="st61" d="m43.288 140.47c163.8-0.1 327.5-0.1 491.3 0 6.2 0 12.1-0.8 17.6-3.9 0.7-0.9 1.3-1.9 2-2.8-6.6 3.8-13.8 4.7-21.4 4.7-162.6-0.1-325.2-0.1-487.8 0-8.2 0-15.6-1.3-22.4-5.8 0.3 1.1 0.7 2 1.2 2.8 5.9 3.6 12.4 5 19.5 5z" fill="#bdbdbd"/><g fill="#d4d4d4"><path class="st5" d="m548.99 141.77c-0.4 0.3-0.8 0.5-1.2 0.8 0.1-0.1 0.2-0.1 0.4-0.2 2.9-1.8 5.5-3.8 7.7-6.1-0.8 0.6-1.6 1.2-2.5 1.7-1.2 1.5-3.1 2.5-4.4 3.8zm11.7-12.9c-0.3 1.1-0.7 2.2-1.2 3.1 1.5-2.2 2.7-4.6 3.5-7.2-0.2 0.5-0.4 1-0.6 1.4-0.6 1-1.2 1.8-1.7 2.7zm-155.9 15.6h-359c-6.8 0-13.5-0.5-19.4-4.3-2.4-1.5-5-3-4.4-6.1-4-3.4-6.5-7.8-8.2-12.6-0.2 3.9 1.1 7.3 3 10.5 1.3 1.9 2.9 3.7 4.9 5.4 2.5 1.8 5 3.5 7.7 4.8 4.1 2 8.4 2.5 12.8 2.5h493.7c2.1 0 4.1-0.1 6.1-0.5-1.9 0.2-3.9 0.2-5.8 0.2-43.7 0.1-87.6 0.1-131.4 0.1z"/><path class="st5" d="m21.988 134.17c0.1-0.5 0.2-1 0.5-1.5-3.9-4-6.3-8.9-8.3-13.9-0.2 1-0.3 1.9-0.4 2.8 1.7 4.8 4.2 9.1 8.2 12.6zm540.3-7.9c0.2-0.5 0.4-1 0.6-1.4 0.8-2.7 1.3-5.5 1.2-8.7-1 3.2-2 6.4-3 9.7-0.1 1.1-0.3 2.1-0.5 3.1 0.6-1 1.2-1.8 1.7-2.7z"/><path class="st5" d="m559.49 131.97c-0.9 1.7-2.1 3.1-3.6 4.4-2.2 2.2-4.8 4.2-7.7 6.1-0.1 0.1-0.2 0.1-0.4 0.2-1.8 1.1-3.7 1.5-5.7 1.8s-4 0.5-6.1 0.5h-493.7c-4.5 0-8.8-0.5-12.8-2.5-2.7-1.4-5.3-3-7.7-4.8-2-1.7-3.6-3.5-4.9-5.4 1.3 2.2 2.8 4.2 4.3 6.3 1 2.5 3.6 3 5.6 4.2 12.4 3.7 25.2 2.8 37.9 2.8h449.8c12.4 0 25 0.9 37.2-2.8 2.1-1.8 4.3-3.5 6.1-5.5 4.7-5 7.7-10.6 7.2-17.3-0.5 1.7-1.1 3.4-1.8 5-1.1 2.4-2.3 4.8-3.7 7z"/><path class="st5" d="m562.89 124.77c0.7-1.6 1.3-3.3 1.8-5-0.1-1.2-0.3-2.4-0.6-3.7 0.1 3.2-0.4 6.1-1.2 8.7zm-9.5 13.3c-1 0.6-2.2 1.2-3.4 1.7-4.8 2.8-10 2.9-15.3 2.9-162.8-0.1-325.7 0-488.5 0-2.6 0-5.2 0.5-7.6-0.1-5.5-1.3-11.7-1.7-14.8-7-0.1-0.1-0.2-0.1-0.3-0.2-0.5-0.4-0.9-0.8-1.4-1.2-0.6 3.1 2.1 4.6 4.4 6.1 5.9 3.8 12.5 4.3 19.4 4.3 119.7-0.1 239.3 0 359 0h131.5c1.9 0 3.9 0 5.8-0.2 1.9-0.3 3.8-0.9 5.7-1.8 0.4-0.2 0.8-0.5 1.2-0.8 1.2-1.3 3.1-2.3 4.3-3.7z"/><path class="st5" d="m23.388 135.27c0.1 0.1 0.2 0.1 0.3 0.2-0.5-0.8-0.9-1.7-1.2-2.8-0.2 0.5-0.4 1-0.5 1.5 0.5 0.3 0.9 0.7 1.4 1.1zm524.4 7.3c-1.8 0.9-3.7 1.4-5.7 1.8 2-0.3 3.9-0.8 5.7-1.8z"/></g><g fill="#e8e8e8"><path class="st62" d="m12.788 118.57c0-0.2-0.1-0.4-0.1-0.5 0 1.6 0.1 3.1 0.3 4.7 0.1-0.7 0.2-1.4 0.5-2.1-0.3-0.7-0.5-1.4-0.7-2.1z"/><path class="st62" d="m12.788 118.57c0.2 0.7 0.4 1.4 0.6 2 0.2-0.6 0.4-1.2 0.7-1.9 0-3.2-0.1-6.4-0.1-9.6-0.8 3.1-1.3 6-1.3 8.9 0 0.2 0.1 0.4 0.1 0.6z"/><path class="st62" d="m12.988 122.67c-0.2-1.5-0.3-3.1-0.3-4.7-0.4-1.7-0.5-3.4-0.5-5.1-3.1 9.2 0.7 21.2 8.8 25.4-4.4-4.5-8.9-9.1-8-15.6z"/><path class="st62" d="m13.988 109.17c-0.7 1.2-1.3 2.5-1.8 3.8 0 1.7 0.1 3.4 0.5 5.1 0.1-2.9 0.5-5.9 1.3-8.9zm-0.2 12.3-0.3-0.9c-0.2 0.7-0.4 1.4-0.5 2.1 0.5 3.3 1.7 6.4 3.8 9.3-1.9-3.1-3.2-6.5-3-10.5z"/><path class="st62" d="m13.788 121.47c0-0.9 0.2-1.8 0.4-2.8-0.3 0.6-0.5 1.3-0.7 1.9zm3 10.6c-2-2.9-3.2-6-3.8-9.3-0.9 6.5 3.6 11.1 8 15.7-1.5-2.2-3-4.3-4.2-6.4z"/></g><g fill="#cdcdce"><path class="st63" d="m556.79 133.37c-0.8 0.7-1.6 1.3-2.4 1.9 0 0.3 0 0.6-0.1 0.8 0.8-0.8 1.7-1.7 2.5-2.7z"/><path class="st63" d="m556.79 133.37c1.8-2.3 3.3-4.8 4.4-7.6-2.3 2.7-4.7 5.4-7 8.1 0.1 0.6 0.2 1 0.2 1.5 0.8-0.7 1.6-1.3 2.4-2zm-2.6 2.8c0-0.3 0.1-0.5 0.1-0.8-0.6 0.4-1.1 0.7-1.7 1.1-0.1 0.1-0.3 0.1-0.4 0.2-0.7 1-1.4 2.1-2.1 3.1 1.4-1.1 2.8-2.3 4.1-3.6z"/><path class="st63" d="m552.19 136.67c0.1-0.1 0.3-0.1 0.4-0.2 0.6-0.3 1.2-0.7 1.7-1.1 0-0.5-0.1-1-0.2-1.5-0.6 0.9-1.3 1.8-1.9 2.8zm4.6-3.3c-0.8 1-1.6 1.9-2.5 2.8-0.1 0.7-0.4 1.3-0.9 1.9 0.9-0.5 1.7-1.1 2.5-1.7 1.4-1.4 2.6-2.8 3.6-4.4 0.5-0.9 0.9-2 1.2-3.1-1.2 1.6-2.5 3.2-3.9 4.5z"/><path class="st63" d="m560.69 128.87c0.3-1 0.4-2 0.5-3.1-1.1 2.8-2.6 5.4-4.4 7.6 1.4-1.3 2.7-2.9 3.9-4.5zm-1.2 3.1c-1.1 1.5-2.3 3-3.6 4.4 1.4-1.3 2.6-2.7 3.6-4.4zm-9.5 7.7c1.2-0.5 2.3-1.1 3.4-1.7 0.4-0.5 0.7-1.2 0.9-1.9-1.4 1.4-2.8 2.6-4.3 3.6z"/></g><path class="st61" d="m28.288 387.87c2 1.1 4.2 1.9 6.5 2.5h505.5c5-1.9 11.2-2 14.1-7.2-6.2 3.8-12.9 5.1-20.2 5.1-163.5-0.1-327.1-0.1-490.6 0-6.4 0-12.5-0.6-18.1-4-0.1-0.1-0.2-0.1-0.3-0.2 1 1.1 2.2 2 2.7 3.4z" fill="#bdbdbd"/><path class="st61" d="m25.588 384.27c5.6 3.4 11.7 4 18.1 4 163.5-0.1 327.1-0.1 490.6 0 7.3 0 14-1.4 20.2-5.1 0.5-0.8 0.8-1.7 1.1-2.8-6.5 4.6-13.7 5.9-21.6 5.9-163.1-0.1-326.2-0.1-489.2 0-7.4 0-14.3-0.9-20.6-4.7 0.1 1.1 0.7 1.8 1.3 2.6-0.1 0 0 0.1 0.1 0.1zm9.2 6.1c-2.3-0.6-4.5-1.4-6.5-2.5 1.8 2 4.1 2.4 6.5 2.5z" fill="#bdbdbd"/><g fill="#d4d4d4"><path class="st5" d="m14.988 372.77c0.7 2.1 1.7 4.1 2.9 5.9-0.6-1.1-1.1-2.3-1.5-3.5-0.5-0.8-0.9-1.6-1.4-2.4zm541.1 9.1c0.1 0.5 0.2 1 0.1 1.4 2.5-2.5 4.5-5.4 5.8-8.7-1.5 2.6-3.4 5.1-5.9 7.3z"/><path class="st5" d="m14.988 372.77 1.5 2.4c-0.4-1.4-0.7-2.9-0.9-4.5-1.9-1.9-0.5-4.7-1.6-6.8-0.4 3.1 0 6 1 8.9zm547 1.7c1.3-3.2 2.1-6.8 2.1-10.6-1.8 6-4.1 11.8-8.6 16.5 0.3 0.5 0.5 1 0.6 1.5 2.5-2.2 4.4-4.7 5.9-7.4z"/><path class="st5" d="m556.19 383.27c-0.3 1.9-2.3 3.1-4 4.1-4.2 2.5-8.7 4-13.7 4.3h-0.6c-1.4 0.3-2.8 0.1-4.2 0h-489.6c-1.3 0.1-2.7 0.3-4 0h-0.6c-4.1-0.3-8.2-0.3-11.8-2.7-1-1.2-2.5-2.2-3.4-3.4-2.8-1.8-5-4.1-6.5-6.9-1.3-1.9-2.2-3.9-2.9-5.9-0.3-0.5-0.6-0.9-0.8-1.4-0.7-1.1-1.2-2.3-1.5-3.5 0.1 0.9 0.3 1.7 0.5 2.6 3.5 14.9 13.2 22.6 28.9 22.6 164.7 0 329.4 0 494.1 0.1 4 0 7.9-0.8 11.6-1.9 10.2-3.1 17.6-14.1 17.1-23.7-0.7 2.4-1.6 4.7-2.7 6.9-1.4 3.3-3.4 6.3-5.9 8.8z"/><path class="st5" d="m561.99 374.47c1.2-2.1 2-4.5 2.7-6.9-0.1-1.3-0.3-2.5-0.6-3.7 0 3.8-0.8 7.4-2.1 10.6zm-547-1.7c-0.9-2.8-1.4-5.8-1.1-8.9-1.1 1.2-1.3 2.6-1.2 3.9 0.3 1.2 0.7 2.4 1.5 3.5 0.2 0.5 0.5 1 0.8 1.5zm11 13.8c0.8 0.5 1.5 0.9 2.3 1.4l-0.3-0.3c-0.7-0.4-1.4-0.8-2-1.1zm530.1-4.7c-0.4 0.4-0.9 0.8-1.4 1.2-0.1 0.1-0.2 0.1-0.3 0.2-2.9 5.2-9.1 5.3-14.1 7.2l-0.6 0.6c1.4-0.1 2.8-0.4 4.2-0.7 4.9-1.3 9.1-3.7 12.4-7 0-0.6-0.1-1-0.2-1.5zm-521.3 8.5c1.2 0.3 2.4 0.5 3.6 0.6-0.2-0.2-0.5-0.4-0.7-0.6z"/><path class="st5" d="m554.79 382.97c0.5-0.4 0.9-0.8 1.4-1.2-0.1-0.5-0.3-0.9-0.6-1.5-0.3 1.1-0.6 2-1.1 2.8 0 0 0.1 0 0.3-0.1zm-509.8 8.7h-0.8 489.6-0.6c-162.8 0.1-325.5 0.1-488.2 0zm494.7-0.8c-0.5 0.4-1.1 0.7-1.7 0.8h0.6c4.9-0.3 9.5-1.8 13.7-4.3 1.8-1.1 3.8-2.2 4-4.1-3.3 3.3-7.5 5.7-12.4 7-1.5 0.3-2.9 0.5-4.2 0.6zm-504.9-0.5c-2.4-0.1-4.7-0.5-6.5-2.5-0.8-0.4-1.6-0.9-2.3-1.4l-1.5-0.9c0.9 1.2 2.4 2.2 3.4 3.4 3.6 2.4 7.7 2.4 11.8 2.7h0.6c-0.6-0.1-1.2-0.4-1.7-0.8-1.4 0-2.6-0.3-3.8-0.5z"/></g><g fill="#cfcfcf"><path class="st64" d="m23.588 383.07c-0.8-0.5-1.5-1.1-2.1-1.7 0.7 0.8 1.4 1.6 2.2 2.3-0.1-0.1-0.1-0.3-0.1-0.6z"/><path class="st64" d="m23.588 383.07c0-0.5 0.1-1 0.4-1.6-3.4-3.1-6-6.9-8.5-10.9 1.3 4.1 3.3 7.6 6 10.7 0.7 0.7 1.4 1.3 2.1 1.8zm4.4 4.5c-0.5-1.4-1.7-2.3-2.7-3.4-0.6-0.3-1.1-0.6-1.6-1v0.6c1.3 1.3 2.8 2.6 4.3 3.8z"/><path class="st64" d="m25.288 384.07c-0.6-0.7-1.2-1.5-1.3-2.6-0.2 0.6-0.3 1.1-0.4 1.6 0.6 0.4 1.1 0.7 1.7 1zm-1 1.3c-0.3-0.5-0.5-1-0.6-1.6-0.8-0.8-1.5-1.5-2.2-2.3-2-1.8-3.6-3.9-5.1-6.2 0.4 1.3 0.9 2.4 1.5 3.5 1.7 2.4 3.9 4.7 6.4 6.6z"/><path class="st64" d="m21.488 381.37c-2.6-3.1-4.7-6.6-6-10.7 0.2 1.6 0.5 3.1 0.9 4.5 1.5 2.3 3.1 4.4 5.1 6.2zm-3.6-2.7c1.5 2.8 3.7 5.1 6.5 6.9-0.1-0.1-0.1-0.2-0.2-0.3-2.4-1.8-4.6-4.1-6.3-6.6zm5.8 5.1c0.1 0.6 0.3 1.1 0.6 1.6 0.6 0.4 1.1 0.8 1.7 1.2 0.7 0.4 1.3 0.7 2 1-1.5-1.2-3-2.5-4.3-3.8z"/><path class="st64" d="m24.288 385.37c0.1 0.1 0.1 0.2 0.2 0.3l1.5 0.9c-0.6-0.4-1.2-0.8-1.7-1.2z"/></g><path class="st61" d="m38.488 60.27c1.5 0.4 3.2 0.1 4.9 0.1 163.8 0 327.5 0 491.3 0.1 6 0 11.4-1.3 16.6-4.2 1.6-0.9 3.1-1.9 3.8-3.5-0.1 0.1-0.3 0.2-0.4 0.3-6.3 3.9-13.1 5.3-20.5 5.3-163.4-0.1-326.9-0.1-490.3 0-7.3 0-14-1.3-20.1-5.1 3 5.3 9.3 5.6 14.7 7z" fill="#bdbdbd"/><path class="st61" d="m43.788 58.37c163.4-0.1 326.9-0.1 490.3 0 7.4 0 14.2-1.4 20.5-5.3 0.1-0.1 0.3-0.2 0.4-0.3 0.3-0.6 0.5-1.4 0.5-2.2-6.8 4.6-14.2 5.8-22.4 5.8-162.8-0.1-325.5-0.1-488.3 0-8.2 0-15.6-1.3-22.4-5.8 0.3 1.1 0.7 2 1.2 2.8 6.3 3.7 13 5 20.2 5z" fill="#bdbdbd"/><g fill="#d4d4d4"><path class="st5" d="m21.988 51.87c-2.9-2.5-5.1-5.5-6.6-8.8 1.4 4.2 3.7 7.8 6.9 11-0.4-0.6-0.5-1.3-0.3-2.2zm510.2 10.5c-162.1 0-324.2 0-486.3 0.1-6.6 0-12.9-0.5-18.6-3.9 0.8 0.6 1.7 1.2 2.5 1.7 3.8 1.9 7.9 2.4 12.2 2.4h493.8c4.5 0 8.8-0.5 12.8-2.5 1.4-0.7 2.7-1.7 4-2.7-3.9 2.9-8.5 4.4-13.4 4.8-2.4 0.2-4.7 0.1-7 0.1zm32.1-23c-1.7 4.8-4.2 9.2-8.2 12.6 0.4 1.9-0.6 3.2-1.9 4.3 0.6-0.5 1.3-0.9 2-1.3 2.4-1.7 4.3-3.8 5.8-6.2 1.5-2.9 2.4-6 2.3-9.4z"/><path class="st5" d="m21.988 51.87c0.1-0.4 0.3-0.9 0.5-1.4-4.5-4.7-7.2-10.3-8.6-16.5 0 3.3 0.5 6.4 1.4 9.2 1.6 3.3 3.8 6.2 6.7 8.7zm542.3-12.5c0-0.9-0.2-1.8-0.4-2.8-2.1 5.1-4.4 10-8.3 13.9 0.3 0.5 0.5 1 0.6 1.4 3.9-3.4 6.3-7.7 8.1-12.5z"/><path class="st5" d="m556.19 54.87c-0.7 0.4-1.3 0.8-2 1.3-0.5 0.4-1 0.8-1.5 1.1l-0.1 0.1c-1.3 1-2.5 1.9-4 2.7-4 2-8.3 2.5-12.8 2.5h-493.8c-4.2 0-8.3-0.5-12.2-2.4-0.9-0.6-1.7-1.1-2.5-1.7-0.6-0.4-1.3-0.8-1.9-1.2-1.3-0.9-2.6-1.9-3.3-3.1-3.1-3.2-5.5-6.8-6.9-11-1.1-2.2-1.9-4.6-2.5-7.2-0.3 1.4 0.1 3 0.3 4.5 1.3 8.8 6.6 14.9 13.4 19.9 12.2 3.7 24.7 2.8 37.2 2.8h449.8c12.7 0 25.4 0.9 37.9-2.8 1.8-1.4 3.7-2.8 5.5-4.2 1.8-2.4 3.6-4.9 5-7.5-1.3 2.4-3.2 4.5-5.6 6.2z"/><path class="st5" d="m13.888 33.97c-0.6 0.6-0.9 1.3-1.1 2 0.6 2.5 1.4 4.9 2.5 7.2-0.9-2.8-1.4-5.9-1.4-9.2zm542.2 17.9c-0.3 0.3-0.7 0.6-1 0.8-0.7 1.6-2.2 2.6-3.8 3.5-5.2 2.9-10.6 4.2-16.6 4.2-163.8-0.1-327.5-0.1-491.3-0.1-1.6 0-3.3 0.3-4.9-0.1-5.5-1.4-11.7-1.7-14.8-7-0.1-0.1-0.3-0.1-0.4-0.2-0.5-0.4-0.9-0.8-1.4-1.2-0.2 0.9-0.1 1.6 0.2 2.2 1.5 1.6 3.3 3 5.1 4.4 5.6 3.4 12 3.9 18.6 3.9 162.1-0.1 324.2-0.1 486.3-0.1 2.3 0 4.6 0.1 7-0.1 4.9-0.4 9.5-1.9 13.4-4.8 0.5-0.4 1.1-0.8 1.6-1.2 1.4-1 2.4-2.3 2-4.2z"/><path class="st5" d="m23.288 53.07c0.1 0.1 0.3 0.1 0.4 0.2-0.5-0.8-0.9-1.7-1.2-2.8-0.3 0.5-0.4 1-0.5 1.4 0.4 0.4 0.8 0.8 1.3 1.2zm532.8-1.2c-0.1-0.4-0.3-0.9-0.6-1.4 0 0.9-0.2 1.6-0.5 2.2 0.5-0.2 0.8-0.5 1.1-0.8zm-3.4 5.5c0.5-0.4 1-0.7 1.5-1.1-0.6 0.4-1.1 0.8-1.6 1.2 0-0.1 0-0.1 0.1-0.1zm-527.3-0.1c0.6 0.5 1.2 0.9 1.9 1.2-1.9-1.4-3.6-2.8-5.1-4.4 0.6 1.3 2 2.3 3.2 3.2z"/></g><g fill="#e8e8e8"><path class="st62" d="m564.59 38.47c0.2 0.6 0.3 1.2 0.4 1.8 0.2-1.4 0.3-2.9 0.3-4.4 0 0.2 0 0.3-0.1 0.5z"/><path class="st62" d="m564.59 38.47c0.2-0.7 0.5-1.4 0.7-2.1 0-0.2 0-0.3 0.1-0.5 0-2.8-0.4-5.8-1.3-8.9 0 3.2-0.1 6.4-0.1 9.6 0.2 0.7 0.4 1.3 0.6 1.9z"/><path class="st62" d="m565.29 35.87c0 1.5-0.1 3-0.3 4.4 1.1 6.6-3.5 11.3-8 15.9 8.2-4.2 12-16.3 8.8-25.6 0 1.8-0.1 3.6-0.5 5.3z"/><path class="st62" d="m565.29 35.87c0.4-1.8 0.5-3.5 0.4-5.3-0.4-1.3-1-2.5-1.7-3.6 0.9 3.1 1.3 6.1 1.3 8.9zm-1 3.5c0.2 3.5-0.8 6.5-2.3 9.4 1.5-2.5 2.6-5.3 3-8.4-0.1-0.6-0.2-1.2-0.4-1.8-0.1 0.2-0.2 0.5-0.3 0.8zm-0.4-2.8c0.2 0.9 0.3 1.9 0.4 2.8l0.3-0.9c-0.2-0.6-0.4-1.2-0.7-1.9z"/><path class="st62" d="m564.99 40.27c-0.5 3.1-1.5 5.9-3 8.4-1.4 2.6-3.2 5-5 7.5 4.5-4.6 9-9.3 8-15.9z"/></g><path class="st61" d="m38.488 308.07c1.5 0.4 3.2 0.1 4.9 0.1 163.8 0 327.6 0 491.3 0.1 6 0 11.4-1.3 16.6-4.2 1.6-0.9 3.1-1.9 3.8-3.5-0.1 0.1-0.3 0.2-0.4 0.3-6.3 3.9-13.1 5.3-20.5 5.3-163.4-0.1-326.9-0.1-490.3 0-7.3 0-14-1.3-20.1-5.1 3 5.3 9.3 5.6 14.7 7z" fill="#bdbdbd"/><path class="st61" d="m43.888 306.17c163.4-0.1 326.9-0.1 490.3 0 7.4 0 14.2-1.4 20.5-5.3 0.1-0.1 0.3-0.2 0.4-0.3 0.3-0.7 0.5-1.4 0.4-2.3-6.6 4.4-13.7 5.9-21.7 5.9-163.2-0.1-326.5-0.1-489.7 0-8 0-15.1-1.5-21.7-5.9 0.3 1.1 0.7 2 1.2 2.8 6.3 3.8 13 5.1 20.3 5.1z" fill="#bdbdbd"/><g fill="#d4d4d4"><path class="st5" d="m532.19 310.17c-162.1 0-324.2 0-486.4 0.1-6.6 0-12.9-0.5-18.6-3.9 0.8 0.6 1.7 1.2 2.5 1.7 3.8 1.9 7.9 2.4 12.2 2.4h494.2c4.3 0 8.3-0.6 12.1-2.4 1.6-0.8 3-1.8 4.3-2.9-4 2.9-8.6 4.5-13.5 4.9-2.1 0.2-4.5 0.1-6.8 0.1zm23.9-10.5c0.4 1.6-0.3 2.7-1.3 3.7 1.3-1.1 2.6-2.3 4-3.5 1.5-1.4 2.7-2.9 3.7-4.5 1.1-2.6 1.9-5.3 1.8-8.2-1.8 4.8-4.2 9.2-8.2 12.5zm-534.2 0c-2.9-2.5-5-5.5-6.6-8.8 1.4 4.2 3.7 7.8 6.8 11-0.2-0.6-0.3-1.3-0.2-2.2z"/><path class="st5" d="m564.19 287.27c0-0.9-0.1-1.9-0.4-2.9-2 5.1-4.5 9.9-8.3 13.9 0.3 0.5 0.5 1 0.6 1.4 4-3.3 6.4-7.7 8.1-12.4zm-542.3 12.4c0.1-0.4 0.3-0.9 0.6-1.4-4.4-4.7-7.3-10.2-8.6-16.5 0 3.3 0.5 6.4 1.4 9.2 1.6 3.2 3.7 6.2 6.6 8.7z"/><path class="st5" d="m558.79 299.97c-1.3 1.2-2.6 2.3-4 3.5-0.5 0.5-1.1 1-1.7 1.4-0.1 0.1-0.2 0.2-0.4 0.3-1.4 1.1-2.8 2.1-4.3 2.9-3.8 1.8-7.9 2.4-12.1 2.4h-494.2c-4.2 0-8.3-0.5-12.2-2.4-0.9-0.6-1.7-1.1-2.5-1.7-0.6-0.4-1.3-0.8-1.9-1.3-1.2-0.9-2.6-1.9-3.2-3.1-3.1-3.2-5.5-6.8-6.8-11-1.1-2.3-1.9-4.6-2.5-7.2-0.3 1.4 0.1 3 0.3 4.5 1.3 8.8 6.6 14.9 13.4 19.9 12.2 3.7 24.7 2.8 37.2 2.8h449.8c12.7 0 25.4 0.9 37.9-2.8 2.8-2.3 5.5-4.6 8.3-7 0.9-1.9 1.9-3.8 2.7-5.8-1.1 1.7-2.3 3.2-3.8 4.6z"/><path class="st5" d="m13.888 281.77c-0.6 0.6-0.9 1.3-1.1 2 0.6 2.5 1.4 4.9 2.5 7.2-0.9-2.8-1.4-5.9-1.4-9.2zm542.2 17.9c-0.3 0.3-0.7 0.6-1 0.8-0.7 1.6-2.2 2.6-3.8 3.5-5.2 2.9-10.6 4.2-16.6 4.2-163.8-0.1-327.6-0.1-491.3-0.1-1.6 0-3.3 0.3-4.9-0.1-5.4-1.5-11.7-1.7-14.8-7-0.1-0.1-0.3-0.1-0.4-0.2-0.5-0.4-0.9-0.8-1.4-1.2-0.2 0.8-0.1 1.6 0.2 2.2 1.5 1.6 3.3 3 5.1 4.4 5.6 3.4 12 3.9 18.6 3.9 162.1-0.1 324.2-0.1 486.4-0.1 2.3 0 4.6 0.1 7-0.1 5-0.4 9.6-2 13.5-4.9 0.1-0.1 0.2-0.2 0.4-0.3 0.6-0.5 1.1-0.9 1.7-1.4 1-0.8 1.7-2 1.3-3.6z"/><path class="st5" d="m556.09 299.67c-0.1-0.4-0.3-0.9-0.6-1.4 0 0.9-0.2 1.6-0.4 2.3 0.3-0.3 0.7-0.6 1-0.9zm-532.8 1.2c0.1 0.1 0.3 0.1 0.4 0.2-0.5-0.8-0.9-1.8-1.2-2.8-0.3 0.5-0.5 1-0.6 1.4 0.5 0.4 0.9 0.8 1.4 1.2zm2.1 4.2c0.6 0.5 1.3 0.9 1.9 1.3-1.9-1.4-3.6-2.8-5.1-4.4 0.6 1.2 2 2.1 3.2 3.1zm529.4-1.6c-0.6 0.5-1.1 0.9-1.7 1.4 0.6-0.5 1.2-0.9 1.7-1.4z"/></g><g fill="#e8e8e8"><path class="st62" d="m564.59 286.07c0.2 0.6 0.4 1.2 0.5 1.8 0.2-1.4 0.2-2.8 0.2-4.2 0 0.2-0.1 0.4-0.1 0.6z"/><path class="st62" d="m565.19 284.27c0.1-0.2 0.1-0.4 0.1-0.6-0.1-2.4-0.5-4.9-1.2-7.4l-0.3 8.1c0.3 0.6 0.6 1.1 0.8 1.7z"/><path class="st62" d="m565.19 287.87c0.9 5.1-2.4 9.2-5.4 13.4 6.5-5.5 8.9-15.2 6-22.2 0 1.5-0.1 3.1-0.4 4.6 0 1.4-0.1 2.8-0.2 4.2z"/><path class="st62" d="m565.29 283.57c0.3-1.5 0.4-3.1 0.4-4.6-0.4-1-1-2-1.6-2.8 0.7 2.6 1.1 5 1.2 7.4zm-1.1 3.7c0.1 2.9-0.7 5.6-1.8 8.2 1.5-2.4 2.3-5 2.7-7.6-0.1-0.6-0.3-1.2-0.5-1.8-0.1 0.4-0.2 0.8-0.4 1.2z"/><path class="st62" d="m564.59 286.07c-0.2-0.6-0.4-1.1-0.8-1.7 0.2 1 0.3 1.9 0.4 2.9 0.2-0.4 0.3-0.8 0.4-1.2zm0.6 1.8c-0.4 2.7-1.2 5.2-2.7 7.6-0.8 1.9-1.8 3.8-2.7 5.8 2.9-4.2 6.3-8.3 5.4-13.4z"/></g><path class="st61" d="m38.488 472.37c1.5 0.4 3.2 0.1 4.9 0.1 163.8 0 327.6 0 491.3 0.1 6 0 11.4-1.3 16.6-4.2 1.6-0.9 3.1-1.9 3.8-3.5-0.1 0.1-0.3 0.2-0.4 0.3-6.3 3.9-13.1 5.3-20.5 5.3-163.4-0.1-326.9-0.1-490.3 0-7.3 0-13.9-1.3-20.1-5.1 3 5.3 9.3 5.5 14.7 7z" fill="#bdbdbd"/><path class="st61" d="m43.788 470.47c163.4-0.1 326.9-0.1 490.3 0 7.4 0 14.2-1.4 20.5-5.3 0.1-0.1 0.3-0.2 0.4-0.3 0.3-0.7 0.5-1.4 0.4-2.3-6.6 4.4-13.7 5.9-21.7 5.9-163.2-0.1-326.5-0.1-489.7 0-8 0-15.1-1.5-21.7-5.9 0.3 1.1 0.7 2 1.2 2.8 6.4 3.7 13.1 5.1 20.3 5.1z" fill="#bdbdbd"/><g fill="#d4d4d4"><path class="st5" d="m21.888 463.97c-3.1-2.7-5.4-6-7-9.6 1.4 4.5 3.9 8.3 7.2 11.7-0.2-0.6-0.3-1.3-0.2-2.1zm542.3-12.5c-1.7 4.8-4.2 9.1-8.1 12.5 0.6 2.5-1.5 4-3.3 5.4-4 2.9-8.6 4.5-13.6 4.9-2.3 0.2-4.6 0.1-7 0.1-162.1 0-324.3 0-486.4 0.1-7 0-13.7-0.6-19.5-4.5 1.1 0.9 2.2 1.8 3.4 2.7 4.2 1.7 8.5 2.1 13 2.1h492.6c4.7 0 9.2-0.5 13.6-2.3 1.9-1.4 3.7-2.9 5.8-4 2.7-1.6 4.9-3.8 6.6-6.5 1.9-3.2 3.1-6.6 2.9-10.5z"/><path class="st5" d="m21.888 463.97c0.1-0.4 0.3-0.9 0.6-1.4-4.4-4.7-7.3-10.2-8.6-16.5-0.1 3.1 0.3 5.8 1.1 8.4 1.6 3.6 3.8 6.8 6.9 9.5zm542.3-12.5c0-0.9-0.2-1.9-0.4-2.9-2 5.1-4.5 9.9-8.3 13.9 0.3 0.5 0.5 1 0.6 1.4 4-3.3 6.4-7.6 8.1-12.4z"/><path class="st5" d="m554.69 468.47c-2.1 1.1-3.9 2.6-5.8 4-4.3 1.8-8.9 2.3-13.6 2.3h-492.6c-4.5 0-8.8-0.4-13-2.1-1.2-0.9-2.3-1.7-3.4-2.7-0.3-0.2-0.6-0.4-0.9-0.7-1.3-1-2.7-1.9-3.3-3.2-3.3-3.4-5.8-7.2-7.2-11.7-0.9-2-1.6-4.2-2.1-6.4-0.6 1.9-0.1 3.9 0.4 5.9 1.8 8.1 7 13.8 13.4 18.6 12.2 3.7 24.7 2.8 37.2 2.8h449.8c12.7 0 25.4 0.9 37.9-2.8 1.4-0.9 2.8-1.9 4.1-2.8 2-2.5 4.1-5 5.7-7.7-1.7 2.6-3.9 4.8-6.6 6.5z"/><path class="st5" d="m13.888 446.07c-0.5 0.6-0.9 1.3-1.1 2 0.5 2.2 1.2 4.4 2.1 6.4-0.7-2.6-1.1-5.4-1-8.4zm518.4 28.4c2.3 0 4.6 0.1 7-0.1 5-0.4 9.5-2 13.6-4.9 1.9-1.4 3.9-2.9 3.3-5.4-0.3 0.3-0.7 0.6-1 0.8-0.7 1.6-2.2 2.6-3.8 3.5-5.2 2.9-10.6 4.2-16.6 4.2-163.8-0.1-327.6-0.1-491.3-0.1-1.6 0-3.3 0.3-4.9-0.1-5.4-1.5-11.7-1.7-14.8-7-0.1-0.1-0.3-0.1-0.4-0.2-0.5-0.4-0.9-0.8-1.4-1.2-0.2 0.8-0.1 1.5 0.2 2.1 1.3 1.4 2.7 2.6 4.2 3.9 5.9 3.9 12.5 4.5 19.5 4.5 162.1-0.1 324.2 0 486.4 0z"/><path class="st5" d="m23.288 465.17c0.1 0.1 0.3 0.1 0.4 0.2-0.5-0.8-0.9-1.7-1.2-2.8-0.3 0.5-0.5 1-0.6 1.4 0.5 0.4 0.9 0.8 1.4 1.2zm532.8-1.2c-0.1-0.4-0.3-0.9-0.6-1.4 0 0.9-0.2 1.6-0.4 2.3 0.3-0.3 0.7-0.6 1-0.9zm-530.7 5.3c0.3 0.2 0.6 0.4 0.9 0.7-1.5-1.2-2.9-2.5-4.2-3.9 0.6 1.3 2 2.3 3.3 3.2z"/></g><g fill="#e8e8e8"><path class="st62" d="m564.49 450.77c0.2 0.8 0.3 1.5 0.4 2.3 0.4-1.8 0.5-3.6 0.5-5.5-0.1 0.3-0.1 0.6-0.2 1-0.2 0.6-0.4 1.4-0.7 2.2z"/><path class="st62" d="m565.19 448.47c0.1-0.3 0.1-0.6 0.2-1 0-2.8-0.5-5.7-1.4-8.4-0.1 3.2-0.1 6.4-0.2 9.5 0.3 0.7 0.5 1.4 0.6 2.1 0.4-0.7 0.6-1.5 0.8-2.2z"/><path class="st62" d="m565.39 447.47c0 1.9-0.2 3.7-0.5 5.5 0.5 5.8-2.6 11.2-9.3 16.7 7.9-3.4 10.4-10.5 11-18 0.3-3.6 1.9-7.9-0.9-11.2 0.1 2.3 0.1 4.7-0.3 7z"/><path class="st62" d="m563.99 439.07c0.9 2.8 1.3 5.6 1.4 8.4 0.4-2.3 0.4-4.7 0.2-7.1-0.4-0.4-0.9-0.9-1.6-1.3zm0.2 12.4c0.2 4-1.1 7.3-3 10.5 1.7-2.6 2.9-5.7 3.6-8.9-0.1-0.8-0.2-1.5-0.4-2.3 0 0.2-0.1 0.4-0.2 0.7z"/><path class="st62" d="m564.49 450.77-0.6-2.1c0.2 1 0.3 1.9 0.4 2.9 0-0.4 0.1-0.6 0.2-0.8zm0.4 2.2c-0.6 3.2-1.9 6.3-3.6 8.9-1.6 2.7-3.7 5.2-5.7 7.7 6.7-5.4 9.7-10.8 9.3-16.6zm-522.2 23c-5.7 0-11-1.1-16.1-3.5 3.8 4.3 8.9 4.2 14 4.2h496.2c5.3 0 10.6 0.2 14.7-4.2-5.1 2.4-10.5 3.5-16.1 3.5z"/><path class="st62" d="m513.59 475.27h-449.8c-12.4 0-25 0.9-37.2-2.8 5.1 2.4 10.4 3.5 16.1 3.5h492.6c5.7 0 11-1.1 16.1-3.5-12.4 3.7-25.1 2.8-37.8 2.8zm19.6-163.5c-162.8-0.1-325.6-0.1-488.4 0-6.4 0-12.4-1-18.2-3.5 3.7 3.3 8.1 4.2 12.8 4.2h499.2c4.7 0 9.2-0.9 12.8-4.2-5.8 2.5-11.8 3.5-18.2 3.5z"/><path class="st62" d="m533.19 311.77c6.4 0 12.4-1 18.2-3.5-12.4 3.7-25.2 2.8-37.9 2.8h-449.8c-12.4 0-25 0.9-37.2-2.8 5.8 2.6 11.8 3.5 18.2 3.5 162.9-0.1 325.7-0.1 488.5 0zm-488.4-247.8c-6.4 0-12.4-1-18.2-3.5 3.7 3.3 8.1 4.2 12.8 4.2h499.2c4.7 0 9.2-0.9 12.8-4.2-5.8 2.6-11.8 3.5-18.2 3.5-162.8-0.1-325.6-0.1-488.4 0z"/><path class="st62" d="m513.59 63.17h-449.8c-12.4 0-25 0.9-37.2-2.8 5.8 2.6 11.8 3.5 18.2 3.5 162.8-0.1 325.6-0.1 488.4 0 6.4 0 12.4-1 18.2-3.5-12.4 3.7-25.1 2.8-37.8 2.8zm-468.8 82.9c-6.4 0-12.4-1-18.2-3.5 3.7 3.3 8.1 4.2 12.8 4.2h499.2c4.7 0 9.2-0.9 12.8-4.2-5.8 2.5-11.8 3.5-18.2 3.5-162.8-0.1-325.6-0.1-488.4 0z"/><path class="st62" d="m514.29 145.27h-449.8c-12.7 0-25.4 0.9-37.9-2.8 5.8 2.5 11.8 3.5 18.2 3.5 162.8-0.1 325.6-0.1 488.4 0 6.4 0 12.4-1 18.2-3.5-12.1 3.8-24.7 2.8-37.1 2.8z"/></g><g fill="#cfcfcf"><path class="st64" d="m40.288 391.07h1.6c1.1 0 2.2-0.2 3.3-0.2h487.6c0.8 0 1.6 0.1 2.4 0.1 1.1 0 2.2-0.1 3.3-0.1 0.6-0.1 1.2-0.3 1.8-0.7h-502.6c0.9 0.6 1.8 0.9 2.6 0.9zm498.2-0.1c-1.1 0.1-2.2 0.1-3.3 0.1 1.1 0.1 2.2 0.2 3.3-0.1zm-494.4 0.7h-4c1.3 0.3 2.7 0.1 4 0zm493.8 0h-4.2c1.4 0.1 2.9 0.3 4.2 0z"/><path class="st64" d="m45.188 390.97c-1.1 0-2.2 0.1-3.3 0.2h493.2c-0.8 0-1.6-0.1-2.4-0.1-162.4 0-324.9 0-487.5-0.1zm494.5-0.1c0.2-0.2 0.4-0.3 0.6-0.6-0.6 0.3-1.2 0.5-1.8 0.7 0.4 0 0.8 0 1.2-0.1zm-502-0.5c0.2 0.3 0.5 0.5 0.7 0.6 0.4 0 0.7 0.1 1.1 0.1h0.8c-0.8 0-1.7-0.3-2.6-0.7z"/><path class="st64" d="m538.49 390.97c-1.1 0.2-2.2 0.2-3.3 0.1h-495.6c-0.4 0-0.7-0.1-1.1-0.1 0.5 0.4 1.1 0.6 1.7 0.8h497.7c0.6-0.1 1.2-0.4 1.7-0.8z"/></g></g></g></svg>
