<?xml version="1.0" encoding="UTF-8"?>
<svg width="60" height="40" version="1.1" viewBox="0 0 60 40" xmlns="http://www.w3.org/2000/svg" xmlns:cc="http://creativecommons.org/ns#" xmlns:dc="http://purl.org/dc/elements/1.1/" xmlns:rdf="http://www.w3.org/1999/02/22-rdf-syntax-ns#"><metadata><rdf:RDF><cc:Work rdf:about=""><dc:format>image/svg+xml</dc:format><dc:type rdf:resource="http://purl.org/dc/dcmitype/StillImage"/><dc:title/></cc:Work></rdf:RDF></metadata><defs><mask id="c" fill="#ffffff"><path d="m0 0h313.3v159.86h-313.3z" fill="#fff" fill-rule="evenodd"/></mask></defs><mask id="a" fill="#ffffff"><path d="m0 0h313.3v159.86h-313.3z" fill="#fff" fill-rule="evenodd"/></mask><mask id="b" fill="#ffffff"><path d="m0 0h313.3v159.86h-313.3z" fill="#fff" fill-rule="evenodd"/></mask><g><circle cx="16.627" cy="16.633" r="16.434" fill="#ababf7" stop-color="#000000"/><g transform="matrix(.08667 0 0 .08667 54.838 -43.976)"><path d="m56.695 510.77-107.53 84.402-79.398-66.275 61.189 82.843-54.627 74.395 72.837-52.987 102.53 91.046-81.039-107.53z" fill="#000e44" fill-rule="evenodd"/></g><g transform="matrix(.15069 0 0 .15069 -6.1977 -20.881)" fill="none" fill-rule="evenodd"><g transform="matrix(.92863 0 0 -.92863 9.2718 454.16)"><g transform="matrix(.94489 0 0 .94489 8.6963 2.7018)" fill="#0f0c6f" mask="url(#c)"><path transform="rotate(35 137.93 151.55)" d="m203.46 95.688c6.9363 0 12.559-14.809 12.559-33.077 0-18.268-5.623-33.077-12.559-33.077s-12.559 14.809-12.559 33.077c0 18.268 5.623 33.077 12.559 33.077z"/><path transform="matrix(-.81915 .57358 .57358 .81915 58.085 47.705)" d="m30.142 95.688c6.9363 0 12.559-14.809 12.559-33.077 0-18.268-5.623-33.077-12.559-33.077-6.9363 0-12.559 14.809-12.559 33.077 0 18.268 5.623 33.077 12.559 33.077z"/><path transform="matrix(-1 0 0 1 272.63 53.671)" d="m116.73 66.275c6.9363 0 12.559-14.809 12.559-33.077 0-18.268-5.623-33.077-12.559-33.077-6.9363 0-12.559 14.809-12.559 33.077 0 18.268 5.623 33.077 12.559 33.077z"/></g><path transform="matrix(.94489 0 0 .94489 8.6963 2.7018)" d="m251.47 173.1c-20.23-33.61-56.89-56.068-98.756-56.068-40.721 0-76.516 21.246-97.059 53.335" mask="url(#c)" stroke="#0f0c6f" stroke-width="20"/></g></g></g><path d="m21.815 16.354c-1.0096 0-1.9148 0.44731-2.5347 1.1516l-1.5883-1.1244c0.16861-0.46421 0.26542-0.96267 0.26542-1.4844 0-0.51269-0.09345-1.0028-0.2565-1.4601l1.5848-1.1125c0.61978 0.7007 1.5226 1.1456 2.5293 1.1456 1.8635 0 3.3799-1.5161 3.3799-3.3799 0-1.8638-1.5163-3.3799-3.3799-3.3799-1.8635 0-3.3799 1.5161-3.3799 3.3799 0 0.3336 0.0504 0.65528 0.14085 0.95993l-1.5858 1.1131c-0.66245-0.82182-1.6163-1.3956-2.703-1.5708v-1.9113c1.531-0.32156 2.6845-1.6818 2.6845-3.3072 0-1.8638-1.5163-3.3799-3.3799-3.3799s-3.3799 1.5161-3.3799 3.3799c0 1.6036 1.1237 2.9471 2.624 3.2916v1.9361c-2.0476 0.35941-3.6098 2.1464-3.6098 4.2955 0 2.1596 1.5777 3.9531 3.64 4.3003v2.0444c-1.5157 0.33316-2.6543 1.6849-2.6543 3.2994 0 1.8638 1.5163 3.3799 3.3799 3.3799s3.3799-1.5161 3.3799-3.3799c0-1.6145-1.1386-2.9662-2.6543-3.2994v-2.0444a4.3643 4.3643 0 0 0 2.6573-1.5455l1.5989 1.1317c-0.08877 0.30191-0.13848 0.6204-0.13848 0.95063 0 1.8638 1.5163 3.3799 3.3799 3.3799 1.8635 0 3.3799-1.5161 3.3799-3.3799 0-1.8638-1.5163-3.3799-3.3799-3.3799zm0-7.9029c0.90366 0 1.6387 0.7353 1.6387 1.6387 0 0.90342-0.735 1.6387-1.6387 1.6387-0.90367 0-1.6387-0.73524-1.6387-1.6387 0-0.90342 0.735-1.6387 1.6387-1.6387zm-9.8619-3.0775c0-0.90342 0.73506-1.6387 1.6387-1.6387s1.6387 0.73524 1.6387 1.6387-0.735 1.6387-1.6387 1.6387-1.6387-0.73524-1.6387-1.6387zm3.2774 19.167c0 0.90342-0.735 1.6387-1.6387 1.6387s-1.6387-0.73525-1.6387-1.6387c0-0.90341 0.73506-1.6387 1.6387-1.6387s1.6387 0.73525 1.6387 1.6387zm-1.6388-7.3587c-1.2603 0-2.2856-1.0251-2.2856-2.2854 0-1.2603 1.0253-2.2856 2.2856-2.2856 1.2603 0 2.2856 1.0253 2.2856 2.2856 0 1.2603-1.0253 2.2854-2.2856 2.2854zm8.2233 4.1905c-0.90367 0-1.6387-0.73531-1.6387-1.6387s0.735-1.6387 1.6387-1.6387c0.90366 0 1.6387 0.73524 1.6387 1.6387s-0.735 1.6387-1.6387 1.6387z" fill="#0f0c6f" stroke-width=".062378"/></svg>
