<?xml version="1.0" encoding="UTF-8"?>
<svg width="40" height="40" version="1.1" viewBox="0 0 40 40" xmlns="http://www.w3.org/2000/svg" xmlns:cc="http://creativecommons.org/ns#" xmlns:dc="http://purl.org/dc/elements/1.1/" xmlns:rdf="http://www.w3.org/1999/02/22-rdf-syntax-ns#"><metadata><rdf:RDF><cc:Work rdf:about=""><dc:format>image/svg+xml</dc:format><dc:type rdf:resource="http://purl.org/dc/dcmitype/StillImage"/><dc:title/></cc:Work></rdf:RDF></metadata><defs><mask id="c" fill="#ffffff"><path d="m0 0h313.3v159.86h-313.3z" fill="#fff" fill-rule="evenodd"/></mask></defs><mask id="a" fill="#ffffff"><path d="m0 0h313.3v159.86h-313.3z" fill="#fff" fill-rule="evenodd"/></mask><mask id="b" fill="#ffffff"><path d="m0 0h313.3v159.86h-313.3z" fill="#fff" fill-rule="evenodd"/></mask><g transform="translate(.39981 .1208)"><g transform="matrix(.49527 0 0 .49527 5.0758 3.2126)"><g transform="matrix(1.7758,0,0,1.7758,-164.24,-70.425)"><g transform="translate(96.564,87.836)" fill="#66ff9a" stroke-width="3.24"><polygon class="st0" transform="matrix(.72255 0 0 .7031 -28.717 -125.97)" points="32.9 118.6 55.7 105.5 78.4 118.6 78.4 144.9 55.7 158 32.9 144.9" fill="#ed8c8c"/></g><g transform="matrix(.15831 0 0 .15831 83.649 18.463)" fill="#005e20" fill-rule="evenodd"><g transform="matrix(1.0777,0,0,-1.0777,-10.799,451.79)"><g transform="matrix(.94489 0 0 .94489 8.6963 2.7018)" fill="#6f0c0c" mask="url(#c)"><path transform="rotate(35,137.93,151.55)" d="m203.46 95.688c6.9363 0 12.559-14.809 12.559-33.077s-5.623-33.077-12.559-33.077-12.559 14.809-12.559 33.077 5.623 33.077 12.559 33.077z"/><path transform="matrix(-.81915 .57358 .57358 .81915 58.085 47.705)" d="m30.142 95.688c6.9363 0 12.559-14.809 12.559-33.077s-5.623-33.077-12.559-33.077c-6.9363 0-12.559 14.809-12.559 33.077s5.623 33.077 12.559 33.077z"/><path d="m153.24 119.95c-6.9363 0-12.559-14.809-12.559-33.077s5.623-33.077 12.559-33.077c6.9363 0 12.559 14.809 12.559 33.077s-5.623 33.077-12.559 33.077z"/></g><path transform="matrix(.94489 0 0 .94489 8.6963 2.7018)" d="m251.47 173.1c-20.23-33.61-56.89-56.068-98.756-56.068-40.721 0-76.516 21.246-97.059 53.335" fill="none" mask="url(#c)" stroke="#6f0c0c" stroke-width="19.999"/></g></g></g></g></g><g transform="matrix(1.2286 0 0 1.2286 -3.9864 -8.3174)" stroke-width="0"><path d="m20.352 29.365c-0.19327 0-0.36821-0.11383-0.4469-0.28992l-3.987-8.9552-1.3376 3.0045c-0.07869 0.17609-0.25363 0.28992-0.4469 0.28992h-3.1291c-0.26967 0-0.48892-0.21887-0.48892-0.48892s0.21924-0.48892 0.48892-0.48892h2.8113l1.6554-3.7177c0.07869-0.17609 0.25363-0.28992 0.4469-0.28992s0.36821 0.11383 0.4469 0.28992l3.987 8.9552 1.1574-2.6008c0.07869-0.17609 0.25363-0.28992 0.4469-0.28992h4.6936c0.26967 0 0.48892 0.21887 0.48892 0.48892s-0.21925 0.48892-0.48892 0.48892h-4.3758l-1.4751 3.3139c-0.07869 0.17609-0.25363 0.28992-0.4469 0.28992z" fill="#6f0c0c"/><path d="m26.081 17.578c-0.10322-0.19133-0.23197-0.3705-0.34641-0.55744v-1.4502c0-3.6551-2.9738-6.6289-6.6289-6.6289h-2.357c-0.40626 0-0.73655 0.32973-0.73655 0.73655v2.357c0 3.6551 2.9738 6.6289 6.6289 6.6289h2.325c0.61312 1.259 0.97513 2.6042 1.0493 4.0159 0.02072 0.39302 0.34526 0.698 0.73425 0.698 0.01381 0 0.02647-5.77e-4 0.03912-0.0012 0.40626-0.02129 0.71928-0.3677 0.69742-0.77396-0.09206-1.7746-0.56507-3.4658-1.4052-5.0246zm-8.5958-5.5431v-1.6204h1.6204c2.8426 0 5.1558 2.3126 5.1558 5.1558v0.5783l-3.456-3.456c-0.28771-0.28771-0.75496-0.28771-1.0427 0-0.28656 0.28771-0.28656 0.75381 0 1.0415l3.4566 3.4566h-0.5783c-2.8426 0-5.1558-2.3126-5.1558-5.1558z" fill="#941d19" stroke="#ed8c8c" stroke-width=".40697"/></g></svg>
