<?xml version="1.0" encoding="UTF-8"?>
<svg width="40" height="40" version="1.1" viewBox="0 0 40 40" xmlns="http://www.w3.org/2000/svg" xmlns:cc="http://creativecommons.org/ns#" xmlns:dc="http://purl.org/dc/elements/1.1/" xmlns:rdf="http://www.w3.org/1999/02/22-rdf-syntax-ns#"><metadata><rdf:RDF><cc:Work rdf:about=""><dc:format>image/svg+xml</dc:format><dc:type rdf:resource="http://purl.org/dc/dcmitype/StillImage"/><dc:title/></cc:Work></rdf:RDF></metadata><defs><mask id="c" fill="#ffffff"><path d="m0 0h313.3v159.86h-313.3z" fill="#fff" fill-rule="evenodd"/></mask></defs><mask id="a" fill="#ffffff"><path d="m0 0h313.3v159.86h-313.3z" fill="#fff" fill-rule="evenodd"/></mask><mask id="b" fill="#ffffff"><path d="m0 0h313.3v159.86h-313.3z" fill="#fff" fill-rule="evenodd"/></mask><g transform="translate(.39981 .35404)"><g transform="matrix(.49527 0 0 .49527 5.0758 3.2126)"><g transform="matrix(1.7758,0,0,1.7758,-164.24,-70.425)"><g transform="translate(96.564,87.836)" fill="#66ff9a" stroke-width="3.24"><polygon class="st0" transform="matrix(.72255 0 0 .7031 -28.717 -125.97)" points="55.7 158 32.9 144.9 32.9 118.6 55.7 105.5 78.4 118.6 78.4 144.9" fill="#ababf7"/></g><g transform="matrix(.15831 0 0 .15831 83.649 18.463)" fill="#005e20" fill-rule="evenodd"><g transform="matrix(1.0777,0,0,-1.0777,-10.799,451.79)"><g transform="matrix(.94489 0 0 .94489 8.6963 2.7018)" fill="#0f0c6f" mask="url(#c)"><path transform="rotate(35,137.93,151.55)" d="m203.46 95.688c6.9363 0 12.559-14.809 12.559-33.077s-5.623-33.077-12.559-33.077-12.559 14.809-12.559 33.077 5.623 33.077 12.559 33.077z"/><path transform="matrix(-.81915 .57358 .57358 .81915 58.085 47.705)" d="m30.142 95.688c6.9363 0 12.559-14.809 12.559-33.077s-5.623-33.077-12.559-33.077c-6.9363 0-12.559 14.809-12.559 33.077s5.623 33.077 12.559 33.077z"/><path d="m153.24 119.95c-6.9363 0-12.559-14.809-12.559-33.077s5.623-33.077 12.559-33.077c6.9363 0 12.559 14.809 12.559 33.077s-5.623 33.077-12.559 33.077z"/></g><path transform="matrix(.94489 0 0 .94489 8.6963 2.7018)" d="m251.47 173.1c-20.23-33.61-56.89-56.068-98.756-56.068-40.721 0-76.516 21.246-97.059 53.335" fill="none" mask="url(#c)" stroke="#0f0c6f" stroke-width="19.999"/></g></g></g></g></g><g transform="translate(42.937 -2.1959)" stroke-width=".20274"><path d="m-22.97 31.321-0.76696-0.26214s0.09367-3.91-1.3097-4.1906c-0.93524-1.0853 0.15003-46.024 3.5175-0.14982 0 0-1.1601 0.57983-1.3659 1.5716-0.22463 0.97295-0.07501 3.031-0.07501 3.031z" fill="#fff"/><path d="m-22.97 31.321-0.76696-0.26214s0.09367-3.91-1.3097-4.1906c-0.93524-1.0853 0.15003-46.024 3.5175-0.14982 0 0-1.1601 0.57983-1.3659 1.5716-0.22463 0.97295-0.07501 3.031-0.07501 3.031z" fill="#716def"/><path d="m-22.558 27.541s6.7168-4.4155 5.1449-13.602c-1.5153-6.6788-5.0888-8.8678-5.4817-9.7098-0.43021-0.59869-0.84198-1.6462-0.84198-1.6462l0.28079 18.578c0 0.01886-0.58004 5.6876 0.89814 6.3802" fill="#fff"/><path d="m-22.558 27.541s6.7168-4.4155 5.1449-13.602c-1.5153-6.6788-5.0888-8.8678-5.4817-9.7098-0.43021-0.59869-0.84198-1.6462-0.84198-1.6462l0.28079 18.578c0 0.01886-0.58004 5.6876 0.89814 6.3802" fill="#0f0c6f"/><path d="m-24.13 27.784s-6.3052-4.3031-5.9309-11.88c0.3554-7.5772 4.8082-11.3 5.6688-11.974 0.56138-0.59869 0.58004-0.82332 0.61754-1.422 0.39291 0.84198 0.3181 12.591 0.37405 13.976 0.16827 5.332-0.29924 10.29-0.72946 11.3z" fill="#fff"/><path d="m-24.13 27.784s-6.3052-4.3031-5.9309-11.88c0.3554-7.5772 4.8082-11.3 5.6688-11.974 0.56138-0.59869 0.58004-0.82332 0.61754-1.422 0.39291 0.84198 0.3181 12.591 0.37405 13.976 0.16827 5.332-0.29924 10.29-0.72946 11.3z" fill="#4c48d9"/></g></svg>
