<?xml version="1.0" encoding="UTF-8"?>
<svg width="40" height="40" version="1.1" viewBox="0 0 40 40" xmlns="http://www.w3.org/2000/svg" xmlns:cc="http://creativecommons.org/ns#" xmlns:dc="http://purl.org/dc/elements/1.1/" xmlns:rdf="http://www.w3.org/1999/02/22-rdf-syntax-ns#"><metadata><rdf:RDF><cc:Work rdf:about=""><dc:format>image/svg+xml</dc:format><dc:type rdf:resource="http://purl.org/dc/dcmitype/StillImage"/><dc:title/></cc:Work></rdf:RDF></metadata><defs><mask id="c" fill="#ffffff"><path d="m0 0h313.3v159.86h-313.3z" fill="#fff" fill-rule="evenodd"/></mask></defs><mask id="a" fill="#ffffff"><path d="m0 0h313.3v159.86h-313.3z" fill="#fff" fill-rule="evenodd"/></mask><mask id="b" fill="#ffffff"><path d="m0 0h313.3v159.86h-313.3z" fill="#fff" fill-rule="evenodd"/></mask><g><g transform="translate(40)"><g transform="translate(-39.6 .29272)"><g transform="matrix(.49527 0 0 .49527 5.0758 3.2126)"><g transform="matrix(1.7758,0,0,1.7758,-164.24,-70.425)"><g transform="translate(96.564,87.836)" fill="#66ff9a" stroke-width="3.24"><polygon class="st0" transform="matrix(.72255 0 0 .7031 -28.717 -125.97)" points="32.9 118.6 55.7 105.5 78.4 118.6 78.4 144.9 55.7 158 32.9 144.9" fill="#ed8c8c"/></g><g transform="matrix(.15831 0 0 .15831 83.649 18.463)" fill="#005e20" fill-rule="evenodd"><g transform="matrix(1.0777,0,0,-1.0777,-10.799,451.79)"><g transform="matrix(.94489 0 0 .94489 8.6963 2.7018)" fill="#6f0c0c" mask="url(#c)"><path transform="rotate(35,137.93,151.55)" d="m203.46 95.688c6.9363 0 12.559-14.809 12.559-33.077s-5.623-33.077-12.559-33.077-12.559 14.809-12.559 33.077 5.623 33.077 12.559 33.077z"/><path transform="matrix(-.81915 .57358 .57358 .81915 58.085 47.705)" d="m30.142 95.688c6.9363 0 12.559-14.809 12.559-33.077s-5.623-33.077-12.559-33.077c-6.9363 0-12.559 14.809-12.559 33.077s5.623 33.077 12.559 33.077z"/><path d="m153.24 119.95c-6.9363 0-12.559-14.809-12.559-33.077s5.623-33.077 12.559-33.077c6.9363 0 12.559 14.809 12.559 33.077s-5.623 33.077-12.559 33.077z"/></g><path transform="matrix(.94489 0 0 .94489 8.6963 2.7018)" d="m251.47 173.1c-20.23-33.61-56.89-56.068-98.756-56.068-40.721 0-76.516 21.246-97.059 53.335" fill="none" mask="url(#c)" stroke="#6f0c0c" stroke-width="19.999"/></g></g></g></g></g><g transform="matrix(.25662 0 0 .25662 -37.125 -.055485)"><g transform="matrix(.81204 0 0 .81204 11.067 5.4562)"><path d="m64 61.8 46.5-25.5-46.5-23.4-46.5 23.4z" fill="#f74039"/><path d="m17.5 36.3-0.3 51.3 46.8 25.5v-51.3z" fill="#a11611"/><path d="m110.5 36.3 0.3 51.3-46.8 25.5v-51.3z" fill="#6f0f0c"/><g stroke="#6f0f0c" stroke-dasharray="3.10962, 3.10962" stroke-width=".51827"><path d="m98.842 81.39 24.019-13.171-24.019-12.087-24.019 12.087z" fill="#fcb8b5"/><path d="m74.823 68.219-0.15496 26.498 24.174 13.171v-26.498z" fill="#ec4c46"/><path d="m122.86 68.219 0.15497 26.498-24.174 13.171v-26.498z" fill="#b81914"/><path d="m28.7 81.39 24.019-13.171-24.019-12.087-24.019 12.087z" fill="#fcb8b5"/><path d="m4.6816 68.219-0.15496 26.498 24.174 13.171v-26.498z" fill="#ec4c46"/><path d="m52.719 68.219 0.15497 26.498-24.174 13.171v-26.498z" fill="#b81914"/></g></g></g></g></g></svg>
