<?xml version="1.0" encoding="UTF-8" standalone="no"?>
<svg
   xmlns:dc="http://purl.org/dc/elements/1.1/"
   xmlns:cc="http://creativecommons.org/ns#"
   xmlns:rdf="http://www.w3.org/1999/02/22-rdf-syntax-ns#"
   xmlns:svg="http://www.w3.org/2000/svg"
   xmlns="http://www.w3.org/2000/svg"
   xmlns:sodipodi="http://sodipodi.sourceforge.net/DTD/sodipodi-0.dtd"
   xmlns:inkscape="http://www.inkscape.org/namespaces/inkscape"
   height="40"
   viewBox="0 0 60 40"
   width="60"
   version="1.1"
   id="svg36"
   sodipodi:docname="cluster-ocs.svg"
   inkscape:version="1.0.1 (3bc2e813f5, 2020-09-07)">
  <sodipodi:namedview
     pagecolor="#ffffff"
     bordercolor="#666666"
     borderopacity="1"
     objecttolerance="10"
     gridtolerance="10"
     guidetolerance="10"
     inkscape:pageopacity="0"
     inkscape:pageshadow="2"
     inkscape:window-width="1920"
     inkscape:window-height="1016"
     id="namedview191"
     showgrid="false"
     inkscape:zoom="0.87725438"
     inkscape:cx="478.7328"
     inkscape:cy="109.34442"
     inkscape:window-x="0"
     inkscape:window-y="0"
     inkscape:window-maximized="1"
     inkscape:current-layer="g1042"
     inkscape:document-rotation="0" />
  <metadata
     id="metadata42">
    <rdf:RDF>
      <cc:Work
         rdf:about="">
        <dc:format>image/svg+xml</dc:format>
        <dc:type
           rdf:resource="http://purl.org/dc/dcmitype/StillImage" />
        <dc:title />
      </cc:Work>
    </rdf:RDF>
  </metadata>
  <defs
     id="defs40">
    <mask
       id="a-1"
       fill="#ffffff">
      <path
         d="M 0,0 H 313.30315 V 159.86486 H 0 Z"
         fill="#ffffff"
         fill-rule="evenodd"
         id="path2-9" />
    </mask>
    <mask
       id="mask865"
       fill="#ffffff">
      <path
         d="M 0,0 H 313.30315 V 159.86486 H 0 Z"
         fill="#ffffff"
         fill-rule="evenodd"
         id="path863" />
    </mask>
  </defs>
  <mask
     id="a"
     fill="#ffffff">
    <path
       d="M 0,0 H 313.30315 V 159.86486 H 0 Z"
       fill="#ffffff"
       fill-rule="evenodd"
       id="path2" />
  </mask>
  <mask
     id="b"
     fill="#ffffff">
    <path
       d="M 0,0 H 313.30315 V 159.86486 H 0 Z"
       fill="#ffffff"
       fill-rule="evenodd"
       id="path5" />
  </mask>
  <g
     id="g1042"
     style="display:inline">
    <g
       id="g994"
       transform="matrix(0.08667043,0,0,0.08667043,54.837532,-43.975856)"
       style="display:inline">
      <path
         id="path990"
         style="fill:#000e44;fill-opacity:1;fill-rule:evenodd;stroke:none;stroke-width:3.14747"
         d="m 56.695351,510.77372 -107.53235,84.40183 -79.398391,-66.27467 61.189259,82.84335 -54.627399,74.39502 72.836531,-52.98696 102.528945,91.04567 -81.03891,-107.53235 z" />
    </g>
    <circle
       style="opacity:1;fill:#ababf7;fill-opacity:1;stroke:none;stroke-width:0.308165;stroke-miterlimit:2.5;stroke-opacity:1;stop-color:#000000"
       id="path912"
       cx="16.627409"
       cy="16.633268"
       r="16.433828" />
    <g
       fill="none"
       fill-rule="evenodd"
       transform="matrix(0.15069337,0,0,0.15069337,-6.1976669,-20.880758)"
       id="g1008">
      <g
         transform="matrix(0.92863152,0,0,-0.92863152,9.2718211,454.1644)"
         id="g1006">
        <g
           fill="#0f1689"
           mask="url(#a-1)"
           id="g1002"
           style="fill:#6f0f0c;fill-opacity:1"
           transform="matrix(0.94489362,0,0,0.94489362,8.6962507,2.7018401)">
          <path
             d="m 203.46068,95.687543 c 6.93631,0 12.5593,-14.80922 12.5593,-33.077318 0,-18.268097 -5.62299,-33.077317 -12.5593,-33.077317 -6.93631,0 -12.55931,14.80922 -12.55931,33.077317 0,18.268098 5.62299,33.077318 12.55931,33.077318 z"
             transform="rotate(35,137.93117,151.55002)"
             id="path996"
             style="fill:#0f0c6f;fill-opacity:1" />
          <path
             d="m 30.142322,95.687543 c 6.936311,0 12.559301,-14.80922 12.559301,-33.077318 0,-18.268097 -5.62299,-33.077317 -12.559301,-33.077317 -6.93631,0 -12.559301,14.80922 -12.559301,33.077317 0,18.268098 5.622991,33.077318 12.559301,33.077318 z"
             transform="matrix(-0.81915204,0.57357644,0.57357644,0.81915204,58.084611,47.704768)"
             id="path998"
             style="fill:#0f0c6f;fill-opacity:1" />
          <path
             d="m 116.73282,66.275268 c 6.93631,0 12.5593,-14.80922 12.5593,-33.077318 0,-18.268097 -5.62299,-33.07731673 -12.55931,-33.07731673 -6.93631,0 -12.5593,14.80921973 -12.5593,33.07731673 0,18.268098 5.62299,33.077318 12.55931,33.077318 z"
             transform="matrix(-1,0,0,1,272.62852,53.670762)"
             id="path1000"
             style="fill:#0f0c6f;fill-opacity:1" />
        </g>
        <path
           d="m 251.46701,173.09985 c -20.23008,-33.60997 -56.88957,-56.06791 -98.75578,-56.06791 -40.7208,0 -76.515877,21.2459 -97.058696,53.33459"
           mask="url(#a-1)"
           stroke="#0f1689"
           stroke-width="20"
           id="path1004"
           style="stroke:#0f0c6f;stroke-opacity:1"
           transform="matrix(0.94489362,0,0,0.94489362,8.6962507,2.7018401)" />
      </g>
    </g>
    <g
       id="g1480" />
    <g
       id="g26"
       transform="matrix(0.03653614,0,0,-0.03653614,-34.467343,26.918953)" />
    <g
       id="g28"
       transform="matrix(0.03653614,0,0,-0.03653614,-34.467343,26.918953)" />
    <g
       id="g30"
       transform="matrix(0.03653614,0,0,-0.03653614,-34.467343,26.918953)" />
    <g
       id="g32"
       transform="matrix(0.03653614,0,0,-0.03653614,-34.467343,26.918953)" />
    <g
       id="g34"
       transform="matrix(0.03653614,0,0,-0.03653614,-34.467343,26.918953)" />
    <g
       id="g36"
       transform="matrix(0.03653614,0,0,-0.03653614,-34.467343,26.918953)" />
    <g
       id="g38"
       transform="matrix(0.03653614,0,0,-0.03653614,-34.467343,26.918953)" />
    <g
       id="g40"
       transform="matrix(0.03653614,0,0,-0.03653614,-34.467343,26.918953)" />
    <g
       id="g42"
       transform="matrix(0.03653614,0,0,-0.03653614,-34.467343,26.918953)" />
    <g
       id="g44"
       transform="matrix(0.03653614,0,0,-0.03653614,-34.467343,26.918953)" />
    <g
       id="g46"
       transform="matrix(0.03653614,0,0,-0.03653614,-34.467343,26.918953)" />
    <g
       id="g48"
       transform="matrix(0.03653614,0,0,-0.03653614,-34.467343,26.918953)" />
    <g
       id="g50"
       transform="matrix(0.03653614,0,0,-0.03653614,-34.467343,26.918953)" />
    <g
       id="g52"
       transform="matrix(0.03653614,0,0,-0.03653614,-34.467343,26.918953)" />
    <g
       id="g54"
       transform="matrix(0.03653614,0,0,-0.03653614,-34.467343,26.918953)" />
    <g
       id="g2156"
       transform="matrix(0.02153489,0,0,-0.02153489,2.780614,42.022722)">
      <path
         d="m 987.875,796.656 c -38.934,20.715 -61.172,44.063 -66.094,69.414 -4.746,24.547 6.203,51.848 33.508,83.489 65.251,74.861 101.191,171.031 101.191,270.811 0,227.54 -185.128,412.69 -412.691,412.69 -0.371,0 -1.82,-0.02 -1.82,-0.02 0,0 -1.485,0.02 -1.875,0.02 -227.571,0 -412.672,-185.15 -412.672,-412.69 0,-99.78 35.933,-195.95 101.207,-270.843 27.508,-31.851 38.195,-58.047 33.633,-82.371 -4.735,-25.324 -27.024,-48.996 -66.301,-70.468 -60.223,50.195 -113.477,117.257 -146.328,184.519 -17.817,36.503 -31.531,75.053 -40.778,114.573 -9.5191,40.62 -14.2886,82.54 -14.2886,124.59 0,73.59 14.3986,145.07 42.8556,212.38 27.504,64.94 66.816,123.3 116.93,173.37 50.058,50.1 108.414,89.41 173.375,116.9 67.296,28.46 138.738,42.88 212.367,42.88 0.39,0 1.82,0 1.82,0 0,0 1.504,0 1.875,0 73.629,0 145.082,-14.42 212.387,-42.88 64.941,-27.49 123.293,-66.8 173.374,-116.9 50.07,-50.07 89.42,-108.43 116.91,-173.37 28.46,-67.31 42.89,-138.79 42.89,-212.38 0,-42.05 -4.82,-83.97 -14.31,-124.59 -9.24,-39.52 -22.96,-78.07 -40.8,-114.573 -32.85,-67.289 -86.06,-134.344 -146.365,-184.551"
         id="path3043"
         style="fill:#0f0c6f;fill-opacity:1;fill-rule:nonzero;stroke:none" />
      <path
         d="m 786.578,694.59 c -6.34,3.988 -28,20.101 -49.113,49.351 -20.254,27.95 -44.086,74.317 -42.84,136.411 0.781,37.371 8.273,73.761 22.313,108.117 13.937,34.061 33.925,65.271 59.386,92.731 l 0.156,0.21 c 1.875,2.18 3.731,4.35 5.625,6.5 9.61,11.15 19.54,22.66 27.461,36.13 9.766,16.56 16.875,33.96 21.102,51.76 6.504,27.49 6.887,56.67 1.066,84.35 -5.371,25.45 -16.191,50.11 -31.3,71.37 -14.637,20.6 -33.7,38.57 -55.157,51.95 -22.363,13.97 -48.054,23.32 -74.222,27.03 -8.86,1.27 -17.989,1.92 -27.16,1.92 -0.629,0 -1.333,0 -1.965,0 -0.629,0 -1.282,0 -1.95,0 -9.152,0 -18.3,-0.65 -27.132,-1.92 -26.153,-3.71 -51.84,-13.06 -74.227,-27.03 -21.453,-13.38 -40.555,-31.35 -55.18,-51.95 -15.105,-21.26 -25.875,-45.92 -31.293,-71.37 -5.804,-27.68 -5.453,-56.86 1.098,-84.35 4.211,-17.8 11.32,-35.2 21.066,-51.76 7.961,-13.47 17.876,-24.98 27.489,-36.13 1.89,-2.15 3.73,-4.32 5.64,-6.5 l 0.114,-0.21 c 25.504,-27.46 45.472,-58.67 59.41,-92.731 14.031,-34.356 21.551,-70.746 22.293,-108.117 1.262,-62.094 -22.574,-108.461 -42.805,-136.411 -21.156,-29.25 -42.797,-45.363 -49.144,-49.351 -10.621,2.84 -21.215,6.031 -31.629,9.519 -31.348,10.512 -61.879,23.961 -90.891,40.063 49.875,26.832 81.574,79.215 81.574,136.305 0,37.777 -14.683,74.015 -43.633,107.656 -0.429,0.512 -0.875,0.926 -1.207,1.262 -0.058,0.085 -0.152,0.136 -0.222,0.23 -2.844,3.164 -5.66,6.254 -8.43,9.262 -8.316,9.133 -16.199,17.763 -23.238,27.213 -26.266,35.08 -45.508,76.22 -55.664,118.95 -11.039,46.46 -11.657,95.74 -1.797,142.51 9.074,43.12 27.414,84.94 52.969,120.92 24.722,34.81 56.945,65.15 93.175,87.74 37.957,23.68 81.465,39.51 125.805,45.83 15.016,2.16 30.399,3.21 45.766,3.21 0.648,0 2.156,0 2.156,0 0.633,0 1.297,0 1.945,0 15.371,0 30.797,-1.05 45.793,-3.21 44.356,-6.32 87.84,-22.15 125.801,-45.83 36.23,-22.59 68.465,-52.93 93.191,-87.74 25.539,-35.98 43.879,-77.8 52.989,-120.92 9.824,-46.77 9.191,-96.05 -1.817,-142.51 -10.183,-42.73 -29.402,-83.87 -55.703,-118.95 -7.051,-9.45 -14.902,-18.08 -23.25,-27.213 -2.734,-3.008 -5.539,-6.098 -8.39,-9.262 -0.098,-0.074 -0.164,-0.145 -0.262,-0.23 -0.332,-0.336 -0.801,-0.77 -1.203,-1.329 -29.344,-35.117 -43.621,-70.324 -43.621,-107.589 0,-57.09 31.699,-109.473 81.629,-136.305 -29.024,-16.102 -59.559,-29.551 -90.907,-40.063 -10.41,-3.488 -21.047,-6.679 -31.66,-9.519"
         id="path3045"
         style="fill:#0f0c6f;fill-opacity:1;fill-rule:nonzero;stroke:none" />
      <path
         d="m 641.93,1107.47 c -59.375,0 -107.707,48.32 -107.707,107.71 0,59.4 48.332,107.72 107.707,107.72 59.375,0 107.683,-48.32 107.683,-107.72 0,-59.39 -48.308,-107.71 -107.683,-107.71"
         id="path3047"
         style="fill:#0f0c6f;fill-opacity:1;fill-rule:nonzero;stroke:none" />
    </g>
  </g>
  <g
     transform="matrix(0.95879878,0,0,0.95879878,-871.34292,-378.35028)"
     id="g893" />
</svg>
