<?xml version="1.0" encoding="UTF-8"?>
<svg width="40" height="40" version="1.1" viewBox="0 0 40 40" xmlns="http://www.w3.org/2000/svg" xmlns:cc="http://creativecommons.org/ns#" xmlns:dc="http://purl.org/dc/elements/1.1/" xmlns:rdf="http://www.w3.org/1999/02/22-rdf-syntax-ns#"><metadata><rdf:RDF><cc:Work rdf:about=""><dc:format>image/svg+xml</dc:format><dc:type rdf:resource="http://purl.org/dc/dcmitype/StillImage"/><dc:title/></cc:Work></rdf:RDF></metadata><defs><mask id="c" fill="#ffffff"><path d="m0 0h313.3v159.86h-313.3z" fill="#fff" fill-rule="evenodd"/></mask></defs><mask id="a" fill="#ffffff"><path d="m0 0h313.3v159.86h-313.3z" fill="#fff" fill-rule="evenodd"/></mask><mask id="b" fill="#ffffff"><path d="m0 0h313.3v159.86h-313.3z" fill="#fff" fill-rule="evenodd"/></mask><g><g transform="matrix(.99998 0 0 .99998 -42.265 -.065146)"><g transform="matrix(.49527 0 0 .49527 5.0758 3.2126)"><g transform="matrix(1.7758,0,0,1.7758,-164.24,-70.425)"><g transform="translate(145.07,88.093)" fill="#eaed8c" stroke-width="3.24"><polygon class="st0" transform="matrix(.72255 0 0 .7031 -28.717 -125.97)" points="78.4 144.9 55.7 158 32.9 144.9 32.9 118.6 55.7 105.5 78.4 118.6" fill="#eaed8c"/></g><g transform="matrix(.15831 0 0 .15831 132.16 18.72)" fill="#005e20" fill-rule="evenodd"><g transform="matrix(1.0777,0,0,-1.0777,-10.799,451.79)"><g transform="matrix(.94489 0 0 .94489 8.6963 2.7018)" fill="#6f6f0c" mask="url(#c)"><path transform="rotate(35,137.93,151.55)" d="m203.46 95.688c6.9363 0 12.559-14.809 12.559-33.077s-5.623-33.077-12.559-33.077-12.559 14.809-12.559 33.077 5.623 33.077 12.559 33.077z"/><path transform="matrix(-.81915 .57358 .57358 .81915 58.085 47.705)" d="m30.142 95.688c6.9363 0 12.559-14.809 12.559-33.077s-5.623-33.077-12.559-33.077c-6.9363 0-12.559 14.809-12.559 33.077s5.623 33.077 12.559 33.077z"/><path d="m153.24 119.95c-6.9363 0-12.559-14.809-12.559-33.077s5.623-33.077 12.559-33.077c6.9363 0 12.559 14.809 12.559 33.077s-5.623 33.077-12.559 33.077z"/></g><path transform="matrix(.94489 0 0 .94489 8.6963 2.7018)" d="m251.47 173.1c-20.23-33.61-56.89-56.068-98.756-56.068-40.721 0-76.516 21.246-97.059 53.335" fill="none" mask="url(#c)" stroke="#6f6f0c" stroke-width="19.999"/></g></g></g></g></g><g transform="matrix(.93049 0 0 .93049 40.83 .71146)" fill="none" stroke="#6f6f0c" stroke-linecap="round" stroke-linejoin="round" stroke-width="1.0217px"><path class="cls-1" d="m-33.016 16.094a13.628 13.628 0 0 1-0.22222-2.3499c0-5.5289 4.3335-10.01 9.6791-10.01 5.3455 0 9.6791 4.4807 9.6791 10.007 0 1.4815-0.31162 3.2015-0.86845 4.9251"/><path class="cls-1" d="m-19.562 6.8145a7.6863 7.6863 0 0 0-3.9969-1.1177c-4.2518 0-7.721 3.4646-7.9105 7.8125-0.01007 0.22425 0 0.44802 0.0078 0.67228 0.04186 0.96601 0.08944 3.9785-0.91952 4.4444"/><path class="cls-1" d="m-15.391 20.382c-0.96806-0.80969-0.83217-3.4738-0.49807-5.295 0.3341-1.8212 0.08328-3.72-0.83218-5.3358a8.191 8.191 0 0 0-1.2383-1.6567"/><path class="cls-1" d="m-28.067 14.143c0-2.5742 2.0184-4.6605 4.5077-4.6605 2.4894 0 4.5078 2.0863 4.5078 4.6605"/><path class="cls-1" d="m-26.687 15.156c0-2.1844 1.4212-3.955 3.1739-3.955 1.7527 0 3.1724 1.7706 3.1724 3.955"/><path class="cls-1" d="m-25.128 15.484c0-1.3502 0.72337-2.4449 1.6153-2.4449 0.89194 0 1.6158 1.0948 1.6158 2.4449"/><path class="cls-1" d="m-29.767 14.014s0.6825 5.7144-1.8712 6.5752"/><path class="cls-1" d="m-29.767 14.014c0-3.5448 2.7795-6.4183 6.2084-6.4183 2.5716 0 4.778 1.6163 5.7215 3.9198 0.41328 1.011 0.52362 2.1165 0.39846 3.1995-0.22017 1.9029-0.65696 6.5869 0.97828 7.3563"/><path class="cls-1" d="m-27.949 15.918c0.01332 1.6858-0.23704 5.6536-2.8311 6.4224"/><path class="cls-1" d="m-26.687 15.156s0.82298 7.8032-2.9379 9.0165"/><path class="cls-1" d="m-24.918 16.952s0.08171 7.7522-3.3747 8.8111"/><path class="cls-1" d="m-21.897 15.484s0.85364 10.534-3.529 12.26"/><path class="cls-1" d="m-23.513 14.778s1.3793 9.7292-3.4038 12.161"/><path class="cls-1" d="m-23.114 28.101s3.5274-1.8641 3.0804-11.503c0 0 0.52975 6.6058 2.7519 7.5739"/><path class="cls-1" d="m-20.402 26.939s0.98083-2.0669 1.1152-3.0814c0 0 0.32898 1.2771 0.99514 1.528"/></g></g></svg>
