<?xml version="1.0" encoding="UTF-8" standalone="no"?>
<svg
   width="40"
   height="40"
   version="1.1"
   viewBox="0 0 40 40"
   id="svg949"
   sodipodi:docname="cluster-vault-config.svg"
   inkscape:version="1.1.1 (3bf5ae0d25, 2021-09-20)"
   xmlns:inkscape="http://www.inkscape.org/namespaces/inkscape"
   xmlns:sodipodi="http://sodipodi.sourceforge.net/DTD/sodipodi-0.dtd"
   xmlns="http://www.w3.org/2000/svg"
   xmlns:svg="http://www.w3.org/2000/svg"
   xmlns:rdf="http://www.w3.org/1999/02/22-rdf-syntax-ns#"
   xmlns:cc="http://creativecommons.org/ns#"
   xmlns:dc="http://purl.org/dc/elements/1.1/">
  <sodipodi:namedview
     id="namedview951"
     pagecolor="#ffffff"
     bordercolor="#666666"
     borderopacity="1.0"
     inkscape:pageshadow="2"
     inkscape:pageopacity="0.0"
     inkscape:pagecheckerboard="0"
     showgrid="false"
     inkscape:zoom="19.8"
     inkscape:cx="20.025253"
     inkscape:cy="20"
     inkscape:window-width="1920"
     inkscape:window-height="1027"
     inkscape:window-x="0"
     inkscape:window-y="0"
     inkscape:window-maximized="1"
     inkscape:current-layer="g947" />
  <metadata
     id="metadata886">
    <rdf:RDF>
      <cc:Work
         rdf:about="">
        <dc:format>image/svg+xml</dc:format>
        <dc:type
           rdf:resource="http://purl.org/dc/dcmitype/StillImage" />
      </cc:Work>
    </rdf:RDF>
  </metadata>
  <defs
     id="defs891">
    <mask
       id="c"
       fill="#ffffff">
      <path
         d="m0 0h313.3v159.86h-313.3z"
         fill="#fff"
         fill-rule="evenodd"
         id="path888" />
    </mask>
  </defs>
  <mask
     id="a"
     fill="#ffffff">
    <path
       d="m0 0h313.3v159.86h-313.3z"
       fill="#fff"
       fill-rule="evenodd"
       id="path893" />
  </mask>
  <mask
     id="b"
     fill="#ffffff">
    <path
       d="m0 0h313.3v159.86h-313.3z"
       fill="#fff"
       fill-rule="evenodd"
       id="path896" />
  </mask>
  <g
     transform="matrix(.082965 0 0 .082965 -.62329 -8.2534)"
     id="g947">
    <g
       transform="matrix(12.053 0 0 12.053 -501.92 100.3)"
       id="g921">
      <g
         transform="matrix(.49527 0 0 .49527 5.0758 3.2126)"
         id="g919">
        <g
           transform="matrix(1.7758,0,0,1.7758,-164.24,-70.425)"
           id="g917">
          <g
             transform="translate(145.07 88.093)"
             fill="#ddd6fe"
             stroke-width="3.24"
             id="g901">
            <polygon
               class="st0"
               transform="matrix(.72255 0 0 .7031 -28.717 -125.97)"
               points="32.9 118.6 55.7 105.5 78.4 118.6 78.4 144.9 55.7 158 32.9 144.9"
               fill="#ddd6fe"
               id="polygon899" />
          </g>
          <g
             transform="matrix(.15831 0 0 .15831 132.16 18.72)"
             fill="#005e20"
             fill-rule="evenodd"
             id="g915">
            <g
               transform="matrix(1.0777,0,0,-1.0777,-10.799,451.79)"
               id="g913">
              <g
                 transform="matrix(.94489 0 0 .94489 8.6963 2.7018)"
                 fill="#6d28d9"
                 mask="url(#c)"
                 id="g909">
                <path
                   transform="rotate(35,137.93,151.55)"
                   d="m203.46 95.688c6.9363 0 12.559-14.809 12.559-33.077s-5.623-33.077-12.559-33.077-12.559 14.809-12.559 33.077 5.623 33.077 12.559 33.077z"
                   id="path903" />
                <path
                   transform="matrix(-.81915 .57358 .57358 .81915 58.085 47.705)"
                   d="m30.142 95.688c6.9363 0 12.559-14.809 12.559-33.077s-5.623-33.077-12.559-33.077c-6.9363 0-12.559 14.809-12.559 33.077s5.623 33.077 12.559 33.077z"
                   id="path905" />
                <path
                   d="m153.24 119.95c-6.9363 0-12.559-14.809-12.559-33.077s5.623-33.077 12.559-33.077c6.9363 0 12.559 14.809 12.559 33.077s-5.623 33.077-12.559 33.077z"
                   id="path907" />
              </g>
              <path
                 transform="matrix(.94489 0 0 .94489 8.6963 2.7018)"
                 d="m251.47 173.1c-20.23-33.61-56.89-56.068-98.756-56.068-40.721 0-76.516 21.246-97.059 53.335"
                 fill="none"
                 mask="url(#c)"
                 stroke="#6d28d9"
                 stroke-width="19.999"
                 id="path911" />
            </g>
          </g>
        </g>
      </g>
    </g>
    <path
       transform="matrix(1.6755 0 0 1.9716 -29.072 19.774)"
       d="m230.54 86.205-71.615 124.04-71.615-124.04z"
       fill="#6d28d9"
       stop-color="#000000"
       stroke="#6d28d9"
       stroke-miterlimit="2.5"
       stroke-width="3"
       id="path923"
       style="fill:#9968e4;fill-opacity:1;stroke:#925ee3;stroke-opacity:1" />
    <g
       fill="#ddd6fe"
       id="g945">
      <rect
         x="208.24"
         y="236.92"
         width="14.665"
         height="14.665"
         stop-color="#000000"
         id="rect925" />
      <rect
         x="230.24"
         y="236.92"
         width="14.665"
         height="14.665"
         stop-color="#000000"
         id="rect927" />
      <rect
         x="252.24"
         y="236.92"
         width="14.665"
         height="14.665"
         stop-color="#000000"
         id="rect929" />
      <rect
         x="208.24"
         y="258.92"
         width="14.665"
         height="14.665"
         stop-color="#000000"
         id="rect931" />
      <rect
         x="230.24"
         y="258.92"
         width="14.665"
         height="14.665"
         stop-color="#000000"
         id="rect933" />
      <rect
         x="252.24"
         y="258.92"
         width="14.665"
         height="14.665"
         stop-color="#000000"
         id="rect935" />
      <rect
         x="208.24"
         y="280.92"
         width="14.665"
         height="14.665"
         stop-color="#000000"
         id="rect937" />
      <rect
         x="230.24"
         y="280.92"
         width="14.665"
         height="14.665"
         stop-color="#000000"
         id="rect939" />
      <rect
         x="252.24"
         y="280.92"
         width="14.665"
         height="14.665"
         stop-color="#000000"
         id="rect941" />
      <rect
         x="230.24"
         y="302.92"
         width="14.665"
         height="14.665"
         stop-color="#000000"
         id="rect943" />
    </g>
  </g>
</svg>
