<?xml version="1.0" encoding="UTF-8" standalone="no"?>
<svg
   xmlns:dc="http://purl.org/dc/elements/1.1/"
   xmlns:cc="http://creativecommons.org/ns#"
   xmlns:rdf="http://www.w3.org/1999/02/22-rdf-syntax-ns#"
   xmlns:svg="http://www.w3.org/2000/svg"
   xmlns="http://www.w3.org/2000/svg"
   xmlns:sodipodi="http://sodipodi.sourceforge.net/DTD/sodipodi-0.dtd"
   xmlns:inkscape="http://www.inkscape.org/namespaces/inkscape"
   height="40"
   viewBox="0 0 60 40"
   width="60"
   version="1.1"
   id="svg36"
   sodipodi:docname="cluster-config.svg"
   inkscape:version="1.0.1 (3bc2e813f5, 2020-09-07)">
  <sodipodi:namedview
     pagecolor="#ffffff"
     bordercolor="#666666"
     borderopacity="1"
     objecttolerance="10"
     gridtolerance="10"
     guidetolerance="10"
     inkscape:pageopacity="0"
     inkscape:pageshadow="2"
     inkscape:window-width="1920"
     inkscape:window-height="1016"
     id="namedview191"
     showgrid="false"
     inkscape:zoom="14.03607"
     inkscape:cx="10.770767"
     inkscape:cy="18.746406"
     inkscape:window-x="0"
     inkscape:window-y="0"
     inkscape:window-maximized="1"
     inkscape:current-layer="g1042"
     inkscape:document-rotation="0" />
  <metadata
     id="metadata42">
    <rdf:RDF>
      <cc:Work
         rdf:about="">
        <dc:format>image/svg+xml</dc:format>
        <dc:type
           rdf:resource="http://purl.org/dc/dcmitype/StillImage" />
        <dc:title />
      </cc:Work>
    </rdf:RDF>
  </metadata>
  <defs
     id="defs40">
    <mask
       id="a-1"
       fill="#ffffff">
      <path
         d="M 0,0 H 313.30315 V 159.86486 H 0 Z"
         fill="#ffffff"
         fill-rule="evenodd"
         id="path2-9" />
    </mask>
    <mask
       id="mask865"
       fill="#ffffff">
      <path
         d="M 0,0 H 313.30315 V 159.86486 H 0 Z"
         fill="#ffffff"
         fill-rule="evenodd"
         id="path863" />
    </mask>
  </defs>
  <mask
     id="a"
     fill="#ffffff">
    <path
       d="M 0,0 H 313.30315 V 159.86486 H 0 Z"
       fill="#ffffff"
       fill-rule="evenodd"
       id="path2" />
  </mask>
  <mask
     id="b"
     fill="#ffffff">
    <path
       d="M 0,0 H 313.30315 V 159.86486 H 0 Z"
       fill="#ffffff"
       fill-rule="evenodd"
       id="path5" />
  </mask>
  <g
     id="g1042"
     style="display:inline">
    <g
       id="g994"
       transform="matrix(0.08667043,0,0,0.08667043,54.837532,-43.975856)"
       style="display:inline">
      <path
         id="path990"
         style="fill:#000e44;fill-opacity:1;fill-rule:evenodd;stroke:none;stroke-width:3.14747"
         d="m 56.695351,510.77372 -107.53235,84.40183 -79.398391,-66.27467 61.189259,82.84335 -54.627399,74.39502 72.836531,-52.98696 102.528945,91.04567 -81.03891,-107.53235 z" />
    </g>
    <circle
       style="opacity:1;fill:#ababf7;fill-opacity:1;stroke:none;stroke-width:0.308165;stroke-miterlimit:2.5;stroke-opacity:1;stop-color:#000000"
       id="path912"
       cx="16.627409"
       cy="16.633268"
       r="16.433828" />
    <g
       fill="none"
       fill-rule="evenodd"
       transform="matrix(0.15069337,0,0,0.15069337,-6.1976669,-20.880758)"
       id="g1008">
      <g
         transform="matrix(0.92863152,0,0,-0.92863152,9.2718211,454.1644)"
         id="g1006">
        <g
           fill="#0f1689"
           mask="url(#a-1)"
           id="g1002"
           style="fill:#6f0f0c;fill-opacity:1"
           transform="matrix(0.94489362,0,0,0.94489362,8.6962507,2.7018401)">
          <path
             d="m 203.46068,95.687543 c 6.93631,0 12.5593,-14.80922 12.5593,-33.077318 0,-18.268097 -5.62299,-33.077317 -12.5593,-33.077317 -6.93631,0 -12.55931,14.80922 -12.55931,33.077317 0,18.268098 5.62299,33.077318 12.55931,33.077318 z"
             transform="rotate(35,137.93117,151.55002)"
             id="path996"
             style="fill:#0f0c6f;fill-opacity:1" />
          <path
             d="m 30.142322,95.687543 c 6.936311,0 12.559301,-14.80922 12.559301,-33.077318 0,-18.268097 -5.62299,-33.077317 -12.559301,-33.077317 -6.93631,0 -12.559301,14.80922 -12.559301,33.077317 0,18.268098 5.622991,33.077318 12.559301,33.077318 z"
             transform="matrix(-0.81915204,0.57357644,0.57357644,0.81915204,58.084611,47.704768)"
             id="path998"
             style="fill:#0f0c6f;fill-opacity:1" />
          <path
             d="m 116.73282,66.275268 c 6.93631,0 12.5593,-14.80922 12.5593,-33.077318 0,-18.268097 -5.62299,-33.07731673 -12.55931,-33.07731673 -6.93631,0 -12.5593,14.80921973 -12.5593,33.07731673 0,18.268098 5.62299,33.077318 12.55931,33.077318 z"
             transform="matrix(-1,0,0,1,272.62852,53.670762)"
             id="path1000"
             style="fill:#0f0c6f;fill-opacity:1" />
        </g>
        <path
           d="m 251.46701,173.09985 c -20.23008,-33.60997 -56.88957,-56.06791 -98.75578,-56.06791 -40.7208,0 -76.515877,21.2459 -97.058696,53.33459"
           mask="url(#a-1)"
           stroke="#0f1689"
           stroke-width="20"
           id="path1004"
           style="stroke:#0f0c6f;stroke-opacity:1"
           transform="matrix(0.94489362,0,0,0.94489362,8.6962507,2.7018401)" />
      </g>
    </g>
    <g
       id="g1480" />
    <g
       id="g26"
       transform="matrix(0.03653614,0,0,-0.03653614,-34.467343,26.918953)" />
    <g
       id="g28"
       transform="matrix(0.03653614,0,0,-0.03653614,-34.467343,26.918953)" />
    <g
       id="g30"
       transform="matrix(0.03653614,0,0,-0.03653614,-34.467343,26.918953)" />
    <g
       id="g32"
       transform="matrix(0.03653614,0,0,-0.03653614,-34.467343,26.918953)" />
    <g
       id="g34"
       transform="matrix(0.03653614,0,0,-0.03653614,-34.467343,26.918953)" />
    <g
       id="g36"
       transform="matrix(0.03653614,0,0,-0.03653614,-34.467343,26.918953)" />
    <g
       id="g38"
       transform="matrix(0.03653614,0,0,-0.03653614,-34.467343,26.918953)" />
    <g
       id="g40"
       transform="matrix(0.03653614,0,0,-0.03653614,-34.467343,26.918953)" />
    <g
       id="g42"
       transform="matrix(0.03653614,0,0,-0.03653614,-34.467343,26.918953)" />
    <g
       id="g44"
       transform="matrix(0.03653614,0,0,-0.03653614,-34.467343,26.918953)" />
    <g
       id="g46"
       transform="matrix(0.03653614,0,0,-0.03653614,-34.467343,26.918953)" />
    <g
       id="g48"
       transform="matrix(0.03653614,0,0,-0.03653614,-34.467343,26.918953)" />
    <g
       id="g50"
       transform="matrix(0.03653614,0,0,-0.03653614,-34.467343,26.918953)" />
    <g
       id="g52"
       transform="matrix(0.03653614,0,0,-0.03653614,-34.467343,26.918953)" />
    <g
       id="g54"
       transform="matrix(0.03653614,0,0,-0.03653614,-34.467343,26.918953)" />
    <g
       id="g2811"
       style="fill:#0f0c6f;fill-opacity:1"
       transform="matrix(0.46878331,0,0,0.46878331,29.743306,7.7601444)">
      <g
         id="g80"
         transform="translate(-60.42676,-16.447342)"
         style="fill:#0f0c6f;fill-opacity:1">
        <polygon
           class="st3"
           points="18.4,21.4 21.3,18.6 37.4,34.5 34.5,37.3 "
           id="polygon78"
           style="fill:#0f0c6f;fill-opacity:1" />
      </g>
      <g
         id="g84"
         transform="translate(-60.42676,-16.447342)"
         style="fill:#0f0c6f;fill-opacity:1">
        <path
           class="st4"
           d="m 49.9,49.9 c -1.6,1.6 -4.1,1.6 -5.7,0 L 30.1,35.8 c -1.6,-1.6 -1.6,-4.1 0,-5.7 v 0 c 1.6,-1.6 4.1,-1.6 5.7,0 l 14.1,14.1 c 1.6,1.6 1.6,4.1 0,5.7 z"
           id="path82"
           style="fill:#0f0c6f;fill-opacity:1" />
      </g>
      <g
         id="g92"
         transform="translate(-60.42676,-16.447342)"
         style="fill:#0f0c6f;fill-opacity:1">
        <rect
           x="23.4"
           y="28"
           transform="matrix(0.7071,-0.7071,0.7071,0.7071,-13.2548,32)"
           class="st5"
           width="17.1"
           height="8"
           id="rect90"
           style="fill:#0f0c6f;fill-opacity:1" />
      </g>
      <g
         id="g96"
         transform="translate(-60.42676,-16.447342)"
         style="fill:#0f0c6f;fill-opacity:1">
        <polygon
           class="st3"
           points="23.9,21.1 21,23.9 15.1,20.9 12.1,15 14.9,12.1 20.8,15.2 "
           id="polygon94"
           style="fill:#0f0c6f;fill-opacity:1" />
      </g>
      <g
         id="g102"
         transform="translate(-60.42676,-16.447342)"
         style="fill:#0f0c6f;fill-opacity:1">
        <g
           id="g100"
           style="fill:#0f0c6f;fill-opacity:1">
          <path
             class="st5"
             d="m 46.8,22.8 c -1.6,1.6 -4.1,1.6 -5.7,0 -1.6,-1.6 -1.6,-4.1 0,-5.7 l 6.5,-6.5 C 46.5,10.3 45.3,10 44,10 c -5.5,0 -10,4.5 -10,10 0,5.5 4.5,10 10,10 5.5,0 10,-4.5 10,-10 0,-1.3 -0.3,-2.5 -0.7,-3.6 z"
             id="path98"
             style="fill:#0f0c6f;fill-opacity:1" />
        </g>
      </g>
      <g
         id="g108"
         transform="translate(-60.42676,-16.447342)"
         style="fill:#0f0c6f;fill-opacity:1">
        <g
           id="g106"
           style="fill:#0f0c6f;fill-opacity:1">
          <path
             class="st5"
             d="m 17.2,41.2 c 1.6,-1.6 4.1,-1.6 5.7,0 1.6,1.6 1.6,4.1 0,5.7 l -6.5,6.5 c 1.1,0.4 2.4,0.7 3.6,0.7 5.5,0 10,-4.5 10,-10 0,-5.5 -4.5,-10 -10,-10 -5.5,0 -10,4.5 -10,10 0,1.3 0.3,2.5 0.7,3.6 z"
             id="path104"
             style="fill:#0f0c6f;fill-opacity:1" />
        </g>
      </g>
    </g>
  </g>
  <g
     transform="matrix(0.95879878,0,0,0.95879878,-871.34292,-378.35028)"
     id="g893" />
</svg>
