<?xml version="1.0" encoding="UTF-8"?>
<svg width="40" height="40" version="1.1" viewBox="0 0 40 40" xmlns="http://www.w3.org/2000/svg" xmlns:cc="http://creativecommons.org/ns#" xmlns:dc="http://purl.org/dc/elements/1.1/" xmlns:rdf="http://www.w3.org/1999/02/22-rdf-syntax-ns#"><metadata><rdf:RDF><cc:Work rdf:about=""><dc:format>image/svg+xml</dc:format><dc:type rdf:resource="http://purl.org/dc/dcmitype/StillImage"/><dc:title/></cc:Work></rdf:RDF></metadata><defs><mask id="c" fill="#ffffff"><path d="m0 0h313.3v159.86h-313.3z" fill="#fff" fill-rule="evenodd"/></mask></defs><mask id="a" fill="#ffffff"><path d="m0 0h313.3v159.86h-313.3z" fill="#fff" fill-rule="evenodd"/></mask><mask id="b" fill="#ffffff"><path d="m0 0h313.3v159.86h-313.3z" fill="#fff" fill-rule="evenodd"/></mask><g transform="matrix(.87949 0 0 .87949 -75.867 -31.301)"><g transform="translate(96.564,87.836)" fill="#8ceddc" stroke-width="3.24"><polygon class="st0" transform="matrix(.72255 0 0 .7031 -28.717 -125.97)" points="55.7 158 32.9 144.9 32.9 118.6 55.7 105.5 78.4 118.6 78.4 144.9" fill="#8ceddc"/></g><g transform="matrix(.15831 0 0 .15831 83.649 18.463)" fill="#005e20" fill-rule="evenodd"><g transform="matrix(1.0777,0,0,-1.0777,-10.799,451.79)"><g transform="matrix(.94489 0 0 .94489 8.6963 2.7018)" fill="#0c6f5e" mask="url(#c)"><path transform="rotate(35,137.93,151.55)" d="m203.46 95.688c6.9363 0 12.559-14.809 12.559-33.077s-5.623-33.077-12.559-33.077-12.559 14.809-12.559 33.077 5.623 33.077 12.559 33.077z"/><path transform="matrix(-.81915 .57358 .57358 .81915 58.085 47.705)" d="m30.142 95.688c6.9363 0 12.559-14.809 12.559-33.077s-5.623-33.077-12.559-33.077c-6.9363 0-12.559 14.809-12.559 33.077s5.623 33.077 12.559 33.077z"/><path d="m153.24 119.95c-6.9363 0-12.559-14.809-12.559-33.077s5.623-33.077 12.559-33.077c6.9363 0 12.559 14.809 12.559 33.077s-5.623 33.077-12.559 33.077z"/></g><path transform="matrix(.94489 0 0 .94489 8.6963 2.7018)" d="m251.47 173.1c-20.23-33.61-56.89-56.068-98.756-56.068-40.721 0-76.516 21.246-97.059 53.335" fill="none" mask="url(#c)" stroke="#0c6f5e" stroke-width="19.999"/></g></g></g><g transform="matrix(.8938 0 0 .8938 39.9 2.0386)" stroke-width=".48122"><path d="m-22.936 18.755c0.67371 3.3204 5.6784 2.358 5.0047-0.96244-0.62559-3.3204-5.6784-2.358-5.0047 0.96244z" fill="#361fb3"/><path d="m-28.326 10.141c-2.5505 0.67371-1.5399 4.3791 0.8662 3.8016 2.4542-0.67371 1.588-4.3791-0.8662-3.8016z" fill="#361fb3"/><g fill="#0c6f5e"><path d="m-33.571 15.434c0.38498-1.8768-2.358-2.358-2.743-0.57746-0.38498 1.9249 2.4542 2.358 2.743 0.57746z"/><path d="m-10.81 16.397c0.38498-1.7805-2.2617-2.358-2.6467-0.67371-0.48122 1.7805 2.1174 2.4542 2.6467 0.67371z"/><path d="m-14.563 21.979c0.28873 1.5399 2.8392 1.2512 2.5505-0.48122-0.28873-1.6843-2.8392-1.2993-2.5505 0.48122z"/><path d="m-27.46 17.696c0.38498 1.5399 2.8392 1.1549 2.5505-0.57746-0.28873-1.4918-2.8392-1.2031-2.5505 0.57746z"/><path d="m-18.557 23.952c0.28873-1.5399-2.1655-2.0693-2.4542-0.48122-0.28873 1.5399 2.0693 2.0211 2.4542 0.48122z"/><path d="m-27.364 6.8204c-1.5399 0.48122-0.76995 2.743 0.76995 2.2617 1.4918-0.48122 0.81808-2.8392-0.76995-2.2617z"/><path d="m-24.621 2.73c-1.4437 0.38498-0.96244 2.743 0.57746 2.358 1.588-0.28873 1.0106-2.743-0.57746-2.358z"/><path d="m-21.012 8.7934c-1.6843 0.48122-0.8662 2.6467 0.57747 2.2617 1.588-0.38498 0.91432-2.743-0.57747-2.2617z"/><path d="m-32.32 5.9542c-1.5399 0.57747-0.67371 2.743 0.76995 2.358 1.4918-0.48122 0.76995-2.8392-0.76995-2.358z"/><path d="m-16.969 8.6972c-1.5399 0.38498-0.96244 2.743 0.57747 2.2617 1.5399-0.4331 0.8662-2.6467-0.57747-2.2617z"/></g><path d="m-18.846 11.536c-1.5399 0.48122-0.8662 2.6467 0.57747 2.2617 1.588-0.4331 0.91432-2.743-0.57747-2.2617z" fill="#361fb3"/><g fill="#0c6f5e"><path d="m-29.962 22.556c0.38498 1.3474 2.6467 0.8662 2.2617-0.57746-0.33686-1.4437-2.6467-0.96244-2.2617 0.57746z"/><path d="m-14.371 19.043c0.48122-1.4437-1.5399-2.1655-2.0693-0.76996-0.52934 1.4437 1.588 2.0211 2.0693 0.76996z"/><path d="m-27.219 26.165c0.38498-1.3474-1.7805-2.0693-2.1655-0.67371-0.38498 1.4437 1.6362 2.0693 2.1655 0.67371z"/><path d="m-35.448 19.14c0.19249 1.3474 2.4542 1.2512 2.2617-0.28873-0.19249-1.4437-2.4542-1.1549-2.2617 0.28873z"/><path d="m-34.005 22.171c0.28873 1.3474 2.358 1.0587 2.1655-0.38498-0.19249-1.4918-2.4542-1.0587-2.1655 0.38498z"/><path d="m-12.783 9.2746c-1.4437 0.28873-0.96244 2.4542 0.48122 2.0693 1.1549-0.28873 0.8662-2.358-0.48122-2.0693z"/><path d="m-26.161 27.272c0.09625 1.3474 2.2617 1.1549 2.0693-0.28873-0.24061-1.2993-2.2617-1.1068-2.0693 0.28873z"/><path d="m-22.07 25.492c0.48122-1.3474-1.5399-1.973-1.973-0.67371-0.48122 1.3474 1.588 1.8286 1.973 0.67371z"/><path d="m-26.834 22.845c0.19249 1.2512 2.2617 1.0587 2.0693-0.28873-0.14437-1.2512-2.2617-1.1549-2.0693 0.28873z"/><path d="m-21.974 12.884c-1.2512 0.48122-0.57746 2.2617 0.67371 1.8768 1.1068-0.38498 0.72183-2.4542-0.67371-1.8768z"/><path d="m-18.846 26.165c0.19249 1.0587 2.0693 0.8662 1.8768-0.38498-0.19249-1.1549-2.1655-0.96244-1.8768 0.38498z"/><path d="m-14.563 7.0129c-1.1549 0.28873-0.8662 2.1655 0.38498 1.8768 1.2031-0.19249 0.91432-2.1655-0.38498-1.8768z"/><path d="m-23.706 22.653c0.19249 1.0587 2.0693 0.8662 1.7805-0.48122-0.24061-1.0587-2.2136-0.76995-1.7805 0.48122z"/><path d="m-24.524 11.055c-1.1549 0.38498-0.67371 2.0693 0.48122 1.7805 1.1068-0.24061 0.81808-2.0693-0.48122-1.7805z"/><path d="m-32.609 14.761c0.19249 0.96244 2.0693 0.76995 1.7805-0.48122-0.33686-1.1068-2.0693-0.81808-1.7805 0.48122z"/><path d="m-21.204 5.1842c-1.1549 0.19249-0.76995 1.973 0.38498 1.6843 1.1068-0.24061 0.72183-1.973-0.38498-1.6843z"/><path d="m-19.231 3.7887c-1.2512 0.28873-0.67371 1.973 0.38498 1.6843 1.0587-0.19249 0.76995-1.973-0.38498-1.6843z"/><path d="m-17.691 21.69c0.19249 1.0587 1.8768 0.8662 1.7805-0.28873-0.19249-1.1068-1.973-0.8662-1.7805 0.28873z"/><path d="m-14.948 15.819c0.28873-1.0587-1.3474-1.4437-1.6843-0.48122-0.24061 1.1549 1.3955 1.5399 1.6843 0.48122z"/><path d="m-29.962 4.5105c-1.1549 0.38498-0.48122 1.973 0.57747 1.5399 0.8662-0.38498 0.38498-1.9249-0.57747-1.5399z"/><path d="m-28.519 19.236c0.38498-1.0587-1.2512-1.4437-1.5399-0.57746-0.48122 1.0587 1.1549 1.6362 1.5399 0.57746z"/><path d="m-29.962 16.204c0.19249 0.8662 1.8768 0.76996 1.6843-0.38498-0.24061-1.0587-1.8768-0.76995-1.6843 0.38498z"/><path d="m-20.578 27.561c0.38498-0.96244-1.0587-1.4437-1.4437-0.57746-0.4331 1.0587 1.0106 1.4437 1.4437 0.57746z"/><path d="m-12.398 12.403c-0.96244 0.28873-0.57747 1.7805 0.38498 1.5399 0.96244-0.28873 0.57747-1.7324-0.38498-1.5399z"/><path d="m-34.775 11.151c-0.96244 0.19249-0.57747 1.7805 0.38498 1.4437 0.91432-0.28873 0.62559-1.7324-0.38498-1.4437z"/><path d="m-23.995 6.0504c-0.8662 0.28873-0.38498 1.7805 0.57747 1.3474 0.8662-0.28873 0.38498-1.7324-0.57747-1.3474z"/><path d="m-15.622 11.825c-0.96244 0.38498-0.38498 1.7805 0.57746 1.3474 0.76995-0.28873 0.38498-1.7324-0.57746-1.3474z"/><path d="m-23.61 15.723c0.28873-0.8662-1.0587-1.2512-1.3474-0.38498-0.33685 0.96244 1.0587 1.3474 1.3474 0.38498z"/><path d="m-24.332 8.3122c-0.8662 0.28873-0.57747 1.6843 0.38498 1.4437 0.91432-0.19249 0.72183-1.6362-0.38498-1.4437z"/><path d="m-30.877 8.6009c-0.96244 0.38498-0.38498 1.6843 0.38498 1.3474 0.91432-0.28873 0.4331-1.6362-0.38498-1.3474z"/><path d="m-27.46 3.5c-0.8662 0.19249-0.57747 1.4437 0.28873 1.2512 0.72183-0.14437 0.52934-1.4437-0.28873-1.2512z"/><path d="m-18.269 6.8204c-0.8662 0.38498-0.19249 1.4437 0.48122 1.0587 0.72183-0.24061 0.19249-1.4437-0.48122-1.0587z"/><path d="m-17.066 5.088c-0.76995 0.38498-0.09625 1.4437 0.57747 1.0587 0.67371-0.38498 0.19249-1.4437-0.57747-1.0587z"/><path d="m-31.935 24.722c0.09624 0.67371 1.3474 0.67371 1.2512-0.19249-0.09624-0.81808-1.3474-0.67371-1.2512 0.19249z"/><path d="m-32.32 10.863c-0.38498 0.19249-0.38498 0.48122-0.28873 0.76995 0.19249 0.19249 0.48122 0.38498 0.8662 0.19249 0.57746-0.28873 0.19249-1.3955-0.57746-0.96244z"/><path d="m-34.005 8.8896c-0.76995 0.38498-0.19249 1.4437 0.48122 1.0587 0.72183-0.19249 0.33686-1.3474-0.48122-1.0587z"/><path d="m-17.595 15.627c0.28873-0.76995-0.76995-1.0587-0.96244-0.48122-0.28873 0.76995 0.76995 1.0587 0.96244 0.48122z"/><path d="m-12.109 19.428c0.28873-0.57746-0.67371-1.0587-0.96244-0.38498-0.28873 0.67371 0.67371 0.96244 0.96244 0.38498z"/><path d="m-31.069 17.696c0.19249-0.67371-0.67371-0.96244-0.96244-0.48122-0.38498 0.76995 0.67371 1.1549 0.96244 0.48122z"/><path d="m-24.14 20.824c0.28873-0.67371-0.67371-0.96244-0.96244-0.48122-0.28873 0.67371 0.67371 1.1549 0.96244 0.48122z"/><path d="m-16.296 24.722c0 0.57746 1.0587 0.57746 0.96244-0.19249 0-0.67371-1.0587-0.57746-0.96244 0.19249z"/><path d="m-22.167 3.115c-0.67371 0.19249-0.38498 1.1549 0.28873 0.96244 0.48122-0.19249 0.28873-1.1549-0.28873-0.96244z"/></g></g></svg>
