<?xml version="1.0" encoding="UTF-8"?>
<svg width="40" height="40" version="1.1" viewBox="0 0 40 40" xmlns="http://www.w3.org/2000/svg" xmlns:cc="http://creativecommons.org/ns#" xmlns:dc="http://purl.org/dc/elements/1.1/" xmlns:rdf="http://www.w3.org/1999/02/22-rdf-syntax-ns#"><metadata><rdf:RDF><cc:Work rdf:about=""><dc:format>image/svg+xml</dc:format><dc:type rdf:resource="http://purl.org/dc/dcmitype/StillImage"/><dc:title/></cc:Work></rdf:RDF></metadata><defs><mask id="c" fill="#ffffff"><path d="m0 0h313.3v159.86h-313.3z" fill="#fff" fill-rule="evenodd"/></mask></defs><mask id="a" fill="#ffffff"><path d="m0 0h313.3v159.86h-313.3z" fill="#fff" fill-rule="evenodd"/></mask><mask id="b" fill="#ffffff"><path d="m0 0h313.3v159.86h-313.3z" fill="#fff" fill-rule="evenodd"/></mask><g><g transform="translate(40)"><g transform="translate(-39.6 .26841)"><g transform="matrix(.49527 0 0 .49527 5.0758 3.2126)"><g transform="matrix(1.7758,0,0,1.7758,-164.24,-70.425)"><g transform="translate(96.564,87.836)" fill="#66ff9a" stroke-width="3.24"><polygon class="st0" transform="matrix(.72255 0 0 .7031 -28.717 -125.97)" points="55.7 105.5 78.4 118.6 78.4 144.9 55.7 158 32.9 144.9 32.9 118.6" fill="#ed8c8c"/></g><g transform="matrix(.15831 0 0 .15831 83.649 18.463)" fill="#005e20" fill-rule="evenodd"><g transform="matrix(1.0777,0,0,-1.0777,-10.799,451.79)"><g transform="matrix(.94489 0 0 .94489 8.6963 2.7018)" fill="#6f0c0c" mask="url(#c)"><path transform="rotate(35,137.93,151.55)" d="m203.46 95.688c6.9363 0 12.559-14.809 12.559-33.077s-5.623-33.077-12.559-33.077-12.559 14.809-12.559 33.077 5.623 33.077 12.559 33.077z"/><path transform="matrix(-.81915 .57358 .57358 .81915 58.085 47.705)" d="m30.142 95.688c6.9363 0 12.559-14.809 12.559-33.077s-5.623-33.077-12.559-33.077c-6.9363 0-12.559 14.809-12.559 33.077s5.623 33.077 12.559 33.077z"/><path d="m153.24 119.95c-6.9363 0-12.559-14.809-12.559-33.077s5.623-33.077 12.559-33.077c6.9363 0 12.559 14.809 12.559 33.077s-5.623 33.077-12.559 33.077z"/></g><path transform="matrix(.94489 0 0 .94489 8.6963 2.7018)" d="m251.47 173.1c-20.23-33.61-56.89-56.068-98.756-56.068-40.721 0-76.516 21.246-97.059 53.335" fill="none" mask="url(#c)" stroke="#6f0c0c" stroke-width="19.999"/></g></g></g></g></g><g transform="matrix(.045775 0 0 .045775 -67.364 19.236)"><path d="m1033.3-99.165c3.58 3.58 5.79 8.518 5.79 13.974 0 5.469-2.21 10.407-5.79 13.986-3.58 3.58-8.518 5.79-13.974 5.79s-10.407-2.21-13.986-5.79c-3.58-3.58-5.79-8.518-5.79-13.986 0-5.456 2.21-10.407 5.79-13.986 3.58-3.58 8.53-5.79 13.986-5.79s10.406 2.222 13.974 5.802z" fill="#f95428"/><g><path d="m1019.3-331.93c136.27 0 246.73 110.47 246.73 246.75 0 136.27-110.46 246.74-246.73 246.74-136.27 0-246.74-110.47-246.74-246.75 0-136.27 110.47-246.74 246.74-246.74zm202.33 246.74c0-111.74-90.585-202.34-202.33-202.34-111.76 0-202.34 90.597-202.34 202.34 0 111.74 90.585 202.34 202.34 202.34 111.74 0 202.33-90.597 202.33-202.34z" fill="#de5c58"/><path d="m1005.3-71.204c3.58 3.58 8.53 5.79 13.986 5.79s10.394-2.21 13.974-5.79 5.79-8.518 5.79-13.986c0-5.456-2.21-10.394-5.79-13.974-3.568-3.58-8.518-5.802-13.974-5.802s-10.407 2.21-13.986 5.79c-3.58 3.58-5.79 8.53-5.79 13.986 1e-3 5.468 2.211 10.406 5.79 13.986zm13.987-216.33c111.74 0 202.33 90.597 202.33 202.34 0 111.74-90.585 202.34-202.33 202.34-111.76 0-202.34-90.597-202.34-202.34 0-111.74 90.585-202.34 202.34-202.34z" fill="#c12621"/><path d="m859.56-85.191c0-104.55 79.302-190.59 181.05-201.23-6.998-0.732-14.1-1.113-21.292-1.113-111.76 0-202.34 90.597-202.34 202.34 0 111.74 90.585 202.34 202.34 202.34 7.192 0 14.294-0.381 21.292-1.113-101.74-10.642-181.05-96.676-181.05-201.23z" fill="#9d1717"/></g><g transform="translate(763.31 -341.19)"><g fill="#6f0f0c"><path d="m256 44.405c-116.67 0-211.59 94.922-211.59 211.59s94.92 211.6 211.59 211.6 211.6-94.922 211.6-211.59-94.921-211.6-211.6-211.6zm0 404.67c-106.46 0-193.08-86.615-193.08-193.08s86.615-193.08 193.08-193.08 193.08 86.615 193.08 193.08-86.614 193.08-193.08 193.08z"/><path d="m256 0c-141.16 0-256 114.84-256 256s114.84 256 256 256c141.16 0 256-114.84 256-256s-114.84-256-256-256zm0 493.48c-130.95 0-237.48-106.53-237.48-237.48s106.53-237.48 237.48-237.48c130.95 0 237.48 106.53 237.48 237.48s-106.54 237.48-237.48 237.48z"/><path d="m345.98 152.93-77.076 77.076c-3.89-1.939-8.27-3.036-12.904-3.036-4.632 0-9.009 1.096-12.899 3.033l-42.762-42.762c-3.615-3.616-9.477-3.616-13.093 0s-3.616 9.477 0 13.093l42.761 42.761c-1.939 3.89-3.037 8.271-3.037 12.905 0 4.633 1.097 9.014 3.036 12.904l-1.609 1.609c-3.616 3.616-3.616 9.477 0 13.093 1.807 1.808 4.177 2.712 6.546 2.712s4.739-0.904 6.546-2.712l1.609-1.608c3.889 1.938 8.268 3.034 12.9 3.034 4.63 0 9.009-1.096 12.898-3.033l1.607 1.607c1.807 1.808 4.177 2.712 6.546 2.712s4.739-0.904 6.546-2.712c3.616-3.616 3.616-9.477 0-13.093l-1.605-1.605c1.939-3.891 3.037-8.272 3.037-12.906 0-4.632-1.096-9.012-3.034-12.9l77.077-77.077c3.616-3.616 3.616-9.477 0-13.093-3.613-3.618-9.475-3.618-13.09-2e-3zm-100.49 103.07c0-5.797 4.716-10.514 10.513-10.514s10.514 4.717 10.514 10.514-4.716 10.513-10.514 10.513c-5.796-1e-3 -10.513-4.716-10.513-10.513z"/></g><g fill="#333"><path d="m256 108.48c5.113 0 9.258-4.145 9.258-9.258v-18.93c0-5.113-4.145-9.258-9.258-9.258s-9.258 4.145-9.258 9.258v18.928c0 5.115 4.145 9.26 9.258 9.26z"/><path d="m256 403.52c-5.113 0-9.258 4.145-9.258 9.258v18.928c0 5.113 4.145 9.258 9.258 9.258s9.258-4.145 9.258-9.258v-18.928c0-5.113-4.144-9.258-9.258-9.258z"/><path d="m169.59 124.86c1.715 2.97 4.827 4.63 8.026 4.63 1.57 0 3.163-0.4 4.621-1.242 4.428-2.557 5.945-8.219 3.389-12.647l-9.465-16.392c-2.557-4.429-8.219-5.945-12.647-3.389s-5.945 8.219-3.389 12.647z"/><path d="m342.41 387.14c-2.557-4.429-8.222-5.945-12.647-3.389-4.428 2.557-5.945 8.219-3.389 12.647l9.465 16.392c1.715 2.97 4.827 4.63 8.026 4.63 1.57 0 3.164-0.4 4.621-1.242 4.428-2.557 5.945-8.219 3.389-12.647z"/><path d="m124.86 169.59-16.392-9.465c-4.428-2.558-10.09-1.039-12.647 3.389s-1.039 10.09 3.389 12.647l16.392 9.465c1.458 0.842 3.05 1.242 4.621 1.242 3.2 0 6.312-1.66 8.026-4.63 2.556-4.429 1.039-10.091-3.389-12.648z"/><path d="m412.8 335.84-16.392-9.465c-4.429-2.558-10.091-1.039-12.647 3.389-2.557 4.428-1.039 10.091 3.389 12.647l16.392 9.465c1.458 0.842 3.05 1.242 4.621 1.242 3.2 0 6.312-1.66 8.027-4.63 2.556-4.429 1.038-10.092-3.39-12.648z"/><path d="m431.71 246.74h-18.928c-5.113 0-9.258 4.145-9.258 9.258s4.145 9.258 9.258 9.258h18.928c5.113 0 9.258-4.145 9.258-9.258 1e-3 -5.113-4.145-9.258-9.258-9.258z"/><path d="m108.48 256c0-5.113-4.145-9.258-9.258-9.258h-18.929c-5.113 0-9.258 4.145-9.258 9.258s4.145 9.258 9.258 9.258h18.928c5.114 0 9.259-4.145 9.259-9.258z"/><path d="m391.78 186.87c1.57 0 3.163-0.4 4.621-1.242l16.392-9.465c4.428-2.557 5.945-8.219 3.389-12.647-2.557-4.429-8.218-5.945-12.647-3.389l-16.392 9.465c-4.428 2.557-5.945 8.219-3.389 12.647 1.715 2.971 4.827 4.631 8.026 4.631z"/><path d="m115.6 326.37-16.392 9.465c-4.428 2.557-5.945 8.219-3.389 12.647 1.715 2.97 4.827 4.63 8.026 4.63 1.57 0 3.163-0.4 4.621-1.242l16.392-9.465c4.428-2.557 5.945-8.219 3.389-12.647-2.557-4.428-8.221-5.944-12.647-3.388z"/><path d="m329.76 128.24c1.458 0.842 3.05 1.242 4.621 1.242 3.2 0 6.312-1.66 8.027-4.63l9.465-16.392c2.557-4.428 1.039-10.091-3.389-12.647-4.429-2.557-10.091-1.039-12.647 3.389l-9.465 16.392c-2.557 4.427-1.04 10.089 3.388 12.646z"/><path d="m182.24 383.76c-4.429-2.558-10.091-1.041-12.647 3.389l-9.465 16.392c-2.557 4.428-1.039 10.091 3.389 12.647 1.458 0.842 3.05 1.242 4.621 1.242 3.2 0 6.312-1.66 8.026-4.63l9.465-16.392c2.557-4.429 1.04-10.092-3.389-12.648z"/></g><path d="m354.99 405.21c-2.9 0-5.754-1.358-7.56-3.902-2.958-4.17-1.976-9.95 2.195-12.909 42.947-30.467 68.588-79.962 68.588-132.4 0-69.502-44.253-131.25-110.12-153.64-4.842-1.646-7.431-6.906-5.785-11.746s6.907-7.43 11.746-5.785c73.374 24.951 122.67 93.74 122.67 171.17 0 58.431-28.557 113.57-76.391 147.51-1.625 1.151-3.497 1.707-5.349 1.707z" fill="#f2aaaa"/><circle cx="281.52" cy="86.412" r="9.258" fill="#f2aaaa"/></g></g></g></g></svg>
