<?xml version="1.0" encoding="UTF-8"?>
<svg width="40" height="40" version="1.1" viewBox="0 0 40 40" xmlns="http://www.w3.org/2000/svg" xmlns:cc="http://creativecommons.org/ns#" xmlns:dc="http://purl.org/dc/elements/1.1/" xmlns:rdf="http://www.w3.org/1999/02/22-rdf-syntax-ns#"><metadata><rdf:RDF><cc:Work rdf:about=""><dc:format>image/svg+xml</dc:format><dc:type rdf:resource="http://purl.org/dc/dcmitype/StillImage"/><dc:title/></cc:Work></rdf:RDF></metadata><defs><mask id="c" fill="#ffffff"><path d="m0 0h313.3v159.86h-313.3z" fill="#fff" fill-rule="evenodd"/></mask></defs><mask id="a" fill="#ffffff"><path d="m0 0h313.3v159.86h-313.3z" fill="#fff" fill-rule="evenodd"/></mask><mask id="b" fill="#ffffff"><path d="m0 0h313.3v159.86h-313.3z" fill="#fff" fill-rule="evenodd"/></mask><g><g transform="matrix(.049282 0 0 .049282 7.1826 3.1743)" fill="none" fill-rule="evenodd"><g transform="translate(225,326)"><g transform="matrix(20.291 0 0 20.291 -1228.4 -392.26)"><g transform="matrix(.49527 0 0 .49527 5.0758 3.2126)"><g transform="matrix(1.7758,0,0,1.7758,-164.24,-70.425)"><g transform="translate(145.07,88.093)" fill="#eaed8c" stroke-width="3.24"><polygon class="st0" transform="matrix(.72255 0 0 .7031 -28.717 -125.97)" points="55.7 158 32.9 144.9 32.9 118.6 55.7 105.5 78.4 118.6 78.4 144.9" fill="#eaed8c"/></g><g transform="matrix(.15831 0 0 .15831 132.16 18.72)" fill="#005e20" fill-rule="evenodd"><g transform="matrix(1.0777,0,0,-1.0777,-10.799,451.79)"><g transform="matrix(.94489 0 0 .94489 8.6963 2.7018)" fill="#6f6f0c" mask="url(#c)"><path transform="rotate(35,137.93,151.55)" d="m203.46 95.688c6.9363 0 12.559-14.809 12.559-33.077s-5.623-33.077-12.559-33.077-12.559 14.809-12.559 33.077 5.623 33.077 12.559 33.077z"/><path transform="matrix(-.81915 .57358 .57358 .81915 58.085 47.705)" d="m30.142 95.688c6.9363 0 12.559-14.809 12.559-33.077s-5.623-33.077-12.559-33.077c-6.9363 0-12.559 14.809-12.559 33.077s5.623 33.077 12.559 33.077z"/><path d="m153.24 119.95c-6.9363 0-12.559-14.809-12.559-33.077s5.623-33.077 12.559-33.077c6.9363 0 12.559 14.809 12.559 33.077s-5.623 33.077-12.559 33.077z"/></g><path transform="matrix(.94489 0 0 .94489 8.6963 2.7018)" d="m251.47 173.1c-20.23-33.61-56.89-56.068-98.756-56.068-40.721 0-76.516 21.246-97.059 53.335" fill="none" mask="url(#c)" stroke="#6f6f0c" stroke-width="19.999"/></g></g></g></g></g><g><path d="m-126.82-271.51h247.01v296.03h-247.01z" fill="#eaed8c" stroke-width=".96113"/><path d="m100.55-282.81h-64.2c0.29026-1.8838 0.43539-3.8407 0.43539-5.7966 0-22.39-18.187-40.578-40.578-40.578-22.39 0-40.578 18.187-40.578 40.578 0 1.9559 0.14513 3.9118 0.43539 5.7966h-64.2c-19.2 0-34.78 15.579-34.78 34.78v255.06c0 19.2 15.579 34.78 34.78 34.78h208.68c19.202 0 34.781-15.579 34.781-34.78v-255.06c0-19.201-15.579-34.78-34.781-34.78zm-104.34-23.187a17.348 17.348 0 0 1 17.391 17.391 17.348 17.348 0 0 1-17.391 17.39 17.348 17.348 0 0 1-17.391-17.39 17.348 17.348 0 0 1 17.391-17.391zm115.94 313.03c0 6.3761-5.217 11.593-11.594 11.593h-208.68c-6.3761 0-11.593-5.217-11.593-11.593v-255.06c0-6.3761 5.217-11.593 11.593-11.593h34.781v14.492c0 4.7826 3.9128 8.6953 8.6953 8.6953h121.73c4.7826 0 8.6953-3.9128 8.6953-8.6953v-14.492h34.781c6.3761 0 11.593 5.217 11.593 11.593v255.06zm-30.216-189.44h-91.668c-3.6004 0-6.5472 2.3788-6.5472 5.2862v10.572c0 2.9074 2.9468 5.2862 6.5482 5.2862h91.668c3.6004 0 6.5472-2.3788 6.5472-5.2862v-10.572c0-2.9074-2.9468-5.2862-6.5482-5.2862zm0 66.675h-91.668c-3.6004 0-6.5472 2.3788-6.5472 5.2862v10.572c0 2.9074 2.9468 5.2862 6.5482 5.2862h91.668c3.6004 0 6.5472-2.3788 6.5472-5.2862v-10.572c0-2.9074-2.9468-5.2862-6.5482-5.2862zm0 66.318h-91.668c-3.6004 0-6.5472 2.3788-6.5472 5.2862v10.572c0 2.9074 2.9468 5.2862 6.5482 5.2862h91.668c3.6004 0 6.5472-2.3788 6.5472-5.2862v-10.572c0-2.9074-2.9468-5.2862-6.5482-5.2862zm-107.78-150.07a3.1467 3.1467 0 0 0 0-4.4471l-7.3622-7.4324a3.1352 3.1352 0 0 0-4.4404 0l-27.814 27.621-12.037-12.23a3.1352 3.1352 0 0 0-4.4404 0l-7.4209 7.3738a3.1467 3.1467 0 0 0 0 4.4471l21.678 21.885c1.1101 1.2302 3.0968 1.2302 4.3241 0zm0 66.675a3.1467 3.1467 0 0 0 0-4.4472l-7.3622-7.4314a3.1352 3.1352 0 0 0-4.4404 0l-27.814 27.62-12.037-12.229a3.1352 3.1352 0 0 0-4.4404 0l-7.4209 7.3728a3.1467 3.1467 0 0 0 0 4.4471l21.678 21.886c1.1101 1.2293 3.0968 1.2293 4.3241 0zm0 66.318a3.1467 3.1467 0 0 0 0-4.4471l-7.3622-7.4314a3.1352 3.1352 0 0 0-4.4404 0l-27.814 27.62-12.037-12.229a3.1352 3.1352 0 0 0-4.4404 0l-7.4209 7.3728a3.1467 3.1467 0 0 0 0 4.4471l21.678 21.886c1.1101 1.2293 3.0968 1.2293 4.3241 0z" fill="#6f6f0c" stroke="#eaed8c" stroke-width=".96113"/><circle cx="138.45" cy="49.504" r="73.046" fill="#6f6f0c" stroke="#6f6f0c" stroke-width="15.378"/><path d="m170.21 37.315a3.1467 3.1467 0 0 0 0-4.4471l-7.3622-7.4314a3.1352 3.1352 0 0 0-4.4404 0l-27.814 27.62-12.037-12.229a3.1352 3.1352 0 0 0-4.4404 0l-7.4209 7.3728a3.1467 3.1467 0 0 0 0 4.4471l21.678 21.886c1.1101 1.2293 3.0968 1.2293 4.3241 0z" fill="#eaed8c" stroke-width=".96113"/></g></g></g></g></svg>
