<?xml version="1.0" encoding="UTF-8"?>
<svg width="40" height="40" version="1.1" viewBox="0 0 40 40" xmlns="http://www.w3.org/2000/svg" xmlns:cc="http://creativecommons.org/ns#" xmlns:dc="http://purl.org/dc/elements/1.1/" xmlns:rdf="http://www.w3.org/1999/02/22-rdf-syntax-ns#"><metadata><rdf:RDF><cc:Work rdf:about=""><dc:format>image/svg+xml</dc:format><dc:type rdf:resource="http://purl.org/dc/dcmitype/StillImage"/><dc:title/></cc:Work></rdf:RDF></metadata><defs><mask id="c" fill="#ffffff"><path d="m0 0h313.3v159.86h-313.3z" fill="#fff" fill-rule="evenodd"/></mask></defs><mask id="a" fill="#ffffff"><path d="m0 0h313.3v159.86h-313.3z" fill="#fff" fill-rule="evenodd"/></mask><mask id="b" fill="#ffffff"><path d="m0 0h313.3v159.86h-313.3z" fill="#fff" fill-rule="evenodd"/></mask><g transform="translate(.39981 .175)"><g transform="matrix(.49527 0 0 .49527 5.0758 3.2126)"><g transform="matrix(1.7758,0,0,1.7758,-164.24,-70.425)"><g transform="translate(96.564,87.836)" fill="#66ff9a" stroke-width="3.24"><polygon class="st0" transform="matrix(.72255 0 0 .7031 -28.717 -125.97)" points="32.9 118.6 55.7 105.5 78.4 118.6 78.4 144.9 55.7 158 32.9 144.9" fill="#ed8c8c"/></g><g transform="matrix(.15831 0 0 .15831 83.649 18.463)" fill="#005e20" fill-rule="evenodd"><g transform="matrix(1.0777,0,0,-1.0777,-10.799,451.79)"><g transform="matrix(.94489 0 0 .94489 8.6963 2.7018)" fill="#6f0c0c" mask="url(#c)"><path transform="rotate(35,137.93,151.55)" d="m203.46 95.688c6.9363 0 12.559-14.809 12.559-33.077s-5.623-33.077-12.559-33.077-12.559 14.809-12.559 33.077 5.623 33.077 12.559 33.077z"/><path transform="matrix(-.81915 .57358 .57358 .81915 58.085 47.705)" d="m30.142 95.688c6.9363 0 12.559-14.809 12.559-33.077s-5.623-33.077-12.559-33.077c-6.9363 0-12.559 14.809-12.559 33.077s5.623 33.077 12.559 33.077z"/><path d="m153.24 119.95c-6.9363 0-12.559-14.809-12.559-33.077s5.623-33.077 12.559-33.077c6.9363 0 12.559 14.809 12.559 33.077s-5.623 33.077-12.559 33.077z"/></g><path transform="matrix(.94489 0 0 .94489 8.6963 2.7018)" d="m251.47 173.1c-20.23-33.61-56.89-56.068-98.756-56.068-40.721 0-76.516 21.246-97.059 53.335" fill="none" mask="url(#c)" stroke="#6f0c0c" stroke-width="19.999"/></g></g></g></g></g><g transform="matrix(.87586 0 0 .87586 39.344 1.5935)"><g transform="matrix(.32784 0 0 .32784 -45.382 -16.635)" fill="#6f0f0c"><g fill="#6f0f0c"><path class="st6" d="m67.5 106.3c-14 0-25 7.3-25 16.6s11 16.6 25 16.6 25-7.3 25-16.6-10.9-16.6-25-16.6zm0 26.5c-8.6 0-18.3-4.1-18.3-9.9s9.6-9.9 18.3-9.9c2 0 4.1 0.2 6 0.7 2.8 0.4 15.9 4.4 11.7 11.5-2 4.6-10.2 7.6-17.7 7.6z"/><path class="st6" d="m83.6 99.9c-9.8-12.6-23.3-18-30.8-12.4-2.5 1.9-4.1 4.7-4.6 8.3-0.9 7 2.2 16.1 8.5 24.2 7.2 9.2 16.3 14.6 23.7 14.6 2.7 0 5.1-0.7 7.1-2.2 2.5-1.9 4.1-4.7 4.6-8.3 1-7-2.2-16.1-8.5-24.2zm0.9 26.4c-1.3 1.5-2.5 2-3.6 1.7-4.7 0.4-12.5-3.7-18.9-12-5.1-6.5-7.9-14.1-7.2-19.2 0.2-1.8 0.9-3.1 2-3.9 0.8-0.6 2-0.9 3.3-0.9 4.7 0 12.1 4.1 18.3 12.1 4.1 5.3 6.8 11.4 7.2 16.2 0.9 1.6 0.9 3.6-1.1 6z"/><path class="st6" d="m82 60.5c-11 0-16.9 19.1-16.9 37s5.9 37 16.9 37 16.9-19.1 16.9-37-6-37-16.9-37zm1.1 67.1c-5.7 3.5-9.6-14-9.6-14h0.1c-1.1-4.5-1.7-9.9-1.7-16 0-18.5 6-30.4 10.2-30.4 4.1 0 10.2 11.8 10.2 30.4-0.1 16.8-5.2 28.2-9.2 30z"/></g></g></g></svg>
