<?xml version="1.0" encoding="UTF-8" standalone="no"?>
<svg
   xmlns:dc="http://purl.org/dc/elements/1.1/"
   xmlns:cc="http://creativecommons.org/ns#"
   xmlns:rdf="http://www.w3.org/1999/02/22-rdf-syntax-ns#"
   xmlns:svg="http://www.w3.org/2000/svg"
   xmlns="http://www.w3.org/2000/svg"
   xmlns:sodipodi="http://sodipodi.sourceforge.net/DTD/sodipodi-0.dtd"
   xmlns:inkscape="http://www.inkscape.org/namespaces/inkscape"
   height="40"
   viewBox="0 0 60 40"
   width="60"
   version="1.1"
   id="svg36"
   sodipodi:docname="cluster-compliance.svg"
   inkscape:version="1.0.1 (3bc2e813f5, 2020-09-07)">
  <sodipodi:namedview
     pagecolor="#ffffff"
     bordercolor="#666666"
     borderopacity="1"
     objecttolerance="10"
     gridtolerance="10"
     guidetolerance="10"
     inkscape:pageopacity="0"
     inkscape:pageshadow="2"
     inkscape:window-width="1920"
     inkscape:window-height="1016"
     id="namedview81"
     showgrid="false"
     showguides="false"
     inkscape:zoom="0.87725438"
     inkscape:cx="198.04437"
     inkscape:cy="-25.378759"
     inkscape:window-x="0"
     inkscape:window-y="0"
     inkscape:window-maximized="1"
     inkscape:current-layer="g128"
     inkscape:document-rotation="0" />
  <metadata
     id="metadata42">
    <rdf:RDF>
      <cc:Work
         rdf:about="">
        <dc:format>image/svg+xml</dc:format>
        <dc:type
           rdf:resource="http://purl.org/dc/dcmitype/StillImage" />
        <dc:title />
      </cc:Work>
    </rdf:RDF>
  </metadata>
  <defs
     id="defs40">
    <mask
       id="a-1"
       fill="#ffffff">
      <path
         d="M 0,0 H 313.30315 V 159.86486 H 0 Z"
         fill="#ffffff"
         fill-rule="evenodd"
         id="path2-9" />
    </mask>
    <clipPath
       clipPathUnits="userSpaceOnUse"
       id="clipPath3444">
      <path
         d="M 11.52,162 C 11.52,81.677 135.307,16.561 288,16.561 v 0 c 152.693,0 276.481,65.116 276.481,145.439 v 0 c 0,80.322 -123.788,145.439 -276.481,145.439 v 0 C 135.307,307.439 11.52,242.322 11.52,162"
         id="path3446" />
    </clipPath>
    <radialGradient
       cx="0"
       cy="0"
       fx="0"
       fy="0"
       gradientTransform="matrix(363.05789,0,0,-363.05789,177.52002,256.30713)"
       gradientUnits="userSpaceOnUse"
       id="radialGradient3452"
       r="1"
       spreadMethod="pad">
      <stop
         id="stop3454"
         offset="0"
         style="stop-opacity:1;stop-color:#aeb2d5" />
      <stop
         id="stop3456"
         offset="0.3"
         style="stop-opacity:1;stop-color:#aeb2d5" />
      <stop
         id="stop3458"
         offset="0.75"
         style="stop-opacity:1;stop-color:#484c89" />
      <stop
         id="stop3460"
         offset="1"
         style="stop-opacity:1;stop-color:#484c89" />
    </radialGradient>
    <clipPath
       clipPathUnits="userSpaceOnUse"
       id="clipPath3468">
      <path
         d="M 0,324 H 576 V 0 H 0 Z"
         id="path3470" />
    </clipPath>
    <clipPath
       clipPathUnits="userSpaceOnUse"
       id="clipPath3480">
      <path
         d="M 0,324 H 576 V 0 H 0 Z"
         id="path3482" />
    </clipPath>
  </defs>
  <mask
     id="a"
     fill="#ffffff">
    <path
       d="M 0,0 H 313.30315 V 159.86486 H 0 Z"
       fill="#ffffff"
       fill-rule="evenodd"
       id="path2" />
  </mask>
  <mask
     id="b"
     fill="#ffffff">
    <path
       d="M 0,0 H 313.30315 V 159.86486 H 0 Z"
       fill="#ffffff"
       fill-rule="evenodd"
       id="path5" />
  </mask>
  <g
     id="g1042"
     style="display:inline">
    <g
       id="g994"
       transform="matrix(0.08667043,0,0,0.08667043,54.837532,-43.975856)"
       style="display:inline">
      <path
         id="path990"
         style="fill:#000e44;fill-opacity:1;fill-rule:evenodd;stroke:none;stroke-width:3.14747"
         d="m 56.695351,510.77372 -107.53235,84.40183 -79.398391,-66.27467 61.189259,82.84335 -54.627399,74.39502 72.836531,-52.98696 102.528945,91.04567 -81.03891,-107.53235 z" />
    </g>
    <circle
       style="opacity:1;fill:#eaed8c;fill-opacity:1;stroke:none;stroke-width:0.308165;stroke-miterlimit:2.5;stroke-opacity:1;stop-color:#000000"
       id="path912"
       cx="16.627409"
       cy="16.633268"
       r="16.433828" />
    <g
       fill="none"
       fill-rule="evenodd"
       transform="matrix(0.15069337,0,0,0.15069337,-6.1976669,-20.880758)"
       id="g1008"
       style="fill:#6f6f0c;fill-opacity:1">
      <g
         transform="matrix(0.92863152,0,0,-0.92863152,9.2718211,454.1644)"
         id="g1006"
         style="fill:#6f6f0c;fill-opacity:1">
        <g
           fill="#0f1689"
           mask="url(#a-1)"
           id="g1002"
           style="fill:#6f6f0c;fill-opacity:1"
           transform="matrix(0.94489362,0,0,0.94489362,8.6962507,2.7018401)">
          <path
             d="m 203.46068,95.687543 c 6.93631,0 12.5593,-14.80922 12.5593,-33.077318 0,-18.268097 -5.62299,-33.077317 -12.5593,-33.077317 -6.93631,0 -12.55931,14.80922 -12.55931,33.077317 0,18.268098 5.62299,33.077318 12.55931,33.077318 z"
             transform="rotate(35,137.93117,151.55002)"
             id="path996"
             style="fill:#6f6f0c;fill-opacity:1" />
          <path
             d="m 30.142322,95.687543 c 6.936311,0 12.559301,-14.80922 12.559301,-33.077318 0,-18.268097 -5.62299,-33.077317 -12.559301,-33.077317 -6.93631,0 -12.559301,14.80922 -12.559301,33.077317 0,18.268098 5.622991,33.077318 12.559301,33.077318 z"
             transform="matrix(-0.81915204,0.57357644,0.57357644,0.81915204,58.084611,47.704768)"
             id="path998"
             style="fill:#6f6f0c;fill-opacity:1" />
          <path
             d="m 116.73282,66.275268 c 6.93631,0 12.5593,-14.80922 12.5593,-33.077318 0,-18.268097 -5.62299,-33.07731673 -12.55931,-33.07731673 -6.93631,0 -12.5593,14.80921973 -12.5593,33.07731673 0,18.268098 5.62299,33.077318 12.55931,33.077318 z"
             transform="matrix(-1,0,0,1,272.62852,53.670762)"
             id="path1000"
             style="fill:#6f6f0c;fill-opacity:1" />
        </g>
        <path
           d="m 251.46701,173.09985 c -20.23008,-33.60997 -56.88957,-56.06791 -98.75578,-56.06791 -40.7208,0 -76.515877,21.2459 -97.058696,53.33459"
           mask="url(#a-1)"
           stroke="#0f1689"
           stroke-width="20"
           id="path1004"
           style="stroke:#6f6f0c;stroke-opacity:1;fill:none;fill-opacity:1"
           transform="matrix(0.94489362,0,0,0.94489362,8.6962507,2.7018401)" />
      </g>
    </g>
    <g
       id="g97"
       transform="matrix(0.03936691,0,0,0.03936691,6.8555781,5.1294397)" />
    <g
       id="g99"
       transform="matrix(0.03936691,0,0,0.03936691,6.8555781,5.1294397)" />
    <g
       id="g101"
       transform="matrix(0.03936691,0,0,0.03936691,6.8555781,5.1294397)" />
    <g
       id="g103"
       transform="matrix(0.03936691,0,0,0.03936691,6.8555781,5.1294397)" />
    <g
       id="g105"
       transform="matrix(0.03936691,0,0,0.03936691,6.8555781,5.1294397)" />
    <g
       id="g107"
       transform="matrix(0.03936691,0,0,0.03936691,6.8555781,5.1294397)" />
    <g
       id="g109"
       transform="matrix(0.03936691,0,0,0.03936691,6.8555781,5.1294397)" />
    <g
       id="g111"
       transform="matrix(0.03936691,0,0,0.03936691,6.8555781,5.1294397)" />
    <g
       id="g113"
       transform="matrix(0.03936691,0,0,0.03936691,6.8555781,5.1294397)" />
    <g
       id="g115"
       transform="matrix(0.03936691,0,0,0.03936691,6.8555781,5.1294397)" />
    <g
       id="g117"
       transform="matrix(0.03936691,0,0,0.03936691,6.8555781,5.1294397)" />
    <g
       id="g119"
       transform="matrix(0.03936691,0,0,0.03936691,6.8555781,5.1294397)" />
    <g
       id="g121"
       transform="matrix(0.03936691,0,0,0.03936691,6.8555781,5.1294397)" />
    <g
       id="g123"
       transform="matrix(0.03936691,0,0,0.03936691,6.8555781,5.1294397)" />
    <g
       id="g125"
       transform="matrix(0.03936691,0,0,0.03936691,6.8555781,5.1294397)" />
    <g
       fill="none"
       fill-rule="evenodd"
       id="g130"
       transform="matrix(0.04928164,0,0,0.04928164,7.182572,3.1743204)">
      <path
         fill="#ffffff"
         d="M 17,60 H 274 V 368 H 17 Z"
         id="path120"
         style="fill:#eaed8c;fill-opacity:1" />
      <path
         d="m 253.563,48.25 h -66.797 c 0.302,-1.96 0.453,-3.996 0.453,-6.031 C 187.219,18.923 168.296,0 145,0 c -23.296,0 -42.219,18.923 -42.219,42.219 0,2.035 0.151,4.07 0.453,6.031 H 36.437 C 16.46,48.25 0.25,64.459 0.25,84.437 V 349.813 C 0.25,369.79 16.459,386 36.437,386 h 217.125 c 19.979,0 36.188,-16.209 36.188,-36.187 V 84.437 C 289.75,64.459 273.541,48.25 253.562,48.25 Z M 145,24.125 A 18.05,18.05 0 0 1 163.094,42.219 18.05,18.05 0 0 1 145,60.312 18.05,18.05 0 0 1 126.906,42.219 18.05,18.05 0 0 1 145,24.125 Z m 120.625,325.688 c 0,6.634 -5.428,12.062 -12.063,12.062 H 36.438 c -6.634,0 -12.062,-5.428 -12.062,-12.062 V 84.437 c 0,-6.634 5.428,-12.062 12.062,-12.062 h 36.188 v 15.078 c 0,4.976 4.071,9.047 9.047,9.047 h 126.656 c 4.976,0 9.047,-4.071 9.047,-9.047 V 72.375 h 36.188 c 6.634,0 12.062,5.428 12.062,12.062 V 349.813 Z M 234.187,152.709 h -95.375 c -3.746,0 -6.812,2.475 -6.812,5.5 v 11 c 0,3.025 3.066,5.5 6.813,5.5 h 95.375 c 3.746,0 6.812,-2.475 6.812,-5.5 v -11 c 0,-3.025 -3.066,-5.5 -6.813,-5.5 z m 0,69.372 h -95.375 c -3.746,0 -6.812,2.475 -6.812,5.5 v 11 c 0,3.025 3.066,5.5 6.813,5.5 h 95.375 c 3.746,0 6.812,-2.475 6.812,-5.5 v -11 c 0,-3.025 -3.066,-5.5 -6.813,-5.5 z m 0,69 h -95.375 c -3.746,0 -6.812,2.475 -6.812,5.5 v 11 c 0,3.025 3.066,5.5 6.813,5.5 h 95.375 c 3.746,0 6.812,-2.475 6.812,-5.5 v -11 c 0,-3.025 -3.066,-5.5 -6.813,-5.5 z M 122.043,134.946 a 3.274,3.274 0 0 0 0,-4.627 l -7.66,-7.733 a 3.262,3.262 0 0 0 -4.62,0 L 80.824,151.324 68.3,138.599 a 3.262,3.262 0 0 0 -4.62,0 l -7.721,7.672 a 3.274,3.274 0 0 0 0,4.627 l 22.555,22.77 c 1.155,1.28 3.222,1.28 4.499,0 z m 0,69.372 a 3.274,3.274 0 0 0 0,-4.627 l -7.66,-7.732 a 3.262,3.262 0 0 0 -4.62,0 L 80.824,220.696 68.3,207.972 a 3.262,3.262 0 0 0 -4.62,0 l -7.721,7.671 a 3.274,3.274 0 0 0 0,4.627 l 22.555,22.771 c 1.155,1.279 3.222,1.279 4.499,0 z m 0,69 a 3.274,3.274 0 0 0 0,-4.627 l -7.66,-7.732 a 3.262,3.262 0 0 0 -4.62,0 L 80.824,289.696 68.3,276.972 a 3.262,3.262 0 0 0 -4.62,0 l -7.721,7.671 a 3.274,3.274 0 0 0 0,4.627 l 22.555,22.771 c 1.155,1.279 3.222,1.279 4.499,0 z"
         fill="#002b49"
         id="path122"
         style="fill:#6f6f0c;fill-opacity:1;stroke:#eaed8c;stroke-opacity:1" />
      <g
         transform="translate(225,326)"
         id="g128">
        <circle
           stroke="#ffffff"
           stroke-width="16"
           fill="#f59551"
           cx="68"
           cy="68"
           r="76"
           id="circle124"
           style="fill:#6f6f0c;fill-opacity:1;stroke:#6f6f0c;stroke-opacity:1" />
        <path
           d="m 101.042,55.318 a 3.274,3.274 0 0 0 0,-4.627 l -7.66,-7.732 a 3.262,3.262 0 0 0 -4.62,0 L 59.823,71.696 47.299,58.972 a 3.262,3.262 0 0 0 -4.62,0 l -7.721,7.671 a 3.274,3.274 0 0 0 0,4.627 l 22.555,22.771 c 1.155,1.279 3.222,1.279 4.499,0 z"
           fill="#ffffff"
           id="path126"
           style="fill:#eaed8c;fill-opacity:1" />
      </g>
    </g>
  </g>
  <g
     transform="matrix(0.95879878,0,0,0.95879878,-871.34292,-378.35028)"
     id="g893" />
</svg>
