<?xml version="1.0" encoding="UTF-8"?>
<svg width="40" height="40" version="1.1" viewBox="0 0 40 40" xmlns="http://www.w3.org/2000/svg" xmlns:cc="http://creativecommons.org/ns#" xmlns:dc="http://purl.org/dc/elements/1.1/" xmlns:rdf="http://www.w3.org/1999/02/22-rdf-syntax-ns#"><metadata><rdf:RDF><cc:Work rdf:about=""><dc:format>image/svg+xml</dc:format><dc:type rdf:resource="http://purl.org/dc/dcmitype/StillImage"/><dc:title/></cc:Work></rdf:RDF></metadata><defs><mask id="c" fill="#ffffff"><path d="m0 0h313.3v159.86h-313.3z" fill="#fff" fill-rule="evenodd"/></mask></defs><mask id="a" fill="#ffffff"><path d="m0 0h313.3v159.86h-313.3z" fill="#fff" fill-rule="evenodd"/></mask><mask id="b" fill="#ffffff"><path d="m0 0h313.3v159.86h-313.3z" fill="#fff" fill-rule="evenodd"/></mask><g><g transform="translate(.39981 .12968)"><g transform="matrix(.49527 0 0 .49527 5.0758 3.2126)"><g transform="matrix(1.7758,0,0,1.7758,-164.24,-70.425)"><g transform="translate(96.564,87.836)" fill="#66ff9a" stroke-width="3.24"><polygon class="st0" transform="matrix(.72255 0 0 .7031 -28.717 -125.97)" points="78.4 144.9 55.7 158 32.9 144.9 32.9 118.6 55.7 105.5 78.4 118.6" fill="#ababf7"/></g><g transform="matrix(.15831 0 0 .15831 83.649 18.463)" fill="#005e20" fill-rule="evenodd"><g transform="matrix(1.0777,0,0,-1.0777,-10.799,451.79)"><g transform="matrix(.94489 0 0 .94489 8.6963 2.7018)" fill="#0f0c6f" mask="url(#c)"><path transform="rotate(35,137.93,151.55)" d="m203.46 95.688c6.9363 0 12.559-14.809 12.559-33.077s-5.623-33.077-12.559-33.077-12.559 14.809-12.559 33.077 5.623 33.077 12.559 33.077z"/><path transform="matrix(-.81915 .57358 .57358 .81915 58.085 47.705)" d="m30.142 95.688c6.9363 0 12.559-14.809 12.559-33.077s-5.623-33.077-12.559-33.077c-6.9363 0-12.559 14.809-12.559 33.077s5.623 33.077 12.559 33.077z"/><path d="m153.24 119.95c-6.9363 0-12.559-14.809-12.559-33.077s5.623-33.077 12.559-33.077c6.9363 0 12.559 14.809 12.559 33.077s-5.623 33.077-12.559 33.077z"/></g><path transform="matrix(.94489 0 0 .94489 8.6963 2.7018)" d="m251.47 173.1c-20.23-33.61-56.89-56.068-98.756-56.068-40.721 0-76.516 21.246-97.059 53.335" fill="none" mask="url(#c)" stroke="#0f0c6f" stroke-width="19.999"/></g></g></g></g></g><g transform="matrix(.038604 0 0 .038604 9.1898 5.6767)" fill="#0f0c6f"><g fill="#0f0c6f"><g fill="#0f0c6f"><path d="m227.44 293.43v-240.36c0-32.355-57.208-49.284-113.72-49.284-56.509 0-113.72 16.929-113.72 49.284v240.36c0 32.355 57.208 49.284 113.72 49.284 56.509 0 113.72-16.929 113.72-49.284zm-182.3-256.78c18.143-6.74 42.499-10.451 68.584-10.451 26.08 0 50.437 3.711 68.581 10.451 17.972 6.676 22.72 13.657 22.72 16.417s-4.749 9.741-22.72 16.417c-18.144 6.74-42.5 10.451-68.581 10.451-26.085 0-50.442-3.711-68.584-10.451-17.969-6.675-22.717-13.657-22.717-16.417s4.748-9.742 22.717-16.417zm-22.717 47.002c21.831 12.352 56.696 18.699 91.301 18.699s69.471-6.347 91.301-18.699v30.92h1e-3c0 2.759-4.749 9.741-22.72 16.417-18.144 6.74-42.5 10.451-68.581 10.451-26.085 0-50.442-3.711-68.584-10.451-17.97-6.674-22.718-13.656-22.718-16.417zm0 61.502c21.831 12.351 56.695 18.702 91.301 18.702 34.607 0 69.471-6.351 91.301-18.703v30.925c0 2.759-4.749 9.741-22.72 16.417-18.144 6.74-42.5 10.451-68.581 10.451-26.085 0-50.442-3.711-68.584-10.451-17.969-6.673-22.717-13.656-22.717-16.416zm0 61.505c21.831 12.353 56.695 18.703 91.301 18.703 34.607 0 69.471-6.351 91.301-18.703v30.925c0 2.76-4.749 9.741-22.72 16.417-18.144 6.739-42.5 10.451-68.581 10.451-26.085 0-50.442-3.711-68.584-10.451-17.969-6.675-22.717-13.656-22.717-16.417zm0 86.773v-25.267c21.831 12.353 56.695 18.703 91.301 18.703 34.607 0 69.471-6.351 91.301-18.703v25.267c0 2.76-4.749 9.741-22.72 16.417-18.144 6.74-42.5 10.451-68.581 10.451-26.085 0-50.442-3.711-68.584-10.451-17.969-6.676-22.717-13.657-22.717-16.417z"/><path d="m489.73 380.87c-13.8-13.542-31.991-21.078-51.297-21.27-15-29.461-45.044-48.09-78.608-48.09-45.57 0-83.185 34.715-87.785 79.09-5.932-1.525-12.086-2.207-18.303-2.004-34.318 1.129-61.762 28.907-62.478 63.244-0.016 0.772-0.018 1.543-7e-3 2.306 0.425 29.817 25.378 54.075 55.623 54.075h189.66c20.295 0 40.077-8.308 54.276-22.792 14.051-14.335 21.571-33.166 21.175-53.023-0.392-19.536-8.295-37.838-22.253-51.536zm-14.932 88.864c-10.156 10.362-23.746 16.069-38.266 16.069h-189.66c-18.06 0-32.958-14.345-33.209-31.983-8e-3 -0.505-6e-3 -1.013 4e-3 -1.519 0.46-22.049 18.764-40.577 40.802-41.302 0.471-0.016 0.94-0.023 1.41-0.023 7.604 0 15.024 2.024 21.541 5.889 3.635 2.155 8.174 2.084 11.74-0.187 3.565-2.271 5.549-6.354 5.131-10.56-0.206-2.076-0.31-4.212-0.31-6.349 0-36.306 29.537-65.842 65.842-65.842 27.063 0 51.063 16.237 61.136 41.365 1.856 4.629 6.548 7.474 11.513 6.982 30.335-3.01 56.5 20.837 57.094 50.578 0.276 13.785-4.971 26.883-14.771 36.882z"/><path d="m164.54 453.89c-28.695-19.76-50.422-48.792-61.179-81.748-1.92-5.884-8.246-9.098-14.133-7.177-5.884 1.92-9.098 8.248-7.177 14.132 12.274 37.604 37.054 70.722 69.776 93.255 1.941 1.336 4.155 1.978 6.347 1.978 3.563 0 7.067-1.696 9.241-4.853 3.511-5.096 2.223-12.075-2.875-15.587z"/><path d="m260.65 163.69c61.917 2.282 117.29 40.77 141.08 98.052 1.79 4.312 5.961 6.913 10.355 6.913 1.431 0 2.888-0.277 4.294-0.86 5.717-2.374 8.427-8.933 6.052-14.649-27.131-65.347-90.308-109.26-160.95-111.86-6.149-0.251-11.385 4.601-11.613 10.788-0.226 6.187 4.604 11.387 10.79 11.614z"/><path d="m420.71 282.78c-6.103 1.037-10.208 6.826-9.172 12.928 0.087 0.517 0.173 1.033 0.257 1.552 0.889 5.508 5.647 9.425 11.051 9.425 0.592 0 1.194-0.047 1.798-0.145 6.111-0.985 10.266-6.74 9.279-12.85-0.093-0.581-0.189-1.16-0.288-1.738-1.034-6.103-6.827-10.209-12.925-9.172z"/></g></g></g></g></svg>
