<?xml version="1.0" encoding="UTF-8" standalone="no"?>
<svg
   xmlns:dc="http://purl.org/dc/elements/1.1/"
   xmlns:cc="http://creativecommons.org/ns#"
   xmlns:rdf="http://www.w3.org/1999/02/22-rdf-syntax-ns#"
   xmlns:svg="http://www.w3.org/2000/svg"
   xmlns="http://www.w3.org/2000/svg"
   xmlns:sodipodi="http://sodipodi.sourceforge.net/DTD/sodipodi-0.dtd"
   xmlns:inkscape="http://www.inkscape.org/namespaces/inkscape"
   height="40"
   viewBox="0 0 60 40"
   width="60"
   version="1.1"
   id="svg36"
   sodipodi:docname="cluster-devworkspaces.svg"
   inkscape:version="1.0.1 (3bc2e813f5, 2020-09-07)">
  <sodipodi:namedview
     pagecolor="#ffffff"
     bordercolor="#666666"
     borderopacity="1"
     objecttolerance="10"
     gridtolerance="10"
     guidetolerance="10"
     inkscape:pageopacity="0"
     inkscape:pageshadow="2"
     inkscape:window-width="1920"
     inkscape:window-height="1016"
     id="namedview35"
     showgrid="false"
     inkscape:zoom="4.9625001"
     inkscape:cx="-40.181838"
     inkscape:cy="19.06186"
     inkscape:window-x="0"
     inkscape:window-y="0"
     inkscape:window-maximized="1"
     inkscape:current-layer="g1042"
     inkscape:document-rotation="0" />
  <metadata
     id="metadata42">
    <rdf:RDF>
      <cc:Work
         rdf:about="">
        <dc:format>image/svg+xml</dc:format>
        <dc:type
           rdf:resource="http://purl.org/dc/dcmitype/StillImage" />
        <dc:title />
      </cc:Work>
    </rdf:RDF>
  </metadata>
  <defs
     id="defs40">
    <mask
       id="a-1"
       fill="#ffffff">
      <path
         d="M 0,0 H 313.30315 V 159.86486 H 0 Z"
         fill="#ffffff"
         fill-rule="evenodd"
         id="path2-9" />
    </mask>
  </defs>
  <mask
     id="a"
     fill="#ffffff">
    <path
       d="M 0,0 H 313.30315 V 159.86486 H 0 Z"
       fill="#ffffff"
       fill-rule="evenodd"
       id="path2" />
  </mask>
  <mask
     id="b"
     fill="#ffffff">
    <path
       d="M 0,0 H 313.30315 V 159.86486 H 0 Z"
       fill="#ffffff"
       fill-rule="evenodd"
       id="path5" />
  </mask>
  <g
     id="g1042"
     style="display:inline">
    <g
       id="g994"
       transform="matrix(0.08667043,0,0,0.08667043,54.837532,-43.975856)"
       style="display:inline">
      <path
         id="path990"
         style="fill:#000e44;fill-opacity:1;fill-rule:evenodd;stroke:none;stroke-width:3.14747"
         d="m 56.695351,510.77372 -107.53235,84.40183 -79.398391,-66.27467 61.189259,82.84335 -54.627399,74.39502 72.836531,-52.98696 102.528945,91.04567 -81.03891,-107.53235 z" />
    </g>
    <circle
       style="opacity:1;fill:#ed8ced;fill-opacity:1;stroke:none;stroke-width:0.308165;stroke-miterlimit:2.5;stroke-opacity:1;stop-color:#000000"
       id="path912"
       cx="16.627409"
       cy="16.633268"
       r="16.433828" />
    <g
       fill="none"
       fill-rule="evenodd"
       transform="matrix(0.15069337,0,0,0.15069337,-6.1976669,-20.880758)"
       id="g1008">
      <g
         transform="matrix(0.92863152,0,0,-0.92863152,9.2718211,454.1644)"
         id="g1006">
        <g
           fill="#0f1689"
           mask="url(#a-1)"
           id="g1002"
           style="fill:#0c6f18;fill-opacity:1"
           transform="matrix(0.94489362,0,0,0.94489362,8.6962507,2.7018401)">
          <path
             d="m 203.46068,95.687543 c 6.93631,0 12.5593,-14.80922 12.5593,-33.077318 0,-18.268097 -5.62299,-33.077317 -12.5593,-33.077317 -6.93631,0 -12.55931,14.80922 -12.55931,33.077317 0,18.268098 5.62299,33.077318 12.55931,33.077318 z"
             transform="rotate(35,137.93117,151.55002)"
             id="path996"
             style="fill:#6f0c6f;fill-opacity:1" />
          <path
             d="m 30.142322,95.687543 c 6.936311,0 12.559301,-14.80922 12.559301,-33.077318 0,-18.268097 -5.62299,-33.077317 -12.559301,-33.077317 -6.93631,0 -12.559301,14.80922 -12.559301,33.077317 0,18.268098 5.622991,33.077318 12.559301,33.077318 z"
             transform="matrix(-0.81915204,0.57357644,0.57357644,0.81915204,58.084611,47.704768)"
             id="path998"
             style="fill:#6f0c6f;fill-opacity:1" />
          <path
             d="m 116.73282,66.275268 c 6.93631,0 12.5593,-14.80922 12.5593,-33.077318 0,-18.268097 -5.62299,-33.07731673 -12.55931,-33.07731673 -6.93631,0 -12.5593,14.80921973 -12.5593,33.07731673 0,18.268098 5.62299,33.077318 12.55931,33.077318 z"
             transform="matrix(-1,0,0,1,272.62852,53.670762)"
             id="path1000"
             style="fill:#6f0c6f;fill-opacity:1" />
        </g>
        <path
           d="m 251.46701,173.09985 c -20.23008,-33.60997 -56.88957,-56.06791 -98.75578,-56.06791 -40.7208,0 -76.515877,21.2459 -97.058696,53.33459"
           mask="url(#a-1)"
           stroke="#0f1689"
           stroke-width="20"
           id="path1004"
           style="stroke:#6f0c6f;stroke-opacity:1"
           transform="matrix(0.94489362,0,0,0.94489362,8.6962507,2.7018401)" />
      </g>
    </g>
    <g
       id="g10"
       transform="matrix(0.0720365,0,0,0.0720365,4.355108,3.9419223)"
       style="fill:#0c6f18;fill-opacity:1">
      <path
         d="m 190.411,101.693 c 1.065,0.427 2.163,0.628 3.244,0.628 3.468,0 6.751,-2.079 8.118,-5.496 l 33.933,-84.834 c 1.793,-4.483 -0.387,-9.569 -4.868,-11.361 -4.485,-1.797 -9.569,0.387 -11.361,4.868 l -33.933,84.834 c -1.794,4.482 0.386,9.568 4.867,11.361 z"
         id="path2-8"
         style="fill:#6f0c6f;fill-opacity:1" />
      <path
         d="m 271.294,135.738 h -47.97 c 3.384,-1.206 5.81,-4.429 5.81,-8.226 v -50.9 c 0,-4.827 -3.913,-8.74 -8.74,-8.74 -4.827,0 -8.74,3.913 -8.74,8.74 v 42.16 H 186.46 c -4.827,0 -8.74,3.913 -8.74,8.74 0,3.798 2.427,7.02 5.81,8.226 h -31.003 c -4.827,0 -8.74,3.913 -8.74,8.74 V 288.26 c 0,4.827 3.913,8.74 8.74,8.74 4.827,0 8.74,-3.913 8.74,-8.74 V 187.152 H 262.553 V 288.26 c 0,4.827 3.913,8.74 8.74,8.74 4.827,0 8.74,-3.913 8.74,-8.74 V 144.478 c 10e-4,-4.827 -3.912,-8.74 -8.739,-8.74 z m -8.741,33.933 H 161.267 v -16.453 h 101.286 z"
         id="path4"
         style="fill:#6f0c6f;fill-opacity:1" />
      <path
         d="m 51.552,94.426 c 19.07,0 34.585,-15.515 34.585,-34.585 0,-19.07 -15.515,-34.586 -34.585,-34.586 -19.07,0 -34.586,15.516 -34.586,34.586 0,19.07 15.516,34.585 34.586,34.585 z m 0,-52.171 c 9.696,0 17.585,7.889 17.585,17.586 0,9.696 -7.889,17.585 -17.585,17.585 -9.697,0 -17.586,-7.889 -17.586,-17.585 0,-9.697 7.889,-17.586 17.586,-17.586 z"
         id="path6"
         style="fill:#6f0c6f;fill-opacity:1" />
      <path
         d="M 110.422,173.424 H 82.876 V 138.325 C 82.876,121.053 68.824,107 51.552,107 34.28,107 20.227,121.053 20.227,138.325 v 54.6 c 0,16.584 13.491,30.075 30.075,30.075 h 35.741 v 65.326 c 0,4.694 3.806,8.5 8.5,8.5 h 33 c 4.694,0 8.5,-3.806 8.5,-8.5 v -89.281 c 0,-14.128 -11.493,-25.621 -25.621,-25.621 z m 8.621,106.402 h -16 V 214.5 c 0,-4.694 -3.806,-8.5 -8.5,-8.5 H 50.302 c -7.21,0 -13.075,-5.865 -13.075,-13.075 v -54.6 c 0,-7.899 6.426,-14.325 14.325,-14.325 7.898,0 14.324,6.426 14.324,14.325 v 43.599 c 0,4.694 3.806,8.5 8.5,8.5 h 36.046 c 4.754,0 8.621,3.867 8.621,8.621 z"
         id="path8"
         style="fill:#6f0c6f;fill-opacity:1" />
    </g>
  </g>
  <g
     transform="matrix(0.95879878,0,0,0.95879878,-871.34292,-378.35028)"
     id="g893" />
</svg>
