<?xml version="1.0" encoding="UTF-8"?>
<svg width="40" height="40" version="1.1" viewBox="0 0 40 40" xmlns="http://www.w3.org/2000/svg" xmlns:cc="http://creativecommons.org/ns#" xmlns:dc="http://purl.org/dc/elements/1.1/" xmlns:rdf="http://www.w3.org/1999/02/22-rdf-syntax-ns#"><metadata><rdf:RDF><cc:Work rdf:about=""><dc:format>image/svg+xml</dc:format><dc:type rdf:resource="http://purl.org/dc/dcmitype/StillImage"/><dc:title/></cc:Work></rdf:RDF></metadata><defs><mask id="c" fill="#ffffff"><path d="m0 0h313.3v159.86h-313.3z" fill="#fff" fill-rule="evenodd"/></mask></defs><mask id="a" fill="#ffffff"><path d="m0 0h313.3v159.86h-313.3z" fill="#fff" fill-rule="evenodd"/></mask><mask id="b" fill="#ffffff"><path d="m0 0h313.3v159.86h-313.3z" fill="#fff" fill-rule="evenodd"/></mask><g transform="translate(.39981 .50449)"><g transform="matrix(.49527 0 0 .49527 5.0758 3.2126)"><g transform="matrix(1.7758,0,0,1.7758,-164.24,-70.425)"><g transform="translate(96.564,87.836)" fill="#66ff9a" stroke-width="3.24"><polygon class="st0" transform="matrix(.72255 0 0 .7031 -28.717 -125.97)" points="78.4 144.9 55.7 158 32.9 144.9 32.9 118.6 55.7 105.5 78.4 118.6" fill="#ababf7"/></g><g transform="matrix(.15831 0 0 .15831 83.649 18.463)" fill="#005e20" fill-rule="evenodd"><g transform="matrix(1.0777,0,0,-1.0777,-10.799,451.79)"><g transform="matrix(.94489 0 0 .94489 8.6963 2.7018)" fill="#0f0c6f" mask="url(#c)"><path transform="rotate(35,137.93,151.55)" d="m203.46 95.688c6.9363 0 12.559-14.809 12.559-33.077s-5.623-33.077-12.559-33.077-12.559 14.809-12.559 33.077 5.623 33.077 12.559 33.077z"/><path transform="matrix(-.81915 .57358 .57358 .81915 58.085 47.705)" d="m30.142 95.688c6.9363 0 12.559-14.809 12.559-33.077s-5.623-33.077-12.559-33.077c-6.9363 0-12.559 14.809-12.559 33.077s5.623 33.077 12.559 33.077z"/><path d="m153.24 119.95c-6.9363 0-12.559-14.809-12.559-33.077s5.623-33.077 12.559-33.077c6.9363 0 12.559 14.809 12.559 33.077s-5.623 33.077-12.559 33.077z"/></g><path transform="matrix(.94489 0 0 .94489 8.6963 2.7018)" d="m251.47 173.1c-20.23-33.61-56.89-56.068-98.756-56.068-40.721 0-76.516 21.246-97.059 53.335" fill="none" mask="url(#c)" stroke="#0f0c6f" stroke-width="19.999"/></g></g></g></g></g><g transform="matrix(.88287 0 0 .88287 4.3529 2.0017)" stroke-width=".11049"><path d="m29.146 22.709c-1.4568 0.81525-9.003 4.1467-10.61 5.046-1.6066 0.8994-2.499 0.8907-3.7682 0.23928-1.2691-0.65143-9.2997-4.1343-10.746-4.8768-0.72294-0.37093-1.1032-0.68417-1.1032-0.98v-2.9624s10.455-2.4437 12.143-3.0939c1.6877-0.65017 2.2733-0.67364 3.7096-0.10876 1.4365 0.5651 10.025 2.2288 11.445 2.787l-0.0012 2.9205c0 0.29286-0.32735 0.6141-1.0688 1.029" fill="#0f0c6f"/><path d="m29.146 19.764c-1.4566 0.81491-9.0027 4.1464-10.609 5.0456-1.6065 0.89951-2.4989 0.8907-3.768 0.23928-1.2692-0.65097-9.2995-4.1344-10.746-4.8764-1.4465-0.74244-1.4768-1.2534-0.05586-1.8508 1.4209-0.59762 9.4072-3.9618 11.095-4.6119 1.6877-0.64994 2.2732-0.67364 3.7095-0.10853 1.4364 0.56487 8.9375 3.7706 10.357 4.3287 1.4199 0.55881 1.4743 1.0189 0.0177 1.8341" fill="#5955de"/><path d="m29.146 17.916c-1.4568 0.81537-9.003 4.1467-10.61 5.0463-1.6066 0.89906-2.499 0.89036-3.7682 0.23893-1.2692-0.65108-9.2997-4.1343-10.746-4.8768-0.72294-0.37093-1.1032-0.68371-1.1032-0.97966v-2.9628s10.455-2.4436 12.143-3.0938c1.6877-0.65016 2.2733-0.67375 3.7096-0.10876 1.4366 0.56499 10.025 2.2284 11.445 2.7867l-0.0012 2.9209c0 0.29274-0.32735 0.61399-1.0688 1.0289" fill="#0f0c6f"/><path d="m29.146 14.971c-1.4566 0.81514-9.0027 4.1464-10.609 5.046-1.6065 0.89917-2.4989 0.89036-3.768 0.23893-1.2692-0.65097-9.2995-4.1343-10.746-4.8764-1.4465-0.74221-1.4768-1.2533-0.05586-1.8509 1.4209-0.59727 9.4073-3.9617 11.095-4.6117 1.6877-0.65004 2.2732-0.67364 3.7095-0.10865 1.4364 0.56488 8.9375 3.7704 10.357 4.3287 1.4199 0.55869 1.4743 1.0189 0.0177 1.8341" fill="#5955de"/><path d="m29.146 12.945c-1.4568 0.81514-9.003 4.1467-10.61 5.0463-1.6066 0.89917-2.499 0.89036-3.7682 0.23893-1.2692-0.65108-9.2997-4.1344-10.746-4.8765-0.72294-0.37128-1.1032-0.68417-1.1032-0.97977v-2.9629s10.455-2.4435 12.143-3.0935c1.6877-0.65027 2.2733-0.67364 3.7096-0.10876 1.4366 0.56499 10.025 2.2283 11.445 2.7867l-0.0012 2.9208c0 0.29251-0.32735 0.61376-1.0688 1.0288" fill="#0f0c6f"/><path d="m29.146 9.9999c-1.4566 0.81514-9.0027 4.1467-10.609 5.0459-1.6065 0.89917-2.4989 0.89036-3.768 0.23928-1.2691-0.65142-9.2995-4.1345-10.746-4.8768-1.4466-0.7421-1.4768-1.2533-0.05598-1.8508 1.4209-0.59739 9.4073-3.9613 11.095-4.6116 1.6877-0.65016 2.2732-0.67351 3.7095-0.10853 1.4364 0.56499 8.9375 3.7705 10.357 4.3288 1.4199 0.55823 1.4743 1.0186 0.01769 1.8337" fill="#5955de"/><path d="m19.903 7.1179-2.3469 0.26161-0.52535 1.3573-0.84856-1.5147-2.71-0.26148 2.0221-0.78298-0.60672-1.2019 1.8932 0.79499 1.7847-0.62739-0.48238 1.2428 1.8198 0.73167m-3.0124 6.585-4.38-1.9505 6.2761-1.0344-1.8962 2.9849m-6.0725-5.8305c1.8527 0 3.3545 0.6251 3.3545 1.396 0 0.77118-1.5019 1.3962-3.3545 1.3962-1.8527 0-3.3545-0.62509-3.3545-1.3962 0-0.77094 1.5019-1.396 3.3545-1.396" fill="#ababf7"/><path d="m22.677 7.489 3.7145 1.576-3.7113 1.5745-0.0032-3.1507" fill="#0f0c6f"/><path d="m18.567 9.2343 4.1095-1.7453 0.0032 3.1505-0.40295 0.16921-3.7097-1.5744" fill="#2420a6"/></g></svg>
