<?xml version="1.0" encoding="UTF-8"?>
<svg width="40" height="40" version="1.1" viewBox="0 0 40 40" xmlns="http://www.w3.org/2000/svg" xmlns:cc="http://creativecommons.org/ns#" xmlns:dc="http://purl.org/dc/elements/1.1/" xmlns:rdf="http://www.w3.org/1999/02/22-rdf-syntax-ns#"><metadata><rdf:RDF><cc:Work rdf:about=""><dc:format>image/svg+xml</dc:format><dc:type rdf:resource="http://purl.org/dc/dcmitype/StillImage"/><dc:title/></cc:Work></rdf:RDF></metadata><defs><mask id="c" fill="#ffffff"><path d="m0 0h313.3v159.86h-313.3z" fill="#fff" fill-rule="evenodd"/></mask></defs><mask id="a" fill="#ffffff"><path d="m0 0h313.3v159.86h-313.3z" fill="#fff" fill-rule="evenodd"/></mask><mask id="b" fill="#ffffff"><path d="m0 0h313.3v159.86h-313.3z" fill="#fff" fill-rule="evenodd"/></mask><g><g transform="translate(.39981 .20941)"><g transform="matrix(.49527 0 0 .49527 5.0758 3.2126)"><g transform="matrix(1.7758,0,0,1.7758,-164.24,-70.425)"><g transform="translate(96.564,87.836)" fill="#66ff9a" stroke-width="3.24"><polygon class="st0" transform="matrix(.72255 0 0 .7031 -28.717 -125.97)" points="32.9 118.6 55.7 105.5 78.4 118.6 78.4 144.9 55.7 158 32.9 144.9" fill="#ed8c8c"/></g><g transform="matrix(.15831 0 0 .15831 83.649 18.463)" fill="#005e20" fill-rule="evenodd"><g transform="matrix(1.0777,0,0,-1.0777,-10.799,451.79)"><g transform="matrix(.94489 0 0 .94489 8.6963 2.7018)" fill="#6f0c0c" mask="url(#c)"><path transform="rotate(35,137.93,151.55)" d="m203.46 95.688c6.9363 0 12.559-14.809 12.559-33.077s-5.623-33.077-12.559-33.077-12.559 14.809-12.559 33.077 5.623 33.077 12.559 33.077z"/><path transform="matrix(-.81915 .57358 .57358 .81915 58.085 47.705)" d="m30.142 95.688c6.9363 0 12.559-14.809 12.559-33.077s-5.623-33.077-12.559-33.077c-6.9363 0-12.559 14.809-12.559 33.077s5.623 33.077 12.559 33.077z"/><path d="m153.24 119.95c-6.9363 0-12.559-14.809-12.559-33.077s5.623-33.077 12.559-33.077c6.9363 0 12.559 14.809 12.559 33.077s-5.623 33.077-12.559 33.077z"/></g><path transform="matrix(.94489 0 0 .94489 8.6963 2.7018)" d="m251.47 173.1c-20.23-33.61-56.89-56.068-98.756-56.068-40.721 0-76.516 21.246-97.059 53.335" fill="none" mask="url(#c)" stroke="#6f0c0c" stroke-width="19.999"/></g></g></g></g></g><g fill="#6f0f0c"><path d="m15.021 9.6348c0.19052-0.19052 0.49092-0.21507 0.70949-0.05883l1.2635 0.90274c0.13598-0.06351 0.27351-0.12078 0.41183-0.17182l0.2552-1.5308c0.04441-0.26572 0.27429-0.46053 0.54351-0.46014l2.2037-1e-6c0.26962 0 0.49949 0.19481 0.54351 0.46014l0.2552 1.5308c0.13831 0.05104 0.27546 0.1087 0.41183 0.17182l1.2635-0.90274c0.21935-0.15624 0.51975-0.13169 0.71027 0.05883l0.38962 0.38962 0.76638-0.76638c-3.2428-2.8399-8.1944-2.7149-11.286 0.37676l-6.2339 6.2339c-0.21507 0.21507-0.56417 0.21507-0.77924 0l-0.61793-0.61793v2.7943l2.7943 1e-6 -0.61793-0.61793c-0.21507-0.21507-0.21507-0.56417 0-0.77924l5.4546-5.4546z" stroke-width=".551"/><path d="m23.181 13.38c-0.10052-0.18546-0.08649-0.41144 0.03585-0.58287l0.82482-1.1544-0.89846-0.89846-1.1544 0.82482c-0.17143 0.12234-0.3978 0.13676-0.58287 0.03584-0.27546-0.14923-0.55949-0.26806-0.84391-0.35221-0.20221-0.05961-0.35221-0.22988-0.38689-0.43754l-0.2326-1.3968h-1.2702l-0.23377 1.3964c-0.03507 0.20806-0.18468 0.37715-0.38689 0.43754-0.28481 0.08454-0.56845 0.20299-0.84391 0.35221-0.18546 0.10052-0.41144 0.08649-0.58287-0.03584l-1.1548-0.82444-0.89846 0.89846 0.82482 1.1544c0.12234 0.17143 0.13676 0.3978 0.03585 0.58287-0.14923 0.27546-0.26806 0.55949-0.35221 0.84391-0.06 0.20182-0.22988 0.35221-0.43754 0.38689l-1.3968 0.2326v1.2702l1.3968 0.2326c0.20767 0.03467 0.37793 0.18468 0.43754 0.38689 0.08455 0.28481 0.20299 0.56845 0.35221 0.84391 0.10052 0.18546 0.08649 0.41144-0.03585 0.58287l-0.82482 1.156 0.89846 0.89846 1.1544-0.82482c0.17143-0.12234 0.3978-0.13676 0.58287-0.03585 0.27546 0.14923 0.55949 0.26806 0.84391 0.35221 0.20222 0.05961 0.35221 0.22988 0.38689 0.43754l0.2326 1.3968 1.2702 1e-6 0.2326-1.3968c0.03467-0.20767 0.18468-0.37793 0.38689-0.43754 0.28481-0.08454 0.56845-0.20299 0.84391-0.35221 0.18545-0.10052 0.41144-0.08649 0.58287 0.03584l1.156 0.82482 0.89846-0.89846-0.82482-1.1544c-0.12234-0.17143-0.13676-0.3978-0.03584-0.58287 0.14923-0.27546 0.26806-0.55949 0.35221-0.84391 0.06-0.2026 0.22988-0.35221 0.43754-0.38689l1.3968-0.2326-1e-6 -1.2702-1.3964-0.23377c-0.20766-0.03467-0.37793-0.18468-0.43754-0.38689-0.08454-0.28481-0.20299-0.56845-0.3526-0.8443zm-1.5367 4.437c-1.2892 1.2892-3.3862 1.2892-4.6754 1e-6 -1.2892-1.2892-1.2892-3.3862 0-4.6754s3.3862-1.2892 4.6754 0c1.2892 1.2892 1.2892 3.3862-1e-6 4.6754z" stroke-width=".551"/><circle transform="rotate(-45)" cx="2.7065" cy="24.597" r="1.5853" stroke-width=".39632"/><path d="m32.782 12.913-2.7943-2e-6 0.61793 0.61793c0.21507 0.21507 0.21507 0.56417 0 0.77924l-7.0131 7.0131c-0.19052 0.19052-0.49092 0.21507-0.70949 0.05883l-1.2635-0.90274c-0.13598 0.06351-0.27351 0.12078-0.41183 0.17182l-0.2552 1.5308c-0.04442 0.26572-0.27429 0.46053-0.54351 0.46014l-2.2037-1e-6c-0.26962-1e-6 -0.49949-0.19481-0.54351-0.46014l-0.2552-1.5308c-0.13831-0.05105-0.27546-0.1087-0.41182-0.17182l-1.2635 0.90274c-0.21936 0.15623-0.51975 0.13169-0.71027-0.05883l-0.38962-0.38962-0.76638 0.76638c3.2428 2.8399 8.1944 2.7149 11.286-0.37676l6.2339-6.2339c0.21507-0.21507 0.56417-0.21507 0.77924 1e-6l0.61793 0.61793z"/></g></g></svg>
