<?xml version="1.0" encoding="UTF-8" standalone="no"?>
<svg
   xmlns:dc="http://purl.org/dc/elements/1.1/"
   xmlns:cc="http://creativecommons.org/ns#"
   xmlns:rdf="http://www.w3.org/1999/02/22-rdf-syntax-ns#"
   xmlns:svg="http://www.w3.org/2000/svg"
   xmlns="http://www.w3.org/2000/svg"
   xmlns:sodipodi="http://sodipodi.sourceforge.net/DTD/sodipodi-0.dtd"
   xmlns:inkscape="http://www.inkscape.org/namespaces/inkscape"
   height="40"
   viewBox="0 0 60 40"
   width="60"
   version="1.1"
   id="svg36"
   sodipodi:docname="cluster-ptp.svg"
   inkscape:version="1.0.1 (3bc2e813f5, 2020-09-07)">
  <sodipodi:namedview
     pagecolor="#ffffff"
     bordercolor="#666666"
     borderopacity="1"
     objecttolerance="10"
     gridtolerance="10"
     guidetolerance="10"
     inkscape:pageopacity="0"
     inkscape:pageshadow="2"
     inkscape:window-width="1920"
     inkscape:window-height="1016"
     id="namedview191"
     showgrid="false"
     inkscape:zoom="0.87725435"
     inkscape:cx="-213.45176"
     inkscape:cy="-109.88659"
     inkscape:window-x="0"
     inkscape:window-y="0"
     inkscape:window-maximized="1"
     inkscape:current-layer="g1480"
     inkscape:document-rotation="0" />
  <metadata
     id="metadata42">
    <rdf:RDF>
      <cc:Work
         rdf:about="">
        <dc:format>image/svg+xml</dc:format>
        <dc:type
           rdf:resource="http://purl.org/dc/dcmitype/StillImage" />
        <dc:title />
      </cc:Work>
    </rdf:RDF>
  </metadata>
  <defs
     id="defs40">
    <mask
       id="a-1"
       fill="#ffffff">
      <path
         d="M 0,0 H 313.30315 V 159.86486 H 0 Z"
         fill="#ffffff"
         fill-rule="evenodd"
         id="path2-9" />
    </mask>
    <mask
       id="mask865"
       fill="#ffffff">
      <path
         d="M 0,0 H 313.30315 V 159.86486 H 0 Z"
         fill="#ffffff"
         fill-rule="evenodd"
         id="path863" />
    </mask>
  </defs>
  <mask
     id="a"
     fill="#ffffff">
    <path
       d="M 0,0 H 313.30315 V 159.86486 H 0 Z"
       fill="#ffffff"
       fill-rule="evenodd"
       id="path2" />
  </mask>
  <mask
     id="b"
     fill="#ffffff">
    <path
       d="M 0,0 H 313.30315 V 159.86486 H 0 Z"
       fill="#ffffff"
       fill-rule="evenodd"
       id="path5" />
  </mask>
  <g
     id="g1042"
     style="display:inline">
    <g
       id="g994"
       transform="matrix(0.08667043,0,0,0.08667043,54.837532,-43.975856)"
       style="display:inline">
      <path
         id="path990"
         style="fill:#000e44;fill-opacity:1;fill-rule:evenodd;stroke:none;stroke-width:3.14747"
         d="m 56.695351,510.77372 -107.53235,84.40183 -79.398391,-66.27467 61.189259,82.84335 -54.627399,74.39502 72.836531,-52.98696 102.528945,91.04567 -81.03891,-107.53235 z" />
    </g>
    <circle
       style="opacity:1;fill:#ed8c8c;fill-opacity:1;stroke:none;stroke-width:0.308165;stroke-miterlimit:2.5;stroke-opacity:1;stop-color:#000000"
       id="path912"
       cx="16.627409"
       cy="16.633268"
       r="16.433828" />
    <g
       fill="none"
       fill-rule="evenodd"
       transform="matrix(0.15069337,0,0,0.15069337,-6.1976669,-20.880758)"
       id="g1008">
      <g
         transform="matrix(0.92863152,0,0,-0.92863152,9.2718211,454.1644)"
         id="g1006">
        <g
           fill="#0f1689"
           mask="url(#a-1)"
           id="g1002"
           style="fill:#6f0f0c;fill-opacity:1"
           transform="matrix(0.94489362,0,0,0.94489362,8.6962507,2.7018401)">
          <path
             d="m 203.46068,95.687543 c 6.93631,0 12.5593,-14.80922 12.5593,-33.077318 0,-18.268097 -5.62299,-33.077317 -12.5593,-33.077317 -6.93631,0 -12.55931,14.80922 -12.55931,33.077317 0,18.268098 5.62299,33.077318 12.55931,33.077318 z"
             transform="rotate(35,137.93117,151.55002)"
             id="path996"
             style="fill:#6f0f0c;fill-opacity:1" />
          <path
             d="m 30.142322,95.687543 c 6.936311,0 12.559301,-14.80922 12.559301,-33.077318 0,-18.268097 -5.62299,-33.077317 -12.559301,-33.077317 -6.93631,0 -12.559301,14.80922 -12.559301,33.077317 0,18.268098 5.622991,33.077318 12.559301,33.077318 z"
             transform="matrix(-0.81915204,0.57357644,0.57357644,0.81915204,58.084611,47.704768)"
             id="path998"
             style="fill:#6f0f0c;fill-opacity:1" />
          <path
             d="m 116.73282,66.275268 c 6.93631,0 12.5593,-14.80922 12.5593,-33.077318 0,-18.268097 -5.62299,-33.07731673 -12.55931,-33.07731673 -6.93631,0 -12.5593,14.80921973 -12.5593,33.07731673 0,18.268098 5.62299,33.077318 12.55931,33.077318 z"
             transform="matrix(-1,0,0,1,272.62852,53.670762)"
             id="path1000"
             style="fill:#6f0f0c;fill-opacity:1" />
        </g>
        <path
           d="m 251.46701,173.09985 c -20.23008,-33.60997 -56.88957,-56.06791 -98.75578,-56.06791 -40.7208,0 -76.515877,21.2459 -97.058696,53.33459"
           mask="url(#a-1)"
           stroke="#0f1689"
           stroke-width="20"
           id="path1004"
           style="stroke:#6f0c0c;stroke-opacity:1"
           transform="matrix(0.94489362,0,0,0.94489362,8.6962507,2.7018401)" />
      </g>
    </g>
    <g
       id="g1480"
       transform="translate(40)">
      <g
         id="g2192"
         transform="matrix(0.04577485,0,0,0.04577485,-17.69955,18.707251)">
        <path
           style="fill:#f95428"
           d="m -107.33182,-72.413787 c 3.58,3.58 5.79,8.518 5.79,13.974 0,5.469 -2.21,10.407 -5.79,13.986 -3.58,3.58 -8.518,5.79 -13.974,5.79 -5.456,0 -10.407,-2.21 -13.986,-5.79 -3.58,-3.58 -5.79,-8.518 -5.79,-13.986 0,-5.456 2.21,-10.407 5.79,-13.986 3.58,-3.58 8.53,-5.79 13.986,-5.79 5.456,0 10.406,2.222 13.974,5.802 z"
           id="path2-4" />
        <path
           style="fill:#de5c58;fill-opacity:1"
           d="m -121.30582,-305.18379 c 136.271996,0 246.732,110.472 246.732,246.745003 0,136.273 -110.460004,246.744997 -246.732,246.744997 -136.272,0 -246.745,-110.472997 -246.745,-246.745997 0,-136.273003 110.472,-246.744003 246.745,-246.744003 z M 81.023176,-58.439787 c 0,-111.744003 -90.5849997,-202.341003 -202.328996,-202.341003 -111.756,0 -202.341,90.597 -202.341,202.341003 0,111.744 90.585,202.340997 202.341,202.340997 111.7439963,0 202.328996,-90.596997 202.328996,-202.340997 z"
           id="path4" />
        <path
           style="fill:#f74039;fill-opacity:1"
           d="m -135.29282,-44.452787 c 3.58,3.58 8.53,5.79 13.986,5.79 5.456,0 10.394,-2.21 13.974,-5.79 3.58,-3.58 5.79,-8.518 5.79,-13.986 0,-5.456 -2.21,-10.394 -5.79,-13.974 -3.568,-3.58 -8.518,-5.802 -13.974,-5.802 -5.456,0 -10.407,2.21 -13.986,5.79 -3.58,3.58 -5.79,8.53 -5.79,13.986 0.001,5.468 2.211,10.406 5.79,13.986 z m 13.987,-216.328003 c 111.7439963,0 202.328996,90.597 202.328996,202.341003 0,111.744 -90.5849997,202.340997 -202.328996,202.340997 -111.756,0 -202.341,-90.596997 -202.341,-202.340997 0,-111.744003 90.585,-202.341003 202.341,-202.341003 z"
           id="path6" />
        <path
           style="fill:#e02d2d;fill-opacity:1"
           d="m -281.05982,-58.439787 c 0,-104.552003 79.302,-190.585003 181.046,-201.227003 -6.998,-0.732 -14.1,-1.113 -21.292,-1.113 -111.756,0 -202.341,90.597 -202.341,202.341003 0,111.744 90.585,202.339997 202.341,202.339997 7.192,0 14.294,-0.381 21.292,-1.113 -101.745,-10.642 -181.046,-96.675997 -181.046,-201.227997 z"
           id="path8-3" />
        <g
           id="g40"
           transform="translate(-377.31082,-314.43879)">
          <path
             style="fill:#6f0f0c;fill-opacity:1"
             d="m 256,44.405 c -116.674,0 -211.594,94.922 -211.594,211.594 0,116.672 94.92,211.595 211.594,211.595 116.674,0 211.595,-94.922 211.595,-211.594 C 467.595,139.328 372.674,44.405 256,44.405 Z m 0,404.673 C 149.536,449.078 62.922,362.463 62.922,256 62.922,149.537 149.537,62.922 256,62.922 c 106.463,0 193.078,86.615 193.078,193.078 0,106.463 -86.614,193.078 -193.078,193.078 z"
             id="path10" />
          <path
             style="fill:#6f0f0c;fill-opacity:1"
             d="M 256,0 C 114.842,0 0.001,114.841 0.001,256.001 c 0,141.16 114.841,256 255.999,256 C 397.16,512.001 512.001,397.16 512.001,256 512.001,114.84 397.16,0 256,0 Z m 0,493.483 C 125.052,493.483 18.518,386.949 18.518,256.001 18.518,125.053 125.052,18.517 256,18.517 c 130.949,0 237.484,106.534 237.484,237.484 0,130.95 -106.535,237.482 -237.484,237.482 z"
             id="path12" />
          <path
             style="fill:#6f0f0c;fill-opacity:1"
             d="m 345.981,152.929 -77.076,77.076 c -3.89,-1.939 -8.27,-3.036 -12.904,-3.036 -4.632,0 -9.009,1.096 -12.899,3.033 L 200.34,187.24 c -3.615,-3.616 -9.477,-3.616 -13.093,0 -3.616,3.616 -3.616,9.477 0,13.093 l 42.761,42.761 c -1.939,3.89 -3.037,8.271 -3.037,12.905 0,4.633 1.097,9.014 3.036,12.904 l -1.609,1.609 c -3.616,3.616 -3.616,9.477 0,13.093 1.807,1.808 4.177,2.712 6.546,2.712 2.369,0 4.739,-0.904 6.546,-2.712 l 1.609,-1.608 c 3.889,1.938 8.268,3.034 12.9,3.034 4.63,0 9.009,-1.096 12.898,-3.033 l 1.607,1.607 c 1.807,1.808 4.177,2.712 6.546,2.712 2.369,0 4.739,-0.904 6.546,-2.712 3.616,-3.616 3.616,-9.477 0,-13.093 l -1.605,-1.605 c 1.939,-3.891 3.037,-8.272 3.037,-12.906 0,-4.632 -1.096,-9.012 -3.034,-12.9 l 77.077,-77.077 c 3.616,-3.616 3.616,-9.477 0,-13.093 -3.613,-3.618 -9.475,-3.618 -13.09,-0.002 z M 245.487,256.001 c 0,-5.797 4.716,-10.514 10.513,-10.514 5.797,0 10.514,4.717 10.514,10.514 0,5.797 -4.716,10.513 -10.514,10.513 -5.796,-0.001 -10.513,-4.716 -10.513,-10.513 z"
             id="path14" />
          <path
             style="fill:#333333"
             d="m 256,108.482 c 5.113,0 9.258,-4.145 9.258,-9.258 v -18.93 c 0,-5.113 -4.145,-9.258 -9.258,-9.258 -5.113,0 -9.258,4.145 -9.258,9.258 v 18.928 c 0,5.115 4.145,9.26 9.258,9.26 z"
             id="path16" />
          <path
             style="fill:#333333"
             d="m 256,403.519 c -5.113,0 -9.258,4.145 -9.258,9.258 v 18.928 c 0,5.113 4.145,9.258 9.258,9.258 5.113,0 9.258,-4.145 9.258,-9.258 v -18.928 c 0,-5.113 -4.144,-9.258 -9.258,-9.258 z"
             id="path18" />
          <path
             style="fill:#333333"
             d="m 169.594,124.856 c 1.715,2.97 4.827,4.63 8.026,4.63 1.57,0 3.163,-0.4 4.621,-1.242 4.428,-2.557 5.945,-8.219 3.389,-12.647 l -9.465,-16.392 c -2.557,-4.429 -8.219,-5.945 -12.647,-3.389 -4.428,2.556 -5.945,8.219 -3.389,12.647 z"
             id="path20" />
          <path
             style="fill:#333333"
             d="m 342.408,387.144 c -2.557,-4.429 -8.222,-5.945 -12.647,-3.389 -4.428,2.557 -5.945,8.219 -3.389,12.647 l 9.465,16.392 c 1.715,2.97 4.827,4.63 8.026,4.63 1.57,0 3.164,-0.4 4.621,-1.242 4.428,-2.557 5.945,-8.219 3.389,-12.647 z"
             id="path22" />
          <path
             style="fill:#333333"
             d="m 124.858,169.594 -16.392,-9.465 c -4.428,-2.558 -10.09,-1.039 -12.647,3.389 -2.557,4.428 -1.039,10.09 3.389,12.647 l 16.392,9.465 c 1.458,0.842 3.05,1.242 4.621,1.242 3.2,0 6.312,-1.66 8.026,-4.63 2.556,-4.429 1.039,-10.091 -3.389,-12.648 z"
             id="path24" />
          <path
             style="fill:#333333"
             d="m 412.795,335.835 -16.392,-9.465 c -4.429,-2.558 -10.091,-1.039 -12.647,3.389 -2.557,4.428 -1.039,10.091 3.389,12.647 l 16.392,9.465 c 1.458,0.842 3.05,1.242 4.621,1.242 3.2,0 6.312,-1.66 8.027,-4.63 2.556,-4.429 1.038,-10.092 -3.39,-12.648 z"
             id="path26" />
          <path
             style="fill:#333333"
             d="m 431.706,246.742 h -18.928 c -5.113,0 -9.258,4.145 -9.258,9.258 0,5.113 4.145,9.258 9.258,9.258 h 18.928 c 5.113,0 9.258,-4.145 9.258,-9.258 10e-4,-5.113 -4.145,-9.258 -9.258,-9.258 z"
             id="path28" />
          <path
             style="fill:#333333"
             d="m 108.482,256.001 c 0,-5.113 -4.145,-9.258 -9.258,-9.258 H 80.295 c -5.113,0 -9.258,4.145 -9.258,9.258 0,5.113 4.145,9.258 9.258,9.258 h 18.928 c 5.114,0 9.259,-4.145 9.259,-9.258 z"
             id="path30" />
          <path
             style="fill:#333333"
             d="m 391.782,186.872 c 1.57,0 3.163,-0.4 4.621,-1.242 l 16.392,-9.465 c 4.428,-2.557 5.945,-8.219 3.389,-12.647 -2.557,-4.429 -8.218,-5.945 -12.647,-3.389 l -16.392,9.465 c -4.428,2.557 -5.945,8.219 -3.389,12.647 1.715,2.971 4.827,4.631 8.026,4.631 z"
             id="path32" />
          <path
             style="fill:#333333"
             d="m 115.6,326.371 -16.392,9.465 c -4.428,2.557 -5.945,8.219 -3.389,12.647 1.715,2.97 4.827,4.63 8.026,4.63 1.57,0 3.163,-0.4 4.621,-1.242 l 16.392,-9.465 c 4.428,-2.557 5.945,-8.219 3.389,-12.647 -2.557,-4.428 -8.221,-5.944 -12.647,-3.388 z"
             id="path34" />
          <path
             style="fill:#333333"
             d="m 329.759,128.245 c 1.458,0.842 3.05,1.242 4.621,1.242 3.2,0 6.312,-1.66 8.027,-4.63 l 9.465,-16.392 c 2.557,-4.428 1.039,-10.091 -3.389,-12.647 -4.429,-2.557 -10.091,-1.039 -12.647,3.389 l -9.465,16.392 c -2.557,4.427 -1.04,10.089 3.388,12.646 z"
             id="path36" />
          <path
             style="fill:#333333"
             d="m 182.241,383.755 c -4.429,-2.558 -10.091,-1.041 -12.647,3.389 l -9.465,16.392 c -2.557,4.428 -1.039,10.091 3.389,12.647 1.458,0.842 3.05,1.242 4.621,1.242 3.2,0 6.312,-1.66 8.026,-4.63 l 9.465,-16.392 c 2.557,-4.429 1.04,-10.092 -3.389,-12.648 z"
             id="path38" />
        </g>
        <g
           id="g46"
           transform="translate(-377.31082,-314.43879)">
          <path
             style="fill:#ffffff"
             d="m 354.99,405.213 c -2.9,0 -5.754,-1.358 -7.56,-3.902 -2.958,-4.17 -1.976,-9.95 2.195,-12.909 42.947,-30.467 68.588,-79.962 68.588,-132.402 0,-69.502 -44.253,-131.246 -110.118,-153.643 -4.842,-1.646 -7.431,-6.906 -5.785,-11.746 1.646,-4.84 6.907,-7.43 11.746,-5.785 73.374,24.951 122.674,93.74 122.674,171.174 0,58.431 -28.557,113.572 -76.391,147.506 -1.625,1.151 -3.497,1.707 -5.349,1.707 z"
             id="path42" />
          <circle
             style="fill:#ffffff"
             cx="281.51999"
             cy="86.412003"
             r="9.2580004"
             id="circle44" />
        </g>
        <g
           id="g48"
           transform="translate(-377.31082,-314.43879)" />
        <g
           id="g50"
           transform="translate(-377.31082,-314.43879)" />
        <g
           id="g52"
           transform="translate(-377.31082,-314.43879)" />
        <g
           id="g54"
           transform="translate(-377.31082,-314.43879)" />
        <g
           id="g56"
           transform="translate(-377.31082,-314.43879)" />
        <g
           id="g58"
           transform="translate(-377.31082,-314.43879)" />
        <g
           id="g60"
           transform="translate(-377.31082,-314.43879)" />
        <g
           id="g62"
           transform="translate(-377.31082,-314.43879)" />
        <g
           id="g64"
           transform="translate(-377.31082,-314.43879)" />
        <g
           id="g66"
           transform="translate(-377.31082,-314.43879)" />
        <g
           id="g68"
           transform="translate(-377.31082,-314.43879)" />
        <g
           id="g70"
           transform="translate(-377.31082,-314.43879)" />
        <g
           id="g72"
           transform="translate(-377.31082,-314.43879)" />
        <g
           id="g74"
           transform="translate(-377.31082,-314.43879)" />
        <g
           id="g76"
           transform="translate(-377.31082,-314.43879)" />
      </g>
    </g>
  </g>
  <g
     transform="matrix(0.95879878,0,0,0.95879878,-871.34292,-378.35028)"
     id="g893" />
</svg>
