<?xml version="1.0" encoding="UTF-8"?>
<svg width="60" height="40" version="1.1" viewBox="0 0 60 40" xmlns="http://www.w3.org/2000/svg">
 <defs>
  <mask id="sxa" fill="#ffffff">
   <path d="m0 0h313.3v159.86h-313.3z" fill="#fff" fill-rule="evenodd"/>
  </mask>
  <mask id="sxb" x="598.71" y="183.45" width="593.98" height="570.22" maskUnits="userSpaceOnUse">
   <g filter="url(#sxc)">
    <path d="m895.7 183.45c-157.46 0-285.11 127.65-285.11 285.11s127.65 285.11 285.11 285.11 285.11-127.67 285.11-285.11-127.65-285.11-285.11-285.11zm-0.07 545.42c-143.81 0-260.21-116.46-260.24-260.27s116.71-260.6 260.61-260.34 260.14 116.74 260 260.5-116.58 260.15-260.37 260.11z"/>
    <path d="m875.36 590.92c-8.93-1.41-13.67-3.12-23.71-7.61-27.65-12.37-48.78-32.15-62.65-58.81l-1.22 0.27a9.26 9.26 0 0 1-2 0.22 9.37 9.37 0 0 1-7.53-3.83 9.26 9.26 0 0 1-1.37-8.35l2.27-7.19 7.85-25.13a9 9 0 0 1 15.27-3.39l23.26 25.35a9.07 9.07 0 0 1-1.47 13.55 61.2 61.2 0 0 0 14.52 14.56 88.71 88.71 0 0 0 16.26 5.65 181.32 181.32 0 0 0 24.73 4.4v-100.41h-21.52a18.49 18.49 0 0 1-11 3.64 18.23 18.23 0 0 1-13.57-6.08 18.48 18.48 0 0 1-0.11-24.5 18.19 18.19 0 0 1 13.63-6.26 18.53 18.53 0 0 1 11 3.6h21.58v-3.33c-13.35-5.77-21.78-16.34-24.44-30.68-3.84-20.59 9.26-41.09 29.86-46.67a41.23 41.23 0 0 1 10.74-1.44 41.8 41.8 0 0 1 28.72 11.66 39.94 39.94 0 0 1 12.4 29c0 16.35-7.65 29-22.12 36.74v4.68h18.63a18.88 18.88 0 0 1 11-3.6 18.09 18.09 0 0 1 13.56 6.13 18.49 18.49 0 0 1-0.18 24.79 18 18 0 0 1-13.36 5.88 18.81 18.81 0 0 1-11-3.54h-0.6c-5.05 0.3-10.2 0.34-15.19 0.39h-2.94v100.98a147 147 0 0 0 18.3-2.35 81.13 81.13 0 0 0 20-6.37 59.65 59.65 0 0 0 14.84-13.31 9 9 0 0 1-0.82-13.79l24.71-23.65a9.1 9.1 0 0 1 6.34-2.56 9.19 9.19 0 0 1 9 7c2.56 10.49 5.1 20.87 7.67 31.41a10.12 10.12 0 0 1-9.81 12.53 10.2 10.2 0 0 1-2.58-0.33c-12.36 22.51-30.55 39.73-52.75 49.88l-4.09 1.95c-11.35 5.24-17.89 8.25-29.89 9.57l-19.9 19.52zm20-233.29c-6.26 0-11.39 5.17-11.69 11.76a11.56 11.56 0 0 0 3 8.41 11.77 11.77 0 0 0 8.26 3.81h1.08c6.23 0 11.21-5 11.56-11.6s-4.55-11.86-11.41-12.39c-0.16 0.02-0.48 0.01-0.76 0.01z"/>
   </g>
  </mask>
  <filter id="sxc" x="598.71" y="183.45" width="593.98" height="570.22" color-interpolation-filters="sRGB" filterUnits="userSpaceOnUse">
   <feFlood flood-color="#fff" result="bg"/>
   <feBlend in="SourceGraphic" in2="bg"/>
  </filter>
 </defs>
 <mask id="a" fill="#ffffff">
  <path d="m0 0h313.3v159.86h-313.3z" fill="#fff" fill-rule="evenodd"/>
 </mask>
 <mask id="b" fill="#ffffff">
  <path d="m0 0h313.3v159.86h-313.3z" fill="#fff" fill-rule="evenodd"/>
 </mask>
 <g>
  <g transform="matrix(.08667 0 0 .08667 54.838 -43.976)">
   <path d="m56.695 510.77-107.53 84.402-79.398-66.275 61.189 82.843-54.627 74.395 72.837-52.987 102.53 91.046-81.039-107.53z" fill="#000e44" fill-rule="evenodd"/>
  </g>
  <ellipse cx="16.627" cy="16.633" rx="16.434" ry="16.434" fill="#ed8c8c" stop-color="#000000"/>
  <g transform="translate(40)">
   <g transform="translate(0,40)">
    <g id="sxd" transform="matrix(.04021 0 0 .04021 -59.268 -41.787)" data-name="Background wavy outline">
     <path d="m1263.2 468.56c0 38.68-23.69 73.14-35 108-11.74 36.17-13.24 77.89-35.15 108-22.13 30.41-61.49 44.63-91.9 66.76-30.11 21.91-55.68 55.08-91.84 66.83-34.9 11.33-74.93-0.11-113.6-0.11s-78.7 11.44-113.59 0.11c-36.17-11.75-61.74-44.92-91.85-66.83-30.41-22.13-69.77-36.35-91.9-66.76-21.91-30.1-23.41-71.82-35.15-108-11.33-34.9-35-69.36-35-108s23.69-73.14 35-108c11.74-36.17 13.24-77.89 35.15-108 22.13-30.4 61.49-44.63 91.9-66.75 30.11-21.91 55.68-55.09 91.85-66.83 34.89-11.33 74.92 0.1 113.59 0.1s78.7-11.43 113.59-0.1c36.17 11.74 61.74 44.92 91.85 66.83 30.41 22.12 69.77 36.35 91.9 66.75 21.91 30.11 23.41 71.83 35.15 108 11.31 34.86 35 69.33 35 108z" fill="#ba1d1d"/>
    </g>
    <g id="sxe" transform="matrix(.04021 0 0 .04021 -59.268 -41.787)">
     <g fill="none" mask="url(#sxb)" stroke="#fff" stroke-miterlimit="10">
      <path d="m598.71 427.68c42.43 0 42.43 20 84.85 20s42.43-20 84.86-20 42.42 20 84.85 20 42.42-20 84.85-20 42.43 20 84.85 20 42.43-20 84.86-20 42.43 20 84.86 20" stroke-width="3"/>
      <path d="m598.71 467.68c42.43 0 42.43 20 84.85 20s42.43-20 84.86-20 42.42 20 84.85 20 42.42-20 84.85-20 42.43 20 84.85 20 42.43-20 84.86-20 42.43 20 84.86 20" stroke-width="5"/>
      <path d="m598.71 515.68c42.43 0 42.43 20 84.85 20s42.43-20 84.86-20 42.42 20 84.85 20 42.42-20 84.85-20 42.43 20 84.85 20 42.43-20 84.86-20 42.43 20 84.86 20" stroke-width="7"/>
     </g>
    </g>
    <g id="sxf" transform="matrix(.04021 0 0 .04021 -59.268 -41.787)">
     <g mask="url(#mask-2)">
      <g id="sxg" data-name="Text and detail">
       <path id="sxh" class="cls-7" d="m895.7 156.4c-172.4 0-312.16 139.76-312.16 312.16s139.76 312.16 312.16 312.16 312.16-139.72 312.16-312.16-139.76-312.16-312.16-312.16zm-0.08 597.16c-157.44 0-284.89-127.51-284.92-284.95 0-157.61 127.78-285.3 285.33-285s284.81 127.8 284.67 285.22-127.64 284.78-285.08 284.73z" fill="#fff"/>
       <g id="sxi" fill="#fff">
        <path class="cls-7" d="m751.7 610c-1-3.45-5.75-6.88-9.44-6.42-5.24 0.67-10.46 1.54-16.76 2.48 2.32-6.15 4.28-11.4 6.28-16.65 1.73-4.56-2-6.77-4.34-9.21s-4.17 0.64-5.76 1.9c-8.47 6.71-16.68 13.75-25.23 20.35-4.06 3.13-1 4.95 0.64 7.2s3.31 4.78 6.66 1.83c3.86-3.39 7.94-6.54 12-9.83 0.15 0.38 0.29 0.56 0.25 0.68-0.8 2.32-1.67 4.62-2.45 6.95-1.63 4.92 1.52 8.51 6.69 7.7 2.15-0.34 4.34-1 6.9 0.1-4.16 3.41-7.77 6.61-11.63 9.46-3.17 2.34-1.65 4.25 0.26 6s2.71 6.31 6.8 3q13.79-11.12 27.49-22.31c0.94-0.77 2.15-1.49 1.64-3.23z"/>
        <path class="cls-7" d="m918.85 273.61c6.54 2.7 9.13 1.46 10.48-5.3 0.3-1.47 0.57-2.93 0.93-4.38 0.29-1.18 0-3.17 1.81-2.92s4.13-0.12 4.79 2.58 1.48 5.09 2.22 7.63c2.08 7 3.51 8.09 10.64 8.46 2.68 0.14 3.28-0.77 2.57-3.16-1.12-3.81-2.09-7.67-3.28-11.46-0.55-1.73-1-2.75 1.37-3.74 5.78-2.44 7.34-7.68 7.75-13.07 0-6.66-4-11.53-11.48-13.53-6.08-1.62-12.32-2.63-18.48-4-2.3-0.5-3.45 0.43-3.88 2.63-2.36 12-4.76 24.08-7.09 36.14-0.31 1.63-0.54 3.22 1.65 4.12zm17.54-31c5.05-0.51 9.92 2.41 9.87 5.4s-1.8 4.44-5.19 4.53c-2.09-1.76-6.94 1.1-7.65-3.37-0.3-1.89-1-6.11 2.97-6.52z"/>
        <path class="cls-7" d="m853 664.82c-2.84-0.93-5.74-2.1-6.74 2.62-1.09 5.19-2.75 10.25-4.47 16.5-2.63-7.82-5.07-14.52-7.1-21.34-1.33-4.46-5.15-4.42-8.37-5-3.55-0.58-2.91 3-3.47 5-3 10.36-5.58 20.86-8.8 31.16-1.58 5.08 2.17 4.62 4.67 5.49 2.66 0.91 5.47 2 6.48-2.4 1.21-5.27 2.82-10.45 4.45-16.34 0.67 1.54 1.13 2.42 1.44 3.34 2 6 4.09 11.93 6 17.94 1.37 4.44 5.37 4.17 8.56 4.61s2.53-3 3.06-4.81c3-10.38 5.53-20.89 8.8-31.17 1.49-4.98-1.96-4.76-4.51-5.6z"/>
        <path class="cls-7" d="m1093.9 601.57c-3.28-0.47-6.51-1.44-9.8-1.75-2.71-0.25-3.39-1.19-3.48-4-0.22-7-6.55-12.74-13.44-12.82-4.73-0.13-8.35 2.24-11.25 5.56-3.61 4.13-6.71 8.7-10.33 12.82-2.46 2.81-2.15 4.55 0.78 6.76 8.76 6.62 17.45 13.35 25.94 20.3 3 2.4 4.51 2.15 6.72-0.86 4-5.45 4.16-5.32-1.23-9.5-1.18-0.92-2.42-1.78-3.5-2.81-0.83-0.79-2.89-1.11-1.73-2.91 0.94-1.45 1.75-3.35 4.16-2.86s5 0.56 7.33 1.41c5.37 2 8.71-0.09 11.63-4.54 1.93-2.89 2.03-4.26-1.8-4.8zm-30 5.43c-0.75 0.06-6.13-4.56-6.08-5.23 0.13-1.76 6.28-7.65 8-7.65 2.31 0.46 4 1.61 4.19 4.15 0.11 1.55-4.97 8.63-6.11 8.73z"/>
        <path class="cls-7" d="m845.26 274.6c0.35 2 1 3.6 3.49 3.21 9-1.56 18.06-2.91 27-4.77 4.72-1 1.47-4.56 1.52-7 0.05-2.61-1.37-3.4-3.93-2.9-4.89 0.95-9.85 1.6-14.74 2.57-2.54 0.5-3.21-0.66-3.45-2.83-0.21-1.93-0.49-3.43 2.3-3.74 4.13-0.44 8.17-1.61 12.3-2.05 4.47-0.48 3.65-3.29 3.17-6.13s-1.08-5.17-5-4.09c-3.67 1-7.56 1.16-11.26 2.09-2.6 0.66-3.87 0.5-4.41-2.54-0.59-3.28 1.23-3.55 3.55-3.9 4.11-0.61 8.2-1.4 12.31-2 2.63-0.4 4.65-1.13 3.59-4.44-0.85-2.66 0.36-6.86-5.13-5.72-7.81 1.63-15.68 3-23.58 4-3.78 0.48-4.3 2.17-3.74 5.31 2.03 11.67 4.02 23.33 6.01 34.93z"/>
        <path class="cls-7" d="m978.68 669.54a88.5 88.5 0 0 1-8.92 3.07c-2.51 0.8-4.32 1.82-2.82 5 1.19 2.46 0.87 6.55 5.62 4.65 0.87-0.35 1.8-1.17 2.65-0.11s0.29 2.32-0.13 3.32c-1.22 2.87-3.78 4.1-6.65 4.6s-5.24-0.87-6.67-3.37a32.79 32.79 0 0 1-4-11.2c-0.93-5.83 4.62-10.93 9.91-8.38 4.36 2.1 7.64 0.42 11.34-0.66 2.53-0.74 2.54-2.25 1.08-4.09-3.38-4.26-8-5.61-13.24-5.83a22.68 22.68 0 0 0-15 5.6c-5 4.48-7 10.16-5 16.65 2.53 8.49 4 18 14.56 20.8 8.1 2.13 15.24-0.38 21-6.12 6.23-6.24 4.72-13.51 2-20.92-1.19-3.16-2.35-4.5-5.73-3.01z"/>
        <path class="cls-7" d="m1040.7 650.65c-3.66 2.86-7.64 5.31-11.31 8.17-2 1.56-3 1.07-4.29-0.81s-1.69-3 0.46-4.41c3.33-2.19 6.52-4.59 9.76-6.91 1.06-0.76 2.34-1.38 2.22-3.22a13.54 13.54 0 0 0-4.19-5.8c-1.86-1.31-3.3 0.69-4.75 1.69-3 2.08-6.14 4-8.94 6.34-2.33 1.94-3 0.17-4.15-1.21-1.38-1.61-1.4-2.61 0.53-3.87 3.75-2.45 7.22-5.33 11-7.71 3.1-1.94 2.44-3.82 0.62-6.06-1.61-2-2.59-5-6.15-2.3-6.52 4.86-13.22 9.49-19.89 14.17-2.1 1.47-2.19 2.93-0.72 5 6.9 9.57 13.71 19.2 20.54 28.83 1.24 1.74 2.45 2.43 4.5 0.94q10.26-7.5 20.69-14.75c3.27-2.27 1.29-4.16-0.11-6.21s-2.73-4.31-5.82-1.88z"/>
        <path class="cls-7" d="m782.4 634.42c-1.4-1-2.88-0.53-4.14 0.45q-15.18 11.8-30.33 23.64c-1.33 1-2.32 2.47-0.4 3.54 3.54 2 6.78 7 11.49 1.72a1.59 1.59 0 0 1 2.18-0.47c3.76 2.46 7.55 4.87 11.3 7.33 1 0.68 0.67 1.74 0.55 2.72-0.53 4.29 2.44 9.12 6.71 9.35 4.46 0.23 2.36-4.48 3.76-6.69a3 3 0 0 0 0.34-0.94c2.6-10.65 5.2-21.31 8-32.85-1.12-4.32-6.07-5.22-9.46-7.8zm-6.4 26.72c-7.81-4.59-7.81-4.59-1.47-9.65 1.28-1 2.6-2 4.48-3.44a56.33 56.33 0 0 1-3.01 13.09z"/>
        <path class="cls-7" d="m769.49 297.35c5 6.94 12.68 9 20.82 6 8.46-3.06 15-11.32 14.66-18.87a20.55 20.55 0 0 0-1.24-5.29 2.11 2.11 0 0 0-2.13-1.73c-2.9 0-8.23 5.19-8.27 8.3-0.05 4.19-2.73 6.29-6.08 7.63-3.17 1.26-6 0-7.87-2.63a73.14 73.14 0 0 1-5.94-9.75c-1.4-2.87-1.14-6 1.47-8.23s5.84-3.74 9.55-1.71c2.6 1.43 9.61-1 11.1-3.53 1-1.62-0.28-2.53-1.09-3.43a13.88 13.88 0 0 0-10.8-4.68c-13.38 0.05-23.81 10.35-22.4 21.61 0.8 6.34 4.73 11.34 8.22 16.31z"/>
        <path class="cls-7" d="m911.56 677.13c-3.39-8.82-5.72-10-14.79-8a3.88 3.88 0 0 0-3.27 2.63q-5.7 18.24-11.36 36.54c-0.33 1.07-0.81 2.33 0.47 3.17 2.73 1.8 9.9-0.72 11.13-3.89 0.51-1.32 0.52-2.93 2.71-2.89 4 0.08 8 0 12-0.19 1.42-0.06 2.3 0.48 2.55 1.76 0.77 4 3.17 5.18 6.48 4.32 6.77-0.17 6.8-0.19 4.58-6q-5.24-13.76-10.5-27.45zm-10.56 18.07c-3 0-3.44-0.84-2.54-3.39 1.09-3.12 2-6.3 3.27-10.36 1.33 3.4 2.31 5.85 3.24 8.31 2.08 5.57 2.03 5.38-3.97 5.44z"/>
        <path class="cls-7" d="m999.44 302.68c2.34 1.28 4.57 4.69 7.27 0.18 3.57-6 7.44-11.79 11.16-17.68 4.48-7.08 4.6-7.29 11.8-2.76 3.83 2.42 4.84-0.19 6.45-2.52 1.72-2.5 2.4-4.41-1-6.41q-12-7.15-23.55-14.92c-3.27-2.18-4.89-1.6-7 1.64-2.34 3.57-1.86 5.47 1.76 7.39 2.1 1.11 4.45 2.13 5.9 4.21-0.74 1.19-1.34 2.19-2 3.17-4.53 7.16-8.93 14.4-13.62 21.45-2.52 3.88 0.39 4.91 2.83 6.25z"/>
       </g>
       <g id="sxj" data-name="New Anchor">
        <path class="cls-7" d="m1008.9 520.42c-2.57-10.54-5.11-20.92-7.68-31.42a3.2 3.2 0 0 0-5.33-1.56l-24.72 23.66a3.06 3.06 0 0 0 1.26 5.14c0.92 0.26 1.82 0.51 2.74 0.7 2 0.43 1.8 1.1 0.87 2.51a65.59 65.59 0 0 1-20 19.58l-0.2 0.12a86.78 86.78 0 0 1-21.7 7 159.35 159.35 0 0 1-23.53 2.72 1.84 1.84 0 0 1-1.9-1.87v-110.38a1.08 1.08 0 0 1 1.08-1.08c1 0 2.22 0.2 5.15 0.17 5.76-0.06 11.76-0.06 17.54-0.4 1.88-0.11 2.93-0.05 4.13 0.85a12.35 12.35 0 0 0 16.71-1.29 12.52 12.52 0 0 0 0.11-16.76 12.3 12.3 0 0 0-16.66-1.58 4.07 4.07 0 0 1-2.53 1.08q-12.08-0.06-24.14 0a1.9 1.9 0 0 1-1.39-0.37v-12.62a1.8 1.8 0 0 1 0.42-1.18 6.42 6.42 0 0 1 2-1.41c13-6.6 19.74-17.44 19.75-31.87 0-22.83-22.27-39.44-44.29-33.46-17.46 4.74-28.8 22.08-25.51 39.77 2.42 13 10.07 22.1 22.51 26.92a6.59 6.59 0 0 1 1.33 0.66 1.8 1.8 0 0 1 0.71 1.47v10.32a1.78 1.78 0 0 1-1.8 1.78c-8.65-0.1-17.31-0.06-26 0a5.53 5.53 0 0 1-3.31-1.12 12.24 12.24 0 0 0-16.62 1.7 12.37 12.37 0 0 0 16.73 18.07 5.08 5.08 0 0 1 3.3-1.08c8.39 0 16.79 0.12 25.18 0a3.19 3.19 0 0 1 2.17 0.46 1 1 0 0 1 0.31 0.76v109.81a1.85 1.85 0 0 1-2 1.84 192.44 192.44 0 0 1-30.22-5 92.79 92.79 0 0 1-17.68-6.21 1.56 1.56 0 0 1-0.28-0.16 66.87 66.87 0 0 1-19.54-21.38 1.38 1.38 0 0 1 1-2.16l2.65-0.54a3.08 3.08 0 0 0 1.6-5.08l-23.26-25.35a3 3 0 0 0-5.13 1.14c-3.44 10.89-6.79 21.53-10.19 32.32a3.35 3.35 0 0 0 3.94 4.28l1.8-0.41a5.12 5.12 0 0 1 5.69 2.64c13.38 26 33.5 44.81 60.12 56.7 10.4 4.65 14.52 6 23.5 7.37a1.78 1.78 0 0 1 1 0.51l13.67 13.55a4.91 4.91 0 0 0 6.85 0l13.28-13a1.88 1.88 0 0 1 1.12-0.52c13.3-1.25 19.23-4.54 33.54-11.09 22.15-10.13 39.74-27.76 51.06-49.32 1-1.92 1.88-2.15 3.58-1.58 0.65 0.22 1.31 0.43 2 0.63a4.12 4.12 0 0 0 5.21-4.98zm-114.1-131.83a17.72 17.72 0 0 1-17.08-18.49c0.48-10.46 9.18-18.18 19-17.43 10.34 0.8 17.46 9.11 16.94 18.69-0.56 10.42-9.1 17.96-18.86 17.23z" fill="#fff"/>
       </g>
      </g>
     </g>
    </g>
   </g>
  </g>
  <g transform="matrix(.15069 0 0 .15069 -6.1977 -20.881)" fill="none" fill-rule="evenodd">
   <g transform="matrix(.92863 0 0 -.92863 9.2718 454.16)">
    <g transform="matrix(.94489 0 0 .94489 8.6963 2.7018)" fill="#6f0f0c" mask="url(#sxa)">
     <path transform="rotate(35 137.93 151.55)" d="m203.46 95.688c6.9363 0 12.559-14.809 12.559-33.077 0-18.268-5.623-33.077-12.559-33.077s-12.559 14.809-12.559 33.077c0 18.268 5.623 33.077 12.559 33.077z"/>
     <path transform="matrix(-.81915 .57358 .57358 .81915 58.085 47.705)" d="m30.142 95.688c6.9363 0 12.559-14.809 12.559-33.077 0-18.268-5.623-33.077-12.559-33.077-6.9363 0-12.559 14.809-12.559 33.077 0 18.268 5.623 33.077 12.559 33.077z"/>
     <path transform="matrix(-1 0 0 1 272.63 53.671)" d="m116.73 66.275c6.9363 0 12.559-14.809 12.559-33.077 0-18.268-5.623-33.077-12.559-33.077-6.9363 0-12.559 14.809-12.559 33.077 0 18.268 5.623 33.077 12.559 33.077z"/>
    </g>
    <path transform="matrix(.94489 0 0 .94489 8.6963 2.7018)" d="m251.47 173.1c-20.23-33.61-56.89-56.068-98.756-56.068-40.721 0-76.516 21.246-97.059 53.335" mask="url(#sxa)" stroke="#6f0c0c" stroke-width="20"/>
   </g>
  </g>
 </g>
</svg>
