<?xml version="1.0" encoding="UTF-8"?>
<svg width="40" height="40" version="1.1" viewBox="0 0 40 40" xmlns="http://www.w3.org/2000/svg" xmlns:cc="http://creativecommons.org/ns#" xmlns:dc="http://purl.org/dc/elements/1.1/" xmlns:rdf="http://www.w3.org/1999/02/22-rdf-syntax-ns#"><metadata><rdf:RDF><cc:Work rdf:about=""><dc:format>image/svg+xml</dc:format><dc:type rdf:resource="http://purl.org/dc/dcmitype/StillImage"/><dc:title/></cc:Work></rdf:RDF></metadata><defs><mask id="c" fill="#ffffff"><path d="m0 0h313.3v159.86h-313.3z" fill="#fff" fill-rule="evenodd"/></mask></defs><mask id="a" fill="#ffffff"><path d="m0 0h313.3v159.86h-313.3z" fill="#fff" fill-rule="evenodd"/></mask><mask id="b" fill="#ffffff"><path d="m0 0h313.3v159.86h-313.3z" fill="#fff" fill-rule="evenodd"/></mask><g transform="translate(.39981 .26576)"><g transform="matrix(.49527 0 0 .49527 5.0758 3.2126)"><g transform="matrix(1.7758,0,0,1.7758,-164.24,-70.425)"><g transform="translate(96.564,87.836)" fill="#66ff9a" stroke-width="3.24"><polygon class="st0" transform="matrix(.72255 0 0 .7031 -28.717 -125.97)" points="78.4 144.9 55.7 158 32.9 144.9 32.9 118.6 55.7 105.5 78.4 118.6" fill="#ababf7"/></g><g transform="matrix(.15831 0 0 .15831 83.649 18.463)" fill="#005e20" fill-rule="evenodd"><g transform="matrix(1.0777,0,0,-1.0777,-10.799,451.79)"><g transform="matrix(.94489 0 0 .94489 8.6963 2.7018)" fill="#0f0c6f" mask="url(#c)"><path transform="rotate(35,137.93,151.55)" d="m203.46 95.688c6.9363 0 12.559-14.809 12.559-33.077s-5.623-33.077-12.559-33.077-12.559 14.809-12.559 33.077 5.623 33.077 12.559 33.077z"/><path transform="matrix(-.81915 .57358 .57358 .81915 58.085 47.705)" d="m30.142 95.688c6.9363 0 12.559-14.809 12.559-33.077s-5.623-33.077-12.559-33.077c-6.9363 0-12.559 14.809-12.559 33.077s5.623 33.077 12.559 33.077z"/><path d="m153.24 119.95c-6.9363 0-12.559-14.809-12.559-33.077s5.623-33.077 12.559-33.077c6.9363 0 12.559 14.809 12.559 33.077s-5.623 33.077-12.559 33.077z"/></g><path transform="matrix(.94489 0 0 .94489 8.6963 2.7018)" d="m251.47 173.1c-20.23-33.61-56.89-56.068-98.756-56.068-40.721 0-76.516 21.246-97.059 53.335" fill="none" mask="url(#c)" stroke="#0f0c6f" stroke-width="19.999"/></g></g></g></g></g><g transform="translate(54.989 .7158)"><path class="b1a4fc53-aae5-4eb9-9b7b-a01bc1a54fac" d="m-35.834 4.3093 8.942 5.1626v10.325l-8.942 5.1626-8.9419-5.1626v-10.325l8.942-5.1626m0-1.2126-9.4671 5.4658-0.52508 0.30312v11.538l0.52508 0.30313 9.4671 5.4658 9.4671-5.4658 0.52508-0.30313v-11.538l-0.52508-0.30312-8.942-5.1626z" fill="#0f0c6f" stroke-width=".052507"/><polygon class="b1a4fc53-aae5-4eb9-9b7b-a01bc1a54fac" transform="matrix(.052507 0 0 .052507 -55.269 -4.2984)" points="226.77 295.22 354.17 368.78 354.17 513.24 226.77 439.69" fill="#15119c"/><polygon class="a7859bd4-b053-4c5f-990d-c4f71d480e38" transform="matrix(.052507 0 0 .052507 -55.269 -4.2984)" points="513.42 295.22 386.02 368.78 386.02 513.24 513.42 439.69" fill="#1b16cc"/><polygon class="b1a4fc53-aae5-4eb9-9b7b-a01bc1a54fac" transform="matrix(.052507 0 0 .052507 -55.269 -4.2984)" points="497.49 267.97 370.09 341.53 242.69 267.97 370.09 194.42" fill="#0f0c6f"/></g></svg>
