<?xml version="1.0" encoding="UTF-8"?>
<svg width="40" height="40" version="1.1" viewBox="0 0 40 40" xmlns="http://www.w3.org/2000/svg" xmlns:cc="http://creativecommons.org/ns#" xmlns:dc="http://purl.org/dc/elements/1.1/" xmlns:rdf="http://www.w3.org/1999/02/22-rdf-syntax-ns#"><metadata><rdf:RDF><cc:Work rdf:about=""><dc:format>image/svg+xml</dc:format><dc:type rdf:resource="http://purl.org/dc/dcmitype/StillImage"/><dc:title/></cc:Work></rdf:RDF></metadata><defs><mask id="c" fill="#ffffff"><path d="m0 0h313.3v159.86h-313.3z" fill="#fff" fill-rule="evenodd"/></mask></defs><mask id="a" fill="#ffffff"><path d="m0 0h313.3v159.86h-313.3z" fill="#fff" fill-rule="evenodd"/></mask><mask id="b" fill="#ffffff"><path d="m0 0h313.3v159.86h-313.3z" fill="#fff" fill-rule="evenodd"/></mask><g><g transform="matrix(.99998 0 0 .99998 -42.265 .1859)"><g transform="matrix(.49527 0 0 .49527 5.0758 3.2126)"><g transform="matrix(1.7758,0,0,1.7758,-164.24,-70.425)"><g transform="translate(145.07,88.093)" fill="#eaed8c" stroke-width="3.24"><polygon class="st0" transform="matrix(.72255 0 0 .7031 -28.717 -125.97)" points="55.7 105.5 78.4 118.6 78.4 144.9 55.7 158 32.9 144.9 32.9 118.6" fill="#eaed8c"/></g><g transform="matrix(.15831 0 0 .15831 132.16 18.72)" fill="#005e20" fill-rule="evenodd"><g transform="matrix(1.0777,0,0,-1.0777,-10.799,451.79)"><g transform="matrix(.94489 0 0 .94489 8.6963 2.7018)" fill="#6f6f0c" mask="url(#c)"><path transform="rotate(35,137.93,151.55)" d="m203.46 95.688c6.9363 0 12.559-14.809 12.559-33.077s-5.623-33.077-12.559-33.077-12.559 14.809-12.559 33.077 5.623 33.077 12.559 33.077z"/><path transform="matrix(-.81915 .57358 .57358 .81915 58.085 47.705)" d="m30.142 95.688c6.9363 0 12.559-14.809 12.559-33.077s-5.623-33.077-12.559-33.077c-6.9363 0-12.559 14.809-12.559 33.077s5.623 33.077 12.559 33.077z"/><path d="m153.24 119.95c-6.9363 0-12.559-14.809-12.559-33.077s5.623-33.077 12.559-33.077c6.9363 0 12.559 14.809 12.559 33.077s-5.623 33.077-12.559 33.077z"/></g><path transform="matrix(.94489 0 0 .94489 8.6963 2.7018)" d="m251.47 173.1c-20.23-33.61-56.89-56.068-98.756-56.068-40.721 0-76.516 21.246-97.059 53.335" fill="none" mask="url(#c)" stroke="#6f6f0c" stroke-width="19.999"/></g></g></g></g></g><g><g stroke-width=".049561"><path d="m12.059 6.2695h12.737v15.265h-12.737z" fill="#eaed8c"/><path d="m23.783 5.6872h-3.3105c0.01497-0.097139 0.02245-0.19805 0.02245-0.2989 0-1.1546-0.93784-2.0924-2.0924-2.0924-1.1546 0-2.0924 0.93784-2.0924 2.0924 0 0.10086 0.0075 0.20171 0.02245 0.2989h-3.3105c-0.99008 0-1.7935 0.80333-1.7935 1.7935v13.152c0 0.99008 0.80333 1.7935 1.7935 1.7935h10.761c0.99018 0 1.7935-0.80333 1.7935-1.7935v-13.152c0-0.99013-0.80333-1.7935-1.7935-1.7935zm-5.3805-1.1957a0.89457 0.89457 0 0 1 0.89676 0.89676 0.89457 0.89457 0 0 1-0.89676 0.89671 0.89457 0.89457 0 0 1-0.89676-0.89671 0.89457 0.89457 0 0 1 0.89676-0.89676zm5.9783 16.141c0 0.32879-0.26902 0.5978-0.59785 0.5978h-10.761c-0.32879 0-0.5978-0.26902-0.5978-0.5978v-13.152c0-0.32879 0.26902-0.5978 0.5978-0.5978h1.7935v0.74728c0 0.24662 0.20176 0.44838 0.44838 0.44838h6.2772c0.24662 0 0.44838-0.20176 0.44838-0.44838v-0.74728h1.7935c0.32879 0 0.5978 0.26902 0.5978 0.5978v13.152zm-1.5581-9.7687h-4.7269c-0.18566 0-0.33761 0.12266-0.33761 0.27259v0.54517c0 0.14992 0.15195 0.27258 0.33766 0.27258h4.7269c0.18566 0 0.33761-0.12266 0.33761-0.27258v-0.54517c0-0.14992-0.15195-0.27259-0.33766-0.27259zm0 3.4381h-4.7269c-0.18566 0-0.33761 0.12266-0.33761 0.27259v0.54517c0 0.14992 0.15195 0.27258 0.33766 0.27258h4.7269c0.18566 0 0.33761-0.12266 0.33761-0.27258v-0.54517c0-0.14992-0.15195-0.27259-0.33766-0.27259zm0 3.4197h-4.7269c-0.18566 0-0.33761 0.12266-0.33761 0.27258v0.54517c0 0.14992 0.15195 0.27258 0.33766 0.27258h4.7269c0.18566 0 0.33761-0.12266 0.33761-0.27258v-0.54517c0-0.14992-0.15195-0.27258-0.33766-0.27258zm-5.558-7.7382a0.16226 0.16226 0 0 0 0-0.22932l-0.37964-0.38325a0.16167 0.16167 0 0 0-0.22897 0l-1.4342 1.4243-0.6207-0.63066a0.16167 0.16167 0 0 0-0.22897 0l-0.38266 0.38023a0.16226 0.16226 0 0 0 0 0.22932l1.1178 1.1285c0.05725 0.06344 0.15968 0.06344 0.22298 0zm0 3.4381a0.16226 0.16226 0 0 0 0-0.22932l-0.37964-0.3832a0.16167 0.16167 0 0 0-0.22897 0l-1.4342 1.4242-0.6207-0.63061a0.16167 0.16167 0 0 0-0.22897 0l-0.38266 0.38018a0.16226 0.16226 0 0 0 0 0.22932l1.1178 1.1286c0.05725 0.06339 0.15968 0.06339 0.22298 0zm0 3.4197a0.16226 0.16226 0 0 0 0-0.22932l-0.37964-0.3832a0.16167 0.16167 0 0 0-0.22897 0l-1.4342 1.4242-0.6207-0.63061a0.16167 0.16167 0 0 0-0.22897 0l-0.38266 0.38018a0.16226 0.16226 0 0 0 0 0.22932l1.1178 1.1286c0.05725 0.06339 0.15968 0.06339 0.22298 0z" fill="#6f6f0c" stroke="#eaed8c"/><path d="m27.375 22.194a0.16226 0.16226 0 0 0 0-0.22932l-0.37964-0.38321a0.16167 0.16167 0 0 0-0.22897 0l-1.4342 1.4242-0.6207-0.63061a0.16167 0.16167 0 0 0-0.22897 0l-0.38266 0.38018a0.16226 0.16226 0 0 0 0 0.22932l1.1178 1.1286c0.05725 0.06339 0.15968 0.06339 0.22297 0z" fill="#eaed8c"/></g><path d="m27.936 20.463c-0.07579-0.13983-0.06522-0.31023 0.02703-0.43949l0.6219-0.87044-0.67744-0.67744-0.87044 0.6219c-0.12926 0.09225-0.29994 0.10312-0.43949 0.02703-0.2077-0.11252-0.42186-0.20212-0.6363-0.26557-0.15247-0.04494-0.26557-0.17333-0.29171-0.32991l-0.17539-1.0532h-0.95768l-0.17626 1.0529c-0.02645 0.15688-0.13925 0.28437-0.29172 0.32991-0.21475 0.06375-0.42862 0.15306-0.6363 0.26557-0.13983 0.07579-0.31023 0.06522-0.43949-0.02703l-0.87074-0.62165-0.67744 0.67744 0.6219 0.87044c0.09226 0.12926 0.10312 0.29994 0.02703 0.43949-0.11252 0.2077-0.20212 0.42186-0.26557 0.6363-0.04524 0.15218-0.17333 0.26557-0.32991 0.29172l-1.0532 0.17538v0.95768l1.0532 0.17538c0.15658 0.02615 0.28496 0.13925 0.32991 0.29172 0.06375 0.21475 0.15305 0.42862 0.26557 0.6363 0.07579 0.13983 0.06522 0.31023-0.02703 0.43949l-0.6219 0.87164 0.67744 0.67744 0.87044-0.6219c0.12926-0.09225 0.29994-0.10312 0.43948-0.02704 0.2077 0.11252 0.42186 0.20212 0.6363 0.26557 0.15248 0.04494 0.26557 0.17333 0.29172 0.32991l0.17538 1.0532h0.95768l0.17538-1.0532c0.02615-0.15658 0.13925-0.28496 0.29172-0.32991 0.21475-0.06375 0.42862-0.15306 0.6363-0.26557 0.13983-0.07579 0.31023-0.06522 0.43949 0.02703l0.87164 0.6219 0.67744-0.67744-0.6219-0.87044c-0.09226-0.12926-0.10312-0.29994-0.02703-0.43949 0.11252-0.2077 0.20212-0.42186 0.26557-0.6363 0.04524-0.15277 0.17333-0.26557 0.32991-0.29172l1.0532-0.17538-1e-6 -0.95768-1.0529-0.17626c-0.15658-0.02615-0.28496-0.13925-0.32991-0.29172-0.06374-0.21475-0.15306-0.42862-0.26587-0.6366zm-1.1587 3.3455c-0.97208 0.97208-2.5532 0.97208-3.5253 0-0.97208-0.97208-0.97208-2.5532 0-3.5253 0.97208-0.97208 2.5532-0.97208 3.5253 0 0.97208 0.97208 0.97208 2.5532 0 3.5253z" fill="#6f6f0c" stroke-width=".41546"/><circle transform="rotate(-45)" cx="2.099" cy="33.277" r="1.1953" fill="#6f6f0c" stroke-width=".29883"/></g></g></svg>
