<?xml version="1.0" encoding="UTF-8"?>
<svg width="40" height="40" version="1.1" viewBox="0 0 40 40" xmlns="http://www.w3.org/2000/svg" xmlns:cc="http://creativecommons.org/ns#" xmlns:dc="http://purl.org/dc/elements/1.1/" xmlns:rdf="http://www.w3.org/1999/02/22-rdf-syntax-ns#"><metadata><rdf:RDF><cc:Work rdf:about=""><dc:format>image/svg+xml</dc:format><dc:type rdf:resource="http://purl.org/dc/dcmitype/StillImage"/><dc:title/></cc:Work></rdf:RDF></metadata><defs><mask id="c" fill="#ffffff"><path d="m0 0h313.3v159.86h-313.3z" fill="#fff" fill-rule="evenodd"/></mask></defs><mask id="a" fill="#ffffff"><path d="m0 0h313.3v159.86h-313.3z" fill="#fff" fill-rule="evenodd"/></mask><mask id="b" fill="#ffffff"><path d="m0 0h313.3v159.86h-313.3z" fill="#fff" fill-rule="evenodd"/></mask><g transform="translate(.39981 .54953)"><g transform="matrix(.49527 0 0 .49527 5.0758 3.2126)"><g transform="matrix(1.7758,0,0,1.7758,-164.24,-70.425)"><g transform="translate(96.564,87.836)" fill="#66ff9a" stroke-width="3.24"><polygon class="st0" transform="matrix(.72255 0 0 .7031 -28.717 -125.97)" points="55.7 105.5 78.4 118.6 78.4 144.9 55.7 158 32.9 144.9 32.9 118.6" fill="#ababf7"/></g><g transform="matrix(.15831 0 0 .15831 83.649 18.463)" fill="#005e20" fill-rule="evenodd"><g transform="matrix(1.0777,0,0,-1.0777,-10.799,451.79)"><g transform="matrix(.94489 0 0 .94489 8.6963 2.7018)" fill="#0f0c6f" mask="url(#c)"><path transform="rotate(35,137.93,151.55)" d="m203.46 95.688c6.9363 0 12.559-14.809 12.559-33.077s-5.623-33.077-12.559-33.077-12.559 14.809-12.559 33.077 5.623 33.077 12.559 33.077z"/><path transform="matrix(-.81915 .57358 .57358 .81915 58.085 47.705)" d="m30.142 95.688c6.9363 0 12.559-14.809 12.559-33.077s-5.623-33.077-12.559-33.077c-6.9363 0-12.559 14.809-12.559 33.077s5.623 33.077 12.559 33.077z"/><path d="m153.24 119.95c-6.9363 0-12.559-14.809-12.559-33.077s5.623-33.077 12.559-33.077c6.9363 0 12.559 14.809 12.559 33.077s-5.623 33.077-12.559 33.077z"/></g><path transform="matrix(.94489 0 0 .94489 8.6963 2.7018)" d="m251.47 173.1c-20.23-33.61-56.89-56.068-98.756-56.068-40.721 0-76.516 21.246-97.059 53.335" fill="none" mask="url(#c)" stroke="#0f0c6f" stroke-width="19.999"/></g></g></g></g></g><path d="m27.048 16.635c-0.96575 0-1.8316 0.42788-2.4246 1.1016l-1.5193-1.0756c0.16129-0.44405 0.25389-0.92086 0.25389-1.4199 0-0.49042-0.0894-0.95925-0.24536-1.3967l1.516-1.0642c0.59286 0.67027 1.4565 1.0958 2.4195 1.0958 1.7826 0 3.2331-1.4503 3.2331-3.2331 0-1.7829-1.4504-3.2331-3.2331-3.2331-1.7826 0-3.2331 1.4503-3.2331 3.2331 0 0.31911 0.04822 0.62682 0.13473 0.91824l-1.5169 1.0648c-0.63368-0.78613-1.5461-1.335-2.5856-1.5026v-1.8283c1.4645-0.30759 2.5679-1.6088 2.5679-3.1636 0-1.7829-1.4504-3.2331-3.2331-3.2331s-3.2331 1.4503-3.2331 3.2331c0 1.534 1.0749 2.8191 2.51 3.1486v1.852c-1.9587 0.3438-3.453 2.0532-3.453 4.1089 0 2.0658 1.5092 3.7814 3.4819 4.1135v1.9556c-1.4499 0.31869-2.539 1.6117-2.539 3.1561 0 1.7829 1.4504 3.2331 3.2331 3.2331 1.7827 0 3.2331-1.4503 3.2331-3.2331 0-1.5444-1.0891-2.8374-2.539-3.1561v-1.9556a4.1748 4.1748 0 0 0 2.5419-1.4784l1.5295 1.0825c-0.08492 0.2888-0.13247 0.59346-0.13247 0.90934 0 1.7829 1.4504 3.2331 3.2331 3.2331 1.7826 0 3.2331-1.4503 3.2331-3.2331 0-1.7829-1.4504-3.2331-3.2331-3.2331zm0-7.5597c0.86441 0 1.5675 0.70337 1.5675 1.5675 0 0.86418-0.70308 1.5675-1.5675 1.5675-0.86442 0-1.5675-0.70331-1.5675-1.5675 0-0.86418 0.70308-1.5675 1.5675-1.5675zm-9.4336-2.9438c0-0.86418 0.70314-1.5675 1.5675-1.5675s1.5675 0.70331 1.5675 1.5675c0 0.86422-0.70308 1.5675-1.5675 1.5675s-1.5675-0.70331-1.5675-1.5675zm3.1351 18.335c0 0.86418-0.70308 1.5675-1.5675 1.5675s-1.5675-0.70332-1.5675-1.5675c0-0.86417 0.70314-1.5675 1.5675-1.5675s1.5675 0.70332 1.5675 1.5675zm-1.5676-7.0391c-1.2056 0-2.1863-0.98058-2.1863-2.1861s0.98077-2.1863 2.1863-2.1863 2.1863 0.98077 2.1863 2.1863-0.98077 2.1861-2.1863 2.1861zm7.8662 4.0085c-0.86442 0-1.5675-0.70337-1.5675-1.5675s0.70308-1.5675 1.5675-1.5675c0.86441 0 1.5675 0.70331 1.5675 1.5675s-0.70308 1.5675-1.5675 1.5675z" fill="#0f0c6f" stroke-width=".059669"/></svg>
