<?xml version="1.0" encoding="UTF-8"?>
<svg width="60" height="40" version="1.1" viewBox="0 0 60 40" xmlns="http://www.w3.org/2000/svg">
<defs>
<mask id="c" fill="#ffffff">
<path d="m0 0h313.3v159.86h-313.3z" fill="#fff" fill-rule="evenodd"/>
</mask>
</defs>
<mask id="a" fill="#ffffff">
<path d="m0 0h313.3v159.86h-313.3z" fill="#fff" fill-rule="evenodd"/>
</mask>
<mask id="b" fill="#ffffff">
<path d="m0 0h313.3v159.86h-313.3z" fill="#fff" fill-rule="evenodd"/>
</mask>
<g transform="matrix(.08667 0 0 .08667 54.838 -43.976)">
<path d="m56.695 510.77-107.53 84.402-79.398-66.275 61.189 82.843-54.627 74.395 72.837-52.987 102.53 91.046-81.039-107.53z" fill="#000e44" fill-rule="evenodd"/>
</g>
<circle cx="16.627" cy="16.633" r="16.434" fill="#ed8c8c" stop-color="#000000"/>
<g transform="matrix(.15069 0 0 .15069 -6.1977 -20.881)" fill="none" fill-rule="evenodd">
<g transform="matrix(.92863 0 0 -.92863 9.2718 454.16)">
<g transform="matrix(.94489 0 0 .94489 8.6963 2.7018)" fill="#6f0f0c" mask="url(#c)">
<path transform="rotate(35 137.93 151.55)" d="m203.46 95.688c6.9363 0 12.559-14.809 12.559-33.077s-5.623-33.077-12.559-33.077-12.559 14.809-12.559 33.077 5.623 33.077 12.559 33.077z"/>
<path transform="matrix(-.81915 .57358 .57358 .81915 58.085 47.705)" d="m30.142 95.688c6.9363 0 12.559-14.809 12.559-33.077s-5.623-33.077-12.559-33.077c-6.9363 0-12.559 14.809-12.559 33.077s5.623 33.077 12.559 33.077z"/>
<path transform="matrix(-1 0 0 1 272.63 53.671)" d="m116.73 66.275c6.9363 0 12.559-14.809 12.559-33.077s-5.623-33.077-12.559-33.077c-6.9363 0-12.559 14.809-12.559 33.077s5.623 33.077 12.559 33.077z"/>
</g>
<path transform="matrix(.94489 0 0 .94489 8.6963 2.7018)" d="m251.47 173.1c-20.23-33.61-56.89-56.068-98.756-56.068-40.721 0-76.516 21.246-97.059 53.335" mask="url(#c)" stroke="#6f0c0c" stroke-width="20"/>
</g>
</g>
<g transform="translate(40)">
<g transform="matrix(.25662 0 0 .25662 -39.588 -.397)">
<g transform="matrix(.81204 0 0 .81204 11.067 5.4562)" stroke="#6f0f0c" stroke-linecap="square" stroke-linejoin="bevel">
<path d="m64 61.8 46.5-25.5-46.5-23.4-46.5 23.4z" fill="#fcb8b5" stroke-dasharray="7.19819, 7.19819" stroke-width="2.3994"/>
<path d="m17.5 36.3-0.3 51.3 46.8 25.5v-51.3z" fill="#ec4c46" stroke-dasharray="7.1981905, 7.19819049999999994" stroke-width="2.3994"/>
<path d="m110.5 36.3 0.3 51.3-46.8 25.5v-51.3z" fill="#b81914" stroke-dasharray="7.1981905, 7.19819049999999994" stroke-width="2.3994"/>
</g>
</g>
</g>
</svg>
