<?xml version="1.0" encoding="UTF-8"?>
<svg width="40" height="40" version="1.1" viewBox="0 0 40 40" xmlns="http://www.w3.org/2000/svg" xmlns:cc="http://creativecommons.org/ns#" xmlns:dc="http://purl.org/dc/elements/1.1/" xmlns:rdf="http://www.w3.org/1999/02/22-rdf-syntax-ns#"><metadata><rdf:RDF><cc:Work rdf:about=""><dc:format>image/svg+xml</dc:format><dc:type rdf:resource="http://purl.org/dc/dcmitype/StillImage"/><dc:title/></cc:Work></rdf:RDF></metadata><defs><mask id="c" fill="#ffffff"><path d="m0 0h313.3v159.86h-313.3z" fill="#fff" fill-rule="evenodd"/></mask></defs><mask id="a" fill="#ffffff"><path d="m0 0h313.3v159.86h-313.3z" fill="#fff" fill-rule="evenodd"/></mask><mask id="b" fill="#ffffff"><path d="m0 0h313.3v159.86h-313.3z" fill="#fff" fill-rule="evenodd"/></mask><g transform="translate(.39981 .17019)"><g transform="matrix(.49527 0 0 .49527 5.0758 3.2126)"><g transform="matrix(1.7758,0,0,1.7758,-164.24,-70.425)"><g transform="translate(96.564,87.836)" fill="#66ff9a" stroke-width="3.24"><polygon class="st0" transform="matrix(.72255 0 0 .7031 -28.717 -125.97)" points="78.4 118.6 78.4 144.9 55.7 158 32.9 144.9 32.9 118.6 55.7 105.5" fill="#ababf7"/></g><g transform="matrix(.15831 0 0 .15831 83.649 18.463)" fill="#005e20" fill-rule="evenodd"><g transform="matrix(1.0777,0,0,-1.0777,-10.799,451.79)"><g transform="matrix(.94489 0 0 .94489 8.6963 2.7018)" fill="#0f0c6f" mask="url(#c)"><path transform="rotate(35,137.93,151.55)" d="m203.46 95.688c6.9363 0 12.559-14.809 12.559-33.077s-5.623-33.077-12.559-33.077-12.559 14.809-12.559 33.077 5.623 33.077 12.559 33.077z"/><path transform="matrix(-.81915 .57358 .57358 .81915 58.085 47.705)" d="m30.142 95.688c6.9363 0 12.559-14.809 12.559-33.077s-5.623-33.077-12.559-33.077c-6.9363 0-12.559 14.809-12.559 33.077s5.623 33.077 12.559 33.077z"/><path d="m153.24 119.95c-6.9363 0-12.559-14.809-12.559-33.077s5.623-33.077 12.559-33.077c6.9363 0 12.559 14.809 12.559 33.077s-5.623 33.077-12.559 33.077z"/></g><path transform="matrix(.94489 0 0 .94489 8.6963 2.7018)" d="m251.47 173.1c-20.23-33.61-56.89-56.068-98.756-56.068-40.721 0-76.516 21.246-97.059 53.335" fill="none" mask="url(#c)" stroke="#0f0c6f" stroke-width="19.999"/></g></g></g></g></g><g transform="matrix(.82554 0 0 .82554 5.441 1.7036)"><path class="cls-2" d="m11.448 21.388c0.48101 0.03385 0.96203 0.07378 1.4447 0.10075 0.21162 0.01211 0.26175 0.08689 0.16997 0.28833q-0.66883 1.4599-1.3258 2.9276c-0.08494 0.1789-0.16996 0.24317-0.38073 0.16588-0.41217-0.15198-0.83369-0.01301-1.2484 0.04343a0.29659 0.30309 0 0 0-0.24136 0.25272c-0.024684 0.13809 0.085023 0.22406 0.19122 0.28572 0.10623 0.06166 0.24816 0.1129 0.36033 0.18759 0.48016 0.32046 0.61103 0.71734 0.42492 1.2662-0.39347 1.1872-0.39347 1.1872-1.4626 0.54018l-0.42492-0.26053c-1.3266-0.80071-1.5357-1.2297-1.2501-2.773 0.18186-0.97874 0.69687-1.7934 1.3478-2.5185 0.52945-0.58794 1.245-0.53323 1.9385-0.52715 0.15042 0 0.30085 0.01912 0.45127 0.02954z" fill="#ababf7" stroke="#0f0c6f" stroke-linecap="square" stroke-width="2.8167" style="paint-order:stroke fill markers"/><path class="cls-2" d="m14.637 13.555c0.42917 0.38994 0.80058 0.63784 1.172 0.9939 0.43257 0.41512 0.72576 0.74855 0.66542 1.4016-0.03227 0.43518-0.19906 0.70839-0.5474 0.96089-0.90338 0.70171-1.5459 0.87669-2.632 0.99307-0.92123 0.09988-1.985 0.09421-2.8663-0.18628-1.6325-0.52108-3.2761-0.35822-4.9027 0.02739-0.99346 0.23621-1.4154 0.19765-1.3415-0.82713 0.073081-1.0039 0.38498-1.9584 0.61784-2.9293 0.03742-0.15806 0.11387-0.17369 0.26174-0.15372 0.55155 0.07208 1.5297-0.46114 1.7847-0.96137 0.054371-0.10595 0.12918-0.24751 0.00793-0.33609-0.12153-0.08859-0.2184 0.03905-0.30509 0.12071-0.40112 0.37691-0.83114 0.68608-1.415 0.52975-0.32888-0.08689-0.36968-0.2779-0.15891-0.5393 0.093484-0.1155 0.18272-0.16066 0.30254-0.06166 0.232 0.19106 0.46741 0.21103 0.69516 0.0081 0.22776-0.20318 0.20482-0.46806 0.13344-0.7286-0.19037-0.69477-0.034868-0.91448 0.67392-0.91883 0.30254 0 0.60509-0.0095 0.90593 0 0.74667 0.03179 1.4768-0.2306 2.0396-0.73301 0.87307-0.75904 1.7595-1.5004 2.6591-2.2241 0.10195-0.081592 0.26427-0.1459 0.23027-0.31264-0.03742-0.1815-0.21075-0.13809-0.33993-0.15546-0.32124-0.044248-0.57024-0.19974-0.65693-0.52628-0.09263-0.34738 0.16317-0.49762 0.40877-0.62876 0.60169-0.32183 1.1604-0.72142 1.6623-1.1889 0.34843-0.3248 0.7997-0.41946 1.2433-0.51152 1.4005-0.28833 2.8223-0.26054 4.2407-0.27791 0.25029-0.018059 0.50027 0.039312 0.71896 0.16501-0.19461 0.20409-0.44956 0.22493-0.64502 0.35867-0.18824 0.12946-0.34753 0.29816-0.46741 0.49502-0.13342 0.21451-0.2745 0.51065-0.02126 0.65482 0.20736 0.11637 0.32634-0.19714 0.40962-0.37431 0.18781-0.40122 0.50991-0.62876 0.88638-0.81113 0.13002 0.58187-0.15637 1.3331-0.67222 1.7855-0.11898 0.10421-0.34929 0.17369-0.24986 0.3717 0.09943 0.19801 0.3153 0.11377 0.48866 0.052955 0.76486-0.27183 1.4753-1.1872 1.2799-1.9974-0.02469-0.10248-0.11218-0.25099 0.03399-0.33088 0.10623-0.057359 0.19886 0.047756 0.2881 0.09466 0.63058 0.33349 1.1107 0.85716 1.5484 1.4008 1.4345 1.7795 2.9676 3.4868 4.0503 5.5381 0.5218 0.98829 0.99941 1.9974 1.5357 2.9779 0.75976 1.3834 0.79884 2.8025 0.49546 4.298-0.39093 1.9332-0.6757 3.1957-1.8595 4.758-0.12237 0.16153-0.54747 0.77828-0.78458 0.70186-0.16996-0.05556-0.20917-0.23619-0.25591-0.44983-0.37053-1.697-0.46164-3.4169-0.19394-5.1547 0.25495-1.657 0.41682-2.9126 0.36753-4.6061 0-0.10768-0.0034-0.37741-0.01781-0.48424-0.01273-0.13027-0.04723-0.39867-0.25485-0.39867-0.20736 0-0.38632 0.27058-0.39822 0.40866-0.06377 0.72169-0.05531 1.1805-0.15559 1.897-0.21926 1.5684-0.73355 2.7512-1.9684 3.7699-0.46996 0.38646-1.1251 0.69919-1.6656 0.9658-0.19206 0.09554-0.48802 0.27365-0.35884 0.59758 0.09432 0.23708 0.52761 0.40393 0.77321 0.31012 0.66288-0.25272 1.2596-0.71223 1.8545-1.1161 0.69008-0.46983 0.59677-0.14315 0.73954 0.73138 0.14278 0.87453 0.01781 1.7756-0.21334 2.6093-0.2779 1.017-0.66096 1.6681-0.26749 2.719 0.06377 0.16935-0.10523 0.47036-0.24628 0.57804-2.3762 1.8168-4.78 2.5037-7.746 2.488-1.5569-0.01149-3.101-0.28827-4.5687-0.81895-0.33994-0.12245-0.39603-0.29961-0.27535-0.61486 0.5541-1.4477 1.1506-2.5783 1.7055-4.026 0.21076-0.54974 0.42266-1.0517 0.73965-1.538 0.14362-0.22059 0.45789-0.46861 0.70859-0.49292 0.2711-0.02693 0.55915-0.06908 0.82941-0.06118 1.6997 0.03644 2.6906-0.85363 3.5209-2.1876 0.13598-0.21885 0.22436-0.7192-0.03311-0.87813-0.2575-0.15893-0.62085 0.04344-0.73982 0.2423-0.96967 1.5901-2.1641 2.0095-3.9487 1.6743-1.5782-0.29615-3.2284-0.0047-4.8091 0.08297-1.5935 0.08689-2.7825-0.52494-3.7751-1.7694-0.24901-0.31177 0.31522-0.24005 0.68235-0.2965 1.6096-0.24838 2.5847 0.16243 4.1731 0.31704 0.64588 0.06369 1.5233 0.16154 2.1692 0.22233 1.3912 0.13114 2.6795-0.403 3.8846-1.0691 1.6447-0.85895 1.1549-3.2325 0.23703-4.0358-0.50055-0.43596-1.494-0.89847-2.2452-0.90976zm2.0284-5.817c-0.62718-0.00811-1.4447 0.40123-1.8212 0.89537-0.09519 0.12419-0.12833 0.24925-0.05526 0.37344 0.08924 0.15024 0.21755 0.066867 0.31019-0.00538 0.16317-0.1268 0.20142 0.034739 0.28045 0.10769 0.52095 0.48112 1.2042 0.34738 1.4932-0.28485 0.10283-0.22754 0.04251-0.54452 0.39008-0.64352 0.08924-0.025222 0.05692-0.21104-0.08502-0.28746-0.15858-0.087178-0.33301-0.14009-0.51245-0.15545zm-6.9007 6.925c0.39943-0.07378 0.74786-0.19367 0.97221-0.54366 0.10028-0.15806 0.10963-0.3109-0.01871-0.46201-0.12833-0.15111-0.23966-0.12853-0.39773-0.05215-0.21416 0.10595-0.44106 0.22059-0.67222 0.24925-0.57619 0.07208-1.1719 0.16761-1.6079-0.39775-0.090937-0.1181-0.17422-0.3526-0.36289-0.23275-0.18866 0.11985 7e-3 0.30396 0.035661 0.45333 0.01871 0.0938 0.11813 0.1737 0.18441 0.25446 0.49206 0.61574 1.2348 0.54539 1.8671 0.73124zm-0.71301-2.6523c-0.28385 0.03994-0.59489 0.05646-0.63569 0.4403-0.032324 0.29354 0.45977 0.97528 0.69348 0.99352 0.24816 0.02001 0.53285-0.34739 0.5286-0.69477-0.00443-0.41773-0.2541-0.73384-0.58639-0.73905z" fill="#ababf7" stroke="#0f0c6f" stroke-linecap="round" stroke-width="4.5" style="paint-order:stroke markers fill"/><g fill="#0f0c6f"><path d="m14.836 8.665c0.12594-0.6801 1.5617-1.3098 1.9899-0.78086 0.42821 0.52897-0.12594 1.4106-0.50378 1.5365-0.37783 0.12594-1.2091-0.25189-1.4861-0.75567z"/><path d="m8.0318 12.242c0.38222-0.57646 1.9499-0.59362 2.1368 0.06079 0.18686 0.65441-0.66829 1.2486-1.0653 1.2165-0.39698-0.032075-1.0139-0.70525-1.0715-1.2773z"/><path d="m7.9751 13.625c1.2799 0.59345 2.4578-0.16082 2.3195 0.49105-0.03984 0.37733-0.16831 0.62524-1.0017 0.53082-0.61071 0.0036-1.3971-0.47043-1.3178-1.0219z"/></g></g></svg>
