<?xml version="1.0" encoding="UTF-8" standalone="no"?>
<svg
   xmlns:dc="http://purl.org/dc/elements/1.1/"
   xmlns:cc="http://creativecommons.org/ns#"
   xmlns:rdf="http://www.w3.org/1999/02/22-rdf-syntax-ns#"
   xmlns:svg="http://www.w3.org/2000/svg"
   xmlns="http://www.w3.org/2000/svg"
   xmlns:sodipodi="http://sodipodi.sourceforge.net/DTD/sodipodi-0.dtd"
   xmlns:inkscape="http://www.inkscape.org/namespaces/inkscape"
   height="40"
   viewBox="0 0 60 40"
   width="60"
   version="1.1"
   id="svg36"
   sodipodi:docname="cluster-3scale.svg"
   inkscape:version="1.0.1 (3bc2e813f5, 2020-09-07)">
  <sodipodi:namedview
     pagecolor="#ffffff"
     bordercolor="#666666"
     borderopacity="1"
     objecttolerance="10"
     gridtolerance="10"
     guidetolerance="10"
     inkscape:pageopacity="0"
     inkscape:pageshadow="2"
     inkscape:window-width="1920"
     inkscape:window-height="1016"
     id="namedview35"
     showgrid="false"
     inkscape:zoom="14.03607"
     inkscape:cx="-7.8557865"
     inkscape:cy="-0.061805155"
     inkscape:window-x="0"
     inkscape:window-y="0"
     inkscape:window-maximized="1"
     inkscape:current-layer="svg36" />
  <metadata
     id="metadata42">
    <rdf:RDF>
      <cc:Work
         rdf:about="">
        <dc:format>image/svg+xml</dc:format>
        <dc:type
           rdf:resource="http://purl.org/dc/dcmitype/StillImage" />
        <dc:title />
      </cc:Work>
    </rdf:RDF>
  </metadata>
  <defs
     id="defs40">
    <mask
       id="a-1"
       fill="#ffffff">
      <path
         d="M 0,0 H 313.30315 V 159.86486 H 0 Z"
         fill="#ffffff"
         fill-rule="evenodd"
         id="path2-9" />
    </mask>
  </defs>
  <mask
     id="a"
     fill="#ffffff">
    <path
       d="M 0,0 H 313.30315 V 159.86486 H 0 Z"
       fill="#ffffff"
       fill-rule="evenodd"
       id="path2" />
  </mask>
  <mask
     id="b"
     fill="#ffffff">
    <path
       d="M 0,0 H 313.30315 V 159.86486 H 0 Z"
       fill="#ffffff"
       fill-rule="evenodd"
       id="path5" />
  </mask>
  <g
     id="g1042"
     style="display:inline">
    <g
       id="g994"
       transform="matrix(0.08667043,0,0,0.08667043,54.837532,-43.975856)"
       style="display:inline">
      <path
         id="path990"
         style="fill:#000e44;fill-opacity:1;fill-rule:evenodd;stroke:none;stroke-width:3.14747"
         d="m 56.695351,510.77372 -107.53235,84.40183 -79.398391,-66.27467 61.189259,82.84335 -54.627399,74.39502 72.836531,-52.98696 102.528945,91.04567 -81.03891,-107.53235 z" />
    </g>
    <circle
       style="opacity:1;fill:#8ceddc;fill-opacity:1;stroke:none;stroke-width:0.308165;stroke-miterlimit:2.5;stroke-opacity:1;stop-color:#000000"
       id="path912"
       cx="16.627409"
       cy="16.633268"
       r="16.433828" />
    <g
       fill="none"
       fill-rule="evenodd"
       transform="matrix(0.15069337,0,0,0.15069337,-6.1976669,-20.880758)"
       id="g1008">
      <g
         transform="matrix(0.92863152,0,0,-0.92863152,9.2718211,454.1644)"
         id="g1006">
        <g
           fill="#0f1689"
           mask="url(#a-1)"
           id="g1002"
           style="fill:#0c6f5e;fill-opacity:1"
           transform="matrix(0.94489362,0,0,0.94489362,8.6962507,2.7018401)">
          <path
             d="m 203.46068,95.687543 c 6.93631,0 12.5593,-14.80922 12.5593,-33.077318 0,-18.268097 -5.62299,-33.077317 -12.5593,-33.077317 -6.93631,0 -12.55931,14.80922 -12.55931,33.077317 0,18.268098 5.62299,33.077318 12.55931,33.077318 z"
             transform="rotate(35,137.93117,151.55002)"
             id="path996"
             style="fill:#0c6f5e;fill-opacity:1" />
          <path
             d="m 30.142322,95.687543 c 6.936311,0 12.559301,-14.80922 12.559301,-33.077318 0,-18.268097 -5.62299,-33.077317 -12.559301,-33.077317 -6.93631,0 -12.559301,14.80922 -12.559301,33.077317 0,18.268098 5.622991,33.077318 12.559301,33.077318 z"
             transform="matrix(-0.81915204,0.57357644,0.57357644,0.81915204,58.084611,47.704768)"
             id="path998"
             style="fill:#0c6f5e;fill-opacity:1" />
          <path
             d="m 116.73282,66.275268 c 6.93631,0 12.5593,-14.80922 12.5593,-33.077318 0,-18.268097 -5.62299,-33.07731673 -12.55931,-33.07731673 -6.93631,0 -12.5593,14.80921973 -12.5593,33.07731673 0,18.268098 5.62299,33.077318 12.55931,33.077318 z"
             transform="matrix(-1,0,0,1,272.62852,53.670762)"
             id="path1000"
             style="fill:#0c6f5e;fill-opacity:1" />
        </g>
        <path
           d="m 251.46701,173.09985 c -20.23008,-33.60997 -56.88957,-56.06791 -98.75578,-56.06791 -40.7208,0 -76.515877,21.2459 -97.058696,53.33459"
           mask="url(#a-1)"
           stroke="#0f1689"
           stroke-width="20"
           id="path1004"
           style="stroke:#0c6f5e;stroke-opacity:1"
           transform="matrix(0.94489362,0,0,0.94489362,8.6962507,2.7018401)" />
      </g>
    </g>
  </g>
  <g
     transform="matrix(0.95879878,0,0,0.95879878,-871.34292,-378.35028)"
     id="g893" />
  <g
     id="g1684"
     transform="matrix(0.89380261,0,0,0.89380261,37.497896,1.6392352)">
    <path
       fill="#f57700"
       d="m -22.936463,18.754676 c 0.673711,3.320426 5.67841,2.357984 5.0047,-0.962442 -0.625587,-3.320427 -5.678409,-2.357984 -5.0047,0.962442 z"
       id="path55"
       style="fill:#361fb3;fill-opacity:1;stroke-width:0.481222" />
    <path
       fill="#f57700"
       d="m -28.326139,10.140818 c -2.550472,0.673709 -1.539908,4.379112 0.866198,3.801647 2.454227,-0.673711 1.588029,-4.3791133 -0.866198,-3.801647 z"
       id="path57"
       style="fill:#361fb3;fill-opacity:1;stroke-width:0.481222" />
    <path
       fill="#333333"
       d="m -33.571449,15.43425 c 0.384977,-1.876763 -2.357984,-2.357983 -2.742961,-0.577465 -0.384977,1.924884 2.454228,2.357983 2.742961,0.577465 z"
       id="path59"
       style="fill:#0c6f5e;fill-opacity:1;stroke-width:0.481222" />
    <path
       fill="#333333"
       d="m -10.80969,16.396692 c 0.384978,-1.780518 -2.261739,-2.357983 -2.646716,-0.673709 -0.481221,1.780518 2.117373,2.454227 2.646716,0.673709 z"
       id="path61"
       style="fill:#0c6f5e;fill-opacity:1;stroke-width:0.481222" />
    <path
       fill="#333333"
       d="m -14.563214,21.978858 c 0.288732,1.539907 2.839204,1.251174 2.550471,-0.481222 -0.288733,-1.684274 -2.839204,-1.299297 -2.550471,0.481222 z"
       id="path63"
       style="fill:#0c6f5e;fill-opacity:1;stroke-width:0.481222" />
    <path
       fill="#333333"
       d="m -27.459941,17.695989 c 0.384976,1.539907 2.839205,1.154931 2.550472,-0.577465 -0.288732,-1.491786 -2.839205,-1.203053 -2.550472,0.577465 z"
       id="path65"
       style="fill:#0c6f5e;fill-opacity:1;stroke-width:0.481222" />
    <path
       fill="#333333"
       d="m -18.55735,23.951864 c 0.288733,-1.539908 -2.165495,-2.069251 -2.454228,-0.481221 -0.288732,1.539908 2.069251,2.021129 2.454228,0.481221 z"
       id="path67"
       style="fill:#0c6f5e;fill-opacity:1;stroke-width:0.481222" />
    <path
       fill="#333333"
       d="m -27.363697,6.8203912 c -1.539908,0.4812214 -0.769954,2.7429605 0.769954,2.2617399 1.491785,-0.4812214 0.818076,-2.8392052 -0.769954,-2.2617399 z"
       id="path69"
       style="fill:#0c6f5e;fill-opacity:1;stroke-width:0.481222" />
    <path
       fill="#333333"
       d="m -24.620736,2.7300115 c -1.443664,0.3849769 -0.962443,2.7429606 0.577465,2.3579836 1.58803,-0.2887327 1.010564,-2.7429605 -0.577465,-2.3579836 z"
       id="path71"
       style="fill:#0c6f5e;fill-opacity:1;stroke-width:0.481222" />
    <path
       fill="#333333"
       d="m -21.011578,8.7933981 c -1.684274,0.4812206 -0.866198,2.6467159 0.577466,2.2617399 1.588029,-0.384978 0.91432,-2.742961 -0.577466,-2.2617399 z"
       id="path73"
       style="fill:#0c6f5e;fill-opacity:1;stroke-width:0.481222" />
    <path
       fill="#333333"
       d="m -32.320274,5.9541932 c -1.539908,0.5774654 -0.67371,2.7429607 0.769953,2.3579838 1.491786,-0.4812212 0.769954,-2.8392049 -0.769953,-2.3579838 z"
       id="path75"
       style="fill:#0c6f5e;fill-opacity:1;stroke-width:0.481222" />
    <path
       fill="#333333"
       d="m -16.96932,8.6971539 c -1.539908,0.3849772 -0.962443,2.7429601 0.577466,2.2617391 1.539907,-0.433099 0.866197,-2.646716 -0.577466,-2.2617391 z"
       id="path77"
       style="fill:#0c6f5e;fill-opacity:1;stroke-width:0.481222" />
    <path
       fill="#f57700"
       d="m -18.846083,11.536358 c -1.539907,0.481222 -0.866198,2.646717 0.577466,2.26174 1.58803,-0.433099 0.91432,-2.74296 -0.577466,-2.26174 z"
       id="path79"
       style="fill:#361fb3;fill-opacity:1;stroke-width:0.481222" />
    <path
       fill="#333333"
       d="m -29.962291,22.556323 c 0.384977,1.347419 2.646717,0.866198 2.261739,-0.577465 -0.336855,-1.443664 -2.646716,-0.962442 -2.261739,0.577465 z"
       id="path81"
       style="fill:#0c6f5e;fill-opacity:1;stroke-width:0.481222" />
    <path
       fill="#333333"
       d="m -14.370726,19.043409 c 0.481221,-1.443664 -1.539908,-2.165495 -2.069251,-0.769955 -0.529343,1.443664 1.58803,2.021129 2.069251,0.769955 z"
       id="path83"
       style="fill:#0c6f5e;fill-opacity:1;stroke-width:0.481222" />
    <path
       fill="#333333"
       d="m -27.21933,26.165481 c 0.384976,-1.347419 -1.780519,-2.069251 -2.165495,-0.673709 -0.384977,1.443664 1.636151,2.069251 2.165495,0.673709 z"
       id="path85"
       style="fill:#0c6f5e;fill-opacity:1;stroke-width:0.481222" />
    <path
       fill="#333333"
       d="m -35.448212,19.139653 c 0.192489,1.347419 2.454228,1.251174 2.26174,-0.288733 -0.192489,-1.443664 -2.454228,-1.154931 -2.26174,0.288733 z"
       id="path87"
       style="fill:#0c6f5e;fill-opacity:1;stroke-width:0.481222" />
    <path
       fill="#333333"
       d="m -34.004548,22.171345 c 0.288732,1.34742 2.357983,1.058687 2.165495,-0.384976 -0.192489,-1.491786 -2.454228,-1.058686 -2.165495,0.384976 z"
       id="path89"
       style="fill:#0c6f5e;fill-opacity:1;stroke-width:0.481222" />
    <path
       fill="#333333"
       d="m -12.782696,9.2746187 c -1.443664,0.288733 -0.962443,2.4542283 0.48122,2.0692513 1.154931,-0.288732 0.866199,-2.3579832 -0.48122,-2.0692513 z"
       id="path91"
       style="fill:#0c6f5e;fill-opacity:1;stroke-width:0.481222" />
    <path
       fill="#333333"
       d="m -26.160645,27.27229 c 0.09625,1.347419 2.26174,1.154931 2.069251,-0.288732 -0.240609,-1.299298 -2.261738,-1.106809 -2.069251,0.288732 z"
       id="path93"
       style="fill:#0c6f5e;fill-opacity:1;stroke-width:0.481222" />
    <path
       fill="#333333"
       d="m -22.070265,25.491772 c 0.481222,-1.34742 -1.539907,-1.973007 -1.973006,-0.67371 -0.481221,1.347419 1.58803,1.828641 1.973006,0.67371 z"
       id="path95"
       style="fill:#0c6f5e;fill-opacity:1;stroke-width:0.481222" />
    <path
       fill="#333333"
       d="m -26.834354,22.845056 c 0.192489,1.251174 2.26174,1.058686 2.069251,-0.288733 -0.144366,-1.251176 -2.26174,-1.154931 -2.069251,0.288733 z"
       id="path97"
       style="fill:#0c6f5e;fill-opacity:1;stroke-width:0.481222" />
    <path
       fill="#333333"
       d="m -21.97402,12.883778 c -1.251175,0.481221 -0.577465,2.26174 0.67371,1.876762 1.106808,-0.384977 0.721831,-2.454228 -0.67371,-1.876762 z"
       id="path99"
       style="fill:#0c6f5e;fill-opacity:1;stroke-width:0.481222" />
    <path
       fill="#333333"
       d="m -18.846083,26.165481 c 0.192489,1.058687 2.069251,0.866199 1.876763,-0.384976 -0.192489,-1.154931 -2.165496,-0.962443 -1.876763,0.384976 z"
       id="path101"
       style="fill:#0c6f5e;fill-opacity:1;stroke-width:0.481222" />
    <path
       fill="#333333"
       d="m -14.563214,7.0128797 c -1.154931,0.2887329 -0.866198,2.1654958 0.384976,1.8767628 1.203053,-0.1924886 0.91432,-2.1654955 -0.384976,-1.8767628 z"
       id="path103"
       style="fill:#0c6f5e;fill-opacity:1;stroke-width:0.481222" />
    <path
       fill="#333333"
       d="m -23.706416,22.652567 c 0.192488,1.058687 2.069251,0.866198 1.780518,-0.481222 -0.240611,-1.058685 -2.213618,-0.769953 -1.780518,0.481222 z"
       id="path105"
       style="fill:#0c6f5e;fill-opacity:1;stroke-width:0.481222" />
    <path
       fill="#333333"
       d="m -24.524492,11.055138 c -1.154931,0.384976 -0.673709,2.069251 0.481221,1.780518 1.106808,-0.240611 0.818076,-2.069251 -0.481221,-1.780518 z"
       id="path107"
       style="fill:#0c6f5e;fill-opacity:1;stroke-width:0.481222" />
    <path
       fill="#333333"
       d="m -32.609007,14.76054 c 0.192489,0.962443 2.069251,0.769954 1.780518,-0.481221 -0.336855,-1.106808 -2.069251,-0.818076 -1.780518,0.481221 z"
       id="path109"
       style="fill:#0c6f5e;fill-opacity:1;stroke-width:0.481222" />
    <path
       fill="#333333"
       d="m -21.204067,5.1842393 c -1.15493,0.1924886 -0.769953,1.9730068 0.384978,1.684274 1.106808,-0.2406105 0.721831,-1.9730067 -0.384978,-1.684274 z"
       id="path111"
       style="fill:#0c6f5e;fill-opacity:1;stroke-width:0.481222" />
    <path
       fill="#333333"
       d="m -19.23106,3.7886981 c -1.251174,0.2887327 -0.673709,1.9730067 0.384977,1.684274 1.058687,-0.1924886 0.769954,-1.9730067 -0.384977,-1.684274 z"
       id="path113"
       style="fill:#0c6f5e;fill-opacity:1;stroke-width:0.481222" />
    <path
       fill="#333333"
       d="m -17.691152,21.690125 c 0.192489,1.058686 1.876762,0.866198 1.780518,-0.288733 -0.192489,-1.106809 -1.973007,-0.866198 -1.780518,0.288733 z"
       id="path115"
       style="fill:#0c6f5e;fill-opacity:1;stroke-width:0.481222" />
    <path
       fill="#333333"
       d="m -14.948192,15.819227 c 0.288733,-1.058687 -1.347418,-1.443664 -1.684273,-0.481222 -0.240611,1.154931 1.39554,1.539909 1.684273,0.481222 z"
       id="path117"
       style="fill:#0c6f5e;fill-opacity:1;stroke-width:0.481222" />
    <path
       fill="#333333"
       d="m -29.962291,4.5105297 c -1.15493,0.3849769 -0.481221,1.9730067 0.577466,1.5399077 0.866197,-0.3849769 0.384976,-1.9248846 -0.577466,-1.5399077 z"
       id="path119"
       style="fill:#0c6f5e;fill-opacity:1;stroke-width:0.481222" />
    <path
       fill="#333333"
       d="m -28.518628,19.235896 c 0.384977,-1.058686 -1.251174,-1.443662 -1.539907,-0.577464 -0.481221,1.058686 1.15493,1.636151 1.539907,0.577464 z"
       id="path121"
       style="fill:#0c6f5e;fill-opacity:1;stroke-width:0.481222" />
    <path
       fill="#333333"
       d="m -29.962291,16.204203 c 0.192489,0.866199 1.876762,0.769955 1.684274,-0.384976 -0.240611,-1.058687 -1.876762,-0.769954 -1.684274,0.384976 z"
       id="path123"
       style="fill:#0c6f5e;fill-opacity:1;stroke-width:0.481222" />
    <path
       fill="#333333"
       d="m -20.578479,27.561023 c 0.384977,-0.962443 -1.058686,-1.443664 -1.443664,-0.577465 -0.433098,1.058685 1.010565,1.443663 1.443664,0.577465 z"
       id="path125"
       style="fill:#0c6f5e;fill-opacity:1;stroke-width:0.481222" />
    <path
       fill="#333333"
       d="m -12.397719,12.402556 c -0.962442,0.288733 -0.577466,1.780519 0.384976,1.539909 0.962443,-0.288733 0.577466,-1.732397 -0.384976,-1.539909 z"
       id="path127"
       style="fill:#0c6f5e;fill-opacity:1;stroke-width:0.481222" />
    <path
       fill="#333333"
       d="m -34.774502,11.151382 c -0.962442,0.192488 -0.577466,1.780518 0.384977,1.443663 0.91432,-0.288733 0.625587,-1.732396 -0.384977,-1.443663 z"
       id="path129"
       style="fill:#0c6f5e;fill-opacity:1;stroke-width:0.481222" />
    <path
       fill="#333333"
       d="m -23.995149,6.0504374 c -0.866198,0.2887327 -0.384977,1.7805184 0.577466,1.3474194 0.866198,-0.2887329 0.384976,-1.7323963 -0.577466,-1.3474194 z"
       id="path131"
       style="fill:#0c6f5e;fill-opacity:1;stroke-width:0.481222" />
    <path
       fill="#333333"
       d="m -15.621901,11.825091 c -0.962442,0.384977 -0.384977,1.780518 0.577465,1.34742 0.769954,-0.288733 0.384977,-1.732397 -0.577465,-1.34742 z"
       id="path133"
       style="fill:#0c6f5e;fill-opacity:1;stroke-width:0.481222" />
    <path
       fill="#333333"
       d="m -23.610172,15.722983 c 0.288733,-0.866198 -1.058687,-1.251176 -1.34742,-0.384978 -0.336854,0.962443 1.058687,1.34742 1.34742,0.384978 z"
       id="path135"
       style="fill:#0c6f5e;fill-opacity:1;stroke-width:0.481222" />
    <path
       fill="#333333"
       d="m -24.332003,8.312177 c -0.866198,0.2887327 -0.577466,1.6842742 0.384976,1.4436634 0.91432,-0.1924887 0.721832,-1.6361518 -0.384976,-1.4436634 z"
       id="path137"
       style="fill:#0c6f5e;fill-opacity:1;stroke-width:0.481222" />
    <path
       fill="#333333"
       d="m -30.876611,8.6009097 c -0.962442,0.3849771 -0.384977,1.6842733 0.384977,1.3474194 0.91432,-0.288733 0.433099,-1.6361521 -0.384977,-1.3474194 z"
       id="path139"
       style="fill:#0c6f5e;fill-opacity:1;stroke-width:0.481222" />
    <path
       fill="#333333"
       d="m -27.459941,3.4999654 c -0.866198,0.1924885 -0.577466,1.4436634 0.288733,1.2511749 0.721831,-0.1443664 0.529343,-1.4436635 -0.288733,-1.2511749 z"
       id="path141"
       style="fill:#0c6f5e;fill-opacity:1;stroke-width:0.481222" />
    <path
       fill="#333333"
       d="m -18.268617,6.8203912 c -0.866199,0.3849769 -0.192488,1.4436636 0.481221,1.0586867 0.721831,-0.2406106 0.192488,-1.4436636 -0.481221,-1.0586867 z"
       id="path143"
       style="fill:#0c6f5e;fill-opacity:1;stroke-width:0.481222" />
    <path
       fill="#333333"
       d="m -17.065565,5.0879951 c -0.769953,0.384977 -0.09625,1.4436635 0.577466,1.0586866 0.673709,-0.3849769 0.192489,-1.4436635 -0.577466,-1.0586866 z"
       id="path145"
       style="fill:#0c6f5e;fill-opacity:1;stroke-width:0.481222" />
    <path
       fill="#333333"
       d="m -31.935297,24.721818 c 0.09624,0.673709 1.347419,0.673709 1.251175,-0.192489 -0.09624,-0.818075 -1.34742,-0.673709 -1.251175,0.192489 z"
       id="path147"
       style="fill:#0c6f5e;fill-opacity:1;stroke-width:0.481222" />
    <path
       fill="#333333"
       d="m -32.320274,10.862649 c -0.384977,0.192489 -0.384977,0.481221 -0.288733,0.769954 0.192489,0.192488 0.481221,0.384977 0.866198,0.192488 0.577465,-0.288733 0.192488,-1.395541 -0.577465,-0.962442 z"
       id="path149"
       style="fill:#0c6f5e;fill-opacity:1;stroke-width:0.481222" />
    <path
       fill="#333333"
       d="m -34.004548,8.8896425 c -0.769954,0.3849762 -0.192489,1.4436625 0.481221,1.0586866 0.721832,-0.1924887 0.336855,-1.3474194 -0.481221,-1.0586866 z"
       id="path151"
       style="fill:#0c6f5e;fill-opacity:1;stroke-width:0.481222" />
    <path
       fill="#333333"
       d="m -17.594908,15.626738 c 0.288733,-0.769953 -0.769953,-1.058686 -0.962442,-0.48122 -0.288733,0.769953 0.769954,1.058685 0.962442,0.48122 z"
       id="path153"
       style="fill:#0c6f5e;fill-opacity:1;stroke-width:0.481222" />
    <path
       fill="#333333"
       d="m -12.108987,19.428385 c 0.288733,-0.577465 -0.673709,-1.058686 -0.962442,-0.384976 -0.288732,0.673709 0.67371,0.962442 0.962442,0.384976 z"
       id="path155"
       style="fill:#0c6f5e;fill-opacity:1;stroke-width:0.481222" />
    <path
       fill="#333333"
       d="m -31.069099,17.695989 c 0.192488,-0.673709 -0.67371,-0.962442 -0.962443,-0.481221 -0.384976,0.769954 0.67371,1.154931 0.962443,0.481221 z"
       id="path157"
       style="fill:#0c6f5e;fill-opacity:1;stroke-width:0.481222" />
    <path
       fill="#333333"
       d="m -24.139516,20.823927 c 0.288733,-0.67371 -0.673709,-0.962442 -0.962442,-0.481222 -0.288732,0.673711 0.67371,1.154931 0.962442,0.481222 z"
       id="path159"
       style="fill:#0c6f5e;fill-opacity:1;stroke-width:0.481222" />
    <path
       fill="#333333"
       d="m -16.29561,24.721818 c 0,0.577465 1.058685,0.577465 0.962442,-0.192489 0,-0.673709 -1.058686,-0.577465 -0.962442,0.192489 z"
       id="path161"
       style="fill:#0c6f5e;fill-opacity:1;stroke-width:0.481222" />
    <path
       fill="#333333"
       d="m -22.166509,3.1149884 c -0.673709,0.1924884 -0.384976,1.1549308 0.288733,0.9624424 0.481222,-0.1924885 0.288733,-1.1549309 -0.288733,-0.9624424 z"
       id="path163"
       style="fill:#0c6f5e;fill-opacity:1;stroke-width:0.481222" />
  </g>
</svg>
