<?xml version="1.0" encoding="UTF-8"?>
<svg width="40" height="40" version="1.1" viewBox="0 0 40 40" xmlns="http://www.w3.org/2000/svg" xmlns:cc="http://creativecommons.org/ns#" xmlns:dc="http://purl.org/dc/elements/1.1/" xmlns:rdf="http://www.w3.org/1999/02/22-rdf-syntax-ns#"><metadata><rdf:RDF><cc:Work rdf:about=""><dc:format>image/svg+xml</dc:format><dc:type rdf:resource="http://purl.org/dc/dcmitype/StillImage"/><dc:title/></cc:Work></rdf:RDF></metadata><defs><mask id="c" fill="#ffffff"><path d="m0 0h313.3v159.86h-313.3z" fill="#fff" fill-rule="evenodd"/></mask></defs><mask id="a" fill="#ffffff"><path d="m0 0h313.3v159.86h-313.3z" fill="#fff" fill-rule="evenodd"/></mask><mask id="b" fill="#ffffff"><path d="m0 0h313.3v159.86h-313.3z" fill="#fff" fill-rule="evenodd"/></mask><g><g transform="translate(.39981 .18548)"><g transform="matrix(.49527 0 0 .49527 5.0758 3.2126)"><g transform="matrix(1.7758,0,0,1.7758,-164.24,-70.425)"><g transform="translate(96.564,87.836)" fill="#66ff9a" stroke-width="3.24"><polygon class="st0" transform="matrix(.72255 0 0 .7031 -28.717 -125.97)" points="78.4 144.9 55.7 158 32.9 144.9 32.9 118.6 55.7 105.5 78.4 118.6" fill="#ababf7"/></g><g transform="matrix(.15831 0 0 .15831 83.649 18.463)" fill="#005e20" fill-rule="evenodd"><g transform="matrix(1.0777,0,0,-1.0777,-10.799,451.79)"><g transform="matrix(.94489 0 0 .94489 8.6963 2.7018)" fill="#0f0c6f" mask="url(#c)"><path transform="rotate(35,137.93,151.55)" d="m203.46 95.688c6.9363 0 12.559-14.809 12.559-33.077s-5.623-33.077-12.559-33.077-12.559 14.809-12.559 33.077 5.623 33.077 12.559 33.077z"/><path transform="matrix(-.81915 .57358 .57358 .81915 58.085 47.705)" d="m30.142 95.688c6.9363 0 12.559-14.809 12.559-33.077s-5.623-33.077-12.559-33.077c-6.9363 0-12.559 14.809-12.559 33.077s5.623 33.077 12.559 33.077z"/><path d="m153.24 119.95c-6.9363 0-12.559-14.809-12.559-33.077s5.623-33.077 12.559-33.077c6.9363 0 12.559 14.809 12.559 33.077s-5.623 33.077-12.559 33.077z"/></g><path transform="matrix(.94489 0 0 .94489 8.6963 2.7018)" d="m251.47 173.1c-20.23-33.61-56.89-56.068-98.756-56.068-40.721 0-76.516 21.246-97.059 53.335" fill="none" mask="url(#c)" stroke="#0f0c6f" stroke-width="19.999"/></g></g></g></g></g><g transform="matrix(.021535 0 0 -.021535 5.3091 41.935)" fill="#0f0c6f"><path d="m987.88 796.66c-38.934 20.715-61.172 44.063-66.094 69.414-4.746 24.547 6.203 51.848 33.508 83.489 65.251 74.861 101.19 171.03 101.19 270.81 0 227.54-185.13 412.69-412.69 412.69-0.371 0-1.82-0.02-1.82-0.02s-1.485 0.02-1.875 0.02c-227.57 0-412.67-185.15-412.67-412.69 0-99.78 35.933-195.95 101.21-270.84 27.508-31.851 38.195-58.047 33.633-82.371-4.735-25.324-27.024-48.996-66.301-70.468-60.223 50.195-113.48 117.26-146.33 184.52-17.817 36.503-31.531 75.053-40.778 114.57-9.5191 40.62-14.289 82.54-14.289 124.59 0 73.59 14.399 145.07 42.856 212.38 27.504 64.94 66.816 123.3 116.93 173.37 50.058 50.1 108.41 89.41 173.38 116.9 67.296 28.46 138.74 42.88 212.37 42.88h1.82 1.875c73.629 0 145.08-14.42 212.39-42.88 64.941-27.49 123.29-66.8 173.37-116.9 50.07-50.07 89.42-108.43 116.91-173.37 28.46-67.31 42.89-138.79 42.89-212.38 0-42.05-4.82-83.97-14.31-124.59-9.24-39.52-22.96-78.07-40.8-114.57-32.85-67.289-86.06-134.34-146.36-184.55"/><path d="m786.58 694.59c-6.34 3.988-28 20.101-49.113 49.351-20.254 27.95-44.086 74.317-42.84 136.41 0.781 37.371 8.273 73.761 22.313 108.12 13.937 34.061 33.925 65.271 59.386 92.731l0.156 0.21c1.875 2.18 3.731 4.35 5.625 6.5 9.61 11.15 19.54 22.66 27.461 36.13 9.766 16.56 16.875 33.96 21.102 51.76 6.504 27.49 6.887 56.67 1.066 84.35-5.371 25.45-16.191 50.11-31.3 71.37-14.637 20.6-33.7 38.57-55.157 51.95-22.363 13.97-48.054 23.32-74.222 27.03-8.86 1.27-17.989 1.92-27.16 1.92h-1.965-1.95c-9.152 0-18.3-0.65-27.132-1.92-26.153-3.71-51.84-13.06-74.227-27.03-21.453-13.38-40.555-31.35-55.18-51.95-15.105-21.26-25.875-45.92-31.293-71.37-5.804-27.68-5.453-56.86 1.098-84.35 4.211-17.8 11.32-35.2 21.066-51.76 7.961-13.47 17.876-24.98 27.489-36.13 1.89-2.15 3.73-4.32 5.64-6.5l0.114-0.21c25.504-27.46 45.472-58.67 59.41-92.731 14.031-34.356 21.551-70.746 22.293-108.12 1.262-62.094-22.574-108.46-42.805-136.41-21.156-29.25-42.797-45.363-49.144-49.351-10.621 2.84-21.215 6.031-31.629 9.519-31.348 10.512-61.879 23.961-90.891 40.063 49.875 26.832 81.574 79.215 81.574 136.3 0 37.777-14.683 74.015-43.633 107.66-0.429 0.512-0.875 0.926-1.207 1.262-0.058 0.085-0.152 0.136-0.222 0.23-2.844 3.164-5.66 6.254-8.43 9.262-8.316 9.133-16.199 17.763-23.238 27.213-26.266 35.08-45.508 76.22-55.664 118.95-11.039 46.46-11.657 95.74-1.797 142.51 9.074 43.12 27.414 84.94 52.969 120.92 24.722 34.81 56.945 65.15 93.175 87.74 37.957 23.68 81.465 39.51 125.8 45.83 15.016 2.16 30.399 3.21 45.766 3.21h2.156 1.945c15.371 0 30.797-1.05 45.793-3.21 44.356-6.32 87.84-22.15 125.8-45.83 36.23-22.59 68.465-52.93 93.191-87.74 25.539-35.98 43.879-77.8 52.989-120.92 9.824-46.77 9.191-96.05-1.817-142.51-10.183-42.73-29.402-83.87-55.703-118.95-7.051-9.45-14.902-18.08-23.25-27.213-2.734-3.008-5.539-6.098-8.39-9.262-0.098-0.074-0.164-0.145-0.262-0.23-0.332-0.336-0.801-0.77-1.203-1.329-29.344-35.117-43.621-70.324-43.621-107.59 0-57.09 31.699-109.47 81.629-136.3-29.024-16.102-59.559-29.551-90.907-40.063-10.41-3.488-21.047-6.679-31.66-9.519"/><path d="m641.93 1107.5c-59.375 0-107.71 48.32-107.71 107.71 0 59.4 48.332 107.72 107.71 107.72s107.68-48.32 107.68-107.72c0-59.39-48.308-107.71-107.68-107.71"/></g></g></svg>
