<?xml version="1.0" encoding="UTF-8" standalone="no"?>
<svg
   xmlns:dc="http://purl.org/dc/elements/1.1/"
   xmlns:cc="http://creativecommons.org/ns#"
   xmlns:rdf="http://www.w3.org/1999/02/22-rdf-syntax-ns#"
   xmlns:svg="http://www.w3.org/2000/svg"
   xmlns="http://www.w3.org/2000/svg"
   xmlns:sodipodi="http://sodipodi.sourceforge.net/DTD/sodipodi-0.dtd"
   xmlns:inkscape="http://www.inkscape.org/namespaces/inkscape"
   height="40"
   viewBox="0 0 60 40"
   width="60"
   version="1.1"
   id="svg36"
   sodipodi:docname="cluster-rbac.svg"
   inkscape:version="1.0.1 (3bc2e813f5, 2020-09-07)">
  <sodipodi:namedview
     pagecolor="#ffffff"
     bordercolor="#666666"
     borderopacity="1"
     objecttolerance="10"
     gridtolerance="10"
     guidetolerance="10"
     inkscape:pageopacity="0"
     inkscape:pageshadow="2"
     inkscape:window-width="1920"
     inkscape:window-height="1016"
     id="namedview81"
     showgrid="false"
     showguides="false"
     inkscape:zoom="9.9250003"
     inkscape:cx="24.994806"
     inkscape:cy="16.050291"
     inkscape:window-x="0"
     inkscape:window-y="0"
     inkscape:window-maximized="1"
     inkscape:current-layer="g1042"
     inkscape:document-rotation="0" />
  <metadata
     id="metadata42">
    <rdf:RDF>
      <cc:Work
         rdf:about="">
        <dc:format>image/svg+xml</dc:format>
        <dc:type
           rdf:resource="http://purl.org/dc/dcmitype/StillImage" />
        <dc:title />
      </cc:Work>
    </rdf:RDF>
  </metadata>
  <defs
     id="defs40">
    <mask
       id="a-1"
       fill="#ffffff">
      <path
         d="M 0,0 H 313.30315 V 159.86486 H 0 Z"
         fill="#ffffff"
         fill-rule="evenodd"
         id="path2-9" />
    </mask>
    <clipPath
       clipPathUnits="userSpaceOnUse"
       id="clipPath3444">
      <path
         d="M 11.52,162 C 11.52,81.677 135.307,16.561 288,16.561 v 0 c 152.693,0 276.481,65.116 276.481,145.439 v 0 c 0,80.322 -123.788,145.439 -276.481,145.439 v 0 C 135.307,307.439 11.52,242.322 11.52,162"
         id="path3446" />
    </clipPath>
    <radialGradient
       cx="0"
       cy="0"
       fx="0"
       fy="0"
       gradientTransform="matrix(363.05789,0,0,-363.05789,177.52002,256.30713)"
       gradientUnits="userSpaceOnUse"
       id="radialGradient3452"
       r="1"
       spreadMethod="pad">
      <stop
         id="stop3454"
         offset="0"
         style="stop-opacity:1;stop-color:#aeb2d5" />
      <stop
         id="stop3456"
         offset="0.3"
         style="stop-opacity:1;stop-color:#aeb2d5" />
      <stop
         id="stop3458"
         offset="0.75"
         style="stop-opacity:1;stop-color:#484c89" />
      <stop
         id="stop3460"
         offset="1"
         style="stop-opacity:1;stop-color:#484c89" />
    </radialGradient>
    <clipPath
       clipPathUnits="userSpaceOnUse"
       id="clipPath3468">
      <path
         d="M 0,324 H 576 V 0 H 0 Z"
         id="path3470" />
    </clipPath>
    <clipPath
       clipPathUnits="userSpaceOnUse"
       id="clipPath3480">
      <path
         d="M 0,324 H 576 V 0 H 0 Z"
         id="path3482" />
    </clipPath>
  </defs>
  <mask
     id="a"
     fill="#ffffff">
    <path
       d="M 0,0 H 313.30315 V 159.86486 H 0 Z"
       fill="#ffffff"
       fill-rule="evenodd"
       id="path2" />
  </mask>
  <mask
     id="b"
     fill="#ffffff">
    <path
       d="M 0,0 H 313.30315 V 159.86486 H 0 Z"
       fill="#ffffff"
       fill-rule="evenodd"
       id="path5" />
  </mask>
  <g
     id="g1042"
     style="display:inline">
    <g
       id="g994"
       transform="matrix(0.08667043,0,0,0.08667043,54.837532,-43.975856)"
       style="display:inline">
      <path
         id="path990"
         style="fill:#000e44;fill-opacity:1;fill-rule:evenodd;stroke:none;stroke-width:3.14747"
         d="m 56.695351,510.77372 -107.53235,84.40183 -79.398391,-66.27467 61.189259,82.84335 -54.627399,74.39502 72.836531,-52.98696 102.528945,91.04567 -81.03891,-107.53235 z" />
    </g>
    <circle
       style="opacity:1;fill:#eaed8c;fill-opacity:1;stroke:none;stroke-width:0.308165;stroke-miterlimit:2.5;stroke-opacity:1;stop-color:#000000"
       id="path912"
       cx="16.627409"
       cy="16.633268"
       r="16.433828" />
    <g
       fill="none"
       fill-rule="evenodd"
       transform="matrix(0.15069337,0,0,0.15069337,-6.1976669,-20.880758)"
       id="g1008"
       style="fill:#6f6f0c;fill-opacity:1">
      <g
         transform="matrix(0.92863152,0,0,-0.92863152,9.2718211,454.1644)"
         id="g1006"
         style="fill:#6f6f0c;fill-opacity:1">
        <g
           fill="#0f1689"
           mask="url(#a-1)"
           id="g1002"
           style="fill:#6f6f0c;fill-opacity:1"
           transform="matrix(0.94489362,0,0,0.94489362,8.6962507,2.7018401)">
          <path
             d="m 203.46068,95.687543 c 6.93631,0 12.5593,-14.80922 12.5593,-33.077318 0,-18.268097 -5.62299,-33.077317 -12.5593,-33.077317 -6.93631,0 -12.55931,14.80922 -12.55931,33.077317 0,18.268098 5.62299,33.077318 12.55931,33.077318 z"
             transform="rotate(35,137.93117,151.55002)"
             id="path996"
             style="fill:#6f6f0c;fill-opacity:1" />
          <path
             d="m 30.142322,95.687543 c 6.936311,0 12.559301,-14.80922 12.559301,-33.077318 0,-18.268097 -5.62299,-33.077317 -12.559301,-33.077317 -6.93631,0 -12.559301,14.80922 -12.559301,33.077317 0,18.268098 5.622991,33.077318 12.559301,33.077318 z"
             transform="matrix(-0.81915204,0.57357644,0.57357644,0.81915204,58.084611,47.704768)"
             id="path998"
             style="fill:#6f6f0c;fill-opacity:1" />
          <path
             d="m 116.73282,66.275268 c 6.93631,0 12.5593,-14.80922 12.5593,-33.077318 0,-18.268097 -5.62299,-33.07731673 -12.55931,-33.07731673 -6.93631,0 -12.5593,14.80921973 -12.5593,33.07731673 0,18.268098 5.62299,33.077318 12.55931,33.077318 z"
             transform="matrix(-1,0,0,1,272.62852,53.670762)"
             id="path1000"
             style="fill:#6f6f0c;fill-opacity:1" />
        </g>
        <path
           d="m 251.46701,173.09985 c -20.23008,-33.60997 -56.88957,-56.06791 -98.75578,-56.06791 -40.7208,0 -76.515877,21.2459 -97.058696,53.33459"
           mask="url(#a-1)"
           stroke="#0f1689"
           stroke-width="20"
           id="path1004"
           style="stroke:#6f6f0c;stroke-opacity:1;fill:none;fill-opacity:1"
           transform="matrix(0.94489362,0,0,0.94489362,8.6962507,2.7018401)" />
      </g>
    </g>
    <g
       id="g97"
       transform="matrix(0.03936691,0,0,0.03936691,6.8555781,5.1294397)" />
    <g
       id="g99"
       transform="matrix(0.03936691,0,0,0.03936691,6.8555781,5.1294397)" />
    <g
       id="g101"
       transform="matrix(0.03936691,0,0,0.03936691,6.8555781,5.1294397)" />
    <g
       id="g103"
       transform="matrix(0.03936691,0,0,0.03936691,6.8555781,5.1294397)" />
    <g
       id="g105"
       transform="matrix(0.03936691,0,0,0.03936691,6.8555781,5.1294397)" />
    <g
       id="g107"
       transform="matrix(0.03936691,0,0,0.03936691,6.8555781,5.1294397)" />
    <g
       id="g109"
       transform="matrix(0.03936691,0,0,0.03936691,6.8555781,5.1294397)" />
    <g
       id="g111"
       transform="matrix(0.03936691,0,0,0.03936691,6.8555781,5.1294397)" />
    <g
       id="g113"
       transform="matrix(0.03936691,0,0,0.03936691,6.8555781,5.1294397)" />
    <g
       id="g115"
       transform="matrix(0.03936691,0,0,0.03936691,6.8555781,5.1294397)" />
    <g
       id="g117"
       transform="matrix(0.03936691,0,0,0.03936691,6.8555781,5.1294397)" />
    <g
       id="g119"
       transform="matrix(0.03936691,0,0,0.03936691,6.8555781,5.1294397)" />
    <g
       id="g121"
       transform="matrix(0.03936691,0,0,0.03936691,6.8555781,5.1294397)" />
    <g
       id="g123"
       transform="matrix(0.03936691,0,0,0.03936691,6.8555781,5.1294397)" />
    <g
       id="g125"
       transform="matrix(0.03936691,0,0,0.03936691,6.8555781,5.1294397)" />
    <g
       id="g10"
       transform="matrix(0.0482024,0,0,0.0482024,4.623145,2.8071859)"
       style="fill:#6f6f0c;fill-opacity:1">
      <g
         id="g8"
         style="fill:#6f6f0c;fill-opacity:1">
        <path
           d="m 137,188.95 c -45.2,0 -81.9,36.7 -81.9,81.9 0,19.4 6.8,37.3 18.1,51.3 0.8,-6.6 3.5,-14 11.9,-16.2 16.1,-4.1 29.1,-13.3 29.1,-13.3 l 12.1,38.2 1.7,5.2 5.4,-15.3 c -13.6,-18.9 3.6,-18.2 3.6,-18.2 0,0 17.2,-0.7 3.6,18.2 l 5.4,15.2 1.7,-5.1 v 0.1 l 1.9,-6.1 10.2,-32.2 c 0,0 13,9.2 29.1,13.3 8.4,2.1 11.2,9.6 11.9,16.2 11.3,-14 18.1,-31.9 18.1,-51.3 -0.1,-45.2 -36.7,-81.9 -81.9,-81.9 z m 31.4,72.1 c -2.1,7.4 -4,9.4 -5.5,9.6 -1.4,8.8 -8.3,19.9 -19.3,23.8 -4.5,1.6 -9.6,1.6 -14.1,0 -11.1,-3.9 -17.9,-15.1 -19.2,-23.9 -1.5,-0.1 -3.4,-2.2 -5.5,-9.6 -2.9,-10.1 0.2,-11.6 2.7,-11.3 -0.5,-1.4 -0.9,-2.8 -1.1,-4.2 v 0 c -0.9,-4.7 -1.2,-9.1 -0.1,-13.3 1.3,-5.6 4.4,-10.1 7.8,-13.6 2.2,-2.3 4.6,-4.3 7.2,-5.9 2.1,-1.5 4.4,-2.7 7,-3.6 v 0 c 2,-0.7 4.1,-1.1 6.3,-1.2 6.9,-0.6 12.2,1.1 15.9,3.4 5.6,3.1 7.8,7.2 7.8,7.2 0,0 12.9,0.9 8.5,27.1 -0.3,1.4 -0.6,2.8 -1.1,4.2 2.6,-0.3 5.6,1.2 2.7,11.3 z"
           id="path2-5"
           style="fill:#6f6f0c;fill-opacity:1" />
        <path
           d="m 187.8,130.75 h 109.6 c 11,0 19.9,-8.9 19.9,-19.9 v -13.5 c 0,-11 -8.9,-19.9 -19.9,-19.9 h -6.2 v -8.5 c 0,-8.4 -6.8,-15.3 -15.3,-15.3 h -66.6 c -8.4,0 -15.3,6.8 -15.3,15.3 v 8.5 h -6.2 c -11,0 -19.9,8.9 -19.9,19.9 v 13.5 c 0,11 8.9,19.9 19.9,19.9 z"
           id="path4"
           style="fill:#6f6f0c;fill-opacity:1" />
        <path
           d="m 429.4,105.85 h -93.6 v 5 c 0,21.2 -17.2,38.4 -38.4,38.4 H 187.8 c -21.2,0 -38.4,-17.2 -38.4,-38.4 v -5 H 55.8 c -30.8,0 -55.8,25 -55.8,55.8 v 214.1 c 0,30.8 25,55.8 55.8,55.8 h 373.6 c 30.8,0 55.8,-25 55.8,-55.8 v -214.2 c 0,-30.8 -25,-55.7 -55.8,-55.7 z m -292.8,266.4 c -56,0 -101.4,-45.4 -101.4,-101.4 0,-56 45.4,-101.4 101.4,-101.4 56,0 101.4,45.4 101.4,101.4 0,56 -45.4,101.4 -101.4,101.4 z m 294.1,-49.4 H 267.9 v -20.8 h 162.8 z m 0,-43.8 H 267.9 v -20.8 h 162.8 z m 0,-43.8 H 267.9 v -20.8 h 162.8 z"
           id="path6"
           style="fill:#6f6f0c;fill-opacity:1" />
      </g>
    </g>
    <g
       id="g12"
       transform="matrix(0.0482024,0,0,0.0482024,-35.376855,2.8071859)"
       style="fill:#000000;fill-opacity:1" />
    <g
       id="g14"
       transform="matrix(0.0482024,0,0,0.0482024,-35.376855,2.8071859)"
       style="fill:#000000;fill-opacity:1" />
    <g
       id="g16"
       transform="matrix(0.0482024,0,0,0.0482024,-35.376855,2.8071859)"
       style="fill:#000000;fill-opacity:1" />
    <g
       id="g18"
       transform="matrix(0.0482024,0,0,0.0482024,-35.376855,2.8071859)"
       style="fill:#000000;fill-opacity:1" />
    <g
       id="g20"
       transform="matrix(0.0482024,0,0,0.0482024,-35.376855,2.8071859)"
       style="fill:#000000;fill-opacity:1" />
    <g
       id="g22"
       transform="matrix(0.0482024,0,0,0.0482024,-35.376855,2.8071859)"
       style="fill:#000000;fill-opacity:1" />
    <g
       id="g24"
       transform="matrix(0.0482024,0,0,0.0482024,-35.376855,2.8071859)"
       style="fill:#000000;fill-opacity:1" />
    <g
       id="g26"
       transform="matrix(0.0482024,0,0,0.0482024,-35.376855,2.8071859)"
       style="fill:#000000;fill-opacity:1" />
    <g
       id="g28"
       transform="matrix(0.0482024,0,0,0.0482024,-35.376855,2.8071859)"
       style="fill:#000000;fill-opacity:1" />
    <g
       id="g30"
       transform="matrix(0.0482024,0,0,0.0482024,-35.376855,2.8071859)"
       style="fill:#000000;fill-opacity:1" />
    <g
       id="g32"
       transform="matrix(0.0482024,0,0,0.0482024,-35.376855,2.8071859)"
       style="fill:#000000;fill-opacity:1" />
    <g
       id="g34"
       transform="matrix(0.0482024,0,0,0.0482024,-35.376855,2.8071859)"
       style="fill:#000000;fill-opacity:1" />
    <g
       id="g36"
       transform="matrix(0.0482024,0,0,0.0482024,-35.376855,2.8071859)"
       style="fill:#000000;fill-opacity:1" />
    <g
       id="g38"
       transform="matrix(0.0482024,0,0,0.0482024,-35.376855,2.8071859)"
       style="fill:#000000;fill-opacity:1" />
    <g
       id="g40"
       transform="matrix(0.0482024,0,0,0.0482024,-35.376855,2.8071859)"
       style="fill:#000000;fill-opacity:1" />
  </g>
  <g
     transform="matrix(0.95879878,0,0,0.95879878,-871.34292,-378.35028)"
     id="g893" />
</svg>
