<?xml version="1.0" encoding="UTF-8"?>
<svg width="40" height="40" version="1.1" viewBox="0 0 40 40" xmlns="http://www.w3.org/2000/svg" xmlns:cc="http://creativecommons.org/ns#" xmlns:dc="http://purl.org/dc/elements/1.1/" xmlns:rdf="http://www.w3.org/1999/02/22-rdf-syntax-ns#"><metadata><rdf:RDF><cc:Work rdf:about=""><dc:format>image/svg+xml</dc:format><dc:type rdf:resource="http://purl.org/dc/dcmitype/StillImage"/><dc:title/></cc:Work></rdf:RDF></metadata><defs><mask id="c" fill="#ffffff"><path d="m0 0h313.3v159.86h-313.3z" fill="#fff" fill-rule="evenodd"/></mask></defs><mask id="a" fill="#ffffff"><path d="m0 0h313.3v159.86h-313.3z" fill="#fff" fill-rule="evenodd"/></mask><mask id="b" fill="#ffffff"><path d="m0 0h313.3v159.86h-313.3z" fill="#fff" fill-rule="evenodd"/></mask><g transform="matrix(.082965 0 0 .082965 -.62329 -8.2534)"><g transform="matrix(12.053 0 0 12.053 -501.92 100.3)"><g transform="matrix(.49527 0 0 .49527 5.0758 3.2126)"><g transform="matrix(1.7758,0,0,1.7758,-164.24,-70.425)"><g transform="translate(145.07 88.093)" fill="#eaed8c" stroke-width="3.24"><polygon class="st0" transform="matrix(.72255 0 0 .7031 -28.717 -125.97)" points="32.9 118.6 55.7 105.5 78.4 118.6 78.4 144.9 55.7 158 32.9 144.9" fill="#eaed8c"/></g><g transform="matrix(.15831 0 0 .15831 132.16 18.72)" fill="#005e20" fill-rule="evenodd"><g transform="matrix(1.0777,0,0,-1.0777,-10.799,451.79)"><g transform="matrix(.94489 0 0 .94489 8.6963 2.7018)" fill="#6f6f0c" mask="url(#c)"><path transform="rotate(35,137.93,151.55)" d="m203.46 95.688c6.9363 0 12.559-14.809 12.559-33.077s-5.623-33.077-12.559-33.077-12.559 14.809-12.559 33.077 5.623 33.077 12.559 33.077z"/><path transform="matrix(-.81915 .57358 .57358 .81915 58.085 47.705)" d="m30.142 95.688c6.9363 0 12.559-14.809 12.559-33.077s-5.623-33.077-12.559-33.077c-6.9363 0-12.559 14.809-12.559 33.077s5.623 33.077 12.559 33.077z"/><path d="m153.24 119.95c-6.9363 0-12.559-14.809-12.559-33.077s5.623-33.077 12.559-33.077c6.9363 0 12.559 14.809 12.559 33.077s-5.623 33.077-12.559 33.077z"/></g><path transform="matrix(.94489 0 0 .94489 8.6963 2.7018)" d="m251.47 173.1c-20.23-33.61-56.89-56.068-98.756-56.068-40.721 0-76.516 21.246-97.059 53.335" fill="none" mask="url(#c)" stroke="#6f6f0c" stroke-width="19.999"/></g></g></g></g></g><path transform="matrix(1.6755 0 0 1.9716 -29.072 19.774)" d="m230.54 86.205-71.615 124.04-71.615-124.04z" fill="#6f6f0c" stop-color="#000000" stroke="#6f6f0c" stroke-miterlimit="2.5" stroke-width="3"/><g fill="#eaed8c"><rect x="208.24" y="236.92" width="14.665" height="14.665" stop-color="#000000"/><rect x="230.24" y="236.92" width="14.665" height="14.665" stop-color="#000000"/><rect x="252.24" y="236.92" width="14.665" height="14.665" stop-color="#000000"/><rect x="208.24" y="258.92" width="14.665" height="14.665" stop-color="#000000"/><rect x="230.24" y="258.92" width="14.665" height="14.665" stop-color="#000000"/><rect x="252.24" y="258.92" width="14.665" height="14.665" stop-color="#000000"/><rect x="208.24" y="280.92" width="14.665" height="14.665" stop-color="#000000"/><rect x="230.24" y="280.92" width="14.665" height="14.665" stop-color="#000000"/><rect x="252.24" y="280.92" width="14.665" height="14.665" stop-color="#000000"/><rect x="230.24" y="302.92" width="14.665" height="14.665" stop-color="#000000"/></g></g></svg>
