<?xml version="1.0" encoding="UTF-8" standalone="no"?>
<svg
   xmlns:dc="http://purl.org/dc/elements/1.1/"
   xmlns:cc="http://creativecommons.org/ns#"
   xmlns:rdf="http://www.w3.org/1999/02/22-rdf-syntax-ns#"
   xmlns:svg="http://www.w3.org/2000/svg"
   xmlns="http://www.w3.org/2000/svg"
   xmlns:sodipodi="http://sodipodi.sourceforge.net/DTD/sodipodi-0.dtd"
   xmlns:inkscape="http://www.inkscape.org/namespaces/inkscape"
   height="40"
   viewBox="0 0 60 40"
   width="60"
   version="1.1"
   id="svg36"
   sodipodi:docname="cluster-logging.svg"
   inkscape:version="1.0.1 (3bc2e813f5, 2020-09-07)">
  <sodipodi:namedview
     pagecolor="#ffffff"
     bordercolor="#666666"
     borderopacity="1"
     objecttolerance="10"
     gridtolerance="10"
     guidetolerance="10"
     inkscape:pageopacity="0"
     inkscape:pageshadow="2"
     inkscape:window-width="1920"
     inkscape:window-height="1016"
     id="namedview191"
     showgrid="false"
     inkscape:zoom="2.4812501"
     inkscape:cx="-119.51108"
     inkscape:cy="-20.457838"
     inkscape:window-x="0"
     inkscape:window-y="0"
     inkscape:window-maximized="1"
     inkscape:current-layer="g1042"
     inkscape:document-rotation="0" />
  <metadata
     id="metadata42">
    <rdf:RDF>
      <cc:Work
         rdf:about="">
        <dc:format>image/svg+xml</dc:format>
        <dc:type
           rdf:resource="http://purl.org/dc/dcmitype/StillImage" />
        <dc:title />
      </cc:Work>
    </rdf:RDF>
  </metadata>
  <defs
     id="defs40">
    <mask
       id="a-1"
       fill="#ffffff">
      <path
         d="M 0,0 H 313.30315 V 159.86486 H 0 Z"
         fill="#ffffff"
         fill-rule="evenodd"
         id="path2-9" />
    </mask>
    <mask
       id="mask865"
       fill="#ffffff">
      <path
         d="M 0,0 H 313.30315 V 159.86486 H 0 Z"
         fill="#ffffff"
         fill-rule="evenodd"
         id="path863" />
    </mask>
  </defs>
  <mask
     id="a"
     fill="#ffffff">
    <path
       d="M 0,0 H 313.30315 V 159.86486 H 0 Z"
       fill="#ffffff"
       fill-rule="evenodd"
       id="path2" />
  </mask>
  <mask
     id="b"
     fill="#ffffff">
    <path
       d="M 0,0 H 313.30315 V 159.86486 H 0 Z"
       fill="#ffffff"
       fill-rule="evenodd"
       id="path5" />
  </mask>
  <g
     id="g1042"
     style="display:inline">
    <g
       id="g994"
       transform="matrix(0.08667043,0,0,0.08667043,54.837532,-43.975856)"
       style="display:inline">
      <path
         id="path990"
         style="fill:#000e44;fill-opacity:1;fill-rule:evenodd;stroke:none;stroke-width:3.14747"
         d="m 56.695351,510.77372 -107.53235,84.40183 -79.398391,-66.27467 61.189259,82.84335 -54.627399,74.39502 72.836531,-52.98696 102.528945,91.04567 -81.03891,-107.53235 z" />
    </g>
    <circle
       style="opacity:1;fill:#ababf7;fill-opacity:1;stroke:none;stroke-width:0.308165;stroke-miterlimit:2.5;stroke-opacity:1;stop-color:#000000"
       id="path912"
       cx="16.627409"
       cy="16.633268"
       r="16.433828" />
    <g
       fill="none"
       fill-rule="evenodd"
       transform="matrix(0.15069337,0,0,0.15069337,-6.1976669,-20.880758)"
       id="g1008">
      <g
         transform="matrix(0.92863152,0,0,-0.92863152,9.2718211,454.1644)"
         id="g1006">
        <g
           fill="#0f1689"
           mask="url(#a-1)"
           id="g1002"
           style="fill:#6f0f0c;fill-opacity:1"
           transform="matrix(0.94489362,0,0,0.94489362,8.6962507,2.7018401)">
          <path
             d="m 203.46068,95.687543 c 6.93631,0 12.5593,-14.80922 12.5593,-33.077318 0,-18.268097 -5.62299,-33.077317 -12.5593,-33.077317 -6.93631,0 -12.55931,14.80922 -12.55931,33.077317 0,18.268098 5.62299,33.077318 12.55931,33.077318 z"
             transform="rotate(35,137.93117,151.55002)"
             id="path996"
             style="fill:#0f0c6f;fill-opacity:1" />
          <path
             d="m 30.142322,95.687543 c 6.936311,0 12.559301,-14.80922 12.559301,-33.077318 0,-18.268097 -5.62299,-33.077317 -12.559301,-33.077317 -6.93631,0 -12.559301,14.80922 -12.559301,33.077317 0,18.268098 5.622991,33.077318 12.559301,33.077318 z"
             transform="matrix(-0.81915204,0.57357644,0.57357644,0.81915204,58.084611,47.704768)"
             id="path998"
             style="fill:#0f0c6f;fill-opacity:1" />
          <path
             d="m 116.73282,66.275268 c 6.93631,0 12.5593,-14.80922 12.5593,-33.077318 0,-18.268097 -5.62299,-33.07731673 -12.55931,-33.07731673 -6.93631,0 -12.5593,14.80921973 -12.5593,33.07731673 0,18.268098 5.62299,33.077318 12.55931,33.077318 z"
             transform="matrix(-1,0,0,1,272.62852,53.670762)"
             id="path1000"
             style="fill:#0f0c6f;fill-opacity:1" />
        </g>
        <path
           d="m 251.46701,173.09985 c -20.23008,-33.60997 -56.88957,-56.06791 -98.75578,-56.06791 -40.7208,0 -76.515877,21.2459 -97.058696,53.33459"
           mask="url(#a-1)"
           stroke="#0f1689"
           stroke-width="20"
           id="path1004"
           style="stroke:#0f0c6f;stroke-opacity:1"
           transform="matrix(0.94489362,0,0,0.94489362,8.6962507,2.7018401)" />
      </g>
    </g>
    <g
       id="g1480" />
    <g
       id="g26"
       transform="matrix(0.03653614,0,0,-0.03653614,-34.467343,26.918953)" />
    <g
       id="g28"
       transform="matrix(0.03653614,0,0,-0.03653614,-34.467343,26.918953)" />
    <g
       id="g30"
       transform="matrix(0.03653614,0,0,-0.03653614,-34.467343,26.918953)" />
    <g
       id="g32"
       transform="matrix(0.03653614,0,0,-0.03653614,-34.467343,26.918953)" />
    <g
       id="g34"
       transform="matrix(0.03653614,0,0,-0.03653614,-34.467343,26.918953)" />
    <g
       id="g36"
       transform="matrix(0.03653614,0,0,-0.03653614,-34.467343,26.918953)" />
    <g
       id="g38"
       transform="matrix(0.03653614,0,0,-0.03653614,-34.467343,26.918953)" />
    <g
       id="g40"
       transform="matrix(0.03653614,0,0,-0.03653614,-34.467343,26.918953)" />
    <g
       id="g42"
       transform="matrix(0.03653614,0,0,-0.03653614,-34.467343,26.918953)" />
    <g
       id="g44"
       transform="matrix(0.03653614,0,0,-0.03653614,-34.467343,26.918953)" />
    <g
       id="g46"
       transform="matrix(0.03653614,0,0,-0.03653614,-34.467343,26.918953)" />
    <g
       id="g48"
       transform="matrix(0.03653614,0,0,-0.03653614,-34.467343,26.918953)" />
    <g
       id="g50"
       transform="matrix(0.03653614,0,0,-0.03653614,-34.467343,26.918953)" />
    <g
       id="g52"
       transform="matrix(0.03653614,0,0,-0.03653614,-34.467343,26.918953)" />
    <g
       id="g54"
       transform="matrix(0.03653614,0,0,-0.03653614,-34.467343,26.918953)" />
    <g
       id="g2188"
       transform="translate(41.28755,2)">
      <path
         style="fill:#0f0c6f;fill-opacity:1;stroke:none;stroke-width:1px;stroke-linecap:butt;stroke-linejoin:miter;stroke-opacity:1"
         d="m -28.060453,16.120906 0.05038,2.871537 2.544081,1.536524 3.324937,0.377833 4.231738,-0.302267 3.173803,-1.561712 0.07557,-2.896726 -2.040302,1.284635 -2.921915,0.654912 -4.256926,-0.151134 -2.821159,-0.6801 z"
         id="path2165" />
      <g
         id="g2703"
         transform="matrix(0.35150309,0,0,0.35150309,-36.556442,1.9501809)">
        <path
           d="m 19,13 c -3.309,0 -6,2.691 -6,6 0,3.309 2.691,6 6,6 3.309,0 6,-2.691 6,-6 0,-3.309 -2.691,-6 -6,-6 z m 0,10 c -2.206,0 -4,-1.794 -4,-4 0,-2.206 1.794,-4 4,-4 2.206,0 4,1.794 4,4 0,2.206 -1.794,4 -4,4 z"
           id="path17"
           style="fill:#0f0c6f;fill-opacity:1" />
        <path
           d="m 50.68,40.375 0.307,1.977 c 0.683,-0.106 1.354,-0.226 2.015,-0.36 l -0.398,-1.96 c -0.63,0.127 -1.273,0.241 -1.924,0.343 z"
           id="path19"
           style="fill:#0f0c6f;fill-opacity:1" />
        <path
           d="m 46.785,40.817 0.148,1.994 c 0.682,-0.051 1.359,-0.114 2.028,-0.189 l -0.223,-1.987 c -0.644,0.072 -1.297,0.133 -1.953,0.182 z"
           id="path21"
           style="fill:#0f0c6f;fill-opacity:1" />
        <path
           d="m 54.5,39.595 0.502,1.936 c 0.68,-0.176 1.34,-0.369 1.979,-0.578 L 56.36,39.052 c -0.6,0.196 -1.221,0.377 -1.86,0.543 z"
           id="path23"
           style="fill:#0f0c6f;fill-opacity:1" />
        <path
           d="m 46.833,56.817 0.148,1.994 c 0.682,-0.051 1.359,-0.114 2.028,-0.189 l -0.223,-1.987 c -0.644,0.072 -1.297,0.133 -1.953,0.182 z"
           id="path25"
           style="fill:#0f0c6f;fill-opacity:1" />
        <path
           d="m 50.728,56.375 0.307,1.977 c 0.683,-0.106 1.354,-0.226 2.015,-0.36 l -0.398,-1.96 c -0.631,0.127 -1.273,0.241 -1.924,0.343 z"
           id="path27"
           style="fill:#0f0c6f;fill-opacity:1" />
        <path
           d="m 54.548,55.595 0.502,1.936 c 0.68,-0.176 1.34,-0.369 1.979,-0.578 l -0.621,-1.901 c -0.6,0.196 -1.221,0.377 -1.86,0.543 z"
           id="path29"
           style="fill:#0f0c6f;fill-opacity:1" />
        <path
           d="M 35.104,48.422 C 34.452,48.325 33.809,48.214 33.179,48.09 l -0.387,1.962 c 0.659,0.13 1.333,0.246 2.017,0.348 z"
           id="path31"
           style="fill:#ffffff;fill-opacity:1" />
        <path
           d="m 39.001,48.84 c -0.655,-0.045 -1.308,-0.101 -1.953,-0.17 l -0.213,1.988 c 0.671,0.072 1.349,0.13 2.031,0.177 z"
           id="path33"
           style="fill:#ffffff;fill-opacity:1" />
        <path
           d="m 31.279,47.665 c -0.64,-0.162 -1.262,-0.339 -1.863,-0.532 l -0.609,1.905 c 0.641,0.205 1.302,0.394 1.982,0.565 z"
           id="path35"
           style="fill:#ffffff;fill-opacity:1" />
        <path
           d="m 42.993,34.997 h 0.175 c 3.481,0 6.759,-0.312 9.246,-0.881 3.085,-0.706 4.587,-1.718 4.591,-3.093 0.012,-3.902 -12.556,-4.053 -13.988,-4.057 -3.501,0.008 -6.892,0.302 -9.421,0.88 -3.085,0.706 -4.587,1.718 -4.591,3.093 -0.012,3.903 12.556,4.054 13.988,4.058 z m 0.018,-6.03 c 6.949,0.021 11.243,1.278 11.942,2.051 -0.697,0.762 -4.933,1.979 -11.78,1.979 -0.058,0 -0.116,0 -0.174,0 -6.948,-0.021 -11.243,-1.279 -11.942,-2.051 0.703,-0.768 5.027,-1.991 11.954,-1.979 z"
           id="path37"
           style="fill:#0f0c6f;fill-opacity:1" />
        <path
           d="m 62.955,47.027 0.048,-16 C 63.01,28.708 60.808,26.61 56.802,25.12 53.11,23.747 48.218,22.982 43.028,22.967 c -2.964,-0.014 -5.988,0.24 -8.759,0.745 0.031,-0.1 0.068,-0.199 0.097,-0.3 L 37,22.792 v -7.584 l -2.635,-0.62 C 34.033,13.429 33.57,12.313 32.984,11.256 L 34.41,8.954 29.047,3.591 26.744,5.016 C 25.688,4.43 24.572,3.967 23.412,3.635 L 22.792,1 h -7.584 l -0.62,2.634 c -1.16,0.333 -2.276,0.795 -3.332,1.381 L 8.953,3.591 3.59,8.954 5.016,11.256 C 4.43,12.313 3.967,13.429 3.635,14.588 L 1,15.208 v 7.584 l 2.635,0.62 c 0.332,1.159 0.795,2.275 1.381,3.332 l -1.426,2.302 5.363,5.363 2.303,-1.425 c 1.056,0.586 2.172,1.049 3.332,1.381 L 15.208,37 h 7.777 l -0.006,1.906 v 0.005 l -0.048,15.995 c -0.007,2.319 2.195,4.417 6.201,5.907 3.692,1.373 8.584,2.138 13.774,2.154 h 0.152 c 9.65,0 19.856,-2.771 19.872,-7.94 l 0.024,-7.995 c 10e-4,-0.002 10e-4,-0.003 10e-4,-0.005 z m -1.976,-8.006 c -0.009,2.824 -7.335,5.946 -17.856,5.946 -0.054,0 -0.107,0 -0.161,0 C 32.357,44.935 24.976,41.752 24.98,38.914 l 0.013,-4.417 c 1.032,0.868 2.433,1.654 4.212,2.316 3.693,1.373 8.585,2.138 13.775,2.153 h 0.152 c 7.061,0 14.414,-1.485 17.86,-4.306 z m -18.024,7.946 h 0.152 c 7.061,0 14.414,-1.485 17.86,-4.306 l -0.013,4.362 c -0.012,2.823 -7.338,5.944 -17.857,5.944 -0.054,0 -0.107,0 -0.161,0 -4.96,-0.015 -9.606,-0.735 -13.083,-2.028 -3.071,-1.142 -4.902,-2.647 -4.898,-4.026 l 0.013,-4.36 c 3.454,2.861 10.879,4.392 17.987,4.414 z m 0.066,-22 c 4.96,0.015 9.606,0.735 13.083,2.028 3.071,1.142 4.902,2.647 4.898,4.026 -0.009,2.824 -7.335,5.946 -17.856,5.946 -0.054,0 -0.107,0 -0.161,0 -4.96,-0.015 -9.606,-0.735 -13.084,-2.028 -3.071,-1.142 -4.902,-2.647 -4.898,-4.026 0.009,-2.824 7.336,-5.946 17.857,-5.946 z M 19,29 C 13.486,29 9,24.514 9,19 9,13.486 13.486,9 19,9 c 5.514,0 10,4.486 10,10 0,5.514 -4.486,10 -10,10 z m -2.208,6 -0.535,-2.272 -0.595,-0.146 C 14.285,32.245 12.972,31.7 11.758,30.963 L 11.235,30.645 9.249,31.874 6.126,28.751 7.355,26.765 7.037,26.241 C 6.301,25.026 5.756,23.713 5.42,22.337 L 5.274,21.742 3,21.208 V 16.792 L 5.273,16.257 5.419,15.662 C 5.755,14.287 6.3,12.973 7.036,11.758 L 7.354,11.234 6.125,9.248 9.248,6.125 11.234,7.354 11.757,7.036 C 12.971,6.299 14.284,5.755 15.661,5.417 L 16.256,5.271 16.792,3 h 4.416 l 0.535,2.272 0.595,0.146 c 1.377,0.337 2.69,0.882 3.904,1.619 l 0.523,0.318 1.986,-1.229 3.123,3.123 -1.229,1.986 0.318,0.524 c 0.736,1.215 1.281,2.528 1.617,3.904 l 0.146,0.595 2.274,0.534 v 4.416 l -2.273,0.535 -0.146,0.596 c -0.155,0.635 -0.369,1.259 -0.613,1.868 -0.903,0.225 -1.767,0.479 -2.573,0.764 C 30.41,23.21 31,21.174 31,19 31,12.383 25.617,7 19,7 12.383,7 7,12.383 7,19 c 0,6.617 5.383,12 12,12 1.428,0 2.792,-0.264 4.063,-0.723 -0.035,0.206 -0.06,0.415 -0.06,0.63 L 22.991,35 Z m 26.281,25.967 c -0.054,0 -0.107,0 -0.161,0 -4.96,-0.015 -9.606,-0.735 -13.083,-2.028 -3.071,-1.142 -4.902,-2.647 -4.898,-4.026 l 0.013,-4.416 c 1.032,0.868 2.433,1.655 4.212,2.317 3.692,1.373 8.584,2.138 13.774,2.154 h 0.152 c 7.061,0 14.414,-1.485 17.861,-4.306 l -0.013,4.36 c -0.008,2.823 -7.335,5.945 -17.857,5.945 z"
           id="path39"
           style="fill:#0f0c6f;fill-opacity:1" />
        <path
           d="m 61,11 h 2 v 2 h -2 z"
           id="path41"
           style="fill:#0f0c6f;fill-opacity:1" />
        <path
           d="M 54.414,13 H 59 v -2 h -5.414 l -8,8 H 39 v 2 h 7.414 z"
           id="path43"
           style="fill:#0f0c6f;fill-opacity:1" />
        <path
           d="M 52.414,9 H 63 V 7 H 51.586 l -8,8 H 39 v 2 h 5.414 z"
           id="path45"
           style="fill:#0f0c6f;fill-opacity:1" />
        <path
           d="m 11,61 h 2 v 2 h -2 z"
           id="path47"
           style="fill:#0f0c6f;fill-opacity:1" />
        <path
           d="m 19,45.586 -8,8 V 59 h 2 v -4.586 l 8,-8 V 39 h -2 z"
           id="path49"
           style="fill:#0f0c6f;fill-opacity:1" />
        <path
           d="m 17,39 h -2 v 4.586 l -8,8 V 63 H 9 V 52.414 l 8,-8 z"
           id="path51"
           style="fill:#0f0c6f;fill-opacity:1" />
      </g>
      <path
         style="fill:#0f0c6f;fill-opacity:1;stroke:none;stroke-width:1px;stroke-linecap:butt;stroke-linejoin:miter;stroke-opacity:1"
         d="m -32.619646,4.1561712 -0.70529,-0.4785894 -1.460957,1.5365238 -0.0074,0.6925941 -0.21929,1.4736527 -0.93199,0.2770781 v 2.09068 l 0.881612,0.2015114 0.554156,1.3602011 -0.327456,0.730479 1.335013,1.435768 0.780856,-0.251889 1.460957,0.554156 0.352645,0.93199 2.670025,-0.176322 0.151134,-2.166247 -2.015114,0.201511 -2.191435,-0.831234 -1.007557,-1.209068 -0.604534,-1.9143577 0.327456,-1.2846347 1.133501,-1.5617128 1.460957,-0.8564232 2.040302,-0.075567 1.561713,0.8312342 1.108313,1.4609572 0.277078,1.4357682 -0.176323,1.5365238 -0.705289,1.15869 1.964735,-0.604533 0.435151,-0.475341 0.622783,-0.5825943 -0.125944,-2.0403022 -0.831234,-0.2518891 -0.554157,-1.3098237 0.554157,-0.8564231 -1.536524,-1.4357682 -0.93199,0.4030226 -1.335013,-0.5037783 -0.151133,-0.8564231 -2.191436,-0.075567 -0.277078,0.9823677 z"
         id="path2163" />
    </g>
  </g>
  <g
     transform="matrix(0.95879878,0,0,0.95879878,-871.34292,-378.35028)"
     id="g893" />
</svg>
