<?xml version="1.0" encoding="UTF-8"?>
<svg width="40" height="40" version="1.1" viewBox="0 0 40 40" xmlns="http://www.w3.org/2000/svg" xmlns:cc="http://creativecommons.org/ns#" xmlns:dc="http://purl.org/dc/elements/1.1/" xmlns:rdf="http://www.w3.org/1999/02/22-rdf-syntax-ns#"><metadata><rdf:RDF><cc:Work rdf:about=""><dc:format>image/svg+xml</dc:format><dc:type rdf:resource="http://purl.org/dc/dcmitype/StillImage"/><dc:title/></cc:Work></rdf:RDF></metadata><defs><mask id="c" fill="#ffffff"><path d="m0 0h313.3v159.86h-313.3z" fill="#fff" fill-rule="evenodd"/></mask></defs><mask id="a" fill="#ffffff"><path d="m0 0h313.3v159.86h-313.3z" fill="#fff" fill-rule="evenodd"/></mask><mask id="b" fill="#ffffff"><path d="m0 0h313.3v159.86h-313.3z" fill="#fff" fill-rule="evenodd"/></mask><g><g transform="translate(.39981 .25505)"><g transform="matrix(.49527 0 0 .49527 5.0758 3.2126)"><g transform="matrix(1.7758,0,0,1.7758,-164.24,-70.425)"><g transform="translate(96.564,87.836)" fill="#66ff9a" stroke-width="3.24"><polygon class="st0" transform="matrix(.72255 0 0 .7031 -28.717 -125.97)" points="78.4 118.6 78.4 144.9 55.7 158 32.9 144.9 32.9 118.6 55.7 105.5" fill="#ababf7"/></g><g transform="matrix(.15831 0 0 .15831 83.649 18.463)" fill="#005e20" fill-rule="evenodd"><g transform="matrix(1.0777,0,0,-1.0777,-10.799,451.79)"><g transform="matrix(.94489 0 0 .94489 8.6963 2.7018)" fill="#0f0c6f" mask="url(#c)"><path transform="rotate(35,137.93,151.55)" d="m203.46 95.688c6.9363 0 12.559-14.809 12.559-33.077s-5.623-33.077-12.559-33.077-12.559 14.809-12.559 33.077 5.623 33.077 12.559 33.077z"/><path transform="matrix(-.81915 .57358 .57358 .81915 58.085 47.705)" d="m30.142 95.688c6.9363 0 12.559-14.809 12.559-33.077s-5.623-33.077-12.559-33.077c-6.9363 0-12.559 14.809-12.559 33.077s5.623 33.077 12.559 33.077z"/><path d="m153.24 119.95c-6.9363 0-12.559-14.809-12.559-33.077s5.623-33.077 12.559-33.077c6.9363 0 12.559 14.809 12.559 33.077s-5.623 33.077-12.559 33.077z"/></g><path transform="matrix(.94489 0 0 .94489 8.6963 2.7018)" d="m251.47 173.1c-20.23-33.61-56.89-56.068-98.756-56.068-40.721 0-76.516 21.246-97.059 53.335" fill="none" mask="url(#c)" stroke="#0f0c6f" stroke-width="19.999"/></g></g></g></g></g><path class="cls-1" d="m19.138 4.0199c-6.4228 0-11.63 5.2067-11.63 11.63 0 6.4228 5.2067 11.63 11.63 11.63 6.4228 0 11.63-5.2067 11.63-11.63 0-6.4228-5.2067-11.63-11.63-11.63zm7.871 13.774c0.0073 0.7281-0.55191 1.3367-1.2779 1.3909-1.0043 0.12052-2.0086 0.25107-3.0128 0.27618-1.8052 0.06026-3.6154 0.10294-5.4231 0.05775-1.5717-0.04017-3.7083-0.14562-4.7076-0.33141-0.99926-0.18579-1.3231-0.63521-1.3307-1.4813-0.01347-1.5064-0.01347-3.0128 0-4.5193 0-0.88126 0.60257-1.4637 1.5516-1.5416 0.52976-0.04267 1.0595-0.06528 1.5918-0.07784 0.48456-0.01255 0.67788 0.18077 0.6804 0.67036v2.6563 0.34899h8.102v-0.29626-2.7417c0-0.45193 0.19584-0.65529 0.65027-0.63772 0.64274 0.02762 1.2855 0.05273 1.9207 0.13056 0.70713 0.09821 1.2388 0.69472 1.2554 1.4085 0.01343 1.5583 0.01343 3.1208 0 4.6875z" fill="#0f0c6f" stroke-width=".14769"/></g></svg>
