<?xml version="1.0" encoding="UTF-8"?>
<svg width="60" height="40" version="1.1" viewBox="0 0 60 40" xmlns="http://www.w3.org/2000/svg">
<defs>
<mask id="c" fill="#ffffff">
<path d="m0 0h313.3v159.86h-313.3z" fill="#fff" fill-rule="evenodd"/>
</mask>
</defs>
<mask id="a" fill="#ffffff">
<path d="m0 0h313.3v159.86h-313.3z" fill="#fff" fill-rule="evenodd"/>
</mask>
<mask id="b" fill="#ffffff">
<path d="m0 0h313.3v159.86h-313.3z" fill="#fff" fill-rule="evenodd"/>
</mask>
<g>
<circle cx="16.627" cy="16.633" r="16.434" fill="#ababf7" stop-color="#000000"/>
<g transform="matrix(.08667 0 0 .08667 54.838 -43.976)">
<path d="m56.695 510.77-107.53 84.402-79.398-66.275 61.189 82.843-54.627 74.395 72.837-52.987 102.53 91.046-81.039-107.53z" fill="#000e44" fill-rule="evenodd"/>
</g>
<g transform="matrix(.15069 0 0 .15069 -6.1977 -20.881)" fill="none" fill-rule="evenodd">
<g transform="matrix(.92863 0 0 -.92863 9.2718 454.16)">
<g transform="matrix(.94489 0 0 .94489 8.6963 2.7018)" fill="#0f0c6f" mask="url(#c)">
<path transform="rotate(35 137.93 151.55)" d="m203.46 95.688c6.9363 0 12.559-14.809 12.559-33.077 0-18.268-5.623-33.077-12.559-33.077s-12.559 14.809-12.559 33.077c0 18.268 5.623 33.077 12.559 33.077z"/>
<path transform="matrix(-.81915 .57358 .57358 .81915 58.085 47.705)" d="m30.142 95.688c6.9363 0 12.559-14.809 12.559-33.077 0-18.268-5.623-33.077-12.559-33.077-6.9363 0-12.559 14.809-12.559 33.077 0 18.268 5.623 33.077 12.559 33.077z"/>
<path transform="matrix(-1 0 0 1 272.63 53.671)" d="m116.73 66.275c6.9363 0 12.559-14.809 12.559-33.077 0-18.268-5.623-33.077-12.559-33.077-6.9363 0-12.559 14.809-12.559 33.077 0 18.268 5.623 33.077 12.559 33.077z"/>
</g>
<path transform="matrix(.94489 0 0 .94489 8.6963 2.7018)" d="m251.47 173.1c-20.23-33.61-56.89-56.068-98.756-56.068-40.721 0-76.516 21.246-97.059 53.335" mask="url(#c)" stroke="#0f0c6f" stroke-width="20"/>
</g>
</g>
<g transform="translate(40.06 -1.1788)" stroke-width=".20274">
<path d="m-22.97 31.321-0.76696-0.26214s0.09367-3.91-1.3097-4.1906c-0.93524-1.0853 0.15003-46.024 3.5175-0.14982 0 0-1.1601 0.57983-1.3659 1.5716-0.22463 0.97295-0.07501 3.031-0.07501 3.031z" fill="#fff"/>
<path d="m-22.97 31.321-0.76696-0.26214s0.09367-3.91-1.3097-4.1906c-0.93524-1.0853 0.15003-46.024 3.5175-0.14982 0 0-1.1601 0.57983-1.3659 1.5716-0.22463 0.97295-0.07501 3.031-0.07501 3.031z" fill="#716def"/>
<path d="m-22.558 27.541s6.7168-4.4155 5.1449-13.602c-1.5153-6.6788-5.0888-8.8678-5.4817-9.7098-0.43021-0.59869-0.84198-1.6462-0.84198-1.6462l0.28079 18.578c0 0.01886-0.58004 5.6876 0.89814 6.3802" fill="#fff"/>
<path d="m-22.558 27.541s6.7168-4.4155 5.1449-13.602c-1.5153-6.6788-5.0888-8.8678-5.4817-9.7098-0.43021-0.59869-0.84198-1.6462-0.84198-1.6462l0.28079 18.578c0 0.01886-0.58004 5.6876 0.89814 6.3802" fill="#0f0c6f"/>
<path d="m-24.13 27.784s-6.3052-4.3031-5.9309-11.88c0.3554-7.5772 4.8082-11.3 5.6688-11.974 0.56138-0.59869 0.58004-0.82332 0.61754-1.422 0.39291 0.84198 0.3181 12.591 0.37405 13.976 0.16827 5.332-0.29924 10.29-0.72946 11.3z" fill="#fff"/>
<path d="m-24.13 27.784s-6.3052-4.3031-5.9309-11.88c0.3554-7.5772 4.8082-11.3 5.6688-11.974 0.56138-0.59869 0.58004-0.82332 0.61754-1.422 0.39291 0.84198 0.3181 12.591 0.37405 13.976 0.16827 5.332-0.29924 10.29-0.72946 11.3z" fill="#4c48d9"/>
</g>
</g>
</svg>
