<?xml version="1.0" encoding="UTF-8" standalone="no"?>
<svg
   xmlns:dc="http://purl.org/dc/elements/1.1/"
   xmlns:cc="http://creativecommons.org/ns#"
   xmlns:rdf="http://www.w3.org/1999/02/22-rdf-syntax-ns#"
   xmlns:svg="http://www.w3.org/2000/svg"
   xmlns="http://www.w3.org/2000/svg"
   id="svg36"
   version="1.1"
   width="60"
   viewBox="0 0 60 40"
   height="40">
  <metadata
     id="metadata42">
    <rdf:RDF>
      <cc:Work
         rdf:about="">
        <dc:format>image/svg+xml</dc:format>
        <dc:type
           rdf:resource="http://purl.org/dc/dcmitype/StillImage" />
        <dc:title></dc:title>
      </cc:Work>
    </rdf:RDF>
  </metadata>
  <defs
     id="defs40">
    <mask
       fill="#ffffff"
       id="a-1">
      <path
         id="path2-9"
         fill-rule="evenodd"
         fill="#ffffff"
         d="M 0,0 H 313.30315 V 159.86486 H 0 Z" />
    </mask>
    <mask
       fill="#ffffff"
       id="mask865">
      <path
         id="path863"
         fill-rule="evenodd"
         fill="#ffffff"
         d="M 0,0 H 313.30315 V 159.86486 H 0 Z" />
    </mask>
    <linearGradient
       gradientUnits="userSpaceOnUse"
       y2="156.28"
       x2="347.32001"
       y1="156.28"
       x1="44.130001"
       id="linear-gradient">
      <stop
         id="stop4"
         stop-color="#2096da"
         offset="0" />
      <stop
         id="stop6"
         stop-color="#0067aa"
         offset="1" />
    </linearGradient>
  </defs>
  <mask
     fill="#ffffff"
     id="a">
    <path
       id="path2"
       fill-rule="evenodd"
       fill="#ffffff"
       d="M 0,0 H 313.30315 V 159.86486 H 0 Z" />
  </mask>
  <mask
     fill="#ffffff"
     id="b">
    <path
       id="path5"
       fill-rule="evenodd"
       fill="#ffffff"
       d="M 0,0 H 313.30315 V 159.86486 H 0 Z" />
  </mask>
  <g
     style="display:inline"
     id="g1042">
    <circle
       r="16.433828"
       cy="16.633268"
       cx="16.627409"
       id="path912"
       style="opacity:1;fill:#ababf7;fill-opacity:1;stroke:none;stroke-width:0.308165;stroke-miterlimit:2.5;stroke-opacity:1;stop-color:#000000" />
    <path
       id="path874"
       d="m 11.447991,21.387969 c 0.481009,0.03385 0.962026,0.07378 1.44473,0.100747 0.211615,0.01211 0.261752,0.08689 0.169971,0.288327 q -0.668829,1.459866 -1.325755,2.927551 c -0.08494,0.1789 -0.169964,0.243169 -0.380726,0.165877 -0.412172,-0.151983 -0.833688,-0.01301 -1.248417,0.04343 a 0.29659417,0.3030902 0 0 0 -0.2413556,0.25272 c -0.024684,0.138086 0.085023,0.22406 0.1912186,0.285715 0.10623,0.06166 0.248156,0.112901 0.360332,0.187589 0.480155,0.320462 0.611031,0.717345 0.424916,1.266209 -0.393471,1.187176 -0.393471,1.187176 -1.4625703,0.540177 l -0.424925,-0.26053 C 7.6288099,26.385072 7.4197509,25.956054 7.705298,24.41281 7.8871626,23.434067 8.4021643,22.61946 9.0531444,21.894296 9.5825951,21.30636 10.298162,21.361068 10.991629,21.367145 c 0.15042,0 0.300847,0.01912 0.451268,0.02954 z"
       class="cls-2"
       style="fill:#ababf7;fill-opacity:1;stroke:#0f0c6f;stroke-width:2.81673574;stroke-linecap:square;stroke-linejoin:miter;stroke-miterlimit:4;stroke-dasharray:none;stroke-opacity:1;paint-order:stroke fill markers" />
    <g
       style="display:inline"
       transform="matrix(0.08667043,0,0,0.08667043,54.837532,-43.975856)"
       id="g994">
      <path
         d="m 56.695351,510.77372 -107.53235,84.40183 -79.398391,-66.27467 61.189259,82.84335 -54.627399,74.39502 72.836531,-52.98696 102.528945,91.04567 -81.03891,-107.53235 z"
         style="fill:#000e44;fill-opacity:1;fill-rule:evenodd;stroke:none;stroke-width:3.14747"
         id="path990" />
    </g>
    <g
       id="g1008"
       transform="matrix(0.15069337,0,0,0.15069337,-6.1976669,-20.880758)"
       fill-rule="evenodd"
       fill="none">
      <g
         id="g1006"
         transform="matrix(0.92863152,0,0,-0.92863152,9.2718211,454.1644)">
        <g
           transform="matrix(0.94489362,0,0,0.94489362,8.6962507,2.7018401)"
           style="fill:#6f0f0c;fill-opacity:1"
           id="g1002"
           mask="url(#a-1)"
           fill="#0f1689">
          <path
             style="fill:#0f0c6f;fill-opacity:1"
             id="path996"
             transform="rotate(35,137.93117,151.55002)"
             d="m 203.46068,95.687543 c 6.93631,0 12.5593,-14.80922 12.5593,-33.077318 0,-18.268097 -5.62299,-33.077317 -12.5593,-33.077317 -6.93631,0 -12.55931,14.80922 -12.55931,33.077317 0,18.268098 5.62299,33.077318 12.55931,33.077318 z" />
          <path
             style="fill:#0f0c6f;fill-opacity:1"
             id="path998"
             transform="matrix(-0.81915204,0.57357644,0.57357644,0.81915204,58.084611,47.704768)"
             d="m 30.142322,95.687543 c 6.936311,0 12.559301,-14.80922 12.559301,-33.077318 0,-18.268097 -5.62299,-33.077317 -12.559301,-33.077317 -6.93631,0 -12.559301,14.80922 -12.559301,33.077317 0,18.268098 5.622991,33.077318 12.559301,33.077318 z" />
          <path
             style="fill:#0f0c6f;fill-opacity:1"
             id="path1000"
             transform="matrix(-1,0,0,1,272.62852,53.670762)"
             d="m 116.73282,66.275268 c 6.93631,0 12.5593,-14.80922 12.5593,-33.077318 0,-18.268097 -5.62299,-33.07731673 -12.55931,-33.07731673 -6.93631,0 -12.5593,14.80921973 -12.5593,33.07731673 0,18.268098 5.62299,33.077318 12.55931,33.077318 z" />
        </g>
        <path
           transform="matrix(0.94489362,0,0,0.94489362,8.6962507,2.7018401)"
           style="stroke:#0f0c6f;stroke-opacity:1"
           id="path1004"
           stroke-width="20"
           stroke="#0f1689"
           mask="url(#a-1)"
           d="m 251.46701,173.09985 c -20.23008,-33.60997 -56.88957,-56.06791 -98.75578,-56.06791 -40.7208,0 -76.515877,21.2459 -97.058696,53.33459" />
      </g>
    </g>
    <g
       id="g1480" />
    <g
       transform="matrix(0.03653614,0,0,-0.03653614,-34.467343,26.918953)"
       id="g26" />
    <g
       transform="matrix(0.03653614,0,0,-0.03653614,-34.467343,26.918953)"
       id="g28" />
    <g
       transform="matrix(0.03653614,0,0,-0.03653614,-34.467343,26.918953)"
       id="g30" />
    <g
       transform="matrix(0.03653614,0,0,-0.03653614,-34.467343,26.918953)"
       id="g32" />
    <g
       transform="matrix(0.03653614,0,0,-0.03653614,-34.467343,26.918953)"
       id="g34" />
    <g
       transform="matrix(0.03653614,0,0,-0.03653614,-34.467343,26.918953)"
       id="g36" />
    <g
       transform="matrix(0.03653614,0,0,-0.03653614,-34.467343,26.918953)"
       id="g38" />
    <g
       transform="matrix(0.03653614,0,0,-0.03653614,-34.467343,26.918953)"
       id="g40" />
    <g
       transform="matrix(0.03653614,0,0,-0.03653614,-34.467343,26.918953)"
       id="g42" />
    <g
       transform="matrix(0.03653614,0,0,-0.03653614,-34.467343,26.918953)"
       id="g44" />
    <g
       transform="matrix(0.03653614,0,0,-0.03653614,-34.467343,26.918953)"
       id="g46" />
    <g
       transform="matrix(0.03653614,0,0,-0.03653614,-34.467343,26.918953)"
       id="g48" />
    <g
       transform="matrix(0.03653614,0,0,-0.03653614,-34.467343,26.918953)"
       id="g50" />
    <g
       transform="matrix(0.03653614,0,0,-0.03653614,-34.467343,26.918953)"
       id="g52" />
    <g
       transform="matrix(0.03653614,0,0,-0.03653614,-34.467343,26.918953)"
       id="g54" />
    <path
       style="fill:#ababf7;fill-opacity:1;stroke:#0f0c6f;stroke-width:4.5;stroke-linecap:round;stroke-linejoin:miter;stroke-miterlimit:4;stroke-dasharray:none;stroke-opacity:1;paint-order:stroke markers fill"
       class="cls-2"
       d="m 14.636809,13.55546 c 0.429167,0.389936 0.800585,0.637839 1.171966,0.993899 0.432567,0.415123 0.725755,0.748549 0.66542,1.401625 -0.03227,0.435178 -0.19906,0.708393 -0.5474,0.960888 -0.903379,0.701708 -1.545859,0.876692 -2.631955,0.993066 -0.921226,0.09988 -1.984979,0.09421 -2.866266,-0.186276 -1.6325426,-0.521076 -3.2760593,-0.358215 -4.9026551,0.02739 -0.9934627,0.236213 -1.4154424,0.197651 -1.3415107,-0.82713 0.073081,-1.00394 0.3849778,-1.958366 0.6178407,-2.929293 0.03742,-0.158058 0.1138704,-0.173694 0.2617431,-0.153722 0.5515501,0.07208 1.529712,-0.461142 1.784665,-0.961374 0.054371,-0.105953 0.1291813,-0.247514 0.00793,-0.336089 -0.1215276,-0.08859 -0.218402,0.03905 -0.3050883,0.120712 -0.4011211,0.376911 -0.8311411,0.68608 -1.4149889,0.529754 -0.3288846,-0.08689 -0.3696761,-0.277896 -0.1589134,-0.539305 0.093484,-0.115503 0.1827174,-0.160662 0.302543,-0.06166 0.2320026,0.191055 0.4674125,0.211027 0.6951627,0.0081 0.2277627,-0.203184 0.20482,-0.468057 0.1334354,-0.728595 -0.1903679,-0.694769 -0.034868,-0.914483 0.6739236,-0.918828 0.302543,0 0.605086,-0.0095 0.9059253,0 0.7466727,0.03179 1.4767887,-0.230598 2.039618,-0.733007 C 10.601276,9.4565782 11.487659,8.7152023 12.387354,7.9914912 12.489308,7.9098997 12.65162,7.8455954 12.617626,7.678848 12.580206,7.4973445 12.406872,7.5407614 12.277692,7.5233924 11.956457,7.4791441 11.70745,7.3236501 11.620765,6.9971119 c -0.09263,-0.3473804 0.163173,-0.4976208 0.408772,-0.6287604 0.601689,-0.3218327 1.160369,-0.7214165 1.662291,-1.188916 0.348429,-0.3247969 0.799696,-0.419458 1.243314,-0.5115157 1.400541,-0.2883271 2.822319,-0.2605378 4.240699,-0.277906 0.250291,-0.018059 0.500267,0.039312 0.718965,0.1650061 -0.19461,0.204087 -0.449563,0.2249291 -0.645025,0.358672 -0.188237,0.1294562 -0.347532,0.2981585 -0.467413,0.4950175 -0.133422,0.214508 -0.274496,0.5106536 -0.02126,0.6548176 0.207363,0.1163739 0.326337,-0.1971399 0.409623,-0.3743084 0.187812,-0.4012183 0.509907,-0.6287602 0.886383,-0.8111345 0.130023,0.5818694 -0.156366,1.33308 -0.67222,1.7855424 -0.118983,0.1042115 -0.349289,0.1736944 -0.249859,0.3716965 0.09943,0.1980105 0.315297,0.1137705 0.48866,0.052955 0.764859,-0.2718295 1.475324,-1.1871755 1.27986,-1.9974395 -0.02469,-0.1024788 -0.112183,-0.2509865 0.03399,-0.3308819 0.10623,-0.057359 0.198862,0.047756 0.288095,0.09466 0.630584,0.3334861 1.110741,0.8571633 1.548412,1.4008129 1.434524,1.779466 2.967635,3.486846 4.050338,5.5381305 0.521801,0.988294 0.999411,1.997439 1.53566,2.977924 0.759757,1.383445 0.798844,2.802497 0.495458,4.297979 -0.390934,1.933171 -0.675695,3.195684 -1.859526,4.758027 -0.122374,0.161534 -0.547473,0.77828 -0.784578,0.701858 -0.169964,-0.05556 -0.209169,-0.236192 -0.255908,-0.449829 -0.370527,-1.696958 -0.461641,-3.416934 -0.193944,-5.154715 0.254954,-1.657005 0.416815,-2.912614 0.367529,-4.606097 0,-0.107685 -0.0034,-0.377413 -0.01781,-0.484236 -0.01273,-0.130269 -0.04723,-0.398669 -0.254851,-0.398669 -0.207364,0 -0.386321,0.270584 -0.398222,0.408662 -0.06377,0.721687 -0.05531,1.180543 -0.155588,1.897016 -0.219257,1.568431 -0.733554,2.751165 -1.968374,3.76986 -0.469959,0.386461 -1.125118,0.699186 -1.665616,0.965801 -0.192065,0.09554 -0.488022,0.273653 -0.358841,0.59758 0.09432,0.237081 0.527607,0.403928 0.773206,0.310125 0.662882,-0.252718 1.259606,-0.712226 1.854494,-1.116055 0.690077,-0.469832 0.59677,-0.143152 0.739538,0.731379 0.142777,0.874533 0.01781,1.775578 -0.213339,2.609297 -0.277905,1.016954 -0.660964,1.668133 -0.267493,2.718962 0.06377,0.169351 -0.105226,0.470357 -0.246275,0.578042 -2.376151,1.816809 -4.78003,2.50366 -7.745973,2.488024 -1.55688,-0.01149 -3.100981,-0.288267 -4.56874,-0.818953 -0.339935,-0.122451 -0.396027,-0.29961 -0.275348,-0.614856 0.554097,-1.447712 1.150579,-2.578296 1.705519,-4.026009 0.210762,-0.549735 0.422656,-1.051715 0.739648,-1.538044 0.143622,-0.220594 0.45789,-0.468609 0.708592,-0.492924 0.271097,-0.02693 0.559154,-0.06908 0.82941,-0.06118 1.699674,0.03644 2.690627,-0.853631 3.520917,-2.187572 0.135979,-0.218852 0.224361,-0.719204 -0.03311,-0.878132 -0.257502,-0.158929 -0.620849,0.04344 -0.739824,0.242298 -0.969667,1.590135 -2.164076,2.009534 -3.948742,1.674316 -1.578154,-0.296146 -3.228404,-0.0047 -4.8091056,0.08297 -1.5934547,0.08689 -2.7825188,-0.524941 -3.7751297,-1.769439 -0.2490071,-0.311771 0.31522,-0.240054 0.682349,-0.296504 1.6095998,-0.248376 2.584718,0.162428 4.1730683,0.31704 0.645877,0.06369 1.523301,0.161545 2.169178,0.222331 1.391194,0.131141 2.679477,-0.403003 3.884554,-1.069111 1.64472,-0.85895 1.154858,-3.232489 0.237032,-4.035813 -0.500552,-0.435965 -1.493985,-0.898473 -2.24524,-0.909757 z m 2.028355,-5.8169663 c -0.627185,-0.00811 -1.44473,0.4012269 -1.821205,0.8953745 -0.09519,0.1241917 -0.128328,0.2492453 -0.05526,0.3734378 0.08924,0.1502396 0.217554,0.066867 0.310186,-0.00538 0.163174,-0.1267957 0.201417,0.034739 0.280453,0.107694 0.520947,0.4811225 1.204216,0.3473796 1.493162,-0.2848539 0.102831,-0.2275418 0.04251,-0.5445202 0.390081,-0.643525 0.08924,-0.025222 0.05692,-0.211035 -0.08502,-0.2874573 -0.158578,-0.087178 -0.333009,-0.1400921 -0.51245,-0.1554522 z M 9.7644607,14.663542 c 0.3994263,-0.07378 0.7478633,-0.193666 0.9722133,-0.543658 0.100283,-0.158058 0.10963,-0.310902 -0.01871,-0.462014 -0.128328,-0.15111 -0.23966,-0.128526 -0.39773,-0.05215 -0.214155,0.105953 -0.4410632,0.220586 -0.6722216,0.249247 -0.5761881,0.07208 -1.1719285,0.16761 -1.6078952,-0.397754 -0.090937,-0.118105 -0.1742237,-0.352595 -0.3628868,-0.232747 -0.1886633,0.119848 0.007,0.303964 0.035661,0.453333 0.01871,0.0938 0.1181313,0.173695 0.1844126,0.254461 0.4920581,0.615735 1.2348193,0.545391 1.8670997,0.731238 z M 9.0514501,12.011287 c -0.2838518,0.03994 -0.5948886,0.05646 -0.6356886,0.4403 -0.032324,0.293541 0.4597698,0.975278 0.6934752,0.993517 0.2481553,0.02001 0.5328504,-0.347389 0.5285989,-0.694769 -0.00443,-0.417726 -0.2541012,-0.733842 -0.5863855,-0.739048 z"
       id="path872" />
    <path
       id="path876"
       d="M 14.836271,8.6649883 C 14.962216,7.9848875 16.397984,7.3551646 16.826196,7.8841319 17.254408,8.4130991 16.700251,9.2947112 16.322417,9.4206557 15.944584,9.5466007 15.113349,9.1687666 14.836271,8.6649883 Z"
       style="fill:#0f0c6f;fill-opacity:1;stroke:none;stroke-width:1px;stroke-linecap:butt;stroke-linejoin:miter;stroke-opacity:1" />
    <path
       style="fill:#0f0c6f;fill-opacity:1;stroke:none;stroke-width:1px;stroke-linecap:butt;stroke-linejoin:miter;stroke-opacity:1"
       d="m 8.0318056,12.2421 c 0.3822228,-0.576459 1.9499238,-0.593619 2.1367834,0.06079 0.186859,0.654412 -0.6682887,1.248593 -1.0652663,1.216513 C 8.7063455,13.487328 8.0894667,12.814149 8.0318056,12.2421 Z"
       id="path878" />
    <path
       id="path880"
       d="m 7.9750537,13.625438 c 1.279901,0.593451 2.4578063,-0.160824 2.3194793,0.491054 -0.03984,0.377333 -0.168307,0.625243 -1.0016606,0.530824 -0.6107122,0.0036 -1.3970601,-0.470432 -1.3178187,-1.021878 z"
       style="fill:#0f0c6f;fill-opacity:1;stroke:none;stroke-width:1px;stroke-linecap:butt;stroke-linejoin:miter;stroke-opacity:1" />
  </g>
  <g
     id="g893"
     transform="matrix(0.95879878,0,0,0.95879878,-871.34292,-378.35028)" />
</svg>
