<?xml version="1.0" encoding="UTF-8" standalone="no"?>
<svg
   width="40"
   height="40"
   version="1.1"
   viewBox="0 0 40 40"
   id="svg207"
   sodipodi:docname="cluster-machine.svg"
   inkscape:version="1.1.1 (3bf5ae0d25, 2021-09-20)"
   xmlns:inkscape="http://www.inkscape.org/namespaces/inkscape"
   xmlns:sodipodi="http://sodipodi.sourceforge.net/DTD/sodipodi-0.dtd"
   xmlns="http://www.w3.org/2000/svg"
   xmlns:svg="http://www.w3.org/2000/svg"
   xmlns:rdf="http://www.w3.org/1999/02/22-rdf-syntax-ns#"
   xmlns:cc="http://creativecommons.org/ns#"
   xmlns:dc="http://purl.org/dc/elements/1.1/">
  <sodipodi:namedview
     id="namedview209"
     pagecolor="#ffffff"
     bordercolor="#666666"
     borderopacity="1.0"
     inkscape:pageshadow="2"
     inkscape:pageopacity="0.0"
     inkscape:pagecheckerboard="0"
     showgrid="false"
     inkscape:zoom="19.8"
     inkscape:cx="16.489899"
     inkscape:cy="20"
     inkscape:window-width="1920"
     inkscape:window-height="1027"
     inkscape:window-x="0"
     inkscape:window-y="0"
     inkscape:window-maximized="1"
     inkscape:current-layer="g197" />
  <metadata
     id="metadata142">
    <rdf:RDF>
      <cc:Work
         rdf:about="">
        <dc:format>image/svg+xml</dc:format>
        <dc:type
           rdf:resource="http://purl.org/dc/dcmitype/StillImage" />
      </cc:Work>
    </rdf:RDF>
  </metadata>
  <defs
     id="defs147">
    <mask
       id="c"
       fill="#ffffff">
      <path
         d="m0 0h313.3v159.86h-313.3z"
         fill="#fff"
         fill-rule="evenodd"
         id="path144" />
    </mask>
  </defs>
  <mask
     id="a"
     fill="#ffffff">
    <path
       d="m0 0h313.3v159.86h-313.3z"
       fill="#fff"
       fill-rule="evenodd"
       id="path149" />
  </mask>
  <mask
     id="b"
     fill="#ffffff">
    <path
       d="m0 0h313.3v159.86h-313.3z"
       fill="#fff"
       fill-rule="evenodd"
       id="path152" />
  </mask>
  <g
     id="g205">
    <g
       transform="translate(40)"
       id="g203">
      <g
         transform="translate(-39.6 .24702)"
         id="g177">
        <g
           transform="matrix(.49527 0 0 .49527 5.0758 3.2126)"
           id="g175">
          <g
             transform="matrix(1.7758,0,0,1.7758,-164.24,-70.425)"
             id="g173">
            <g
               transform="translate(96.564,87.836)"
               fill="#66ff9a"
               stroke-width="3.24"
               id="g157">
              <polygon
                 class="st0"
                 transform="matrix(.72255 0 0 .7031 -28.717 -125.97)"
                 points="32.9 118.6 55.7 105.5 78.4 118.6 78.4 144.9 55.7 158 32.9 144.9"
                 fill="#bfdbfe"
                 id="polygon155" />
            </g>
            <g
               transform="matrix(.15831 0 0 .15831 83.649 18.463)"
               fill="#005e20"
               fill-rule="evenodd"
               id="g171">
              <g
                 transform="matrix(1.0777,0,0,-1.0777,-10.799,451.79)"
                 id="g169">
                <g
                   transform="matrix(.94489 0 0 .94489 8.6963 2.7018)"
                   fill="#1d4ed8"
                   mask="url(#c)"
                   id="g165">
                  <path
                     transform="rotate(35,137.93,151.55)"
                     d="m203.46 95.688c6.9363 0 12.559-14.809 12.559-33.077s-5.623-33.077-12.559-33.077-12.559 14.809-12.559 33.077 5.623 33.077 12.559 33.077z"
                     id="path159"
                     style="fill:#1d4ed8;fill-opacity:1" />
                  <path
                     transform="matrix(-.81915 .57358 .57358 .81915 58.085 47.705)"
                     d="m30.142 95.688c6.9363 0 12.559-14.809 12.559-33.077s-5.623-33.077-12.559-33.077c-6.9363 0-12.559 14.809-12.559 33.077s5.623 33.077 12.559 33.077z"
                     id="path161" />
                  <path
                     d="m153.24 119.95c-6.9363 0-12.559-14.809-12.559-33.077s5.623-33.077 12.559-33.077c6.9363 0 12.559 14.809 12.559 33.077s-5.623 33.077-12.559 33.077z"
                     id="path163" />
                </g>
                <path
                   transform="matrix(.94489 0 0 .94489 8.6963 2.7018)"
                   d="m251.47 173.1c-20.23-33.61-56.89-56.068-98.756-56.068-40.721 0-76.516 21.246-97.059 53.335"
                   fill="none"
                   mask="url(#c)"
                   stroke="#1d4ed8"
                   stroke-width="19.999"
                   id="path167" />
              </g>
            </g>
          </g>
        </g>
      </g>
      <g
         transform="matrix(.25662 0 0 .25662 -36.775 .00066119)"
         id="g201">
        <g
           transform="matrix(.81204 0 0 .81204 11.067 5.4562)"
           id="g199">
          <path
             d="m64 61.8 46.5-25.5-46.5-23.4-46.5 23.4z"
             fill="#f74039"
             id="path179"
             style="fill:#6e8feb;fill-opacity:1" />
          <path
             d="m17.5 36.3-0.3 51.3 46.8 25.5v-51.3z"
             fill="#a11611"
             id="path181"
             style="fill:#1840b1;fill-opacity:1" />
          <path
             d="m110.5 36.3 0.3 51.3-46.8 25.5v-51.3z"
             fill="#1d4ed8"
             id="path183" />
          <g
             stroke="#1d4ed8"
             stroke-dasharray="3.10962, 3.10962"
             stroke-width=".51827"
             id="g197">
            <path
               d="m98.842 81.39 24.019-13.171-24.019-12.087-24.019 12.087z"
               fill="#fcb8b5"
               id="path185"
               style="fill:#bdccf6;fill-opacity:1" />
            <path
               d="m74.823 68.219-0.15496 26.498 24.174 13.171v-26.498z"
               fill="#ec4c46"
               id="path187"
               style="fill:#7191ec;fill-opacity:1" />
            <path
               d="m122.86 68.219 0.15497 26.498-24.174 13.171v-26.498z"
               fill="#b81914"
               id="path189"
               style="fill:#1d4ed8;fill-opacity:1" />
            <path
               d="m28.7 81.39 24.019-13.171-24.019-12.087-24.019 12.087z"
               fill="#fcb8b5"
               id="path191"
               style="fill:#bdccf6;fill-opacity:1" />
            <path
               d="m4.6816 68.219-0.15496 26.498 24.174 13.171v-26.498z"
               fill="#ec4c46"
               id="path193"
               style="fill:#7191ec;fill-opacity:1" />
            <path
               d="m52.719 68.219 0.15497 26.498-24.174 13.171v-26.498z"
               fill="#b81914"
               id="path195"
               style="fill:#1d4ed8;fill-opacity:1" />
          </g>
        </g>
      </g>
    </g>
  </g>
</svg>
