<?xml version="1.0" encoding="UTF-8"?>
<svg width="60" height="40" version="1.1" viewBox="0 0 60 40" xmlns="http://www.w3.org/2000/svg"><defs><mask id="c" fill="#ffffff"><path d="m0 0h313.3v159.86h-313.3z" fill="#fff" fill-rule="evenodd"/></mask></defs><mask id="a" fill="#ffffff"><path d="m0 0h313.3v159.86h-313.3z" fill="#fff" fill-rule="evenodd"/></mask><mask id="b" fill="#ffffff"><path d="m0 0h313.3v159.86h-313.3z" fill="#fff" fill-rule="evenodd"/></mask><g><g transform="matrix(.08667 0 0 .08667 54.838 -43.974)"><path d="m56.695 510.77-107.53 84.402-79.398-66.275 61.189 82.843-54.627 74.395 72.837-52.987 102.53 91.046-81.039-107.53z" fill="#000e44" fill-rule="evenodd"/></g><circle cx="16.627" cy="16.635" r="16.434" fill="#ed8c8c" stop-color="#000000"/><g transform="matrix(.15069 0 0 .15069 -6.1977 -20.879)" fill="none" fill-rule="evenodd"><g transform="matrix(.92863 0 0 -.92863 9.2718 454.16)"><g transform="matrix(.94489 0 0 .94489 8.6963 2.7018)" fill="#6f0f0c" mask="url(#c)"><path transform="rotate(35,137.93,151.55)" d="m203.46 95.688c6.9363 0 12.559-14.809 12.559-33.077s-5.623-33.077-12.559-33.077-12.559 14.809-12.559 33.077 5.623 33.077 12.559 33.077z"/><path transform="matrix(-.81915 .57358 .57358 .81915 58.085 47.705)" d="m30.142 95.688c6.9363 0 12.559-14.809 12.559-33.077s-5.623-33.077-12.559-33.077c-6.9363 0-12.559 14.809-12.559 33.077s5.623 33.077 12.559 33.077z"/><path transform="matrix(-1,0,0,1,272.63,53.671)" d="m116.73 66.275c6.9363 0 12.559-14.809 12.559-33.077s-5.623-33.077-12.559-33.077c-6.9363 0-12.559 14.809-12.559 33.077s5.623 33.077 12.559 33.077z"/></g><path transform="matrix(.94489 0 0 .94489 8.6963 2.7018)" d="m251.47 173.1c-20.23-33.61-56.89-56.068-98.756-56.068-40.721 0-76.516 21.246-97.059 53.335" mask="url(#c)" stroke="#6f0c0c" stroke-width="20"/></g></g><g id="d" transform="matrix(1.2286 0 0 1.2286 -6.7462 -8.3962)" stroke-width="0"><path d="m20.352 29.365c-0.19327 0-0.36821-0.11383-0.4469-0.28992l-3.987-8.9552-1.3376 3.0045c-0.07869 0.17609-0.25363 0.28992-0.4469 0.28992h-3.1291c-0.26967 0-0.48892-0.21887-0.48892-0.48892s0.21924-0.48892 0.48892-0.48892h2.8113l1.6554-3.7177c0.07869-0.17609 0.25363-0.28992 0.4469-0.28992s0.36821 0.11383 0.4469 0.28992l3.987 8.9552 1.1574-2.6008c0.07869-0.17609 0.25363-0.28992 0.4469-0.28992h4.6936c0.26967 0 0.48892 0.21887 0.48892 0.48892s-0.21925 0.48892-0.48892 0.48892h-4.3758l-1.4751 3.3139c-0.07869 0.17609-0.25363 0.28992-0.4469 0.28992z" fill="#6f0c0c"/><path d="m26.081 17.578c-0.10322-0.19133-0.23197-0.3705-0.34641-0.55744v-1.4502c0-3.6551-2.9738-6.6289-6.6289-6.6289h-2.357c-0.40626 0-0.73655 0.32973-0.73655 0.73655v2.357c0 3.6551 2.9738 6.6289 6.6289 6.6289h2.325c0.61312 1.259 0.97513 2.6042 1.0493 4.0159 0.02072 0.39302 0.34526 0.698 0.73425 0.698 0.01381 0 0.02647-5.77e-4 0.03912-0.0012 0.40626-0.02129 0.71928-0.3677 0.69742-0.77396-0.09206-1.7746-0.56507-3.4658-1.4052-5.0246zm-8.5958-5.5431v-1.6204h1.6204c2.8426 0 5.1558 2.3126 5.1558 5.1558v0.5783l-3.456-3.456c-0.28771-0.28771-0.75496-0.28771-1.0427 0-0.28656 0.28771-0.28656 0.75381 0 1.0415l3.4566 3.4566h-0.5783c-2.8426 0-5.1558-2.3126-5.1558-5.1558z" fill="#e00"/></g></g></svg>
