<?xml version="1.0" encoding="UTF-8" standalone="no"?>
<svg
   xmlns:dc="http://purl.org/dc/elements/1.1/"
   xmlns:cc="http://creativecommons.org/ns#"
   xmlns:rdf="http://www.w3.org/1999/02/22-rdf-syntax-ns#"
   xmlns:svg="http://www.w3.org/2000/svg"
   xmlns="http://www.w3.org/2000/svg"
   xmlns:sodipodi="http://sodipodi.sourceforge.net/DTD/sodipodi-0.dtd"
   xmlns:inkscape="http://www.inkscape.org/namespaces/inkscape"
   height="40"
   viewBox="0 0 60 40"
   width="60"
   version="1.1"
   id="svg36"
   sodipodi:docname="cluster-pipeline.svg"
   inkscape:version="1.0.1 (3bc2e813f5, 2020-09-07)">
  <sodipodi:namedview
     pagecolor="#ffffff"
     bordercolor="#666666"
     borderopacity="1"
     objecttolerance="10"
     gridtolerance="10"
     guidetolerance="10"
     inkscape:pageopacity="0"
     inkscape:pageshadow="2"
     inkscape:window-width="1920"
     inkscape:window-height="1016"
     id="namedview35"
     showgrid="false"
     inkscape:zoom="9.9250002"
     inkscape:cx="-10.037481"
     inkscape:cy="9.3928303"
     inkscape:window-x="0"
     inkscape:window-y="0"
     inkscape:window-maximized="1"
     inkscape:current-layer="g1042"
     inkscape:document-rotation="0" />
  <metadata
     id="metadata42">
    <rdf:RDF>
      <cc:Work
         rdf:about="">
        <dc:format>image/svg+xml</dc:format>
        <dc:type
           rdf:resource="http://purl.org/dc/dcmitype/StillImage" />
        <dc:title />
      </cc:Work>
    </rdf:RDF>
  </metadata>
  <defs
     id="defs40">
    <mask
       id="a-1"
       fill="#ffffff">
      <path
         d="M 0,0 H 313.30315 V 159.86486 H 0 Z"
         fill="#ffffff"
         fill-rule="evenodd"
         id="path2-9" />
    </mask>
    <linearGradient
       id="linearGradientFill1"
       gradientUnits="userSpaceOnUse"
       x1="13.0545"
       y1="14.7332"
       x2="152.479"
       y2="166.69">
      <stop
         offset="0"
         stop-color="#a677b4"
         stop-opacity="1"
         id="stop108" />
      <stop
         offset="0.3626"
         stop-color="#f0515a"
         stop-opacity="1"
         id="stop110" />
      <stop
         offset="1"
         stop-color="#2b338c"
         stop-opacity="1"
         id="stop112" />
    </linearGradient>
  </defs>
  <mask
     id="a"
     fill="#ffffff">
    <path
       d="M 0,0 H 313.30315 V 159.86486 H 0 Z"
       fill="#ffffff"
       fill-rule="evenodd"
       id="path2" />
  </mask>
  <mask
     id="b"
     fill="#ffffff">
    <path
       d="M 0,0 H 313.30315 V 159.86486 H 0 Z"
       fill="#ffffff"
       fill-rule="evenodd"
       id="path5" />
  </mask>
  <g
     id="g1042"
     style="display:inline">
    <g
       id="g994"
       transform="matrix(0.08667043,0,0,0.08667043,54.837532,-43.975856)"
       style="display:inline">
      <path
         id="path990"
         style="fill:#000e44;fill-opacity:1;fill-rule:evenodd;stroke:none;stroke-width:3.14747"
         d="m 56.695351,510.77372 -107.53235,84.40183 -79.398391,-66.27467 61.189259,82.84335 -54.627399,74.39502 72.836531,-52.98696 102.528945,91.04567 -81.03891,-107.53235 z" />
    </g>
    <circle
       style="opacity:1;fill:#ed8ced;fill-opacity:1;stroke:none;stroke-width:0.308165;stroke-miterlimit:2.5;stroke-opacity:1;stop-color:#000000"
       id="path912"
       cx="16.627409"
       cy="16.633268"
       r="16.433828" />
    <g
       fill="none"
       fill-rule="evenodd"
       transform="matrix(0.15069337,0,0,0.15069337,-6.1976669,-20.880758)"
       id="g1008">
      <g
         transform="matrix(0.92863152,0,0,-0.92863152,9.2718211,454.1644)"
         id="g1006">
        <g
           fill="#0f1689"
           mask="url(#a-1)"
           id="g1002"
           style="fill:#0c6f18;fill-opacity:1"
           transform="matrix(0.94489362,0,0,0.94489362,8.6962507,2.7018401)">
          <path
             d="m 203.46068,95.687543 c 6.93631,0 12.5593,-14.80922 12.5593,-33.077318 0,-18.268097 -5.62299,-33.077317 -12.5593,-33.077317 -6.93631,0 -12.55931,14.80922 -12.55931,33.077317 0,18.268098 5.62299,33.077318 12.55931,33.077318 z"
             transform="rotate(35,137.93117,151.55002)"
             id="path996"
             style="fill:#6f0c6f;fill-opacity:1" />
          <path
             d="m 30.142322,95.687543 c 6.936311,0 12.559301,-14.80922 12.559301,-33.077318 0,-18.268097 -5.62299,-33.077317 -12.559301,-33.077317 -6.93631,0 -12.559301,14.80922 -12.559301,33.077317 0,18.268098 5.622991,33.077318 12.559301,33.077318 z"
             transform="matrix(-0.81915204,0.57357644,0.57357644,0.81915204,58.084611,47.704768)"
             id="path998"
             style="fill:#6f0c6f;fill-opacity:1" />
          <path
             d="m 116.73282,66.275268 c 6.93631,0 12.5593,-14.80922 12.5593,-33.077318 0,-18.268097 -5.62299,-33.07731673 -12.55931,-33.07731673 -6.93631,0 -12.5593,14.80921973 -12.5593,33.07731673 0,18.268098 5.62299,33.077318 12.55931,33.077318 z"
             transform="matrix(-1,0,0,1,272.62852,53.670762)"
             id="path1000"
             style="fill:#6f0c6f;fill-opacity:1" />
        </g>
        <path
           d="m 251.46701,173.09985 c -20.23008,-33.60997 -56.88957,-56.06791 -98.75578,-56.06791 -40.7208,0 -76.515877,21.2459 -97.058696,53.33459"
           mask="url(#a-1)"
           stroke="#0f1689"
           stroke-width="20"
           id="path1004"
           style="stroke:#6f0c6f;stroke-opacity:1"
           transform="matrix(0.94489362,0,0,0.94489362,8.6962507,2.7018401)" />
      </g>
    </g>
    <g
       id="Shape1"
       transform="matrix(0.11127104,0,0,0.11127104,6.6428231,4.6121224)"
       style="fill:#6f0c6f;fill-opacity:1">
      <desc
         shapeID="1"
         type="0"
         basicInfo-basicType="0"
         basicInfo-roundedRectRadius="12"
         basicInfo-polygonSides="6"
         basicInfo-starPoints="5"
         bounding="rect(-90.5947,-96.7,181.189,193.4)"
         text=""
         font-familyName=""
         font-pixelSize="20"
         font-bold="0"
         font-underline="0"
         font-alignment="1"
         strokeStyle="0"
         markerStart="0"
         markerEnd="0"
         shadowEnabled="0"
         shadowOffsetX="0"
         shadowOffsetY="2"
         shadowBlur="4"
         shadowOpacity="160"
         blurEnabled="0"
         blurRadius="4"
         transform="matrix(1,0,0,1,100.595,99.7)"
         pers-center="0,0"
         pers-size="0,0"
         pers-start="0,0"
         pers-end="0,0"
         locked="0"
         mesh=""
         flag=""
         id="desc105" />
      <path
         id="shapePath1"
         d="m 83.5502,88.8 v 1.9 m 49.9998,59.6 1.7,-0.4 0.2,1.3 c 0.9,5.9 0.5,11 -1.9,16.2 3.7,0.5 6.9,2.3 8.6,6 1.2,2.7 2.4,5.7 2.4,8.7 0,2.2 -0.7,4.4 -2.4,5.8 -1,0.8 -2.3,1.3 -3.6,1.3 h -19.3 c -1.1,3 -3.3,5.8 -6.5,6.7 -0.9,0.2 -1.8,0.3 -2.7,0.4 -1,0 -1.9,0.1 -2.9,0.1 -2.5,0 -5,0 -7.4998,0 -3.9,0 -7.8,-0.1 -11.7,-0.2 -2.4,-0.1 -4.5,-1.5 -5.5,-3.6 -1,2.1 -3.1,3.5 -5.5,3.6 -3.9,0.1 -7.8,0.2 -11.7,0.2 -2.5,0 -5,0 -7.5,0 -1,0 -1.9,0 -2.9,-0.1 -0.9,-0.1 -1.8,-0.1 -2.7,-0.4 -3.2,-0.8 -5.4,-3.6 -6.5,-6.7 h -19.1 c -1.3,0 -2.6,-0.5 -3.6,-1.3 -1.7,-1.4 -2.4,-3.6 -2.4,-5.8 0,-2.9 1.2,-6 2.4,-8.7 0.6,-1.4 1.6,-2.7 2.8,-3.7 1.6,-1.3 3.6,-2 5.6,-2.3 -2.4,-5.2 -2.8,-10.3 -1.9,-16.2 l 0.2,-1.3 1.9,0.5 c 0.2,-1.1 0.5,-2.2 0.9,-3.3 1.3,-3.9 3.6,-7.4 6.8,-9.9 1.2,-0.9 2.4,-1.7 3.7,-2.3 0.2,-3.5 0.6,-7 1.4,-10.5 0.7,-4.7 2,-9.2 4.1,-13.5 -1,-1.2 -1.8,-2.5 -2.5,-3.9 -0.1,-0.2 -0.2,-0.4 -0.3,-0.7 -6,-3.4 -11.5,-7.9 -16.3,-13.8 -2.7,-3.3 -6.7,-8.5 -7,-12.8 -0.2,-1.5 -0.2,-3 -0.2,-4.6 -0.1,-3.7 0.2,-7.3 0.6,-10.9 0.3,-2.1 0.6,-4.2 1,-6.3 -2.8,-3.2 -5.3,-6.8 -7.3,-10.5 -3.2,-5.9 -5.3,-12.4 -6.1,-19.1 -0.79999,-6.6 -0.2,-13.3 1.5,-19.8 0.9,-3.2 3.8,-5.5 7.1,-5.5 12.6,0 23.5,5.1 33.6,11.8 18.9,-11.6 42.9,-11.7 61.8998,0 10.1,-6.6 21,-11.8 33.6,-11.8 3.4,0 6.3,2.2 7.2,5.5 1.7,6.5 2.3,13.1 1.5,19.8 -0.8,6.7 -2.9,13.1 -6.1,19.1 -2,3.8 -4.5,7.3 -7.3,10.5 0.4,2 0.7,4 1,6 0.5,3.7 0.7,7.4 0.6,11.2 0,1.6 -0.1,3.1 -0.2,4.6 -0.4,4.5 -4.2,9.5 -7,12.9 -4.8,5.9 -10.3,10.4 -16.3,13.8 -0.1,0.2 -0.2,0.4 -0.3,0.7 -0.5,1.1 -1.1,2.2 -1.7,3.2 -0.6,1 -1.3,1.8 -2,2.6 0.5,1.2 1,2.4 1.4,3.7 0.9,2.6 1.5,5.3 1.9,8.1 0.3,1.4 0.6,2.8 0.8,4.2 5.6,-9.4 13,-17.8 22.3,-23 5.5,-3.1 11.7,-5 18,-4.8 6.7,0.2 13.3,3.3 18.4,7.6 5.6,4.7 10.1,11.4 10.9,18.8 0.1,1.2 0,2.4 -0.2,3.6 -1,4 -4,7.1 -7.6,8.8 -4.6,2.2 -10.4,2.1 -14.3,-1.6 -2.2,-2.1 -2.9,-4.4 -4,-7.1 -0.7,-1.6 -1.4,-2.8 -2.7,-3.8 -1.9,-1.4 -4.2,-2.1 -6.5,-2 -3.3,0.2 -6.3,2.1 -8.6,4.4 -1.3,1.3 -2.5,2.7 -3.7,4.1 -2.2,2.7 -4.2,5.6 -6,8.6 -1.4,2.3 -2.6,4.7 -3.6,7.2 -0.1,0.1 -0.1,0.3 -0.2,0.4 -0.2,0 -0.2,0.1 -0.2,0.2 m 5.1,-21 c 0.3,0 0.6,0 0.9,0.2 1.1,-1.3 2.3,-2.6 3.5,-3.8 0.4,-0.4 0.8,-0.7 1.2,-1.1 -1.5,-1 -2.8,-2.5 -3.7,-4.1 -0.8,-1.3 -1.4,-2.9 -1.6,-4.5 -2.4,2.1 -4.7,4.5 -6.9,7.2 -0.1,1.7 1.5,3.7 2.7,4.6 1.1,0.9 2.5,1.6 3.9,1.5 m -1.7,3.5 c -1.6,-0.3 -3.1,-1 -4.4,-2.1 -1.2,-1 -2.4,-2.3 -3.2,-3.8 -2.1,3 -4.1,6.3 -5.9,9.9 0.6,0.4 1.2,0.8 1.8,1.2 2,1.6 3.7,3.6 4.9,5.9 1.6,-3.2 3.9,-7.2 6.8,-11.1 m 30,-9.5 c 0,0.2 -0.1,0.4 -0.1,0.6 3.7,3.7 3.6,7.9 5.9,10.2 4.1,3.9 13.2,-0.5 12.7,-6.1 -0.5,-4.9 -3.3,-9.8 -7.3,-13.6 0,0 0,0 -0.1,-0.1 -0.6,-0.6 -1.3,-0.8 -2.1,-0.8 -5,-0.2 -8.8,5 -9,9.8 m -3.5,-1.8 c 0.2,-1.2 0.6,-2.5 1.1,-3.6 1.6,-3.6 4.6,-6.6 8.3,-7.7 -3.5,-2.2 -7.5,-3.5 -11.2,-3.6 -1.1,0 -2.2,0 -3.3,0.1 -0.3,0.2 -0.7,0.5 -0.8,0.6 -0.2,0.2 -0.4,0.4 -0.6,0.5 -2.5,2.8 -2.2,8.2 -0.1,11.1 0.1,0.2 0.2,0.4 0.3,0.6 2.3,0.3 4.4,1 6.3,2 m -10.4,-1.5 c -1,-1.9 -1.6,-4.1 -1.6,-6.3 0,-1.9 0.3,-3.9 1.1,-5.7 -2,0.7 -4.1,1.6 -6.1,2.7 -1.2,0.6 -2.3,1.4 -3.5,2.2 0,0 0,0 0,0.1 -1.1,1.6 -0.1,4.3 0.8,5.8 0.8,1.3 1.9,2.7 3.3,3.3 0.2,0.1 0.3,0.2 0.4,0.3 1.9,-1.3 3.8,-2 5.6,-2.4 M 78.1502,18.9 c 1,0 1.7,0.8 1.7,1.7 0,1 -0.8,1.7 -1.7,1.7 -1,0 -1.7,-0.8 -1.7,-1.7 0,-0.9 0.8,-1.7 1.7,-1.7 m 0,7.7 c 1,0 1.7,0.8 1.7,1.7 0,0.9 -0.8,1.7 -1.7,1.7 -1,0 -1.7,-0.8 -1.7,-1.7 0,-0.9 0.8,-1.7 1.7,-1.7 m 10.8,-7.7 c 1,0 1.7,0.8 1.7,1.7 0,1 -0.8,1.7 -1.7,1.7 -1,0 -1.7,-0.8 -1.7,-1.7 0,-0.9 0.8,-1.7 1.7,-1.7 m 0,7.7 c 1,0 1.7,0.8 1.7,1.7 0,0.9 -0.8,1.7 -1.7,1.7 -1,0 -1.7,-0.8 -1.7,-1.7 0,-0.9 0.8,-1.7 1.7,-1.7 m -3.9,-13.4 v 20.9 c 11.2,0.2 22.0998,3.3 28.8998,9.3 7.8,6.9 13,18.7 12.4,25 -0.5,5.5 -9.5,9.3 -21.4,11.3 0.6,1.1 1,2.2 1.2,3.5 0.3,1.7 0.3,3.5 0,5.1 4.5,-0.5 8.6,-1.2 12.2,-2 8.8,-1.9 15,-4.2 18.8,-5.7 0.2,-0.6 0.4,-1.2 0.4,-1.7 0,0 2.6,-23.5 -10.8,-42.8 -10.2,-14.9 -25.9,-22.5 -41.6998,-22.9 m -2.9,20.8 V 13.2 c -16.1,0.5 -32,8.4 -42.2,23.7 -12.8,19.1 -10.3,42.1 -10.3,42.1 0,0 0,0.6 0.5,1.8 3.8,1.4 10,3.8 18.7,5.6 3.6,0.8 7.7,1.5 12.2,2 -0.3,-1.7 -0.3,-3.4 0,-5.1 0.2,-1.3 0.6,-2.4 1.2,-3.5 -11.9,-2 -20.9,-5.8 -21.4,-11.4 -0.6,-6.3 4.6,-18.1 12.4,-25 6.7,-6 17.7,-9.1 28.9,-9.4 m -20.2,57.3 c -5.1,-0.5 -9.7,-1.3 -13.8,-2.2 -6.9,-1.5 -12.2,-3.2 -16.1,-4.6 0.7,1.1 1.5,2.3 2.6,3.6 6.5,7.9 14.6,13.3 24.4,16.7 3.1,1.1 6.3,1.9 9.5,2.6 v -0.1 c -0.3,-0.9 -0.4,-1.8 -0.3,-2.7 0.4,-2.3 2.1,-3.7 4.3,-4.6 -4.1,-1.4 -7.8,-3.7 -10,-7.5 -0.2,-0.4 -0.4,-0.8 -0.6,-1.2 m 10.5,14.5 c 0.5,1.2 2,2.1 4,2.8 2.3,0.3 4.7,0.5 7.1,0.6 2.4,-0.2 4.8,-0.4 7.2,-0.6 1.8,-0.6 3.3,-1.4 3.9,-2.5 2.4,-4.8 -23.8,-4.7 -22.2,-0.3 M 134.95,84.6 c -3.9,1.4 -9.2,3.1 -16,4.6 -4,0.9 -8.6,1.6 -13.8,2.2 -0.2,0.4 -0.4,0.8 -0.6,1.2 -2.2,3.7 -5.8998,6.1 -9.9998,7.4 2.1,0.9 3.8,2.3 4.2,4.5 0.2,1 0.1,2 -0.3,2.9 7.9998,-1.6 15.3998,-4.3 22.0998,-8.6 4.8,-3.1 8.7,-7.2 12.4,-11.6 0.7,-0.9 1.4,-1.7 2,-2.6 m -52.3998,7.6 c -1.1,1.9 -3.4,4.9 -8.2,3.9 -5.9,-1.9 -10.2,-5.9 -9.1,-12.3 1,-5.8 10.5,-9.3 18.4,-9.3 7.8,-0.1 17.3998,3.5 18.3998,9.3 0.9,5.5 -2.1998,9.2 -6.7998,11.4 -7,2.6 -9.4,-0.8 -10.5,-2.9 -0.5,-1 -0.7,-1.6 -1,-1.6 0,0 0,0 -0.1,0 -0.3,0.1 -0.6,0.6 -1.1,1.5 m 1,-15 c -4.7,0 -10.5,1.4 -11.1,4.3 -0.9,4.9 6.3,7.3 11.1,7.3 h 0.1 c 4.7,0 11.9,-2.4 11,-7.3 -0.5,-2.9 -6.3,-4.3 -11.1,-4.3 m -13.2,-9.6 c 0,1 -0.8,1.8 -1.8,1.8 -1,0 -1.8,-0.8 -1.8,-1.8 0,-2 -0.7,-3.9 -1.9,-5.2 -1.1,-1.3 -2.6,-2 -4.3,-2 -1.1,0 -2.2,0.4 -3.1,1 -1,0.7 -1.8,1.6 -2.3,2.8 -0.4,0.9 -1.5,1.3 -2.3,0.8 -0.9,-0.4 -1.3,-1.5 -0.8,-2.3 0.8,-1.7 2,-3.2 3.5,-4.2 1.5,-1 3.2,-1.6 5,-1.6 2.7,0 5.1,1.2 6.9,3.2 1.8,2 2.9,4.6 2.9,7.5 m 26.5,0 c 0,1 0.8,1.8 1.8,1.8 1,0 1.7998,-0.8 1.7998,-1.8 0,-2 0.7,-3.9 1.9,-5.2 1.1,-1.3 2.6,-2 4.3,-2 1.1,0 2.2,0.4 3.1,1 1,0.7 1.8,1.6 2.3,2.8 0.4,0.9 1.5,1.3 2.3,0.8 0.9,-0.4 1.3,-1.5 0.9,-2.3 -0.8,-1.7 -2,-3.2 -3.5,-4.2 -1.5,-1 -3.2,-1.6 -5,-1.6 -2.7,0 -5.1,1.2 -6.8998,3.2 -2,2 -3,4.6 -3,7.5 m 1.4,47.1 c -3.8,1.2 -7.7,1.9 -11.6,2.2 -4.9,0.3 -9.7,-0.1 -14.5,-1.3 -4.1,-1 -8,-2.5 -11.7,-4.5 -1.5,-0.4 -3.1,-1 -4.6,-1.5 3.3,4.4 8.1,8.4 14.7,10.6 -6,-1 -12,-2.8 -16.7,-6.1 -3,6.5 -4.9,15.7 -3.4,28.1 0.3,2.8 0.8,5.5 1.3,8 7.9,-3.6 13.4,-2.2 20.2,2.4 0.8,-10.8 3.1,-18.9 4.1,-22.2 0.5,-1.4 1.1,-2.1 1.9,-2.2 0.9,-0.1 2.4,0 2.3,2.6 -0.3,1.1 -0.5,2.3 -0.7,3.2 -0.5,2.4 -0.8,4.9 -1.2,7.3 -0.4,2.4 -0.7,4.8 -1,7.2 -0.2,1.6 -0.4,3.1 -0.5,4.7 -0.1,0.9 -0.1,1.8 -0.1,2.7 3.7,0.4 7.4,0.4 11.1,-0.1 0,-0.9 -0.1,-1.7 -0.1,-2.6 -0.3,-3.9 -0.9,-8 -1.4,-11.8 -0.3,-2.3 -0.7,-4.6 -1.2,-6.9 -0.3,-1.3 -0.6,-3 -1,-4.2 0.1,-2.6 3.5,-3.1 4.4,-0.3 1,3.1 3.5,11.5 4.3,22.9 6.2,-3.5 14.2998,-6.2 20.1998,-2.9 0.5,-2.5 0.9,-5.1 1.3,-7.8 1.4,-11.5 -0.1,-20.2 -2.7,-26.5 -4.7,2.8 -10.7,4.3 -16.4998,5 7.2998,-2.1 12.3998,-6.3 15.9998,-11 -1.5,0.6 -3,1.1 -4.6,1.5 -2.2,1.3 -5.1,2.5 -8.2998,3.5 m -68.7,-102.9 c 6.2,1.7 12.1,4.7 17.6,8.2 -2.2,1.8 -4.4,3.8 -6.4,6 -1.1,-1.8 -2.2,-3.5 -3.4,-5.1 -2.2,-3.2 -4.8,-6.4 -7.8,-9.1 m -10.3,-1.5 c 0.2,0 0.4,0 0.6,0 7,3.8 13.2,11.6 17.8,19.4 -0.9,1.2 -1.8,2.5 -2.7,3.7 -3.4,5.1 -6,10.7 -7.8,16.5 -5.6,-7.6 -12.8,-21.5 -8,-39.5 -0.1,0 0,0 0.1,-0.1 m 128.6998,0 c -0.2,0 -0.4,0 -0.6,0 -7,3.8 -13.2,11.6 -17.8,19.4 0.8,1 1.5,2 2.2,3 3.7,5.3 6.4,11.1 8.4,17.2 5.6,-7.6 12.8,-21.5 8,-39.5 -0.1,0 -0.1,0 -0.2,-0.1 m -10.4,1.5 c -6.2,1.7 -12.1,4.7 -17.6,8.2 2.2,1.8 4.4,3.8 6.4,6 1.1,-1.8 2.2,-3.5 3.4,-5.1 2.3,-3.2 4.9,-6.4 7.8,-9.1 M 53.0502,155.6 c 2.2,8.3 5.1,14.6 7.1,18.4 0.4,0.8 0.7,1 1.5,1.5 2.4,1.5 5.9,3.1 6.5,9.2 -2.8,-3.5 -5.4,-6.1 -9.5,-7 -2,0 -4.3,0.4 -5.8,2 -3.4,3.5 -0.9,9.5 1.1,10.1 2,0.6 23,0 23,0 0,0 0.9,-3.9 -0.8,-6.1 -1.6,-2.2 -4.1,-13.3 -4.3,-25.2 -4.9,-4.3 -12.5,-7.2 -18.8,-2.9 m 58.8998,0 c -2.2,8.3 -5.1,14.6 -7.1,18.4 -0.4,0.8 -0.7,1 -1.5,1.5 -2.4,1.5 -5.8998,3.1 -6.4998,9.2 2.8,-3.5 5.3998,-6.1 9.4998,-7 2,0 4.3,0.4 5.8,2 3.4,3.5 0.9,9.5 -1.1,10.1 -2,0.6 -22.9998,0 -22.9998,0 0,0 -0.9,-3.9 0.8,-6.1 1.6,-2.2 4.1,-13.3 4.3,-25.2 4.9,-4.3 12.4998,-7.2 18.7998,-2.9 M 84.4502,182 c -0.6,0 -1.3,0 -1.9,0 -0.5,0 -1,0 -1.5,0 -0.2,-0.4 -0.5,-0.9 -0.8,-1.3 -0.3,-0.5 -0.6,-1.6 -0.8,-2.2 -0.6,-2.1 -1.1,-4.3 -1.4,-6.4 -0.7,-4 -1.1,-8 -1.1,-12.1 3.8,0.5 7.7,0.5 11.5,-0.1 -0.1,4.7 -0.6,9.4 -1.4,14 -0.3,1.6 -1.1,5.6 -2,7 -0.2,0.4 -0.4,0.7 -0.6,1.1 M 130.25,156.6 c 0.2,11.3 -7,15.8 -11.2,19.2 19,-8.6 21.2,6.1 19.3,7.7 h -19.7 c -0.1,-2.6 -1.1,-5.1 -3,-7 -1.5,-1.5 -3.3,-2.5 -5.2,-3 1.5,-3.2 2.8,-6.5 3.8,-9.8 5.6,-3 12.1,-6.1 16,-7.1 M 119.85,140 c 4.8,2.2 7.8,7.3 8.4,12.9 -3.9,1.1 -8.1,3.1 -11.7,4.9 1.3,-4.9 2.3,-9.9 2.9,-15 0.2,-0.9 0.3,-1.9 0.4,-2.8 m -74.5998,0.1 c -4.7,2.3 -7.6,7.3 -8.3,12.9 3.8,1.2 8,3.1 11.5,4.9 -1.3,-4.9 -2.3,-9.9 -2.9,-15 -0.1,-1 -0.2,-1.9 -0.3,-2.8 m -10.4,16.5 c -0.2,11.3 7,15.8 11.2,19.2 -19.1,-8.6 -21.2,6.1 -19.3,7.7 h 19.4 c 0.1,-2.7 1.1,-5.3 3.1,-7.3 1.4,-1.5 3.1,-2.4 5,-3 -0.4,-0.8 -0.8,-1.6 -1.1,-2.5 -1.1,-2.4 -2,-4.9 -2.9,-7.4 -5.5,-2.9 -11.7,-5.7 -15.4,-6.7"
         style="fill:#6f0c6f;fill-opacity:1;fill-rule:evenodd;stroke:none" />
      <defs
         id="defs115">
        <linearGradient
           id="RESERVED_FOR_INKSCAPE_DUPLICATE_DEF_000000000"
           gradientUnits="userSpaceOnUse"
           x1="13.0545"
           y1="14.7332"
           x2="152.479"
           y2="166.69">
          <stop
             offset="0"
             stop-color="#a677b4"
             stop-opacity="1"
             id="stop2086" />
          <stop
             offset="0.3626"
             stop-color="#f0515a"
             stop-opacity="1"
             id="stop2088" />
          <stop
             offset="1"
             stop-color="#2b338c"
             stop-opacity="1"
             id="stop2090" />
        </linearGradient>
      </defs>
    </g>
  </g>
  <g
     transform="matrix(0.95879878,0,0,0.95879878,-871.34292,-378.35028)"
     id="g893" />
</svg>
