<?xml version="1.0" encoding="UTF-8"?>
<svg width="40" height="40" version="1.1" viewBox="0 0 40 40" xmlns="http://www.w3.org/2000/svg" xmlns:cc="http://creativecommons.org/ns#" xmlns:dc="http://purl.org/dc/elements/1.1/" xmlns:rdf="http://www.w3.org/1999/02/22-rdf-syntax-ns#"><metadata><rdf:RDF><cc:Work rdf:about=""><dc:format>image/svg+xml</dc:format><dc:type rdf:resource="http://purl.org/dc/dcmitype/StillImage"/><dc:title/></cc:Work></rdf:RDF></metadata><defs><mask id="c" fill="#ffffff"><path d="m0 0h313.3v159.86h-313.3z" fill="#fff" fill-rule="evenodd"/></mask></defs><mask id="a" fill="#ffffff"><path d="m0 0h313.3v159.86h-313.3z" fill="#fff" fill-rule="evenodd"/></mask><mask id="b" fill="#ffffff"><path d="m0 0h313.3v159.86h-313.3z" fill="#fff" fill-rule="evenodd"/></mask><g transform="translate(.39981 .14129)"><g transform="matrix(.49527 0 0 .49527 5.0758 3.2126)"><g transform="matrix(1.7758,0,0,1.7758,-164.24,-70.425)"><g transform="translate(96.564,87.836)" fill="#66ff9a" stroke-width="3.24"><polygon class="st0" transform="matrix(.72255 0 0 .7031 -28.717 -125.97)" points="55.7 105.5 78.4 118.6 78.4 144.9 55.7 158 32.9 144.9 32.9 118.6" fill="#ababf7"/></g><g transform="matrix(.15831 0 0 .15831 83.649 18.463)" fill="#005e20" fill-rule="evenodd"><g transform="matrix(1.0777,0,0,-1.0777,-10.799,451.79)"><g transform="matrix(.94489 0 0 .94489 8.6963 2.7018)" fill="#0f0c6f" mask="url(#c)"><path transform="rotate(35,137.93,151.55)" d="m203.46 95.688c6.9363 0 12.559-14.809 12.559-33.077s-5.623-33.077-12.559-33.077-12.559 14.809-12.559 33.077 5.623 33.077 12.559 33.077z"/><path transform="matrix(-.81915 .57358 .57358 .81915 58.085 47.705)" d="m30.142 95.688c6.9363 0 12.559-14.809 12.559-33.077s-5.623-33.077-12.559-33.077c-6.9363 0-12.559 14.809-12.559 33.077s5.623 33.077 12.559 33.077z"/><path d="m153.24 119.95c-6.9363 0-12.559-14.809-12.559-33.077s5.623-33.077 12.559-33.077c6.9363 0 12.559 14.809 12.559 33.077s-5.623 33.077-12.559 33.077z"/></g><path transform="matrix(.94489 0 0 .94489 8.6963 2.7018)" d="m251.47 173.1c-20.23-33.61-56.89-56.068-98.756-56.068-40.721 0-76.516 21.246-97.059 53.335" fill="none" mask="url(#c)" stroke="#0f0c6f" stroke-width="19.999"/></g></g></g></g></g><path d="m12.709 8.8048h12.669a2.7393 2.7393 0 0 1 1.9397 0.81037 2.7501 2.7501 0 0 1 0.81037 1.9397v9.0887a2.7544 2.7544 0 0 1-0.81253 1.9397 2.7523 2.7523 0 0 1-1.9397 0.81037h-12.666a2.7501 2.7501 0 0 1-1.9397-0.81253 2.7501 2.7501 0 0 1-0.81037-1.9397v-9.0779a2.7479 2.7479 0 0 1 0.81037-1.9397 2.7544 2.7544 0 0 1 1.9397-0.80822zm2.0669 9.4831a1.0539 1.0539 0 0 1-1.0453-0.64657 2.4182 2.4182 0 0 1-0.19397-0.69184 6.1015 6.1015 0 0 1-0.05388-0.84054 5.4894 5.4894 0 0 1 0.07759-0.89443 1.8729 1.8729 0 0 1 0.24354-0.69614 1.1401 1.1401 0 0 1 0.49571-0.4526 1.9936 1.9936 0 0 1 0.8621-0.15733 5.7286 5.7286 0 0 1 0.58838 0.02586 4.0411 4.0411 0 0 1 0.46122 0.07543c0.14225 0.03233 0.29096 0.07113 0.44614 0.11423v0.87503c-0.08621-0.01508-0.19397-0.03018-0.32544-0.04095-0.13147-0.01078-0.27803-0.02155-0.43105-0.03018-0.15302-0.0086-0.34699 0-0.53019 0a0.96555 0.96555 0 0 0-0.49786 0.10129 0.52588 0.52588 0 0 0-0.21552 0.36208 3.9829 3.9829 0 0 0-0.05173 0.73063 4.7092 4.7092 0 0 0 0.02801 0.58192 1.0281 1.0281 0 0 0 0.09483 0.34484 0.35993 0.35993 0 0 0 0.17242 0.16811 0.57761 0.57761 0 0 0 0.24785 0.04741 2.9074 2.9074 0 0 0 0.38363-0.02155c0.11207-0.01293 0.19613-0.02586 0.25432-0.03664v-0.5539h-0.59485v-0.89874c0.08621-0.01293 0.18751-0.02155 0.30389-0.03017 0.11638-0.0086 0.23923-0.01508 0.36639-0.0194 0.12716-0.0043 0.23923 0 0.34484 0h0.66382v2.5583h-0.84917l-0.15087-0.28449a2.1552 2.1552 0 0 1-0.43105 0.20259 1.8815 1.8815 0 0 1-0.6595 0.10992zm2.7285-0.02801v-4.3105h1.8902a2.1833 2.1833 0 0 1 0.45045 0.04958 1.0022 1.0022 0 0 1 0.43105 0.20259 1.0345 1.0345 0 0 1 0.31251 0.46338 2.3492 2.3492 0 0 1 0.11854 0.82546 2.541 2.541 0 0 1-0.11423 0.83839 1.1186 1.1186 0 0 1-0.30174 0.47415 0.98064 0.98064 0 0 1-0.40303 0.21552 1.7242 1.7242 0 0 1-0.43105 0.05388 2.0992 2.0992 0 0 1-0.22846 0c-0.07974 0-0.15733-0.01725-0.23277-0.03233-0.07543-0.01508-0.1444-0.02586-0.21552-0.04095l-0.15949-0.03018v1.2931zm1.125-2.1897h0.64658a0.25216 0.25216 0 0 0 0.1832-0.06251 0.36639 0.36639 0 0 0 0.09267-0.18751 1.5755 1.5755 0 0 0 0.02586-0.31036 1.1854 1.1854 0 0 0-0.03233-0.30174 0.39657 0.39657 0 0 0-0.09483-0.1832 0.24354 0.24354 0 0 0-0.17458-0.06034h-0.64658zm4.2308 2.2199a3.9053 3.9053 0 0 1-0.6789-0.05603 1.541 1.541 0 0 1-0.55821-0.21552 1.0259 1.0259 0 0 1-0.37932-0.43105 1.6854 1.6854 0 0 1-0.13794-0.73709v-2.8945h1.125v2.8794a0.40088 0.40088 0 0 0 0.08189 0.24785 0.43105 0.43105 0 0 0 0.21552 0.14871 1.166 1.166 0 0 0 0.67244 0 0.44183 0.44183 0 0 0 0.21552-0.14871 0.41381 0.41381 0 0 0 0.05819-0.24785v-2.8794h1.125v2.8859a1.7242 1.7242 0 0 1-0.13578 0.7371 1.041 1.041 0 0 1-0.37932 0.43105 1.5755 1.5755 0 0 1-0.55605 0.21552 3.8945 3.8945 0 0 1-0.67244 0.05603zm0.51942 6.4032h1.472a0.27587 0.27587 0 0 1 0.27372 0.27587v2.1552a0.27587 0.27587 0 0 1-0.27372 0.27587h-1.472a0.27587 0.27587 0 0 1-0.27587-0.27588v-2.1552a0.27587 0.27587 0 0 1 0.27587-0.27587zm-3.3816 0h1.472a0.27803 0.27803 0 0 1 0.28018 0.27587v2.1552a0.27803 0.27803 0 0 1-0.27587 0.27587h-1.4763a0.27587 0.27587 0 0 1-0.27587-0.27587v-2.1552a0.27587 0.27587 0 0 1 0.27587-0.27587zm-3.3816 0h1.4699a0.27587 0.27587 0 0 1 0.27587 0.27587v2.1552a0.27587 0.27587 0 0 1-0.27587 0.28449h-1.4699a0.27803 0.27803 0 0 1-0.27587-0.27587v-2.1552a0.27803 0.27803 0 0 1 0.27587-0.27587zm-3.3816 0h1.4742a0.27587 0.27587 0 0 1 0.27372 0.27587v2.1552a0.27587 0.27587 0 0 1-0.27372 0.27587h-1.4742a0.27587 0.27587 0 0 1-0.27372-0.27588v-2.1552a0.27587 0.27587 0 0 1 0.27372-0.27587zm10.145-19.895h1.472a0.27372 0.27372 0 0 1 0.27372 0.27587v2.1552a0.27372 0.27372 0 0 1-0.27372 0.27587h-1.472a0.27587 0.27587 0 0 1-0.27587-0.27587v-2.1552a0.27587 0.27587 0 0 1 0.27587-0.27587zm-3.3816 0h1.472a0.27587 0.27587 0 0 1 0.28018 0.27587v2.1552a0.27587 0.27587 0 0 1-0.27587 0.27587h-1.4763a0.27587 0.27587 0 0 1-0.27587-0.27587v-2.1552a0.27587 0.27587 0 0 1 0.27587-0.27587zm-3.3816 0h1.4699a0.27587 0.27587 0 0 1 0.27587 0.27587v2.1552a0.27587 0.27587 0 0 1-0.27587 0.28234h-1.4699a0.27587 0.27587 0 0 1-0.27587-0.27587v-2.1552a0.27587 0.27587 0 0 1 0.27587-0.28234zm-3.3816 0h1.4742a0.27372 0.27372 0 0 1 0.27372 0.27587v2.1552a0.27372 0.27372 0 0 1-0.27372 0.27587h-1.4742a0.27372 0.27372 0 0 1-0.27372-0.27587v-2.1552a0.27372 0.27372 0 0 1 0.27372-0.27587zm16.337 12.147v1.472a0.27587 0.27587 0 0 0 0.27587 0.27587h2.1552a0.27587 0.27587 0 0 0 0.27587-0.27587v-1.472a0.27587 0.27587 0 0 0-0.27587-0.27587h-2.1552a0.27587 0.27587 0 0 0-0.27587 0.27587zm0-3.3816v1.4742a0.27372 0.27372 0 0 0 0.27587 0.27372h2.1552a0.27372 0.27372 0 0 0 0.27587-0.27372v-1.4742a0.27372 0.27372 0 0 0-0.27587-0.27372h-2.1552a0.27372 0.27372 0 0 0-0.27587 0.27372zm0 6.7632v1.472a0.27587 0.27587 0 0 0 0.27587 0.27587h2.1552a0.27587 0.27587 0 0 0 0.27587-0.27587v-1.472a0.27587 0.27587 0 0 0-0.27587-0.27587h-2.1552a0.27587 0.27587 0 0 0-0.27587 0.27587zm0-10.143v1.472a0.27587 0.27587 0 0 0 0.27587 0.27587h2.1552a0.27587 0.27587 0 0 0 0.27587-0.27587v-1.4699a0.27587 0.27587 0 0 0-0.27587-0.27587h-2.1552a0.27587 0.27587 0 0 0-0.27587 0.27587zm-21.057 6.761v1.472a0.27587 0.27587 0 0 1-0.27587 0.27587h-2.1552a0.27587 0.27587 0 0 1-0.28234-0.27587v-1.472a0.27587 0.27587 0 0 1 0.27587-0.27587h2.1552a0.27587 0.27587 0 0 1 0.27587 0.27587zm0-3.3816v1.4742a0.27372 0.27372 0 0 1-0.27587 0.27372h-2.1552a0.27372 0.27372 0 0 1-0.28234-0.27372v-1.4742a0.27372 0.27372 0 0 1 0.27587-0.27372h2.1552a0.27372 0.27372 0 0 1 0.27587 0.27372zm0 6.7632v1.472a0.27587 0.27587 0 0 1-0.27587 0.27587h-2.1552a0.27587 0.27587 0 0 1-0.28234-0.27587v-1.472a0.27587 0.27587 0 0 1 0.27587-0.27587h2.1552a0.27587 0.27587 0 0 1 0.27587 0.27587zm0-10.143v1.472a0.27587 0.27587 0 0 1-0.27587 0.27587h-2.1552a0.27587 0.27587 0 0 1-0.28234-0.27587v-1.4699a0.27587 0.27587 0 0 1 0.27587-0.27587h2.1552a0.27587 0.27587 0 0 1 0.28234 0.27587zm16.863 0h-12.669a1.3664 1.3664 0 0 0-0.96986 0.40088 1.3664 1.3664 0 0 0-0.40088 0.96986v9.0887a1.375 1.375 0 0 0 1.3729 1.3729h12.666a1.3664 1.3664 0 0 0 0.96771-0.40734 1.3578 1.3578 0 0 0 0.40303-0.9677v-9.0779a1.375 1.375 0 0 0-0.40303-0.96986 1.3621 1.3621 0 0 0-0.96771-0.40734z" fill="#0f0c6f" stroke-width=".21552"/></svg>
