<?xml version="1.0" encoding="UTF-8"?>
<svg width="40" height="40" version="1.1" viewBox="0 0 40 40" xmlns="http://www.w3.org/2000/svg" xmlns:cc="http://creativecommons.org/ns#" xmlns:dc="http://purl.org/dc/elements/1.1/" xmlns:rdf="http://www.w3.org/1999/02/22-rdf-syntax-ns#"><metadata><rdf:RDF><cc:Work rdf:about=""><dc:format>image/svg+xml</dc:format><dc:type rdf:resource="http://purl.org/dc/dcmitype/StillImage"/><dc:title/></cc:Work></rdf:RDF></metadata><defs><mask id="c" fill="#ffffff"><path d="m0 0h313.3v159.86h-313.3z" fill="#fff" fill-rule="evenodd"/></mask></defs><mask id="a" fill="#ffffff"><path d="m0 0h313.3v159.86h-313.3z" fill="#fff" fill-rule="evenodd"/></mask><mask id="b" fill="#ffffff"><path d="m0 0h313.3v159.86h-313.3z" fill="#fff" fill-rule="evenodd"/></mask><g><g transform="translate(40)"><g transform="translate(-39.6 .17819)"><g transform="matrix(.49527 0 0 .49527 5.0758 3.2126)"><g transform="matrix(1.7758,0,0,1.7758,-164.24,-70.425)"><g transform="translate(96.564,87.836)" fill="#66ff9a" stroke-width="3.24"><polygon class="st0" transform="matrix(.72255 0 0 .7031 -28.717 -125.97)" points="78.4 144.9 55.7 158 32.9 144.9 32.9 118.6 55.7 105.5 78.4 118.6" fill="#ed8c8c"/></g><g transform="matrix(.15831 0 0 .15831 83.649 18.463)" fill="#005e20" fill-rule="evenodd"><g transform="matrix(1.0777,0,0,-1.0777,-10.799,451.79)"><g transform="matrix(.94489 0 0 .94489 8.6963 2.7018)" fill="#6f0c0c" mask="url(#c)"><path transform="rotate(35,137.93,151.55)" d="m203.46 95.688c6.9363 0 12.559-14.809 12.559-33.077s-5.623-33.077-12.559-33.077-12.559 14.809-12.559 33.077 5.623 33.077 12.559 33.077z"/><path transform="matrix(-.81915 .57358 .57358 .81915 58.085 47.705)" d="m30.142 95.688c6.9363 0 12.559-14.809 12.559-33.077s-5.623-33.077-12.559-33.077c-6.9363 0-12.559 14.809-12.559 33.077s5.623 33.077 12.559 33.077z"/><path d="m153.24 119.95c-6.9363 0-12.559-14.809-12.559-33.077s5.623-33.077 12.559-33.077c6.9363 0 12.559 14.809 12.559 33.077s-5.623 33.077-12.559 33.077z"/></g><path transform="matrix(.94489 0 0 .94489 8.6963 2.7018)" d="m251.47 173.1c-20.23-33.61-56.89-56.068-98.756-56.068-40.721 0-76.516 21.246-97.059 53.335" fill="none" mask="url(#c)" stroke="#6f0c0c" stroke-width="19.999"/></g></g></g></g></g><g transform="matrix(.051125 0 0 .051125 -38.904 -2.7527)" fill="#6f0f0c"><g fill="#941d19"><rect class="cls-3" transform="rotate(-44.96 432.42 290.59)" x="330.87" y="280.6" width="203.17" height="20"/><rect class="cls-3" transform="rotate(-25.45 316.63 270.07)" x="306.63" y="167.83" width="20" height="204.47"/><rect class="cls-3" transform="rotate(-6.79 262.08 374.08)" x="162.98" y="364.1" width="198.28" height="20"/></g><rect class="cls-3" transform="rotate(-81.31 345.42 461.54)" x="245.1" y="451.54" width="200.62" height="20" fill="#6f0f0c"/><rect class="cls-3" transform="rotate(-64.3 453.82 407.27)" x="443.85" y="303.76" width="20" height="207.04" fill="#6f0f0c"/><circle class="cls-3" cx="504.34" cy="218.83" r="44.08" fill="#941d19"/><circle class="cls-3" cx="272.7" cy="177.75" r="44.08" fill="#941d19"/><circle class="cls-3" cx="547.12" cy="452.17" r="44.08" fill="#6f0f0c"/><circle class="cls-3" cx="163.68" cy="385.82" r="44.08" fill="#941d19"/><circle class="cls-3" cx="330.26" cy="560.7" r="44.08" fill="#6f0f0c"/><path class="cls-4" d="m444.94 279.92-168.75 168.75a119.32 119.32 0 0 0 168.75-168.75z" fill="#6f0f0c"/><path class="cls-3" d="m375.68 245.76a119.33 119.33 0 0 0-99.49 202.91l168.75-168.75a118.89 118.89 0 0 0-69.26-34.16z" fill="#941d19"/></g></g></g></svg>
