<?xml version="1.0" encoding="UTF-8"?>
<svg width="40" height="40" version="1.1" viewBox="0 0 40 40" xmlns="http://www.w3.org/2000/svg" xmlns:cc="http://creativecommons.org/ns#" xmlns:dc="http://purl.org/dc/elements/1.1/" xmlns:rdf="http://www.w3.org/1999/02/22-rdf-syntax-ns#"><metadata><rdf:RDF><cc:Work rdf:about=""><dc:format>image/svg+xml</dc:format><dc:type rdf:resource="http://purl.org/dc/dcmitype/StillImage"/><dc:title/></cc:Work></rdf:RDF></metadata><defs><mask id="c" fill="#ffffff"><path d="m0 0h313.3v159.86h-313.3z" fill="#fff" fill-rule="evenodd"/></mask></defs><mask id="a" fill="#ffffff"><path d="m0 0h313.3v159.86h-313.3z" fill="#fff" fill-rule="evenodd"/></mask><mask id="b" fill="#ffffff"><path d="m0 0h313.3v159.86h-313.3z" fill="#fff" fill-rule="evenodd"/></mask><g><g transform="translate(-.13613 .23643)"><g transform="matrix(.49527 0 0 .49527 5.0758 3.2126)"><g transform="matrix(1.7758,0,0,1.7758,-164.24,-70.425)"><g transform="translate(96.564,87.836)" fill="#66ff9a" stroke-width="3.24"><polygon class="st0" transform="matrix(.72255 0 0 .7031 -28.717 -125.97)" points="78.4 144.9 55.7 158 32.9 144.9 32.9 118.6 55.7 105.5 78.4 118.6" fill="#ed8ced"/></g><g transform="matrix(.15831 0 0 .15831 83.649 18.463)" fill="#005e20" fill-rule="evenodd"><g transform="matrix(1.0777,0,0,-1.0777,-10.799,451.79)"><g transform="matrix(.94489 0 0 .94489 8.6963 2.7018)" fill="#6f0c6f" mask="url(#c)"><path transform="rotate(35,137.93,151.55)" d="m203.46 95.688c6.9363 0 12.559-14.809 12.559-33.077s-5.623-33.077-12.559-33.077-12.559 14.809-12.559 33.077 5.623 33.077 12.559 33.077z"/><path transform="matrix(-.81915 .57358 .57358 .81915 58.085 47.705)" d="m30.142 95.688c6.9363 0 12.559-14.809 12.559-33.077s-5.623-33.077-12.559-33.077c-6.9363 0-12.559 14.809-12.559 33.077s5.623 33.077 12.559 33.077z"/><path d="m153.24 119.95c-6.9363 0-12.559-14.809-12.559-33.077s5.623-33.077 12.559-33.077c6.9363 0 12.559 14.809 12.559 33.077s-5.623 33.077-12.559 33.077z"/></g><path transform="matrix(.94489 0 0 .94489 8.6963 2.7018)" d="m251.47 173.1c-20.23-33.61-56.89-56.068-98.756-56.068-40.721 0-76.516 21.246-97.059 53.335" fill="none" mask="url(#c)" stroke="#6f0c6f" stroke-width="19.999"/></g></g></g></g></g><g transform="translate(42.319 .23553)"><g transform="matrix(.081529 0 0 .081529 -36.48 2.6561)"><title>background</title><rect x="-1" y="-1" width="314" height="314" fill="none"/></g><g transform="matrix(.081529 0 0 .081529 -36.48 2.6561)"><title>Layer 1</title><g transform="matrix(1.25,0,0,-1.25,0,312)"><g><path d="m208.12 129.26c0-49.429-39.175-89.499-87.5-89.499-48.324 0-87.499 40.07-87.499 89.499 0 49.43 39.175 89.501 87.499 89.501 48.325 0 87.5-40.071 87.5-89.501" fill="#cb33d3" fill-rule="evenodd"/><path d="m36.684 107.1s-6.3344 93.333 79.666 96l-5.9996 10-46.666-15.667-13.334-15.333-11.666-22.334-6.6672-26 2-17.333" fill="#ef3ae6"/><path d="m60.688 190.32c-15.352-15.708-24.852-37.396-24.852-61.389 0-23.988 9.5-45.679 24.852-61.384 15.359-15.705 36.527-25.396 59.928-25.396 23.402 0 44.571 9.691 59.929 25.396 15.351 15.705 24.853 37.396 24.853 61.384 0 23.993-9.502 45.681-24.853 61.389-15.358 15.702-36.527 25.393-59.929 25.395-23.402-2e-3 -44.569-9.693-59.928-25.395zm-3.886-126.57c-16.316 16.686-26.402 39.746-26.402 65.183 0 25.441 10.087 48.499 26.402 65.186 16.312 16.69 38.892 27.035 63.814 27.032 24.923 3e-3 47.505-10.342 63.814-27.032 16.317-16.687 26.405-39.747 26.403-65.186 2e-3 -25.437-10.086-48.497-26.403-65.183-16.309-16.689-38.891-27.033-63.814-27.033-24.923 0-47.503 10.344-63.814 27.033" fill="#6f0c6f"/><g fill-rule="evenodd"><path d="m157.45 128.77-13.334-2-18-2-11.667-0.333-11.333 0.333-8.6672 2.667-7.6668 8.333-6 17-1.3332 3.667-8 2.666-4.6668 7.667-3.3332 11 3.6672 9.667 8.666 3 7-3.334 3.334-7.333 4 0.667 1.3328 1.666-1.3328 7.667-0.334 9.667 2 13.333-0.0781 7.616 6.0781 9.717 10.667 7.667 18.667 8 20.666-3 18-13 8.334-13.333 5.333-9.667 1.333-24-4-20.667-7.333-18.333-7-9.667" fill="#f0b7ef"/><path d="m146.12 71.102-47.667-2v-8l4-28-2-2.334-33.333 11.334-2.334 4-3.3332 37.666-7.6656 22.667-1.6672 5.333 26.666 18.333 8.334 3.334 7.3328-9 6.3332-5.667 7.334-2.333 3.3328-1 4-17.333 3-3.6668 7.6672 2.6668-5.334-10.334 29-13.666-3.666-2" fill="#603361"/><path d="m67.117 187.44 8.666 3 7-3.334 3.334-7.333 4 0.667 1 4-2 7.666 2 18.334-1.6672 10 6 7 13 10.333-3.6668 5-18.333-9-7.6668-6-4.3332-9.333-6.6668-9-2-10.667 1.334-11.333" fill="#805880"/><path d="m80.783 218.77s5 12.333 25 18.333 1 4.334 1 4.334l-21.666-8.334-8.334-8.333-3.666-6.667 7.666 0.667" fill="#dcd8dc"/><path d="m70.783 189.77s-7 23.334 19.667 26.667l-1 4-18.333-4.334-5.334-17.333 1.334-11.333 3.666 2.333" fill="#dcd8dc"/><path d="m81.45 158.77 4.3645 4.229s1.9699-0.229 2.3027-2.562c0.3328-2.334 1.3328-23.334 15.666-34.668 1.3074-1.034-10.666 1.668-10.666 1.668l-10.667 16.666" fill="#f9d8f8"/></g></g><g fill="#fbe6fa"><path d="m142.78 165.1s0.777 10.104 3.498 9.327 2.721-3.498 2.721-3.498-6.608-4.275-6.219-5.829" fill-rule="evenodd"/><path d="m170.45 202.1s-5.494-1.16-6-6c-0.506-4.841 6-1 7-0.667"/><path d="m130.12 201.77s-7.334-1-7.334-5.666c0-4.667 8.3342-4.334 10.667-2.334"/></g><g fill-rule="evenodd"><path d="m84.783 180.1s-12.667 7.667-14 0.333c-1.3332-7.333-4.334-12.667 2-20.333l-4.3332 1.333-4 10.333-1.3328 10 7.666 8.001 8.6668-0.667 5-4 0.3332-5" fill="#f9d8f8"/><path d="m90.783 201.1s5.6668 29.333 34.334 35c23.601 4.665 35.999-1 40.666-6.333 0 0-21 24.999-41 17.333-20-7.667-34.666-21.667-34.333-30.666 0.5676-15.328 0.3332-15.334 0.3332-15.334" fill="#f9d8f8"/><path d="m168.12 226.44s-9.666 0.333-10-8.334c0 0-1e-3 -1.333 0.666-2.666 0 0 7.668 8.667 12.334 4" fill="#fbe6fa"/><path d="m125.79 214.53s-1.6641 13.303-13.006 5.569c-7.3332-5-6.666-12-5.3332-13.333 1.3332-1.334 0.9707-4.019 1.9856-2.176 1.0144 1.843 0.6804 7.843 4.3476 9.509 3.6668 1.667 9.6777 3.529 12.006 0.431" fill="#fbe6fa"/><path d="m94.45 124.44-31.333-14s13-51.667 6.3328-67.667l-4.6668 1.666-0.3332 19.667-8.6656 37.333-3.6672 10.334 32.666 21.999 9.6668-9.332" fill="#8a498b"/><path d="m97.672 95.858 4.4453-5.4238v-20h-5.334s-0.666 14-0.666 15.667c0 1.6668 0.666 7.6668 0.666 7.6668" fill="#895e8b"/><path d="m97.783 67.434-15-0.666 4.334-3 10.666-1.6668" fill="#89498b"/><path d="m149.12 70.768 12.333 0.3332 3-30.667-12.667-1.666-2.666 32" fill="#61335f"/><path d="m152.45 70.768 18.667 1s7.666 19.333 7.666 20.333 6.667 28 6.667 28l-15 15.666-3 2.667-8-8v-31l-7-28.666" fill="#61335f"/><path d="m160.78 73.101-11.666-2.3332 1.666-9.334c4.333-2 11.667 3.334 11.667 3.334" fill="#895e8b"/></g><g fill-rule="evenodd"><path d="m161.12 131.43 23.333-17.333 0.667 8-17.667 16.333-6.333-7" fill="#49728b"/><path d="m109.35 5.098-6.9012 28.004-3.4324 20.663-0.5676 15.337 31.235 1.6628 19.433 0.0032-1.767-35.003 3-27-0.333-5-25.333-2-15.334 3.3332" fill="#fff"/><path d="m144.78 71.101s-1.666-34.667 3.334-59.333c0 0-10-6.334-24.667-8l28 1 3.333 2-4 54.666-1 11.668" fill="#dcd9d8"/><path d="m165.02 43.098 13 3.6668 24.666 1.3332 3.667 11.333-6.667 19.667-7.666 1-10.667-3.3332-10.234-4.9968-5.433 0.9968-4.234-1.6636" fill="#fff"/><path d="m164.78 49.768s8.666 3.9992 10 3.666l-3.666 18.334 4.333 1.666s3-17.333 3-19.333c0 0 18.666-1 20.333-1 0 0 4 7.6668 3 15.667l3.667-10.667 0.333-6-5.333-8-6-1.3332-10 0.3332-3.333 4.3328-11.667-1.666-3.667-1.334" fill="#dcd9d8"/></g><path d="m151.68 73.431-7.333 18.667-7.667 11s1.666 4.667 4 4.667h7.667l7.333-2.667-0.666-12.333-3.334-19.334" fill="#fff"/><path d="m153.12 79.768s-9.334 17.999-9.334 20.666c0 0 1.666 4 4 3s7.334-3.666 7.334-3.666v6.333l-11.334 2.334-7.666-1 13-30.667 2.666-0.334" fill="#dcd8dc" fill-rule="evenodd"/><path d="m112.35 123.76-9.2344 1.004-8.6672 2.667v-3l4.2348-4.67 13.333-6" fill="#fff"/><path d="m97.451 122.76s10.334-4.334 13.667-3.334l0.3316-3.996-9.3316 1.996-5.6672 4 1 1.334" fill="#dcd9d8" fill-rule="evenodd"/><path d="m164.98 106.63c-5.656 0.166-10.766 0.838-15.24 2.1 0.304 1.834-0.265 3.634 0.192 4.955 1.247 0.898 3.337 0.884 5.222 1.095-1.63 0.801-3.92 1.118-5.801 0.655-0.044 1.273-0.615 2.062-0.961 3.058 3.18 1.135 10.687 8.576 14.91 6.112 2.012-1.172 2.867-7.866 3.023-11.121 0.13-2.7-0.245-5.424-1.345-6.854" fill="#d033d3" fill-rule="evenodd"/><path d="m164.98 106.63c-5.656 0.166-10.766 0.838-15.24 2.1 0.304 1.834-0.265 3.634 0.192 4.955 1.247 0.898 3.337 0.884 5.222 1.095-1.63 0.801-3.92 1.118-5.801 0.655-0.044 1.273-0.615 2.062-0.961 3.058 3.18 1.135 10.687 8.576 14.91 6.112 2.012-1.172 2.867-7.866 3.023-11.121 0.13-2.7-0.245-5.424-1.345-6.854z" fill="none" stroke="#d333cd" stroke-width="2"/><path d="m137.94 115.88c-0.015-0.428-0.033-0.859-0.05-1.291-1.766-1.16-4.617-1.146-6.555-2.121 2.857-0.125 5.106-0.813 7.052-1.783-0.043-1.078-0.084-2.155-0.126-3.233-3.237-2.216-6.194-5.516-10.005-7.5941-1.802-0.9828-8.1262-3.5117-10.043-3.0648-1.0847 0.2519-1.1824 1.598-1.616 2.8668-0.9238 2.7171-3.0508 7.0421-3.2363 11.132-0.2363 5.166-0.7578 13.824 4.8094 12.76 4.4914-0.857 9.7152-2.926 13.192-4.826 2.125-1.162 3.354-2.598 6.578-2.846" fill="#d033d3" fill-rule="evenodd"/><path d="m137.94 115.88c-0.015-0.428-0.033-0.859-0.05-1.291-1.766-1.16-4.617-1.146-6.555-2.121 2.857-0.125 5.106-0.813 7.052-1.783-0.043-1.078-0.084-2.155-0.126-3.233-3.237-2.216-6.194-5.516-10.005-7.5941-1.802-0.9828-8.1262-3.5117-10.043-3.0648-1.0847 0.2519-1.1824 1.598-1.616 2.8668-0.9238 2.7171-3.0508 7.0421-3.2363 11.132-0.2363 5.166-0.7578 13.824 4.8094 12.76 4.4914-0.857 9.7152-2.926 13.192-4.826 2.125-1.162 3.354-2.598 6.578-2.846z" fill="none" stroke="#d333cb" stroke-width="2"/><path d="m141.15 109.71c-0.494 2.814-1.065 3.617-0.844 6.072 7.505 5.004 8.914-8.595 0.844-6.072" fill="#d333c5" fill-rule="evenodd"/><path d="m141.15 109.71c-0.494 2.814-1.065 3.617-0.844 6.072 7.505 5.004 8.914-8.595 0.844-6.072z" fill="none" stroke="#d333d3" stroke-width="2"/><path d="m152.02 107.43s-2.334 3.334-0.667 4.334 3.334-1e-3 4.334 1.666 0 2.667 0.333 4.667 2.001 2.334 3.667 2.667 6.334 1 7-0.667l-2 6-4 1.333-12.667-7.333-0.667-3.667v-7.333" fill="#ef3ae6" fill-rule="evenodd"/><path d="m117.02 96.431c-0.4004 5.2021-0.8242 10.397-1.2957 15.594-0.7055 7.76 1.864 6.406 8.5906 6.406 1.0274 0 6.3259-1.225 6.7049-2 1.818-3.713-3.04-2.888 2.094-5.688 4.334-2.363 11.99 1.435 10.239 6.688-0.98 1.168-5.106 0.364-6.585 1.131-2.604 1.35-5.208 2.7-7.8123 4.05-3.3132 1.719-10.971 4.225-14.503 1.823-8.9504-6.087 0.5649-21.296 3.7578-27.646" fill="#ef3ae6" fill-rule="evenodd"/><g fill="#6f0c6f" fill-rule="evenodd"><path d="m125.79 214.53c-9.0852 2.116-13.6-3.802-16.354-9.94-2.459 0.596-1.4805 3.94-0.8594 5.644 1.6262 4.472 8.1797 10.425 13.534 9.618 2.3043-0.347 5.4226-2.454 3.6785-5.322"/><path d="m170.06 204.19c0.143-6e-3 0.288-0.011 0.431-0.017 2.053-4.265 3.83-8.783 6.42-12.548-1.735-4.041-13.138-7.617-12.962-0.361 2.466 1.078 6.723 0.22 8.909 1.597-1.264 3.469-3.088 6.422-2.798 11.329"/><path d="m130.44 204.08c1.948-3.571 2.582-7.323 5.351-10.022 1.247-1.215 3.672-2.696 2.47-6.075-0.281-0.797-2.334-2.574-3.519-2.923-4.329-1.278-14.416-0.264-11 5.133 3.5801-0.167 8.3922-2.325 11.068 0.274-2.055 3.285-5.7186 9.784-4.37 13.613"/><path d="m168.43 167.78c-6.518-4.187-13.786-8.74-24.466-7.684-2.282 1.984-3.152 6.399-0.935 9.315 1.154-1.984 0.429-5.633 3.645-6.182 6.06-1.037 13.113 3.707 17.472 5.365 2.703 4.557-0.233 6.233-2.668 9.166-4.985 6.009-11.672 13.457-11.429 22.453 2.015 1.461 2.189-2.23 2.478-2.902 2.603-6.092 9.154-13.883 13.935-19.097 1.174-1.284 3.107-2.516 3.322-3.365 0.62-2.469-1.613-5.427-1.354-7.069"/><path d="m82.502 172.19c-2.043 1.166-2.5293 6.302-4.9278 6.448-3.4277 0.208-2.8027-6.663-2.789-10.681-2.3594 2.142-2.7743 8.737-1.041 12.124-1.9754 0.97-2.8575-1.07-3.9532-1.789 1.4082 10.23 14.965 4.745 12.711-6.102"/><path d="m172.58 163.52c-3.034-5.775-7.326-12.135-16.229-12.32-0.181 1.865-0.32 4.703 0.01 5.826 6.806 0.654 11.008 4.118 16.219 6.494"/><path d="m129.93 159.78c5.6784-2.986 16.114-3.307 23.832-3.081 0.414-1.691 0.404-3.78 0.42-5.842-9.921-0.495-21.651 1.96-24.252 8.923"/><path d="m128.85 154.21c3.9267-9.859 17.423-8.724 28.804-8.452-0.501-1.28-1.587-2.792-2.937-3.339-3.647-1.484-13.706-2.61-18.769 0.079-3.211 1.707-5.274 5.564-7.0333 7.825-0.8496 1.092-5.0801 3.881-0.0644 3.887"/></g><path d="m167.96 99.826c-4.608-7.8922-9.017-15.998-14.484-22.959 2.292 6.7391 3.273 18.018 3.619 26.617 4.795 2.244 8.901-0.505 10.865-3.6578" fill="#c481c3" fill-rule="evenodd"/><g fill="#231f20" fill-rule="evenodd"><path d="m192.75 71.461c-5.159-1.0328-8.784-6.0468-13.817-5.725 2.766 3.8993 7.613 5.543 13.817 5.725"/><path d="m195.03 63.387c-4.205-0.4441-9.144-1.125-13.409-0.7742 2.019 3.084 9.798 2.0199 13.409 0.7742"/><path d="m196.48 56.426c-4.726-0.1024-10.6-0.0082-15.092 0.3687 2.657 2.8539 12.027 1.059 15.092-0.3687"/></g><path d="m159.06 37.377c0.678-5.9352 3.031-11.949 2.736-18.449-2.613-0.8812-4.114-1.6519-7.615-1.6472-0.247 5.5242-0.986 13.969-0.765 19.235 1.722-0.114 4.261 1.2301 5.644 0.861" fill="#dcd9d8" fill-rule="evenodd"/><g fill-rule="evenodd"><path d="m151.44 124.85c-2.373-1.549-4.394-3.483-6.673-5.137-5.054-0.25-7.812 0.35-11.525 3.252 0.061 0.233 0.434 0.129 0.448 0.415 5.41-2.411 12.287 0.982 17.75 1.47" fill="#f0b7ef"/><path d="m123.04 87.971c1.4864 6.441 7.3106 9.7769 12.6 13.324 5.459-6.9282 8.779-15.838 12.435-24.436-8.638 2.6039-17.464 6.8289-25.034 11.112" fill="#c481be"/><path d="m153.42 36.516c-0.221-5.266 0.518-13.711 0.765-19.235 3.501-0.0047 5.002 0.766 7.615 1.6472 0.295 6.5-2.058 12.514-2.736 18.449-1.383 0.3691-3.922-0.975-5.644-0.861zm-54.514 29.949c2.3086-21.223 5.6523-39.064 11.785-57.857 13.611-4.1328 30.02-4.493 42.051-0.76367-2.209 10.607-1.244 23.521-2.535 34.84-0.973 8.5078-0.477 17.068-1.811 25.748-14.578 3.0328-35.184 0.709-49.49-1.9672zm52.937 1.834c-0.123-9.1148 0.408-18.106 1.104-27.232 3.5 0.5254 5.875 0.8762 9.127 1.5891-1.056 8.7859-0.926 18.672-3.077 26.444-2.486-0.0238-4.675 0.0289-7.154-0.8012zm17.755 1.4692c-1.661 0.3808-3.595 0.0148-5.182-0.016 0.746-7.4301 2.556-15.629 3.193-23.428 2.497-0.0777 3.831 1.1 5.885 1.4961 0.11 6.8461-0.598 16.278-3.896 21.948zm26.884-24.563c5.205 1.264 8.478 7.639 7.022 14.186-0.977 4.4-2.717 12.685-4.579 15.5-1.376 2.082-5.107 4.8078-8.086 2.9-4.846-3.1031-13.383-4.0039-16.917-7.7601 1.772-5.9 2.322-14.004 3.053-21.48 6.054-0.3774 13.503 1.666 18.538-0.5024-3.515-1.1386-8.076-1.1476-11.113-2.807 2.482-1.1988 8.293-0.9566 12.082-0.0367zm-48.403 31.654c-3.656 8.598-6.976 17.508-12.435 24.436-5.2889-3.547-11.113-6.8829-12.6-13.324 7.5705-4.2832 16.396-8.5082 25.034-11.112zm9.012 26.625c-0.346-8.5988-1.327-19.878-3.619-26.617 5.467 6.9613 9.876 15.067 14.484 22.959-1.964 3.1528-6.07 5.9018-10.865 3.6578zm-10.216 3.63c-2.071 0.223-3.829-2.381-6.522-1.255-0.617-0.682-1.178-1.421-1.807-2.087 5.948-7.1681 8.651-17.338 13.245-25.762 2.465 8.0918 2.181 16.957 2.724 25.789-3.387-0.215-5.266 3.063-7.64 3.315zm-6.569 8.67c-0.221-2.455 0.35-3.258 0.844-6.072 8.07-2.523 6.661 11.076-0.844 6.072zm-8.949 2.938c-3.4773 1.9-8.7011 3.969-13.192 4.826-5.5672 1.065-5.0457-7.594-4.8094-12.76 0.1855-4.09 2.3125-8.415 3.2363-11.132 0.4336-1.2688 0.5313-2.6149 1.616-2.8668 1.9172-0.4469 8.2414 2.082 10.043 3.0648 3.8112 2.0781 6.7682 5.3781 10.005 7.5941 0.042 1.078 0.083 2.155 0.126 3.233-1.946 0.97-4.195 1.658-7.052 1.783 1.938 0.975 4.789 0.961 6.555 2.121 0.017 0.432 0.035 0.863 0.05 1.291-3.224 0.248-4.453 1.684-6.578 2.846zm-33.214 6.033c-2.886-2.93 8.0945-6.924 11.591-7.139-0.0195 1.854 1.0566 3.602 0.8398 4.932-4.1523 0.729-9.6093 0.248-12.43 2.207zm35.552-1.376c-0.014-0.286-0.387-0.182-0.448-0.415 3.713-2.902 6.471-3.502 11.525-3.252 2.279 1.654 4.3 3.588 6.673 5.137-5.463-0.488-12.34-3.881-17.75-1.47zm32.632-9.895c-0.156 3.255-1.011 9.949-3.023 11.121-4.223 2.465-11.73-4.977-14.91-6.112 0.346-0.996 0.917-1.785 0.961-3.058 1.881 0.463 4.171 0.146 5.801-0.655-1.885-0.211-3.975-0.197-5.222-1.095-0.457-1.321 0.112-3.121-0.192-4.955 4.474-1.262 9.584-1.934 15.24-2.1 1.1 1.43 1.475 4.154 1.345 6.854zm-73.042 8.437c-0.9063 0.646-7.0371 8.623-7.877 8.292-11.094-4.375-21.467-11.94-30.736-19.095 8.8379-18.964 12.406-42.198 13.036-64.592 10.124-4.7352 19.017-11.561 32.755-12.274-1.5898 11.248-3.041 21.283-3.9434 31.873-3.4519 1.4551-8.4043-0.066-11.635 0.4512-0.0274 3.8929 4.9336 1.7047 5.3468 4.3226 0.3114 1.9801-2.7296 2.1301-1.7394 5.2481 2.5254-0.918 3.8516-2.9457 6.5449-3.7071 2.461 5.384-0.0344 14.91 0.3203 19.41 0.0672 0.8449 0.4219 4.6809 2.3145 4.0078 1.675-0.5957-0.0957-10.202 0.0879-14.461 0.1672-3.9239-0.4739-7.7207 1.1152-10.184 13.275 1.807 26.766 2.975 41.129 3.3691-3.16 1.3559-6.914 2.6391-11.03 4.959-2.2312 1.2578-9.2644 3.875-9.9082 5.9942-1.0273 3.3769 2.6953 5.1757 3.332 8.0707-6.7011-3.6547-8.0085 3.5031-9.5937 8.5741-1.4363 4.593-2.2539 8.024-2.6063 10.673-5.7726 2.752-11.944 5.539-16.913 9.068zm67.179 7.327c9.243 4.482 10.909-16.751 7.286-23.591 0.56-2.04 2.486-2.821 3.272-4.655-5.158-9.2399-10.887-17.865-16.15-26.996 3.915 2.4371 9.507 0.4359 14.114 2.2601 1.684 0.666 2.903 4.5211 4.178 7.6051 3.507 8.4848 7.189 19.182 8.827 27.279 0.37 1.845 1.378 5.865 1.152 7.507-0.403 2.94-4.392 5.12-6.421 6.938-3.738 3.358-6.092 6.313-9.991 9.453-1.581-2.334-4.974-3.902-6.267-5.8zm-88.318 81.968c-4.4043-4.846-3.4824-13.926-2.9492-20.386 7.9609 5.008 18.527-0.396 18.428-8.914 3.8008 0.101 1.4199 4.747 0.7324 7.74-2.2468 9.776 3.7852 20.397 0.2735 29.337-6.8184-0.517-12.42-3.302-16.484-7.777zm31.514 28.126c-9.9707-2.826-22.749-10.071-26.846-19.028 3.1726 0.461 5.375 2.061 8.5047 2.259 1.1828 0.077 2.7324-0.496 4.0918-0.158 2.709 0.672 4.9953 6.746 7.039 9.006 1.9922 2.207 4.3867 3.15 6.0254 5.162 1.0528 0.508 2.6094 0.473 2.6692 2.054-0.4563 0.488-0.9368 0.86-1.4836 0.705zm51.903-2.658c-10.349 5.839-27.866 10.231-38.875 4.743-8.8828-4.429-20.89-11.757-24.984-21.043 3.8242-8.961-1.1328-17.172-1.4492-26.27-0.168-4.841 2.2793-9.067 2.4668-14.337-1.3086-2.159-5.3067-2.425-8.0743-2.277-0.9316 4.662-2.5625 9.902-7.3632 10.428-6.793 0.743-11.76-4.879-12.068-10.754-0.3652-6.909 5.3066-18.36 13.346-17.565 3.1055 0.307 3.8684 3.42 7.252 3.388 1.8339-3.659-2.8289-4.808-3.3086-7.425-0.125-0.676 0.3867-3.318 0.6843-4.557 1.4602-6.033 4.7153-13.841 7.9192-18.434 4.0664-5.826 12.056-6.704 20.65-7.275 1.5351 3.307 7.1902 3.035 10.875 2.17-4.416 1.749-8.5215 5.989-11.924 9.742-3.9082 4.306-7.8671 8.925-8.0671 14.553 7.3855-10.246 13.487-19.194 26.917-23.701 10.162-3.408 22.03 1.562 29.838 7.045 3.24 2.279 5.174 5.895 7.477 9.205 8.617 12.395 12.638 30.087 11.754 47.235-0.364 7.072-0.348 14.12-2.721 18.878-2.48 4.975-10.868 9.426-15.778 4.926-0.91 4.838 4.083 7.83 9.948 6.089-4.182 5.397-8.571 11.882-14.515 15.236zm19.281-159.57c8.087 4.0203 23.197 10.821 28.267-0.0148 1.871-3.9942 4.066-10.746 5.035-14.869 1.369-5.8168-1.484-18.043-7.463-19.995-5.281-1.7238-11.443-1.6188-17.804-0.341-0.749 0.623-1.583 1.709-2.166 2.841-4.542 0.1762-8.795-0.2438-12.383-2.1109 0.34-3.359-1.932-3.8981-4.062-4.5899-1.579-6.2609 3.159-14.437 2.025-20.146-0.809-4.0672-5.813-4.6961-9.491-5.457-0.12-2.2602 0.161-4.1469 0.412-6.059-0.841-3.0988-4.613-4.8629-8.187-5.2949-11.759-1.4141-29.613-2.0492-40.924 2.018-3.1562 7.7418-5.6426 17.158-8.2715 25.998-11.031-1.1781-19.953 4.7598-28.364 8.65-2.9121 1.35-6.9406 2.0937-8.0285 4.4117-1.0547 2.2442-0.6231 6.5453-0.8848 10.608-0.666 10.377-1.2363 20.386-3.9766 31.011-1.2304 4.7679-3.375 8.975-4.8711 13.569-1.3828 4.2579-3.7988 9.5199-4.4289 13.766-0.9343 6.293 4.9914 6.643 8.7805 9.37 5.8574 4.217 10.455 6.549 16.799 10.355 1.8789 1.127 7.545 3.98 8.1895 5.294 1.2812 2.605-2.1992 6.278-3.1297 8.32-1.4719 3.229-2.2395 5.972-2.4504 9.158-5.3215 0.841-9.3555 4.008-11.792 7.579-4.0308 5.91-6.8262 16.844-3.3387 25.161 0.2735 0.655 1.6375 1.943 1.8387 2.949 0.3969 1.981-0.7469 4.615-0.818 6.722-0.3664 10.81 1.829 20.124 9.1063 23.384 2.9543 11.769 13.528 15.682 23.49 21.531 3.7239 2.186 7.8289 3.583 12.068 5.143 15.208 5.597 38.542 4.543 51.164-5.003 5.352-4.048 13.907-12.595 16.967-18.783 8.082-16.337 7.508-43.64 1.855-63.513-0.76-2.668-1.862-6.59-3.401-9.795-1.073-2.238-4.408-6.716-4.003-8.692 0.417-2.043 7.604-7.5 9.145-8.986 2.775-2.677 8.047-6.23 8.474-9.608 0.459-3.595-1.584-8.513-2.619-11.982-3.46-11.577-6.836-22.278-10.759-32.599" fill="#6f0c6f"/><path d="m120.89 157.26c0.4387 0.584 2.8508 1.471 6.2258-0.154 0 0-4-0.667-3.6672-7.336l-1.6668 0.334s-1.7226 6.047-0.8918 7.156" fill="#fbe6fa"/></g><path d="m150.12 99.934c0-1.0121-0.821-1.8328-1.834-1.8328-1.012 0-1.833 0.8207-1.833 1.8328 0 1.012 0.821 1.834 1.833 1.834 1.013 0 1.834-0.822 1.834-1.834" fill="#1d1919" fill-rule="evenodd"/><path d="m151.95 91.434c0-1.0121-0.821-1.8328-1.834-1.8328-1.012 0-1.833 0.8207-1.833 1.8328s0.821 1.834 1.833 1.834c1.013 0 1.834-0.8219 1.834-1.834" fill="#1d1919" fill-rule="evenodd"/></g></g></g></g></svg>
