<?xml version="1.0" encoding="UTF-8"?>
<svg width="40" height="40" version="1.1" viewBox="0 0 40 40" xmlns="http://www.w3.org/2000/svg" xmlns:cc="http://creativecommons.org/ns#" xmlns:dc="http://purl.org/dc/elements/1.1/" xmlns:rdf="http://www.w3.org/1999/02/22-rdf-syntax-ns#"><metadata><rdf:RDF><cc:Work rdf:about=""><dc:format>image/svg+xml</dc:format><dc:type rdf:resource="http://purl.org/dc/dcmitype/StillImage"/><dc:title/></cc:Work></rdf:RDF></metadata><defs><mask id="c" fill="#ffffff"><path d="m0 0h313.3v159.86h-313.3z" fill="#fff" fill-rule="evenodd"/></mask></defs><mask id="a" fill="#ffffff"><path d="m0 0h313.3v159.86h-313.3z" fill="#fff" fill-rule="evenodd"/></mask><mask id="b" fill="#ffffff"><path d="m0 0h313.3v159.86h-313.3z" fill="#fff" fill-rule="evenodd"/></mask><g><g transform="translate(-1.1509e-6 -.37705)"><g transform="translate(.39981 .60197)"><g transform="matrix(.49527 0 0 .49527 5.0758 3.2126)"><g transform="matrix(1.7758,0,0,1.7758,-164.24,-70.425)"><g transform="translate(96.564,87.836)" fill="#66ff9a" stroke-width="3.24"><polygon class="st0" transform="matrix(.72255 0 0 .7031 -28.717 -125.97)" points="78.4 144.9 55.7 158 32.9 144.9 32.9 118.6 55.7 105.5 78.4 118.6" fill="#ed8ced"/></g><g transform="matrix(.15831 0 0 .15831 83.649 18.463)" fill="#005e20" fill-rule="evenodd"><g transform="matrix(1.0777,0,0,-1.0777,-10.799,451.79)"><g transform="matrix(.94489 0 0 .94489 8.6963 2.7018)" fill="#6f0c6f" mask="url(#c)"><path transform="rotate(35,137.93,151.55)" d="m203.46 95.688c6.9363 0 12.559-14.809 12.559-33.077s-5.623-33.077-12.559-33.077-12.559 14.809-12.559 33.077 5.623 33.077 12.559 33.077z"/><path transform="matrix(-.81915 .57358 .57358 .81915 58.085 47.705)" d="m30.142 95.688c6.9363 0 12.559-14.809 12.559-33.077s-5.623-33.077-12.559-33.077c-6.9363 0-12.559 14.809-12.559 33.077s5.623 33.077 12.559 33.077z"/><path d="m153.24 119.95c-6.9363 0-12.559-14.809-12.559-33.077s5.623-33.077 12.559-33.077c6.9363 0 12.559 14.809 12.559 33.077s-5.623 33.077-12.559 33.077z"/></g><path transform="matrix(.94489 0 0 .94489 8.6963 2.7018)" d="m251.47 173.1c-20.23-33.61-56.89-56.068-98.756-56.068-40.721 0-76.516 21.246-97.059 53.335" fill="none" mask="url(#c)" stroke="#6f0c6f" stroke-width="19.999"/></g></g></g></g></g><g transform="matrix(.072036 0 0 .072036 7.8478 5.2249)" fill="#6f0c6f"><path d="m190.41 101.69c1.065 0.427 2.163 0.628 3.244 0.628 3.468 0 6.751-2.079 8.118-5.496l33.933-84.834c1.793-4.483-0.387-9.569-4.868-11.361-4.485-1.797-9.569 0.387-11.361 4.868l-33.933 84.834c-1.794 4.482 0.386 9.568 4.867 11.361z"/><path d="m271.29 135.74h-47.97c3.384-1.206 5.81-4.429 5.81-8.226v-50.9c0-4.827-3.913-8.74-8.74-8.74s-8.74 3.913-8.74 8.74v42.16h-25.194c-4.827 0-8.74 3.913-8.74 8.74 0 3.798 2.427 7.02 5.81 8.226h-31.003c-4.827 0-8.74 3.913-8.74 8.74v143.78c0 4.827 3.913 8.74 8.74 8.74s8.74-3.913 8.74-8.74v-101.11h101.29v101.11c0 4.827 3.913 8.74 8.74 8.74s8.74-3.913 8.74-8.74v-143.78c1e-3 -4.827-3.912-8.74-8.739-8.74zm-8.741 33.933h-101.29v-16.453h101.29z"/><path d="m51.552 94.426c19.07 0 34.585-15.515 34.585-34.585s-15.515-34.586-34.585-34.586-34.586 15.516-34.586 34.586 15.516 34.585 34.586 34.585zm0-52.171c9.696 0 17.585 7.889 17.585 17.586 0 9.696-7.889 17.585-17.585 17.585-9.697 0-17.586-7.889-17.586-17.585 0-9.697 7.889-17.586 17.586-17.586z"/><path d="m110.42 173.42h-27.546v-35.099c0-17.272-14.052-31.325-31.324-31.325s-31.325 14.053-31.325 31.325v54.6c0 16.584 13.491 30.075 30.075 30.075h35.741v65.326c0 4.694 3.806 8.5 8.5 8.5h33c4.694 0 8.5-3.806 8.5-8.5v-89.281c0-14.128-11.493-25.621-25.621-25.621zm8.621 106.4h-16v-65.326c0-4.694-3.806-8.5-8.5-8.5h-44.241c-7.21 0-13.075-5.865-13.075-13.075v-54.6c0-7.899 6.426-14.325 14.325-14.325 7.898 0 14.324 6.426 14.324 14.325v43.599c0 4.694 3.806 8.5 8.5 8.5h36.046c4.754 0 8.621 3.867 8.621 8.621z"/></g></g></g></svg>
