<?xml version="1.0" encoding="UTF-8" standalone="no"?>
<svg
   xmlns:dc="http://purl.org/dc/elements/1.1/"
   xmlns:cc="http://creativecommons.org/ns#"
   xmlns:rdf="http://www.w3.org/1999/02/22-rdf-syntax-ns#"
   xmlns:svg="http://www.w3.org/2000/svg"
   xmlns="http://www.w3.org/2000/svg"
   xmlns:sodipodi="http://sodipodi.sourceforge.net/DTD/sodipodi-0.dtd"
   xmlns:inkscape="http://www.inkscape.org/namespaces/inkscape"
   height="40"
   viewBox="0 0 60 40"
   width="60"
   version="1.1"
   id="svg36"
   sodipodi:docname="example-pod.svg"
   inkscape:version="1.0.1 (3bc2e813f5, 2020-09-07)">
  <sodipodi:namedview
     pagecolor="#ffffff"
     bordercolor="#666666"
     borderopacity="1"
     objecttolerance="10"
     gridtolerance="10"
     guidetolerance="10"
     inkscape:pageopacity="0"
     inkscape:pageshadow="2"
     inkscape:window-width="1920"
     inkscape:window-height="1016"
     id="namedview161"
     showgrid="false"
     inkscape:zoom="19.85"
     inkscape:cx="30"
     inkscape:cy="20"
     inkscape:window-x="0"
     inkscape:window-y="0"
     inkscape:window-maximized="1"
     inkscape:current-layer="g8" />
  <metadata
     id="metadata42">
    <rdf:RDF>
      <cc:Work
         rdf:about="">
        <dc:format>image/svg+xml</dc:format>
        <dc:type
           rdf:resource="http://purl.org/dc/dcmitype/StillImage" />
        <dc:title />
      </cc:Work>
    </rdf:RDF>
  </metadata>
  <defs
     id="defs40">
    <mask
       id="a-1"
       fill="#ffffff">
      <path
         d="M 0,0 H 313.30315 V 159.86486 H 0 Z"
         fill="#ffffff"
         fill-rule="evenodd"
         id="path2-9" />
    </mask>
    <clipPath
       clipPathUnits="userSpaceOnUse"
       id="clipPath3444">
      <path
         d="M 11.52,162 C 11.52,81.677 135.307,16.561 288,16.561 v 0 c 152.693,0 276.481,65.116 276.481,145.439 v 0 c 0,80.322 -123.788,145.439 -276.481,145.439 v 0 C 135.307,307.439 11.52,242.322 11.52,162"
         id="path3446" />
    </clipPath>
    <radialGradient
       cx="0"
       cy="0"
       fx="0"
       fy="0"
       gradientTransform="matrix(363.05789,0,0,-363.05789,177.52002,256.30713)"
       gradientUnits="userSpaceOnUse"
       id="radialGradient3452"
       r="1"
       spreadMethod="pad">
      <stop
         id="stop3454"
         offset="0"
         style="stop-opacity:1;stop-color:#aeb2d5" />
      <stop
         id="stop3456"
         offset="0.3"
         style="stop-opacity:1;stop-color:#aeb2d5" />
      <stop
         id="stop3458"
         offset="0.75"
         style="stop-opacity:1;stop-color:#484c89" />
      <stop
         id="stop3460"
         offset="1"
         style="stop-opacity:1;stop-color:#484c89" />
    </radialGradient>
    <clipPath
       clipPathUnits="userSpaceOnUse"
       id="clipPath3468">
      <path
         d="M 0,324 H 576 V 0 H 0 Z"
         id="path3470" />
    </clipPath>
    <clipPath
       clipPathUnits="userSpaceOnUse"
       id="clipPath3480">
      <path
         d="M 0,324 H 576 V 0 H 0 Z"
         id="path3482" />
    </clipPath>
  </defs>
  <mask
     id="a"
     fill="#ffffff">
    <path
       d="M 0,0 H 313.30315 V 159.86486 H 0 Z"
       fill="#ffffff"
       fill-rule="evenodd"
       id="path2" />
  </mask>
  <mask
     id="b"
     fill="#ffffff">
    <path
       d="M 0,0 H 313.30315 V 159.86486 H 0 Z"
       fill="#ffffff"
       fill-rule="evenodd"
       id="path5" />
  </mask>
  <g
     id="g1042"
     style="display:inline">
    <g
       id="g994"
       transform="matrix(0.08667043,0,0,0.08667043,54.837532,-43.975856)"
       style="display:inline">
      <path
         id="path990"
         style="fill:#000e44;fill-opacity:1;fill-rule:evenodd;stroke:none;stroke-width:3.14747"
         d="m 56.695351,510.77372 -107.53235,84.40183 -79.398391,-66.27467 61.189259,82.84335 -54.627399,74.39502 72.836531,-52.98696 102.528945,91.04567 -81.03891,-107.53235 z" />
    </g>
    <circle
       style="opacity:1;fill:#bcbcbc;fill-opacity:1;stroke:none;stroke-width:0.308165;stroke-miterlimit:2.5;stroke-opacity:1;stop-color:#000000"
       id="path912"
       cx="16.627409"
       cy="16.633268"
       r="16.433828" />
    <g
       fill="none"
       fill-rule="evenodd"
       transform="matrix(0.15069337,0,0,0.15069337,-6.1976669,-20.880758)"
       id="g1008">
      <g
         transform="matrix(0.92863152,0,0,-0.92863152,9.2718211,454.1644)"
         id="g1006">
        <g
           fill="#0f1689"
           mask="url(#a-1)"
           id="g1002"
           style="fill:#3e3e3e;fill-opacity:1"
           transform="matrix(0.94489362,0,0,0.94489362,8.6962507,2.7018401)">
          <path
             d="m 203.46068,95.687543 c 6.93631,0 12.5593,-14.80922 12.5593,-33.077318 0,-18.268097 -5.62299,-33.077317 -12.5593,-33.077317 -6.93631,0 -12.55931,14.80922 -12.55931,33.077317 0,18.268098 5.62299,33.077318 12.55931,33.077318 z"
             transform="rotate(35,137.93117,151.55002)"
             id="path996"
             style="fill:#3e3e3e;fill-opacity:1" />
          <path
             d="m 30.142322,95.687543 c 6.936311,0 12.559301,-14.80922 12.559301,-33.077318 0,-18.268097 -5.62299,-33.077317 -12.559301,-33.077317 -6.93631,0 -12.559301,14.80922 -12.559301,33.077317 0,18.268098 5.622991,33.077318 12.559301,33.077318 z"
             transform="matrix(-0.81915204,0.57357644,0.57357644,0.81915204,58.084611,47.704768)"
             id="path998"
             style="fill:#3e3e3e;fill-opacity:1" />
          <path
             d="m 116.73282,66.275268 c 6.93631,0 12.5593,-14.80922 12.5593,-33.077318 0,-18.268097 -5.62299,-33.07731673 -12.55931,-33.07731673 -6.93631,0 -12.5593,14.80921973 -12.5593,33.07731673 0,18.268098 5.62299,33.077318 12.55931,33.077318 z"
             transform="matrix(-1,0,0,1,272.62852,53.670762)"
             id="path1000"
             style="fill:#3e3e3e;fill-opacity:1" />
        </g>
        <path
           d="m 251.46701,173.09985 c -20.23008,-33.60997 -56.88957,-56.06791 -98.75578,-56.06791 -40.7208,0 -76.515877,21.2459 -97.058696,53.33459"
           mask="url(#a-1)"
           stroke="#0f1689"
           stroke-width="20"
           id="path1004"
           style="stroke:#3e3e3e;stroke-opacity:1"
           transform="matrix(0.94489362,0,0,0.94489362,8.6962507,2.7018401)" />
      </g>
    </g>
  </g>
  <g
     transform="matrix(0.95879878,0,0,0.95879878,-871.34292,-378.35028)"
     id="g893" />
  <g
     id="g8"
     transform="matrix(0.18989203,0,0,0.18989203,4.2273515,3.5284001)">
    <path
       d="M 64,61.8 110.5,36.3 64,12.9 17.5,36.3 Z"
       fill="#b7c5ff"
       id="path2-5"
       style="fill:#9e9e9e;fill-opacity:1" />
    <path
       d="M 17.5,36.3 17.2,87.6 64,113.1 V 61.8 Z"
       fill="#839afe"
       id="path4"
       style="fill:#626262;fill-opacity:1" />
    <path
       d="M 110.5,36.3 110.8,87.6 64,113.1 V 61.8 Z"
       fill="#436afd"
       id="path6"
       style="fill:#3e3e3e;fill-opacity:1" />
  </g>
</svg>
