<?xml version="1.0" encoding="UTF-8"?>
<svg width="40" height="40" version="1.1" viewBox="0 0 40 40" xmlns="http://www.w3.org/2000/svg" xmlns:cc="http://creativecommons.org/ns#" xmlns:dc="http://purl.org/dc/elements/1.1/" xmlns:rdf="http://www.w3.org/1999/02/22-rdf-syntax-ns#"><metadata><rdf:RDF><cc:Work rdf:about=""><dc:format>image/svg+xml</dc:format><dc:type rdf:resource="http://purl.org/dc/dcmitype/StillImage"/><dc:title/></cc:Work></rdf:RDF></metadata><defs><mask id="c" fill="#ffffff"><path d="m0 0h313.3v159.86h-313.3z" fill="#fff" fill-rule="evenodd"/></mask></defs><mask id="a" fill="#ffffff"><path d="m0 0h313.3v159.86h-313.3z" fill="#fff" fill-rule="evenodd"/></mask><mask id="b" fill="#ffffff"><path d="m0 0h313.3v159.86h-313.3z" fill="#fff" fill-rule="evenodd"/></mask><g transform="matrix(.18989 0 0 .18989 50.031 3.5917)"><g transform="matrix(4.6315 0 0 4.6315 -663 -184.77)"><g transform="translate(96.564,87.836)" fill="#bcbcbc" stroke-width="3.24"><polygon class="st0" transform="matrix(.72255 0 0 .7031 -28.717 -125.97)" points="55.7 158 32.9 144.9 32.9 118.6 55.7 105.5 78.4 118.6 78.4 144.9" fill="#bcbcbc"/></g><g transform="matrix(.15831 0 0 .15831 83.649 18.463)" fill="#005e20" fill-rule="evenodd"><g transform="matrix(1.0777,0,0,-1.0777,-10.799,451.79)"><g transform="matrix(.94489 0 0 .94489 8.6963 2.7018)" fill="#3e3e3e" mask="url(#c)"><path transform="rotate(35,137.93,151.55)" d="m203.46 95.688c6.9363 0 12.559-14.809 12.559-33.077s-5.623-33.077-12.559-33.077-12.559 14.809-12.559 33.077 5.623 33.077 12.559 33.077z"/><path transform="matrix(-.81915 .57358 .57358 .81915 58.085 47.705)" d="m30.142 95.688c6.9363 0 12.559-14.809 12.559-33.077s-5.623-33.077-12.559-33.077c-6.9363 0-12.559 14.809-12.559 33.077s5.623 33.077 12.559 33.077z"/><path d="m153.24 119.95c-6.9363 0-12.559-14.809-12.559-33.077s5.623-33.077 12.559-33.077c6.9363 0 12.559 14.809 12.559 33.077s-5.623 33.077-12.559 33.077z"/></g><path transform="matrix(.94489 0 0 .94489 8.6963 2.7018)" d="m251.47 173.1c-20.23-33.61-56.89-56.068-98.756-56.068-40.721 0-76.516 21.246-97.059 53.335" fill="none" mask="url(#c)" stroke="#3e3e3e" stroke-width="19.999"/></g></g></g></g><g transform="matrix(.91493 0 0 .91493 3.9702 2.1263)" fill="#3e3e3e"><path d="m16.275 5.1514-11.105 4.9628 4.0363 2.2222-4.048 2.1342 3.9356 2.0772-3.6537 2.1423 10.767 5.3728 10.954-5.2899-3.9897-2.1552 4.0253-2.1195-3.9007-2.1017 3.9007-2.2086z"/><g transform="matrix(.53317 0 0 .53317 4.528 4.4005)" data-name="Layer 2"><g fill="#3e3e3e"><g fill="#3e3e3e" data-name="Stack 1@2x.png"><path class="cls-1" d="m44 19a1 1 0 0 0-0.57-0.9l-6.5-3.1 6.5-3.1a1 1 0 0 0 0-1.79l-21-10a0.93 0.93 0 0 0-0.85 0l-21 10a1 1 0 0 0 0 1.79l6.49 3.1-6.5 3.1a1 1 0 0 0 0 1.79l6.5 3.11-6.5 3.1a1 1 0 0 0 0 1.79l21 10a0.93 0.93 0 0 0 0.85 0l21-10a1 1 0 0 0 0-1.79l-6.49-3.1 6.5-3.1a1 1 0 0 0 0.57-0.9zm-40.67-8 18.67-8.89 18.67 8.89-18.67 8.89zm37.34 16-18.67 8.89-18.67-8.89 6.07-2.89 12.17 5.79a0.93 0.93 0 0 0 0.85 0l12.18-5.79zm-18.67 0.89-18.67-8.89 6.07-2.89 12.17 5.79a0.93 0.93 0 0 0 0.85 0l12.18-5.79 6.07 2.89z" fill="#3e3e3e"/></g></g></g></g></svg>
