<?xml version="1.0" encoding="UTF-8" standalone="no"?>
<svg
   height="40"
   viewBox="0 0 60 40"
   width="60"
   version="1.1"
   id="svg36"
   sodipodi:docname="example-fruitapp-project.svg"
   inkscape:version="1.1.2 (0a00cf5339, 2022-02-04)"
   xmlns:inkscape="http://www.inkscape.org/namespaces/inkscape"
   xmlns:sodipodi="http://sodipodi.sourceforge.net/DTD/sodipodi-0.dtd"
   xmlns="http://www.w3.org/2000/svg"
   xmlns:svg="http://www.w3.org/2000/svg"
   xmlns:rdf="http://www.w3.org/1999/02/22-rdf-syntax-ns#"
   xmlns:cc="http://creativecommons.org/ns#"
   xmlns:dc="http://purl.org/dc/elements/1.1/">
  <sodipodi:namedview
     pagecolor="#ffffff"
     bordercolor="#666666"
     borderopacity="1"
     objecttolerance="10"
     gridtolerance="10"
     guidetolerance="10"
     inkscape:pageopacity="0"
     inkscape:pageshadow="2"
     inkscape:window-width="2048"
     inkscape:window-height="1083"
     id="namedview46"
     showgrid="false"
     inkscape:zoom="11.313708"
     inkscape:cx="55.198523"
     inkscape:cy="23.953242"
     inkscape:window-x="0"
     inkscape:window-y="0"
     inkscape:window-maximized="1"
     inkscape:current-layer="svg36"
     inkscape:pagecheckerboard="0" />
  <metadata
     id="metadata42">
    <rdf:RDF>
      <cc:Work
         rdf:about="">
        <dc:format>image/svg+xml</dc:format>
        <dc:type
           rdf:resource="http://purl.org/dc/dcmitype/StillImage" />
      </cc:Work>
    </rdf:RDF>
  </metadata>
  <defs
     id="defs40">
    <mask
       id="a-1"
       fill="#ffffff">
      <path
         d="M 0,0 H 313.30315 V 159.86486 H 0 Z"
         fill="#ffffff"
         fill-rule="evenodd"
         id="path2-9" />
    </mask>
    <clipPath
       clipPathUnits="userSpaceOnUse"
       id="clipPath3444">
      <path
         d="M 11.52,162 C 11.52,81.677 135.307,16.561 288,16.561 v 0 c 152.693,0 276.481,65.116 276.481,145.439 v 0 c 0,80.322 -123.788,145.439 -276.481,145.439 v 0 C 135.307,307.439 11.52,242.322 11.52,162"
         id="path3446" />
    </clipPath>
    <radialGradient
       cx="0"
       cy="0"
       fx="0"
       fy="0"
       gradientTransform="matrix(363.05789,0,0,-363.05789,177.52002,256.30713)"
       gradientUnits="userSpaceOnUse"
       id="radialGradient3452"
       r="1"
       spreadMethod="pad">
      <stop
         id="stop3454"
         offset="0"
         style="stop-opacity:1;stop-color:#aeb2d5" />
      <stop
         id="stop3456"
         offset="0.3"
         style="stop-opacity:1;stop-color:#aeb2d5" />
      <stop
         id="stop3458"
         offset="0.75"
         style="stop-opacity:1;stop-color:#484c89" />
      <stop
         id="stop3460"
         offset="1"
         style="stop-opacity:1;stop-color:#484c89" />
    </radialGradient>
    <clipPath
       clipPathUnits="userSpaceOnUse"
       id="clipPath3468">
      <path
         d="M 0,324 H 576 V 0 H 0 Z"
         id="path3470" />
    </clipPath>
    <clipPath
       clipPathUnits="userSpaceOnUse"
       id="clipPath3480">
      <path
         d="M 0,324 H 576 V 0 H 0 Z"
         id="path3482" />
    </clipPath>
  </defs>
  <mask
     id="a"
     fill="#ffffff">
    <path
       d="M 0,0 H 313.30315 V 159.86486 H 0 Z"
       fill="#ffffff"
       fill-rule="evenodd"
       id="path2" />
  </mask>
  <mask
     id="b"
     fill="#ffffff">
    <path
       d="M 0,0 H 313.30315 V 159.86486 H 0 Z"
       fill="#ffffff"
       fill-rule="evenodd"
       id="path5" />
  </mask>
  <g
     transform="matrix(0.95879878,0,0,0.95879878,-871.34292,-378.35028)"
     id="g893" />
  <polygon
     class="st0"
     transform="matrix(0.26557989,0,0,0.26557989,-1.6394371,-2.1600881)"
     points="52.2,99.9 52.2,75 30.6,62.5 9,75 9,99.9 30.6,112.3 "
     id="polygon20234"
     style="fill:#005e2c;fill-opacity:1" />
  <path
     class="st0"
     d="m 21.040887,36.004999 5.417881,3.133942 5.417875,-3.133942 V 29.73724 l -5.417875,-3.133941 -5.417881,3.133941 z m 5.417881,3.8244 -6.028812,-3.47917 v -6.98485 l 6.028812,-3.479171 6.028813,3.479171 v 6.98485 z"
     stroke-width="0.265579"
     id="path20236"
     style="fill:#005e2c;fill-opacity:1" />
  <polygon
     class="st0"
     transform="matrix(0.26557989,0,0,0.26557989,-1.6394371,-2.1600881)"
     points="55.7,105.5 78.4,118.6 78.4,144.9 55.7,158 32.9,144.9 32.9,118.6 "
     id="polygon20238"
     style="fill:#005e2c;fill-opacity:1" />
  <path
     class="st0"
     d="m 14.375498,24.185832 5.444511,3.133941 5.417881,-3.133941 V 17.94458 l -5.417881,-3.133941 -5.444511,3.133941 z m 5.444511,3.851031 -6.05532,-3.47917 v -6.984851 l 6.028814,-3.47917 6.028806,3.47917 v 6.984851 z"
     stroke-width="0.265579"
     id="path20240"
     style="fill:#005e2c;fill-opacity:1" />
  <path
     id="path18833"
     style="stroke:#ffffff;stroke-width:2;stroke-linejoin:miter;stroke-miterlimit:4;stroke-dasharray:none;stroke-opacity:1;fill:#ffffff;fill-opacity:1"
     d="M 56.598181,0.85544194 C 54.222046,1.4964257 53.32167,3.0135469 53.002398,3.8448017 54.714159,3.8893007 55.88304,3.5464338 56.394094,2.8295594 56.854042,2.1885738 56.725946,1.3440968 56.598181,0.85544194 Z M 52.383015,2.8166022 c -0.283877,0 -0.515716,0.2316361 -0.515716,0.5150699 v 2.3369373 c -0.831037,0.1740426 -2.4503,0.8140377 -3.126712,3.1707653 -0.451916,1.5863113 -1.033202,2.6822463 -1.536794,3.6430773 -0.103318,0.193329 -0.199979,0.374119 -0.290254,0.561072 0.01689,0.0043 0.03307,0.0099 0.04988,0.01427 2.266705,0.586845 4.003106,2.183544 4.848799,4.186009 0.04034,0.09552 0.07843,0.192314 0.114675,0.289603 -0.0364,-0.09737 -0.07425,-0.194257 -0.114675,-0.289603 -0.869288,-2.050219 -2.657427,-3.618496 -4.848799,-4.186009 -0.576679,-0.149346 -1.18119,-0.229435 -1.804368,-0.23065 -0.570453,0 -1.124911,0.06795 -1.657297,0.193074 -0.203329,-1.153387 -0.697536,-1.96651 -1.464876,-2.41857 -1.543938,-0.9107375 -3.820223,-0.235739 -4.618147,0.04665 V 8.4901801 c 0,-0.282522 -0.232041,-0.5137765 -0.515721,-0.5137765 -0.283675,0 -0.516366,0.2312574 -0.516366,0.5137765 v 0.5144231 1.6417508 c -0.822954,-0.290586 -3.186251,-0.986851 -4.727643,0.02591 -0.967553,0.642414 -1.464229,1.894826 -1.464229,3.72536 0,1.907899 0.399909,3.731776 1.161016,5.279646 0.690075,1.413033 1.619017,2.440927 2.59933,2.903187 0.928978,0.436841 1.812611,0.314736 2.612286,-0.353098 0.193952,-0.160532 0.470867,-0.160532 0.657607,0 0.399922,0.327265 0.820022,0.526538 1.2582,0.584393 1.085015,2.619183 3.665432,4.463304 6.675844,4.463304 2.49792,0 4.700064,-1.269524 5.997504,-3.197975 0.404405,0.06389 0.814989,0.101714 1.219327,0.101714 1.091325,0 2.750083,-0.283329 4.132232,-1.089103 1.717405,-0.999383 2.583131,-2.540852 2.583131,-4.585105 0,-3.094955 -0.716648,-4.448753 -1.543269,-6.015647 C 57.044398,11.521732 56.463112,10.432072 56.011192,8.8393835 55.337965,6.4930361 53.733751,5.8486115 52.898736,5.6712087 V 3.3316808 C 52.898736,3.04825 52.66661,2.816611 52.383015,2.816611 Z M 36.386649,9.0045877 C 36.067566,8.1733298 35.167888,6.6568563 32.793458,6.0158755 c -0.134003,0.4886519 -0.255594,1.3327608 0.204083,1.9734688 0.510744,0.7171471 1.678377,1.0597394 3.389108,1.0152434 z M 51.9431,17.575506 c 0.03826,0.104677 0.07412,0.210277 0.107548,0.316818 -0.0336,-0.106761 -0.06921,-0.212247 -0.107548,-0.316818 z m 0.112082,0.33172 c 0.03522,0.113082 0.06816,0.2271 0.09784,0.342084 0.01682,0.06521 0.03098,0.131188 0.046,0.196958 -0.01506,-0.06582 -0.02916,-0.131831 -0.046,-0.196958 -0.02976,-0.115027 -0.06263,-0.229341 -0.09784,-0.342084 z m -13.806503,0.03498 c -0.02122,0.06964 -0.04043,0.140055 -0.0596,0.210562 0.01937,-0.07033 0.03812,-0.140881 0.0596,-0.210562 z m -0.08747,0.310337 c -0.147466,0.575035 -0.226114,1.177659 -0.226114,1.79854 0,0.623221 0.07889,1.22804 0.227406,1.805019 0.02724,0.105822 0.05755,0.210333 0.08942,0.314224 -0.03246,-0.104532 -0.06198,-0.209198 -0.08942,-0.314224 -0.316057,-1.209879 -0.301937,-2.447346 -0.0014,-3.603559 z m 0.154198,4.110207 c 0.01372,0.04062 0.02705,0.08151 0.04147,0.121803 -0.01463,-0.04051 -0.02758,-0.0812 -0.04147,-0.121803 z" />
  <path
     d="m 52.383133,5.7514053 c 0.173992,0.00633 0.348257,0.019391 0.515864,0.051531 V 3.3318249 c 0,-0.2834336 -0.232266,-0.5153337 -0.515864,-0.5153337 -0.283877,0 -0.516144,0.2319001 -0.516144,0.5153337 v 2.4774835 c 0.167609,-0.032139 0.341876,-0.051531 0.516144,-0.05791 z"
     id="Fill-1"
     fill="#9a8478"
     style="stroke-width:0.103201;fill:#08003b;fill-opacity:1" />
  <path
     d="m 53.0022,3.8446644 c 1.71176,0.044499 2.8806,-0.2983806 3.391655,-1.015254 0.459949,-0.6409856 0.332189,-1.485074 0.204423,-1.9737279 -2.376136,0.6409827 -3.276805,2.1577241 -3.596078,2.9889819"
     id="Fill-3"
     fill="#72c067"
     style="stroke-width:0.103201;fill:#08003b;fill-opacity:1" />
  <path
     d="M 56.010922,8.8396026 C 55.100696,5.6672604 52.485558,5.6029098 52.375848,5.6029098 c -0.103329,0 -2.724856,0.064348 -3.635362,3.2366928 -0.45192,1.5863094 -1.032997,2.6822184 -1.536584,3.6430464 -0.103329,0.193332 -0.200263,0.373903 -0.290538,0.560853 3.873958,0.973866 6.217994,4.894012 5.249436,8.762842 -0.206658,0.805775 -0.54247,1.573273 -1.013831,2.269486 0.406917,0.06462 0.819951,0.103182 1.226879,0.103182 1.091325,0 2.750399,-0.283755 4.132547,-1.08953 1.717406,-0.999383 2.582634,-2.54048 2.582634,-4.584735 0,-3.094955 -0.716624,-4.4491 -1.543245,-6.015995 -0.503587,-0.967208 -1.084666,-2.056737 -1.536585,-3.649427 z"
     id="Fill-5"
     fill="#92cb7e"
     style="fill:#08003b;fill-opacity:1;stroke-width:0.103201" />
  <path
     d="m 32.793276,6.0157119 c -0.134005,0.4886538 -0.255374,1.3327433 0.204301,1.9734532 0.510746,0.7171481 1.678599,1.0600248 3.389329,1.0155277 C 36.067824,8.1734351 35.167702,6.6566946 32.793277,6.0157119"
     id="Fill-7"
     fill="#72c067"
     style="stroke-width:0.103201;fill:#08003b;fill-opacity:1" />
  <path
     d="m 36.902907,7.9765225 c -0.283675,0 -0.516001,0.23138 -0.516001,0.5139001 v 2.1957534 c 0.212616,0.07077 0.393591,0.128545 0.516001,0.179963 0.122409,-0.04505 0.303387,-0.109193 0.516003,-0.179963 V 8.4904226 c 0,-0.2825201 -0.232323,-0.5139001 -0.516003,-0.5139001"
     id="Fill-9"
     fill="#9a8478"
     style="stroke-width:0.103201;fill:#08003b;fill-opacity:1" />
  <path
     d="m 43.507747,13.0488 c -0.200057,-1.169054 -0.696736,-1.991343 -1.470606,-2.447249 -1.883489,-1.1110312 -4.895454,0.147824 -4.928199,0.160534 -0.128749,0.05803 -0.277198,0.05803 -0.405943,0 -0.03246,-0.01271 -3.167078,-1.3229576 -5.043901,-0.0898 -0.967552,0.642413 -1.464227,1.894637 -1.464227,3.725172 0,1.907897 0.399841,3.732076 1.160949,5.279947 0.690074,1.413033 1.619053,2.440896 2.599364,2.903157 0.928981,0.436841 1.812457,0.314712 2.612131,-0.353121 0.193952,-0.160534 0.471152,-0.160534 0.657889,0 0.400117,0.327423 0.819655,0.526642 1.258059,0.584389 -1.528596,-3.667421 0.212822,-7.881101 3.902102,-9.403276 0.367658,-0.147825 0.741965,-0.269953 1.122382,-0.359753 z"
     id="Fill-11"
     fill="#ee6e6f"
     style="fill:#08003b;fill-opacity:1;stroke-width:0.103201" />
  <path
     d="m 45.158956,12.82695 c -3.988338,0 -7.22404,3.235704 -7.22404,7.22404 0,3.988613 3.235702,7.224039 7.22404,7.224039 3.988334,0 7.224039,-3.235704 7.224039,-7.224039 -0.0075,-3.980849 -3.235705,-7.216275 -7.224039,-7.22404"
     id="Fill-13"
     fill="#f4854c"
     style="fill:#ffffff;fill-opacity:1;stroke-width:1.3;stroke:#08003b;stroke-opacity:1;stroke-miterlimit:4;stroke-dasharray:none" />
  <path
     d="m 45.858029,17.079718 c 0,-0.0041 -0.254931,-0.469652 -0.702393,-0.469652 -0.451987,0 -0.702961,0.465553 -0.702961,0.469652 -0.07932,0.162111 -0.28006,0.2269 -0.447187,0.149809 -0.167413,-0.07681 -0.234323,-0.271186 -0.154709,-0.433294 0,0 0,-0.0041 0.0037,-0.0041 0.01268,-0.02816 0.309696,-0.587202 0.911872,-0.769269 -0.01268,-0.03253 -0.02513,-0.06069 -0.04206,-0.08912 -0.108408,-0.198467 -0.28824,-0.291688 -0.568582,-0.291688 -0.184066,0 -0.334537,-0.145708 -0.334537,-0.323946 0,-0.178238 0.150471,-0.323945 0.334537,-0.323945 0.464126,0 0.790479,0.174136 1.00363,0.413065 0.213427,-0.238929 0.539787,-0.413065 1.003906,-0.413065 0.18379,0 0.334543,0.145707 0.334543,0.323945 0,0.178238 -0.150753,0.323946 -0.334543,0.323946 -0.280336,0 -0.46017,0.09322 -0.568859,0.291688 -0.01665,0.02843 -0.02939,0.06069 -0.04178,0.08912 0.602177,0.182067 0.899169,0.741112 0.911595,0.769269 0.08357,0.15801 0.01696,0.356478 -0.146239,0.437396 -0.163179,0.0812 -0.368139,0.01613 -0.451704,-0.141606 z"
     id="Fill-15"
     fill="#594a41"
     style="stroke-width:0.103201;fill:#08003b;fill-opacity:1" />
</svg>
