<?xml version="1.0" encoding="UTF-8"?>
<svg width="40" height="40" version="1.1" viewBox="0 0 40 40" xmlns="http://www.w3.org/2000/svg" xmlns:cc="http://creativecommons.org/ns#" xmlns:dc="http://purl.org/dc/elements/1.1/" xmlns:rdf="http://www.w3.org/1999/02/22-rdf-syntax-ns#"><metadata><rdf:RDF><cc:Work rdf:about=""><dc:format>image/svg+xml</dc:format><dc:type rdf:resource="http://purl.org/dc/dcmitype/StillImage"/><dc:title/></cc:Work></rdf:RDF></metadata><defs><mask id="c" fill="#ffffff"><path d="m0 0h313.3v159.86h-313.3z" fill="#fff" fill-rule="evenodd"/></mask><clipPath id="d"><path d="m0 324h576v-324h-576z"/></clipPath></defs><mask id="a" fill="#ffffff"><path d="m0 0h313.3v159.86h-313.3z" fill="#fff" fill-rule="evenodd"/></mask><mask id="b" fill="#ffffff"><path d="m0 0h313.3v159.86h-313.3z" fill="#fff" fill-rule="evenodd"/></mask><g transform="matrix(.18989 0 0 .18989 50.031 3.6126)"><g transform="matrix(4.6315 0 0 4.6315 -663 -184.77)"><g transform="translate(96.564,87.836)" fill="#bcbcbc" stroke-width="3.24"><polygon class="st0" transform="matrix(.72255 0 0 .7031 -28.717 -125.97)" points="55.7 158 32.9 144.9 32.9 118.6 55.7 105.5 78.4 118.6 78.4 144.9" fill="#bcbcbc"/></g><g transform="matrix(.15831 0 0 .15831 83.649 18.463)" fill="#005e20" fill-rule="evenodd"><g transform="matrix(1.0777,0,0,-1.0777,-10.799,451.79)"><g transform="matrix(.94489 0 0 .94489 8.6963 2.7018)" fill="#3e3e3e" mask="url(#c)"><path transform="rotate(35,137.93,151.55)" d="m203.46 95.688c6.9363 0 12.559-14.809 12.559-33.077s-5.623-33.077-12.559-33.077-12.559 14.809-12.559 33.077 5.623 33.077 12.559 33.077z"/><path transform="matrix(-.81915 .57358 .57358 .81915 58.085 47.705)" d="m30.142 95.688c6.9363 0 12.559-14.809 12.559-33.077s-5.623-33.077-12.559-33.077c-6.9363 0-12.559 14.809-12.559 33.077s5.623 33.077 12.559 33.077z"/><path d="m153.24 119.95c-6.9363 0-12.559-14.809-12.559-33.077s5.623-33.077 12.559-33.077c6.9363 0 12.559 14.809 12.559 33.077s-5.623 33.077-12.559 33.077z"/></g><path transform="matrix(.94489 0 0 .94489 8.6963 2.7018)" d="m251.47 173.1c-20.23-33.61-56.89-56.068-98.756-56.068-40.721 0-76.516 21.246-97.059 53.335" fill="none" mask="url(#c)" stroke="#3e3e3e" stroke-width="19.999"/></g></g></g></g><g transform="matrix(.051581 0 0 -.051581 -51.473 23.971)" fill="#3e3e3e"><g transform="matrix(1.1576 0 0 1.1576 1027 -27.227)" fill="#3e3e3e"><g clip-path="url(#d)" fill="#3e3e3e"><g transform="translate(161.73 145.31)"><path d="m0 0c12.065 0 21.072 2.225 26.771 6.611 5.638 4.341 9.532 11.862 11.573 22.353 1.903 9.806 1.178 16.653-2.154 20.348-3.407 3.774-10.773 5.688-21.893 5.688h-19.281l-10.689-55zm-63.063-67.75c-0.895 0-1.745 0.4-2.314 1.092-0.57 0.691-0.801 1.601-0.63 2.48l28.328 145.75c0.274 1.409 1.509 2.427 2.945 2.427h61.054c19.188 0 33.47-5.21 42.447-15.487 9.025-10.331 11.812-24.772 8.283-42.921-1.436-7.394-3.906-14.261-7.341-20.409-3.439-6.155-7.984-11.85-13.511-16.93-6.616-6.192-14.104-10.682-22.236-13.324-8.003-2.607-18.281-3.929-30.548-3.929h-24.722l-7.06-36.322c-0.274-1.41-1.508-2.428-2.944-2.428z" fill="#3e3e3e"/></g><g transform="translate(159.22 197.31)"><path d="m0 0h16.808c13.421 0 18.083-2.945 19.667-4.7 2.628-2.914 3.124-9.058 1.435-17.767-1.898-9.75-5.416-16.663-10.458-20.545-5.162-3.974-13.554-5.988-24.941-5.988h-12.034zm28.831 35h-61.055c-2.872 0-5.341-2.036-5.889-4.855l-28.328-145.75c-0.342-1.759 0.12-3.578 1.259-4.961 1.14-1.383 2.838-2.183 4.63-2.183h31.75c2.873 0 5.342 2.036 5.89 4.855l6.588 33.895h22.249c12.582 0 23.174 1.372 31.479 4.077 8.541 2.775 16.399 7.48 23.354 13.984 5.752 5.292 10.49 11.232 14.08 17.657 3.591 6.427 6.171 13.594 7.668 21.302 3.715 19.104 0.697 34.402-8.969 45.466-9.572 10.958-24.614 16.514-44.706 16.514m-45.633-90h19.313c12.801 0 22.336 2.411 28.601 7.234 6.266 4.824 10.492 12.875 12.688 24.157 2.101 10.832 1.144 18.476-2.871 22.929-4.02 4.453-12.059 6.68-24.121 6.68h-21.754l-11.856-61m45.633 84c18.367 0 31.766-4.82 40.188-14.461 8.421-9.641 10.957-23.098 7.597-40.375-1.383-7.117-3.722-13.624-7.015-19.519-3.297-5.899-7.602-11.293-12.922-16.184-6.34-5.933-13.383-10.161-21.133-12.679-7.75-2.525-17.621-3.782-29.621-3.782h-27.196l-7.531-38.75h-31.75l28.328 145.75h61.055" fill="#3e3e3e"/></g><g transform="translate(311.58 116.31)"><path d="m0 0c-0.896 0-1.745 0.4-2.314 1.092-0.571 0.691-0.802 1.6-0.631 2.48l12.531 64.489c1.192 6.133 0.898 10.535-0.827 12.395-1.056 1.137-4.228 3.044-13.607 3.044h-22.702l-15.755-81.072c-0.274-1.41-1.509-2.428-2.945-2.428h-31.5c-0.896 0-1.745 0.4-2.315 1.092-0.57 0.691-0.801 1.601-0.63 2.48l28.328 145.75c0.274 1.409 1.509 2.427 2.945 2.427h31.5c0.896 0 1.745-0.4 2.315-1.091 0.57-0.692 0.801-1.601 0.63-2.481l-6.836-35.178h24.422c18.605 0 31.221-3.28 38.569-10.028 7.49-6.884 9.827-17.891 6.947-32.719l-13.18-67.825c-0.274-1.41-1.508-2.428-2.945-2.428z" fill="#3e3e3e"/></g><g transform="translate(293.66 271.06)"><path d="m0 0h-31.5c-2.873 0-5.342-2.036-5.89-4.855l-28.328-145.75c-0.342-1.759 0.12-3.578 1.26-4.961s2.838-2.183 4.63-2.183h31.5c2.872 0 5.342 2.036 5.89 4.855l15.283 78.645h20.229c9.363 0 11.328-2 11.407-2.086 0.568-0.611 1.315-3.441 0.082-9.781l-12.531-64.489c-0.342-1.759 0.12-3.578 1.26-4.961s2.838-2.183 4.63-2.183h32c2.872 0 5.342 2.036 5.89 4.855l13.179 67.825c3.093 15.921 0.447 27.864-7.861 35.5-7.928 7.281-21.208 10.82-40.599 10.82h-20.784l6.143 31.605c0.341 1.759-0.12 3.579-1.26 4.961-1.14 1.383-2.838 2.184-4.63 2.184m0-6-7.531-38.75h28.062c17.657 0 29.836-3.082 36.539-9.238 6.703-6.16 8.711-16.141 6.032-29.938l-13.18-67.824h-32l12.531 64.488c1.426 7.336 0.902 12.34-1.574 15.008-2.477 2.668-7.746 4.004-15.805 4.004h-25.176l-16.226-83.5h-31.5l28.328 145.75h31.5" fill="#3e3e3e"/></g><g transform="translate(409.55 145.31)"><path d="m0 0c12.065 0 21.072 2.225 26.771 6.611 5.638 4.34 9.532 11.861 11.574 22.353 1.903 9.806 1.178 16.653-2.155 20.348-3.407 3.774-10.773 5.688-21.893 5.688h-19.281l-10.689-55zm-63.062-67.75c-0.895 0-1.745 0.4-2.314 1.092-0.57 0.691-0.802 1.601-0.631 2.48l28.328 145.75c0.275 1.409 1.509 2.427 2.946 2.427h61.053c19.189 0 33.47-5.21 42.448-15.487 9.025-10.33 11.811-24.771 8.283-42.921-1.438-7.394-3.907-14.261-7.342-20.409-3.439-6.155-7.984-11.85-13.511-16.93-6.616-6.192-14.104-10.682-22.236-13.324-8.003-2.607-18.281-3.929-30.548-3.929h-24.723l-7.057-36.322c-0.275-1.41-1.509-2.428-2.946-2.428z" fill="#3e3e3e"/></g><g transform="translate(407.04 197.31)"><path d="m0 0h16.808c13.421 0 18.083-2.945 19.667-4.7 2.629-2.914 3.125-9.058 1.435-17.766-1.898-9.751-5.417-16.664-10.458-20.546-5.162-3.974-13.554-5.988-24.941-5.988h-12.033zm28.831 35h-61.054c-2.872 0-5.341-2.036-5.889-4.855l-28.328-145.75c-0.342-1.759 0.12-3.578 1.259-4.961 1.14-1.383 2.838-2.183 4.63-2.183h31.75c2.872 0 5.342 2.036 5.89 4.855l6.587 33.895h22.249c12.582 0 23.174 1.372 31.479 4.077 8.541 2.775 16.401 7.481 23.356 13.986 5.752 5.291 10.488 11.23 14.078 17.655 3.591 6.427 6.171 13.594 7.668 21.302 3.715 19.105 0.697 34.403-8.969 45.467-9.572 10.957-24.613 16.513-44.706 16.513m-45.632-90h19.312c12.801 0 22.336 2.411 28.601 7.234 6.267 4.824 10.492 12.875 12.688 24.157 2.102 10.832 1.145 18.476-2.871 22.929-4.02 4.453-12.059 6.68-24.121 6.68h-21.754l-11.855-61m45.632 84c18.367 0 31.766-4.82 40.188-14.461s10.957-23.098 7.597-40.375c-1.383-7.117-3.722-13.624-7.015-19.519-3.297-5.899-7.602-11.293-12.922-16.184-6.34-5.933-13.383-10.161-21.133-12.679-7.75-2.525-17.621-3.782-29.621-3.782h-27.196l-7.53-38.75h-31.75l28.328 145.75h61.054" fill="#3e3e3e"/></g></g></g></g></svg>
