<?xml version="1.0" encoding="UTF-8"?>
<svg width="40" height="40" version="1.1" viewBox="0 0 40 40" xmlns="http://www.w3.org/2000/svg" xmlns:cc="http://creativecommons.org/ns#" xmlns:dc="http://purl.org/dc/elements/1.1/" xmlns:rdf="http://www.w3.org/1999/02/22-rdf-syntax-ns#"><metadata><rdf:RDF><cc:Work rdf:about=""><dc:format>image/svg+xml</dc:format><dc:type rdf:resource="http://purl.org/dc/dcmitype/StillImage"/><dc:title/></cc:Work></rdf:RDF></metadata><defs><mask id="c" fill="#ffffff"><path d="m0 0h313.3v159.86h-313.3z" fill="#fff" fill-rule="evenodd"/></mask></defs><mask id="a" fill="#ffffff"><path d="m0 0h313.3v159.86h-313.3z" fill="#fff" fill-rule="evenodd"/></mask><mask id="b" fill="#ffffff"><path d="m0 0h313.3v159.86h-313.3z" fill="#fff" fill-rule="evenodd"/></mask><g><g transform="matrix(.18989 0 0 .18989 50.032 3.6225)"><g transform="matrix(4.6315,0,0,4.6315,-663,-184.77)"><g transform="translate(96.564,87.836)" fill="#bcbcbc" stroke-width="3.24"><polygon class="st0" transform="matrix(.72255 0 0 .7031 -28.717 -125.97)" points="55.7 105.5 78.4 118.6 78.4 144.9 55.7 158 32.9 144.9 32.9 118.6" fill="#bcbcbc"/></g><g transform="matrix(.15831 0 0 .15831 83.649 18.463)" fill="#005e20" fill-rule="evenodd"><g transform="matrix(1.0777,0,0,-1.0777,-10.799,451.79)"><g transform="matrix(.94489 0 0 .94489 8.6963 2.7018)" fill="#3e3e3e" mask="url(#c)"><path transform="rotate(35,137.93,151.55)" d="m203.46 95.688c6.9363 0 12.559-14.809 12.559-33.077s-5.623-33.077-12.559-33.077-12.559 14.809-12.559 33.077 5.623 33.077 12.559 33.077z"/><path transform="matrix(-.81915 .57358 .57358 .81915 58.085 47.705)" d="m30.142 95.688c6.9363 0 12.559-14.809 12.559-33.077s-5.623-33.077-12.559-33.077c-6.9363 0-12.559 14.809-12.559 33.077s5.623 33.077 12.559 33.077z"/><path d="m153.24 119.95c-6.9363 0-12.559-14.809-12.559-33.077s5.623-33.077 12.559-33.077c6.9363 0 12.559 14.809 12.559 33.077s-5.623 33.077-12.559 33.077z"/></g><path transform="matrix(.94489 0 0 .94489 8.6963 2.7018)" d="m251.47 173.1c-20.23-33.61-56.89-56.068-98.756-56.068-40.721 0-76.516 21.246-97.059 53.335" fill="none" mask="url(#c)" stroke="#3e3e3e" stroke-width="19.999"/></g></g></g></g><path d="m30.342 19.271c0.90604-1.5693 0.85924-1.4836 1.6084-2.7812 0.25699-0.45977 0.48684-0.86545 0.73036-1.2847-0.81154-1.4064-1.6363-2.8263-2.4613-4.2462h-3.1778c-0.54088-0.91956-1.0954-1.8391-1.6498-2.7857h-3.1643c-0.54089-0.90603-1.0683-1.8256-1.6635-2.8128-0.01343 0-0.02692 0-0.04036-0.013526-0.28412 0.45978-0.52743 0.85194-0.79787 1.2847-0.27043-0.44626-0.51396-0.83842-0.78441-1.3117-0.28398 0.4733-0.51386 0.86547-0.79784 1.3252-0.25694-0.43273-0.50036-0.8249-0.78433-1.2847h-0.01353c-0.6491 0.90604-1.0818 1.8797-1.6904 2.7857h-3.1508c-0.54092 0.93309-1.0953 1.8526-1.6498 2.7992h-3.1779c-0.83842 1.447-1.6633 2.8669-2.4747 4.2732 0.2299 0.41921 0.4598 0.82489 0.71671 1.2847l1.6411 2.8242c2.0042 0 2.4394-0.04054 4.757-0.04054 1.3188 2.2842 1.7072 2.8461 3.1328 5.3153 4.1193 0 5.0303 0.02607 7.177 0.02607l2.8091-5.3573h4.906z" fill="#3e3e3e" stroke-width=".021362"/><g fill="#bcbcbc" stroke-width=".021362"><path d="m24.594 12.46c0.52743 0.91957 1.0549 1.8256 1.5823 2.7587-0.5411 0.91955-1.0683 1.8391-1.6094 2.7722h-3.1778c0.2839 0.50034 0.54088 0.94659 0.79786 1.4064-0.2839 0.47329-0.56801 0.91954-0.83845 1.3793h-4.76c-0.27046-0.44625-0.55445-0.8925-0.85195-1.3793 0.25694-0.44627 0.50036-0.89252 0.78432-1.3929h-3.1644c-0.5409-0.93309-1.0683-1.8391-1.6092-2.7722 0.52739-0.91957 1.0548-1.8391 1.5957-2.7587h4.8412c0.24342 0.39216 0.48682 0.79785 0.78441 1.2847 0.2839-0.47331 0.51375-0.86548 0.77074-1.2847 1.5821-0.01352 3.1643-0.01352 4.8547-0.01352z"/><path d="m6.9466 15.205c0.54093-0.93309 1.0683-1.8391 1.5957-2.7452h1.6363c-0.54091 0.93309-1.0548 1.8256-1.5822 2.7452 0.51386 0.8925 1.0413 1.7985 1.5822 2.7587h-1.6227c-0.5274-0.89252-1.0548-1.7985-1.6092-2.7587z"/><path d="m29.381 17.977h-1.6363c0.54088-0.93309 1.0546-1.8256 1.5821-2.7587-0.51375-0.89252-1.0277-1.7985-1.5821-2.7452h1.6227c0.51397 0.89252 1.0414 1.7985 1.5957 2.7316-0.51376 0.91954-1.0549 1.8391-1.5821 2.7722z"/><path d="m16.534 23.508c-0.2434-0.43273-0.48682-0.85194-0.71671-1.2441 0.02705-0.08116 0.04058-0.10819 0.05409-0.12172 0.01353-0.01353 0.04058-0.04058 0.05411-0.04058 1.9067-0.01353 3.8135-0.02705 5.7202-0.02705 0.13522 0 0.25698 0.01353 0.44625 0.02705-0.13522 0.55445-0.5003 0.91957-0.7167 1.3929-1.5823 0.01353-3.178 0.01353-4.8413 0.01353z"/></g><g fill="#3e3e3e" stroke-width=".021362"><path d="m20.578 13.853h3.1509c0.25677 0.44625 0.52721 0.90605 0.81133 1.3658-0.27044 0.45977-0.52743 0.90602-0.79787 1.3523h-1.5417c-0.2839-0.44627-0.56801-0.91957-0.86537-1.4064h-1.5282c0.27066-0.45979 0.51397-0.86548 0.77095-1.3117z"/><path d="m17.346 16.625c-0.51388-0.01353-1.0277-0.02705-1.5551-0.04058-0.29751-0.47332-0.58147-0.93309-0.86546-1.4064h-1.5146c0.27044-0.48684 0.51386-0.89252 0.74376-1.3117h3.1779c0.25692 0.41921 0.51386 0.86546 0.79785 1.3388-0.27046 0.48682-0.54093 0.96013-0.81137 1.4469z"/><path d="m20.578 16.666c0.22985 0.40569 0.47317 0.81137 0.73015 1.2712h-1.5415c-0.2164-0.37866-0.45992-0.79787-0.74382-1.2712h1.5551z"/><path d="m17.332 16.652h1.5146c-0.18933 0.51386-0.44625 0.91954-0.73024 1.2982h-1.4875c0.25692-0.47332 0.50034-0.89252 0.73024-1.3253z"/></g></g></svg>
