<?xml version="1.0" encoding="UTF-8" standalone="no"?>
<svg
   height="40"
   viewBox="0 0 60 40"
   width="60"
   version="1.1"
   id="svg36"
   sodipodi:docname="cluster-chaos.svg"
   inkscape:version="1.1.2 (0a00cf5339, 2022-02-04)"
   xmlns:inkscape="http://www.inkscape.org/namespaces/inkscape"
   xmlns:sodipodi="http://sodipodi.sourceforge.net/DTD/sodipodi-0.dtd"
   xmlns="http://www.w3.org/2000/svg"
   xmlns:svg="http://www.w3.org/2000/svg"
   xmlns:rdf="http://www.w3.org/1999/02/22-rdf-syntax-ns#"
   xmlns:cc="http://creativecommons.org/ns#"
   xmlns:dc="http://purl.org/dc/elements/1.1/">
  <sodipodi:namedview
     pagecolor="#ffffff"
     bordercolor="#666666"
     borderopacity="1"
     objecttolerance="10"
     gridtolerance="10"
     guidetolerance="10"
     inkscape:pageopacity="0"
     inkscape:pageshadow="2"
     inkscape:window-width="2048"
     inkscape:window-height="1083"
     id="namedview81"
     showgrid="false"
     showguides="false"
     inkscape:zoom="1"
     inkscape:cx="-37.5"
     inkscape:cy="159"
     inkscape:window-x="0"
     inkscape:window-y="0"
     inkscape:window-maximized="1"
     inkscape:current-layer="g1042"
     inkscape:document-rotation="0"
     inkscape:pagecheckerboard="0" />
  <metadata
     id="metadata42">
    <rdf:RDF>
      <cc:Work
         rdf:about="">
        <dc:format>image/svg+xml</dc:format>
        <dc:type
           rdf:resource="http://purl.org/dc/dcmitype/StillImage" />
      </cc:Work>
    </rdf:RDF>
  </metadata>
  <defs
     id="defs40">
    <mask
       id="a-1"
       fill="#ffffff">
      <path
         d="M 0,0 H 313.30315 V 159.86486 H 0 Z"
         fill="#ffffff"
         fill-rule="evenodd"
         id="path2-9" />
    </mask>
    <clipPath
       clipPathUnits="userSpaceOnUse"
       id="clipPath3444">
      <path
         d="M 11.52,162 C 11.52,81.677 135.307,16.561 288,16.561 v 0 c 152.693,0 276.481,65.116 276.481,145.439 v 0 c 0,80.322 -123.788,145.439 -276.481,145.439 v 0 C 135.307,307.439 11.52,242.322 11.52,162"
         id="path3446" />
    </clipPath>
    <radialGradient
       cx="0"
       cy="0"
       fx="0"
       fy="0"
       gradientTransform="matrix(363.05789,0,0,-363.05789,177.52002,256.30713)"
       gradientUnits="userSpaceOnUse"
       id="radialGradient3452"
       r="1"
       spreadMethod="pad">
      <stop
         id="stop3454"
         offset="0"
         style="stop-opacity:1;stop-color:#aeb2d5" />
      <stop
         id="stop3456"
         offset="0.3"
         style="stop-opacity:1;stop-color:#aeb2d5" />
      <stop
         id="stop3458"
         offset="0.75"
         style="stop-opacity:1;stop-color:#484c89" />
      <stop
         id="stop3460"
         offset="1"
         style="stop-opacity:1;stop-color:#484c89" />
    </radialGradient>
    <clipPath
       clipPathUnits="userSpaceOnUse"
       id="clipPath3468">
      <path
         d="M 0,324 H 576 V 0 H 0 Z"
         id="path3470" />
    </clipPath>
    <clipPath
       clipPathUnits="userSpaceOnUse"
       id="clipPath3480">
      <path
         d="M 0,324 H 576 V 0 H 0 Z"
         id="path3482" />
    </clipPath>
  </defs>
  <mask
     id="a"
     fill="#ffffff">
    <path
       d="M 0,0 H 313.30315 V 159.86486 H 0 Z"
       fill="#ffffff"
       fill-rule="evenodd"
       id="path2" />
  </mask>
  <mask
     id="b"
     fill="#ffffff">
    <path
       d="M 0,0 H 313.30315 V 159.86486 H 0 Z"
       fill="#ffffff"
       fill-rule="evenodd"
       id="path5" />
  </mask>
  <g
     id="g1042"
     style="display:inline">
    <g
       id="g994"
       transform="matrix(0.08667043,0,0,0.08667043,54.837532,-43.975856)"
       style="display:inline">
      <path
         id="path990"
         style="fill:#000e44;fill-opacity:1;fill-rule:evenodd;stroke:none;stroke-width:3.14747"
         d="m 56.695351,510.77372 -107.53235,84.40183 -79.398391,-66.27467 61.189259,82.84335 -54.627399,74.39502 72.836531,-52.98696 102.528945,91.04567 -81.03891,-107.53235 z" />
    </g>
    <circle
       style="opacity:1;fill:#eaed8c;fill-opacity:1;stroke:none;stroke-width:0.308165;stroke-miterlimit:2.5;stroke-opacity:1;stop-color:#000000"
       id="path912"
       cx="16.627409"
       cy="16.633268"
       r="16.433828" />
    <g
       fill="none"
       fill-rule="evenodd"
       transform="matrix(0.15069337,0,0,0.15069337,-6.1976669,-20.880758)"
       id="g1008"
       style="fill:#6f6f0c;fill-opacity:1">
      <g
         transform="matrix(0.92863152,0,0,-0.92863152,9.2718211,454.1644)"
         id="g1006"
         style="fill:#6f6f0c;fill-opacity:1">
        <g
           fill="#0f1689"
           mask="url(#a-1)"
           id="g1002"
           style="fill:#6f6f0c;fill-opacity:1"
           transform="matrix(0.94489362,0,0,0.94489362,8.6962507,2.7018401)">
          <path
             d="m 203.46068,95.687543 c 6.93631,0 12.5593,-14.80922 12.5593,-33.077318 0,-18.268097 -5.62299,-33.077317 -12.5593,-33.077317 -6.93631,0 -12.55931,14.80922 -12.55931,33.077317 0,18.268098 5.62299,33.077318 12.55931,33.077318 z"
             transform="rotate(35,137.93117,151.55002)"
             id="path996"
             style="fill:#6f6f0c;fill-opacity:1" />
          <path
             d="m 30.142322,95.687543 c 6.936311,0 12.559301,-14.80922 12.559301,-33.077318 0,-18.268097 -5.62299,-33.077317 -12.559301,-33.077317 -6.93631,0 -12.559301,14.80922 -12.559301,33.077317 0,18.268098 5.622991,33.077318 12.559301,33.077318 z"
             transform="matrix(-0.81915204,0.57357644,0.57357644,0.81915204,58.084611,47.704768)"
             id="path998"
             style="fill:#6f6f0c;fill-opacity:1" />
          <path
             d="m 116.73282,66.275268 c 6.93631,0 12.5593,-14.80922 12.5593,-33.077318 0,-18.268097 -5.62299,-33.07731673 -12.55931,-33.07731673 -6.93631,0 -12.5593,14.80921973 -12.5593,33.07731673 0,18.268098 5.62299,33.077318 12.55931,33.077318 z"
             transform="matrix(-1,0,0,1,272.62852,53.670762)"
             id="path1000"
             style="fill:#6f6f0c;fill-opacity:1" />
        </g>
        <path
           d="m 251.46701,173.09985 c -20.23008,-33.60997 -56.88957,-56.06791 -98.75578,-56.06791 -40.7208,0 -76.515877,21.2459 -97.058696,53.33459"
           mask="url(#a-1)"
           stroke="#0f1689"
           stroke-width="20"
           id="path1004"
           style="stroke:#6f6f0c;stroke-opacity:1;fill:none;fill-opacity:1"
           transform="matrix(0.94489362,0,0,0.94489362,8.6962507,2.7018401)" />
      </g>
    </g>
    <g
       id="g97"
       transform="matrix(0.03936691,0,0,0.03936691,6.8555781,5.1294397)" />
    <g
       id="g99"
       transform="matrix(0.03936691,0,0,0.03936691,6.8555781,5.1294397)" />
    <g
       id="g101"
       transform="matrix(0.03936691,0,0,0.03936691,6.8555781,5.1294397)" />
    <g
       id="g103"
       transform="matrix(0.03936691,0,0,0.03936691,6.8555781,5.1294397)" />
    <g
       id="g105"
       transform="matrix(0.03936691,0,0,0.03936691,6.8555781,5.1294397)" />
    <g
       id="g107"
       transform="matrix(0.03936691,0,0,0.03936691,6.8555781,5.1294397)" />
    <g
       id="g109"
       transform="matrix(0.03936691,0,0,0.03936691,6.8555781,5.1294397)" />
    <g
       id="g111"
       transform="matrix(0.03936691,0,0,0.03936691,6.8555781,5.1294397)" />
    <g
       id="g113"
       transform="matrix(0.03936691,0,0,0.03936691,6.8555781,5.1294397)" />
    <g
       id="g115"
       transform="matrix(0.03936691,0,0,0.03936691,6.8555781,5.1294397)" />
    <g
       id="g117"
       transform="matrix(0.03936691,0,0,0.03936691,6.8555781,5.1294397)" />
    <g
       id="g119"
       transform="matrix(0.03936691,0,0,0.03936691,6.8555781,5.1294397)" />
    <g
       id="g121"
       transform="matrix(0.03936691,0,0,0.03936691,6.8555781,5.1294397)" />
    <g
       id="g123"
       transform="matrix(0.03936691,0,0,0.03936691,6.8555781,5.1294397)" />
    <g
       id="g125"
       transform="matrix(0.03936691,0,0,0.03936691,6.8555781,5.1294397)" />
    <path
       d="m 28.98263,18.905256 c 0.982105,-1.701054 0.931376,-1.60812 1.743486,-3.014743 0.278563,-0.498373 0.527713,-0.938115 0.791685,-1.392517 -0.879675,-1.524459 -1.773702,-3.063575 -2.667966,-4.6026967 H 25.405234 C 24.818942,8.8985325 24.217827,7.9017802 23.616944,6.8756944 h -3.430012 c -0.586297,-0.9821001 -1.158001,-1.978862 -1.803111,-3.048914 -0.01456,0 -0.02918,0 -0.04375,-0.014662 C 18.0321,4.3104971 17.768361,4.7355855 17.475215,5.20465 17.182076,4.7209285 16.918103,4.2958401 16.624952,3.7827996 16.317125,4.2958401 16.06795,4.7209285 15.760123,5.2193069 15.481611,4.7502425 15.217754,4.3251541 14.909946,3.8267757 h -0.01467 C 14.191678,4.8088805 13.722618,5.8642706 13.062988,6.8463755 H 9.6476235 C 9.0612836,7.8578044 8.4603108,8.8545516 7.8593084,9.8806373 H 4.4146197 C 3.5058145,11.449073 2.6116664,12.988189 1.7321565,14.512649 c 0.2491989,0.454403 0.4983977,0.894143 0.7768866,1.392521 l 1.778876,3.06136 c 2.1724223,0 2.6441813,-0.04394 5.1563756,-0.04394 1.4294943,2.475956 1.8505783,3.085038 3.3958463,5.76152 4.465119,0 5.452646,0.02826 7.779586,0.02826 l 3.044976,-5.807099 c 2.6981,0 4.178573,0 5.317945,0 z"
       id="path70"
       sodipodi:nodetypes="cccccccccccccccccccccccccc"
       style="fill:#6f6f0c;fill-opacity:1;stroke-width:0.0231553" />
    <path
       d="m 22.752089,11.522363 c 0.571708,0.996771 1.143415,1.978861 1.715124,2.99029 -0.586531,0.996748 -1.158005,1.993519 -1.74453,3.004949 -1.128598,0 -2.242602,0 -3.4446,0 0.307734,0.542344 0.586295,1.026061 0.864852,1.524459 -0.307735,0.51303 -0.615702,0.996747 -0.908848,1.495121 -1.729712,0 -3.415355,0 -5.159676,0 -0.29317,-0.483717 -0.600996,-0.967434 -0.923481,-1.495121 0.278513,-0.483741 0.542369,-0.967458 0.850172,-1.509802 -1.172661,0 -2.301347,0 -3.430036,0 C 9.9847498,16.52083 9.4130669,15.53874 8.8267458,14.52731 c 0.5716641,-0.996772 1.143347,-1.993519 1.7296632,-2.99029 1.744344,0 3.474007,0 5.247666,0 0.263857,0.425088 0.527688,0.864834 0.850269,1.392541 0.307736,-0.51305 0.556885,-0.938139 0.835447,-1.392541 1.714889,-0.01466 3.430012,-0.01466 5.262298,-0.01466 z"
       fill="#ffffff"
       id="path74"
       style="stroke-width:0.0231553;fill:#eaed8c;fill-opacity:1" />
    <path
       d="m 3.623056,14.497996 c 0.5863412,-1.011429 1.1580001,-1.993518 1.729683,-2.975633 0.5863211,0 1.143347,0 1.7736392,0 -0.5863212,1.011428 -1.1433229,1.978861 -1.7150058,2.975633 0.5570017,0.967433 1.1286846,1.949548 1.7150058,2.990292 -0.6009782,0 -1.1580041,0 -1.7589823,0 C 4.795713,16.52083 4.2240543,15.53874 3.623056,14.497996 Z"
       fill="#ffffff"
       id="path92"
       style="stroke-width:0.0231553;fill:#eaed8c;fill-opacity:1" />
    <path
       d="m 27.941215,17.502945 c -0.630522,0 -1.158,0 -1.773703,0 0.586297,-1.01143 1.143181,-1.978887 1.714889,-2.990292 -0.556885,-0.967458 -1.114004,-1.949548 -1.714889,-2.975633 0.600885,0 1.158004,0 1.758885,0 0.557119,0.967458 1.128826,1.949547 1.729712,2.960976 -0.556891,0.996748 -1.143416,1.993519 -1.714894,3.004949 z"
       fill="#ffffff"
       id="path94"
       style="stroke-width:0.0231553;fill:#eaed8c;fill-opacity:1" />
    <path
       d="m 14.015759,23.498158 c -0.263832,-0.46906 -0.527687,-0.923463 -0.776886,-1.348551 0.02932,-0.08797 0.04399,-0.117275 0.05863,-0.131942 0.01467,-0.01467 0.04399,-0.04399 0.05865,-0.04399 2.06681,-0.01467 4.13364,-0.02932 6.200491,-0.02932 0.146571,0 0.278557,0.01467 0.483718,0.02932 -0.146576,0.600997 -0.542301,0.996772 -0.776867,1.509802 -1.715124,0.01467 -3.444763,0.01467 -5.247734,0.01467 z"
       fill="#ffffff"
       id="path96"
       style="stroke-width:0.0231553;fill:#eaed8c;fill-opacity:1" />
    <path
       d="m 18.398639,13.032165 c 1.158005,0 2.242602,0 3.415423,0 0.278329,0.483716 0.571474,0.982115 0.879443,1.480488 -0.293146,0.498373 -0.571708,0.982091 -0.864853,1.465831 -0.557119,0 -1.084831,0 -1.671128,0 -0.307735,-0.48374 -0.615702,-0.996772 -0.938026,-1.524459 -0.527713,0 -1.040836,0 -1.656538,0 0.293379,-0.498398 0.557118,-0.938144 0.835679,-1.42186 z"
       id="path100"
       style="stroke-width:0.0231553;fill:#6f6f0c;fill-opacity:1" />
    <path
       d="m 14.89527,16.037113 c -0.557026,-0.01467 -1.114029,-0.02932 -1.685712,-0.04399 -0.322484,-0.513057 -0.630292,-1.011431 -0.938119,-1.524461 -0.527712,0 -1.040743,0 -1.64172,0 0.29315,-0.527712 0.557006,-0.967458 0.806205,-1.42186 1.157999,0 2.272032,0 3.444689,0 0.278494,0.454402 0.557006,0.93812 0.864834,1.451174 -0.293171,0.527687 -0.58634,1.040744 -0.879491,1.568431 z"
       id="path102"
       style="stroke-width:0.0231553;fill:#6f6f0c;fill-opacity:1" />
    <path
       d="m 18.398639,16.081084 c 0.249152,0.439746 0.512896,0.87949 0.791452,1.377885 -0.586296,0 -1.084596,0 -1.670894,0 -0.234565,-0.410451 -0.498539,-0.864853 -0.806273,-1.377885 0.600885,0 1.09942,0 1.685715,0 z"
       id="path104"
       style="stroke-width:0.0231553;fill:#6f6f0c;fill-opacity:1" />
    <path
       d="m 14.880613,16.066427 c 0.527687,0 1.05538,0 1.641721,0 -0.205228,0.557003 -0.483716,0.996748 -0.791544,1.407204 -0.527712,0 -1.026087,0 -1.612406,0 0.278493,-0.513057 0.542348,-0.967459 0.791543,-1.436518 z"
       id="path106"
       style="stroke-width:0.0231553;fill:#6f6f0c;fill-opacity:1" />
  </g>
  <g
     transform="matrix(0.95879878,0,0,0.95879878,-871.34292,-378.35028)"
     id="g893" />
</svg>
