<?xml version="1.0" encoding="UTF-8"?>
<svg width="40" height="40" version="1.1" viewBox="0 0 40 40" xmlns="http://www.w3.org/2000/svg"><defs><mask id="c" fill="#ffffff"><path d="m0 0h313.3v159.86h-313.3z" fill="#fff" fill-rule="evenodd"/></mask></defs><mask id="a" fill="#ffffff"><path d="m0 0h313.3v159.86h-313.3z" fill="#fff" fill-rule="evenodd"/></mask><mask id="b" fill="#ffffff"><path d="m0 0h313.3v159.86h-313.3z" fill="#fff" fill-rule="evenodd"/></mask><g><g transform="matrix(.15831 0 0 .15831 -3.0809 -24.115)" fill="none" fill-rule="evenodd"><g transform="matrix(.92863 0 0 -.92863 9.2718 454.16)"><g transform="matrix(.94489 0 0 .94489 8.6963 2.7018)" fill="#bababa" mask="url(#c)"><path transform="rotate(35 137.93 151.55)" d="m203.46 95.688c6.9363 0 12.559-14.809 12.559-33.077 0-18.268-5.623-33.077-12.559-33.077s-12.559 14.809-12.559 33.077c0 18.268 5.623 33.077 12.559 33.077z"/><path transform="matrix(-.81915 .57358 .57358 .81915 58.085 47.705)" d="m30.142 95.688c6.9363 0 12.559-14.809 12.559-33.077 0-18.268-5.623-33.077-12.559-33.077-6.9363 0-12.559 14.809-12.559 33.077 0 18.268 5.623 33.077 12.559 33.077z"/><path transform="matrix(-1 0 0 1 272.63 53.671)" d="m116.73 66.275c6.9363 0 12.559-14.809 12.559-33.077 0-18.268-5.623-33.077-12.559-33.077-6.9363 0-12.559 14.809-12.559 33.077 0 18.268 5.623 33.077 12.559 33.077z"/></g><path transform="matrix(.94489 0 0 .94489 8.6963 2.7018)" d="m251.47 173.1c-20.23-33.61-56.89-56.068-98.756-56.068-40.721 0-76.516 21.246-97.059 53.335" fill="none" mask="url(#c)" stroke="#bababa" stroke-width="20"/></g></g><g fill="#005e2c"><polygon class="st0" transform="matrix(.26345 0 0 .26345 -.58412 -15.974)" points="30.6 62.5 9 75 9 99.9 30.6 112.3 52.2 99.9 52.2 75"/><path class="st0" d="m21.914 21.885 5.3744 3.1088 5.3744-3.1088v-6.2175l-5.3744-3.1088-5.3744 3.1088zm5.3744 3.7937-5.9804-3.4513v-6.9288l5.9804-3.4513 5.9804 3.4513v6.9288z" stroke-width="1.0506"/><polygon class="st0" transform="matrix(.26345 0 0 .26345 -.58412 -15.974)" points="78.4 144.9 55.7 158 32.9 144.9 32.9 118.6 55.7 105.5 78.4 118.6"/><path class="st0" d="m15.302 10.161 5.4008 3.1088 5.3744-3.1088v-6.1912l-5.3744-3.1088-5.4008 3.1088zm5.4008 3.8201-6.0067-3.4513v-6.9288l5.9804-3.4513 5.9804 3.4513v6.9288z" stroke-width="1.0506"/></g></g></svg>
