<?xml version="1.0" standalone="no"?>
<!DOCTYPE svg PUBLIC "-//W3C//DTD SVG 20010904//EN"
 "http://www.w3.org/TR/2001/REC-SVG-20010904/DTD/svg10.dtd">
<svg version="1.0" xmlns="http://www.w3.org/2000/svg"
 width="1024.000000pt" height="249.000000pt" viewBox="0 0 1024.000000 249.000000"
 preserveAspectRatio="xMidYMid meet">

<g transform="translate(0.000000,249.000000) scale(0.100000,-0.100000)"
fill="#000000" stroke="none">
<path d="M2066 2478 c-133 -16 -231 -80 -278 -183 -32 -70 -32 -210 0 -272 48
-92 119 -138 318 -206 268 -92 334 -149 334 -292 0 -103 -40 -163 -135 -207
-42 -19 -67 -23 -160 -23 -105 0 -114 2 -177 33 -77 38 -123 89 -149 166 -17
51 -18 51 -65 54 l-47 3 6 -37 c17 -105 97 -208 200 -259 181 -88 432 -62 553
59 68 69 88 127 82 245 -5 102 -25 147 -91 208 -59 54 -93 71 -272 133 -82 28
-166 60 -187 71 -54 28 -105 83 -117 126 -33 118 13 223 118 271 47 22 70 26
146 25 172 -1 245 -56 291 -220 2 -8 22 -13 55 -13 l52 0 -6 39 c-8 60 -49
141 -92 183 -83 80 -220 115 -379 96z"/>
<path d="M2647 2483 c-4 -3 -7 -26 -7 -50 l0 -43 165 0 165 0 0 -575 0 -575
45 0 45 0 0 575 0 575 166 0 165 0 -3 48 -3 47 -366 3 c-201 1 -368 -1 -372
-5z"/>
<path d="M3943 2478 c-6 -7 -99 -256 -208 -553 -108 -297 -210 -575 -226 -617
l-28 -78 53 0 53 0 19 53 19 52 375 0 374 0 21 -52 20 -53 52 0 53 0 -34 93
c-19 50 -118 322 -221 602 -103 281 -192 522 -197 538 -9 25 -14 27 -63 27
-30 0 -57 -5 -62 -12z m226 -566 c90 -251 166 -463 168 -469 4 -10 -67 -13
-337 -13 -289 0 -341 2 -337 14 3 8 79 219 168 470 90 251 166 456 169 456 3
0 79 -206 169 -458z"/>
<path d="M4617 2483 c-4 -3 -7 -282 -7 -620 l0 -613 50 0 50 0 0 570 0 570
220 0 c264 0 300 -9 374 -91 108 -121 78 -302 -65 -383 -52 -30 -60 -31 -192
-34 l-138 -4 3 -46 3 -47 114 0 114 -1 145 -272 145 -272 54 0 55 0 -65 123
c-36 67 -104 194 -151 282 l-85 160 45 23 c114 58 177 168 177 307 -1 194
-115 319 -314 345 -84 11 -522 14 -532 3z"/>
<path d="M5637 2483 c-4 -3 -7 -26 -7 -50 l0 -43 165 0 165 0 0 -575 0 -575
45 0 45 0 0 575 0 575 166 0 165 0 -3 48 -3 47 -366 3 c-201 1 -368 -1 -372
-5z"/>
<path d="M6503 2477 c3 -8 96 -145 207 -306 l201 -291 -213 -308 c-118 -169
-217 -313 -222 -319 -5 -10 7 -13 52 -13 l58 0 186 272 c101 150 189 273 195
275 6 2 95 -120 199 -272 l188 -275 53 0 c29 0 53 4 53 9 0 4 -97 149 -215
320 l-216 312 206 299 c113 164 205 301 205 305 0 3 -25 5 -57 3 l-56 -3 -174
-255 c-96 -140 -179 -255 -184 -255 -6 0 -88 115 -182 255 l-172 255 -59 3
c-47 2 -57 0 -53 -11z"/>
<path d="M978 1757 l-177 -102 -1 -215 0 -216 178 -102 c97 -56 182 -102 187
-102 6 1 89 47 185 103 l175 102 0 214 0 213 -179 104 c-98 57 -181 104 -185
104 -3 0 -86 -47 -183 -103z m347 -30 l160 -92 3 -195 2 -195 -161 -93 c-98
-57 -167 -91 -177 -87 -10 3 -84 45 -167 93 l-150 88 0 193 0 193 160 93 c88
52 162 94 165 95 3 0 78 -42 165 -93z"/>
<path d="M172 1738 l-172 -101 2 -200 3 -199 170 -99 c94 -54 173 -99 177 -99
3 0 82 44 175 98 l168 98 0 203 0 203 -170 99 c-93 54 -172 98 -175 98 -3 0
-83 -46 -178 -101z"/>
<path d="M568 1037 l-178 -102 3 -214 2 -213 179 -104 c98 -57 181 -104 185
-104 3 1 85 47 181 103 l175 103 3 215 2 215 -177 102 c-98 56 -183 102 -188
102 -6 0 -90 -47 -187 -103z"/>
<path d="M1380 1036 l-175 -103 0 -214 0 -213 175 -103 c96 -56 179 -102 185
-103 5 0 90 46 187 102 l178 102 0 216 -1 215 -178 103 c-98 56 -183 102 -187
101 -5 0 -88 -47 -184 -103z m360 -34 l155 -90 0 -193 0 -193 -160 -93 c-88
-51 -163 -93 -168 -93 -4 0 -79 42 -167 93 l-160 92 0 195 0 195 163 93 c89
50 167 90 172 88 6 -2 80 -44 165 -94z"/>
<path d="M2130 711 l0 -211 130 0 130 0 0 40 0 40 -85 0 -85 0 -2 168 -3 167
-42 3 -43 3 0 -210z"/>
<path d="M2559 893 c-6 -16 -42 -108 -80 -207 -38 -98 -69 -180 -69 -182 0 -2
22 -4 49 -4 48 0 50 1 61 35 l12 35 93 0 93 0 12 -35 c11 -34 13 -35 60 -35
l49 0 -13 38 c-12 32 -121 314 -141 365 -6 13 -19 17 -61 17 -50 0 -55 -2 -65
-27z m100 -152 c17 -47 31 -86 31 -88 0 -2 -29 -3 -65 -3 -36 0 -65 2 -65 4 0
11 63 177 65 174 2 -2 17 -41 34 -87z"/>
<path d="M3040 711 l0 -211 45 0 45 0 0 85 0 85 95 0 95 0 0 -85 0 -85 45 0
45 0 0 211 0 210 -42 -3 -43 -3 -3 -82 -3 -83 -94 0 -94 0 -3 83 -3 82 -42 3
-43 3 0 -210z"/>
<path d="M3600 904 c-116 -50 -162 -194 -97 -309 54 -96 187 -131 295 -76 154
79 142 318 -20 385 -47 20 -132 20 -178 0z m171 -92 c27 -24 33 -37 37 -87 6
-71 -15 -116 -63 -139 -42 -20 -68 -20 -111 0 -80 38 -93 165 -24 227 44 39
117 39 161 -1z"/>
<path d="M3970 710 l0 -210 45 0 45 0 1 143 0 142 56 -142 c75 -192 79 -192
153 0 l55 142 3 -142 3 -143 44 0 45 0 0 210 0 211 -62 -3 -63 -3 -49 -123
c-27 -68 -51 -120 -55 -117 -3 4 -26 59 -51 123 l-46 117 -62 3 -62 3 0 -211z"/>
<path d="M4500 710 l0 -211 148 3 147 3 0 35 0 35 -102 3 -103 3 0 44 0 45
100 0 100 0 0 40 0 40 -100 0 -100 0 0 45 0 44 103 3 102 3 0 35 0 35 -147 3
-148 3 0 -211z"/>
<path d="M5084 906 c-95 -42 -100 -169 -7 -209 21 -9 63 -23 94 -31 67 -19 85
-36 70 -65 -6 -11 -20 -23 -32 -26 -32 -10 -105 4 -132 26 -33 25 -40 24 -60
-11 -22 -36 -18 -44 36 -72 52 -27 166 -31 211 -8 45 23 71 65 71 115 0 64
-36 98 -133 124 -42 11 -83 27 -91 36 -45 45 68 75 134 36 l34 -20 25 32 26
32 -22 16 c-50 38 -164 51 -224 25z"/>
<path d="M5360 913 c0 -4 25 -99 57 -210 l58 -203 47 0 c54 0 45 -16 89 165
12 50 25 93 28 97 4 4 22 -53 40 -127 l34 -135 48 0 c45 0 48 2 58 33 26 84
101 359 101 373 0 12 -10 14 -47 12 l-47 -3 -31 -130 c-17 -71 -33 -137 -36
-145 -3 -8 -20 42 -38 110 -43 170 -44 172 -83 168 l-31 -3 -34 -130 c-19 -71
-36 -137 -40 -145 -3 -8 -22 50 -42 130 l-36 145 -47 3 c-27 2 -48 -1 -48 -5z"/>
<path d="M5970 710 l0 -210 145 0 145 0 0 40 0 40 -100 0 -100 0 0 45 0 45
100 0 100 0 0 40 0 40 -100 0 -100 0 0 45 0 45 100 0 100 0 0 40 0 40 -145 0
-145 0 0 -210z"/>
<path d="M6330 710 l0 -210 151 0 150 0 -3 38 -3 37 -102 3 -103 3 0 44 0 45
100 0 100 0 0 40 0 40 -100 0 -100 0 0 45 0 45 106 0 105 0 -3 38 -3 37 -147
3 -148 3 0 -211z"/>
<path d="M6670 880 l0 -40 60 0 60 0 0 -170 0 -170 45 0 45 0 0 170 0 170 60
0 60 0 0 40 0 40 -165 0 -165 0 0 -40z"/>
<path d="M7309 897 c-62 -33 -101 -92 -107 -161 -7 -82 4 -119 48 -169 82 -93
211 -102 301 -20 21 19 39 38 39 42 0 4 -16 15 -36 25 -37 17 -37 17 -63 -8
-102 -98 -249 36 -186 168 32 68 127 88 184 40 29 -24 34 -25 61 -14 41 17 43
23 19 54 -53 67 -175 87 -260 43z"/>
<path d="M7744 901 c-81 -37 -134 -140 -118 -230 10 -60 50 -118 102 -148 91
-54 226 -30 285 49 111 150 12 348 -173 348 -32 0 -72 -8 -96 -19z m181 -94
c91 -91 20 -253 -104 -233 -24 3 -47 17 -68 41 -28 30 -33 42 -33 85 0 93 42
140 123 140 42 0 54 -5 82 -33z"/>
<path d="M8120 710 l0 -210 45 0 44 0 3 141 3 142 55 -142 c73 -189 77 -189
152 2 l57 142 0 -142 1 -143 45 0 45 0 0 210 0 211 -62 -3 -63 -3 -45 -117
c-25 -64 -48 -120 -52 -123 -3 -3 -28 49 -54 117 l-49 123 -63 3 -62 3 0 -211z"/>
<path d="M8657 913 c-4 -3 -7 -98 -7 -210 l0 -203 45 0 45 0 0 75 0 75 79 0
c96 0 138 23 159 85 25 76 -14 155 -86 175 -41 11 -225 14 -235 3z m208 -79
c27 -11 38 -53 20 -80 -14 -21 -23 -24 -80 -24 l-65 0 0 55 0 55 54 0 c30 0
62 -3 71 -6z"/>
<path d="M9050 758 c-34 -90 -71 -184 -81 -210 l-19 -48 49 0 c48 0 50 1 62
35 l13 36 95 -3 95 -3 10 -32 c8 -32 11 -33 58 -33 42 0 49 2 44 18 -3 9 -39
103 -79 207 l-73 190 -55 3 -55 3 -64 -163z m153 -20 c15 -42 27 -79 27 -82 0
-3 -29 -6 -65 -6 l-64 0 31 90 c17 50 35 87 38 83 4 -5 19 -42 33 -85z"/>
<path d="M9427 914 c-4 -4 -7 -99 -7 -211 l0 -203 45 0 44 0 3 136 3 136 95
-136 95 -136 43 0 42 0 0 211 0 210 -42 -3 -43 -3 -5 -127 -5 -127 -90 127
c-88 123 -92 127 -131 130 -22 2 -43 0 -47 -4z"/>
<path d="M9840 911 c0 -6 34 -62 75 -126 l75 -115 0 -85 0 -85 45 0 45 0 0 85
0 85 75 115 c41 64 75 120 75 126 0 6 -20 9 -47 7 -46 -3 -47 -4 -92 -76 -25
-41 -50 -74 -56 -74 -5 0 -31 33 -56 74 -45 72 -46 73 -92 76 -27 2 -47 -1
-47 -7z"/>
</g>
</svg>
