<?xml version="1.0" encoding="UTF-8" standalone="no"?>
<svg
   xmlns:dc="http://purl.org/dc/elements/1.1/"
   xmlns:cc="http://creativecommons.org/ns#"
   xmlns:rdf="http://www.w3.org/1999/02/22-rdf-syntax-ns#"
   xmlns:svg="http://www.w3.org/2000/svg"
   xmlns="http://www.w3.org/2000/svg"
   xmlns:sodipodi="http://sodipodi.sourceforge.net/DTD/sodipodi-0.dtd"
   xmlns:inkscape="http://www.inkscape.org/namespaces/inkscape"
   height="40"
   viewBox="0 0 60 40"
   width="60"
   version="1.1"
   id="svg36"
   sodipodi:docname="operator.svg"
   inkscape:version="1.0.1 (3bc2e813f5, 2020-09-07)">
  <sodipodi:namedview
     pagecolor="#ffffff"
     bordercolor="#666666"
     borderopacity="1"
     objecttolerance="10"
     gridtolerance="10"
     guidetolerance="10"
     inkscape:pageopacity="0"
     inkscape:pageshadow="2"
     inkscape:window-width="1920"
     inkscape:window-height="1016"
     id="namedview191"
     showgrid="false"
     inkscape:zoom="2.48125"
     inkscape:cx="-49.121153"
     inkscape:cy="30.265213"
     inkscape:window-x="0"
     inkscape:window-y="0"
     inkscape:window-maximized="1"
     inkscape:current-layer="g1480" />
  <metadata
     id="metadata42">
    <rdf:RDF>
      <cc:Work
         rdf:about="">
        <dc:format>image/svg+xml</dc:format>
        <dc:type
           rdf:resource="http://purl.org/dc/dcmitype/StillImage" />
        <dc:title />
      </cc:Work>
    </rdf:RDF>
  </metadata>
  <defs
     id="defs40">
    <mask
       id="a-1"
       fill="#ffffff">
      <path
         d="M 0,0 H 313.30315 V 159.86486 H 0 Z"
         fill="#ffffff"
         fill-rule="evenodd"
         id="path2-9" />
    </mask>
    <mask
       id="mask865"
       fill="#ffffff">
      <path
         d="M 0,0 H 313.30315 V 159.86486 H 0 Z"
         fill="#ffffff"
         fill-rule="evenodd"
         id="path863" />
    </mask>
  </defs>
  <mask
     id="a"
     fill="#ffffff">
    <path
       d="M 0,0 H 313.30315 V 159.86486 H 0 Z"
       fill="#ffffff"
       fill-rule="evenodd"
       id="path2" />
  </mask>
  <mask
     id="b"
     fill="#ffffff">
    <path
       d="M 0,0 H 313.30315 V 159.86486 H 0 Z"
       fill="#ffffff"
       fill-rule="evenodd"
       id="path5" />
  </mask>
  <g
     id="g1042"
     style="display:inline">
    <g
       id="g994"
       transform="matrix(0.08667043,0,0,0.08667043,54.837532,-43.975856)"
       style="display:inline">
      <path
         id="path990"
         style="fill:#000e44;fill-opacity:1;fill-rule:evenodd;stroke:none;stroke-width:3.14747"
         d="m 56.695351,510.77372 -107.53235,84.40183 -79.398391,-66.27467 61.189259,82.84335 -54.627399,74.39502 72.836531,-52.98696 102.528945,91.04567 -81.03891,-107.53235 z" />
    </g>
    <circle
       style="opacity:1;fill:#ed8c8c;fill-opacity:1;stroke:none;stroke-width:0.308165;stroke-miterlimit:2.5;stroke-opacity:1;stop-color:#000000"
       id="path912"
       cx="16.627409"
       cy="16.633268"
       r="16.433828" />
    <g
       fill="none"
       fill-rule="evenodd"
       transform="matrix(0.15069337,0,0,0.15069337,-6.1976669,-20.880758)"
       id="g1008">
      <g
         transform="matrix(0.92863152,0,0,-0.92863152,9.2718211,454.1644)"
         id="g1006">
        <g
           fill="#0f1689"
           mask="url(#a-1)"
           id="g1002"
           style="fill:#6f0f0c;fill-opacity:1"
           transform="matrix(0.94489362,0,0,0.94489362,8.6962507,2.7018401)">
          <path
             d="m 203.46068,95.687543 c 6.93631,0 12.5593,-14.80922 12.5593,-33.077318 0,-18.268097 -5.62299,-33.077317 -12.5593,-33.077317 -6.93631,0 -12.55931,14.80922 -12.55931,33.077317 0,18.268098 5.62299,33.077318 12.55931,33.077318 z"
             transform="rotate(35,137.93117,151.55002)"
             id="path996"
             style="fill:#6f0f0c;fill-opacity:1" />
          <path
             d="m 30.142322,95.687543 c 6.936311,0 12.559301,-14.80922 12.559301,-33.077318 0,-18.268097 -5.62299,-33.077317 -12.559301,-33.077317 -6.93631,0 -12.559301,14.80922 -12.559301,33.077317 0,18.268098 5.622991,33.077318 12.559301,33.077318 z"
             transform="matrix(-0.81915204,0.57357644,0.57357644,0.81915204,58.084611,47.704768)"
             id="path998"
             style="fill:#6f0f0c;fill-opacity:1" />
          <path
             d="m 116.73282,66.275268 c 6.93631,0 12.5593,-14.80922 12.5593,-33.077318 0,-18.268097 -5.62299,-33.07731673 -12.55931,-33.07731673 -6.93631,0 -12.5593,14.80921973 -12.5593,33.07731673 0,18.268098 5.62299,33.077318 12.55931,33.077318 z"
             transform="matrix(-1,0,0,1,272.62852,53.670762)"
             id="path1000"
             style="fill:#6f0f0c;fill-opacity:1" />
        </g>
        <path
           d="m 251.46701,173.09985 c -20.23008,-33.60997 -56.88957,-56.06791 -98.75578,-56.06791 -40.7208,0 -76.515877,21.2459 -97.058696,53.33459"
           mask="url(#a-1)"
           stroke="#0f1689"
           stroke-width="20"
           id="path1004"
           style="stroke:#6f0c0c;stroke-opacity:1"
           transform="matrix(0.94489362,0,0,0.94489362,8.6962507,2.7018401)" />
      </g>
    </g>
    <g
       id="g1480">
      <path
         d="m 11.845513,9.3064662 c 0.190522,-0.1905225 0.490918,-0.2150691 0.709493,-0.058832 l 1.26353,0.9027438 c 0.135976,-0.06351 0.27351,-0.120783 0.411826,-0.1718217 l 0.255199,-1.5308072 c 0.04441,-0.2657189 0.27429,-0.4605278 0.543514,-0.4601394 l 2.203678,-1.4e-6 c 0.269615,8e-7 0.499489,0.1948099 0.543514,0.4601418 l 0.255199,1.5308073 c 0.138313,0.051045 0.27546,0.1087026 0.411827,0.1718206 l 1.263529,-0.902744 c 0.219354,-0.1562383 0.51975,-0.1316908 0.710273,0.058833 L 20.806713,9.6960846 21.57309,8.9297069 C 18.330304,6.0897835 13.378653,6.214851 10.287038,9.3064662 L 4.0531558,15.540348 c -0.2150688,0.215069 -0.5641658,0.21507 -0.7792353,0 L 2.6559874,14.922415 v 2.794337 l 2.7943374,1e-6 -0.6179338,-0.617934 c -0.2150688,-0.215069 -0.2150688,-0.564167 0,-0.779236 l 5.454647,-5.454646 z"
         id="path2-47"
         style="display:inline;fill:#6f0f0c;fill-opacity:1;stroke-width:0.551003" />
      <path
         d="m 20.005662,13.051471 c -0.100522,-0.185455 -0.08649,-0.411436 0.03585,-0.582868 l 0.82482,-1.154438 -0.898458,-0.898457 -1.154437,0.824821 c -0.171426,0.122344 -0.397799,0.136756 -0.582868,0.03584 -0.275457,-0.149226 -0.559491,-0.268055 -0.843911,-0.352214 -0.202214,-0.05961 -0.352212,-0.229878 -0.386889,-0.437542 l -0.232604,-1.3967748 -1.270154,-7e-7 -0.23377,1.3963905 c -0.03507,0.208056 -0.184681,0.377149 -0.38689,0.437541 -0.28481,0.08454 -0.568452,0.202991 -0.843911,0.352214 -0.185455,0.100522 -0.411436,0.08649 -0.582869,-0.03584 l -1.15483,-0.824435 -0.898458,0.898458 0.824821,1.154437 c 0.122345,0.171426 0.136756,0.3978 0.03585,0.582868 -0.149226,0.275457 -0.268056,0.559491 -0.352214,0.843912 -0.06,0.201822 -0.229878,0.352211 -0.437542,0.386889 l -1.396778,0.232601 v 1.270155 l 1.396778,0.2326 c 0.207666,0.03467 0.377929,0.18468 0.437542,0.38689 0.08455,0.284811 0.202989,0.568452 0.352214,0.843912 0.100522,0.185455 0.08649,0.411435 -0.03585,0.582867 l -0.824821,1.155997 0.898458,0.898458 1.154439,-0.824821 c 0.171434,-0.122337 0.397799,-0.136756 0.582867,-0.03585 0.275457,0.149227 0.559491,0.268057 0.84391,0.352214 0.202216,0.05961 0.352212,0.229879 0.38689,0.437543 l 0.232603,1.39678 1.270152,10e-7 0.232602,-1.39678 c 0.03467,-0.207666 0.184679,-0.377929 0.38689,-0.437542 0.28481,-0.08454 0.568452,-0.202989 0.843911,-0.352213 0.185454,-0.100522 0.411438,-0.08649 0.582867,0.03584 l 1.155995,0.824819 0.898459,-0.898457 -0.824817,-1.154435 c -0.122345,-0.171426 -0.136755,-0.3978 -0.03584,-0.582868 0.149226,-0.275457 0.268056,-0.559491 0.352213,-0.843911 0.06,-0.202605 0.229877,-0.352211 0.437543,-0.386891 l 1.396778,-0.232602 -10e-7,-1.270152 -1.396388,-0.233771 c -0.207665,-0.03467 -0.37793,-0.184678 -0.437542,-0.386891 -0.08454,-0.284809 -0.202991,-0.568452 -0.352604,-0.8443 z m -1.536652,4.436964 c -1.289245,1.289245 -3.386165,1.289245 -4.67541,1e-6 -1.289244,-1.289245 -1.289245,-3.386166 0,-4.675411 1.289245,-1.289245 3.386166,-1.289244 4.675411,0 1.289244,1.289245 1.289244,3.386165 -10e-7,4.67541 z"
         id="path4-8"
         style="display:inline;fill:#6f0f0c;fill-opacity:1;stroke-width:0.551003" />
      <circle
         cx="0.69337076"
         cy="22.119738"
         r="1.5852916"
         id="circle6"
         style="display:inline;fill:#6f0f0c;fill-opacity:1;stroke-width:0.396323"
         transform="rotate(-45)" />
      <path
         d="m 29.606619,12.58471 -2.794336,-2e-6 0.617933,0.617933 c 0.215068,0.21507 0.215068,0.564168 0,0.779237 l -5.454646,5.454645 -1.558471,1.558471 c -0.190523,0.190523 -0.490917,0.21507 -0.709494,0.05883 l -1.263529,-0.902745 c -0.135983,0.06351 -0.27351,0.120783 -0.411827,0.171822 l -0.255199,1.530807 c -0.04442,0.265717 -0.274291,0.460527 -0.543514,0.460141 l -2.203678,-1e-6 c -0.269616,-1e-6 -0.49949,-0.194809 -0.543514,-0.460141 l -0.2552,-1.530807 c -0.138312,-0.05105 -0.275459,-0.108703 -0.411825,-0.171822 l -1.263531,0.902745 c -0.219356,0.156234 -0.51975,0.131691 -0.710273,-0.05883 l -0.389617,-0.389618 -0.766378,0.766378 c 3.242787,2.839923 8.194437,2.714854 11.286053,-0.376762 l 6.233881,-6.233881 c 0.215069,-0.215069 0.564167,-0.215069 0.779235,10e-7 l 0.617934,0.617933 z"
         id="path8"
         style="display:inline;fill:#6f0f0c;fill-opacity:1;stroke-width:0.551003;stroke:none" />
    </g>
  </g>
  <g
     transform="matrix(0.95879878,0,0,0.95879878,-871.34292,-378.35028)"
     id="g893" />
</svg>
