<?xml version="1.0" encoding="UTF-8"?>
<svg width="40" height="40" version="1.1" viewBox="0 0 40 40" xmlns="http://www.w3.org/2000/svg" xmlns:cc="http://creativecommons.org/ns#" xmlns:dc="http://purl.org/dc/elements/1.1/" xmlns:rdf="http://www.w3.org/1999/02/22-rdf-syntax-ns#"><metadata><rdf:RDF><cc:Work rdf:about=""><dc:format>image/svg+xml</dc:format><dc:type rdf:resource="http://purl.org/dc/dcmitype/StillImage"/><dc:title/></cc:Work></rdf:RDF></metadata><defs><mask id="c" fill="#ffffff"><path d="m0 0h313.3v159.86h-313.3z" fill="#fff" fill-rule="evenodd"/></mask></defs><mask id="a" fill="#ffffff"><path d="m0 0h313.3v159.86h-313.3z" fill="#fff" fill-rule="evenodd"/></mask><mask id="b" fill="#ffffff"><path d="m0 0h313.3v159.86h-313.3z" fill="#fff" fill-rule="evenodd"/></mask><g transform="matrix(.87949 0 0 .87949 -75.66 -31.299)"><g transform="translate(96.564 87.836)" fill="#66ff9a" stroke-width="3.24"><polygon class="st0" transform="matrix(.72255 0 0 .7031 -28.717 -125.97)" points="32.9 144.9 32.9 118.6 55.7 105.5 78.4 118.6 78.4 144.9 55.7 158" fill="#ed8c8c"/></g><g transform="matrix(.15831 0 0 .15831 83.649 18.463)" fill="#005e20" fill-rule="evenodd"><g transform="matrix(1.0777 0 0 -1.0777 -10.799 451.79)"><g transform="matrix(.94489 0 0 .94489 8.6963 2.7018)" fill="#6f0c0c" mask="url(#c)"><path transform="rotate(35,137.93,151.55)" d="m203.46 95.688c6.9363 0 12.559-14.809 12.559-33.077s-5.623-33.077-12.559-33.077-12.559 14.809-12.559 33.077 5.623 33.077 12.559 33.077z"/><path transform="matrix(-.81915 .57358 .57358 .81915 58.085 47.705)" d="m30.142 95.688c6.9363 0 12.559-14.809 12.559-33.077s-5.623-33.077-12.559-33.077c-6.9363 0-12.559 14.809-12.559 33.077s5.623 33.077 12.559 33.077z"/><path d="m153.24 119.95c-6.9363 0-12.559-14.809-12.559-33.077s5.623-33.077 12.559-33.077c6.9363 0 12.559 14.809 12.559 33.077s-5.623 33.077-12.559 33.077z"/></g><path transform="matrix(.94489 0 0 .94489 8.6963 2.7018)" d="m251.47 173.1c-20.23-33.61-56.89-56.068-98.756-56.068-40.721 0-76.516 21.246-97.059 53.335" fill="none" mask="url(#c)" stroke="#6f0c0c" stroke-width="19.999"/></g></g></g><g transform="matrix(.78483 0 0 .78483 6.0413 4.2836)"><path d="m10.547 6.6695c0.28634-0.28634 0.73781-0.32323 1.0663-0.08842l1.899 1.3568c0.20436-0.095451 0.41106-0.18153 0.61894-0.25824l0.38354-2.3007c0.06674-0.39936 0.41224-0.69214 0.81686-0.69155l3.312-2e-6c0.40521 1.1e-6 0.75069 0.29278 0.81686 0.69156l0.38354 2.3007c0.20787 0.076717 0.414 0.16337 0.61894 0.25823l1.899-1.3568c0.32967-0.23481 0.78114-0.19792 1.0675 0.088422l0.58557 0.58557 1.1518-1.1518c-4.8737-4.2682-12.316-4.0802-16.962 0.56624l-5.3031 5.3031c-0.32323 0.32323-0.8479 0.32323-1.1711 0l-0.92871-0.92871v4.1997l4.1997 1e-6 -0.92871-0.92871c-0.32323-0.32323-0.32323-0.8479 0-1.1711l4.1319-4.1319z" fill="#fec1c1" stroke-width=".82812"/><path d="m22.811 12.298c-0.15108-0.27872-0.12999-0.61836 0.05387-0.87601l1.2396-1.735-1.3503-1.3503-1.735 1.2396c-0.25764 0.18387-0.59786 0.20553-0.87601 0.053865-0.41399-0.22428-0.84087-0.40287-1.2683-0.52935-0.30391-0.089586-0.52935-0.34549-0.58146-0.65759l-0.34959-2.0992-1.9089-1.2e-6 -0.35134 2.0987c-0.05272 0.31269-0.27756 0.56683-0.58147 0.65759-0.42805 0.12706-0.85434 0.30508-1.2683 0.52935-0.27872 0.15108-0.61836 0.12999-0.87601-0.053865l-1.7356-1.2391-1.3503 1.3503 1.2396 1.735c0.18388 0.25764 0.20553 0.59786 0.05387 0.87601-0.22428 0.41399-0.40287 0.84087-0.52935 1.2683-0.09018 0.30332-0.34549 0.52935-0.65759 0.58146l-2.0993 0.34958v1.9089l2.0993 0.34958c0.31211 0.05211 0.568 0.27756 0.65759 0.58147 0.12707 0.42805 0.30508 0.85434 0.52935 1.2683 0.15108 0.27873 0.12999 0.61836-0.05387 0.87601l-1.2396 1.7374 1.3503 1.3503 1.735-1.2396c0.25765-0.18386 0.59786-0.20554 0.876-0.05388 0.41399 0.22428 0.84087 0.40287 1.2683 0.52935 0.30392 0.08958 0.52935 0.34549 0.58147 0.6576l0.34958 2.0993 1.9089 1e-6 0.34958-2.0993c0.05211-0.31211 0.27756-0.568 0.58147-0.65759 0.42805-0.12706 0.85434-0.30508 1.2683-0.52935 0.27872-0.15108 0.61836-0.12999 0.87601 0.05386l1.7374 1.2396 1.3503-1.3503-1.2396-1.735c-0.18388-0.25764-0.20553-0.59786-0.05387-0.87601 0.22428-0.41399 0.40287-0.84087 0.52935-1.2683 0.09018-0.3045 0.34549-0.52935 0.6576-0.58147l2.0993-0.34958-1e-6 -1.9089-2.0987-0.35134c-0.3121-0.05211-0.568-0.27756-0.65759-0.58147-0.12706-0.42805-0.30508-0.85434-0.52994-1.2689zm-2.3095 6.6684c-1.9376 1.9376-5.0892 1.9376-7.0268 1e-6 -1.9376-1.9376-1.9376-5.0892 0-7.0268s5.0892-1.9376 7.0268 0 1.9376 5.0891-1e-6 7.0268z" fill="#6f0f0c" stroke-width=".82812"/><circle transform="rotate(-45)" cx="1.0852" cy="22.939" r="2.3826" fill="#6f0f0c" stroke-width=".59564"/><path d="m33.174 15.662-4.1997-3e-6 0.92871 0.92871c0.32323 0.32323 0.32323 0.8479 0 1.1711l-6.4742 6.4742c-0.28634 0.28634-0.73781 0.32323-1.0663 0.08843l-1.899-1.3568c-0.20437 0.09545-0.41106 0.18153-0.61895 0.25824l-0.38354 2.3007c-0.06675 0.39935-0.41224 0.69214-0.81686 0.69156l-3.312-3e-6c-0.40521-1e-6 -0.7507-0.29278-0.81686-0.69156l-0.38355-2.3007c-0.20787-0.07672-0.41399-0.16337-0.61894-0.25824l-1.899 1.3568c-0.32968 0.23481-0.78115 0.19792-1.0675-0.08843l-0.58557-0.58557-1.1518 1.1518c4.8737 4.2682 12.316 4.0802 16.962-0.56625l5.3031-5.3031c0.32323-0.32323 0.73495-0.13677 1.1711 1e-6l0.92871 0.92871z" fill="#fec1c1"/></g></svg>
