<?xml version="1.0" encoding="UTF-8"?>
<svg width="40" height="40" version="1.1" viewBox="0 0 40 40" xmlns="http://www.w3.org/2000/svg" xmlns:cc="http://creativecommons.org/ns#" xmlns:dc="http://purl.org/dc/elements/1.1/" xmlns:rdf="http://www.w3.org/1999/02/22-rdf-syntax-ns#"><metadata><rdf:RDF><cc:Work rdf:about=""><dc:format>image/svg+xml</dc:format><dc:type rdf:resource="http://purl.org/dc/dcmitype/StillImage"/><dc:title/></cc:Work></rdf:RDF></metadata><defs><mask id="c" fill="#ffffff"><path d="m0 0h313.3v159.86h-313.3z" fill="#fff" fill-rule="evenodd"/></mask></defs><mask id="a" fill="#ffffff"><path d="m0 0h313.3v159.86h-313.3z" fill="#fff" fill-rule="evenodd"/></mask><mask id="b" fill="#ffffff"><path d="m0 0h313.3v159.86h-313.3z" fill="#fff" fill-rule="evenodd"/></mask><g transform="matrix(.87949 0 0 .87949 -75.265 -30.721)"><g transform="translate(96.564,87.836)" fill="#8ceddc" stroke-width="3.24"><polygon class="st0" transform="matrix(.72255 0 0 .7031 -28.717 -125.97)" points="55.7 105.5 78.4 118.6 78.4 144.9 55.7 158 32.9 144.9 32.9 118.6" fill="#8ceddc"/></g><g transform="matrix(.15831 0 0 .15831 83.649 18.463)" fill="#005e20" fill-rule="evenodd"><g transform="matrix(1.0777,0,0,-1.0777,-10.799,451.79)"><g transform="matrix(.94489 0 0 .94489 8.6963 2.7018)" fill="#0c6f5e" mask="url(#c)"><path transform="rotate(35,137.93,151.55)" d="m203.46 95.688c6.9363 0 12.559-14.809 12.559-33.077s-5.623-33.077-12.559-33.077-12.559 14.809-12.559 33.077 5.623 33.077 12.559 33.077z"/><path transform="matrix(-.81915 .57358 .57358 .81915 58.085 47.705)" d="m30.142 95.688c6.9363 0 12.559-14.809 12.559-33.077s-5.623-33.077-12.559-33.077c-6.9363 0-12.559 14.809-12.559 33.077s5.623 33.077 12.559 33.077z"/><path d="m153.24 119.95c-6.9363 0-12.559-14.809-12.559-33.077s5.623-33.077 12.559-33.077c6.9363 0 12.559 14.809 12.559 33.077s-5.623 33.077-12.559 33.077z"/></g><path transform="matrix(.94489 0 0 .94489 8.6963 2.7018)" d="m251.47 173.1c-20.23-33.61-56.89-56.068-98.756-56.068-40.721 0-76.516 21.246-97.059 53.335" fill="none" mask="url(#c)" stroke="#0c6f5e" stroke-width="19.999"/></g></g></g><g transform="matrix(.11192 0 0 .11192 10.419 -8.2323)" fill="#8ceddc" stroke="#0c6f5e"><g transform="matrix(.9163 0 0 .9163 -13.56 21.1)" fill="#8ceddc" stroke="#0c6f5e"><path d="m51.503 295.36 71.807-71.829-0.0538-43.599" fill-rule="evenodd" stroke-width="14"/><g stroke-width="14"><path d="m16.873 262.12 53.181-52.764-0.0028-45.464-12.055-11.741" fill-rule="evenodd"/><circle cx="50.853" cy="144.23" r="12.109" stroke-linecap="round" stroke-linejoin="round"/></g><path d="m67.771 313.03 59.372-57.074h54.375" fill-rule="evenodd" stroke-width="14"/><rect x="182.88" y="241.55" width="29.63" height="29.63" rx="0" ry="0" stroke-linecap="round" stroke-width="12"/><g><path d="m121.14 134.31-28.854 29.255-0.009106 56.378-58.437 59.144" fill-rule="evenodd" stroke-width="14"/><path d="m130.17 150.13-25.938-25.938 35.432-9.4939z" stroke-linecap="round" stroke-width="12"/></g></g></g></svg>
